<svg xmlns="http://www.w3.org/2000/svg" width="84" height="84" viewBox="0 0 84 84">
  <g id="Grupo_1176893" data-name="Grupo 1176893" transform="translate(-706 -2661.42)">
    <rect id="Rectángulo_402006" data-name="Rectángulo 402006" width="84" height="84" rx="5" transform="translate(706 2661.42)" fill="#4d240b"/>
    <g id="Grupo_1177589" data-name="Grupo 1177589" transform="translate(708.512 2665.3)">
      <path id="Trazado_996309" data-name="Trazado 996309" d="M76.651,244.183l-8.277-4.693V235.4a4.914,4.914,0,1,0-2.233,0v2.821L54.6,231.681a1.116,1.116,0,1,0-1.1,1.942l.636.36L39.576,242.24l-14.5-8.224.543-.308a1.116,1.116,0,0,0-1.1-1.942l-11.5,6.522V235.4a4.914,4.914,0,1,0-2.233,0v4.15l-8.165,4.629a1.651,1.651,0,0,0-.016,2.863l15.749,9.17h0L38.8,268.125a1.654,1.654,0,0,0,1.662,0L65.308,253.66a1.116,1.116,0,0,0-1.123-1.93L60.3,253.991,41.84,243.523,56.4,235.267l9.741,5.523v4.362a1.116,1.116,0,1,0,2.233,0v-3.1l6.295,3.569-6.233,3.629a1.116,1.116,0,1,0,1.123,1.93l7.107-4.138a1.651,1.651,0,0,0-.017-2.863ZM64.577,230.619a2.681,2.681,0,1,1,2.681,2.681A2.684,2.684,0,0,1,64.577,230.619Zm-55.363,0a2.681,2.681,0,1,1,2.681,2.681A2.684,2.684,0,0,1,9.213,230.619Zm1.565,11.5v3.033a1.116,1.116,0,0,0,2.233,0v-4.3l9.8-5.555,14.5,8.224L18.908,253.959,4.6,245.626Zm47.29,13.171L39.632,266.026,21.141,255.259l18.435-10.453Z" transform="translate(0 -192.109)" fill="#fbaf00"/>
      <path id="Trazado_996310" data-name="Trazado 996310" d="M154.568,62.7h0a1.117,1.117,0,0,0,.186.173,15.706,15.706,0,1,0-1.295-21.8,1.116,1.116,0,1,0,1.693,1.455,13.475,13.475,0,1,1,20.239,17.794l-.911-.78a1.116,1.116,0,0,0-1.452,1.7l.726.621a13.45,13.45,0,0,1-16.615.107l2.21-1.891A9.512,9.512,0,0,1,169.4,58.635a1.116,1.116,0,0,0,.917-2.036,11.627,11.627,0,0,0-3.69-.972V51.347h1.789a5.021,5.021,0,0,0,5.015-5.015V45.17a1.752,1.752,0,0,0-1.75-1.75h-2.272a5.021,5.021,0,0,0-4.512,2.828,4.993,4.993,0,0,0-3.286-1.231h-2.272a1.752,1.752,0,0,0-1.75,1.75v1.161a5.021,5.021,0,0,0,5.015,5.015h1.789v2.687a11.715,11.715,0,0,0-6.495,2.748l-2.417,2.068a13.475,13.475,0,0,1-2.613-14.164,1.116,1.116,0,1,0-2.072-.833A15.708,15.708,0,0,0,154.568,62.7Zm12.058-14.26a2.786,2.786,0,0,1,2.783-2.783H171.2v.678a2.786,2.786,0,0,1-2.783,2.783h-1.789ZM162.6,50.711a2.786,2.786,0,0,1-2.783-2.783v-.678h1.789a2.786,2.786,0,0,1,2.783,2.783v.678Z" transform="translate(-125.878 -30.297)" fill="#fbaf00"/>
      <path id="Trazado_996311" data-name="Trazado 996311" d="M131.237,41.667l2.332,2.744a1.987,1.987,0,0,0,3.029,0l2.332-2.744a21.006,21.006,0,1,0-7.692,0ZM116.309,20.673a18.832,18.832,0,0,1,18.638-18.44h.137a18.778,18.778,0,0,1,3.074,37.3,1.117,1.117,0,0,0-.669.379l-2.406,2.831-2.406-2.831a1.116,1.116,0,0,0-.669-.379,18.781,18.781,0,0,1-15.7-18.862Z" transform="translate(-95.582 0)" fill="#fbaf00"/>
      <path id="Trazado_996312" data-name="Trazado 996312" d="M226.887,388.084v3.5a1.116,1.116,0,1,0,2.233,0v-3.5a4.914,4.914,0,1,0-2.233,0ZM228,380.619a2.681,2.681,0,1,1-2.681,2.681A2.684,2.684,0,0,1,228,380.619Z" transform="translate(-188.372 -322.064)" fill="#fbaf00"/>
    </g>
  </g>
</svg>
