<svg xmlns="http://www.w3.org/2000/svg" xmlns:xlink="http://www.w3.org/1999/xlink" width="59.711" height="59.711" viewBox="0 0 59.711 59.711">
  <defs>
    <clipPath id="clip-path">
      <rect id="Rectángulo_454588" data-name="Rectángulo 454588" width="55.118" height="55.118" transform="translate(744.042 9170.297)" fill="#fff" stroke="#707070" stroke-width="1"/>
    </clipPath>
  </defs>
  <g id="Grupo_1177600" data-name="Grupo 1177600" transform="translate(-1166.289 -4601.764)">
    <g id="Grupo_1177453" data-name="Grupo 1177453" transform="translate(424.543 -4566.236)">
      <path id="Elipse_5729" data-name="Elipse 5729" d="M29.855,0A29.855,29.855,0,1,1,0,29.855,29.855,29.855,0,0,1,29.855,0Z" transform="translate(741.746 9168)" fill="#02614b"/>
      <g id="Enmascarar_grupo_1119174" data-name="Enmascarar grupo 1119174" clip-path="url(#clip-path)">
        <g id="agricultor_1_" data-name="agricultor (1)" transform="translate(743.972 9170.306)">
          <g id="Grupo_1177474" data-name="Grupo 1177474">
            <rect id="Rectángulo_454851" data-name="Rectángulo 454851" width="28.211" height="17.369" transform="translate(8.391 36.933)" fill="#f2fbff"/>
            <path id="Trazado_995396" data-name="Trazado 995396" d="M36.6,36.933V54.3H30.289c-.737-6.188-.115-12.316.354-17.369Z" fill="#dff6fd"/>
            <path id="Trazado_995397" data-name="Trazado 995397" d="M8.391,36.933h0A7.466,7.466,0,0,0,.925,44.4v8.074A1.829,1.829,0,0,0,2.753,54.3H8.391Z" fill="#f2fbff"/>
            <path id="Trazado_995398" data-name="Trazado 995398" d="M19.6,36.933V31.918a6.691,6.691,0,0,1-6.691-6.691V14.1H32.081V25.228a6.691,6.691,0,0,1-6.691,6.691v5.015l-2.894,2.8Z" fill="#ffdfcf"/>
            <path id="Trazado_995399" data-name="Trazado 995399" d="M28.653,14.1V25.228a6.692,6.692,0,0,1-5.533,6.591,1.41,1.41,0,0,0-1.158,1.394v3.721l-1.18,1.142L22.5,39.733l2.894-2.8V31.918a6.691,6.691,0,0,0,6.691-6.691V14.1Z" fill="#ffcebf"/>
            <path id="Trazado_995400" data-name="Trazado 995400" d="M32.081,17.907h2.672a1.584,1.584,0,0,1,1.584,1.584v3.992a1.584,1.584,0,0,1-1.584,1.584H32.081Z" fill="#ffb09e"/>
            <path id="Trazado_995401" data-name="Trazado 995401" d="M12.912,17.907H10.24a1.584,1.584,0,0,0-1.584,1.584v3.992a1.584,1.584,0,0,0,1.584,1.584h2.672v-7.16Z" fill="#ffcebf"/>
            <path id="Trazado_995402" data-name="Trazado 995402" d="M22.5,39.733l-2.8,2.607a.739.739,0,0,1-1.2-.308l-1.691-5.1V35.475a.96.96,0,0,1,.96-.96H19.6v2.418Z" fill="#6c7fd8"/>
            <path id="Trazado_995403" data-name="Trazado 995403" d="M22.5,39.733l2.8,2.607a.739.739,0,0,0,1.2-.308l1.691-5.1V35.475a.96.96,0,0,0-.96-.96H25.39v2.418Z" fill="#4f66d0"/>
            <path id="Trazado_995404" data-name="Trazado 995404" d="M19.746,54.3H16.579L10.15,36.51a1.489,1.489,0,0,1,1.4-1.995h0a1.489,1.489,0,0,1,1.4.983Z" fill="#7a6d79"/>
            <path id="Trazado_995405" data-name="Trazado 995405" d="M16.579,54.3H13.413L6.984,36.51a1.489,1.489,0,0,1,1.4-1.995h0a1.489,1.489,0,0,1,1.4.983Z" fill="#a79ba7"/>
            <path id="Trazado_995406" data-name="Trazado 995406" d="M7.41,14.1H37.583a1.63,1.63,0,0,0,1.63-1.63h0a1.63,1.63,0,0,0-1.63-1.63H7.41a1.63,1.63,0,0,0-1.63,1.63h0A1.63,1.63,0,0,0,7.41,14.1Z" fill="#6c7fd8"/>
            <path id="Trazado_995407" data-name="Trazado 995407" d="M37.583,10.846H34.155a1.63,1.63,0,0,1,1.63,1.63h0a1.63,1.63,0,0,1-1.63,1.63h3.427a1.63,1.63,0,0,0,1.63-1.63h0A1.63,1.63,0,0,0,37.583,10.846Z" fill="#4f66d0"/>
            <path id="Trazado_995408" data-name="Trazado 995408" d="M12.912,10.846H32.081l-2.1-8.613A1.866,1.866,0,0,0,27.585.9L22.5,2.586,17.408.9a1.866,1.866,0,0,0-2.4,1.33Z" fill="#dff6fd"/>
            <path id="Trazado_995409" data-name="Trazado 995409" d="M32.08,10.845H28.653l-2.1-8.613a1.862,1.862,0,0,0-.455-.84L27.584.9a1.866,1.866,0,0,1,2.4,1.33Z" fill="#c8effe"/>
            <path id="Trazado_995410" data-name="Trazado 995410" d="M53.876,32.7c-.684-.684-2.284-.193-3.574,1.1a5.666,5.666,0,0,0-1.008,1.346,43.157,43.157,0,0,0-13.352,0A5.666,5.666,0,0,0,34.934,33.8c-1.29-1.29-2.89-1.781-3.574-1.1s-.193,2.284,1.1,3.574a5.746,5.746,0,0,0,1.239.95,77.826,77.826,0,0,0,0,17.078H49.669a1.915,1.915,0,0,0,1.906-1.681,65.919,65.919,0,0,0-.235-15.291,5.6,5.6,0,0,0,1.44-1.056C54.069,34.984,54.56,33.384,53.876,32.7Z" fill="#ffe177"/>
            <path id="Trazado_995411" data-name="Trazado 995411" d="M52.78,36.273a5.592,5.592,0,0,1-1.44,1.057,65.888,65.888,0,0,1,.235,15.291A1.915,1.915,0,0,1,49.669,54.3H46.242a1.916,1.916,0,0,0,1.905-1.681,64.313,64.313,0,0,0-.13-14.357,1.512,1.512,0,0,1,.624-1.38,6.064,6.064,0,0,0,.712-.611,4.062,4.062,0,0,0,1.4-2.882c1.193-.979,2.52-1.3,3.127-.691C54.56,33.384,54.069,34.984,52.78,36.273Z" fill="#ffd15b"/>
            <g id="Grupo_1177473" data-name="Grupo 1177473">
              <path id="Trazado_995412" data-name="Trazado 995412" d="M39.612,48.624h0a2.9,2.9,0,0,1,0-4.1l1.908-1.908a2.9,2.9,0,0,1,4.1,0h0a2.9,2.9,0,0,1,0,4.1l-1.908,1.908A2.9,2.9,0,0,1,39.612,48.624Z" fill="#a79ba7"/>
            </g>
          </g>
          <g id="Grupo_1177476" data-name="Grupo 1177476">
            <line id="Línea_3274" data-name="Línea 3274" x1="5.043" transform="translate(28.194 36.933)" fill="none" stroke="#000" stroke-linecap="round" stroke-linejoin="round" stroke-miterlimit="10" stroke-width="1.615"/>
            <path id="Trazado_995413" data-name="Trazado 995413" d="M36.6,54.3H8.391V40.4" fill="none" stroke="#000" stroke-linecap="round" stroke-linejoin="round" stroke-miterlimit="10" stroke-width="1.615"/>
            <line id="Línea_3275" data-name="Línea 3275" x1="3.331" transform="translate(13.469 36.933)" fill="none" stroke="#000" stroke-linecap="round" stroke-linejoin="round" stroke-miterlimit="10" stroke-width="1.615"/>
            <path id="Trazado_995414" data-name="Trazado 995414" d="M8.391,40.4V54.3H2.753A1.829,1.829,0,0,1,.924,52.473V44.4a7.469,7.469,0,0,1,6.248-7.368" fill="none" stroke="#000" stroke-linecap="round" stroke-linejoin="round" stroke-miterlimit="10" stroke-width="1.615"/>
            <path id="Trazado_995415" data-name="Trazado 995415" d="M19.6,36.933V31.918a6.691,6.691,0,0,1-6.691-6.691V14.1H32.081V25.228a6.691,6.691,0,0,1-6.691,6.691v5.015l-2.894,2.8Z" fill="none" stroke="#000" stroke-linecap="round" stroke-linejoin="round" stroke-miterlimit="10" stroke-width="1.615"/>
            <path id="Trazado_995416" data-name="Trazado 995416" d="M32.081,17.907h2.672a1.584,1.584,0,0,1,1.584,1.584v3.992a1.584,1.584,0,0,1-1.584,1.584H32.081Z" fill="none" stroke="#000" stroke-linecap="round" stroke-linejoin="round" stroke-miterlimit="10" stroke-width="1.615"/>
            <path id="Trazado_995417" data-name="Trazado 995417" d="M12.912,17.907H10.24a1.584,1.584,0,0,0-1.584,1.584v3.992a1.584,1.584,0,0,0,1.584,1.584h2.672v-7.16Z" fill="none" stroke="#000" stroke-linecap="round" stroke-linejoin="round" stroke-miterlimit="10" stroke-width="1.615"/>
            <line id="Línea_3276" data-name="Línea 3276" y2="2.215" transform="translate(22.496 21.108)" fill="none" stroke="#000" stroke-linecap="round" stroke-linejoin="round" stroke-miterlimit="10" stroke-width="1.615"/>
            <path id="Trazado_995418" data-name="Trazado 995418" d="M20.282,26.092a5.441,5.441,0,0,0,4.429,0" fill="none" stroke="#000" stroke-linecap="round" stroke-linejoin="round" stroke-miterlimit="10" stroke-width="1.615"/>
            <path id="Trazado_995419" data-name="Trazado 995419" d="M22.5,39.733l-2.8,2.607a.739.739,0,0,1-1.2-.308l-1.691-5.1V35.475a.96.96,0,0,1,.96-.96H19.6v2.418Z" fill="none" stroke="#000" stroke-linecap="round" stroke-linejoin="round" stroke-miterlimit="10" stroke-width="1.615"/>
            <path id="Trazado_995420" data-name="Trazado 995420" d="M22.5,39.733l2.8,2.607a.739.739,0,0,0,1.2-.308l1.691-5.1V35.475a.96.96,0,0,0-.96-.96H25.39v2.418Z" fill="none" stroke="#000" stroke-linecap="round" stroke-linejoin="round" stroke-miterlimit="10" stroke-width="1.615"/>
            <line id="Línea_3277" data-name="Línea 3277" y2="4.851" transform="translate(22.496 39.733)" fill="none" stroke="#000" stroke-linecap="round" stroke-linejoin="round" stroke-miterlimit="10" stroke-width="1.615"/>
            <path id="Trazado_995421" data-name="Trazado 995421" d="M19.746,54.3H16.579L10.15,36.51a1.489,1.489,0,0,1,1.4-1.995h0a1.489,1.489,0,0,1,1.4.983Z" fill="none" stroke="#000" stroke-linecap="round" stroke-linejoin="round" stroke-miterlimit="10" stroke-width="1.615"/>
            <path id="Trazado_995422" data-name="Trazado 995422" d="M16.579,54.3H13.413L6.984,36.51a1.489,1.489,0,0,1,1.4-1.995h0a1.489,1.489,0,0,1,1.4.983Z" fill="none" stroke="#000" stroke-linecap="round" stroke-linejoin="round" stroke-miterlimit="10" stroke-width="1.615"/>
            <path id="Trazado_995423" data-name="Trazado 995423" d="M7.41,14.1H37.583a1.63,1.63,0,0,0,1.63-1.63h0a1.63,1.63,0,0,0-1.63-1.63H7.41a1.63,1.63,0,0,0-1.63,1.63h0A1.63,1.63,0,0,0,7.41,14.1Z" fill="none" stroke="#000" stroke-linecap="round" stroke-linejoin="round" stroke-miterlimit="10" stroke-width="1.615"/>
            <path id="Trazado_995424" data-name="Trazado 995424" d="M12.912,10.846H32.081l-2.1-8.613A1.866,1.866,0,0,0,27.585.9L22.5,2.586,17.408.9a1.866,1.866,0,0,0-2.4,1.33l-1.2,4.92" fill="none" stroke="#000" stroke-linecap="round" stroke-linejoin="round" stroke-miterlimit="10" stroke-width="1.615"/>
            <path id="Trazado_995425" data-name="Trazado 995425" d="M45.538,34.712a43.041,43.041,0,0,0-9.6.431A5.666,5.666,0,0,0,34.934,33.8c-1.29-1.29-2.89-1.781-3.574-1.1s-.193,2.284,1.1,3.574a5.746,5.746,0,0,0,1.239.95,77.826,77.826,0,0,0,0,17.078H49.669a1.915,1.915,0,0,0,1.906-1.681,65.919,65.919,0,0,0-.235-15.291,5.6,5.6,0,0,0,1.44-1.056c1.29-1.29,1.781-2.89,1.1-3.574s-2.284-.193-3.574,1.1a5.666,5.666,0,0,0-1.008,1.346" fill="none" stroke="#000" stroke-linecap="round" stroke-linejoin="round" stroke-miterlimit="10" stroke-width="1.615"/>
            <g id="Grupo_1177475" data-name="Grupo 1177475">
              <path id="Trazado_995426" data-name="Trazado 995426" d="M39.612,48.624h0a2.9,2.9,0,0,1,0-4.1l1.908-1.908a2.9,2.9,0,0,1,4.1,0h0a2.9,2.9,0,0,1,0,4.1l-1.908,1.908A2.9,2.9,0,0,1,39.612,48.624Z" fill="none" stroke="#000" stroke-linecap="round" stroke-linejoin="round" stroke-miterlimit="10" stroke-width="1.615"/>
              <line id="Línea_3278" data-name="Línea 3278" x1="6.013" y2="6.013" transform="translate(39.612 42.611)" fill="none" stroke="#000" stroke-linecap="round" stroke-linejoin="round" stroke-miterlimit="10" stroke-width="1.615"/>
            </g>
          </g>
        </g>
      </g>
    </g>
  </g>
</svg>
