<svg xmlns="http://www.w3.org/2000/svg" xmlns:xlink="http://www.w3.org/1999/xlink" width="59.711" height="59.711" viewBox="0 0 59.711 59.711">
  <defs>
    <clipPath id="clip-path">
      <rect id="Rectángulo_454588" data-name="Rectángulo 454588" width="55.118" height="55.118" transform="translate(744.042 9170.297)" fill="#fff" stroke="#707070" stroke-width="1"/>
    </clipPath>
  </defs>
  <g id="Grupo_1177597" data-name="Grupo 1177597" transform="translate(-230.289 -4601.764)">
    <g id="Grupo_1177268" data-name="Grupo 1177268" transform="translate(-511.457 -4566.236)">
      <path id="Elipse_5729" data-name="Elipse 5729" d="M29.855,0A29.855,29.855,0,1,1,0,29.855,29.855,29.855,0,0,1,29.855,0Z" transform="translate(741.746 9168)" fill="#02614b"/>
      <g id="Enmascarar_grupo_1119171" data-name="Enmascarar grupo 1119171" clip-path="url(#clip-path)">
        <g id="ambiental" transform="translate(744.042 9170.297)">
          <g id="Grupo_1177459" data-name="Grupo 1177459">
            <path id="Trazado_995347" data-name="Trazado 995347" d="M24.514,47.374H35.226V41.717A2.676,2.676,0,0,0,31,39.64L27.838,41.9H24.514v5.476Z" fill="#fed2a4"/>
            <path id="Trazado_995348" data-name="Trazado 995348" d="M43.111,39.37a2.674,2.674,0,0,0-3.732-.622l-9.608,6.867a3.545,3.545,0,0,1-.355.22v0l-1.174.931L26.3,46.734v-.454l.465-.209a2.665,2.665,0,0,0-.987-5.145h-2.8a5.43,5.43,0,0,1-3.022-.913A5.155,5.155,0,0,0,13.6,40.5l-.568.521a3.044,3.044,0,0,1-2.057.8h-.893V52.526h15.8a10.7,10.7,0,0,0,6.22-1.994L42.489,43.1A2.678,2.678,0,0,0,43.111,39.37Z" fill="#ffe5c2"/>
            <path id="Trazado_995349" data-name="Trazado 995349" d="M2.591,53.418a.892.892,0,0,0,.892.892h5.7a.892.892,0,0,0,.892-.892V40.925a.892.892,0,0,0-.892-.892h-5.7a.892.892,0,0,0-.892.892Z" fill="#c8effe"/>
            <g id="Grupo_1177456" data-name="Grupo 1177456">
              <g id="Grupo_1177455" data-name="Grupo 1177455">
                <g id="Grupo_1177454" data-name="Grupo 1177454">
                  <path id="Trazado_995350" data-name="Trazado 995350" d="M43.111,39.37a2.674,2.674,0,0,0-3.732-.622l-2.492,1.785a2.676,2.676,0,0,1,3.2,4.29l2.4-1.718A2.678,2.678,0,0,0,43.111,39.37Z" fill="#fed2a4"/>
                </g>
              </g>
            </g>
            <path id="Trazado_995351" data-name="Trazado 995351" d="M9.725,40.033H7.232a.892.892,0,0,1,.892.892V53.418a.892.892,0,0,1-.892.892H9.725a.892.892,0,0,0,.892-.892V40.925A.892.892,0,0,0,9.725,40.033Z" fill="#99e6fc"/>
            <g id="Grupo_1177458" data-name="Grupo 1177458">
              <g id="Grupo_1177457" data-name="Grupo 1177457">
                <path id="Trazado_995352" data-name="Trazado 995352" d="M44.9,29.237a16.082,16.082,0,0,0,4.921-7.029L47.526,7.229A16.078,16.078,0,0,0,39.24,1.464l-10.423.449a16.082,16.082,0,0,0-6.1,4.244h0l-.879,20.331a16.121,16.121,0,0,0,5.592,4.693Z" fill="#01d0fb"/>
                <path id="Trazado_995353" data-name="Trazado 995353" d="M48.243,16.858a16.023,16.023,0,0,1-6.237,12.7l2.894-.322a16.082,16.082,0,0,0,4.921-7.029L47.526,7.229A16.077,16.077,0,0,0,39.24,1.464l-2.184.094A16.057,16.057,0,0,1,48.243,16.858Z" fill="#01c0fa"/>
                <path id="Trazado_995354" data-name="Trazado 995354" d="M26.124,22.209V21.7a1.635,1.635,0,0,1,1.635-1.635A4.28,4.28,0,0,0,31.587,17.7l.505-1.01a4.281,4.281,0,0,0,.452-1.914V11.923a2.555,2.555,0,0,0-2.555-2.555h-.954a2.555,2.555,0,0,1-2.424-1.747,2.14,2.14,0,0,0-2.03-1.463H22.722a16.051,16.051,0,0,0-.879,20.331h0A4.28,4.28,0,0,0,26.124,22.209Z" fill="#9be69d"/>
                <path id="Trazado_995355" data-name="Trazado 995355" d="M49.642,18.64l-.907-8.355-3.7-3.057H42.68a4.28,4.28,0,0,0-3.828,2.366l-.505,1.01a4.281,4.281,0,0,0-.452,1.914v1.947a2.14,2.14,0,0,0,1.183,1.914l2.193,1.1a4.28,4.28,0,0,0,1.914.452h1.13A1.07,1.07,0,0,1,45.385,19v1.07a2.14,2.14,0,0,0,1.948,2.13Z" fill="#9be69d"/>
                <path id="Trazado_995356" data-name="Trazado 995356" d="M48.243,16.858a16.023,16.023,0,0,1-.911,5.341c.064.006.128.01.193.01h2.3A16.072,16.072,0,0,0,47.526,7.228H45.033A15.979,15.979,0,0,1,48.243,16.858Z" fill="#6fd7a3"/>
                <path id="Trazado_995357" data-name="Trazado 995357" d="M37.358,1.156l-2.883-.3H33.447a15.967,15.967,0,0,0-4.63,1.059l.4.808a4.28,4.28,0,0,0,3.828,2.366h2.63a2.14,2.14,0,0,0,1.781-.953L38.747,2.2Z" fill="#9be69d"/>
                <path id="Trazado_995358" data-name="Trazado 995358" d="M33.438.855A15.955,15.955,0,0,1,38.747,2.2l.493-.739h0A16.053,16.053,0,0,0,34.684.807Q34.055.807,33.438.855Z" fill="#6fd7a3"/>
                <path id="Trazado_995359" data-name="Trazado 995359" d="M34.22,32.853l2.954-.353,5.6-2.477L43.9,27.836h0l-.446-.625a4.28,4.28,0,0,0-3.483-1.792H37.347a4.976,4.976,0,0,0-4.14,2.216h0a2.233,2.233,0,0,1-1.858.994h0a4.279,4.279,0,0,0-3.914,2.553,15.956,15.956,0,0,0,6.023,1.679Z" fill="#9be69d"/>
                <path id="Trazado_995360" data-name="Trazado 995360" d="M43.9,27.836a16.007,16.007,0,0,1-10.463,5.025q.617.047,1.246.048a15.986,15.986,0,0,0,10.208-3.663l.009-.008h0Z" fill="#6fd7a3"/>
              </g>
              <path id="Trazado_995361" data-name="Trazado 995361" d="M32.983,24.1a17.812,17.812,0,0,0-14.35-7.241q-.458,0-.91.023a.894.894,0,0,0-.847.941,17.837,17.837,0,0,0,17.812,16.87c.2,0,.4,0,.6-.011Z" fill="#6fd7a3"/>
              <path id="Trazado_995362" data-name="Trazado 995362" d="M32.421,34.55a18.011,18.011,0,0,0,2.267.143c.2,0,.4,0,.6-.011L32.983,24.1a17.94,17.94,0,0,0-2.142-2.407,20.345,20.345,0,0,0,1.58,12.857Z" fill="#3ec3a4"/>
              <path id="Trazado_995363" data-name="Trazado 995363" d="M32.9,25.776a17.749,17.749,0,0,0,2.381,8.906A17.838,17.838,0,0,0,50.423,8.449a.893.893,0,0,0-.843-.469A17.836,17.836,0,0,0,32.9,25.776Z" fill="#6fd7a3"/>
              <path id="Trazado_995364" data-name="Trazado 995364" d="M50.423,8.449a.893.893,0,0,0-.843-.469,17.859,17.859,0,0,0-1.837.215.888.888,0,0,1,.207.254,17.839,17.839,0,0,1-12.794,26c.043.078.085.156.129.233A17.838,17.838,0,0,0,50.423,8.449Z" fill="#3ec3a4"/>
            </g>
          </g>
          <g id="Grupo_1177468" data-name="Grupo 1177468">
            <g id="Grupo_1177462" data-name="Grupo 1177462">
              <path id="Trazado_995365" data-name="Trazado 995365" d="M2.592,46.28v7.138a.892.892,0,0,0,.892.892H9.725a.892.892,0,0,0,.892-.892V40.926a.892.892,0,0,0-.892-.892H3.484a.892.892,0,0,0-.892.892v1.581" fill="none" stroke="#000" stroke-linecap="round" stroke-linejoin="round" stroke-miterlimit="10" stroke-width="1.615"/>
              <g id="Grupo_1177461" data-name="Grupo 1177461">
                <g id="Grupo_1177460" data-name="Grupo 1177460">
                  <path id="Trazado_995366" data-name="Trazado 995366" d="M27.838,41.9,31,39.64a2.676,2.676,0,0,1,4.228,2.077" fill="none" stroke="#000" stroke-linecap="round" stroke-linejoin="round" stroke-miterlimit="10" stroke-width="1.615"/>
                </g>
                <path id="Trazado_995367" data-name="Trazado 995367" d="M10.617,52.526H25.879A10.7,10.7,0,0,0,32.1,50.531L42.489,43.1a2.676,2.676,0,0,0-3.11-4.357l-9.608,6.867a3.565,3.565,0,0,1-2.073.665H25.776" fill="none" stroke="#000" stroke-linecap="round" stroke-linejoin="round" stroke-miterlimit="10" stroke-width="1.615"/>
              </g>
              <path id="Trazado_995368" data-name="Trazado 995368" d="M20.425,46.28h5.29a2.725,2.725,0,0,0,2.735-2.729,2.676,2.676,0,0,0-2.675-2.625h-2.8a5.46,5.46,0,0,1-3.03-.918h0a5.154,5.154,0,0,0-2.861-.867h0A5.155,5.155,0,0,0,13.6,40.5l-.568.521a3.043,3.043,0,0,1-2.057.8h-.355" fill="none" stroke="#000" stroke-linecap="round" stroke-linejoin="round" stroke-miterlimit="10" stroke-width="1.615"/>
            </g>
            <g id="Grupo_1177467" data-name="Grupo 1177467">
              <g id="Grupo_1177464" data-name="Grupo 1177464">
                <path id="Trazado_995369" data-name="Trazado 995369" d="M20.579,9.207a16.056,16.056,0,0,1,27.585-1.08" fill="none" stroke="#000" stroke-linecap="round" stroke-linejoin="round" stroke-miterlimit="10" stroke-width="1.615"/>
                <path id="Trazado_995370" data-name="Trazado 995370" d="M18.641,16.858a16.081,16.081,0,0,1,.505-4.011" fill="none" stroke="#000" stroke-linecap="round" stroke-linejoin="round" stroke-miterlimit="10" stroke-width="1.615"/>
                <g id="Grupo_1177463" data-name="Grupo 1177463">
                  <path id="Trazado_995371" data-name="Trazado 995371" d="M28.825,1.914l.4.808a4.28,4.28,0,0,0,3.828,2.366h2.63a2.14,2.14,0,0,0,1.781-.953l1.78-2.67" fill="none" stroke="#000" stroke-linecap="round" stroke-linejoin="round" stroke-miterlimit="10" stroke-width="1.615"/>
                  <path id="Trazado_995372" data-name="Trazado 995372" d="M28.7,19.965A4.281,4.281,0,0,0,31.6,17.7l.505-1.01a4.281,4.281,0,0,0,.452-1.914V11.923A2.555,2.555,0,0,0,30,9.368h-.954A2.555,2.555,0,0,1,26.62,7.621a2.14,2.14,0,0,0-2.03-1.463H22.73" fill="none" stroke="#000" stroke-linecap="round" stroke-linejoin="round" stroke-miterlimit="10" stroke-width="1.615"/>
                  <path id="Trazado_995373" data-name="Trazado 995373" d="M47.534,7.228H42.688A4.28,4.28,0,0,0,38.86,9.594l-.505,1.01a4.281,4.281,0,0,0-.452,1.914V13.4" fill="none" stroke="#000" stroke-linecap="round" stroke-linejoin="round" stroke-miterlimit="10" stroke-width="1.615"/>
                </g>
              </g>
              <g id="Grupo_1177466" data-name="Grupo 1177466">
                <path id="Trazado_995374" data-name="Trazado 995374" d="M32.909,25.775a17.751,17.751,0,0,0,2.38,8.906A17.838,17.838,0,0,0,50.422,8.449a.893.893,0,0,0-.843-.469A17.834,17.834,0,0,0,32.909,25.775Z" fill="none" stroke="#000" stroke-linecap="round" stroke-linejoin="round" stroke-miterlimit="10" stroke-width="1.615"/>
                <path id="Trazado_995375" data-name="Trazado 995375" d="M34.827,33.828c-3.177-1.606-10.062-5.652-12.618-11.62" fill="none" stroke="#000" stroke-linecap="round" stroke-linejoin="round" stroke-miterlimit="10" stroke-width="1.615"/>
                <path id="Trazado_995376" data-name="Trazado 995376" d="M35.289,34.681s9.5-5.617,11-20.5" fill="none" stroke="#000" stroke-linecap="round" stroke-linejoin="round" stroke-miterlimit="10" stroke-width="1.615"/>
                <g id="Grupo_1177465" data-name="Grupo 1177465">
                  <path id="Trazado_995377" data-name="Trazado 995377" d="M32.987,24.1a17.805,17.805,0,0,0-14.346-7.241q-.458,0-.91.023a.894.894,0,0,0-.846.941,17.834,17.834,0,0,0,17.807,16.87c.2,0,.4,0,.6-.011" fill="none" stroke="#000" stroke-linecap="round" stroke-linejoin="round" stroke-miterlimit="10" stroke-width="1.615"/>
                </g>
              </g>
            </g>
          </g>
        </g>
      </g>
    </g>
  </g>
</svg>
