<svg xmlns="http://www.w3.org/2000/svg" xmlns:xlink="http://www.w3.org/1999/xlink" width="416" height="318.233" viewBox="0 0 416 318.233">
  <defs>
    <clipPath id="clip-path">
      <path id="Trazado_992795" data-name="Trazado 992795" d="M271.518,40.644c-24.355.778-48.418,5.262-72.6,8.226a584.387,584.387,0,0,1-62.229,4.274c-12.2.187-24.512-.022-36.386-2.807C83.844,46.48,66.626,37.774,50.987,44.178l2.715.329C34.691,53.8,21.609,73.131,17.368,93.861s-.273,42.588,8.446,61.868c3.491,7.717,7.788,15.176,13.659,21.283,10.769,11.2,25.914,16.99,40.832,21.348,56.874,16.617,117.169,17.2,176.332,13.944,19.613-1.081,39.4-2.607,58.179-8.369,9.172-2.816,18.153-6.7,25.625-12.715,6.017-4.847,10.9-10.948,15.466-17.18,15.415-21.032,28.269-45.918,26.264-71.919-.52-6.761-2.092-13.549-5.522-19.4-3.708-6.331-9.383-11.253-15.189-15.74a134.513,134.513,0,0,0-19-12.532c-19.493-10.355-41.9-13.914-64.05-13.914q-3.45,0-6.89.11" transform="translate(-15.661 -40.534)" fill="none"/>
    </clipPath>
  </defs>
  <g id="Grupo_1176902" data-name="Grupo 1176902" transform="translate(-498 -2211)">
    <rect id="Rectángulo_402012" data-name="Rectángulo 402012" width="416" height="318.233" transform="translate(498 2211)" fill="#e5efec"/>
    <rect id="Rectángulo_454557" data-name="Rectángulo 454557" width="416" height="39.233" transform="translate(498 2490)" fill="#99c0b7"/>
    <g id="Grupo_1176900" data-name="Grupo 1176900" transform="translate(498 2229.463)">
      <g id="Grupo_1176897" data-name="Grupo 1176897" transform="translate(29.284 75.793)">
        <g id="Grupo_1176896" data-name="Grupo 1176896" clip-path="url(#clip-path)">
          <rect id="Rectángulo_454556" data-name="Rectángulo 454556" width="397.543" height="181.429" transform="translate(-0.888 -7.766)" fill="#a4f6ff"/>
          <path id="Trazado_992754" data-name="Trazado 992754" d="M64.529,34.871c-2.82,1.752-5.6,3.871-7,6.883s-.939,7.111,1.81,8.973C63.688,53.678,69.346,49.4,74.6,49.447c-1.369,4.89,1.079,10.3,5.052,13.459s9.181,4.389,14.254,4.622c5.421.249,11.784-1.163,14.058-6.09,1.23,5.574,7.835,8.856,13.4,7.59s9.813-6.1,11.728-11.475c4.677,3.347,11.76.247,14.413-4.852s2.027-11.253.838-16.877q-.76,1.388-1.524,2.779" transform="translate(20.089 -45.46)" fill="#fffaf0"/>
          <path id="Trazado_992755" data-name="Trazado 992755" d="M64.438,67.917a14.78,14.78,0,0,1,8.394-8.381,5.809,5.809,0,0,1,3.929-.342c2.728.948,2.848,5.6.174,6.694a37.129,37.129,0,0,1,17.407-4.7c2.771-.075,5.754.206,7.885,1.973s2.786,5.492.641,7.246a31.146,31.146,0,0,1,12.378-4.256c2.42-.288,5.1-.215,6.978,1.331,2.908,2.388,2.369,7.313-.2,10.062s-6.449,3.8-10.159,4.422c1.718.346,1.911,3.009.647,4.222s-3.182,1.35-4.933,1.419L97.355,88" transform="translate(26.768 -24.489)" fill="#fffaf0"/>
          <path id="Trazado_992756" data-name="Trazado 992756" d="M38.972,149.175c6.01-4.063,263.25-104.563,324.553-100.593s34.86,164.912,30.052,164.379S102.68,198,102.68,198" transform="translate(4.617 -33.633)" fill="#708e26"/>
          <path id="Trazado_992757" data-name="Trazado 992757" d="M21.368,208.7S-6.28,36.978,34.589,47.71,361.549,196.678,375.973,208.7s-354.606,0-354.606,0" transform="translate(-18.648 -34.712)" fill="#7eaa29"/>
          <path id="Trazado_992758" data-name="Trazado 992758" d="M148.174,196.455c-9.131-12.59-18.39-25.428-23.381-40.159-4.643-13.708-5.361-28.422-5.194-42.895.054-4.583,1.12-10.378,5.587-11.4a179.514,179.514,0,0,1,10.787,50.793,184.363,184.363,0,0,1,.385-54.086c1.341-8.607,3.863-17.986,11.148-22.764,1.73,1.881,1.621,4.757,1.4,7.3q-2.819,32.334-7.369,64.484A128.806,128.806,0,0,1,153.8,109.994c1.195-2.356,3.091-5.032,5.718-4.738,1.386,4.95.23,10.213-.929,15.221q-3.851,16.63-7.7,33.263a120.953,120.953,0,0,1,13.635-23.9c1.866-2.543,4.476-5.288,7.59-4.776,1.165,3.973-.275,8.194-1.7,12.081l-12.15,33.188a28.132,28.132,0,0,1,9.2-9.643,3.771,3.771,0,0,1,2.668-.811c1.864.385,2.16,2.915,1.907,4.8a48.46,48.46,0,0,1-19.1,32.257" transform="translate(74.732 -9.732)" fill="#e2c430"/>
          <path id="Trazado_992759" data-name="Trazado 992759" d="M172.294,99.217a36.692,36.692,0,0,1-8.341-22.747c.036-8.233,3.521-16.535,9.85-21.8.69-.572,1.625-1.135,2.425-.729.744.38.89,1.367.913,2.2A33.975,33.975,0,0,1,173.288,72.7a68.7,68.7,0,0,1,9.054-21.6c4.91-7.681,12.558-14.886,21.668-14.57q-9.284,13.662-19.467,26.681a37.866,37.866,0,0,1,20.574-9.467,2.856,2.856,0,0,1,2.081.292c1.408,1.055.032,3.231-1.324,4.351q-11,9.093-22.008,18.184a52.362,52.362,0,0,1,19.215-7.79c1.335-.251,2.844-.413,3.938.395a3.558,3.558,0,0,1,.727,4.336,9.679,9.679,0,0,1-3.293,3.384,94.564,94.564,0,0,1-16.889,9.72c2.479-.929,5.114-1.872,7.713-1.372s4.994,3.053,4.3,5.61c-.55,2.038-2.689,3.169-4.663,3.919a46,46,0,0,1-21.9,2.642" transform="translate(113.332 -44.029)" fill="#97c427"/>
          <path id="Trazado_992760" data-name="Trazado 992760" d="M178.424,103.347a36.689,36.689,0,0,1-16.608-17.64c-3.2-7.584-3.259-16.589.494-23.917.408-.8,1.049-1.683,1.943-1.623.834.056,1.356.905,1.7,1.666a33.954,33.954,0,0,1,2.962,16.733,68.68,68.68,0,0,1-.159-23.418c1.5-8.992,5.7-18.622,14.2-21.911q-3.167,16.209-7.418,32.182a37.848,37.848,0,0,1,15.2-16.788,2.852,2.852,0,0,1,2.029-.55c1.707.417,1.3,2.96.49,4.521l-13.093,25.37a52.372,52.372,0,0,1,14.607-14.714c1.131-.755,2.455-1.5,3.777-1.185a3.56,3.56,0,0,1,2.375,3.7,9.712,9.712,0,0,1-1.7,4.405,94.563,94.563,0,0,1-11.711,15.572c1.915-1.827,3.968-3.73,6.554-4.293s5.791.847,6.161,3.467c.3,2.092-1.229,3.973-2.749,5.439a46.014,46.014,0,0,1-19.1,11.032" transform="translate(109.417 -46.881)" fill="#8aaa27"/>
          <path id="Trazado_992761" data-name="Trazado 992761" d="M182.689,75.454a5.405,5.405,0,0,1,5.967,4.572.941.941,0,0,0,1.8,0,8.16,8.16,0,0,1,4.123-6.04c1.055-.58.112-2.2-.944-1.614a9.891,9.891,0,0,0-4.981,7.156h1.8a7.258,7.258,0,0,0-8.267-5.877.943.943,0,0,0-.653,1.15.958.958,0,0,0,1.15.653" transform="translate(128.604 -12.947)" fill="#8aaa27"/>
          <path id="Trazado_992762" data-name="Trazado 992762" d="M190.241,63.157a6.546,6.546,0,0,1,3.657,2.373.939.939,0,0,0,1.322,0c1.06-1.167,2.218-2.521,3.772-3.014a2.725,2.725,0,0,1,3.341,1.1.943.943,0,0,0,1.616,0,6.14,6.14,0,0,1,7.388-2.919c1.141.391,1.631-1.415.5-1.8a8.012,8.012,0,0,0-9.5,3.777h1.616a4.444,4.444,0,0,0-4.688-2.124c-2.246.329-3.91,2.062-5.363,3.663h1.322a8.175,8.175,0,0,0-4.482-2.853.936.936,0,0,0-.5,1.8" transform="translate(135.62 -24.916)" fill="#8aaa27"/>
          <path id="Trazado_992763" data-name="Trazado 992763" d="M173.372,85.533a2.269,2.269,0,0,1,2.453,1.945.944.944,0,0,0,1.743.473,13.062,13.062,0,0,1,7.663-6.1.936.936,0,0,0-.5-1.8,14.988,14.988,0,0,0-8.781,6.954l1.743.471a4.16,4.16,0,0,0-4.82-3.747.94.94,0,0,0-.653,1.15.957.957,0,0,0,1.15.653" transform="translate(120.5 -6.195)" fill="#8aaa27"/>
          <path id="Trazado_992764" data-name="Trazado 992764" d="M182.105,87.534a3.674,3.674,0,0,1,3.441,2.257.943.943,0,0,0,1.8,0,5.01,5.01,0,0,1,4.374-3.373c1.195-.069,1.2-1.939,0-1.87a6.946,6.946,0,0,0-6.176,4.746h1.8a5.588,5.588,0,0,0-5.243-3.629.935.935,0,0,0,0,1.87" transform="translate(128.337 -2.25)" fill="#8aaa27"/>
          <path id="Trazado_992765" data-name="Trazado 992765" d="M71.391,161.528c-5.346-2.014-10.795-4.082-15.236-7.676s-7.784-9.039-7.386-14.738c.1-1.378.531-2.911,1.754-3.553,2.895-1.516,6.062,3.4,9.112,2.221,1.7-3.317-1.8-6.731-4.14-9.626a18.579,18.579,0,0,1-1.071-21.283c1-1.526,2.68-3.042,4.424-2.515,1.485.449,2.158,2.13,2.61,3.613a133.337,133.337,0,0,1,3.34,13.454A54.21,54.21,0,0,1,81.514,69.269c1.625-1.421,3.6-2.82,5.735-2.539,3.257.424,4.768,4.624,3.816,7.767s-3.472,5.509-5.595,8.016-4.009,5.7-3.306,8.906c2.132-3.28,5.194-6.174,9-7.055s8.349.8,9.83,4.415a10.629,10.629,0,0,1-.146,7.109c-3.523,11.311-15.266,19.138-17.01,30.858-.769,5.163.557,10.378,1.371,15.535s1.032,10.776-1.657,15.252-9.248,6.907-13.345,3.667" transform="translate(13.111 -17.779)" fill="#3c721d"/>
          <path id="Trazado_992766" data-name="Trazado 992766" d="M69.016,137.385a132.029,132.029,0,0,0-.533-17.93,141.1,141.1,0,0,0-2.816-17.663,108.962,108.962,0,0,0-5.32-17.049,89.292,89.292,0,0,0-8.356-15.737A89.039,89.039,0,0,1,59.953,84.9a108.463,108.463,0,0,1,4.886,17.074,140.038,140.038,0,0,1,2.378,17.588,130.947,130.947,0,0,1,.108,17.7Z" transform="translate(15.941 -15.767)" fill="#ff9100"/>
          <path id="Trazado_992767" data-name="Trazado 992767" d="M61.136,106.915A11.879,11.879,0,0,0,72.9,97.466c.3-1.685.118-3.657-1.208-4.738a3.973,3.973,0,0,0-4.19-.254,8.547,8.547,0,0,0-3.143,3.061,20.846,20.846,0,0,0-3.469,10.722" transform="translate(23.678 4.235)" fill="#ff9100"/>
          <path id="Trazado_992768" data-name="Trazado 992768" d="M65.2,101.913a7.978,7.978,0,0,1-4.615-1.685,15.947,15.947,0,0,1-2.36-2.481c-1.533-1.868-3.138-3.9-3.323-6.309a2.745,2.745,0,0,1,.486-1.984c.924-1.1,2.719-.686,3.958.047a12.417,12.417,0,0,1,5.937,11.225" transform="translate(18.463 1.432)" fill="#ff9100"/>
          <path id="Trazado_992769" data-name="Trazado 992769" d="M60.115,94.044A8.978,8.978,0,0,0,67.689,91.7a6.433,6.433,0,0,0,1.864-3.052,4.172,4.172,0,0,0-.611-3.454,3.114,3.114,0,0,0-3.2-1.2,4.463,4.463,0,0,0-1.634.95,12.917,12.917,0,0,0-4.577,9.381" transform="translate(22.504 -2.802)" fill="#ff9100"/>
          <path id="Trazado_992770" data-name="Trazado 992770" d="M65.31,86.185a7.618,7.618,0,0,0-2.244-3.79,18.162,18.162,0,0,0-5.12-3.5,10.457,10.457,0,0,0-3.672-1.116,4.855,4.855,0,0,0-3.6,1.081,3.2,3.2,0,0,0-.918,3.5,4.721,4.721,0,0,0,1.367,1.657A14.615,14.615,0,0,0,57.945,87.5a8.98,8.98,0,0,0,7.3-1.73" transform="translate(13.823 -8.151)" fill="#ff9100"/>
          <path id="Trazado_992771" data-name="Trazado 992771" d="M58.961,87.958a10.329,10.329,0,0,0,5.914-4.379,6.825,6.825,0,0,0,1.133-3.2,4.124,4.124,0,0,0-1.086-3.145,2.979,2.979,0,0,0-3.151-.727c-1.266.524-1.889,1.943-2.251,3.265a40.138,40.138,0,0,0-1.07,7.855" transform="translate(21.561 -9.407)" fill="#ff9100"/>
          <path id="Trazado_992772" data-name="Trazado 992772" d="M57.359,82.363a3.563,3.563,0,0,0,1.8-1.5,8.364,8.364,0,0,0-.189-9.476,1.458,1.458,0,0,0-1-.7,1.418,1.418,0,0,0-1.114.707c-1.335,1.806-1.483,4.224-1.313,6.464a7.91,7.91,0,0,0,1.46,4.557" transform="translate(18.984 -14.313)" fill="#ff9100"/>
          <path id="Trazado_992773" data-name="Trazado 992773" d="M76.916,146.08A32.857,32.857,0,0,1,63.04,135.693c-2.167-2.659-4.067-5.683-4.6-9.071s.572-7.2,3.4-9.145,7.371-1.247,8.884,1.831c-3.414-6.458-5.376-13.915-4.166-21.12s5.987-14.026,12.878-16.453c1.651-.582,3.6-.873,5.062.084a5.125,5.125,0,0,1,1.967,3.254C87.44,89.427,85.336,93.8,83.56,97.9s-3.25,8.932-1.154,12.874a10.189,10.189,0,0,1,4.807-6.238,7.021,7.021,0,0,1,7.607.6c3.1,2.62,2.711,7.47,1.651,11.387a59.907,59.907,0,0,1-19.562,30.331" transform="translate(21.443 -5.163)" fill="#468c20"/>
          <path id="Trazado_992774" data-name="Trazado 992774" d="M90.179,115.377c-.832-2.074-3.138-3.11-5.288-3.714a31.938,31.938,0,0,0-15.084-.507c-1.318.277-2.949,1.129-2.663,2.448.208.95,1.307,1.361,2.248,1.614l4.458,1.2a36.693,36.693,0,0,0-13.055-.125,18.861,18.861,0,0,0-11.152,6.4c-.582.733-1.086,1.825-.479,2.537a2.17,2.17,0,0,0,1.705.516,37.43,37.43,0,0,0,7.277-.72,17.029,17.029,0,0,0-14.912,13.624,23.1,23.1,0,0,0,17.276-5.595c-2.251,1.154-1.546,5,.754,6.053s5.062.009,7.019-1.593,3.441-3.729,5.406-5.325c-.881,1.434,1.236,2.87,2.913,3.016a14.508,14.508,0,0,0,13.949-7.924,21.247,21.247,0,0,0,1.818-8.184,6.14,6.14,0,0,0-.628-3.665c-.681-1.06-2.268-1.627-3.242-.828" transform="translate(8.324 20.317)" fill="#80b230"/>
          <path id="Trazado_992775" data-name="Trazado 992775" d="M69.241,121a15.464,15.464,0,0,1,5.819-14.022c.8-.611,2.147-1.047,2.65-.174a1.79,1.79,0,0,1,.118,1.122,14.674,14.674,0,0,1-2.41,6.387,20.119,20.119,0,0,1,21.531-10.157,1.765,1.765,0,0,1,1.159.608,1.488,1.488,0,0,1,.135,1.068c-.512,2.947-4.005,4.16-6.926,4.809a28.587,28.587,0,0,1,16.238-.589,6.2,6.2,0,0,1,3.53,1.932c.826,1.09.774,2.932-.426,3.59a3.685,3.685,0,0,1-1.621.325l-7.831.365a12.94,12.94,0,0,1,5.352,2.1c1.509,1.208,2.425,3.394,1.574,5.131-1.163,2.373-4.475,2.416-7.1,2.111l-9.738-1.133c1.148.841,2.414,2.375,1.513,3.478a2.63,2.63,0,0,1-2.33.576,56.114,56.114,0,0,1-22.233-6.806" transform="translate(30.079 14.449)" fill="#75a024"/>
          <path id="Trazado_992776" data-name="Trazado 992776" d="M174.157,156.913a16.823,16.823,0,0,1,4.727-13.77,15.993,15.993,0,0,1,6.286-4.069c2.481-.84,5.179-.774,6.789-3.168a14.229,14.229,0,0,0,1.408-3.2,16.935,16.935,0,0,1,1.857-3.734,16.413,16.413,0,0,1,5.912-5.3,16,16,0,0,1,3.6-1.363,12.241,12.241,0,0,0,3.929-1.389c2.218-1.481,2.766-4.3,4.026-6.487a19.434,19.434,0,0,1,14.516-9.484.959.959,0,0,0,.9-.686,15.909,15.909,0,0,1,14.319-13.1.97.97,0,0,0,.9-.686,16.7,16.7,0,0,1,6.109-8.3,16.257,16.257,0,0,1,4.613-2.32c1.8-.559,3.721-.74,5.409-1.632,3.244-1.713,3.786-5.718,6.2-8.212a11.714,11.714,0,0,1,9.66-3.469c1.193.127,1.185-1.745,0-1.87a13.373,13.373,0,0,0-8.132,1.786,14.564,14.564,0,0,0-5.568,6.311,8.47,8.47,0,0,1-2.773,3.656c-1.436.884-3.2,1.043-4.8,1.487a18.349,18.349,0,0,0-7.326,4.071,18.6,18.6,0,0,0-5.191,7.994l.9-.686A17.774,17.774,0,0,0,226.3,103.763c.3-.228.6-.458.9-.686a21.357,21.357,0,0,0-13.914,7.3,20.615,20.615,0,0,0-2.3,3.257c-.7,1.236-1.152,2.58-1.814,3.835a5.068,5.068,0,0,1-3.53,2.687,30.364,30.364,0,0,0-4,1.214,18.081,18.081,0,0,0-6.429,4.591,20.386,20.386,0,0,0-3.884,6.9c-.548,1.513-1.2,2.883-2.825,3.433-1.352.458-2.788.591-4.138,1.081a18.066,18.066,0,0,0-6.352,3.987,18.647,18.647,0,0,0-5.729,15.548c.151,1.176,2.023,1.191,1.87,0" transform="translate(120.462 -19.598)" fill="#697f24"/>
          <path id="Trazado_992777" data-name="Trazado 992777" d="M179.743,155.169a17.779,17.779,0,0,1,10.163-14.534,26.215,26.215,0,0,0,4.346-2.162,11.392,11.392,0,0,0,3.053-3.566,20.409,20.409,0,0,1,6.358-7.148,17.885,17.885,0,0,1,10.191-2.878.936.936,0,0,0,.935-.935c-.795-6,4.9-9.781,9.26-12.61a30.911,30.911,0,0,0,6.341-5.021,50.067,50.067,0,0,0,4.215-5.774,27.536,27.536,0,0,1,4.276-5.327c2.051-1.844,4.488-2.313,6.975-3.289,2.562-1,3.891-2.87,5.43-5.034a22.4,22.4,0,0,1,6.586-5.641c3.033-1.926,6.056-3.878,9.127-5.744,2.945-1.789,6.343-3.571,9.877-2.663a.936.936,0,0,0,.5-1.8c-6.229-1.6-12.13,3.351-17.042,6.449a64.6,64.6,0,0,0-7.775,5.273,17.3,17.3,0,0,0-2.777,3.033,13.725,13.725,0,0,1-3,3.586c-2.27,1.558-5.23,1.666-7.549,3.211a19.655,19.655,0,0,0-4.933,5.107c-1.49,2.081-2.782,4.3-4.383,6.3a27.109,27.109,0,0,1-6.638,5.615c-4.92,3.2-11.249,7.562-10.352,14.332l.935-.935a19.75,19.75,0,0,0-16.819,8.727c-1,1.52-1.746,3.263-3.063,4.551-1.333,1.3-3.177,1.9-4.839,2.653a19.238,19.238,0,0,0-7.384,5.974,19.588,19.588,0,0,0-3.874,10.252c-.1,1.2,1.775,1.193,1.87,0" transform="translate(125.438 -14.268)" fill="#697f24"/>
          <path id="Trazado_992778" data-name="Trazado 992778" d="M185.734,154.008a22.349,22.349,0,0,1,5.647-8.835,21.968,21.968,0,0,1,4.138-3.138c1.5-.877,3.134-1.447,4.658-2.268a7.931,7.931,0,0,0,3.478-3.553,29.722,29.722,0,0,1,2.487-4.8,21.979,21.979,0,0,1,7.917-6.128c1.535-.782,3.119-1.466,4.718-2.109a17.517,17.517,0,0,0,4.432-2.212,11.64,11.64,0,0,0,2.975-4.338,23.959,23.959,0,0,1,3.177-4.8,83.941,83.941,0,0,1,8.624-8.263c3.211-2.853,6.389-5.75,9.688-8.5,7.552-6.3,16.133-11.453,24.656-16.326a.935.935,0,0,0-.944-1.614,187.01,187.01,0,0,0-22.306,14.413c-3.418,2.663-6.636,5.568-9.873,8.446-3.136,2.788-6.389,5.492-9.321,8.5a33.757,33.757,0,0,0-3.652,4.375c-1.049,1.522-1.739,3.2-2.646,4.792a8.154,8.154,0,0,1-4.491,3.4c-1.588.641-3.171,1.281-4.721,2.01a27.631,27.631,0,0,0-8.411,5.686,15.933,15.933,0,0,0-2.825,4.043c-.834,1.737-1.333,3.652-2.988,4.815s-3.672,1.728-5.423,2.734a24.176,24.176,0,0,0-10.795,13.177c-.393,1.141,1.414,1.63,1.8.5" transform="translate(130.663 -8.825)" fill="#697f24"/>
          <path id="Trazado_992779" data-name="Trazado 992779" d="M192.936,154.385a20.017,20.017,0,0,1,9.572-17.522,21.8,21.8,0,0,1,4.77-2.04,5.931,5.931,0,0,0,3.938-3.263,42.291,42.291,0,0,1,2.186-4.742,19.208,19.208,0,0,1,12.732-8.678c1.679-.3,3.588-.142,5.021-1.217,1.382-1.038,1.773-2.728,2.2-4.308a14,14,0,0,1,10.75-9.979c1.883-.366,3.859-.08,5.716-.615a7.371,7.371,0,0,0,4.14-3.513,34.041,34.041,0,0,1,3.381-5.036,20.344,20.344,0,0,1,10.746-6.27c1.174-.262.677-2.064-.5-1.8a22.159,22.159,0,0,0-9.807,5,21.753,21.753,0,0,0-3.553,4.028c-1.017,1.485-1.7,3.263-2.949,4.579-1.593,1.679-3.839,1.41-5.948,1.588a15.308,15.308,0,0,0-4.944,1.271,16.049,16.049,0,0,0-7.453,6.8,23.912,23.912,0,0,0-1.745,4.772,3.191,3.191,0,0,1-1.778,2.315,12.478,12.478,0,0,1-2.865.441,20.909,20.909,0,0,0-16.017,12.076c-.385.881-.656,1.818-1.09,2.676a3.91,3.91,0,0,1-2.483,2.016A27.849,27.849,0,0,0,202,134.994a21.9,21.9,0,0,0-10.929,19.39c.043,1.2,1.913,1.206,1.87,0" transform="translate(136.906 -1.531)" fill="#697f24"/>
          <path id="Trazado_992780" data-name="Trazado 992780" d="M199.111,154.131a15.863,15.863,0,0,1,9.289-15.024,41.1,41.1,0,0,0,4.86-2.147,16.951,16.951,0,0,0,3.583-2.99c2.229-2.392,3.91-5.237,6.161-7.607,2.582-2.717,6.378-5.142,10.223-3.762a.941.941,0,0,0,1.15-.654,17.552,17.552,0,0,1,14.74-13.772c1.606-.223,3.3-.5,4.289-1.933,1.017-1.479,1.084-3.457,1.915-5.052a12.7,12.7,0,0,1,8.536-6.518c1.174-.256.677-2.059-.5-1.8a14.394,14.394,0,0,0-7.47,4.3,14.247,14.247,0,0,0-2.406,3.532c-.625,1.322-.78,2.833-1.417,4.123-.752,1.52-2.751,1.414-4.2,1.66a17.591,17.591,0,0,0-4.181,1.281,19.471,19.471,0,0,0-6.808,5.041,18.875,18.875,0,0,0-4.3,8.644q.575-.325,1.15-.653c-3.377-1.212-6.887.05-9.643,2.115-2.889,2.163-4.811,5.178-7.038,7.958a20.689,20.689,0,0,1-3.837,3.886,25.1,25.1,0,0,1-5.271,2.532,17.622,17.622,0,0,0-10.694,16.844c.05,1.2,1.92,1.206,1.87,0" transform="translate(142.275 4.968)" fill="#697f24"/>
          <path id="Trazado_992781" data-name="Trazado 992781" d="M209.785,139.658a14.049,14.049,0,0,1,3.93-9.7,15.082,15.082,0,0,1,4.261-3.169,13.051,13.051,0,0,1,2.521-.937c.8-.208,1.692-.165,2.463-.393.81-.241,1.017-1.124,1.376-1.825.471-.92.954-1.832,1.479-2.723a19.245,19.245,0,0,1,3.871-4.89c2.848-2.466,7.281-3.53,10.471-1.1a.941.941,0,0,0,1.279-.335c2.033-3.495,5.041-8.4,9.834-7.455,1.176.23,1.679-1.571.5-1.8-5.774-1.135-9.415,3.959-11.945,8.313q.639-.165,1.279-.335c-3.237-2.464-7.829-1.911-11.116.172-3.831,2.425-5.993,6.664-7.958,10.591l.808-.462a16.377,16.377,0,0,0-14.92,16.051.935.935,0,0,0,1.87,0" transform="translate(151.573 15.688)" fill="#697f24"/>
          <path id="Trazado_992782" data-name="Trazado 992782" d="M55.028,52.464c-6.958-.333-12.8,6.58-11.563,13.362l1.15-1.15A13.428,13.428,0,0,0,29.269,76.817c.312-.312.625-.623.935-.935C21.642,74.858,13.385,82,12.91,90.546c-.067,1.2,1.8,1.2,1.87,0C15.2,82.928,22.7,76.855,30.2,77.752c.522.062.909-.481.935-.935.355-6.264,6.778-11.417,12.979-10.338a.95.95,0,0,0,1.15-1.15c-1.028-5.647,4.1-11.266,9.761-10.995,1.2.058,1.2-1.812,0-1.87" transform="translate(-18.055 -30.166)" fill="#a2c945"/>
          <path id="Trazado_992783" data-name="Trazado 992783" d="M14.215,104.35a12.573,12.573,0,0,1,3.955-9.359,12.409,12.409,0,0,1,4.282-2.724c1.427-.524,3.287-.376,4.561-1.2,1.329-.862,1.23-2.672,1.73-4.005a10.286,10.286,0,0,1,2.743-3.942,10.6,10.6,0,0,1,9.275-2.642.95.95,0,0,0,1.184-.9c.29-6.212,6.329-11.169,12.45-10.486.662.075.989-.653.9-1.184a7.276,7.276,0,0,1,6.225-8.156c2.88-.353,7.1.2,8.5-3.061.471-1.094-1.139-2.047-1.614-.944-.759,1.756-2.78,1.846-4.46,1.958a14.162,14.162,0,0,0-5.574,1.053A9.235,9.235,0,0,0,53.492,68.4q.449-.592.9-1.184c-7.167-.8-13.985,5.213-14.319,12.356q.592-.449,1.184-.9A12.724,12.724,0,0,0,27.538,85.2a11.8,11.8,0,0,0-.75,1.814c-.2.638-.217,1.387-.477,2-.34.791-1.225.744-1.967.856a12.416,12.416,0,0,0-2.234.548,14.692,14.692,0,0,0-6.737,4.918,14.169,14.169,0,0,0-3.027,9.022.936.936,0,0,0,1.87,0" transform="translate(-18.549 -27.731)" fill="#a2c945"/>
          <path id="Trazado_992784" data-name="Trazado 992784" d="M13.673,120.083a19.062,19.062,0,0,1,11.511-14.45c1.41-.567,2.971-.759,4.334-1.436,1.513-.752,1.913-2.029,2.124-3.6A12.1,12.1,0,0,1,36.2,92.8a12.235,12.235,0,0,1,9.783-2.612.949.949,0,0,0,1.184-.9A16.158,16.158,0,0,1,58.15,74.243c1.623-.522,3.461-.443,5.007-1.152A5.771,5.771,0,0,0,65.9,69.6a9.049,9.049,0,0,1,2.638-4.218,7.654,7.654,0,0,1,5.159-1.468,6.416,6.416,0,0,0,4.63-1.836c.8-.7,2.236-2.631,3.429-1.877,1.023.643,1.96-.974.946-1.616-2.891-1.825-4.856,2.119-7.094,3.169a7.612,7.612,0,0,1-3.08.273,8.421,8.421,0,0,0-2.715.533,8.986,8.986,0,0,0-4.136,3.151c-1.077,1.5-1.258,3.482-2.377,4.933-1.154,1.5-3.8,1.23-5.488,1.75a17.841,17.841,0,0,0-8.6,5.959,17.5,17.5,0,0,0-3.915,10.939q.592-.452,1.184-.9a14.589,14.589,0,0,0-15.623,8.237,13.028,13.028,0,0,0-.767,2.162,24.279,24.279,0,0,1-.5,2.766c-.6,1.556-3.358,1.681-4.746,2.216a20.738,20.738,0,0,0-8.018,5.574,20.5,20.5,0,0,0-4.953,10.245c-.194,1.178,1.608,1.685,1.8.5" transform="translate(-18.97 -25.249)" fill="#a2c945"/>
          <path id="Trazado_992785" data-name="Trazado 992785" d="M49.262,50.411a14.416,14.416,0,0,0-12.328,10.7c.458-.185.914-.372,1.372-.559-4.9-3.048-11.814-1.711-15.516,2.635a11.664,11.664,0,0,0-2.1,3.747,3.887,3.887,0,0,1-1.726,2.347c-.737.432-1.558.7-2.317,1.094A8.941,8.941,0,0,0,11.932,78.5a.936.936,0,0,0,1.87,0c-.084-3.362,1.952-5.7,4.882-7.01a6.1,6.1,0,0,0,3.231-2.608,28.52,28.52,0,0,1,1.821-3.889,10.542,10.542,0,0,1,13.626-2.822.944.944,0,0,0,1.374-.559,12.507,12.507,0,0,1,10.525-9.327c1.182-.133,1.2-2,0-1.87" transform="translate(-18.907 -31.948)" fill="#a2c945"/>
          <path id="Trazado_992786" data-name="Trazado 992786" d="M94.644,62.685c-8.583-2.6-18.4,2.582-21.195,11.073l.653-.653A23.387,23.387,0,0,0,55.025,94.341q.468-.466.935-.935a25.206,25.206,0,0,0-21.713,21.971q.592-.449,1.184-.9a10.9,10.9,0,0,0-8.628.847c-2.945,1.66-4.748,4.734-6.61,7.436a100.672,100.672,0,0,0-5.98,8.947c-1.466,2.711-2.285,5.694-.987,8.628.484,1.1,2.1.148,1.614-.944-1.191-2.694.267-5.641,1.685-7.941,1.556-2.528,3.343-4.931,5.028-7.375,1.621-2.35,3.156-5.1,5.561-6.746a8.993,8.993,0,0,1,7.82-1.047.949.949,0,0,0,1.184-.9,23.3,23.3,0,0,1,19.843-20.1.964.964,0,0,0,.935-.935A21.527,21.527,0,0,1,74.6,74.908a.931.931,0,0,0,.653-.653c2.483-7.549,11.316-12.064,18.895-9.768a.936.936,0,0,0,.5-1.8" transform="translate(-18.342 -21.853)" fill="#a2c945"/>
          <path id="Trazado_992787" data-name="Trazado 992787" d="M90.759,110.171a14.79,14.79,0,0,1,13.457-8.386.943.943,0,0,0,.9-1.184c-.808-2.6.744-5.286,2.921-6.705,2.522-1.645,5.647-1.978,8.57-2.292a.993.993,0,0,0,.9-.686,5.8,5.8,0,0,1,6.816-3.356.936.936,0,0,0,.5-1.8,7.71,7.71,0,0,0-9.116,4.662l.9-.686c-3.547.381-7.4.8-10.286,3.11-2.435,1.947-3.968,5.161-3.007,8.255q.449-.592.9-1.184a16.632,16.632,0,0,0-15.071,9.312c-.516,1.081,1.1,2.031,1.614.944" transform="translate(48.173 -1.422)" fill="#9bc148"/>
          <path id="Trazado_992788" data-name="Trazado 992788" d="M95.96,119.116a11.858,11.858,0,0,1,4.463-8.218,12.153,12.153,0,0,1,4.424-2.292,10.458,10.458,0,0,1,2.292-.372,18.852,18.852,0,0,0,2.539-.041c1.705-.309,2.145-1.8,2.893-3.13a14.554,14.554,0,0,1,3.194-3.874c2.554-2.2,5.941-3.39,9.237-2.317a.94.94,0,0,0,1.15-.654,2.376,2.376,0,0,1,2.517-2.18c1.2.05,1.2-1.821,0-1.87a4.2,4.2,0,0,0-4.321,3.553q.575-.325,1.15-.653c-5.484-1.786-11.043,1.679-14.011,6.184a15.977,15.977,0,0,0-.993,1.761c-.438.886-.755,1.393-1.836,1.374a15.128,15.128,0,0,0-4.153.376,14.242,14.242,0,0,0-6.817,4.153,13.561,13.561,0,0,0-3.6,8.2c-.088,1.2,1.782,1.195,1.87,0" transform="translate(52.559 6.116)" fill="#9bc148"/>
          <path id="Trazado_992789" data-name="Trazado 992789" d="M142.047,105.872c-8.867-.783-17.223,6.941-17.279,15.806q.466-.468.935-.935a20.58,20.58,0,0,0-20.8,16.483q.575-.328,1.15-.653c-11.468-1.92-23.493,6.056-25.967,17.479-.254,1.172,1.548,1.673,1.8.5,2.242-10.353,13.16-17.934,23.667-16.174a.951.951,0,0,0,1.15-.653,18.726,18.726,0,0,1,19-15.11.948.948,0,0,0,.935-.935c.049-7.919,7.558-14.63,15.41-13.936,1.2.107,1.191-1.765,0-1.87" transform="translate(40.355 16.253)" fill="#9bc148"/>
          <path id="Trazado_992790" data-name="Trazado 992790" d="M95.11,146.415A20.673,20.673,0,0,1,108.8,135.383a28.976,28.976,0,0,0,4.256-.881,5.675,5.675,0,0,0,2.829-3.082,37.582,37.582,0,0,1,5.8-8.854,15.316,15.316,0,0,1,10-5.159c1.2-.073,1.2-1.945,0-1.87-7.234.447-12.393,5.991-15.789,11.92-.834,1.458-1.451,3.315-2.541,4.6-1.107,1.3-3.33,1.135-4.877,1.488A22.461,22.461,0,0,0,93.5,145.471c-.525,1.079,1.086,2.027,1.614.944" transform="translate(51.955 24.707)" fill="#9bc148"/>
          <path id="Trazado_992791" data-name="Trazado 992791" d="M151.333,122.818c1.49-2.657,3.368-5.9,6.386-7.019,1.733-.645,3.59.131,5.284-.582a10.073,10.073,0,0,0,2.169-1.5c.653-.5,1.528-1.03,2.283-.456.959.729,1.89-.894.944-1.614-1.8-1.372-3.753.159-5.185,1.266-1.06.817-1.962.731-3.239.679a7.325,7.325,0,0,0-2.754.4c-3.54,1.272-5.752,4.755-7.5,7.88a.935.935,0,0,0,1.614.944" transform="translate(100.84 20.856)" fill="#9bc148"/>
          <path id="Trazado_992792" data-name="Trazado 992792" d="M122.809,126.288a6.775,6.775,0,0,0-8.476,6.6c.312-.312.625-.623.935-.935a16.031,16.031,0,0,0-8.938,3.255,9.265,9.265,0,0,0-2.919,3.128c-.51,1.1-.553,2.592.7,3.2,1.077.525,2.025-1.086.944-1.616-1.1-.535,3.181-3.8,3.635-4.074a14.05,14.05,0,0,1,6.58-2.027.948.948,0,0,0,.935-.935,4.889,4.889,0,0,1,6.109-4.8c1.152.357,1.645-1.447.5-1.8" transform="translate(60.378 33.835)" fill="#9bc148"/>
          <path id="Trazado_992793" data-name="Trazado 992793" d="M151.97,134.8l-.079.155.559-.43c-.043.007-.084.013-.125.019l.72.094c-.329-.208,1.92-3.255,2.15-3.506a12.018,12.018,0,0,1,3.143-2.442,11.075,11.075,0,0,1,7.926-1.081.952.952,0,0,0,1.15-.654,10.05,10.05,0,0,1,12.734-6.681c1.137.4,1.627-1.4.5-1.8a11.935,11.935,0,0,0-15.036,7.988l1.15-.654a13.334,13.334,0,0,0-11.638,2.82,12.457,12.457,0,0,0-3.6,4.867,2.13,2.13,0,0,0,.17,2.438,1.119,1.119,0,0,0,1.887-.185c.546-1.071-1.068-2.018-1.614-.944" transform="translate(102.264 26.733)" fill="#9bc148"/>
          <path id="Trazado_992794" data-name="Trazado 992794" d="M200.019,122.683c-3.568-.959-7.573-1.546-11.023.151-2.8,1.38-4.953,4.334-4.632,7.541q.592-.452,1.184-.9c-7.53-3.13-16.862,1.249-19.512,8.882q.575-.325,1.15-.653a8.806,8.806,0,0,0-11.165,6.481c-.221,1.176,1.58,1.679,1.8.5a6.936,6.936,0,0,1,8.865-5.174.95.95,0,0,0,1.15-.653c2.347-6.76,10.671-10.3,17.212-7.577a.938.938,0,0,0,1.184-.9,6.184,6.184,0,0,1,4.108-6.107c2.919-1.193,6.247-.57,9.179.217a.936.936,0,0,0,.5-1.8" transform="translate(106.416 30.118)" fill="#9bc148"/>
        </g>
      </g>
      <g id="Grupo_1176899" data-name="Grupo 1176899" transform="translate(0 -0.001)">
        <g id="Grupo_1176901" data-name="Grupo 1176901">
          <path id="Trazado_992796" data-name="Trazado 992796" d="M92.818,96.046c-2.163,1.028,2.134,87.437,4.553,88.239s11.761,3.2,12.3,0,15.718-64.912,15.718-64.912l8.308,63.31s11.8,1.6,12.79-2,4.235-99.7,4.235-99.7" transform="translate(80.225 70.443)" fill="#af8945"/>
          <path id="Trazado_992797" data-name="Trazado 992797" d="M93.064,126.093l3,38.265s-2.6,10.819-1.5,11.621,17.53,7.812,21.737,4.807-8.014-17.631-8.014-17.631l4.007-37.063" transform="translate(80.953 109.684)" fill="#3a3938"/>
          <path id="Trazado_992798" data-name="Trazado 992798" d="M112.6,125.36l4.865,38.074s-2.076,10.931-.937,11.679,17.891,6.95,21.947,3.743-8.863-17.22-8.863-17.22l2.2-37.214" transform="translate(97.947 108.231)" fill="#3a3938"/>
          <path id="Trazado_992799" data-name="Trazado 992799" d="M92.391,87.142l-.163,11.52S95.583,105,99.99,103.8s17.339.1,17.885.153,25.778,2.651,25.778,2.651l5.739,6.415.213-22.33" transform="translate(80.226 75.802)" fill="#9b7332"/>
          <path id="Trazado_992800" data-name="Trazado 992800" d="M170.895,78.827c-1.184-11.363-15.325-27.461-21.789-33.605-2.2-3.48-4.749-5.929-7.711-6.933L112.9,33.9s-13.072.3-19.082,25.995-2.1,77.983-1.653,78.134,14.725,7.362,35.159,4.056,27.048-.3,31.4-4.056c1.984-1.711,3.179-20.987,1.791-42.186,3.837-1.578,11.515-6.128,10.38-17.016" transform="translate(78.721 29.489)" fill="#e0d68d"/>
          <path id="Trazado_992801" data-name="Trazado 992801" d="M130.524,83.61l-5.548-35.647s13.485,29.708,12.463,30.782a80.359,80.359,0,0,1-6.915,4.865" transform="translate(108.712 41.722)" fill="#d3c679"/>
          <path id="Trazado_992802" data-name="Trazado 992802" d="M104.083,17.631s6.507-9.766,8.964-8.564a4.073,4.073,0,0,0,4.174-.1s5.926,5.344,7.663,9.785" transform="translate(90.538 7.798)" fill="#edbe7a"/>
          <path id="Trazado_992803" data-name="Trazado 992803" d="M148.615,30.371c0,10.041-12.143,18.181-27.122,18.181s-27.12-8.14-27.12-18.181,12.143-18.181,27.12-18.181,27.122,8.139,27.122,18.181" transform="translate(82.091 10.604)" fill="#d6a85f"/>
          <path id="Trazado_992804" data-name="Trazado 992804" d="M105.484,25.778s-5.74,2.592-7.642.952a33.485,33.485,0,0,1-3.282-3.252s1.408,10.079,16.169,13.16,9.751,0,9.751,0" transform="translate(82.254 20.423)" fill="#c99b5f"/>
          <path id="Trazado_992805" data-name="Trazado 992805" d="M103.207,30.515v4.959s8.865,9.916,9.015,10.367,1.586,9.166,1.586,9.166,5.927,8.113,9.084,5.108,5.258-12.1,5.108-14.465-3.607-5.067-3.607-5.067l.914-7.825" transform="translate(89.776 26.544)" fill="#efb160"/>
          <path id="Trazado_992806" data-name="Trazado 992806" d="M122.336,30.248s-6.311,4.508-9.015,4.508a24.667,24.667,0,0,1-6.311-1.2s7.212,4.506,7.663,4.908,7.663,3,7.663,3a7.848,7.848,0,0,1-1.2-1.9c0-.4.7-5.911.7-5.911" transform="translate(93.085 26.312)" fill="#e5a24a"/>
          <path id="Trazado_992807" data-name="Trazado 992807" d="M133.052,29.326c-.434-.972-1.2-.389-1.862.294-.006-4.783-.241-9.009-.241-9.009C129.9,16.4,120.729,15.8,112.164,17.155a11.806,11.806,0,0,0-9.914,9.166l.237,1.8c-1.257-.51-2.571-.628-2.493,1.206.1,2.289,2.092,4.62,3.439,5.95l.467,3.515A27.4,27.4,0,0,0,106,42.7c1.653,2.7,14.875,7.062,14.875,7.062s7.663-3.156,9.318-8.115a24.16,24.16,0,0,0,.815-5.421,2.764,2.764,0,0,1,.761-.7c.744-.415,1.879-4.85,1.279-6.2" transform="translate(86.979 14.362)" fill="#f9bf64"/>
          <path id="Trazado_992808" data-name="Trazado 992808" d="M110.245,26.163a3.082,3.082,0,1,1-3.082-3.082,3.082,3.082,0,0,1,3.082,3.082" transform="translate(90.537 20.078)" fill="#f99958"/>
          <path id="Trazado_992809" data-name="Trazado 992809" d="M119.079,26.163A3.082,3.082,0,1,1,116,23.081a3.082,3.082,0,0,1,3.082,3.082" transform="translate(98.221 20.078)" fill="#f99958"/>
          <path id="Trazado_992810" data-name="Trazado 992810" d="M107.315,24.451a.935.935,0,0,0,0-1.87.935.935,0,0,0,0,1.87" transform="translate(92.564 19.643)"/>
          <path id="Trazado_992811" data-name="Trazado 992811" d="M113.905,24.371a.935.935,0,0,0,0-1.87.935.935,0,0,0,0,1.87" transform="translate(98.296 19.573)"/>
          <path id="Trazado_992812" data-name="Trazado 992812" d="M109.939,25.319q-.513.7-1.028,1.406a.235.235,0,0,0,.082.32c1.305.744,4.994,2.16,5.712-.052.093-.286-.359-.409-.451-.123-.583,1.8-4.059.323-5.024-.228.028.107.056.213.082.32l1.03-1.406c.178-.243-.228-.477-.4-.236" transform="translate(94.708 21.937)"/>
          <path id="Trazado_992813" data-name="Trazado 992813" d="M111.643,21.76a24.082,24.082,0,0,0,.032,7.509c.047.3.5.17.451-.125a23.346,23.346,0,0,1-.032-7.261c.045-.294-.406-.421-.451-.123" transform="translate(96.871 18.781)"/>
          <path id="Trazado_992814" data-name="Trazado 992814" d="M114.635,23.794a3.175,3.175,0,0,0,1.419-.125c.286-.09.163-.54-.125-.451a2.923,2.923,0,0,1-1.294.108c-.3-.039-.3.43,0,.467" transform="translate(99.522 20.187)"/>
          <path id="Trazado_992815" data-name="Trazado 992815" d="M105.089,23.5c.344.118.688.237,1.034.355.284.1.406-.353.123-.451-.344-.118-.688-.237-1.034-.355-.284-.1-.406.353-.123.451" transform="translate(91.273 20.036)"/>
          <path id="Trazado_992816" data-name="Trazado 992816" d="M107.174,28.046a2.1,2.1,0,0,0-.122,2.044c.12.275.524.037.4-.236a1.581,1.581,0,0,1,.122-1.573.234.234,0,0,0-.4-.236" transform="translate(92.939 24.3)"/>
          <path id="Trazado_992817" data-name="Trazado 992817" d="M108.125,28.962c2.524.256,5.707,1.12,8.194.338.286-.09.163-.54-.125-.451-2.421.761-5.591-.1-8.068-.355-.3-.03-.3.438,0,.467" transform="translate(93.859 24.786)"/>
          <path id="Trazado_992818" data-name="Trazado 992818" d="M112.657,28.455a1.639,1.639,0,0,1,.595,1.638c-.056.294.395.419.451.123a2.093,2.093,0,0,0-.714-2.092c-.228-.194-.559.135-.331.331" transform="translate(97.929 24.413)"/>
          <path id="Trazado_992819" data-name="Trazado 992819" d="M112.37,21.658s5.039-1.3,6.644,1.2" transform="translate(97.746 18.546)" fill="none" stroke="#999" stroke-miterlimit="10" stroke-width="1"/>
          <path id="Trazado_992820" data-name="Trazado 992820" d="M112.863,22.1a6.867,6.867,0,0,0-8.3,1.472" transform="translate(90.958 18.536)" fill="none" stroke="#999" stroke-miterlimit="10" stroke-width="1"/>
          <path id="Trazado_992821" data-name="Trazado 992821" d="M101.355,26.279l1.449,1.8s.881-8.661,2.119-9.6-2.081.342-3.687,6.07" transform="translate(88.061 15.827)" fill="#ead9c1"/>
          <path id="Trazado_992822" data-name="Trazado 992822" d="M104.511,31.945s-2.627,1.4-2.8,3.306,7.5,11.819,7.5,11.819,4.718-.434,5.31,3.13-.993-5.6-.993-5.6" transform="translate(88.472 27.788)" fill="#ccc57f"/>
          <path id="Trazado_992823" data-name="Trazado 992823" d="M115.067,32.911l-.5,4.336,1.464,2.651s2.208,3.052,2.1,4.179,1.279,4.207,1.831,3.306,1.7-4.607,1.251-6.711-6.142-7.762-6.142-7.762" transform="translate(99.655 28.629)" fill="#ccc57f"/>
          <path id="Trazado_992824" data-name="Trazado 992824" d="M107.448,58.418c.05-.376-2.13-7.364-.213-7.737s7.926-1.823,7.625,2.206-2.954,9.791-2.954,9.791" transform="translate(92.592 43.597)" fill="#ed8232"/>
          <path id="Trazado_992825" data-name="Trazado 992825" d="M110.218,63.419S108.249,53.2,111.755,52s6.675.6,6.894,1.7-6.3,12.859-6.346,13.19" transform="translate(95.396 44.884)" fill="#f7903c"/>
          <path id="Trazado_992826" data-name="Trazado 992826" d="M110.145,51.588a4.544,4.544,0,0,1,3.442-2.319.962.962,0,0,1,.8.181.75.75,0,0,1,.183.434,1.7,1.7,0,0,1-.976,1.556,10.433,10.433,0,0,1-1.836.632.476.476,0,0,0-.314.221,1.622,1.622,0,0,0-.047.23c-.058.206-.288.3-.494.357a5.594,5.594,0,0,1-2.2.056,3.012,3.012,0,0,1-1.832-.772,1.3,1.3,0,0,1-.036-1.812,1.618,1.618,0,0,1,1.816.112,4.275,4.275,0,0,1,1.29,1.214" transform="translate(92.63 42.847)" fill="#78a45d"/>
          <path id="Trazado_992827" data-name="Trazado 992827" d="M113.736,53.391a4.544,4.544,0,0,1,3.442-2.319.958.958,0,0,1,.8.181.735.735,0,0,1,.185.434,1.706,1.706,0,0,1-.976,1.556,10.433,10.433,0,0,1-1.836.632.474.474,0,0,0-.314.219,1.643,1.643,0,0,0-.047.232c-.058.206-.288.3-.494.357a5.6,5.6,0,0,1-2.2.056,3.025,3.025,0,0,1-1.831-.774,1.294,1.294,0,0,1-.036-1.81,1.615,1.615,0,0,1,1.814.112,4.3,4.3,0,0,1,1.292,1.214" transform="translate(95.754 44.415)" fill="#78a45d"/>
          <path id="Trazado_992828" data-name="Trazado 992828" d="M123.845,75.068a2.625,2.625,0,0,1-.355-3.672,5.727,5.727,0,0,1,3.59-1.872,23,23,0,0,0,4.048-.847c2.747-1.077,4.749-4,7.694-4.153a5.469,5.469,0,0,1,5.148,3.843,9.074,9.074,0,0,1-.7,6.694A8.907,8.907,0,0,1,140.2,78.8a10.715,10.715,0,0,1-5.11,1.415,14.7,14.7,0,0,1-7.319-1.064,7.607,7.607,0,0,1-4.45-5.621" transform="translate(106.917 56.122)" fill="#b67f49"/>
          <path id="Trazado_992829" data-name="Trazado 992829" d="M130.3,67.077a.234.234,0,0,0,0-.467.234.234,0,0,0,0,.467" transform="translate(113.148 57.942)" fill="#8b5e35"/>
          <path id="Trazado_992830" data-name="Trazado 992830" d="M127,68.481h.131a.243.243,0,0,0,.166-.069.235.235,0,0,0,0-.329.243.243,0,0,0-.166-.069H127a.236.236,0,0,0-.234.234.228.228,0,0,0,.069.165.235.235,0,0,0,.165.069" transform="translate(110.273 59.163)" fill="#8b5e35"/>
          <path id="Trazado_992831" data-name="Trazado 992831" d="M129.766,70.415v-.131a.243.243,0,0,0-.069-.166.235.235,0,0,0-.329,0,.243.243,0,0,0-.069.166v.131a.236.236,0,0,0,.234.234.228.228,0,0,0,.165-.069.235.235,0,0,0,.069-.165" transform="translate(112.472 60.934)" fill="#8b5e35"/>
          <path id="Trazado_992832" data-name="Trazado 992832" d="M132.615,67.073c-.043.088-.088.176-.131.262a.245.245,0,0,0-.024.181.233.233,0,0,0,.107.138.236.236,0,0,0,.181.024.231.231,0,0,0,.138-.108c.045-.086.088-.174.133-.262a.241.241,0,0,0,.022-.18.237.237,0,0,0-.107-.14.236.236,0,0,0-.32.084" transform="translate(115.215 58.244)" fill="#8b5e35"/>
          <path id="Trazado_992833" data-name="Trazado 992833" d="M128.7,67.853l-.135.262a.261.261,0,0,0-.024.18.243.243,0,0,0,.11.14.228.228,0,0,0,.178.022.23.23,0,0,0,.14-.107l.133-.262a.251.251,0,0,0,.024-.18.24.24,0,0,0-.108-.14.227.227,0,0,0-.178-.022.23.23,0,0,0-.14.107" transform="translate(111.806 58.922)" fill="#8b5e35"/>
          <path id="Trazado_992834" data-name="Trazado 992834" d="M125.858,70.284v.131a.243.243,0,0,0,.069.166.235.235,0,0,0,.329,0,.243.243,0,0,0,.069-.166v-.131a.236.236,0,0,0-.234-.234.228.228,0,0,0-.165.069.235.235,0,0,0-.069.165" transform="translate(109.479 60.934)" fill="#8b5e35"/>
          <path id="Trazado_992835" data-name="Trazado 992835" d="M131.846,71.219a.234.234,0,0,0,0-.467.234.234,0,0,0,0,.467" transform="translate(114.492 61.545)" fill="#8b5e35"/>
          <path id="Trazado_992836" data-name="Trazado 992836" d="M124.263,69.253a.234.234,0,0,0,0-.467.234.234,0,0,0,0,.467" transform="translate(107.895 59.835)" fill="#8b5e35"/>
          <path id="Trazado_992837" data-name="Trazado 992837" d="M112.944,75.975c-1.35-.868-1.38-2.986-.411-4.265a6.655,6.655,0,0,1,4.17-2.177,26.441,26.441,0,0,0,4.7-.984c3.192-1.249,5.516-4.641,8.938-4.824a6.356,6.356,0,0,1,5.98,4.465,10.543,10.543,0,0,1-.811,7.777,10.36,10.36,0,0,1-3.571,4.344A12.425,12.425,0,0,1,126,81.953a17.041,17.041,0,0,1-8.5-1.236,8.829,8.829,0,0,1-5.17-6.528" transform="translate(97.303 55.427)" fill="#b67f49"/>
          <path id="Trazado_992838" data-name="Trazado 992838" d="M120.426,66.637a.234.234,0,0,0,0-.467.234.234,0,0,0,0,.467" transform="translate(104.558 57.559)" fill="#8b5e35"/>
          <path id="Trazado_992839" data-name="Trazado 992839" d="M116.6,68.268h.153a.239.239,0,0,0,.165-.069.23.23,0,0,0,0-.329.239.239,0,0,0-.165-.069H116.6a.236.236,0,0,0-.234.234.228.228,0,0,0,.069.165.235.235,0,0,0,.165.069" transform="translate(101.22 58.978)" fill="#8b5e35"/>
          <path id="Trazado_992840" data-name="Trazado 992840" d="M119.766,70.553V70.4a.239.239,0,0,0-.069-.165.23.23,0,0,0-.329,0,.239.239,0,0,0-.069.165v.153a.236.236,0,0,0,.234.234.228.228,0,0,0,.165-.069.235.235,0,0,0,.069-.165" transform="translate(103.774 61.035)" fill="#8b5e35"/>
          <path id="Trazado_992841" data-name="Trazado 992841" d="M123.146,66.69l-.153.3a.24.24,0,0,0-.022.179.237.237,0,0,0,.107.14.241.241,0,0,0,.18.024.235.235,0,0,0,.14-.108l.153-.3a.241.241,0,0,0,.022-.18.237.237,0,0,0-.107-.14.236.236,0,0,0-.32.084" transform="translate(106.959 57.911)" fill="#8b5e35"/>
          <path id="Trazado_992842" data-name="Trazado 992842" d="M118.6,67.6c-.052.1-.1.2-.155.3a.239.239,0,0,0-.022.18.243.243,0,0,0,.107.14.232.232,0,0,0,.18.022.237.237,0,0,0,.14-.107c.052-.1.1-.2.155-.3a.241.241,0,0,0,.022-.18.237.237,0,0,0-.107-.14.236.236,0,0,0-.32.084" transform="translate(103 58.698)" fill="#8b5e35"/>
          <path id="Trazado_992843" data-name="Trazado 992843" d="M115.3,70.4v.153a.239.239,0,0,0,.069.165.23.23,0,0,0,.329,0,.239.239,0,0,0,.069-.165V70.4a.236.236,0,0,0-.234-.234.228.228,0,0,0-.165.069.235.235,0,0,0-.069.165" transform="translate(100.298 61.035)" fill="#8b5e35"/>
          <path id="Trazado_992844" data-name="Trazado 992844" d="M122.221,71.449a.234.234,0,0,0,0-.467.234.234,0,0,0,0,.467" transform="translate(106.119 61.745)" fill="#8b5e35"/>
          <path id="Trazado_992845" data-name="Trazado 992845" d="M113.412,69.165a.234.234,0,0,0,0-.467.234.234,0,0,0,0,.467" transform="translate(98.456 59.758)" fill="#8b5e35"/>
          <path id="Trazado_992846" data-name="Trazado 992846" d="M105.7,73.243a2,2,0,0,1-.271-2.8,4.367,4.367,0,0,1,2.739-1.429,17.634,17.634,0,0,0,3.089-.647c2.1-.821,3.624-3.05,5.871-3.169a4.173,4.173,0,0,1,3.927,2.934,6.926,6.926,0,0,1-.533,5.107,6.809,6.809,0,0,1-2.345,2.853,8.167,8.167,0,0,1-3.9,1.079,11.191,11.191,0,0,1-5.583-.812,5.8,5.8,0,0,1-3.4-4.288" transform="translate(91.33 56.709)" fill="#b67f49"/>
          <path id="Trazado_992847" data-name="Trazado 992847" d="M110.656,67.227a.234.234,0,0,0,0-.467.234.234,0,0,0,0,.467" transform="translate(96.059 58.072)" fill="#8b5e35"/>
          <path id="Trazado_992848" data-name="Trazado 992848" d="M108.142,68.3h.1a.239.239,0,0,0,.165-.069.23.23,0,0,0,0-.329.239.239,0,0,0-.165-.069h-.1a.236.236,0,0,0-.234.234.228.228,0,0,0,.069.165.235.235,0,0,0,.165.069" transform="translate(93.865 59.005)" fill="#8b5e35"/>
          <path id="Trazado_992849" data-name="Trazado 992849" d="M110.3,69.72v-.1a.239.239,0,0,0-.069-.165.23.23,0,0,0-.329,0,.239.239,0,0,0-.069.165v.1a.236.236,0,0,0,.234.234.228.228,0,0,0,.165-.069.235.235,0,0,0,.069-.165" transform="translate(95.543 60.356)" fill="#8b5e35"/>
          <path id="Trazado_992850" data-name="Trazado 992850" d="M112.374,67.141l-.1.2a.24.24,0,0,0-.022.18.237.237,0,0,0,.107.14.241.241,0,0,0,.18.024.234.234,0,0,0,.14-.108c.034-.065.067-.133.1-.2a.24.24,0,0,0,.022-.18.237.237,0,0,0-.107-.14.236.236,0,0,0-.32.084" transform="translate(97.635 58.303)" fill="#8b5e35"/>
          <path id="Trazado_992851" data-name="Trazado 992851" d="M109.386,67.736l-.1.2a.234.234,0,0,0,.082.32.237.237,0,0,0,.181.022.221.221,0,0,0,.138-.107c.036-.067.069-.133.1-.2a.241.241,0,0,0,.022-.18.237.237,0,0,0-.107-.14.236.236,0,0,0-.32.084" transform="translate(95.035 58.82)" fill="#8b5e35"/>
          <path id="Trazado_992852" data-name="Trazado 992852" d="M107.212,69.619v.1a.239.239,0,0,0,.069.165.23.23,0,0,0,.329,0,.239.239,0,0,0,.069-.165v-.1a.236.236,0,0,0-.234-.234.228.228,0,0,0-.165.069.235.235,0,0,0-.069.165" transform="translate(93.26 60.356)" fill="#8b5e35"/>
          <path id="Trazado_992853" data-name="Trazado 992853" d="M111.835,70.388a.234.234,0,0,0,0-.467.234.234,0,0,0,0,.467" transform="translate(97.085 60.822)" fill="#8b5e35"/>
          <path id="Trazado_992854" data-name="Trazado 992854" d="M106.049,68.888a.234.234,0,0,0,0-.467.234.234,0,0,0,0,.467" transform="translate(92.052 59.517)" fill="#8b5e35"/>
          <path id="Trazado_992855" data-name="Trazado 992855" d="M94.009,65.84c-.2,4.512,3.016,8.669,7.055,10.694s8.738,2.259,13.242,1.933a11.84,11.84,0,0,0,5.544-1.427,12.928,12.928,0,0,0,2.285-2,17.726,17.726,0,0,0,2.711-3.287,11.779,11.779,0,0,0,1.305-7.165,11.243,11.243,0,0,0-1.154-4.1c-1.87-3.536-6.109-5.318-10.112-5.3s-7.835,1.518-11.494,3.139a22.814,22.814,0,0,0-5.8,3.345" transform="translate(81.767 47.999)" fill="#75ad50"/>
          <path id="Trazado_992856" data-name="Trazado 992856" d="M100.26,56.376c-3.7,1.324-7.12,4.3-7.651,8.192a6.035,6.035,0,0,0,.845,4.168,4.125,4.125,0,0,0,3.7,1.866c1.87-.191,3.246-1.819,4.194-3.439a3.448,3.448,0,0,0,6.1-2,6.216,6.216,0,0,0,3.7.679,2.522,2.522,0,0,0,2.1-2.726,13.05,13.05,0,0,0,3.7,1.365,4.431,4.431,0,0,0,3.7-.95,7.834,7.834,0,0,0,2.852.916,2.654,2.654,0,0,0,2.549-1.273,3.455,3.455,0,0,0-.492-3.141c-3.16-5.473-10.017-7.915-16.331-7.631-3.657.165-7.457,1.193-10.043,3.786" transform="translate(80.5 45.561)" fill="#93c96f"/>
          <path id="Trazado_992857" data-name="Trazado 992857" d="M102.123,69.281a22.255,22.255,0,0,0-3.061-2.442,4.794,4.794,0,0,0-2.947-1.04c-2.15.187-3.224,2.876-2.82,5s1.733,3.944,2.42,5.989a1.989,1.989,0,0,1,.138.978,2.554,2.554,0,0,1-.451.9c-1.9,2.895-1.859,6.6-1.756,10.064a7.993,7.993,0,0,0,.967,4.336,5.834,5.834,0,0,0,2.767,2,11.12,11.12,0,0,0,11.531-2.311" transform="translate(81.081 57.228)" fill="#ff001f"/>
          <path id="Trazado_992858" data-name="Trazado 992858" d="M141.787,71.235a10.84,10.84,0,0,0-5.886.426,6.67,6.67,0,0,0-4,4.16,6.065,6.065,0,0,0,3.693,7.038,6.957,6.957,0,0,0,7.767-2.442c-5.864,1.281-11.945,3.416-15.647,8.139-1.481,1.889-2.442,4.776-.841,6.563,1.178,1.315,3.24,1.387,4.935.9s3.24-1.432,4.957-1.844c-1.442.853-1.042,3.289.391,4.155s3.3.525,4.82-.168a11.96,11.96,0,0,0,5.866-5.869,3.41,3.41,0,0,0,4.016-1.266,7.437,7.437,0,0,0,1.178-4.336c.045-2.388-.714-5.232-2.986-5.972a2.856,2.856,0,0,0,3.315-1.107,8.251,8.251,0,0,0,1.236-3.54c.239-1.316.441-2.8-.35-3.88a4.226,4.226,0,0,0-2.769-1.4,13.314,13.314,0,0,0-7.145.716" transform="translate(109.642 61.402)" fill="#f5af39"/>
          <path id="Trazado_992859" data-name="Trazado 992859" d="M111.256,78.706a34.681,34.681,0,0,1,20.411-7.519c1.294-.041,3.042.447,2.947,1.739a2.242,2.242,0,0,1-.729,1.294,14.812,14.812,0,0,1-5.056,3.482,35.442,35.442,0,0,1,23.611-.469c1.193.4,2.625,1.567,1.92,2.61a2.044,2.044,0,0,1-.8.61,22.716,22.716,0,0,1-8.736,2.44,15.723,15.723,0,0,1,13.68,5.522,1.122,1.122,0,0,1,.35.84,1.093,1.093,0,0,1-.458.617c-2.8,2.259-6.511,3.025-10.1,3.349s-7.234.288-10.7,1.249c.83-.509,1.761.864,1.3,1.717a3.4,3.4,0,0,1-2.5,1.322q-7.1,1.425-14.192,2.846c-1.632.327-3.265.653-4.918.856a11.038,11.038,0,0,1-6.3-.673c-1.915-.961-3.343-3.168-2.79-5.239" transform="translate(94.015 61.921)" fill="#64b530"/>
          <path id="Trazado_992860" data-name="Trazado 992860" d="M102.415,79.371a5.535,5.535,0,0,1,2.435-10.585,3.58,3.58,0,0,1,2.627,1.1,4.124,4.124,0,0,1,.77,1.623,10.065,10.065,0,0,1-.234,6c1.909-3.384,6.53-4.635,10.2-3.362a5.787,5.787,0,0,1,2.674,1.722c1.3,1.623,1.124,4.059.129,5.888a16.008,16.008,0,0,1-4.271,4.5,15.227,15.227,0,0,1,16.565-2.341c1.227.606,2.517,1.679,2.341,3.035a3.384,3.384,0,0,1-.819,1.6,17.417,17.417,0,0,1-13.4,6.487,16.154,16.154,0,0,1,6,2.463c1.718,1.337,2.878,3.646,2.214,5.72-.836,2.6-4.05,3.654-6.771,3.407-3.308-.3-6.339-1.9-9.267-3.467l-6-3.214a3.319,3.319,0,0,1,.185,1.8A18.172,18.172,0,0,1,94.524,91.608c-.632-1.369-1.075-3.016-.361-4.344s3.046-1.634,3.6-.232c-1.851-1.387-2.911-4.007-1.958-6.114s4.241-2.887,5.7-1.088" transform="translate(81.59 59.833)" fill="#487a27"/>
          <path id="Trazado_992861" data-name="Trazado 992861" d="M143.647,66.115s-3.62,42.631-3.613,41.631,3.613-1.754,3.613-1.754l5.2-40.52" transform="translate(121.81 56.952)" fill="#e0b45c"/>
          <path id="Trazado_992862" data-name="Trazado 992862" d="M107.806,69.544,103.96,111.6l8.429,1.473L115.4,71.692" transform="translate(90.431 60.494)" fill="#cc9c48"/>
          <path id="Trazado_992863" data-name="Trazado 992863" d="M108.158,75.89l-.8,12.622L174.47,77.292l1.8-11.819Z" transform="translate(93.384 56.953)" fill="#e0b45c"/>
          <path id="Trazado_992864" data-name="Trazado 992864" d="M92.543,60.383V71.352l27.7,21.588.8-12.622" transform="translate(80.5 52.525)" fill="#cc9c48"/>
          <path id="Trazado_992865" data-name="Trazado 992865" d="M107.353,83.525l-.8,12.622,67.113-11.219,1.8-11.821Z" transform="translate(92.686 63.592)" fill="#e0b45c"/>
          <path id="Trazado_992866" data-name="Trazado 992866" d="M91.74,68.017V78.986l27.7,21.588.8-12.622" transform="translate(79.801 59.166)" fill="#cc9c48"/>
          <path id="Trazado_992867" data-name="Trazado 992867" d="M106.39,91.4l-.8,12.622L172.7,92.8l1.8-11.821Z" transform="translate(91.847 70.443)" fill="#e0b45c"/>
          <path id="Trazado_992868" data-name="Trazado 992868" d="M90.776,75.892V86.861l27.7,21.588.8-12.622" transform="translate(78.962 66.016)" fill="#cc9c48"/>
          <path id="Trazado_992869" data-name="Trazado 992869" d="M93.571,61.83,91.217,100.5l2.354,1.834c.108.084,2.6-39.5,2.6-39.5" transform="translate(79.346 53.784)" fill="#cc9c48"/>
          <path id="Trazado_992870" data-name="Trazado 992870" d="M127.052,62.307a13.006,13.006,0,0,1,6.8-8.282,24.452,24.452,0,0,1,10.679-2.453,20.761,20.761,0,0,1,7.162.8,10.154,10.154,0,0,1,5.66,4.263,1.794,1.794,0,0,1,.3.849,1.652,1.652,0,0,1-.772,1.253c-1.449,1.086-3.412,1.129-5.219,1.012a43.387,43.387,0,0,1-7.975-1.264c4.411.984,9,2.053,12.5,4.912.69.565,1.387,1.429,1.056,2.257-.34.851-1.483.972-2.4.9a23.9,23.9,0,0,1-13.807-5.787,4.6,4.6,0,0,0,.97,1.739,1.588,1.588,0,0,1,.148,1.862,1.823,1.823,0,0,1-1.623.338,26.155,26.155,0,0,1-7.665-2.2.645.645,0,0,1,.194.985,1.615,1.615,0,0,1-1.038.492,7.884,7.884,0,0,1-5.991-1.434" transform="translate(109.633 44.843)" fill="#41b700"/>
          <path id="Trazado_992871" data-name="Trazado 992871" d="M126.782,64.425c.907-.542.755-1.926.236-2.844s-1.313-1.765-1.359-2.82a4.327,4.327,0,0,1,.595-2.019,2.009,2.009,0,0,1,.671-.9,1.378,1.378,0,0,1,1.8.679A3.993,3.993,0,0,1,129,58.633c.209-4.224,1.984-8.82,5.86-10.509a10.305,10.305,0,0,1-2.646,6.038,26,26,0,0,1,6.544-6.735c1.1-.778,2.425-1.5,3.725-1.159a14.7,14.7,0,0,1-5.017,5.346,24.6,24.6,0,0,1,15.395-4.381,14.138,14.138,0,0,1-6.337,2.732,16.933,16.933,0,0,1,9.669.712c.443.17.97.542.813.991-.118.335-.542.428-.9.466-6.6.726-13.633,1.487-18.811,5.647" transform="translate(109.303 40.171)" fill="#37631a"/>
          <path id="Trazado_992872" data-name="Trazado 992872" d="M126.146,63.292a11.1,11.1,0,0,1,1.225-2.773,22.941,22.941,0,0,1,20.254-11.1,29.623,29.623,0,0,1,5.445.776c3.031.69,6.212,1.87,7.917,4.471a1.167,1.167,0,0,1,.249,1,1.21,1.21,0,0,1-.933.6c-4.02.941-8.2-.252-12.15-1.438a7.538,7.538,0,0,1,2.416,1.72,1.555,1.555,0,0,1,.5.9c.064.933-1.217,1.258-2.15,1.208a31.348,31.348,0,0,1-8.465-1.64c.583.869,2,1.316,1.89,2.356-.082.787-1.013,1.141-1.789,1.3a43.341,43.341,0,0,1-9.19.888c.662.037.963.963.632,1.539a2.394,2.394,0,0,1-1.666.972A8.083,8.083,0,0,1,125.1,63.4" transform="translate(108.821 42.978)" fill="#477c25"/>
          <path id="Trazado_992873" data-name="Trazado 992873" d="M125.319,58.333a.966.966,0,1,0-.785-1.573,1.39,1.39,0,1,0-2.736-.022.714.714,0,0,0-.3-.623,2.951,2.951,0,0,0-1.367-.8,1.532,1.532,0,0,0-1.472.419,1.048,1.048,0,0,0,.056,1.44,2.47,2.47,0,0,0-1.47-.067,1.329,1.329,0,0,0-.946,1.051c-.088.825.757,1.408,1.49,1.8a2.341,2.341,0,0,0,.127,2.416,1.5,1.5,0,0,0,2.221.17.535.535,0,0,0-.1.668,1.221,1.221,0,0,0,.553.467,2.422,2.422,0,0,0,1.438.279,1.438,1.438,0,0,0,1.135-.853.73.73,0,0,0-.286-.931c-.163.453.378.868.858.9a1.859,1.859,0,0,0,1.846-2.182.8.8,0,0,0,1.058-.539,1.309,1.309,0,0,0-.4-1.232,3.853,3.853,0,0,0-1.152-.709" transform="translate(101.162 47.938)" fill="#7caa5e"/>
          <path id="Trazado_992874" data-name="Trazado 992874" d="M141.3,59.531a.966.966,0,1,0-.785-1.573,1.391,1.391,0,1,0-2.736-.021.72.72,0,0,0-.3-.625,2.96,2.96,0,0,0-1.367-.8,1.532,1.532,0,0,0-1.472.419,1.048,1.048,0,0,0,.056,1.44,2.47,2.47,0,0,0-1.47-.067,1.329,1.329,0,0,0-.946,1.051c-.088.825.757,1.41,1.49,1.8a2.341,2.341,0,0,0,.127,2.416,1.5,1.5,0,0,0,2.221.17.535.535,0,0,0-.1.668,1.221,1.221,0,0,0,.553.467,2.42,2.42,0,0,0,1.438.279,1.438,1.438,0,0,0,1.135-.853.73.73,0,0,0-.286-.931c-.165.452.378.868.858.9a1.859,1.859,0,0,0,1.846-2.182.8.8,0,0,0,1.058-.539,1.31,1.31,0,0,0-.4-1.232,3.82,3.82,0,0,0-1.15-.709" transform="translate(115.065 48.98)" fill="#7caa5e"/>
          <path id="Trazado_992875" data-name="Trazado 992875" d="M129.331,58.2a.966.966,0,1,0-.785-1.573,1.39,1.39,0,1,0-2.736-.022.719.719,0,0,0-.3-.623,2.95,2.95,0,0,0-1.367-.8,1.532,1.532,0,0,0-1.472.419,1.048,1.048,0,0,0,.056,1.44,2.47,2.47,0,0,0-1.47-.067,1.329,1.329,0,0,0-.946,1.051c-.088.825.757,1.41,1.49,1.8a2.341,2.341,0,0,0,.127,2.416,1.5,1.5,0,0,0,2.221.17.535.535,0,0,0-.1.668,1.221,1.221,0,0,0,.553.467,2.422,2.422,0,0,0,1.438.279,1.438,1.438,0,0,0,1.135-.853.73.73,0,0,0-.286-.931c-.163.452.378.868.858.9a1.859,1.859,0,0,0,1.846-2.182.8.8,0,0,0,1.058-.539,1.309,1.309,0,0,0-.4-1.232,3.852,3.852,0,0,0-1.152-.709" transform="translate(104.652 47.825)" fill="#8bb76e"/>
          <path id="Trazado_992876" data-name="Trazado 992876" d="M137.775,60.7a.966.966,0,1,0-.785-1.574,1.39,1.39,0,1,0-2.736-.021.714.714,0,0,0-.3-.623,2.96,2.96,0,0,0-1.367-.8,1.532,1.532,0,0,0-1.472.419,1.048,1.048,0,0,0,.056,1.44,2.47,2.47,0,0,0-1.47-.067,1.327,1.327,0,0,0-.946,1.051c-.088.825.757,1.408,1.49,1.8a2.341,2.341,0,0,0,.127,2.416,1.5,1.5,0,0,0,2.221.17.535.535,0,0,0-.1.668,1.221,1.221,0,0,0,.553.467,2.42,2.42,0,0,0,1.438.279,1.438,1.438,0,0,0,1.135-.853.733.733,0,0,0-.286-.933c-.163.454.378.869.858.9a1.859,1.859,0,0,0,1.846-2.182.8.8,0,0,0,1.058-.539,1.314,1.314,0,0,0-.4-1.232,3.852,3.852,0,0,0-1.152-.709" transform="translate(111.997 49.999)" fill="#8bb76e"/>
          <path id="Trazado_992877" data-name="Trazado 992877" d="M145.168,61.627a.966.966,0,1,0-.785-1.574,1.39,1.39,0,1,0-2.736-.021.719.719,0,0,0-.3-.623,2.956,2.956,0,0,0-1.369-.8,1.53,1.53,0,0,0-1.47.419,1.048,1.048,0,0,0,.056,1.44,2.47,2.47,0,0,0-1.47-.067,1.327,1.327,0,0,0-.946,1.051c-.088.825.757,1.408,1.49,1.8a2.341,2.341,0,0,0,.127,2.416,1.5,1.5,0,0,0,2.221.17.535.535,0,0,0-.1.668,1.221,1.221,0,0,0,.553.467,2.42,2.42,0,0,0,1.438.279,1.438,1.438,0,0,0,1.135-.853.737.737,0,0,0-.286-.933c-.165.454.378.869.858.9a1.857,1.857,0,0,0,1.844-2.182.8.8,0,0,0,1.06-.539,1.311,1.311,0,0,0-.4-1.232,3.82,3.82,0,0,0-1.15-.709" transform="translate(118.428 50.803)" fill="#8bb76e"/>
          <path id="Trazado_992878" data-name="Trazado 992878" d="M130.267,59.652a.966.966,0,1,0-.785-1.574,1.39,1.39,0,1,0-2.736-.021.719.719,0,0,0-.3-.623,2.935,2.935,0,0,0-1.367-.8,1.532,1.532,0,0,0-1.472.419,1.048,1.048,0,0,0,.056,1.44,2.47,2.47,0,0,0-1.47-.067,1.327,1.327,0,0,0-.946,1.051c-.088.825.757,1.408,1.49,1.8a2.341,2.341,0,0,0,.127,2.416,1.5,1.5,0,0,0,2.221.17.535.535,0,0,0-.1.668,1.221,1.221,0,0,0,.553.467,2.422,2.422,0,0,0,1.438.279,1.438,1.438,0,0,0,1.135-.853.733.733,0,0,0-.286-.933c-.163.454.378.869.858.9a1.859,1.859,0,0,0,1.846-2.182.8.8,0,0,0,1.058-.539,1.309,1.309,0,0,0-.4-1.232,3.852,3.852,0,0,0-1.152-.709" transform="translate(105.466 49.085)" fill="#96c17a"/>
          <path id="Trazado_992879" data-name="Trazado 992879" d="M126.731,60.573A.966.966,0,1,0,125.946,59a1.39,1.39,0,1,0-2.736-.021.719.719,0,0,0-.3-.623,2.96,2.96,0,0,0-1.367-.8,1.532,1.532,0,0,0-1.472.419,1.048,1.048,0,0,0,.056,1.44,2.47,2.47,0,0,0-1.47-.067,1.327,1.327,0,0,0-.946,1.051c-.088.825.757,1.408,1.49,1.8a2.341,2.341,0,0,0,.127,2.416,1.5,1.5,0,0,0,2.221.17.535.535,0,0,0-.1.668,1.221,1.221,0,0,0,.553.467,2.422,2.422,0,0,0,1.438.279,1.438,1.438,0,0,0,1.135-.853.733.733,0,0,0-.286-.933c-.163.454.378.869.858.9A1.859,1.859,0,0,0,127,63.127a.8.8,0,0,0,1.058-.539,1.314,1.314,0,0,0-.4-1.232,3.852,3.852,0,0,0-1.152-.709" transform="translate(102.39 49.886)" fill="#96c17a"/>
          <path id="Trazado_992880" data-name="Trazado 992880" d="M129.331,63.073a.966.966,0,1,0-.785-1.573,1.391,1.391,0,1,0-2.736-.021.722.722,0,0,0-.3-.625,2.967,2.967,0,0,0-1.367-.8,1.532,1.532,0,0,0-1.472.419,1.048,1.048,0,0,0,.056,1.44,2.47,2.47,0,0,0-1.47-.067,1.332,1.332,0,0,0-.946,1.053c-.088.823.757,1.408,1.49,1.8a2.341,2.341,0,0,0,.127,2.416,1.5,1.5,0,0,0,2.221.17.535.535,0,0,0-.1.668,1.221,1.221,0,0,0,.553.467,2.408,2.408,0,0,0,1.438.279,1.438,1.438,0,0,0,1.135-.853.731.731,0,0,0-.286-.931c-.163.454.378.869.858.9a1.859,1.859,0,0,0,1.846-2.182.8.8,0,0,0,1.058-.539,1.3,1.3,0,0,0-.4-1.23,3.82,3.82,0,0,0-1.152-.711" transform="translate(104.652 52.061)" fill="#96c17a"/>
          <path id="Trazado_992881" data-name="Trazado 992881" d="M134.285,60.059a.966.966,0,1,0-.785-1.574,1.39,1.39,0,1,0-2.736-.021.719.719,0,0,0-.3-.623,2.944,2.944,0,0,0-1.367-.8,1.532,1.532,0,0,0-1.472.419,1.048,1.048,0,0,0,.056,1.44,2.47,2.47,0,0,0-1.47-.067,1.327,1.327,0,0,0-.946,1.051c-.088.825.757,1.408,1.49,1.8a2.341,2.341,0,0,0,.127,2.416,1.5,1.5,0,0,0,2.221.17.535.535,0,0,0-.1.668,1.221,1.221,0,0,0,.553.467,2.42,2.42,0,0,0,1.438.279,1.438,1.438,0,0,0,1.135-.853.733.733,0,0,0-.286-.933c-.165.454.378.869.858.9a1.859,1.859,0,0,0,1.846-2.182.8.8,0,0,0,1.058-.539,1.314,1.314,0,0,0-.4-1.232,3.852,3.852,0,0,0-1.152-.709" transform="translate(108.961 49.439)" fill="#a2cc87"/>
          <path id="Trazado_992882" data-name="Trazado 992882" d="M130.267,61.184a.966.966,0,1,0-.785-1.574,1.39,1.39,0,1,0-2.736-.021.719.719,0,0,0-.3-.623,2.935,2.935,0,0,0-1.367-.8,1.532,1.532,0,0,0-1.472.419,1.048,1.048,0,0,0,.056,1.44,2.47,2.47,0,0,0-1.47-.067,1.327,1.327,0,0,0-.946,1.051c-.088.825.757,1.408,1.49,1.8a2.341,2.341,0,0,0,.127,2.416,1.5,1.5,0,0,0,2.221.17.535.535,0,0,0-.1.668,1.221,1.221,0,0,0,.553.467,2.422,2.422,0,0,0,1.438.279,1.438,1.438,0,0,0,1.135-.853.733.733,0,0,0-.286-.933c-.163.454.378.869.858.9a1.859,1.859,0,0,0,1.846-2.182.8.8,0,0,0,1.058-.539,1.309,1.309,0,0,0-.4-1.232,3.852,3.852,0,0,0-1.152-.709" transform="translate(105.466 50.418)" fill="#a2cc87"/>
          <path id="Trazado_992883" data-name="Trazado 992883" d="M134.624,62.43a.966.966,0,1,0-.785-1.573,1.39,1.39,0,1,0-2.736-.022.719.719,0,0,0-.3-.623,2.96,2.96,0,0,0-1.367-.8,1.532,1.532,0,0,0-1.472.419,1.048,1.048,0,0,0,.056,1.44,2.47,2.47,0,0,0-1.47-.067,1.329,1.329,0,0,0-.946,1.051c-.088.825.757,1.408,1.49,1.8a2.341,2.341,0,0,0,.127,2.416,1.5,1.5,0,0,0,2.221.17.535.535,0,0,0-.1.668,1.221,1.221,0,0,0,.553.467,2.42,2.42,0,0,0,1.438.279,1.438,1.438,0,0,0,1.135-.853.73.73,0,0,0-.286-.931c-.163.453.378.868.858.9a1.859,1.859,0,0,0,1.846-2.182.8.8,0,0,0,1.058-.539,1.31,1.31,0,0,0-.4-1.232,3.82,3.82,0,0,0-1.15-.709" transform="translate(109.256 51.502)" fill="#b0dd92"/>
          <path id="Trazado_992884" data-name="Trazado 992884" d="M132.4,63.273a.966.966,0,1,0-.785-1.573,1.391,1.391,0,1,0-2.736-.021.715.715,0,0,0-.3-.625,2.96,2.96,0,0,0-1.367-.8,1.532,1.532,0,0,0-1.472.419,1.048,1.048,0,0,0,.056,1.44,2.47,2.47,0,0,0-1.47-.067,1.327,1.327,0,0,0-.946,1.051c-.088.825.757,1.408,1.49,1.8A2.341,2.341,0,0,0,125,67.308a1.5,1.5,0,0,0,2.221.17.535.535,0,0,0-.1.668,1.221,1.221,0,0,0,.553.467,2.423,2.423,0,0,0,1.438.279,1.438,1.438,0,0,0,1.135-.853.73.73,0,0,0-.286-.931c-.163.453.378.868.858.9a1.859,1.859,0,0,0,1.846-2.182.8.8,0,0,0,1.058-.539,1.309,1.309,0,0,0-.4-1.232,3.852,3.852,0,0,0-1.152-.709" transform="translate(107.318 52.235)" fill="#b0dd92"/>
          <path id="Trazado_992885" data-name="Trazado 992885" d="M138.061,63.8a.966.966,0,1,0-.785-1.574,1.39,1.39,0,1,0-2.736-.021.719.719,0,0,0-.3-.623,2.944,2.944,0,0,0-1.367-.8,1.532,1.532,0,0,0-1.472.419,1.048,1.048,0,0,0,.056,1.44,2.47,2.47,0,0,0-1.47-.067,1.327,1.327,0,0,0-.946,1.051c-.088.825.757,1.408,1.49,1.8a2.341,2.341,0,0,0,.127,2.416,1.5,1.5,0,0,0,2.221.17.535.535,0,0,0-.1.668,1.221,1.221,0,0,0,.553.467,2.42,2.42,0,0,0,1.438.279,1.438,1.438,0,0,0,1.135-.853.73.73,0,0,0-.286-.931c-.165.453.378.868.858.9a1.859,1.859,0,0,0,1.846-2.182.8.8,0,0,0,1.058-.539,1.309,1.309,0,0,0-.4-1.232,3.852,3.852,0,0,0-1.152-.709" transform="translate(112.246 52.69)" fill="#b0dd92"/>
          <path id="Trazado_992886" data-name="Trazado 992886" d="M140.837,62.229a.966.966,0,1,0-.785-1.573,1.39,1.39,0,1,0-2.736-.022.719.719,0,0,0-.3-.623,2.96,2.96,0,0,0-1.367-.8,1.532,1.532,0,0,0-1.472.419,1.048,1.048,0,0,0,.056,1.44,2.47,2.47,0,0,0-1.47-.067,1.329,1.329,0,0,0-.946,1.051c-.088.825.757,1.41,1.49,1.8a2.341,2.341,0,0,0,.127,2.416,1.5,1.5,0,0,0,2.221.17.535.535,0,0,0-.1.668,1.221,1.221,0,0,0,.553.467,2.42,2.42,0,0,0,1.438.279,1.438,1.438,0,0,0,1.135-.853.73.73,0,0,0-.286-.931c-.163.452.378.868.858.9a1.859,1.859,0,0,0,1.846-2.182.8.8,0,0,0,1.058-.539,1.309,1.309,0,0,0-.4-1.232,3.852,3.852,0,0,0-1.152-.709" transform="translate(114.661 51.327)" fill="#b0dd92"/>
          <path id="Trazado_992887" data-name="Trazado 992887" d="M145.677,64.393a.966.966,0,1,0-.785-1.574,1.39,1.39,0,1,0-2.736-.021.719.719,0,0,0-.3-.623,2.96,2.96,0,0,0-1.367-.8,1.532,1.532,0,0,0-1.472.419,1.048,1.048,0,0,0,.056,1.44,2.47,2.47,0,0,0-1.47-.067,1.327,1.327,0,0,0-.946,1.051c-.088.825.757,1.408,1.49,1.8a2.341,2.341,0,0,0,.127,2.416,1.5,1.5,0,0,0,2.221.17.535.535,0,0,0-.1.668,1.221,1.221,0,0,0,.553.467,2.42,2.42,0,0,0,1.438.279,1.438,1.438,0,0,0,1.135-.853.733.733,0,0,0-.286-.933c-.165.454.378.869.858.9a1.857,1.857,0,0,0,1.844-2.182.8.8,0,0,0,1.06-.539,1.314,1.314,0,0,0-.4-1.232,3.853,3.853,0,0,0-1.152-.709" transform="translate(118.871 53.209)" fill="#c5efa3"/>
          <path id="Trazado_992888" data-name="Trazado 992888" d="M142.021,64a.966.966,0,1,0-.785-1.573A1.391,1.391,0,1,0,138.5,62.4a.72.72,0,0,0-.3-.625,2.959,2.959,0,0,0-1.367-.8,1.532,1.532,0,0,0-1.472.419,1.048,1.048,0,0,0,.056,1.44,2.47,2.47,0,0,0-1.47-.067A1.329,1.329,0,0,0,133,63.82c-.088.825.757,1.41,1.49,1.8a2.341,2.341,0,0,0,.127,2.416,1.5,1.5,0,0,0,2.221.17.535.535,0,0,0-.1.668,1.221,1.221,0,0,0,.553.467,2.42,2.42,0,0,0,1.438.279,1.438,1.438,0,0,0,1.135-.853.732.732,0,0,0-.286-.931c-.165.452.378.868.858.9a1.859,1.859,0,0,0,1.846-2.182.8.8,0,0,0,1.058-.539,1.31,1.31,0,0,0-.4-1.232,3.82,3.82,0,0,0-1.15-.709" transform="translate(115.69 52.865)" fill="#c5efa3"/>
          <path id="Trazado_992889" data-name="Trazado 992889" d="M136.468,64.8a.966.966,0,1,0-.785-1.574,1.39,1.39,0,1,0-2.736-.021.719.719,0,0,0-.3-.623,2.96,2.96,0,0,0-1.367-.8,1.532,1.532,0,0,0-1.472.419,1.048,1.048,0,0,0,.056,1.44,2.47,2.47,0,0,0-1.47-.067,1.327,1.327,0,0,0-.946,1.051c-.088.825.757,1.408,1.49,1.8a2.341,2.341,0,0,0,.127,2.416,1.5,1.5,0,0,0,2.221.17.535.535,0,0,0-.1.668,1.221,1.221,0,0,0,.553.467,2.42,2.42,0,0,0,1.438.279,1.438,1.438,0,0,0,1.135-.853.735.735,0,0,0-.286-.933c-.165.454.378.869.858.9a1.859,1.859,0,0,0,1.846-2.182.8.8,0,0,0,1.058-.539,1.31,1.31,0,0,0-.4-1.232,3.82,3.82,0,0,0-1.15-.709" transform="translate(110.86 53.563)" fill="#c5efa3"/>
          <path id="Trazado_992890" data-name="Trazado 992890" d="M139.244,65.925a.966.966,0,1,0-.785-1.574,1.39,1.39,0,1,0-2.736-.021.719.719,0,0,0-.3-.623,2.96,2.96,0,0,0-1.367-.8,1.532,1.532,0,0,0-1.472.419,1.048,1.048,0,0,0,.056,1.44,2.47,2.47,0,0,0-1.47-.067,1.327,1.327,0,0,0-.946,1.051c-.088.825.757,1.408,1.49,1.8a2.341,2.341,0,0,0,.127,2.416,1.5,1.5,0,0,0,2.221.17.535.535,0,0,0-.1.668,1.221,1.221,0,0,0,.553.467,2.42,2.42,0,0,0,1.438.279,1.438,1.438,0,0,0,1.135-.853.733.733,0,0,0-.286-.933c-.163.454.378.869.858.9a1.859,1.859,0,0,0,1.846-2.182.8.8,0,0,0,1.058-.539,1.314,1.314,0,0,0-.4-1.232A3.852,3.852,0,0,0,139.02,66" transform="translate(113.275 54.542)" fill="#c5efa3"/>
          <path id="Trazado_992891" data-name="Trazado 992891" d="M127.383,61.274A.966.966,0,1,0,126.6,59.7a1.39,1.39,0,1,0-2.736-.022.719.719,0,0,0-.3-.623,2.95,2.95,0,0,0-1.367-.8,1.534,1.534,0,0,0-1.472.419,1.05,1.05,0,0,0,.056,1.44,2.47,2.47,0,0,0-1.47-.067,1.329,1.329,0,0,0-.946,1.051c-.088.825.759,1.408,1.492,1.8a2.337,2.337,0,0,0,.127,2.416,1.5,1.5,0,0,0,2.22.17.538.538,0,0,0-.1.668,1.216,1.216,0,0,0,.555.467,2.414,2.414,0,0,0,1.436.279,1.444,1.444,0,0,0,1.137-.853.732.732,0,0,0-.286-.931c-.166.453.376.868.856.9a1.859,1.859,0,0,0,1.846-2.182.806.806,0,0,0,1.06-.539,1.319,1.319,0,0,0-.4-1.232,3.829,3.829,0,0,0-1.152-.709" transform="translate(102.956 50.496)" fill="#7caa5e"/>
          <path id="Trazado_992892" data-name="Trazado 992892" d="M143.364,62.472a.965.965,0,1,0-.785-1.571,1.391,1.391,0,1,0-2.736-.022.722.722,0,0,0-.3-.625,2.992,2.992,0,0,0-1.367-.8,1.541,1.541,0,0,0-1.472.419,1.05,1.05,0,0,0,.056,1.442,2.456,2.456,0,0,0-1.47-.069,1.332,1.332,0,0,0-.946,1.053c-.088.823.757,1.41,1.49,1.8a2.341,2.341,0,0,0,.127,2.416,1.5,1.5,0,0,0,2.221.168.536.536,0,0,0-.1.668,1.21,1.21,0,0,0,.553.467,2.407,2.407,0,0,0,1.438.28,1.436,1.436,0,0,0,1.135-.855.731.731,0,0,0-.286-.931c-.163.454.378.869.858.9a1.86,1.86,0,0,0,1.846-2.182.8.8,0,0,0,1.058-.54,1.309,1.309,0,0,0-.4-1.23,3.858,3.858,0,0,0-1.152-.711" transform="translate(116.859 51.538)" fill="#7caa5e"/>
          <path id="Trazado_992893" data-name="Trazado 992893" d="M131.393,61.144a.966.966,0,1,0-.785-1.573,1.39,1.39,0,1,0-2.736-.022.719.719,0,0,0-.3-.623,2.96,2.96,0,0,0-1.367-.8,1.532,1.532,0,0,0-1.472.419,1.048,1.048,0,0,0,.056,1.44,2.47,2.47,0,0,0-1.47-.067,1.329,1.329,0,0,0-.946,1.051c-.088.825.757,1.408,1.49,1.8a2.341,2.341,0,0,0,.127,2.416,1.5,1.5,0,0,0,2.221.17.535.535,0,0,0-.1.668,1.221,1.221,0,0,0,.553.467,2.42,2.42,0,0,0,1.438.279,1.438,1.438,0,0,0,1.135-.853.73.73,0,0,0-.286-.931c-.165.452.378.868.858.9a1.859,1.859,0,0,0,1.846-2.182.8.8,0,0,0,1.058-.539,1.309,1.309,0,0,0-.4-1.232,3.852,3.852,0,0,0-1.152-.709" transform="translate(106.446 50.383)" fill="#8bb76e"/>
          <path id="Trazado_992894" data-name="Trazado 992894" d="M139.837,63.644a.966.966,0,1,0-.785-1.574,1.39,1.39,0,1,0-2.736-.021.719.719,0,0,0-.3-.623,2.96,2.96,0,0,0-1.367-.8,1.532,1.532,0,0,0-1.472.419,1.048,1.048,0,0,0,.056,1.44,2.47,2.47,0,0,0-1.47-.067,1.327,1.327,0,0,0-.946,1.051c-.088.825.757,1.408,1.49,1.8a2.341,2.341,0,0,0,.127,2.416,1.5,1.5,0,0,0,2.221.17.535.535,0,0,0-.1.668,1.221,1.221,0,0,0,.553.467,2.42,2.42,0,0,0,1.438.279,1.438,1.438,0,0,0,1.135-.853.735.735,0,0,0-.286-.933c-.165.454.378.869.858.9A1.859,1.859,0,0,0,140.1,66.2a.8.8,0,0,0,1.058-.539,1.31,1.31,0,0,0-.4-1.232,3.82,3.82,0,0,0-1.15-.709" transform="translate(113.791 52.558)" fill="#8bb76e"/>
          <path id="Trazado_992895" data-name="Trazado 992895" d="M147.23,64.568A.966.966,0,1,0,146.445,63a1.39,1.39,0,1,0-2.736-.022.721.721,0,0,0-.3-.623,2.983,2.983,0,0,0-1.367-.8,1.541,1.541,0,0,0-1.472.419,1.05,1.05,0,0,0,.056,1.442,2.471,2.471,0,0,0-1.47-.069,1.332,1.332,0,0,0-.946,1.053c-.088.823.757,1.408,1.49,1.8a2.342,2.342,0,0,0,.127,2.416,1.5,1.5,0,0,0,2.221.168.536.536,0,0,0-.1.668,1.21,1.21,0,0,0,.553.467,2.41,2.41,0,0,0,1.438.28,1.438,1.438,0,0,0,1.135-.853.736.736,0,0,0-.286-.935c-.163.456.378.871.858.905a1.86,1.86,0,0,0,1.846-2.182.8.8,0,0,0,1.058-.54,1.306,1.306,0,0,0-.4-1.23,3.857,3.857,0,0,0-1.152-.711" transform="translate(120.222 53.361)" fill="#8bb76e"/>
          <path id="Trazado_992896" data-name="Trazado 992896" d="M132.329,62.593a.966.966,0,1,0-.785-1.574A1.39,1.39,0,1,0,128.809,61a.714.714,0,0,0-.3-.623,2.943,2.943,0,0,0-1.367-.8,1.532,1.532,0,0,0-1.472.419,1.048,1.048,0,0,0,.056,1.44,2.47,2.47,0,0,0-1.47-.067,1.327,1.327,0,0,0-.946,1.051c-.088.825.757,1.408,1.49,1.8a2.341,2.341,0,0,0,.127,2.416,1.5,1.5,0,0,0,2.221.17.535.535,0,0,0-.1.668,1.221,1.221,0,0,0,.553.467,2.42,2.42,0,0,0,1.438.279,1.438,1.438,0,0,0,1.135-.853.733.733,0,0,0-.286-.933c-.163.454.378.869.858.9a1.859,1.859,0,0,0,1.846-2.182.8.8,0,0,0,1.058-.539,1.309,1.309,0,0,0-.4-1.232,3.853,3.853,0,0,0-1.152-.709" transform="translate(107.26 51.643)" fill="#96c17a"/>
          <path id="Trazado_992897" data-name="Trazado 992897" d="M128.793,63.514a.966.966,0,1,0-.785-1.573,1.39,1.39,0,1,0-2.736-.022.721.721,0,0,0-.3-.623,2.992,2.992,0,0,0-1.367-.8,1.541,1.541,0,0,0-1.472.419,1.05,1.05,0,0,0,.056,1.442,2.456,2.456,0,0,0-1.47-.069,1.332,1.332,0,0,0-.946,1.053c-.088.823.757,1.408,1.49,1.8a2.342,2.342,0,0,0,.127,2.416,1.5,1.5,0,0,0,2.221.168.536.536,0,0,0-.1.668,1.21,1.21,0,0,0,.553.467,2.407,2.407,0,0,0,1.438.28,1.44,1.44,0,0,0,1.135-.855.734.734,0,0,0-.286-.933c-.165.456.378.871.858.905a1.858,1.858,0,0,0,1.844-2.182.8.8,0,0,0,1.06-.54,1.309,1.309,0,0,0-.4-1.23,3.858,3.858,0,0,0-1.152-.711" transform="translate(104.184 52.444)" fill="#96c17a"/>
          <path id="Trazado_992898" data-name="Trazado 992898" d="M131.393,66.015a.966.966,0,1,0-.785-1.573,1.391,1.391,0,1,0-2.736-.021.72.72,0,0,0-.3-.625,2.96,2.96,0,0,0-1.367-.8,1.532,1.532,0,0,0-1.472.419,1.048,1.048,0,0,0,.056,1.44,2.47,2.47,0,0,0-1.47-.067,1.329,1.329,0,0,0-.946,1.051c-.088.825.757,1.41,1.49,1.8a2.341,2.341,0,0,0,.127,2.416,1.5,1.5,0,0,0,2.221.17.535.535,0,0,0-.1.668,1.221,1.221,0,0,0,.553.467,2.42,2.42,0,0,0,1.438.279,1.438,1.438,0,0,0,1.135-.853.73.73,0,0,0-.286-.931c-.165.452.378.868.858.9a1.859,1.859,0,0,0,1.846-2.182.8.8,0,0,0,1.058-.539,1.309,1.309,0,0,0-.4-1.232,3.853,3.853,0,0,0-1.152-.709" transform="translate(106.446 54.62)" fill="#96c17a"/>
          <path id="Trazado_992899" data-name="Trazado 992899" d="M136.347,63a.966.966,0,1,0-.785-1.574,1.39,1.39,0,1,0-2.736-.021.719.719,0,0,0-.3-.623,2.944,2.944,0,0,0-1.367-.8,1.532,1.532,0,0,0-1.472.419,1.048,1.048,0,0,0,.056,1.44,2.47,2.47,0,0,0-1.47-.067,1.327,1.327,0,0,0-.946,1.051c-.088.825.757,1.408,1.49,1.8a2.341,2.341,0,0,0,.127,2.416,1.5,1.5,0,0,0,2.221.17.535.535,0,0,0-.1.668,1.221,1.221,0,0,0,.553.467,2.42,2.42,0,0,0,1.438.279,1.438,1.438,0,0,0,1.135-.853.733.733,0,0,0-.286-.933c-.163.454.378.869.858.9a1.859,1.859,0,0,0,1.846-2.182.8.8,0,0,0,1.058-.539,1.31,1.31,0,0,0-.4-1.232,3.82,3.82,0,0,0-1.15-.709" transform="translate(110.755 51.998)" fill="#a2cc87"/>
          <path id="Trazado_992900" data-name="Trazado 992900" d="M132.329,64.126a.966.966,0,1,0-.785-1.574,1.39,1.39,0,1,0-2.736-.021.714.714,0,0,0-.3-.623,2.943,2.943,0,0,0-1.367-.8,1.532,1.532,0,0,0-1.472.419,1.048,1.048,0,0,0,.056,1.44,2.47,2.47,0,0,0-1.47-.067,1.327,1.327,0,0,0-.946,1.051c-.088.825.757,1.408,1.49,1.8a2.341,2.341,0,0,0,.127,2.416,1.5,1.5,0,0,0,2.221.17.535.535,0,0,0-.1.668,1.221,1.221,0,0,0,.553.467,2.42,2.42,0,0,0,1.438.279,1.438,1.438,0,0,0,1.135-.853.733.733,0,0,0-.286-.933c-.163.454.378.869.858.9A1.859,1.859,0,0,0,132.6,66.68a.8.8,0,0,0,1.058-.539,1.309,1.309,0,0,0-.4-1.232,3.853,3.853,0,0,0-1.152-.709" transform="translate(107.26 52.977)" fill="#a2cc87"/>
          <path id="Trazado_992901" data-name="Trazado 992901" d="M136.686,65.371A.966.966,0,1,0,135.9,63.8a1.39,1.39,0,1,0-2.736-.022.719.719,0,0,0-.3-.623,2.95,2.95,0,0,0-1.367-.8,1.532,1.532,0,0,0-1.472.419,1.048,1.048,0,0,0,.056,1.44,2.47,2.47,0,0,0-1.47-.067,1.329,1.329,0,0,0-.946,1.051c-.088.825.757,1.408,1.49,1.8a2.341,2.341,0,0,0,.127,2.416,1.5,1.5,0,0,0,2.221.17.535.535,0,0,0-.1.668,1.221,1.221,0,0,0,.553.467,2.423,2.423,0,0,0,1.438.279,1.438,1.438,0,0,0,1.135-.853.73.73,0,0,0-.286-.931c-.163.453.378.868.858.9a1.859,1.859,0,0,0,1.846-2.182.8.8,0,0,0,1.058-.539,1.309,1.309,0,0,0-.4-1.232,3.853,3.853,0,0,0-1.152-.709" transform="translate(111.05 54.06)" fill="#b0dd92"/>
          <path id="Trazado_992902" data-name="Trazado 992902" d="M134.458,66.215a.966.966,0,1,0-.785-1.573,1.391,1.391,0,1,0-2.736-.021.715.715,0,0,0-.3-.625,2.96,2.96,0,0,0-1.367-.8,1.532,1.532,0,0,0-1.472.419,1.048,1.048,0,0,0,.056,1.44,2.47,2.47,0,0,0-1.47-.067,1.327,1.327,0,0,0-.946,1.051c-.088.825.757,1.408,1.49,1.8a2.341,2.341,0,0,0,.127,2.416,1.5,1.5,0,0,0,2.221.17.535.535,0,0,0-.1.668,1.221,1.221,0,0,0,.553.467,2.42,2.42,0,0,0,1.438.279,1.438,1.438,0,0,0,1.135-.853.73.73,0,0,0-.286-.931c-.163.453.378.868.858.9a1.859,1.859,0,0,0,1.846-2.182.8.8,0,0,0,1.058-.539,1.31,1.31,0,0,0-.4-1.232,3.82,3.82,0,0,0-1.15-.709" transform="translate(109.112 54.794)" fill="#b0dd92"/>
          <path id="Trazado_992903" data-name="Trazado 992903" d="M140.123,66.737a.966.966,0,1,0-.785-1.574,1.39,1.39,0,1,0-2.736-.021.719.719,0,0,0-.3-.623,2.944,2.944,0,0,0-1.367-.8,1.532,1.532,0,0,0-1.472.419,1.048,1.048,0,0,0,.056,1.44,2.47,2.47,0,0,0-1.47-.067,1.327,1.327,0,0,0-.946,1.051c-.088.825.757,1.408,1.49,1.8a2.341,2.341,0,0,0,.127,2.416,1.5,1.5,0,0,0,2.221.17.535.535,0,0,0-.1.668,1.221,1.221,0,0,0,.553.467,2.42,2.42,0,0,0,1.438.279,1.438,1.438,0,0,0,1.135-.853.732.732,0,0,0-.286-.931c-.165.453.378.868.858.9a1.859,1.859,0,0,0,1.846-2.182.8.8,0,0,0,1.058-.539,1.309,1.309,0,0,0-.4-1.232,3.819,3.819,0,0,0-1.15-.709" transform="translate(114.039 55.248)" fill="#b0dd92"/>
          <path id="Trazado_992904" data-name="Trazado 992904" d="M142.9,65.17a.966.966,0,1,0-.785-1.573,1.39,1.39,0,1,0-2.736-.022.719.719,0,0,0-.3-.623,2.956,2.956,0,0,0-1.369-.8,1.53,1.53,0,0,0-1.47.419,1.048,1.048,0,0,0,.056,1.44,2.47,2.47,0,0,0-1.47-.067,1.329,1.329,0,0,0-.946,1.051c-.088.825.757,1.408,1.49,1.8A2.341,2.341,0,0,0,135.5,69.2a1.5,1.5,0,0,0,2.221.17.535.535,0,0,0-.1.668,1.221,1.221,0,0,0,.553.467,2.42,2.42,0,0,0,1.438.279,1.438,1.438,0,0,0,1.135-.853.732.732,0,0,0-.286-.931c-.165.452.378.868.858.9a1.857,1.857,0,0,0,1.844-2.182.8.8,0,0,0,1.06-.539,1.31,1.31,0,0,0-.4-1.232,3.82,3.82,0,0,0-1.15-.709" transform="translate(116.454 53.885)" fill="#b0dd92"/>
          <path id="Trazado_992905" data-name="Trazado 992905" d="M147.739,67.334a.966.966,0,1,0-.785-1.574,1.39,1.39,0,1,0-2.736-.021.719.719,0,0,0-.3-.623,2.959,2.959,0,0,0-1.367-.8,1.532,1.532,0,0,0-1.472.419,1.048,1.048,0,0,0,.056,1.44,2.47,2.47,0,0,0-1.47-.067,1.327,1.327,0,0,0-.946,1.051c-.088.825.757,1.408,1.49,1.8a2.341,2.341,0,0,0,.127,2.416,1.5,1.5,0,0,0,2.221.17.535.535,0,0,0-.1.668,1.221,1.221,0,0,0,.554.467,2.42,2.42,0,0,0,1.438.279,1.438,1.438,0,0,0,1.135-.853.735.735,0,0,0-.286-.933c-.165.454.378.869.858.9a1.859,1.859,0,0,0,1.846-2.182.8.8,0,0,0,1.058-.538,1.31,1.31,0,0,0-.4-1.232,3.82,3.82,0,0,0-1.15-.709" transform="translate(120.664 55.767)" fill="#c5efa3"/>
          <path id="Trazado_992906" data-name="Trazado 992906" d="M144.083,66.939a.966.966,0,1,0-.785-1.573,1.391,1.391,0,1,0-2.736-.021.72.72,0,0,0-.3-.625,2.96,2.96,0,0,0-1.367-.8,1.532,1.532,0,0,0-1.472.419,1.048,1.048,0,0,0,.056,1.44,2.47,2.47,0,0,0-1.47-.067,1.329,1.329,0,0,0-.946,1.051c-.088.825.757,1.41,1.49,1.8a2.341,2.341,0,0,0,.127,2.416,1.5,1.5,0,0,0,2.221.17.535.535,0,0,0-.1.668,1.221,1.221,0,0,0,.554.467,2.42,2.42,0,0,0,1.438.279,1.438,1.438,0,0,0,1.135-.853.73.73,0,0,0-.286-.931c-.163.453.378.868.858.9a1.857,1.857,0,0,0,1.844-2.182.8.8,0,0,0,1.06-.539,1.314,1.314,0,0,0-.4-1.232,3.853,3.853,0,0,0-1.152-.709" transform="translate(117.484 55.424)" fill="#c5efa3"/>
          <path id="Trazado_992907" data-name="Trazado 992907" d="M138.531,67.741a.966.966,0,1,0-.787-1.574,1.39,1.39,0,1,0-2.736-.021c.056-.234-.123-.456-.3-.623a2.941,2.941,0,0,0-1.367-.8,1.533,1.533,0,0,0-1.472.419,1.048,1.048,0,0,0,.056,1.44,2.47,2.47,0,0,0-1.47-.067,1.327,1.327,0,0,0-.946,1.051c-.086.825.757,1.408,1.49,1.8a2.341,2.341,0,0,0,.129,2.416,1.5,1.5,0,0,0,2.22.17.538.538,0,0,0-.1.668,1.226,1.226,0,0,0,.555.467,2.417,2.417,0,0,0,1.438.279,1.435,1.435,0,0,0,1.133-.853.732.732,0,0,0-.286-.933c-.163.454.378.869.858.9a1.859,1.859,0,0,0,1.846-2.182.805.805,0,0,0,1.06-.539,1.315,1.315,0,0,0-.4-1.232,3.83,3.83,0,0,0-1.152-.709" transform="translate(112.653 56.121)" fill="#c5efa3"/>
          <path id="Trazado_992908" data-name="Trazado 992908" d="M141.306,68.866a.966.966,0,1,0-.785-1.574,1.39,1.39,0,1,0-2.736-.021.719.719,0,0,0-.3-.623,2.95,2.95,0,0,0-1.367-.8,1.532,1.532,0,0,0-1.472.419,1.048,1.048,0,0,0,.056,1.44,2.47,2.47,0,0,0-1.47-.067,1.327,1.327,0,0,0-.946,1.051c-.088.825.757,1.408,1.49,1.8a2.341,2.341,0,0,0,.127,2.416,1.5,1.5,0,0,0,2.221.17.535.535,0,0,0-.1.668,1.221,1.221,0,0,0,.553.467,2.423,2.423,0,0,0,1.438.279,1.438,1.438,0,0,0,1.135-.853.733.733,0,0,0-.286-.933c-.163.454.378.869.858.9a1.859,1.859,0,0,0,1.846-2.182.8.8,0,0,0,1.058-.539,1.309,1.309,0,0,0-.4-1.232,3.852,3.852,0,0,0-1.152-.709" transform="translate(115.069 57.1)" fill="#c5efa3"/>
          <path id="Trazado_992909" data-name="Trazado 992909" d="M110.429,63.463a4.056,4.056,0,0,0-3.725-.426,6.684,6.684,0,0,0-3.018,2.39c-1.545,2.074-2.148,5.178-.5,7.173a7.272,7.272,0,0,0,4.231,2.107,14.842,14.842,0,0,0,4.792.353,10.144,10.144,0,0,0,5.529-2.468c1.831-1.625,3.042-4.381,1.881-6.537a6.507,6.507,0,0,0-2.334-2.233c-1.376-.883-3.154-1.621-4.592-.84a4.153,4.153,0,0,1-1.255.647c-.467.071-1.038-.367-.843-.8" transform="translate(88.902 54.499)" fill="#ff503e"/>
          <path id="Trazado_992910" data-name="Trazado 992910" d="M108.843,63.175a3.232,3.232,0,0,0-2.059-.881,2.627,2.627,0,0,0-1.094.036,1.077,1.077,0,0,0-.759.731,2.977,2.977,0,0,1,2.233,1.318,3,3,0,0,0-2.233,3.082,1.863,1.863,0,0,0,.823-.28L108,65.989a1.494,1.494,0,0,0,.845,1.055,4.418,4.418,0,0,0,1.354.357,2.437,2.437,0,0,0-1.258-2.24,5.583,5.583,0,0,1,3.214-.544c.12-.187-.065-.417-.236-.561a6.428,6.428,0,0,0-1.488-1,2.518,2.518,0,0,0-1.756-.157" transform="translate(91.268 54.154)" fill="#719129"/>
          <path id="Trazado_992911" data-name="Trazado 992911" d="M116.647,57.278a3.205,3.205,0,0,0-2.938-.337,5.277,5.277,0,0,0-2.377,1.883c-1.217,1.634-1.694,4.08-.4,5.653a5.735,5.735,0,0,0,3.334,1.66,11.69,11.69,0,0,0,3.777.279A7.974,7.974,0,0,0,122.4,64.47c1.444-1.279,2.4-3.452,1.483-5.15a5.1,5.1,0,0,0-1.838-1.758c-1.084-.7-2.485-1.279-3.618-.664a3.279,3.279,0,0,1-.989.51c-.368.056-.819-.288-.666-.628" transform="translate(95.827 49.269)" fill="#ff503e"/>
          <path id="Trazado_992912" data-name="Trazado 992912" d="M115.4,57.051a2.55,2.55,0,0,0-1.621-.694,2.058,2.058,0,0,0-.862.028.845.845,0,0,0-.6.576A2.35,2.35,0,0,1,114.074,58a2.367,2.367,0,0,0-1.76,2.429,1.455,1.455,0,0,0,.649-.223l1.771-.939a1.174,1.174,0,0,0,.666.832,3.469,3.469,0,0,0,1.066.282,1.926,1.926,0,0,0-.991-1.767,4.418,4.418,0,0,1,2.532-.428c.1-.146-.05-.329-.185-.441a5.087,5.087,0,0,0-1.172-.791,1.973,1.973,0,0,0-1.384-.123" transform="translate(97.692 48.996)" fill="#719129"/>
          <path id="Trazado_992913" data-name="Trazado 992913" d="M116.735,60.691a3.2,3.2,0,0,0-2.936-.337,5.277,5.277,0,0,0-2.377,1.883c-1.217,1.634-1.694,4.08-.4,5.653a5.735,5.735,0,0,0,3.334,1.66,11.689,11.689,0,0,0,3.777.279,7.981,7.981,0,0,0,4.355-1.947c1.444-1.279,2.4-3.452,1.483-5.15a5.118,5.118,0,0,0-1.838-1.758c-1.085-.7-2.485-1.279-3.618-.664a3.237,3.237,0,0,1-.989.51c-.368.056-.817-.288-.664-.628" transform="translate(95.905 52.238)" fill="#ff503e"/>
          <path id="Trazado_992914" data-name="Trazado 992914" d="M115.486,60.463a2.55,2.55,0,0,0-1.621-.694A2.068,2.068,0,0,0,113,59.8a.846.846,0,0,0-.6.576,2.35,2.35,0,0,1,1.76,1.038,2.367,2.367,0,0,0-1.76,2.429,1.455,1.455,0,0,0,.649-.223l1.771-.939a1.174,1.174,0,0,0,.666.832,3.47,3.47,0,0,0,1.066.282,1.926,1.926,0,0,0-.991-1.767A4.418,4.418,0,0,1,118.1,61.6c.1-.146-.05-.329-.185-.441a5.087,5.087,0,0,0-1.172-.791,1.973,1.973,0,0,0-1.384-.123" transform="translate(97.77 51.964)" fill="#719129"/>
          <path id="Trazado_992915" data-name="Trazado 992915" d="M123.333,59.271a3.2,3.2,0,0,0-2.936-.337,5.277,5.277,0,0,0-2.377,1.883c-1.217,1.634-1.694,4.08-.4,5.653a5.735,5.735,0,0,0,3.334,1.66,11.689,11.689,0,0,0,3.777.279,7.98,7.98,0,0,0,4.355-1.947c1.444-1.279,2.4-3.452,1.483-5.15a5.1,5.1,0,0,0-1.838-1.758c-1.084-.7-2.487-1.279-3.618-.664a3.279,3.279,0,0,1-.989.51c-.368.056-.817-.288-.666-.628" transform="translate(101.645 51.002)" fill="#ff503e"/>
          <path id="Trazado_992916" data-name="Trazado 992916" d="M122.084,59.043a2.548,2.548,0,0,0-1.621-.692,2.037,2.037,0,0,0-.864.028.843.843,0,0,0-.6.576,2.345,2.345,0,0,1,1.76,1.038A2.367,2.367,0,0,0,119,62.422a1.5,1.5,0,0,0,.649-.223l1.771-.939a1.177,1.177,0,0,0,.666.832,3.467,3.467,0,0,0,1.066.28,1.921,1.921,0,0,0-.991-1.765,4.434,4.434,0,0,1,2.532-.43c.1-.146-.051-.327-.185-.441a5.111,5.111,0,0,0-1.174-.789,1.947,1.947,0,0,0-1.382-.123" transform="translate(103.509 50.73)" fill="#719129"/>
          <path id="Trazado_992917" data-name="Trazado 992917" d="M114.232,69.079a2,2,0,0,1-.271-2.8,4.378,4.378,0,0,1,2.739-1.43,17.463,17.463,0,0,0,3.089-.645c2.1-.823,3.624-3.05,5.871-3.169a4.173,4.173,0,0,1,3.927,2.934,6.926,6.926,0,0,1-.533,5.107,6.809,6.809,0,0,1-2.345,2.853,8.166,8.166,0,0,1-3.9,1.079,11.2,11.2,0,0,1-5.585-.812,5.8,5.8,0,0,1-3.394-4.288" transform="translate(98.748 53.087)" fill="#b67f49"/>
          <path id="Trazado_992918" data-name="Trazado 992918" d="M119.183,63.063a.234.234,0,0,0,0-.467.234.234,0,0,0,0,.467" transform="translate(103.476 54.45)" fill="#8b5e35"/>
          <path id="Trazado_992919" data-name="Trazado 992919" d="M116.669,64.134h.1a.239.239,0,0,0,.165-.069.23.23,0,0,0,0-.329.239.239,0,0,0-.165-.069h-.1a.236.236,0,0,0-.234.234.228.228,0,0,0,.069.165.235.235,0,0,0,.165.069" transform="translate(101.282 55.382)" fill="#8b5e35"/>
          <path id="Trazado_992920" data-name="Trazado 992920" d="M118.831,65.555v-.1a.239.239,0,0,0-.069-.165.23.23,0,0,0-.329,0,.239.239,0,0,0-.069.165v.1a.236.236,0,0,0,.234.234.228.228,0,0,0,.165-.069.235.235,0,0,0,.069-.165" transform="translate(102.96 56.733)" fill="#8b5e35"/>
          <path id="Trazado_992921" data-name="Trazado 992921" d="M120.9,62.977l-.1.2a.24.24,0,0,0-.022.18.237.237,0,0,0,.107.14.241.241,0,0,0,.18.024.234.234,0,0,0,.14-.108l.1-.2a.241.241,0,0,0,.022-.179.237.237,0,0,0-.107-.14.236.236,0,0,0-.32.084" transform="translate(105.053 54.681)" fill="#8b5e35"/>
          <path id="Trazado_992922" data-name="Trazado 992922" d="M117.913,63.572l-.1.2a.234.234,0,0,0,.082.32.237.237,0,0,0,.181.022.221.221,0,0,0,.138-.107c.036-.067.069-.133.1-.2a.241.241,0,0,0,.022-.179.237.237,0,0,0-.107-.14.236.236,0,0,0-.32.084" transform="translate(102.452 55.198)" fill="#8b5e35"/>
          <path id="Trazado_992923" data-name="Trazado 992923" d="M115.739,65.455v.1a.239.239,0,0,0,.069.165.23.23,0,0,0,.329,0,.239.239,0,0,0,.069-.165v-.1a.236.236,0,0,0-.234-.234.228.228,0,0,0-.165.069.235.235,0,0,0-.069.165" transform="translate(100.677 56.734)" fill="#8b5e35"/>
          <path id="Trazado_992924" data-name="Trazado 992924" d="M120.362,66.223a.234.234,0,0,0,0-.467.234.234,0,0,0,0,.467" transform="translate(104.502 57.199)" fill="#8b5e35"/>
          <path id="Trazado_992925" data-name="Trazado 992925" d="M114.576,64.723a.234.234,0,0,0,0-.467.234.234,0,0,0,0,.467" transform="translate(99.469 55.894)" fill="#8b5e35"/>
          <path id="Trazado_992926" data-name="Trazado 992926" d="M108.566,71.946a2.16,2.16,0,0,1-.292-3.022,4.712,4.712,0,0,1,2.954-1.541,18.814,18.814,0,0,0,3.33-.7c2.259-.886,3.906-3.289,6.329-3.418a4.5,4.5,0,0,1,4.235,3.164,7.46,7.46,0,0,1-.574,5.507,7.344,7.344,0,0,1-2.53,3.076,8.819,8.819,0,0,1-4.2,1.165,12.11,12.11,0,0,1-6.023-.875,6.258,6.258,0,0,1-3.661-4.624" transform="translate(93.77 55.033)" fill="#b67f49"/>
          <path id="Trazado_992927" data-name="Trazado 992927" d="M113.9,65.432a.234.234,0,0,0,0-.467.234.234,0,0,0,0,.467" transform="translate(98.878 56.511)" fill="#8b5e35"/>
          <path id="Trazado_992928" data-name="Trazado 992928" d="M111.185,66.587h.108a.234.234,0,0,0,0-.467h-.108a.236.236,0,0,0-.234.234.228.228,0,0,0,.069.165.235.235,0,0,0,.165.069" transform="translate(96.512 57.516)" fill="#8b5e35"/>
          <path id="Trazado_992929" data-name="Trazado 992929" d="M113.5,68.137v-.108a.239.239,0,0,0-.069-.165.234.234,0,0,0-.4.165v.108a.236.236,0,0,0,.234.234.228.228,0,0,0,.165-.069.235.235,0,0,0,.069-.165" transform="translate(98.321 58.973)" fill="#8b5e35"/>
          <path id="Trazado_992930" data-name="Trazado 992930" d="M115.765,65.367l-.108.215a.254.254,0,0,0-.024.181.236.236,0,0,0,.108.138.233.233,0,0,0,.18.024.237.237,0,0,0,.14-.107c.036-.073.073-.144.108-.217a.241.241,0,0,0,.022-.18.237.237,0,0,0-.107-.14.236.236,0,0,0-.32.084" transform="translate(100.578 56.76)" fill="#8b5e35"/>
          <path id="Trazado_992931" data-name="Trazado 992931" d="M112.542,66.007c-.037.073-.073.146-.11.217a.249.249,0,0,0-.022.18.237.237,0,0,0,.107.14.241.241,0,0,0,.179.024.248.248,0,0,0,.14-.108c.037-.071.073-.144.11-.215a.242.242,0,0,0,.022-.18.237.237,0,0,0-.107-.14.241.241,0,0,0-.18-.024.237.237,0,0,0-.14.107" transform="translate(97.774 57.318)" fill="#8b5e35"/>
          <path id="Trazado_992932" data-name="Trazado 992932" d="M110.2,68.03v.108a.239.239,0,0,0,.069.165.234.234,0,0,0,.4-.165V68.03a.236.236,0,0,0-.234-.234.228.228,0,0,0-.165.069.235.235,0,0,0-.069.165" transform="translate(95.86 58.974)" fill="#8b5e35"/>
          <path id="Trazado_992933" data-name="Trazado 992933" d="M115.167,68.84a.234.234,0,0,0,0-.467.234.234,0,0,0,0,.467" transform="translate(99.983 59.476)" fill="#8b5e35"/>
          <path id="Trazado_992934" data-name="Trazado 992934" d="M108.929,67.223a.234.234,0,0,0,0-.467.234.234,0,0,0,0,.467" transform="translate(94.557 58.069)" fill="#8b5e35"/>
          <path id="Trazado_992935" data-name="Trazado 992935" d="M119.253,69.874a2,2,0,0,1-.271-2.8,4.378,4.378,0,0,1,2.739-1.43A17.5,17.5,0,0,0,124.81,65c2.1-.823,3.624-3.05,5.871-3.169a4.173,4.173,0,0,1,3.927,2.934,6.926,6.926,0,0,1-.533,5.107,6.809,6.809,0,0,1-2.345,2.853,8.166,8.166,0,0,1-3.9,1.079,11.2,11.2,0,0,1-5.585-.812,5.8,5.8,0,0,1-3.394-4.288" transform="translate(103.115 53.778)" fill="#b67f49"/>
          <path id="Trazado_992936" data-name="Trazado 992936" d="M124.2,63.858a.234.234,0,0,0,0-.467.234.234,0,0,0,0,.467" transform="translate(107.844 55.142)" fill="#8b5e35"/>
          <path id="Trazado_992937" data-name="Trazado 992937" d="M121.69,64.929h.1a.239.239,0,0,0,.165-.069.23.23,0,0,0,0-.329.247.247,0,0,0-.165-.069h-.1a.244.244,0,0,0-.165.069.239.239,0,0,0-.069.165.228.228,0,0,0,.069.165.235.235,0,0,0,.165.069" transform="translate(105.65 56.074)" fill="#8b5e35"/>
          <path id="Trazado_992938" data-name="Trazado 992938" d="M123.852,66.351v-.1a.239.239,0,0,0-.069-.165.23.23,0,0,0-.329,0,.239.239,0,0,0-.069.165v.1a.236.236,0,0,0,.234.234.228.228,0,0,0,.165-.069.235.235,0,0,0,.069-.165" transform="translate(107.328 57.425)" fill="#8b5e35"/>
          <path id="Trazado_992939" data-name="Trazado 992939" d="M125.922,63.772l-.1.2a.25.25,0,0,0-.022.179.237.237,0,0,0,.107.14.241.241,0,0,0,.18.024.234.234,0,0,0,.14-.108l.1-.2a.24.24,0,0,0,.022-.18.237.237,0,0,0-.107-.14.236.236,0,0,0-.32.084" transform="translate(109.421 55.372)" fill="#8b5e35"/>
          <path id="Trazado_992940" data-name="Trazado 992940" d="M122.934,64.367l-.1.2a.234.234,0,0,0,.082.32.237.237,0,0,0,.181.022.221.221,0,0,0,.138-.107c.036-.067.069-.133.1-.2a.24.24,0,0,0,.022-.18.237.237,0,0,0-.107-.14.236.236,0,0,0-.32.084" transform="translate(106.82 55.89)" fill="#8b5e35"/>
          <path id="Trazado_992941" data-name="Trazado 992941" d="M120.76,66.25v.1a.239.239,0,0,0,.069.165.23.23,0,0,0,.329,0,.239.239,0,0,0,.069-.165v-.1a.236.236,0,0,0-.234-.234.228.228,0,0,0-.165.069.235.235,0,0,0-.069.165" transform="translate(105.045 57.425)" fill="#8b5e35"/>
          <path id="Trazado_992942" data-name="Trazado 992942" d="M125.383,67.019a.234.234,0,0,0,0-.467.234.234,0,0,0,0,.467" transform="translate(108.87 57.892)" fill="#8b5e35"/>
          <path id="Trazado_992943" data-name="Trazado 992943" d="M119.6,65.519a.234.234,0,0,0,0-.467.234.234,0,0,0,0,.467" transform="translate(103.837 56.587)" fill="#8b5e35"/>
          <path id="Trazado_992944" data-name="Trazado 992944" d="M102.643,69.334a8.4,8.4,0,0,1,5.011-.118c2.4.836,1.651,1.853.825,2.053a2.152,2.152,0,0,0,.123,3.824c2.214,1.178,3.128,6.417,0,6.305s-11.328-3.355-11.328-3.355-2.478-7.356,5.368-8.71" transform="translate(84.293 59.91)" fill="#f9bf64"/>
          <path id="Trazado_992945" data-name="Trazado 992945" d="M107.57,38.1c-.982,1.374-44.177,47.188-11.78,64.205l13.416,3.927s-4.254-8.835,6.545-10.471c0,0-28.143-5.46-10.144-41.182" transform="translate(72.861 33.141)" fill="#e0d68d"/>
          <path id="Trazado_992946" data-name="Trazado 992946" d="M92.173,63.846s.213-9.807,3.306-13.295-.727,8.285-.727,8.285l.3,3.467-2.61,2.038" transform="translate(80.178 43.412)" fill="#d3c679"/>
          <path id="Trazado_992947" data-name="Trazado 992947" d="M52.325,152.185A129.051,129.051,0,0,0,9.746,51.205l14.3-7.895a8.3,8.3,0,0,1,4.549-1.449c3.611.309,5.047,4.7,5.933,8.216A65.2,65.2,0,0,0,57.633,85.386l5.828-52.175a28.867,28.867,0,0,1,16.159-.877A116.682,116.682,0,0,0,70.9,84.029,72.933,72.933,0,0,1,98.519,62.607a129.844,129.844,0,0,0-21.191,91.642c.522,3.512,1.021,7.6-1.445,10.155a10.545,10.545,0,0,1-3.987,2.263,86.268,86.268,0,0,1-16.713,4.441" transform="translate(8.478 27.466)" fill="#d18f3f"/>
          <path id="Trazado_992948" data-name="Trazado 992948" d="M55.314,54.425S43.22,62.292,41.817,68.7s6.748-4.134,6.748-4.134L60.249,51.673" transform="translate(36.235 44.949)" fill="#b77a37"/>
          <path id="Trazado_992949" data-name="Trazado 992949" d="M29.408,54.443c.26.322,11.043,15.206,12.846,24.447s-1.722-13.4-1.722-13.4" transform="translate(25.581 47.358)" fill="#b77a37"/>
          <path id="Trazado_992950" data-name="Trazado 992950" d="M144.123,67.325c-6.412-.185-12.709,1.767-18.585,4.342a13.6,13.6,0,0,0,6.257-9.7,5.875,5.875,0,0,0-.266-2.758,49.482,49.482,0,0,0,17.006-8.484c4.306-3.334,8.214-9.622,4.7-13.777-2.683-3.166-7.659-2.47-11.694-1.5a24.819,24.819,0,0,0,10.866-8.5c1.606-2.233,2.642-5.752.449-7.407a5.72,5.72,0,0,0-3.171-.858,60.132,60.132,0,0,0-25.224,3.929c3.474-2.072,2.756-7.84-.486-10.258s-7.724-2.259-11.675-1.386a39.969,39.969,0,0,0-16.488,7.96c2.446-4.493-2.7-9.233-7.141-11.778L79.529,1.911c-2.749-1.576-6.586-3.02-8.734-.692-1.55,1.683-1.129,4.351-.38,6.513a32.365,32.365,0,0,0,6.438,10.946A78.414,78.414,0,0,0,44.875,15.04c-1.505.144-3.269.512-3.876,1.9-.769,1.758.905,3.56,2.407,4.753q4.35,3.458,8.7,6.915L34.082,26.051c-3.384-.481-6.894-.952-10.172.019s-6.266,3.811-6.255,7.229a8.626,8.626,0,0,0,1.588,4.6,15.442,15.442,0,0,0,9.7,6.475,18.18,18.18,0,0,0-4.239.576c-.97-.006-1.943.015-2.91.1-2.249.2-4.854.944-5.615,3.068-.684,1.909.488,3.944,1.769,5.531a12.591,12.591,0,0,0,1.965,6.1,3.823,3.823,0,0,0-1.608,3.983,5.3,5.3,0,0,0,1.662,2.291,19.923,19.923,0,0,0,4.886,3.25,20.765,20.765,0,0,0-8.046-1.148A7.669,7.669,0,0,0,11.939,69.8c-1.279,1.2-1.711,3.426-.512,4.7a4.171,4.171,0,0,0-3,1.565l-.05-.314A14.338,14.338,0,0,0,0,88.669,4.236,4.236,0,0,0,.542,91c1.185,1.786,4,1.292,5.759.075s3.3-3,5.415-3.336a63.8,63.8,0,0,0-1.137,17.311A5.771,5.771,0,0,0,11.6,108.46c1.756,2.062,5.29.821,6.973-1.3s2.476-4.9,4.422-6.784c-1.01,4.475,4.009,8.743,8.521,7.917s7.644-5.445,7.895-10.024c2.369,3.955,8.564,4.28,12.1,1.318s4.574-8.132,3.685-12.655a4.585,4.585,0,0,0,2.311.632,8.579,8.579,0,0,0,5.946,5.905c4.862,1.144,9.95-1.847,12.749-5.982s3.792-9.2,4.628-14.125c.307,4.907,6.954,7.272,11.374,5.12a6.254,6.254,0,0,0,.039,2.087,4.026,4.026,0,0,0-2.549,1.784c-1.163,1.993-.731,4.538.118,6.685a19.3,19.3,0,0,0,14.62,11.825,9.037,9.037,0,0,0,3.173,5.3c2.354,1.922,5.948,2.55,8.465.843a5.317,5.317,0,0,0,2.128-4.852,9.984,9.984,0,0,0,2.8,1.485c5.518,1.948,12.025,2.562,16.919-.645s6.554-11.281,1.967-14.912c4.6-.378,9.357-1.978,12.279-5.552s3.295-9.424-.08-12.573c-2.087-1.95-5.1-2.543-7.96-2.625m-44,.383c.122-.357.249-.714.361-1.071a8.577,8.577,0,0,0,.26.963,4.028,4.028,0,0,0-.621.108" transform="translate(0 0)" fill="#8aaa27"/>
          <path id="Trazado_992951" data-name="Trazado 992951" d="M53.241,117.184c.613-7.917-3.136-15.666-8.407-21.608-1.3-1.47-3.631-2.893-5.009-1.49a3.21,3.21,0,0,0-.725,2.143,10.538,10.538,0,0,0,2.741,7.545A31.183,31.183,0,0,0,30.86,97c-1.7-.608-3.829-.984-5.125.277a3.535,3.535,0,0,0-.533,3.848,8.894,8.894,0,0,0,2.616,3.145,41.389,41.389,0,0,0,7.532,5.1,38.234,38.234,0,0,0-9.119-1.7,7.021,7.021,0,0,0-3.687.5,2.737,2.737,0,0,0-1.526,3.1,3.849,3.849,0,0,0,1.733,1.8,31.274,31.274,0,0,0,16.81,4.869c-1.892-.213-3.919-.4-5.6.49s-2.666,3.326-1.414,4.763a4.173,4.173,0,0,0,2.061,1.113,16.188,16.188,0,0,0,18.132-7.635" transform="translate(18.19 81.342)" fill="#468c20"/>
          <path id="Trazado_992952" data-name="Trazado 992952" d="M49.229,119.011a24.278,24.278,0,0,1-9.147-12.184c-.847-2.536-1.251-5.37-.247-7.846.3-.737.916-1.524,1.7-1.4.619.1.993.726,1.257,1.294a23.017,23.017,0,0,1,1.853,6.111q-.1-2.83-.193-5.662a24.737,24.737,0,0,1,.649-8.265c.83-2.653,2.764-5.129,5.453-5.83.54-.14,1.225-.157,1.535.307a1.507,1.507,0,0,1,.181.785,30.234,30.234,0,0,1-1.971,12,15.574,15.574,0,0,1,2.416-3.588,3.221,3.221,0,0,1,1.359-1.017,2.421,2.421,0,0,1,2.745,1.531,5.983,5.983,0,0,1,.122,3.4,25.516,25.516,0,0,1-2.034,6.316c.752-1.447,3.147-1.157,4.052.2s.673,3.173.135,4.712a14.248,14.248,0,0,1-9.078,8.76" transform="translate(34.137 74.064)" fill="#93bf32"/>
          <path id="Trazado_992953" data-name="Trazado 992953" d="M58.97,21.241c3.009,0,3.012-4.675,0-4.675s-3.012,4.675,0,4.675" transform="translate(49.332 14.411)" fill="#e5302c"/>
          <path id="Trazado_992954" data-name="Trazado 992954" d="M41.613,18.884c3.009,0,3.012-4.675,0-4.675s-3.012,4.675,0,4.675" transform="translate(34.234 12.36)" fill="#e5302c"/>
          <path id="Trazado_992955" data-name="Trazado 992955" d="M60.9,34.741c3.009,0,3.012-4.675,0-4.675s-3.012,4.675,0,4.675" transform="translate(51.01 26.154)" fill="#e5302c"/>
          <path id="Trazado_992956" data-name="Trazado 992956" d="M32.186,37.955c3.007,0,3.01-4.675,0-4.675s-3.012,4.675,0,4.675" transform="translate(26.033 28.95)" fill="#e5302c"/>
          <path id="Trazado_992957" data-name="Trazado 992957" d="M63.9,50.812c3.009,0,3.012-4.675,0-4.675s-3.012,4.675,0,4.675" transform="translate(53.62 40.133)" fill="#e5302c"/>
          <path id="Trazado_992958" data-name="Trazado 992958" d="M18.723,46.741h.4a1.737,1.737,0,0,0,.9-.2,2.091,2.091,0,0,0,1.236-1.234,1.758,1.758,0,0,0,.2-.9c-.028-.208-.054-.415-.082-.621a2.361,2.361,0,0,0-.6-1.032l-.475-.365a2.328,2.328,0,0,0-1.18-.32h-.4a1.755,1.755,0,0,0-.9.2A2.082,2.082,0,0,0,16.588,43.5a1.723,1.723,0,0,0-.2.9c.026.208.054.415.082.621a2.326,2.326,0,0,0,.6,1.032c.157.122.318.243.473.365a2.335,2.335,0,0,0,1.182.32" transform="translate(14.252 36.592)" fill="#e5302c"/>
        </g>
      </g>
    </g>
  </g>
</svg>
