<svg xmlns="http://www.w3.org/2000/svg" width="42.346" height="35.398" viewBox="0 0 42.346 35.398">
  <g id="Grupo_1176980" data-name="Grupo 1176980" transform="translate(-287.835 -1772.25)">
    <g id="Grupo_1177511" data-name="Grupo 1177511" transform="translate(287.836 1771.973)">
      <path id="Trazado_995864" data-name="Trazado 995864" d="M36.725,39.74h.125c.092-.214.185-.418.282-.608A9.973,9.973,0,0,1,38.392,37.2l-1.335-1.336h-3.4V34.385H35.57l-2.443-2.443,1.049-1.049,2.443,2.444V31.417H38.1v3.4l1.318,1.318a9.827,9.827,0,0,1,2.563-1.652,7.391,7.391,0,0,0-6.849-4.552H32.168V32.9a7.366,7.366,0,0,0,4.557,6.839Zm0,0" transform="translate(-29.185 -26.905)" fill="#12263f"/>
      <path id="Trazado_995865" data-name="Trazado 995865" d="M99.444,12.9c-.018.036-.035.074-.053.113a10.606,10.606,0,0,1,5.484,3.779,22.021,22.021,0,0,1,4.348,8.459,9.5,9.5,0,0,1,.183,3.372l13.731-2.8a5.479,5.479,0,0,1,4.057.751l.714-1.592a18.318,18.318,0,0,0,1.606-7.458A10.351,10.351,0,0,0,128.42,12.9a8.44,8.44,0,0,0-12.831-2.826l-.915.733V9.759a11.846,11.846,0,0,1,3.493-8.432L117.117.277a13.32,13.32,0,0,0-3.927,9.482V10.8l-.917-.734A8.48,8.48,0,0,0,107,8.222,8.391,8.391,0,0,0,99.444,12.9Zm0,0" transform="translate(-90.173)" fill="#12263f"/>
      <path id="Trazado_995866" data-name="Trazado 995866" d="M201.791,11.592A5.949,5.949,0,0,0,196.7,6.5,5.95,5.95,0,0,0,201.791,11.592Zm0,0" transform="translate(-178.459 -5.649)" fill="#12263f"/>
      <path id="Trazado_995867" data-name="Trazado 995867" d="M52.166,237.327a5.194,5.194,0,0,0-3.87,6.237,5.085,5.085,0,0,0,1.581,2.654l8.193-1.672a5.187,5.187,0,0,0-5.9-7.22Zm0,0" transform="translate(-43.692 -214.937)" fill="#12263f"/>
      <path id="Trazado_995868" data-name="Trazado 995868" d="M15.531,169.258l1.6-.326a6.681,6.681,0,1,1,11.614-2.37l1.589-.324a8.027,8.027,0,0,0-.062-3.355,20.389,20.389,0,0,0-4.04-7.842c-1.586-1.877-4.081-3.974-6.951-3.3s-4.178,3.656-4.768,6.043a20.355,20.355,0,0,0-.14,8.818,8.065,8.065,0,0,0,1.16,2.656Zm0,0" transform="translate(-12.662 -137.299)" fill="#12263f"/>
      <path id="Trazado_995869" data-name="Trazado 995869" d="M42.345,292.786l-.306-1.453-1.706.36.988-1.44-1.224-.839-2.036,2.968a.709.709,0,0,0-.088.19,4,4,0,0,0-3.9-3.064,4.067,4.067,0,0,0-.811.082l-.074.016A7.36,7.36,0,0,1,33,292.291l-.074.284-1.435-.376.074-.283a5.883,5.883,0,0,0,.163-2.012l-4.267.87a7.278,7.278,0,0,1-.356,3.331l-1.4-.5a5.808,5.808,0,0,0,.3-2.535l-3.622.742A7.323,7.323,0,0,1,22,294.746l-1.4-.5a5.814,5.814,0,0,0,.329-2.136l-3.629.742a7.3,7.3,0,0,1-.415,2.533l-1.4-.507a5.78,5.78,0,0,0,.324-1.729l-3.627.742a7.173,7.173,0,0,1-.412,2.127l-1.4-.5a5.7,5.7,0,0,0,.3-1.318L.729,296.23A.89.89,0,0,0,.905,298H33.652a4.007,4.007,0,0,0,2.853-1.182l.416-.417a4.008,4.008,0,0,0,1.182-2.853c0-.11-.022-.214-.031-.322a.7.7,0,0,0,.058.087l2.778,2.968,1.083-1.015-1.878-2Zm0,0" transform="translate(0 -262.32)" fill="#12263f"/>
    </g>
  </g>
</svg>
