<svg xmlns="http://www.w3.org/2000/svg" width="44.547" height="44.547" viewBox="0 0 44.547 44.547">
  <g id="Grupo_1176982" data-name="Grupo 1176982" transform="translate(-286.684 -1767.676)">
    <g id="Grupo_1177519" data-name="Grupo 1177519" transform="translate(284.684 1765.677)">
      <path id="Trazado_995880" data-name="Trazado 995880" d="M42.341,32A10.341,10.341,0,1,0,52.682,42.341,10.341,10.341,0,0,0,42.341,32Zm4.639,6.01-6.364,9.546a.8.8,0,0,1-.582.354c-.027,0-.053,0-.08,0a.8.8,0,0,1-.562-.233L37.8,46.089a.8.8,0,1,1,1.125-1.125l.905.905,5.825-8.739a.8.8,0,0,1,1.324.883Z" transform="translate(-6.136 -6.136)" fill="#12263f"/>
      <path id="Trazado_995881" data-name="Trazado 995881" d="M10.79,17.507c-.243-.165-.406-.266-.445-.288a2.386,2.386,0,0,1,2.394-4.128,14.693,14.693,0,0,1,1.273.846A9.573,9.573,0,0,0,5.182,8H2a9.552,9.552,0,0,0,8.79,9.507Z" transform="translate(0 -1.228)" fill="#12263f"/>
      <path id="Trazado_995882" data-name="Trazado 995882" d="M43.932,13H40.75A9.526,9.526,0,0,0,32,18.755,14.788,14.788,0,0,1,33.381,18,2.386,2.386,0,1,1,35.4,22.319c-.065.032-.193.1-.36.193A9.55,9.55,0,0,0,43.932,13Z" transform="translate(-6.136 -2.25)" fill="#12263f"/>
      <path id="Trazado_995883" data-name="Trazado 995883" d="M13.109,13.534a.8.8,0,0,0-.08.609.777.777,0,0,0,.367.477c.756.448,7.087,4.426,8.171,12.162a5.867,5.867,0,0,1,2.068.023c1.233-4.918,6.147-7.636,7.169-8.154a.827.827,0,0,0,.42-1.076.8.8,0,0,0-1.058-.382,17.908,17.908,0,0,0-5.42,4.211.8.8,0,0,1-1.4-.52V11.545c0-4.486.906-6.926,1.67-8.184a.986.986,0,0,0,.139-.5.854.854,0,0,0-.252-.607.88.88,0,0,0-.762-.25.814.814,0,0,0-.612.414c-.809,1.45-1.775,4.206-1.775,9.122V18.7a.8.8,0,0,1-1.456.444,20.549,20.549,0,0,0-6.1-5.9.8.8,0,0,0-1.09.286Z" transform="translate(-2.25 0)" fill="#12263f"/>
      <path id="Trazado_995884" data-name="Trazado 995884" d="M2.8,50.118H26.682a11.852,11.852,0,0,1-.2-14.05,4,4,0,0,0-2.834,0,.8.8,0,0,1-.8-.134,4.031,4.031,0,0,0-5.1,0,.8.8,0,0,1-.8.134,4.024,4.024,0,0,0-3.958.655.8.8,0,0,1-.992.025,4.751,4.751,0,0,0-5.853.131.8.8,0,0,1-.847.1,3.957,3.957,0,0,0-1.7-.384A1.648,1.648,0,0,0,2,38.29V49.323A.8.8,0,0,0,2.8,50.118Z" transform="translate(0 -6.754)" fill="#12263f"/>
    </g>
  </g>
</svg>
