<svg xmlns="http://www.w3.org/2000/svg" width="34.628" height="41.232" viewBox="0 0 34.628 41.232">
  <g id="Grupo_1176981" data-name="Grupo 1176981" transform="translate(-291.694 -1769.333)">
    <g id="Grupo_1177518" data-name="Grupo 1177518" transform="translate(250.694 1769.333)">
      <g id="Grupo_1177514" data-name="Grupo 1177514" transform="translate(41 8.053)">
        <g id="Grupo_1177512" data-name="Grupo 1177512" transform="translate(25.971 0)">
          <path id="Trazado_995870" data-name="Trazado 995870" d="M372.068,100.755a1.208,1.208,0,0,0-1.57-.673l-4.027,1.611a1.208,1.208,0,0,0-.632.581l-1.277,2.553H363.5v2.416h1.812a1.208,1.208,0,0,0,1.08-.668l1.405-2.81,3.6-1.44A1.208,1.208,0,0,0,372.068,100.755Z" transform="translate(-363.497 -99.996)" fill="#12263f"/>
        </g>
        <path id="Trazado_995871" data-name="Trazado 995871" d="M371.394,245.017l-3.419-1.368-.677-3.385a1.208,1.208,0,0,0-.8-.909l-3-1V240.9l1.57.523.668,3.339a1.208,1.208,0,0,0,.736.885l4.027,1.611a1.208,1.208,0,0,0,.9-2.243Z" transform="translate(-337.525 -227.214)" fill="#12263f"/>
        <g id="Grupo_1177513" data-name="Grupo 1177513" transform="translate(0)">
          <path id="Trazado_995872" data-name="Trazado 995872" d="M47.315,102.274a1.208,1.208,0,0,0-.632-.581l-4.027-1.611a1.208,1.208,0,0,0-.9,2.243l3.6,1.44,1.405,2.81a1.208,1.208,0,0,0,1.08.668h1.812v-2.416H48.592Z" transform="translate(-41 -99.996)" fill="#12263f"/>
        </g>
        <path id="Trazado_995873" data-name="Trazado 995873" d="M46.659,239.356a1.208,1.208,0,0,0-.8.909l-.677,3.385-3.419,1.368a1.208,1.208,0,1,0,.9,2.243l4.027-1.611a1.208,1.208,0,0,0,.736-.885l.668-3.339,1.57-.523v-2.547Z" transform="translate(-41 -227.214)" fill="#12263f"/>
      </g>
      <path id="Trazado_995874" data-name="Trazado 995874" d="M188.164,130h-6.845a2.819,2.819,0,0,0-2.819,2.819v9a9.083,9.083,0,0,0,1.294,4.672,7.874,7.874,0,0,1,1.122,4.05v2.116a11.591,11.591,0,0,0,2.923,7.7,1.207,1.207,0,0,0,1.8,0,11.591,11.591,0,0,0,2.923-7.7v-2.116a7.873,7.873,0,0,1,1.122-4.05,9.083,9.083,0,0,0,1.294-4.672v-9A2.819,2.819,0,0,0,188.164,130Zm-2.215,12.482a1.208,1.208,0,1,1-2.416,0V136.04a1.208,1.208,0,1,1,2.416,0Z" transform="translate(-126.427 -119.531)" fill="#12263f"/>
      <g id="Grupo_1177516" data-name="Grupo 1177516" transform="translate(50.664 0)">
        <g id="Grupo_1177515" data-name="Grupo 1177515" transform="translate(0)">
          <path id="Trazado_995875" data-name="Trazado 995875" d="M285.052,0a6.017,6.017,0,0,0-4.118,1.621c-.12.112-.234.229-.344.35a5.652,5.652,0,0,1,2.066,1.358,3.613,3.613,0,0,1,2.4-.913,1.208,1.208,0,0,0,0-2.416Z" transform="translate(-270.959 0)" fill="#12263f"/>
          <path id="Trazado_995876" data-name="Trazado 995876" d="M166.67,1.971c-.11-.12-.224-.238-.344-.35A6.017,6.017,0,0,0,162.208,0a1.208,1.208,0,1,0,0,2.416,3.613,3.613,0,0,1,2.4.913,5.651,5.651,0,0,1,2.066-1.358Z" transform="translate(-161 0)" fill="#12263f"/>
        </g>
        <path id="Trazado_995877" data-name="Trazado 995877" d="M219.221,50A3.221,3.221,0,0,0,216,53.221v.805h6.442v-.805A3.221,3.221,0,0,0,219.221,50Z" transform="translate(-211.571 -45.973)" fill="#12263f"/>
      </g>
      <g id="Grupo_1177517" data-name="Grupo 1177517" transform="translate(47.072 27.145)">
        <path id="Trazado_995878" data-name="Trazado 995878" d="M336.327,347.162h0a22.633,22.633,0,0,0-2.722-8.549q-.453-.786-.932-1.53a11.478,11.478,0,0,1-.561,1.058,5.457,5.457,0,0,0-.778,2.807v2.116a14.034,14.034,0,0,1-.19,2.3,23.4,23.4,0,0,0,3.268,2.906,1.2,1.2,0,0,0,1.321.07A1.192,1.192,0,0,0,336.327,347.162Z" transform="translate(-313.851 -337.084)" fill="#12263f"/>
        <path id="Trazado_995879" data-name="Trazado 995879" d="M121.4,340.949a5.458,5.458,0,0,0-.778-2.807,11.478,11.478,0,0,1-.562-1.058q-.477.744-.932,1.529a22.635,22.635,0,0,0-2.722,8.549h0a1.191,1.191,0,0,0,.594,1.177,1.2,1.2,0,0,0,1.321-.07,23.393,23.393,0,0,0,3.268-2.906,14.04,14.04,0,0,1-.19-2.3Z" transform="translate(-116.4 -337.083)" fill="#12263f"/>
      </g>
    </g>
  </g>
</svg>
