<svg xmlns="http://www.w3.org/2000/svg" width="90" height="90" viewBox="0 0 90 90">
  <g id="Grupo_1177342" data-name="Grupo 1177342" transform="translate(-706 -2661.42)">
    <rect id="Rectángulo_402006" data-name="Rectángulo 402006" width="90" height="90" rx="5" transform="translate(706 2661.42)" fill="#9bbe50"/>
    <g id="Grupo_1177587" data-name="Grupo 1177587" transform="translate(718.317 2673.706)">
      <path id="Trazado_996306" data-name="Trazado 996306" d="M63.187,52.287V13.067A5.454,5.454,0,0,0,57.74,7.62H26.824a9.427,9.427,0,0,0-4.267-6.027C17.125-1.575,7.811,1.157,7.414,1.28a1.089,1.089,0,0,0-.763.909A16.45,16.45,0,0,0,7.034,7.68a5.436,5.436,0,0,0-4.856,5.387v39.22A2.179,2.179,0,0,0,0,54.465v3.268A7.635,7.635,0,0,0,7.626,65.36H57.74a7.635,7.635,0,0,0,7.626-7.626V54.465A2.179,2.179,0,0,0,63.187,52.287ZM13.967,35.933a17.6,17.6,0,0,1,10.142,4.75c-2.768.6-8.369,1.46-11.759-.517-3.543-2.07-3.723-6.909-3.655-8.741,2.192-.545,8.861-1.938,12.7.3,2.624,1.525,3.4,4.581,3.6,6.806a20.194,20.194,0,0,0-10.7-4.752,1.09,1.09,0,0,0-.327,2.155ZM38,19.612A22.4,22.4,0,0,0,27.583,23.38c.5-2.188,1.692-5.213,4.576-6.38,4.117-1.664,10.516.67,12.607,1.525-.2,1.823-1.068,6.589-4.872,8.126-3.562,1.441-8.832-.109-11.541-1.112a19.719,19.719,0,0,1,9.914-3.765A1.089,1.089,0,0,0,38,19.612ZM8.763,3.175c2.193-.545,8.859-1.936,12.7.3,2.495,1.455,3.319,4.283,3.567,6.47A19.9,19.9,0,0,0,14.341,4.361a1.089,1.089,0,0,0-.288,2.159A17.739,17.739,0,0,1,24.306,12.4c-2.715.606-8.433,1.525-11.887-.49C8.875,9.849,8.7,5.005,8.763,3.175ZM4.358,13.067A3.268,3.268,0,0,1,7.626,9.8h.146a8.743,8.743,0,0,0,3.549,4,13.74,13.74,0,0,0,6.85,1.525,31.537,31.537,0,0,0,6.885-.85v17.7a8.425,8.425,0,0,0-2.57-2.325c-5.433-3.169-14.745-.43-15.143-.313a1.089,1.089,0,0,0-.763.909c-.044.339-.971,8.319,4.671,11.61A13.743,13.743,0,0,0,18.1,43.571a31.6,31.6,0,0,0,6.955-.864v5.222a1.089,1.089,0,0,0,2.179,0V27.448a27.556,27.556,0,0,0,9.23,1.961,11.342,11.342,0,0,0,4.249-.735C46.77,26.226,47,18.2,47,17.855a1.089,1.089,0,0,0-.631-1.01c-.373-.173-9.195-4.22-15.028-1.863a8.761,8.761,0,0,0-4.11,3.481V13.125A16.4,16.4,0,0,0,27.209,9.8H57.74a3.268,3.268,0,0,1,3.268,3.268v39.22H4.358Zm18.52,41.4h19.61v1.089a2.179,2.179,0,0,1-2.179,2.179H25.057a2.179,2.179,0,0,1-2.179-2.179Zm40.309,3.268a5.454,5.454,0,0,1-5.447,5.447H7.626a5.454,5.454,0,0,1-5.447-5.447V54.465H20.7v1.089a4.358,4.358,0,0,0,4.358,4.358H40.309a4.358,4.358,0,0,0,4.358-4.358V54.465h18.52Z" transform="translate(0 0)" fill="#4d240b"/>
      <path id="Trazado_996307" data-name="Trazado 996307" d="M15.358,52H12.089a1.089,1.089,0,1,0,0,2.179h3.268a1.089,1.089,0,1,0,0-2.179Z" transform="translate(0.984 4.644)" fill="#4d240b"/>
      <circle id="Elipse_13726" data-name="Elipse 13726" cx="1.089" cy="1.089" r="1.089" transform="translate(5.447 56.644)" fill="#4d240b"/>
      <circle id="Elipse_13727" data-name="Elipse 13727" cx="1.089" cy="1.089" r="1.089" transform="translate(8.715 56.644)" fill="#4d240b"/>
      <path id="Trazado_996308" data-name="Trazado 996308" d="M29.089,46.789H55.236a1.089,1.089,0,1,0,0-2.179H54.146V27.179A2.179,2.179,0,0,0,51.967,25H49.789a2.179,2.179,0,0,0-2.179,2.179V44.61H45.431V33.715a2.179,2.179,0,0,0-2.179-2.179H41.073a2.179,2.179,0,0,0-2.179,2.179V44.61H36.715V38.073a2.179,2.179,0,0,0-2.179-2.179H32.358a2.179,2.179,0,0,0-2.179,2.179V44.61H29.089a1.089,1.089,0,1,0,0,2.179Zm20.7-19.61h2.179V44.61H49.789Zm-8.715,6.537h2.179V44.61H41.073Zm-8.715,4.358h2.179V44.61H32.358Z" transform="translate(2.504 2.23)" fill="#4d240b"/>
    </g>
  </g>
</svg>
