<svg xmlns="http://www.w3.org/2000/svg" xmlns:xlink="http://www.w3.org/1999/xlink" width="416" height="314.366" viewBox="0 0 416 314.366">
  <defs>
    <clipPath id="clip-path">
      <rect id="Rectángulo_454945" data-name="Rectángulo 454945" width="368.905" height="314.365" fill="none"/>
    </clipPath>
    <clipPath id="clip-path-3">
      <path id="Trazado_996033" data-name="Trazado 996033" d="M64.276,156.253a145.1,145.1,0,1,0,145.1-145.1,145.1,145.1,0,0,0-145.1,145.1" transform="translate(-64.276 -11.148)" fill="none"/>
    </clipPath>
    <clipPath id="clip-path-4">
      <rect id="Rectángulo_454935" data-name="Rectángulo 454935" width="356.24" height="79.643" fill="none"/>
    </clipPath>
    <clipPath id="clip-path-5">
      <rect id="Rectángulo_454928" data-name="Rectángulo 454928" width="356.24" height="7.434" fill="none"/>
    </clipPath>
    <clipPath id="clip-path-6">
      <rect id="Rectángulo_454930" data-name="Rectángulo 454930" width="356.24" height="12.141" fill="none"/>
    </clipPath>
    <clipPath id="clip-path-7">
      <rect id="Rectángulo_454932" data-name="Rectángulo 454932" width="356.24" height="16.847" fill="none"/>
    </clipPath>
    <clipPath id="clip-path-8">
      <rect id="Rectángulo_454934" data-name="Rectángulo 454934" width="356.24" height="21.555" fill="none"/>
    </clipPath>
    <clipPath id="clip-path-10">
      <rect id="Rectángulo_454936" data-name="Rectángulo 454936" width="47.54" height="183.008" fill="none"/>
    </clipPath>
    <clipPath id="clip-path-11">
      <path id="Trazado_996045" data-name="Trazado 996045" d="M274.673,168.914c-19.8,18.353-23.179,46.913-7.537,63.791s44.375,15.681,64.179-2.672,23.178-46.913,7.537-63.791c-7.391-7.975-17.708-11.915-28.622-11.915-12.183,0-25.112,4.906-35.557,14.588" transform="translate(-257.298 -154.326)" fill="none"/>
    </clipPath>
    <clipPath id="clip-path-13">
      <rect id="Rectángulo_454938" data-name="Rectángulo 454938" width="91.391" height="90.294" fill="none"/>
    </clipPath>
    <clipPath id="clip-path-14">
      <path id="Trazado_996055" data-name="Trazado 996055" d="M319.176,134.032c-5.089,22.441,12.131,45.475,38.462,51.447s51.8-7.378,56.894-29.819-12.13-45.474-38.462-51.447a56.972,56.972,0,0,0-12.6-1.425c-21.422,0-40.023,12.425-44.291,31.244" transform="translate(-318.285 -102.788)" fill="none"/>
    </clipPath>
    <clipPath id="clip-path-16">
      <rect id="Rectángulo_454940" data-name="Rectángulo 454940" width="97.14" height="84.115" fill="none"/>
    </clipPath>
    <clipPath id="clip-path-17">
      <rect id="Rectángulo_454941" data-name="Rectángulo 454941" width="11.147" height="11.147" fill="none"/>
    </clipPath>
    <clipPath id="clip-path-18">
      <rect id="Rectángulo_454942" data-name="Rectángulo 454942" width="14.296" height="16.166" fill="none"/>
    </clipPath>
    <clipPath id="clip-path-19">
      <path id="Trazado_996113" data-name="Trazado 996113" d="M325.633,194.665c-31.126,17.026-44.595,52.331-30.085,78.858s51.505,34.228,82.631,17.2,44.595-52.332,30.084-78.858c-9.29-16.984-27.8-26.25-48.082-26.251a72.206,72.206,0,0,0-34.548,9.049" transform="translate(-289.711 -185.616)" fill="none"/>
    </clipPath>
  </defs>
  <g id="Grupo_1177579" data-name="Grupo 1177579" transform="translate(-499.082 -433.771)">
    <rect id="Rectángulo_402012" data-name="Rectángulo 402012" width="416" height="178.233" transform="translate(499.082 569.904)" fill="#e5efec"/>
    <rect id="Rectángulo_454557" data-name="Rectángulo 454557" width="416" height="39.233" transform="translate(499.082 708.904)" fill="#99c0b7"/>
    <g id="Grupo_1177578" data-name="Grupo 1177578" transform="translate(514.711 433.771)">
      <g id="Grupo_1177577" data-name="Grupo 1177577" clip-path="url(#clip-path)">
        <g id="Grupo_1177530" data-name="Grupo 1177530">
          <g id="Grupo_1177529" data-name="Grupo 1177529" clip-path="url(#clip-path)">
            <path id="Trazado_996025" data-name="Trazado 996025" d="M64.276,156.253a145.1,145.1,0,1,0,145.1-145.1,145.1,145.1,0,0,0-145.1,145.1" transform="translate(-22.616 -3.923)" fill="#7d90fa"/>
          </g>
        </g>
        <g id="Grupo_1177547" data-name="Grupo 1177547" transform="translate(41.66 7.225)">
          <g id="Grupo_1177546" data-name="Grupo 1177546" clip-path="url(#clip-path-3)">
            <path id="Trazado_996026" data-name="Trazado 996026" d="M309.286,59.253a24.524,24.524,0,0,0-16.029,5.25,21.962,21.962,0,0,0-33.649-6.085,28.312,28.312,0,0,0-50.713-4.763c-3.317-4.557-11-3.69-16.507-2.492s-10.195,5.021-13.375,9.675a19.62,19.62,0,0,0-31.828,6.516,17.821,17.821,0,0,0-15.031-1.589,18.789,18.789,0,0,0-10.976,11A14.042,14.042,0,0,0,96.4,83.87c-6.933-6.321-18.885-5.989-25.457.708-8.236,8.393-14.553,20.85-17.194,32.308-2.967,12.872-4.841,26.725.017,39.008C60.149,172.021,76.6,181.746,92.777,188c19.6,7.585,40.336,11.867,61.143,14.85a518.466,518.466,0,0,0,170.011-3.872c11.379-2.163,22.807-4.751,33.222-9.821S377,176.291,382.1,165.894c8.434-17.178,3.8-37.6-1-56.126" transform="translate(-59.53 -21.316)" fill="#fff"/>
            <path id="Trazado_996027" data-name="Trazado 996027" d="M56.085,213.4V134.637l15.449,15.449L88.2,133.425l13.328,13.329,44.833-44.833,36.352,36.351L225.421,95.56l59.07,59.071,27.567-27.566L337.2,152.207l17.57-17.57v73.308" transform="translate(-61.394 -40.849)" fill="#d17e5d"/>
            <path id="Trazado_996028" data-name="Trazado 996028" d="M87.682,215.257l-5.733-26.832-5.733,26.832Z" transform="translate(-68.477 -73.525)" fill="#352a2b"/>
            <path id="Trazado_996029" data-name="Trazado 996029" d="M73.611,229.719l-5.733-26.832-5.733,26.832Z" transform="translate(-63.526 -78.613)" fill="#352a2b"/>
            <path id="Trazado_996030" data-name="Trazado 996030" d="M103.317,228.937,97.584,202.1l-5.733,26.832Z" transform="translate(-73.979 -78.338)" fill="#352a2b"/>
            <path id="Trazado_996031" data-name="Trazado 996031" d="M51.914,297.417l-3.155-73.144a15.14,15.14,0,0,1,17.947,7.049,13.08,13.08,0,0,1,23.041,5.926,12.465,12.465,0,0,1,21.865,8.076c6.24-5.37,15.49-5.872,22.6-1.728,3.059-6.938,14.409-7.876,18.565-1.533,3.316-3.169,7.356-5.9,11.923-6.331s9.629,2.073,10.906,6.478a17.91,17.91,0,0,1,32.691,4.468c2.395-5.635,9.546-8.062,15.525-6.742s10.9,5.527,15,10.07c2.339-7.188,12.13-11.285,18.482-7.189,2.2-7.819,8.137-14.844,15.983-16.953s17.259,1.7,20.273,9.244a14.168,14.168,0,0,1,24.551,1.4c1.947-5.088,8.156-7.7,13.494-6.61s9.682,5.192,12.293,9.974a8.781,8.781,0,0,1,8.5-4.3l3.783,60.924" transform="translate(-58.816 -85.862)" fill="#50867f"/>
            <path id="Trazado_996032" data-name="Trazado 996032" d="M52.9,327.313l-3.155-73.145a15.141,15.141,0,0,1,17.947,7.05,13.08,13.08,0,0,1,23.041,5.926A12.465,12.465,0,0,1,112.6,275.22c6.24-5.371,15.49-5.873,22.6-1.729,3.059-6.938,14.409-7.876,18.565-1.533,3.316-3.168,7.356-5.9,11.923-6.331s9.629,2.073,10.906,6.478a17.91,17.91,0,0,1,32.691,4.468c2.395-5.635,9.546-8.062,15.525-6.742s10.9,5.527,15,10.07c2.339-7.188,12.13-11.285,18.482-7.189,2.2-7.819,8.137-14.844,15.983-16.953s17.259,1.7,20.273,9.244a14.168,14.168,0,0,1,24.55,1.4c1.948-5.088,8.157-7.7,13.494-6.61s9.682,5.193,12.293,9.974a8.781,8.781,0,0,1,8.5-4.3l3.783,60.924" transform="translate(-59.163 -96.381)" fill="#3c655f"/>
            <rect id="Rectángulo_454926" data-name="Rectángulo 454926" width="356.24" height="97.196" transform="translate(-41.659 194.706)" fill="#a15329"/>
            <g id="Grupo_1177545" data-name="Grupo 1177545" transform="translate(-41.66 203.442)" opacity="0.5" style="mix-blend-mode: multiply;isolation: isolate">
              <g id="Grupo_1177544" data-name="Grupo 1177544">
                <g id="Grupo_1177543" data-name="Grupo 1177543" clip-path="url(#clip-path-4)">
                  <g id="Grupo_1177533" data-name="Grupo 1177533">
                    <g id="Grupo_1177532" data-name="Grupo 1177532">
                      <g id="Grupo_1177531" data-name="Grupo 1177531" clip-path="url(#clip-path-5)">
                        <rect id="Rectángulo_454927" data-name="Rectángulo 454927" width="356.24" height="7.434" transform="translate(0 0)" fill="#a15329"/>
                      </g>
                    </g>
                  </g>
                  <g id="Grupo_1177536" data-name="Grupo 1177536" transform="translate(0 14.994)">
                    <g id="Grupo_1177535" data-name="Grupo 1177535">
                      <g id="Grupo_1177534" data-name="Grupo 1177534" clip-path="url(#clip-path-6)">
                        <rect id="Rectángulo_454929" data-name="Rectángulo 454929" width="356.24" height="12.141" transform="translate(0 0)" fill="#a15329"/>
                      </g>
                    </g>
                  </g>
                  <g id="Grupo_1177539" data-name="Grupo 1177539" transform="translate(0 34.357)">
                    <g id="Grupo_1177538" data-name="Grupo 1177538">
                      <g id="Grupo_1177537" data-name="Grupo 1177537" clip-path="url(#clip-path-7)">
                        <rect id="Rectángulo_454931" data-name="Rectángulo 454931" width="356.24" height="16.848" transform="translate(0 0)" fill="#a15329"/>
                      </g>
                    </g>
                  </g>
                  <g id="Grupo_1177542" data-name="Grupo 1177542" transform="translate(0 58.088)">
                    <g id="Grupo_1177541" data-name="Grupo 1177541">
                      <g id="Grupo_1177540" data-name="Grupo 1177540" clip-path="url(#clip-path-8)">
                        <rect id="Rectángulo_454933" data-name="Rectángulo 454933" width="356.24" height="21.555" transform="translate(0)" fill="#a15329"/>
                      </g>
                    </g>
                  </g>
                </g>
              </g>
            </g>
          </g>
        </g>
        <g id="Grupo_1177552" data-name="Grupo 1177552">
          <g id="Grupo_1177551" data-name="Grupo 1177551" clip-path="url(#clip-path)">
            <path id="Trazado_996034" data-name="Trazado 996034" d="M203.189,304.646l.019-1.3q1.03.016,2.062.017v1.3q-1.042,0-2.08-.017m4.144-1.292q1.032-.013,2.06-.039l.034,1.3q-1.038.026-2.079.039Zm-8.29,1.176.053-1.3q1.026.043,2.055.071l-.036,1.3c-.692-.019-1.383-.044-2.072-.072m12.411-1.281q1.032-.041,2.06-.1l.068,1.3q-1.037.053-2.077.095ZM194.89,304.3l.089-1.294q1.027.07,2.058.127l-.071,1.294q-1.041-.056-2.076-.127m20.682-1.268q1.03-.067,2.056-.15l.1,1.292q-1.035.083-2.074.151Zm-24.826.927.124-1.29q1.025.1,2.053.183l-.1,1.292q-1.037-.086-2.071-.185m28.937-1.255q1.028-.1,2.051-.205l.138,1.289q-1.032.111-2.069.208Zm-33.07.8.158-1.286q1.023.125,2.049.238l-.141,1.288q-1.035-.114-2.066-.24m37.169-1.242q1.025-.124,2.045-.261l.174,1.285q-1.03.139-2.063.264Zm-41.29.677.193-1.281q1.019.154,2.042.295l-.178,1.283q-1.031-.141-2.057-.3m45.376-1.226q1.021-.152,2.037-.318l.209,1.279q-1.026.166-2.055.32Zm-49.479.548.229-1.276q1.013.181,2.032.351l-.213,1.278q-1.026-.17-2.048-.353m53.549-1.211q1.016-.18,2.027-.373l.243,1.274q-1.02.194-2.045.375Zm-57.632.423.264-1.27q1.008.21,2.021.406l-.246,1.272q-1.023-.2-2.04-.409m61.682-1.2q1.011-.207,2.016-.428l.277,1.266q-1.014.222-2.033.432Zm-65.742.293.3-1.261q1,.237,2.009.461l-.281,1.266q-1.016-.227-2.027-.466m69.769-1.178q1-.235,2-.483l.312,1.258q-1.008.25-2.021.487Zm-73.8.165.333-1.253q1,.264,2,.517l-.315,1.257q-1.01-.253-2.014-.52m77.8-1.16q1-.263,1.99-.54l.347,1.25q-1,.278-2.007.543Zm-81.807.035.367-1.243q.989.293,1.981.57l-.349,1.248q-1-.28-2-.576m85.779-1.141q.991-.289,1.975-.593l.381,1.24q-.993.3-1.991.6Zm-89.751-.092.4-1.233q.979.319,1.964.624l-.384,1.239q-.994-.308-1.981-.63m93.7-1.123q.986-.319,1.965-.65l.416,1.228q-.989.334-1.983.656Zm-97.638-.22.436-1.22q.97.345,1.947.679l-.419,1.226q-.985-.335-1.964-.685m101.559-1.106q.976-.346,1.946-.7l.45,1.215q-.978.363-1.963.71ZM150.4,294.409l.468-1.209q.962.373,1.928.732l-.452,1.215q-.976-.364-1.944-.739m109.337-1.091q.966-.373,1.926-.757l.482,1.2q-.967.389-1.941.764Zm-113.186-.463.5-1.2q.946.4,1.9.782l-.486,1.2q-.96-.388-1.914-.788m117.026-1.078q.955-.4,1.9-.809l.515,1.189q-.956.414-1.92.816ZM142.757,291.2l.534-1.181q.934.422,1.878.833l-.518,1.189q-.951-.414-1.894-.841m124.616-1.068q.943-.425,1.88-.861l.548,1.174q-.945.44-1.9.869Zm-128.368-.691.566-1.166q.924.448,1.854.885l-.55,1.173q-.938-.44-1.87-.892m132.115-1.058q.931-.449,1.855-.913l.58,1.16q-.931.467-1.871.92Zm-135.819-.8.6-1.15q.911.473,1.83.935l-.581,1.158q-.927-.465-1.847-.943m139.515-1.047q.919-.475,1.829-.962l.611,1.143q-.918.491-1.844.97Zm-143.168-.916.629-1.133q.9.5,1.8.985l-.612,1.142q-.916-.491-1.821-.994m146.811-1.034q.9-.5,1.8-1.012l.644,1.125q-.9.516-1.817,1.021Zm-150.41-1.027.659-1.116q.885.523,1.777,1.034l-.644,1.124q-.9-.516-1.792-1.043m154-1.021q.89-.525,1.771-1.062l.674,1.108q-.89.541-1.788,1.071ZM124.507,281.4l.69-1.1q.871.546,1.749,1.082l-.673,1.108q-.888-.541-1.765-1.093m161.068-1.008q.875-.547,1.742-1.108l.7,1.088q-.874.565-1.757,1.119Zm-164.551-1.248.719-1.078q.856.571,1.719,1.13l-.7,1.088q-.871-.564-1.734-1.139m168.02-.993q.859-.572,1.71-1.156l.733,1.07q-.859.587-1.725,1.164ZM117.6,276.79l.749-1.058q.84.593,1.688,1.176l-.734,1.069q-.856-.589-1.7-1.187m174.847-.977q.844-.6,1.678-1.2l.762,1.049q-.842.611-1.692,1.212Zm-178.2-1.467.777-1.038q.823.615,1.656,1.222l-.762,1.049q-.84-.611-1.671-1.233m181.544-.959q.826-.618,1.644-1.246l.79,1.028q-.824.634-1.659,1.256Zm-184.834-1.576.8-1.016q.807.639,1.623,1.268l-.791,1.027q-.823-.635-1.637-1.278m188.106-.94q.809-.64,1.61-1.29l.817,1.006q-.807.655-1.623,1.3Zm-191.327-1.684.832-.994q.79.661,1.589,1.311l-.818,1.005q-.807-.656-1.6-1.323m194.527-.919q.791-.661,1.573-1.333l.845.983q-.788.678-1.587,1.344Zm-197.677-1.791.86-.972q.771.683,1.552,1.355l-.846.983q-.788-.678-1.566-1.366m200.806-.9q.773-.682,1.536-1.375l.872.959q-.77.7-1.549,1.388Zm-203.881-1.9.885-.947q.752.7,1.515,1.4l-.872.96q-.768-.7-1.528-1.408m206.935-.872q.753-.7,1.5-1.416l.9.937q-.751.719-1.511,1.428Zm-209.935-2,.911-.923q.733.722,1.477,1.437l-.9.935q-.752-.719-1.491-1.449m212.912-.848q.734-.722,1.459-1.456l.922.911q-.731.74-1.472,1.469ZM95.589,257.847l.934-.9q.714.743,1.439,1.478l-.923.91q-.73-.741-1.45-1.49m218.729-.82q.715-.743,1.419-1.495l.946.886q-.711.757-1.43,1.507Zm-221.57-2.219.959-.872q.693.762,1.4,1.515l-.946.886q-.711-.759-1.41-1.529m224.387-.79q.693-.76,1.377-1.532l.97.859q-.689.779-1.39,1.546ZM89.99,251.694l.982-.846q.674.782,1.357,1.553l-.97.861q-.69-.779-1.369-1.568m229.877-.76q.673-.78,1.335-1.569l.993.833q-.668.8-1.346,1.583ZM87.319,248.5l1.005-.819q.65.8,1.314,1.591l-.994.833q-.669-.8-1.325-1.6m235.2-.725q.65-.8,1.291-1.6l1.016.806q-.646.813-1.3,1.618ZM84.733,245.244l1.027-.791q.63.817,1.27,1.626l-1.015.8q-.647-.815-1.282-1.639m240.344-.691q.629-.814,1.248-1.638l1.036.778q-.623.831-1.258,1.652ZM82.238,241.913l1.047-.764q.609.834,1.228,1.66l-1.038.777q-.622-.832-1.236-1.673m245.312-.653q.606-.83,1.2-1.671l1.058.749q-.6.849-1.213,1.686ZM79.833,238.515l1.068-.734q.585.851,1.182,1.694l-1.058.749q-.6-.85-1.191-1.708m250.1-.612q.583-.847,1.156-1.7l1.077.721q-.577.861-1.166,1.716ZM77.522,235.052l1.087-.705q.562.867,1.135,1.725l-1.078.719q-.578-.865-1.143-1.74m254.7-.57q.561-.861,1.109-1.732l1.1.691q-.553.878-1.119,1.748ZM75.305,231.526l1.106-.675q.538.882,1.087,1.755l-1.1.69q-.553-.88-1.1-1.77M334.412,231q.537-.877,1.061-1.762l1.115.662q-.529.891-1.069,1.776ZM73.185,227.94l1.125-.645q.513.9,1.039,1.785l-1.115.661q-.532-.9-1.049-1.8m263.325-.477q.512-.892,1.012-1.79l1.132.63q-.5.906-1.021,1.805ZM71.164,224.3l1.142-.613q.489.911.99,1.813l-1.134.628q-.5-.911-1-1.828m267.345-.426q.488-.9.963-1.816l1.149.6q-.479.92-.971,1.832ZM69.241,220.6l1.158-.582q.465.924.94,1.842l-1.15.6q-.479-.926-.948-1.856m271.168-.372q.463-.917.913-1.841l1.165.568q-.454.931-.92,1.857Zm-272.986-3.38L68.6,216.3q.438.936.889,1.866l-1.166.566q-.454-.937-.9-1.883m274.786-.314q.437-.928.862-1.865l1.18.535q-.429.944-.869,1.882Zm-276.5-3.486,1.189-.518q.413.949.838,1.89l-1.181.535q-.43-.951-.846-1.907m278.2-.254q.411-.941.81-1.888l1.2.5q-.4.955-.817,1.9ZM64.094,209.2l1.2-.485q.387.96.786,1.914l-1.2.5q-.4-.962-.792-1.929m281.405-.19q.387-.956.761-1.917l1.208.471q-.378.968-.767,1.932ZM62.589,205.3l1.215-.451q.362.972.733,1.936l-1.21.466q-.374-.972-.738-1.951m284.406-.14q.361-.965.708-1.937l1.221.437q-.351.979-.714,1.953Zm-285.8-3.794,1.228-.416q.333.98.679,1.954l-1.222.434q-.35-.982-.686-1.972m287.193-.088q.333-.974.655-1.955l1.232.4q-.324.991-.66,1.973ZM59.9,197.4l1.238-.384q.307.99.625,1.975l-1.233.4q-.322-.993-.631-1.99m289.763-.036q.306-.984.6-1.972l1.242.369q-.3,1-.606,1.989ZM58.729,193.408l1.248-.349q.278.995.568,1.982l-1.243.366q-.294-1-.574-2m292.11,0q.279-.991.546-1.989l1.252.335q-.268,1.005-.55,2.005Zm-293.174-4.02,1.257-.315q.251,1,.514,2l-1.253.331q-.265-1-.518-2.013m294.238.037q.252-1,.491-2l1.261.3q-.241,1.013-.5,2.02ZM56.712,185.339l1.266-.279q.223,1.007.458,2.01l-1.262.3q-.237-1.01-.462-2.027m296.146.076q.225-1.005.436-2.015l1.269.266q-.213,1.018-.439,2.032ZM55.87,181.266l1.274-.244q.194,1.013.4,2.022l-1.27.262q-.21-1.018-.406-2.039m297.832.113q.2-1.01.38-2.027l1.276.23q-.185,1.026-.384,2.045ZM55.142,177.173l1.279-.21q.168,1.018.348,2.033l-1.276.227q-.182-1.023-.351-2.05m299.294.149q.169-1.016.324-2.036l1.282.2q-.158,1.03-.328,2.053ZM54.524,173.06l1.285-.175q.138,1.023.292,2.04l-1.281.193q-.156-1.027-.3-2.059m300.532.185q.142-1.02.27-2.044l1.286.161q-.128,1.032-.271,2.061ZM54.02,168.933l1.288-.141q.112,1.026.236,2.048L54.259,171q-.126-1.03-.239-2.064m301.547.221q.113-1.022.213-2.051l1.29.126q-.1,1.036-.215,2.068ZM53.628,164.793l1.292-.1q.083,1.029.18,2.054l-1.29.122q-.1-1.034-.183-2.071m302.337.257q.086-1.026.157-2.056l1.293.09q-.072,1.039-.159,2.073ZM53.349,160.643l1.294-.07q.055,1.031.125,2.058l-1.294.087q-.069-1.037-.126-2.075m302.9.294q.058-1.029.1-2.06l1.3.056q-.045,1.04-.1,2.077Zm-303.07-4.449,1.3-.034q.026,1.032.069,2.06l-1.295.052q-.042-1.036-.07-2.079m303.246.335q.03-1.027.046-2.057l1.3.02q-.017,1.04-.047,2.075Zm-303.3-4.493,0-.742,1.3.006,0,.736q0,1.032.014,2.062l-1.3.018q-.014-1.038-.014-2.079m303.367.374v-.374q0-.845-.01-1.688l1.3-.014q.01.851.01,1.7v.377Zm-303.341-3.2q.018-1.038.052-2.073l1.295.04q-.031,1.028-.051,2.057Zm303.232-2.989,1.295-.049q.04,1.038.065,2.079l-1.3.032q-.025-1.032-.064-2.061m-303.1-1.162q.047-1.041.108-2.077l1.294.076q-.059,1.027-.106,2.058ZM356.171,142.4l1.294-.084q.066,1.035.121,2.075l-1.295.067q-.053-1.032-.12-2.058m-302.645-1.2q.074-1.038.163-2.073l1.291.11q-.087,1.027-.162,2.055Zm302.323-2.915,1.291-.119q.1,1.033.177,2.072l-1.292.1q-.081-1.029-.176-2.055M53.882,137.063q.1-1.037.22-2.069l1.287.147q-.116,1.023-.218,2.049Zm301.533-2.873,1.287-.154q.124,1.031.234,2.066l-1.29.137q-.108-1.026-.231-2.049M54.35,132.931q.13-1.033.275-2.062l1.284.181q-.144,1.019-.274,2.044ZM354.87,130.1l1.282-.19q.152,1.028.289,2.059l-1.285.172q-.137-1.024-.286-2.042M54.93,128.812q.16-1.028.333-2.052l1.278.216q-.172,1.016-.33,2.036Zm299.282-2.779,1.277-.224q.18,1.023.345,2.051l-1.279.207q-.164-1.019-.343-2.033M55.623,124.712q.189-1.024.389-2.042l1.272.25q-.2,1.011-.386,2.026Zm297.82-2.729,1.27-.259q.207,1.018.4,2.04l-1.274.242q-.192-1.013-.4-2.022M56.428,120.632q.216-1.018.445-2.031l1.265.286q-.227,1-.441,2.014Zm296.135-2.679,1.263-.294q.235,1.011.458,2.028l-1.266.277q-.221-1.008-.454-2.012M57.346,116.575q.244-1.011.5-2.018l1.256.32q-.255,1-.5,2Zm294.228-2.624,1.254-.327q.263,1,.513,2.015l-1.258.311q-.248-1-.509-2m-293.2-1.4q.271-1.006.555-2l1.247.355q-.282.991-.552,1.987Zm292.1-2.568,1.244-.364q.292,1,.568,2l-1.249.345q-.275-.994-.564-1.982M59.512,108.546q.3-1,.611-1.988l1.237.389q-.309.983-.605,1.971Zm289.751-2.518,1.234-.4q.32.993.625,1.992l-1.239.38q-.3-.991-.62-1.975m-288.5-1.449q.327-.989.666-1.971l1.225.423q-.336.974-.66,1.953ZM347.941,102.1l1.222-.432q.347.984.681,1.974l-1.228.414q-.332-.981-.675-1.956M62.118,100.648q.352-.98.719-1.952l1.213.457q-.363.964-.712,1.935Zm284.394-2.427,1.21-.465q.374.973.735,1.953l-1.217.448q-.359-.972-.729-1.937M63.582,96.755q.378-.969.772-1.931l1.2.49q-.39.954-.766,1.914ZM344.976,94.38l1.2-.5q.4.962.788,1.931l-1.2.481q-.385-.96-.782-1.915M65.15,92.913q.4-.956.821-1.9l1.186.522q-.412.938-.814,1.885Zm278.186-2.329,1.182-.531q.427.951.841,1.909l-1.19.514q-.41-.949-.833-1.892M66.819,89.121q.431-.943.874-1.879l1.171.555q-.439.928-.867,1.863Zm274.773-2.286,1.168-.564q.452.939.892,1.885l-1.175.546q-.437-.937-.885-1.867m-273-1.46q.457-.93.925-1.855l1.156.587q-.464.916-.917,1.839Zm271.155-2.238,1.152-.595q.478.926.944,1.858l-1.16.579q-.462-.925-.936-1.843M70.466,81.679q.481-.921.976-1.83l1.139.618q-.489.9-.967,1.813ZM337.8,79.491l1.136-.625q.5.912.994,1.83l-1.143.611q-.487-.912-.986-1.816M72.442,78.033q.507-.906,1.025-1.8l1.123.648q-.514.89-1.016,1.788ZM335.756,75.9l1.117-.657q.528.9,1.043,1.8l-1.126.642q-.511-.9-1.034-1.788M74.518,74.441q.532-.892,1.075-1.775l1.1.68q-.54.875-1.066,1.76Zm259.1-2.071,1.1-.687q.551.883,1.092,1.773l-1.108.672q-.536-.883-1.083-1.758M76.691,70.906q.555-.878,1.123-1.746l1.085.709q-.563.861-1.113,1.73ZM331.378,68.9l1.079-.718q.576.867,1.141,1.743l-1.09.7q-.559-.868-1.13-1.727M78.96,67.431q.579-.861,1.17-1.714l1.066.736q-.585.847-1.16,1.7Zm250.088-1.94,1.06-.745q.6.852,1.187,1.71l-1.07.732q-.582-.852-1.177-1.7M81.323,64.017q.6-.846,1.217-1.683l1.045.767q-.61.83-1.206,1.668Zm245.3-1.868,1.04-.775q.622.835,1.232,1.677l-1.049.761q-.606-.835-1.222-1.662M83.777,60.67q.625-.828,1.263-1.649l1.024.795q-.631.813-1.251,1.635Zm240.338-1.8,1.018-.8q.645.817,1.277,1.642l-1.028.789q-.628-.819-1.267-1.629M86.325,57.388q.647-.811,1.305-1.615l1,.822q-.653.8-1.3,1.6ZM321.517,55.67l1-.831q.666.8,1.321,1.607l-1.006.817q-.65-.8-1.311-1.593M88.96,54.177q.669-.794,1.351-1.58l.979.85q-.676.778-1.339,1.565Zm229.872-1.639.973-.856q.686.781,1.364,1.569l-.984.845q-.671-.784-1.353-1.557m-227.15-1.5q.691-.775,1.393-1.541l.955.875q-.7.76-1.381,1.53Zm224.382-1.555.949-.883q.709.762,1.406,1.532l-.961.871q-.692-.765-1.394-1.52M94.488,47.971q.713-.756,1.434-1.5l.932.9q-.717.742-1.423,1.491ZM313.216,46.5l.924-.908q.729.742,1.447,1.493l-.937.9q-.713-.745-1.434-1.481M97.377,44.983q.731-.737,1.476-1.465l.907.926q-.737.721-1.462,1.452ZM310.287,43.6l.9-.933q.748.721,1.486,1.452l-.912.922q-.733-.725-1.474-1.441M100.347,42.071q.753-.717,1.514-1.423l.883.95q-.756.7-1.5,1.413Zm206.935-1.292.874-.957q.768.7,1.526,1.412l-.887.945q-.752-.7-1.512-1.4M103.394,39.244q.773-.7,1.554-1.384l.856.974q-.774.681-1.539,1.372Zm200.808-1.2.848-.979q.786.68,1.563,1.37l-.861.968q-.77-.684-1.549-1.359M106.52,36.5q.789-.677,1.59-1.342l.829,1q-.792.66-1.576,1.33Zm194.529-1.11.821-1q.8.656,1.6,1.326l-.834.992q-.787-.663-1.585-1.316M109.718,33.837q.809-.654,1.627-1.3l.8,1.019q-.811.639-1.613,1.287Zm188.109-1.014.794-1.024q.822.636,1.633,1.282l-.807,1.014q-.806-.641-1.62-1.272M112.989,31.265q.827-.633,1.662-1.253l.773,1.04q-.828.615-1.647,1.242Zm181.548-.918L295.3,29.3q.838.612,1.668,1.237l-.78,1.036q-.822-.619-1.653-1.228M116.329,28.781q.844-.611,1.7-1.207l.744,1.061q-.845.593-1.681,1.2Zm174.853-.817.736-1.067q.855.589,1.7,1.192l-.751,1.056q-.838-.6-1.685-1.18M119.737,26.388q.86-.587,1.729-1.161l.716,1.081q-.861.57-1.714,1.151Zm168.027-.717.708-1.086q.869.566,1.731,1.144l-.722,1.076q-.855-.572-1.717-1.134M123.208,24.09q.875-.563,1.76-1.114l.686,1.1q-.876.546-1.744,1.1Zm161.078-.617.678-1.105q.884.542,1.761,1.1l-.692,1.1q-.869-.55-1.747-1.088M126.742,21.887q.891-.54,1.79-1.066l.655,1.118q-.891.523-1.775,1.056Zm154.008-.516.647-1.124q.9.518,1.79,1.048l-.662,1.114q-.884-.525-1.775-1.038M130.337,19.779q.905-.515,1.819-1.017l.625,1.136q-.905.5-1.8,1.008Zm146.823-.412.616-1.141q.914.493,1.818,1l-.632,1.132q-.9-.5-1.8-.989m-143.171-1.6q.919-.489,1.846-.966l.592,1.153q-.918.472-1.83.958Zm139.528-.309.585-1.157q.925.469,1.843.948l-.6,1.15q-.911-.476-1.828-.94m-135.823-1.6q.932-.465,1.872-.916l.562,1.168q-.932.448-1.857.909Zm132.131-.205.553-1.172q.938.442,1.868.9l-.569,1.165q-.923-.451-1.852-.889m-128.373-1.6q.945-.438,1.9-.865l.529,1.184q-.943.422-1.881.857Zm124.635-.1.519-1.187q.951.416,1.893.845l-.537,1.18q-.934-.425-1.874-.837m-120.827-1.6q.958-.411,1.922-.811l.5,1.2q-.957.4-1.906.8Zm117.044,0,.488-1.2q.96.39,1.913.793l-.5,1.194q-.944-.4-1.9-.786m-113.189-1.6q.969-.385,1.944-.758l.463,1.211q-.967.37-1.928.752Zm109.348.1.456-1.214q.974.366,1.941.743l-.471,1.208q-.961-.374-1.926-.737M153.012,9.268q.98-.36,1.964-.706l.43,1.223q-.976.342-1.947.7Zm101.571.2L255,8.238q.983.338,1.961.689l-.438,1.22q-.969-.348-1.945-.684m-97.631-1.58q.99-.332,1.985-.651l.395,1.234q-.985.317-1.966.646Zm93.714.293.387-1.237q.994.31,1.981.635l-.405,1.231q-.978-.322-1.963-.63M160.928,6.611q.995-.3,1.994-.594l.361,1.244q-.991.288-1.975.589ZM246.713,7l.354-1.247q1,.284,2,.581l-.37,1.242q-.987-.294-1.98-.576M164.923,5.451q1-.276,2.009-.539l.327,1.255q-1,.26-1.99.533Zm77.809.478.319-1.257q1.009.257,2.012.526l-.337,1.252q-.994-.267-1.994-.521M168.947,4.4q1.008-.249,2.022-.483l.292,1.263q-1.005.232-2.005.478Zm69.775.568.285-1.265q1.016.228,2.025.469l-.3,1.261q-1-.239-2.009-.466M173,3.465q1.014-.221,2.035-.427l.258,1.27q-1.012.205-2.018.424Zm61.688.656.251-1.272q1.021.2,2.037.414l-.266,1.268q-1.009-.212-2.022-.411M177.074,2.639q1.022-.192,2.046-.371l.222,1.277q-1.016.176-2.028.367Zm53.556.745.215-1.279q1.028.173,2.049.359l-.233,1.275q-1.013-.185-2.031-.355M181.171,1.925q1.026-.165,2.056-.316l.187,1.283q-1.02.15-2.037.312Zm45.384.832.18-1.284q1.031.146,2.057.3l-.2,1.281q-1.018-.156-2.04-.3M185.287,1.322q1.03-.137,2.064-.259l.152,1.287q-1.025.121-2.046.256Zm37.179.92.144-1.289q1.034.116,2.065.246l-.162,1.286q-1.022-.128-2.047-.243M189.415.834q1.034-.109,2.07-.2l.117,1.291q-1.027.093-2.052.2Zm28.945,1,.11-1.291q1.037.087,2.071.189l-.128,1.29q-1.025-.1-2.053-.188M193.558.457q1.034-.08,2.074-.146l.082,1.294q-1.031.065-2.057.145Zm20.691,1.09.073-1.294q1.04.058,2.075.133l-.092,1.292q-1.026-.072-2.057-.132M197.707.192Q198.745.14,199.784.1l.048,1.295q-1.032.038-2.059.09Zm12.429,1.173.04-1.3q1.037.033,2.071.078l-.058,1.295q-1.024-.046-2.053-.076M201.863.041Q202.9.017,203.942.006l.013,1.3q-1.032.011-2.062.034ZM206.016,1.3l.005-1.3q1.041,0,2.079.021l-.023,1.3q-1.029-.017-2.061-.021" transform="translate(-18.693)" fill="#7d90fa"/>
            <path id="Trazado_996035" data-name="Trazado 996035" d="M159.432,339.8a34.776,34.776,0,0,1-48.546-34.578,30.047,30.047,0,0,1-6.183-44.553c-7.745-9.47-15.345-20.385-14.968-32.612.281-9.1,4.965-17.385,9.054-25.521a230,230,0,0,0,23.789-85.96c14.769-5.759,33.309-3.748,48.562-8.065" transform="translate(-31.569 -38.18)" fill="#352a2b"/>
            <path id="Trazado_996036" data-name="Trazado 996036" d="M188.125,241.448s-20.464,38.811-23.64,58.216,11.644,62.45,11.644,68.8S166.6,398.26,166.6,398.26h97.732l-8.821-73.545s12.349-9.173,7.762-26.815S236.8,263.212,236.8,263.212l-31.554-24.78Z" transform="translate(-57.719 -83.895)" fill="#de5724"/>
            <g id="Grupo_1177550" data-name="Grupo 1177550" transform="translate(74.102 96.881)" opacity="0.5">
              <g id="Grupo_1177549" data-name="Grupo 1177549">
                <g id="Grupo_1177548" data-name="Grupo 1177548" clip-path="url(#clip-path-10)">
                  <path id="Trazado_996037" data-name="Trazado 996037" d="M142.082,149.476c-2.578,15-5.067,30.192-10.687,44.407-5.531,14.182-15.438,26.954-16.885,42.533-1.13,10.228,3.036,21.781,12.567,26.68l-.169-.941a26.4,26.4,0,0,0,4.2,39.485l-.079-.568c-3.79,4.982-3.8,11.7-2.59,17.549a20.383,20.383,0,0,0,10.7,13.864c-8.329-4.4-11.758-13.857-10.624-22.822a15.713,15.713,0,0,1,3.388-8.419c-12.814-8.888-14.548-27.8-3.587-38.849-9.5-4.512-13.607-15.863-12.566-25.867,1.362-15.41,11.267-28.114,16.5-42.309,5.461-14.345,7.717-29.631,9.823-44.742" transform="translate(-114.33 -149.476)" fill="#fff"/>
                  <path id="Trazado_996038" data-name="Trazado 996038" d="M165.49,156.863c-.478,16.508-6.941,31.948-13.411,46.892-4.532,11.357-10.618,22.732-10.727,35.244a23.268,23.268,0,0,0,3.115,11.838A23.77,23.77,0,0,1,141.988,239c.234-8.212,3.395-15.91,6.453-23.433,1.554-3.787,3.207-7.539,4.829-11.307,6.361-15.006,12.792-30.794,12.221-47.4" transform="translate(-123.838 -152.075)" fill="#fff"/>
                  <path id="Trazado_996039" data-name="Trazado 996039" d="M179.141,199.659c-4.676,14.662-10.207,30.385-15.725,44.751a169.018,169.018,0,0,0,15.725-44.751" transform="translate(-131.601 -167.133)" fill="#fff"/>
                </g>
              </g>
            </g>
            <path id="Trazado_996040" data-name="Trazado 996040" d="M267.136,232.7c15.642,16.878,44.375,15.681,64.179-2.672s23.179-46.914,7.537-63.792-44.376-15.681-64.179,2.672-23.179,46.914-7.537,63.791" transform="translate(-90.533 -54.301)" fill="#3c655f"/>
          </g>
        </g>
        <g id="Grupo_1177554" data-name="Grupo 1177554" transform="translate(166.765 100.025)">
          <g id="Grupo_1177553" data-name="Grupo 1177553" clip-path="url(#clip-path-11)">
            <path id="Trazado_996041" data-name="Trazado 996041" d="M258.09,235.4c3.95-2.35,5.053-6.525,5.94-9.879.57-2.158,1.109-4.2,2.171-5.106A10.147,10.147,0,0,1,270.13,219a17.038,17.038,0,0,0,7.008-2.846c3.282-2.548,4.327-6.187,5.25-9.4.572-1.992,1.113-3.872,2.081-5.018,1.43-1.694,4.3-2.4,7.347-3.142,4.245-1.039,9.057-2.216,12.066-6.541a18.667,18.667,0,0,0,2.679-7.487,16.912,16.912,0,0,1,1.054-3.883,5.9,5.9,0,0,1,3.956-3.112,16.678,16.678,0,0,1,2.731-.229,19.04,19.04,0,0,0,5.332-.721c3.877-1.238,6.988-4.328,9.512-9.449.369-.749.719-1.511,1.069-2.273a21.769,21.769,0,0,1,3.423-5.873,8.555,8.555,0,0,1,7.51-2.483l1.4-7.949a16.6,16.6,0,0,0-14.768,4.884,28.457,28.457,0,0,0-4.9,8.055c-.32.695-.638,1.39-.973,2.072-1.483,3.007-3.073,4.8-4.728,5.328a12.667,12.667,0,0,1-3.147.343,23.145,23.145,0,0,0-4.138.4,13.857,13.857,0,0,0-9.556,7.515,23.461,23.461,0,0,0-1.7,5.833,12.2,12.2,0,0,1-1.382,4.419c-1.266,1.819-4.09,2.51-7.359,3.31-3.97.972-8.469,2.072-11.595,5.774-2.081,2.466-2.926,5.4-3.671,8-.666,2.318-1.242,4.32-2.442,5.253a10.908,10.908,0,0,1-3.879,1.358c-2.368.548-5.051,1.17-7.364,3.154-2.968,2.545-3.939,6.217-4.719,9.169-.59,2.233-1.148,4.342-2.264,5.006Z" transform="translate(-256.125 -152.226)" fill="#50867f"/>
            <path id="Trazado_996042" data-name="Trazado 996042" d="M252.395,215.265a25.742,25.742,0,0,0,1.005-7.955c.013-.81.025-1.576.066-2.317.146-2.621.8-4.492,1.853-5.271a10.522,10.522,0,0,1,1.86-.941,12.664,12.664,0,0,0,4.9-3.214c2.108-2.442,2.368-5.34,2.575-7.668a18.289,18.289,0,0,1,.289-2.257,5.814,5.814,0,0,1,3.8-4.129,19.584,19.584,0,0,1,4.245-.579c3.6-.248,8.08-.559,11.024-4.407a14.15,14.15,0,0,0,2.318-5.619c.126-.532.245-1.034.38-1.473a9.553,9.553,0,0,1,8.05-6.489c.686-.058,1.47-.053,2.3-.053,2.854.01,6.408.021,9.345-2.494,2.481-2.125,3.245-5.023,3.858-7.353.36-1.366.732-2.779,1.3-3.289.833-.751,3.286-.6,4.6-.522l.487-8.055c-2.669-.163-7.141-.432-10.486,2.575-2.362,2.123-3.108,4.958-3.709,7.235-.362,1.373-.736,2.793-1.3,3.279-.66.565-2.394.559-4.071.554-.966,0-1.964-.006-3,.081a17.671,17.671,0,0,0-15.089,12.166c-.211.686-.366,1.34-.516,1.972a8.1,8.1,0,0,1-.875,2.583c-.679.885-2.488,1.073-5.172,1.259a26.09,26.09,0,0,0-6.123.937,13.941,13.941,0,0,0-9.234,10.037,24.755,24.755,0,0,0-.457,3.326c-.116,1.3-.236,2.636-.646,3.111a7.067,7.067,0,0,1-2.007,1.088,16.7,16.7,0,0,0-3.453,1.862c-3.1,2.3-4.811,6.1-5.1,11.3-.05.9-.065,1.781-.078,2.634a19.077,19.077,0,0,1-.589,5.52Z" transform="translate(-252.88 -149.669)" fill="#50867f"/>
            <path id="Trazado_996043" data-name="Trazado 996043" d="M284.824,253.19a28.554,28.554,0,0,1,.821-7.216,6.649,6.649,0,0,1,2.923-4.068,12.848,12.848,0,0,1,3.613-.9,21.118,21.118,0,0,0,5.414-1.385c5.619-2.482,7.887-7.947,9.888-12.77,1.543-3.716,3-7.225,5.608-8.508,1.68-.826,4.02-.8,6.5-.767.659.006,1.316.014,1.965.009,7.444-.071,10.95-3,12.581-5.455,1.76-2.645,1.982-5.612,2.16-7.995a23.317,23.317,0,0,1,.3-2.7,8.55,8.55,0,0,1,3.521-5.294,22.237,22.237,0,0,1,3.538-1.768,21.149,21.149,0,0,0,6.8-4.079c3.536-3.464,5-8.909,4.019-14.939l-7.965,1.3c.546,3.354-.09,6.3-1.7,7.876a14.5,14.5,0,0,1-4.351,2.436,28.974,28.974,0,0,0-4.858,2.49,16.567,16.567,0,0,0-6.916,10.4,29.653,29.653,0,0,0-.436,3.687c-.13,1.738-.242,3.24-.83,4.124-.778,1.168-2.887,1.827-5.94,1.856-.592.006-1.19,0-1.79-.009-3.164-.04-6.748-.082-10.158,1.6-5.337,2.624-7.549,7.954-9.5,12.657-1.626,3.919-3.031,7.3-5.7,8.482a14.649,14.649,0,0,1-3.411.795,19.208,19.208,0,0,0-6.055,1.7,14.465,14.465,0,0,0-6.94,8.879,35.075,35.075,0,0,0-1.17,9.327Z" transform="translate(-264.145 -161.725)" fill="#50867f"/>
            <path id="Trazado_996044" data-name="Trazado 996044" d="M305.7,272.967l8.061-.395a9.824,9.824,0,0,1,4.072-8.335,25.3,25.3,0,0,1,3.509-1.906c2.549-1.225,5.438-2.612,7.577-5.327a20.235,20.235,0,0,0,2.963-5.952,12.046,12.046,0,0,1,1.848-3.842c1.31-1.458,3.812-1.914,6.71-2.442,3.232-.589,6.9-1.256,9.967-3.638,4.04-3.134,5.333-7.767,6.473-11.855a27.291,27.291,0,0,1,2.145-5.974,10.3,10.3,0,0,1,7.3-5.006l-1.178-7.984A18.289,18.289,0,0,0,352,219.321a33.609,33.609,0,0,0-2.9,7.785c-.921,3.3-1.716,6.15-3.646,7.647-1.511,1.172-3.919,1.611-6.467,2.075-3.8.692-8.113,1.478-11.267,4.987a18.564,18.564,0,0,0-3.439,6.506,13.84,13.84,0,0,1-1.708,3.689c-.98,1.244-2.718,2.08-4.731,3.046a31.663,31.663,0,0,0-4.657,2.579,17.827,17.827,0,0,0-7.491,15.331" transform="translate(-274.322 -174.025)" fill="#50867f"/>
          </g>
        </g>
        <g id="Grupo_1177559" data-name="Grupo 1177559">
          <g id="Grupo_1177558" data-name="Grupo 1177558" clip-path="url(#clip-path)">
            <path id="Trazado_996046" data-name="Trazado 996046" d="M379.5,177.763a19.746,19.746,0,0,1-8.52-9.869,12.012,12.012,0,0,0,8.52,9.869" transform="translate(-130.535 -59.075)" fill="#352a2b"/>
            <path id="Trazado_996047" data-name="Trazado 996047" d="M387.2,165.707A14.381,14.381,0,0,0,375.718,173a13.376,13.376,0,0,1,11.483-5.275Z" transform="translate(-132.2 -58.306)" fill="#352a2b"/>
            <path id="Trazado_996048" data-name="Trazado 996048" d="M336.3,161.461a43.02,43.02,0,0,0-43.914,9.777,51.955,51.955,0,0,1,43.914-9.777" transform="translate(-102.879 -55.98)" fill="#fff"/>
            <g id="Grupo_1177557" data-name="Grupo 1177557" transform="translate(166.765 100.025)" opacity="0.8" style="mix-blend-mode: multiply;isolation: isolate">
              <g id="Grupo_1177556" data-name="Grupo 1177556">
                <g id="Grupo_1177555" data-name="Grupo 1177555" clip-path="url(#clip-path-13)">
                  <path id="Trazado_996049" data-name="Trazado 996049" d="M267.136,232.7c15.642,16.878,44.375,15.681,64.179-2.672s23.179-46.914,7.537-63.792-44.376-15.681-64.179,2.672-23.179,46.914-7.537,63.791" transform="translate(-257.298 -154.326)" fill="#3c655f"/>
                </g>
              </g>
            </g>
            <path id="Trazado_996050" data-name="Trazado 996050" d="M414.533,155.66c-5.09,22.441-30.562,35.792-56.894,29.819s-43.552-29.006-38.463-51.447,30.562-35.792,56.894-29.819,43.552,29.006,38.463,51.447" transform="translate(-111.992 -36.167)" fill="#3c655f"/>
          </g>
        </g>
        <g id="Grupo_1177561" data-name="Grupo 1177561" transform="translate(206.293 66.621)">
          <g id="Grupo_1177560" data-name="Grupo 1177560" clip-path="url(#clip-path-14)">
            <path id="Trazado_996051" data-name="Trazado 996051" d="M417.723,164.774l.1-8.07c-1.3-.016-2.838-1.563-4.467-3.2-2.152-2.163-4.832-4.857-8.675-5.574-3-.56-5.63.246-7.954.957a10.866,10.866,0,0,1-4.038.765c-1.506-.205-3.007-1.651-4.744-3.324-1.942-1.871-4.145-3.992-7.18-5.084-4.56-1.638-9.006-.34-12.928.807-3.23.944-6.02,1.759-8.027.819a12.19,12.19,0,0,1-3.41-3.133,23.444,23.444,0,0,0-4.391-4.2,13.862,13.862,0,0,0-12.034-1.721,23.27,23.27,0,0,0-3.783,1.723,12.624,12.624,0,0,1-2.9,1.279c-1.7.373-3.972-.385-6.761-2.246-.633-.422-1.256-.865-1.882-1.307a28.443,28.443,0,0,0-8.271-4.521,16.589,16.589,0,0,0-15.229,3.167l5.19,6.18a8.548,8.548,0,0,1,7.744-1.61,21.758,21.758,0,0,1,5.9,3.369c.686.485,1.371.97,2.064,1.434,4.748,3.168,8.99,4.285,12.965,3.417A19.015,19.015,0,0,0,340,142.658a16.639,16.639,0,0,1,2.478-1.168,5.9,5.9,0,0,1,4.983.713,16.958,16.958,0,0,1,2.856,2.834,18.654,18.654,0,0,0,6.067,5.139c4.77,2.24,9.524.847,13.719-.378,3.007-.88,5.846-1.709,7.933-.959,1.411.507,2.821,1.865,4.313,3.3,2.407,2.318,5.135,4.945,9.251,5.507a17.026,17.026,0,0,0,7.491-1.044,10.094,10.094,0,0,1,4.112-.741c1.374.256,2.86,1.751,4.435,3.333,2.447,2.459,5.492,5.52,10.088,5.578" transform="translate(-312.257 -111.688)" fill="#50867f"/>
            <path id="Trazado_996052" data-name="Trazado 996052" d="M420.365,140.215l5.339-6.052a19.091,19.091,0,0,1-3.272-4.484c-.439-.73-.892-1.487-1.386-2.241-2.855-4.358-6.244-6.791-10.074-7.231a16.739,16.739,0,0,0-3.921.118,7.086,7.086,0,0,1-2.281.062c-.593-.205-1.368-1.305-2.117-2.37a24.83,24.83,0,0,0-2.061-2.65,13.942,13.942,0,0,0-13.019-4.065,26.02,26.02,0,0,0-5.768,2.255c-2.416,1.182-4.077,1.924-5.107,1.5a8.074,8.074,0,0,1-2.049-1.8c-.447-.472-.909-.961-1.436-1.449a17.673,17.673,0,0,0-19.152-2.977c-.94.444-1.8.946-2.637,1.432-1.449.845-2.949,1.725-3.8,1.557-.734-.136-1.769-1.178-2.77-2.186-1.659-1.671-3.725-3.751-6.833-4.406-4.4-.929-8.135,1.544-10.366,3.022l4.455,6.729c1.1-.729,3.145-2.082,4.245-1.854.748.157,1.778,1.195,2.773,2.2,1.7,1.708,3.81,3.836,7.02,4.433,3.8.7,6.872-1.082,9.34-2.519.716-.418,1.394-.812,2.016-1.106a9.556,9.556,0,0,1,10.217,1.588c.337.313.692.688,1.068,1.086a14.144,14.144,0,0,0,4.819,3.7c4.475,1.854,8.508-.119,11.749-1.705a19.575,19.575,0,0,1,3.964-1.624,5.82,5.82,0,0,1,5.356,1.673,18.089,18.089,0,0,1,1.381,1.81c1.346,1.911,3.02,4.289,6.068,5.347a12.68,12.68,0,0,0,5.849.332,10.552,10.552,0,0,1,2.081-.118c1.3.149,2.806,1.441,4.244,3.635.407.621.8,1.277,1.217,1.971a25.716,25.716,0,0,0,4.854,6.385" transform="translate(-321.58 -103.576)" fill="#50867f"/>
            <path id="Trazado_996053" data-name="Trazado 996053" d="M408.525,191.014l6.857-4.256a35.113,35.113,0,0,0-5.683-7.489,14.47,14.47,0,0,0-10.453-4.21,19.2,19.2,0,0,0-6.09,1.563,14.642,14.642,0,0,1-3.352,1.019c-2.894.316-5.806-1.911-9.177-4.49-4.044-3.093-8.625-6.594-14.56-6.2-3.792.257-6.874,2.089-9.592,3.705-.516.306-1.03.612-1.545.9-2.656,1.5-4.812,1.988-6.071,1.366-.951-.471-1.8-1.714-2.783-3.153a29.545,29.545,0,0,0-2.223-2.974,16.568,16.568,0,0,0-11.193-5.538,29.114,29.114,0,0,0-5.452.276,14.461,14.461,0,0,1-4.987.07c-2.184-.559-4.208-2.79-5.415-5.965l-7.544,2.865c2.169,5.711,6.163,9.691,10.958,10.919a21.168,21.168,0,0,0,7.927.128,22.563,22.563,0,0,1,3.948-.242,8.553,8.553,0,0,1,5.7,2.819,23.366,23.366,0,0,1,1.616,2.191c1.347,1.974,3.024,4.431,5.873,5.839,2.638,1.305,7.143,2.09,13.621-1.577.565-.32,1.13-.654,1.7-.991,2.13-1.267,4.143-2.464,6.012-2.589,2.9-.218,5.918,2.112,9.113,4.556,4.147,3.173,8.846,6.769,14.953,6.1a21.115,21.115,0,0,0,5.38-1.511,12.842,12.842,0,0,1,3.578-1.032,6.606,6.606,0,0,1,4.566,2.058,28.559,28.559,0,0,1,4.324,5.836" transform="translate(-315.11 -121.385)" fill="#50867f"/>
            <path id="Trazado_996054" data-name="Trazado 996054" d="M401.755,218.187l7.175-3.694a17.83,17.83,0,0,0-14.16-9.521,31.6,31.6,0,0,0-5.323.1c-2.226.169-4.149.318-5.621-.268a13.872,13.872,0,0,1-3.325-2.339,18.554,18.554,0,0,0-6.234-3.91c-4.486-1.458-8.611.019-12.25,1.324-2.438.874-4.744,1.7-6.637,1.441-2.421-.33-4.536-2.4-6.985-4.795a33.7,33.7,0,0,0-6.406-5.288,18.289,18.289,0,0,0-15.89-1.219l2.976,7.5a10.3,10.3,0,0,1,8.829.677,27.349,27.349,0,0,1,4.847,4.1c3.033,2.968,6.472,6.332,11.539,7.022,3.85.522,7.356-.732,10.449-1.84,2.772-.994,5.166-1.853,7.032-1.246a12.049,12.049,0,0,1,3.523,2.4,20.208,20.208,0,0,0,5.544,3.669c3.211,1.279,6.406,1.034,9.225.819a25.3,25.3,0,0,1,3.993-.108,9.826,9.826,0,0,1,7.7,5.176" transform="translate(-321.035 -133.035)" fill="#50867f"/>
          </g>
        </g>
        <g id="Grupo_1177572" data-name="Grupo 1177572">
          <g id="Grupo_1177571" data-name="Grupo 1177571" clip-path="url(#clip-path)">
            <path id="Trazado_996056" data-name="Trazado 996056" d="M324,153.554a12.014,12.014,0,0,0,2.434-12.809A19.743,19.743,0,0,1,324,153.554" transform="translate(-114.004 -49.523)" fill="#352a2b"/>
            <path id="Trazado_996057" data-name="Trazado 996057" d="M308.241,151.059a13.378,13.378,0,0,1,12.581-1.184,14.382,14.382,0,0,0-13.589-.565Z" transform="translate(-108.103 -52.031)" fill="#352a2b"/>
            <g id="Grupo_1177564" data-name="Grupo 1177564" transform="translate(206.293 66.621)" opacity="0.5" style="mix-blend-mode: multiply;isolation: isolate">
              <g id="Grupo_1177563" data-name="Grupo 1177563">
                <g id="Grupo_1177562" data-name="Grupo 1177562" clip-path="url(#clip-path-16)">
                  <path id="Trazado_996058" data-name="Trazado 996058" d="M414.533,155.66c-5.09,22.441-30.562,35.792-56.894,29.819s-43.552-29.006-38.463-51.447,30.562-35.792,56.894-29.819,43.552,29.006,38.463,51.447" transform="translate(-318.285 -102.788)" fill="#3c655f"/>
                </g>
              </g>
            </g>
            <path id="Trazado_996059" data-name="Trazado 996059" d="M334.57,122.8a51.956,51.956,0,0,1,42.909-13.523A43.019,43.019,0,0,0,334.57,122.8" transform="translate(-117.722 -37.981)" fill="#fff"/>
            <path id="Trazado_996060" data-name="Trazado 996060" d="M247.369,224.39c7.423,3.574,14.074-1.632,14.074-1.632s-24.31-24.5-24.548-24.727c-5.791-5.579-3.571-20.38-3.571-20.38s18.1,3.373,25.265-1.788,6.4-27.863,6.128-29.331c2.9-1.167,6.756-4.732,7.427-7.7s-10.246-12.81-10.246-12.81-3.738-21.38-11.347-32.612l-41.306,18.841s-7.453,77.517-8.045,78.169c30.672,3.591,38.746,30.394,46.169,33.968" transform="translate(-70.794 -32.868)" fill="#dfb38c"/>
            <path id="Trazado_996061" data-name="Trazado 996061" d="M281.49,145.323a3.676,3.676,0,1,1-4.057-3.249,3.675,3.675,0,0,1,4.057,3.249" transform="translate(-96.467 -49.982)" fill="#352a2b"/>
            <path id="Trazado_996062" data-name="Trazado 996062" d="M262.083,139.076a14.262,14.262,0,0,1,6.021-7.28,28.9,28.9,0,0,1,4.26-1.638c1.434-.541,2.912-.965,4.64-1.531l.032-.274c-5.178-2.979-11.091,1.134-13.637,5.727a13.464,13.464,0,0,0-1.583,4.933Z" transform="translate(-92.122 -44.807)" fill="#352a2b"/>
            <g id="Grupo_1177567" data-name="Grupo 1177567" transform="translate(169.81 103.295)" opacity="0.5" style="mix-blend-mode: multiply;isolation: isolate">
              <g id="Grupo_1177566" data-name="Grupo 1177566">
                <g id="Grupo_1177565" data-name="Grupo 1177565" clip-path="url(#clip-path-17)">
                  <path id="Trazado_996063" data-name="Trazado 996063" d="M273.108,164.331a5.573,5.573,0,1,1-6.152-4.926,5.573,5.573,0,0,1,6.152,4.926" transform="translate(-261.996 -159.371)" fill="#dfb38c"/>
                </g>
              </g>
            </g>
            <path id="Trazado_996064" data-name="Trazado 996064" d="M294.645,185.474a12.053,12.053,0,0,1-9.136-5.982,12.7,12.7,0,0,0,8.937,7.263Z" transform="translate(-100.459 -63.156)" fill="#352a2b"/>
            <path id="Trazado_996065" data-name="Trazado 996065" d="M191.56,142.986a18.887,18.887,0,0,0,13.112-5.2c3.478-3.34,5.4-8.6,5.545-13.424,15.52-3.1,28.389-16.184,31.9-31.618,2.558,4.279,4.233,10.024,5.556,14.831.559-.794,5.725-5.563,2.775-14.885a20.769,20.769,0,0,0-7.154-10.454,310,310,0,0,1-51.454,15.9,68.446,68.446,0,0,0-11.606,3.231,8.244,8.244,0,0,0-3.626,2.486A9.152,9.152,0,0,0,175.327,107c-3.49,13.331-4.8,28.171,1.679,40.333a20.681,20.681,0,0,0,6.377,7.577" transform="translate(-60.67 -28.934)" fill="#352a2b"/>
            <path id="Trazado_996066" data-name="Trazado 996066" d="M192,164.162a16.048,16.048,0,0,0,4.81,8.2,12.119,12.119,0,0,0,5.3,3.06,6.313,6.313,0,0,0,5.445-1.043,8.115,8.115,0,0,0,2.572-4.766,17.009,17.009,0,0,0-3.312-13.026c-1.917-2.559-4.593-4.613-7.429-4.883-5.719-.542-8.577,6.85-7.384,12.455" transform="translate(-67.464 -53.37)" fill="#dfb38c"/>
            <g id="Grupo_1177570" data-name="Grupo 1177570" transform="translate(126.444 102.85)" opacity="0.5" style="mix-blend-mode: multiply;isolation: isolate">
              <g id="Grupo_1177569" data-name="Grupo 1177569">
                <g id="Grupo_1177568" data-name="Grupo 1177568" clip-path="url(#clip-path-18)">
                  <path id="Trazado_996067" data-name="Trazado 996067" d="M209.382,172.783a7.4,7.4,0,0,1-3.906-1.268,1.052,1.052,0,0,1-.465-1.687,12.178,12.178,0,0,1,2.785-3.1,24.357,24.357,0,0,0-2.95-5.1,7.522,7.522,0,0,0-4.779-2.917,4.316,4.316,0,0,0-4.519,2.628s-2.366,5.289,3.609,10.758c6.3,5.768,10.224.686,10.224.686" transform="translate(-195.087 -158.685)" fill="#dfb38c"/>
                </g>
              </g>
            </g>
            <path id="Trazado_996068" data-name="Trazado 996068" d="M195.8,161.094c1.407-2.621,4.817-2.733,6.945-1.021,2.232,1.647,3.443,4.239,4.676,6.708l.2-.843a11.861,11.861,0,0,0-2.654,3.093c-1.906,2.632,2.847,3.748,4.668,3.509a8.075,8.075,0,0,1-3.473-1.453c-.34-.235-.624-.516-.656-.723a.388.388,0,0,1,.062-.264,12.609,12.609,0,0,1,3.348-3.392c-1.285-2.826-2.688-5.968-5.455-7.694-2.533-1.819-6.848-1.251-7.659,2.082" transform="translate(-68.895 -55.592)" fill="#352a2b"/>
            <path id="Trazado_996069" data-name="Trazado 996069" d="M216.793,187.9a3.565,3.565,0,1,1-3.936-3.152,3.566,3.566,0,0,1,3.936,3.152" transform="translate(-73.78 -64.997)" fill="#fff"/>
            <path id="Trazado_996070" data-name="Trazado 996070" d="M240.031,217.3a55.3,55.3,0,0,1-19.77-11.2,53.035,53.035,0,0,0,19.532,15.7" transform="translate(-77.501 -72.521)" fill="#352a2b"/>
            <path id="Trazado_996071" data-name="Trazado 996071" d="M120.7,95.875s-35.165,10.637-33.3,16.234c3.351,10.047,170.127-33.747,167.136-43.417-1.786-5.774-39.059,2.319-39.059,2.319Z" transform="translate(-30.727 -23.439)" fill="#eec272"/>
            <path id="Trazado_996072" data-name="Trazado 996072" d="M144.143,43.066c21.46-8.172,43.69-16.362,66.534-18.69a151.64,151.64,0,0,1,12.967,15.919A234.665,234.665,0,0,1,141.461,62.03c.526-6.1,1.453-12.246,2.682-18.964" transform="translate(-49.775 -8.577)" fill="#eec272"/>
            <path id="Trazado_996073" data-name="Trazado 996073" d="M223.378,48.937a151.776,151.776,0,0,1,11.29,18.646s-20.676,12.358-42,18.419-51.4,7.857-51.4,7.857a128.348,128.348,0,0,1-.069-23.187,234.665,234.665,0,0,0,82.183-21.735" transform="translate(-49.508 -17.219)" fill="#de5724"/>
            <path id="Trazado_996074" data-name="Trazado 996074" d="M241.965,35.151a5.186,5.186,0,0,0,1.139-3.6,5.184,5.184,0,0,0-1.139,3.6" transform="translate(-85.135 -11.102)" fill="#352a2b"/>
            <path id="Trazado_996075" data-name="Trazado 996075" d="M246.575,36.416a8.206,8.206,0,0,0,1.242-3.9,4.865,4.865,0,0,0-1.242,3.9" transform="translate(-86.747 -11.441)" fill="#352a2b"/>
            <path id="Trazado_996076" data-name="Trazado 996076" d="M169.335,41.232A6.051,6.051,0,0,0,171.4,44.24a4.1,4.1,0,0,0-2.068-3.008" transform="translate(-59.582 -14.508)" fill="#352a2b"/>
            <path id="Trazado_996077" data-name="Trazado 996077" d="M164.352,45.6a5.843,5.843,0,0,0,2.583,2.435,3.843,3.843,0,0,0-2.583-2.435" transform="translate(-57.829 -16.047)" fill="#352a2b"/>
            <path id="Trazado_996078" data-name="Trazado 996078" d="M154.664,55.243a3.858,3.858,0,0,0,2.552,1.988,3.857,3.857,0,0,0-2.552-1.988" transform="translate(-54.42 -19.438)" fill="#352a2b"/>
            <path id="Trazado_996079" data-name="Trazado 996079" d="M110.088,118.781a4.39,4.39,0,0,0,2.434,2.46,4.386,4.386,0,0,0-2.434-2.46" transform="translate(-38.736 -41.794)" fill="#352a2b"/>
            <path id="Trazado_996080" data-name="Trazado 996080" d="M113.986,116.549a4.848,4.848,0,0,0,1.952,3.078,4.848,4.848,0,0,0-1.952-3.078" transform="translate(-40.107 -41.009)" fill="#352a2b"/>
            <path id="Trazado_996081" data-name="Trazado 996081" d="M118.847,114.147a7.4,7.4,0,0,0,1.87,3.667,5.264,5.264,0,0,0-1.87-3.667" transform="translate(-41.818 -40.164)" fill="#352a2b"/>
            <path id="Trazado_996082" data-name="Trazado 996082" d="M311.556,64.919a3.67,3.67,0,0,0,.732,3.51,6.746,6.746,0,0,0-.732-3.51" transform="translate(-109.565 -22.842)" fill="#352a2b"/>
            <path id="Trazado_996083" data-name="Trazado 996083" d="M315.745,65.06a3.3,3.3,0,0,0,.248,3.28,5.107,5.107,0,0,0-.248-3.28" transform="translate(-110.985 -22.892)" fill="#352a2b"/>
            <path id="Trazado_996084" data-name="Trazado 996084" d="M320.153,64.052a4.338,4.338,0,0,0-.349,3.2,3.443,3.443,0,0,0,.349-3.2" transform="translate(-112.471 -22.537)" fill="#352a2b"/>
            <path id="Trazado_996085" data-name="Trazado 996085" d="M320.155,82.968a3.914,3.914,0,0,0,1.227,3.02,3.916,3.916,0,0,0-1.227-3.02" transform="translate(-112.649 -29.193)" fill="#352a2b"/>
            <path id="Trazado_996086" data-name="Trazado 996086" d="M324.083,80.936a4.546,4.546,0,0,0,1.464,2.856,3.288,3.288,0,0,0-1.464-2.856" transform="translate(-114.032 -28.478)" fill="#352a2b"/>
            <path id="Trazado_996087" data-name="Trazado 996087" d="M103.585,136.651a4.437,4.437,0,0,0-.72,3.406,4.439,4.439,0,0,0,.72-3.406" transform="translate(-36.165 -48.082)" fill="#352a2b"/>
            <path id="Trazado_996088" data-name="Trazado 996088" d="M107.522,136.2a4.435,4.435,0,0,0-.162,3.475,4.432,4.432,0,0,0,.162-3.475" transform="translate(-37.678 -47.922)" fill="#352a2b"/>
            <path id="Trazado_996089" data-name="Trazado 996089" d="M207.048,30.509a3.979,3.979,0,0,0-.4-3.263,3.979,3.979,0,0,0,.4,3.263" transform="translate(-72.646 -9.587)" fill="#352a2b"/>
            <path id="Trazado_996090" data-name="Trazado 996090" d="M211.212,29.852a9.944,9.944,0,0,0,.468-4.379,5.459,5.459,0,0,0-.468,4.379" transform="translate(-74.227 -8.963)" fill="#352a2b"/>
            <path id="Trazado_996091" data-name="Trazado 996091" d="M155.8,118.482a1.767,1.767,0,0,0,1.618,1.377,1.768,1.768,0,0,0-1.618-1.377" transform="translate(-54.82 -41.689)" fill="#352a2b"/>
            <path id="Trazado_996092" data-name="Trazado 996092" d="M161.428,113.545a7.04,7.04,0,0,0,2.408,3.159,4.855,4.855,0,0,0-2.408-3.159" transform="translate(-56.8 -39.952)" fill="#352a2b"/>
            <path id="Trazado_996093" data-name="Trazado 996093" d="M245.4,96.231a2.019,2.019,0,0,0,.281,2.27,2.019,2.019,0,0,0-.281-2.27" transform="translate(-86.266 -33.86)" fill="#352a2b"/>
            <path id="Trazado_996094" data-name="Trazado 996094" d="M254.5,92.438a3.346,3.346,0,0,0,.369,2.979,3.348,3.348,0,0,0-.369-2.979" transform="translate(-89.482 -32.525)" fill="#352a2b"/>
            <path id="Trazado_996095" data-name="Trazado 996095" d="M273.8,87.369a3.083,3.083,0,0,0,.068,2.873,3.081,3.081,0,0,0-.068-2.873" transform="translate(-96.228 -30.742)" fill="#352a2b"/>
            <path id="Trazado_996096" data-name="Trazado 996096" d="M185.431,57.889A2.6,2.6,0,0,0,186.988,60a2.6,2.6,0,0,0-1.557-2.112" transform="translate(-65.246 -20.369)" fill="#352a2b"/>
            <path id="Trazado_996097" data-name="Trazado 996097" d="M191.348,55.378a3.608,3.608,0,0,0,1.23,2.87,3.605,3.605,0,0,0-1.23-2.87" transform="translate(-67.328 -19.485)" fill="#352a2b"/>
            <path id="Trazado_996098" data-name="Trazado 996098" d="M197.032,55.334a3.355,3.355,0,0,0,.511,2.962,3.357,3.357,0,0,0-.511-2.962" transform="translate(-69.278 -19.47)" fill="#352a2b"/>
            <path id="Trazado_996099" data-name="Trazado 996099" d="M220.972,56.122a1.916,1.916,0,0,0,.205,2.429,2.869,2.869,0,0,0-.205-2.429" transform="translate(-77.632 -19.747)" fill="#352a2b"/>
            <path id="Trazado_996100" data-name="Trazado 996100" d="M228.054,54.823a2.515,2.515,0,0,0,.46,2.536,2.516,2.516,0,0,0-.46-2.536" transform="translate(-80.188 -19.29)" fill="#352a2b"/>
            <path id="Trazado_996101" data-name="Trazado 996101" d="M161.4,71.974a2.891,2.891,0,0,0,1.767,2.141,2.89,2.89,0,0,0-1.767-2.141" transform="translate(-56.792 -25.325)" fill="#352a2b"/>
            <path id="Trazado_996102" data-name="Trazado 996102" d="M166.864,69.529a4.082,4.082,0,0,0,.9,2.626,2.3,2.3,0,0,0-.9-2.626" transform="translate(-58.713 -24.465)" fill="#352a2b"/>
            <path id="Trazado_996103" data-name="Trazado 996103" d="M174.018,70.632a4.317,4.317,0,0,0,.422,3.405,4.317,4.317,0,0,0-.422-3.405" transform="translate(-61.169 -24.853)" fill="#352a2b"/>
            <path id="Trazado_996104" data-name="Trazado 996104" d="M141.2,97.192l.023-1.38h.211c.307,0,.928,0,1.835-.024l.033,1.38c-.924.022-1.557.025-1.868.025Zm4.13-1.469q.934-.037,2.06-.094l.073,1.378c-.756.04-1.451.071-2.079.1Zm4.122-.213q.979-.063,2.06-.143l.1,1.377c-.725.054-1.417.1-2.075.143Zm4.12-.307q.994-.084,2.055-.185l.132,1.375c-.713.069-1.4.13-2.071.187Zm4.11-.39q1-.1,2.053-.225l.157,1.372q-1.057.121-2.066.226Zm4.1-.469q1.006-.124,2.049-.263l.181,1.368q-1.049.14-2.06.264Zm4.1-.544q1.006-.142,2.044-.3l.2,1.365q-1.042.157-2.055.3Zm4.083-.617q1.006-.161,2.038-.336l.231,1.36q-1.037.176-2.05.339Zm4.073-.691q1.005-.18,2.03-.373l.256,1.357q-1.032.193-2.043.375Zm4.059-.764q1-.2,2.024-.409l.28,1.352q-1.029.213-2.037.412Zm4.044-.837q1-.217,2.016-.447l.3,1.347q-1.022.23-2.028.449Zm4.028-.91q1-.236,2.009-.484l.329,1.34q-1.016.25-2.02.486Zm4.011-.986.468-.12q.768-.2,1.524-.4l.362,1.331q-.765.209-1.541.409l-.472.122Zm3.974-1.082q1-.291,1.975-.591l.405,1.319q-.988.3-1.994.6Zm3.937-1.217q.988-.323,1.953-.656l.45,1.3q-.976.337-1.974.664Zm3.894-1.345q.979-.356,1.931-.719l.493,1.29q-.962.367-1.952.727Zm3.851-1.47q.968-.387,1.907-.781l.533,1.274q-.949.4-1.928.789Zm3.8-1.592q.959-.417,1.882-.839l.574,1.255q-.933.427-1.9.85Zm3.753-1.707q.949-.449,1.855-.9l.611,1.238q-.915.452-1.875.907Zm3.7-1.824c.625-.321,1.236-.639,1.826-.953l.648,1.218q-.9.476-1.846.964Zm3.638-1.936q.933-.515,1.8-1.011l.688,1.2q-.872.5-1.816,1.022ZM224.3,74.77q.935-.557,1.76-1.071l.728,1.173q-.834.517-1.781,1.084Zm3.5-2.173c.649-.419,1.222-.8,1.716-1.136L230.3,72.6c-.5.34-1.082.727-1.742,1.152Zm3.4-2.313c.266-.192.429-.315.485-.358l.745-.082-.308.618,0,0,.394.564c-.058.044-.228.172-.5.372Z" transform="translate(-49.684 -24.576)" fill="#352a2b"/>
            <path id="Trazado_996105" data-name="Trazado 996105" d="M200.265,67.693q.5,4.244.995,8.488c.053.45.019,1.043-.414,1.176L196.929,68.9a48.858,48.858,0,0,1-.237,8.7q-1.964-4.319-3.586-8.782" transform="translate(-67.946 -23.819)" fill="#eec272"/>
            <path id="Trazado_996106" data-name="Trazado 996106" d="M252.339,285.374a22.85,22.85,0,0,0,11.175-3.048l-.64-1.126c-6.208,3.523-13.484,3.844-18.534.815a25.964,25.964,0,0,1-5.655-5.055c-1.736-1.931-3.453-3.961-5.111-5.925-4.933-5.838-10.034-11.875-16.465-16.242a42.793,42.793,0,0,0-21.564-7.316l-.075,1.294a41.5,41.5,0,0,1,20.91,7.095c6.284,4.267,11.326,10.235,16.2,16.006,1.666,1.972,3.388,4.01,5.138,5.955a27.071,27.071,0,0,0,5.952,5.3,16.806,16.806,0,0,0,8.666,2.248" transform="translate(-68.779 -87.077)" fill="#352a2b"/>
            <path id="Trazado_996107" data-name="Trazado 996107" d="M297.381,275.967c14.51,26.526,51.505,34.228,82.631,17.2s44.595-52.332,30.085-78.858-51.505-34.228-82.631-17.2-44.595,52.332-30.085,78.858" transform="translate(-102.583 -66.171)" fill="#352a2b"/>
            <path id="Trazado_996108" data-name="Trazado 996108" d="M295.549,273.523c14.51,26.526,51.505,34.228,82.631,17.2s44.595-52.331,30.085-78.858-51.505-34.228-82.631-17.2S281.039,247,295.549,273.523" transform="translate(-101.938 -65.311)" fill="#3c655f"/>
          </g>
        </g>
        <g id="Grupo_1177574" data-name="Grupo 1177574" transform="translate(187.773 120.305)">
          <g id="Grupo_1177573" data-name="Grupo 1177573" clip-path="url(#clip-path-19)">
            <path id="Trazado_996109" data-name="Trazado 996109" d="M279.22,280.453c5.787-1.726,8.533-6.691,10.74-10.681,1.419-2.565,2.76-4.989,4.4-5.807,1.254-.624,3.3-.586,5.463-.543,3.009.058,6.42.122,9.842-1.377,5-2.192,7.5-6.494,9.707-10.289,1.368-2.353,2.661-4.577,4.262-5.726,2.366-1.7,6.251-1.673,10.37-1.644,5.737.043,12.251.084,17.473-4.46,2.947-2.566,4.472-5.813,5.817-8.679a22.249,22.249,0,0,1,2.59-4.61,7.755,7.755,0,0,1,6.039-2.694,21.945,21.945,0,0,1,3.551.584,24.847,24.847,0,0,0,7.027.793c5.336-.331,10.292-3.27,15.154-8.985.726-.853,1.421-1.718,2.093-2.553,2.041-2.539,3.969-4.937,6.246-6.384a11.235,11.235,0,0,1,10.365-.752l4.334-9.678a21.807,21.807,0,0,0-20.385,1.48c-3.757,2.386-6.449,5.735-8.824,8.69-.656.816-1.275,1.586-1.906,2.328-2.855,3.356-5.457,5.131-7.734,5.272a16.742,16.742,0,0,1-4.122-.574,30.462,30.462,0,0,0-5.4-.817,18.214,18.214,0,0,0-14.588,6.507,30.854,30.854,0,0,0-4.038,6.887c-1.031,2.194-1.92,4.088-3.18,5.186-2.2,1.912-6.015,1.887-10.438,1.855-5.371-.038-11.457-.079-16.628,3.635-3.442,2.471-5.461,5.944-7.243,9.008-1.594,2.74-2.969,5.106-4.8,5.908-1.288.565-3.276.528-5.379.487-3.193-.064-6.81-.132-10.394,1.653-4.6,2.29-7.015,6.658-8.956,10.168-1.469,2.655-2.856,5.163-4.493,5.651Z" transform="translate(-284.953 -188.958)" fill="#50867f"/>
            <path id="Trazado_996110" data-name="Trazado 996110" d="M279.911,250.118a33.805,33.805,0,0,0,3.835-9.813c.277-1.028.539-2,.829-2.93,1.027-3.293,2.466-5.467,4.054-6.122a13.692,13.692,0,0,1,2.67-.6,16.656,16.656,0,0,0,7.274-2.525c3.47-2.434,4.73-6.042,5.742-8.942a24.062,24.062,0,0,1,1.093-2.784,7.641,7.641,0,0,1,6.166-4.041,25.743,25.743,0,0,1,5.594.625c4.667.839,10.475,1.882,15.461-2.075a18.566,18.566,0,0,0,4.757-6.416c.331-.636.645-1.238.957-1.754a12.558,12.558,0,0,1,12.341-5.684c.892.146,1.89.4,2.946.671,3.635.928,8.159,2.084,12.709-.178,3.841-1.911,5.745-5.359,7.275-8.129.9-1.626,1.825-3.306,2.712-3.775,1.3-.686,4.38.29,6.033.814l3.208-10.107c-3.352-1.063-8.961-2.844-14.188-.086-3.691,1.948-5.553,5.319-7.048,8.027-.9,1.634-1.834,3.322-2.713,3.759-1.023.511-3.229-.055-5.364-.6-1.23-.314-2.5-.638-3.849-.861a23.222,23.222,0,0,0-23.132,10.656c-.489.807-.9,1.59-1.291,2.347a10.615,10.615,0,0,1-1.943,3.008c-1.149.911-3.516.57-6.995-.055a34.108,34.108,0,0,0-8.1-.773,18.321,18.321,0,0,0-14.988,9.824,32.658,32.658,0,0,0-1.65,4.091c-.565,1.615-1.147,3.283-1.823,3.758a9.3,9.3,0,0,1-2.906.741,21.931,21.931,0,0,0-5,1.263c-4.682,1.935-8.089,6.23-10.128,12.766-.353,1.13-.654,2.25-.945,3.331a25.106,25.106,0,0,1-2.521,6.844Z" transform="translate(-283.122 -181.81)" fill="#50867f"/>
            <path id="Trazado_996111" data-name="Trazado 996111" d="M308.013,310.153a37.507,37.507,0,0,1,3.363-8.931,8.732,8.732,0,0,1,5.029-4.243,16.826,16.826,0,0,1,4.894.016,27.714,27.714,0,0,0,7.341-.027c7.957-1.358,12.6-7.594,16.7-13.1,3.158-4.239,6.141-8.243,9.877-9.04,2.406-.51,5.381.275,8.529,1.11.836.221,1.67.441,2.5.642,9.5,2.3,14.916-.313,17.78-2.91,3.093-2.805,4.328-6.514,5.319-9.494a30.668,30.668,0,0,1,1.253-3.35,11.241,11.241,0,0,1,6.187-5.615,29.138,29.138,0,0,1,5.074-1.115c3.119-.507,6.655-1.08,9.974-3.016,5.617-3.277,9.232-9.745,9.917-17.743l-10.565-.9c-.38,4.448-2.136,7.994-4.7,9.487-1.618.944-3.8,1.3-6.327,1.707a38.169,38.169,0,0,0-6.988,1.613,21.768,21.768,0,0,0-12.151,11.028,38.837,38.837,0,0,0-1.74,4.558c-.723,2.173-1.348,4.05-2.381,4.987-1.367,1.239-4.266,1.4-8.163.46-.757-.184-1.515-.385-2.277-.587-4.018-1.064-8.571-2.272-13.457-1.229-7.642,1.629-12.172,7.71-16.169,13.076-3.331,4.472-6.208,8.333-9.98,8.977a19.2,19.2,0,0,1-4.6-.082,25.229,25.229,0,0,0-8.26.218c-4.654,1.086-8.807,4.311-11.693,9.082a46.087,46.087,0,0,0-4.485,11.51Z" transform="translate(-292.563 -202.091)" fill="#50867f"/>
            <path id="Trazado_996112" data-name="Trazado 996112" d="M341.276,341.386a12.906,12.906,0,0,1,7.865-9.312,33.128,33.128,0,0,1,5.083-1.3c3.641-.742,7.767-1.582,11.363-4.355a26.538,26.538,0,0,0,5.685-6.633,15.887,15.887,0,0,1,3.587-4.3c2.137-1.437,5.474-1.213,9.333-.956,4.308.287,9.191.613,13.868-1.435,6.155-2.7,9.289-8.185,12.054-13.028a35.92,35.92,0,0,1,4.65-6.923,13.528,13.528,0,0,1,10.914-4.032l1.061-10.551a24.035,24.035,0,0,0-19.642,7.259,44.2,44.2,0,0,0-6.192,8.989c-2.232,3.909-4.16,7.284-7.1,8.572-2.3,1.008-5.51.794-8.906.568-5.068-.338-10.811-.721-15.956,2.737a24.385,24.385,0,0,0-6.47,7.185,18.207,18.207,0,0,1-3.361,4.152c-1.648,1.27-4.131,1.777-7.006,2.362a41.464,41.464,0,0,0-6.762,1.79A23.428,23.428,0,0,0,330.879,339.3Z" transform="translate(-304.196 -218.277)" fill="#50867f"/>
          </g>
        </g>
        <g id="Grupo_1177576" data-name="Grupo 1177576">
          <g id="Grupo_1177575" data-name="Grupo 1177575" clip-path="url(#clip-path)">
            <path id="Trazado_996114" data-name="Trazado 996114" d="M466.324,231.394a26.017,26.017,0,0,1-7.688-15.31,15.768,15.768,0,0,0,7.688,15.31" transform="translate(-161.335 -76.032)" fill="#352a2b"/>
            <path id="Trazado_996115" data-name="Trazado 996115" d="M478.791,220.351a18.9,18.9,0,0,0-16.969,5.6,17.577,17.577,0,0,1,16.324-3.033Z" transform="translate(-162.497 -77.433)" fill="#352a2b"/>
            <path id="Trazado_996116" data-name="Trazado 996116" d="M414.456,201.055c-17.176-11.6-41.3-12.281-59.091-1.642a68.266,68.266,0,0,1,59.091,1.642" transform="translate(-125.039 -67.512)" fill="#fff"/>
            <path id="Trazado_996117" data-name="Trazado 996117" d="M240.932,400.637l-11.6,9.076,17.9-5.546Z" transform="translate(-80.694 -140.968)" fill="#352a2b"/>
            <path id="Trazado_996118" data-name="Trazado 996118" d="M276.355,337.053l4.578,12.088c5.114-2.509,10.343-3.789,15.9-5.047,19.737-4.468,43.477-14.688,60.5-25.632,0,0,1.2-8.421,5.414-12.031s7.52-4.512,11.43-8.121,7.711-11.064,10.613-9.48-5.013,14.512-5.013,14.512,16.1-17.019,19.922-22.956,3.035,4.75-1.583,13.325S387.03,311.523,380.83,317.2s-15.436,8.971-15.436,8.971-76.062,55.346-87.472,56.351-30.694-24.8-30.694-24.8Z" transform="translate(-86.99 -98.053)" fill="#dfb38c"/>
            <path id="Trazado_996119" data-name="Trazado 996119" d="M309.582,378.452c-12.936,1.518-26.679,5.732-35.454,15.882,9.982-8.75,22.864-12.571,35.454-15.882" transform="translate(-96.455 -133.162)" fill="#352a2b"/>
            <path id="Trazado_996120" data-name="Trazado 996120" d="M474.677,282.067c.753,2.507-.491,4.972-1.756,7.08-1.335,2.147-2.664,4.313-4.057,6.426a95.343,95.343,0,0,1-9.071,12.168c.937-.857,1.832-1.764,2.7-2.7a88.011,88.011,0,0,0,10.859-15.649c1.189-2.171,2.365-4.882,1.326-7.328" transform="translate(-161.783 -99.248)" fill="#352a2b"/>
            <path id="Trazado_996121" data-name="Trazado 996121" d="M264.347,347.868c-5.62-16.96-12-33.753-20.961-49.275-6.477-11.39-16.517-23.569-30.781-23.546a19.125,19.125,0,0,0-12.516,4.258,19.276,19.276,0,0,1,12.5-3.619c13.888.444,23.371,12.385,29.678,23.559,9.032,15.369,15.511,32.086,22.077,48.623" transform="translate(-70.403 -96.779)" fill="#352a2b"/>
            <path id="Trazado_996122" data-name="Trazado 996122" d="M217.153,395.478a327.309,327.309,0,0,0-22.438-35.3,327.109,327.109,0,0,0,22.438,35.3" transform="translate(-68.513 -126.734)" fill="#352a2b"/>
            <path id="Trazado_996123" data-name="Trazado 996123" d="M223.655,389.981l1.193-.948.8,1.016-1.189.945Zm2.827-2.23q.8-.626,1.644-1.27l.789,1.028q-.834.642-1.636,1.265Zm3.293-2.528q.818-.62,1.659-1.25l.777,1.038q-.838.627-1.653,1.244Zm3.323-2.489q.827-.612,1.672-1.231l.766,1.045q-.841.617-1.666,1.228Zm3.348-2.454q.835-.606,1.683-1.215l.756,1.053q-.844.607-1.678,1.211Zm3.372-2.42q.843-.6,1.695-1.2l.746,1.061q-.849.6-1.69,1.194Zm3.4-2.39q.853-.592,1.707-1.18l.736,1.067q-.853.588-1.7,1.178Zm3.421-2.351q.859-.583,1.717-1.161l.723,1.076q-.855.575-1.712,1.158Zm3.444-2.314q.87-.577,1.734-1.143l.71,1.085q-.861.563-1.727,1.138Zm3.475-2.273q.879-.567,1.749-1.119l.695,1.095q-.866.548-1.742,1.114Zm3.509-2.225q.892-.556,1.768-1.091l.676,1.106q-.871.532-1.76,1.085Zm3.548-2.164q.909-.542,1.792-1.056l.652,1.12q-.878.51-1.779,1.048Zm3.6-2.09q.93-.522,1.824-1.007l.616,1.141q-.884.477-1.805,1Z" transform="translate(-78.695 -127.038)" fill="#352a2b"/>
            <path id="Trazado_996124" data-name="Trazado 996124" d="M220.572,383.215c11.215-8.97,29.812-22.115,42.189-28.808l-.616-1.141c-12.577,6.8-30.84,19.7-42.382,28.936Z" transform="translate(-77.326 -124.301)" fill="#352a2b"/>
            <path id="Trazado_996125" data-name="Trazado 996125" d="M232.22,301.331a1.621,1.621,0,0,1,0-3.241,1.621,1.621,0,0,1,0,3.241" transform="translate(-81.159 -104.886)" fill="#eec272"/>
            <path id="Trazado_996126" data-name="Trazado 996126" d="M224,330.118a1.621,1.621,0,0,1,0-3.241,1.621,1.621,0,0,1,0,3.241" transform="translate(-78.264 -115.015)" fill="#eec272"/>
            <path id="Trazado_996127" data-name="Trazado 996127" d="M195.208,316.41a1.621,1.621,0,0,1,0-3.241,1.621,1.621,0,0,1,0,3.241" transform="translate(-68.135 -110.192)" fill="#eec272"/>
            <path id="Trazado_996128" data-name="Trazado 996128" d="M185.613,343.141a1.621,1.621,0,0,1,0-3.241,1.621,1.621,0,0,1,0,3.241" transform="translate(-64.759 -119.598)" fill="#eec272"/>
            <path id="Trazado_996129" data-name="Trazado 996129" d="M258.265,345.882a1.621,1.621,0,0,1,0-3.241,1.621,1.621,0,0,1,0,3.241" transform="translate(-90.323 -120.562)" fill="#eec272"/>
            <path id="Trazado_996130" data-name="Trazado 996130" d="M228.793,367.13a1.621,1.621,0,0,1,0-3.241,1.621,1.621,0,0,1,0,3.241" transform="translate(-79.953 -128.038)" fill="#eec272"/>
            <path id="Trazado_996131" data-name="Trazado 996131" d="M189.04,394.546a1.621,1.621,0,0,1,0-3.241,1.621,1.621,0,0,1,0,3.241" transform="translate(-65.965 -137.685)" fill="#eec272"/>
            <path id="Trazado_996132" data-name="Trazado 996132" d="M215.085,425.389a1.621,1.621,0,0,1,0-3.241,1.621,1.621,0,0,1,0,3.241" transform="translate(-75.129 -148.537)" fill="#eec272"/>
            <path id="Trazado_996133" data-name="Trazado 996133" d="M194.523,458.288a1.621,1.621,0,0,1,0-3.241,1.621,1.621,0,0,1,0,3.241" transform="translate(-67.894 -160.113)" fill="#eec272"/>
            <path id="Trazado_996134" data-name="Trazado 996134" d="M238.389,440.468a1.621,1.621,0,0,1,0-3.241,1.621,1.621,0,0,1,0,3.241" transform="translate(-83.329 -153.843)" fill="#eec272"/>
            <path id="Trazado_996135" data-name="Trazado 996135" d="M229.479,467.2a1.621,1.621,0,0,1,0-3.241,1.621,1.621,0,0,1,0,3.241" transform="translate(-80.194 -163.248)" fill="#eec272"/>
            <path id="Trazado_996136" data-name="Trazado 996136" d="M269.232,457.6a1.621,1.621,0,0,1,0-3.241,1.621,1.621,0,0,1,0,3.241" transform="translate(-94.182 -159.872)" fill="#eec272"/>
            <path id="Trazado_996137" data-name="Trazado 996137" d="M299.389,466.513a1.621,1.621,0,0,1,0-3.241,1.621,1.621,0,0,1,0,3.241" transform="translate(-104.793 -163.007)" fill="#eec272"/>
            <path id="Trazado_996138" data-name="Trazado 996138" d="M295.962,348.624a1.621,1.621,0,0,1,0-3.241,1.621,1.621,0,0,1,0,3.241" transform="translate(-103.587 -121.527)" fill="#eec272"/>
            <path id="Trazado_996139" data-name="Trazado 996139" d="M280.2,322.579a1.621,1.621,0,0,1,0-3.241,1.621,1.621,0,0,1,0,3.241" transform="translate(-98.04 -112.363)" fill="#eec272"/>
            <path id="Trazado_996140" data-name="Trazado 996140" d="M206.175,268.432a1.621,1.621,0,0,1,0-3.241,1.621,1.621,0,0,1,0,3.241" transform="translate(-71.994 -93.31)" fill="#eec272"/>
          </g>
        </g>
      </g>
    </g>
  </g>
</svg>
