<svg xmlns="http://www.w3.org/2000/svg" width="84" height="84" viewBox="0 0 84 84">
  <g id="Grupo_1177438" data-name="Grupo 1177438" transform="translate(-185.711 -8417)">
    <rect id="Rectángulo_454773" data-name="Rectángulo 454773" width="84" height="84" transform="translate(185.711 8417)" fill="#9bbe50"/>
    <g id="Grupo_1177437" data-name="Grupo 1177437" transform="translate(188.292 8422.388)">
      <g id="Grupo_1177435" data-name="Grupo 1177435" transform="translate(17.574 71.994)">
        <path id="Trazado_995046" data-name="Trazado 995046" d="M113.782,469.138h2.3v2.3h-2.3Z" transform="translate(-113.782 -469.138)" fill="#4d240b"/>
        <path id="Trazado_995047" data-name="Trazado 995047" d="M143.782,469.138h2.3v2.3h-2.3Z" transform="translate(-139.178 -469.138)" fill="#4d240b"/>
      </g>
      <g id="Grupo_1177436" data-name="Grupo 1177436" transform="translate(0.133 0)">
        <path id="Trazado_995048" data-name="Trazado 995048" d="M265.012,99.394a3.616,3.616,0,0,0,.242-1.3V63.9c0-2.167-.857-5.14-2.547-8.838l-2.094.957c1.53,3.347,2.339,6.072,2.339,7.881V81.055h-2.31v-15h-2.3v15h-3.834l0-17.434-5.082-9.744,7.836-4.259c.774,1.337,1.6,2.828,2.37,4.363l2.056-1.035a100.834,100.834,0,0,0-5.832-9.963,6.55,6.55,0,0,0-7.172-3.19l-2.65-4.846,6.135-3.335-1.1-2.023-5.66,3.076-4.715-5.4-7.041,3.853,1.991,6.854-5.656,3.074,1.1,2.023,6.141-3.338c1.519,2.855,2.655,5.648,6.5,5.293a6.557,6.557,0,0,0-.08,1.561l-4,3.737L225.312,56.37c-.586,3.8,4.163,6.156,7.343,4.671,2.544-1.158,10.384-4.379,10.463-4.411l.2-.082,3.275-3.126,5.613,10.763,0,31.009-4.383,3.069v1.13H232.8v2.3h36.485v-2.3h-4.274ZM251.353,42.1a4.255,4.255,0,0,1,2.569,2.128c.017.025.929,1.375,2.166,3.408l-7.724,4.2-.036-.068,2.711-2.587a3.467,3.467,0,0,0-4.428-5.321,4.235,4.235,0,0,1,4.742-1.758ZM240.179,30.174l3.16,3.618-.4.219-5.221,2.838-1.335-4.6Zm2.176,12.477a2.691,2.691,0,0,1-1.616-1.3l-1.486-2.717,4.761-2.588,2.548,4.661a6.482,6.482,0,0,0-1.5,1.37,3.217,3.217,0,0,1-2.7.575ZM231.7,58.946a3.362,3.362,0,0,1-3.924-1.118l3.715-1.566,1.362,2.173c-.444.193-.837.367-1.153.511Zm10.341-4.363c-.866.356-4.231,1.743-7.046,2.935l-1.355-2.162,7.278-3.068,6.956-6.495a1.166,1.166,0,0,1,1.582,1.713Zm8.176,44.81,4.285-3,0-13.035h3.835V98.1a1.3,1.3,0,0,1-1.151,1.3Zm10.181,0a3.616,3.616,0,0,0,.242-1.3V83.357h2.31V98.1a1.3,1.3,0,0,1-1.151,1.3Z" transform="translate(-190.714 -23.083)" fill="#4d240b"/>
        <path id="Trazado_995049" data-name="Trazado 995049" d="M32.761,71.8a14.351,14.351,0,0,0-10.438-5.314V63.208c5.455-2.243,3.649-8.361,14.036-4.134.167-3.076-.347-6-2.857-7.466,2.378-1.966,6.711-6.27,4.818-8.86-2.5-3.337-10.631,2.7-10.713,2.762C24.613,47.756,24.3,50.1,25.012,51.7a16.635,16.635,0,0,0-2.69,1.87V44.263a6.6,6.6,0,0,0,1.756-1.555c2.263-2.684,4.069-3.087,8.75-1.168V39.889c-.243-6.3-6.543-7.983-10.506-4.531v-2.4l3.556-3.591c2.173,1.012,4.244.056,6.2-1.865,2.254-2.317,6.656-7.664,4.248-10.216-2.95-2.949-10.143,4.176-10.216,4.248-1.923,1.931-2.88,4.088-1.861,6.208l-1.927,1.945V18.7c5.455-2.242,3.649-8.362,14.036-4.135V12.917c.08-8.116-9.372-8.5-14.036-3.844-.009-.742-.221-4.926,5.947-5.03v-2.3a8.7,8.7,0,0,0-5.947,1.882V0h-2.3V9.148a8.7,8.7,0,0,0-5.947-1.882v2.3c6.346.21,5.938,4.111,5.947,5.75-4-3.515-10.307-1.915-10.589,4.467,0,0,0,1.652,0,1.652,4.688-1.923,6.491-1.511,8.75,1.168a6.3,6.3,0,0,0,1.839,1.6v3.923c-1.736-1.453-4.374-3.184-7.043-3.124-5.271-.008-7.5,3.6-7.062,8.6,10.337-4.21,8.829,1.8,14.105,4.123V48.31l-1.963-1.965c1.015-2.122.06-4.272-1.862-6.2-.072-.072-7.266-7.2-10.216-4.247-2.409,2.553,1.994,7.9,4.247,10.216,1.954,1.922,4.031,2.88,6.2,1.863l3.59,3.6v2.079c-4.695-4.7-14.145-4.438-14.118,3.775v1.652c10.472-4.266,8.578,2.01,14.118,4.156v3.265c-5.838.286-10.986,4.883-13.288,9.816H.133v2.3H39.918v-2.3H35.4A16.882,16.882,0,0,0,32.761,71.8ZM34.5,18.877c.721-.232-.291,2.215-1.1,3.361L29.229,21.8C30.5,20.681,33.309,18.83,34.5,18.877ZM26.144,25.87a3.7,3.7,0,0,1,.937-1.982l4.723.5c-1.144,1.4-2.806,3.048-4.065,3.08a1.44,1.44,0,0,1-1.595-1.6ZM7.605,37.523c1.2-.254,3.883,1.588,5.182,2.65L8.753,40.6c-.094-.151-.184-.3-.269-.448-1.005-1.753-.946-2.521-.88-2.626Zm6.961,8.552c-1.344-.033-3.126-1.9-4.268-3.326l4.721-.5c1.142,1.344,1.528,2.526.726,3.407a1.472,1.472,0,0,1-1.18.415Zm21.487-2.022a.8.8,0,0,1,.424.074c.055.118,0,.887-1.238,2.48-.162.208-.337.419-.522.632l-4.06-1.022c1.482-.939,4.025-2.178,5.4-2.165Zm-7.816,3.929,4.6,1.158c-1.538,1.435-4.337,3.523-5.568,1.9C26.664,50.226,27.029,49.118,28.237,47.982Zm-1.6,5.475a4.86,4.86,0,0,0,4.674-.325,3.57,3.57,0,0,1,2.555,2.654c-7.29-1.805-8.366,2.189-11.546,4.915V56.734A15.858,15.858,0,0,1,26.64,53.457Zm.275-17.609a3.748,3.748,0,0,1,3.323,2.42c-4.477-.941-6.552,1.432-7.916,2.95V38.427C23.219,37.487,25.186,35.81,26.916,35.848ZM29.1,8.327c3.235-.048,4.488,1.575,4.794,2.961-7.309-1.819-8.384,2.179-11.569,4.91V12.227C23.566,10.9,26.514,8.327,29.1,8.327ZM19.9,21.071c-1.326-1.482-3.442-3.849-7.876-2.905,2.038-4.24,5.956-2.032,8,.246v2.8ZM18.536,33.652c-1.8-2.1-4.218-4.915-10.132-3.339.5-2.019,2.156-3.035,4.707-3.011,2.593,0,5.626,2.616,6.909,3.961v3.909a10.082,10.082,0,0,1-1.484-1.52Zm-.235,25.4c-1.745-2.066-4.08-4.832-9.932-3.264.306-1.386,1.559-3.009,4.794-2.961,2.643,0,5.668,2.693,6.858,3.988v3.936A8.007,8.007,0,0,1,18.3,59.055ZM11.549,73.242a12.7,12.7,0,0,1,21.342,3.069H9.339A18.1,18.1,0,0,1,11.549,73.242Z" transform="translate(-0.133 0)" fill="#4d240b"/>
      </g>
    </g>
  </g>
</svg>
