<svg xmlns="http://www.w3.org/2000/svg" width="83" height="83" viewBox="0 0 83 83">
  <g id="Grupo_1177434" data-name="Grupo 1177434" transform="translate(-206.711 -6525)">
    <rect id="Rectángulo_454767" data-name="Rectángulo 454767" width="83" height="83" transform="translate(206.711 6525)" fill="#9bbe50"/>
    <g id="layer1" transform="translate(215.178 6253.404)">
      <path id="path13677" d="M12.595,280.6a1.068,1.068,0,0,0-1.091,1.132A14.269,14.269,0,0,0,25.77,295.963h4.392v5.494a1.1,1.1,0,1,0,2.2,0v-6.587a12.027,12.027,0,0,1,12.077-12.077h8.728a12.016,12.016,0,0,1-12.021,10.979h-5.49a1.1,1.1,0,0,0-1.1,1.1v6.587a1.1,1.1,0,1,0,2.2,0v-5.49h4.392a14.265,14.265,0,0,0,14.271-14.224,1.066,1.066,0,0,0-1.1-1.147H44.434a14.258,14.258,0,0,0-14.219,13.179H25.77a12.023,12.023,0,0,1-12.021-10.981h7.63a12,12,0,0,1,7.535,2.633,1.1,1.1,0,1,0,1.37-1.718,14.221,14.221,0,0,0-8.905-3.114Zm6.208,4.375a1.117,1.117,0,0,0-.116,0,1.1,1.1,0,0,0-.851,1.685,10.656,10.656,0,0,0,4.109,4,1.1,1.1,0,1,0,1-1.951,8.5,8.5,0,0,1-3.234-3.2,1.1,1.1,0,0,0-.9-.538Zm29.279,0a1.1,1.1,0,0,0-.875.536,8.519,8.519,0,0,1-3.242,3.2,1.1,1.1,0,1,0,1.006,1.951,10.631,10.631,0,0,0,4.1-4,1.1,1.1,0,0,0-.989-1.686ZM13.71,304.748a11.846,11.846,0,0,0-5.876,1.784c-1.534.837-2.723,1.516-4,1.516h-2.2a1.1,1.1,0,0,0,0,2.2h2.2c2.013,0,3.563-.974,5.048-1.784a9.622,9.622,0,0,1,4.831-1.516,7.618,7.618,0,0,1,4.377,1.492,10.052,10.052,0,0,0,5.5,1.808,10.374,10.374,0,0,0,5.059-1.784,9.591,9.591,0,0,1,4.823-1.516,7.618,7.618,0,0,1,4.377,1.492,10.052,10.052,0,0,0,5.5,1.808,10.365,10.365,0,0,0,5.056-1.784,9.622,9.622,0,0,1,4.831-1.516,7.618,7.618,0,0,1,4.377,1.492,10.05,10.05,0,0,0,5.5,1.808H64.21v34.031H2.729V313.534a1.1,1.1,0,1,0-2.2,0v31.835a1.1,1.1,0,0,0,1.1,1.1H65.312a1.1,1.1,0,0,0,1.1-1.1V309.142a1.1,1.1,0,0,0-1.1-1.094h-2.2a7.619,7.619,0,0,1-4.377-1.492,10.052,10.052,0,0,0-5.5-1.808,11.88,11.88,0,0,0-5.884,1.784c-1.534.837-2.723,1.516-4,1.516a7.619,7.619,0,0,1-4.377-1.492,10.052,10.052,0,0,0-5.5-1.808,11.854,11.854,0,0,0-5.878,1.784c-1.534.837-2.723,1.516-4,1.516a7.619,7.619,0,0,1-4.377-1.492,10.052,10.052,0,0,0-5.5-1.808Zm-7.7,7.683a1.1,1.1,0,1,0,0,2.2h6.579a1.1,1.1,0,0,0,0-2.2Zm26.348,0a1.1,1.1,0,1,0,0,2.2h2.2a1.1,1.1,0,0,0,0-2.2Zm13,0a1.1,1.1,0,0,0-.761.324l-3.105,3.105a1.1,1.1,0,0,0,0,1.557l3.883,3.881-3.105,3.1-3.881-3.883a1.1,1.1,0,0,0-1.557,0l-3.105,3.1a1.1,1.1,0,0,0,1.557,1.555l2.327-2.333,3.881,3.881a1.1,1.1,0,0,0,1.557,0l4.66-4.651a1.1,1.1,0,0,0,0-1.557l-3.881-3.881,1.548-1.548,13.973,13.973-9.313,9.313L38.1,326.453A1.1,1.1,0,1,0,36.558,328l12.7,12.707a1.1,1.1,0,0,0,1.557,0l10.868-10.868a1.1,1.1,0,0,0,0-1.557L46.154,312.755a1.1,1.1,0,0,0-.8-.324Zm8.957,0a1.1,1.1,0,1,0,0,2.2H60.9a1.1,1.1,0,0,0,0-2.2ZM26.28,317.6l2.327,2.325-1.761,1.76a1.1,1.1,0,0,0-.362,1.3,4.354,4.354,0,0,1-.982,4.7l-9.311,9.321a1.077,1.077,0,0,1-1.557,0l-.778-.778a1.077,1.077,0,0,1,0-1.557,1.1,1.1,0,1,0-1.548-1.548,1.075,1.075,0,0,1-1.555,0l-.778-.778a1.067,1.067,0,0,1,0-1.548l9.319-9.319A4.366,4.366,0,0,1,24,320.5a1.1,1.1,0,1,0,.8-2.044,6.58,6.58,0,0,0-7.068,1.467l-9.311,9.321a3.313,3.313,0,0,0,0,4.66l.778.77a3.262,3.262,0,0,0,2.162.943,3.26,3.26,0,0,0,.941,2.168l.778.77a3.3,3.3,0,0,0,4.651,0l9.322-9.311a6.572,6.572,0,0,0,1.692-6.351l2.189-2.192a1.1,1.1,0,0,0,0-1.548l-3.111-3.1A1.1,1.1,0,1,0,26.28,317.6ZM6.012,339.881a1.1,1.1,0,0,0,0,2.2H9.3a1.1,1.1,0,0,0,0-2.2Zm17.562,0a1.1,1.1,0,0,0,0,2.2h2.2a1.1,1.1,0,0,0,0-2.2Zm6.587,0a1.1,1.1,0,0,0,0,2.2H41.145a1.1,1.1,0,0,0,0-2.2Zm25.256,0a1.1,1.1,0,0,0,0,2.2H60.9a1.1,1.1,0,0,0,0-2.2Z" transform="translate(0 0)" fill="#02614b"/>
    </g>
  </g>
</svg>
