<svg xmlns="http://www.w3.org/2000/svg" xmlns:xlink="http://www.w3.org/1999/xlink" width="96" height="96" viewBox="0 0 96 96">
  <defs>
    <clipPath id="clip-path">
      <rect id="Rectángulo_454588" data-name="Rectángulo 454588" width="88" height="88" transform="translate(745.746 9172)" fill="#fff" stroke="#707070" stroke-width="1"/>
    </clipPath>
  </defs>
  <g id="Grupo_1177374" data-name="Grupo 1177374" transform="translate(-741.746 -9168)">
    <path id="Elipse_5729" data-name="Elipse 5729" d="M48,0A48,48,0,1,1,0,48,48,48,0,0,1,48,0Z" transform="translate(741.746 9168)" fill="#02614b"/>
    <g id="Enmascarar_grupo_1119166" data-name="Enmascarar grupo 1119166" clip-path="url(#clip-path)">
      <g id="gestion-del-agua" transform="translate(745.746 9171.998)">
        <g id="Grupo_1177400" data-name="Grupo 1177400">
          <path id="Trazado_994929" data-name="Trazado 994929" d="M38.52,1.375C150.447,115.042-73.4,115.042,38.52,1.375Z" fill="#8bd7fa" fill-rule="evenodd"/>
          <path id="Trazado_994930" data-name="Trazado 994930" d="M43.944,74.774a20.993,20.993,0,0,0,5.282-2.19,1.263,1.263,0,0,1,1.248-.038l3.078,1.569a1.287,1.287,0,0,0,1.513-.241l3.121-3.121a1.283,1.283,0,0,0,.241-1.513l-1.569-3.078a1.276,1.276,0,0,1,.038-1.248,21.055,21.055,0,0,0,2.19-5.287,1.28,1.28,0,0,1,.861-.908l3.281-1.064a1.292,1.292,0,0,0,.9-1.239V52a1.281,1.281,0,0,0-.9-1.239l-3.281-1.069a1.277,1.277,0,0,1-.861-.908A20.993,20.993,0,0,0,56.9,43.5a1.276,1.276,0,0,1-.038-1.248l1.569-3.078a1.287,1.287,0,0,0-.241-1.513l-3.121-3.121a1.283,1.283,0,0,0-1.513-.241l-3.078,1.566a1.263,1.263,0,0,1-1.248-.033,21.306,21.306,0,0,0-5.282-2.195,1.249,1.249,0,0,1-.908-.856L41.968,29.5a1.287,1.287,0,0,0-1.239-.9H36.311a1.29,1.29,0,0,0-1.239.9l-1.064,3.281a1.267,1.267,0,0,1-.908.856,21.261,21.261,0,0,0-5.287,2.195,1.262,1.262,0,0,1-1.248.033L23.487,34.3a1.287,1.287,0,0,0-1.513.241l-3.121,3.121a1.283,1.283,0,0,0-.241,1.513l1.569,3.078a1.263,1.263,0,0,1-.038,1.248,21.02,21.02,0,0,0-2.19,5.282,1.264,1.264,0,0,1-.856.908l-3.286,1.069a1.283,1.283,0,0,0-.9,1.239v4.417a1.29,1.29,0,0,0,.9,1.239L17.1,58.721a1.286,1.286,0,0,1,.856.908,21.055,21.055,0,0,0,2.19,5.287,1.263,1.263,0,0,1,.038,1.248l-1.569,3.078a1.287,1.287,0,0,0,.241,1.513l3.121,3.121a1.283,1.283,0,0,0,1.513.241l3.078-1.569a1.263,1.263,0,0,1,1.248.038,21.055,21.055,0,0,0,5.287,2.19,1.264,1.264,0,0,1,.908.856l1.064,3.281a1.29,1.29,0,0,0,1.239.9h4.417a1.283,1.283,0,0,0,1.239-.9l1.069-3.281A1.249,1.249,0,0,1,43.944,74.774Z" fill="#2f5274" fill-rule="evenodd"/>
          <path id="Trazado_994931" data-name="Trazado 994931" d="M38.52,69.057A14.851,14.851,0,1,0,23.671,54.209,14.881,14.881,0,0,0,38.52,69.057Z" fill="#daeafa" fill-rule="evenodd"/>
          <path id="Trazado_994932" data-name="Trazado 994932" d="M69.863,67.019A11.927,11.927,0,1,0,57.937,55.092,11.949,11.949,0,0,0,69.863,67.019Z" fill="#70da40" fill-rule="evenodd"/>
          <path id="Trazado_994933" data-name="Trazado 994933" d="M41.67,86.506C25.185,85.243,9.806,74.031,12.913,52.878V52a1.319,1.319,0,0,1,.284-.823c2.327-12.3,10.758-27.82,28.473-46.538q-1.526-1.617-3.149-3.262C-19.543,60.346,12.76,88.72,41.67,86.506Z" fill="#7dc2e1" fill-rule="evenodd"/>
          <path id="Trazado_994934" data-name="Trazado 994934" d="M26.04,54.207A14.855,14.855,0,0,1,39.706,39.4c-.392-.033-.789-.048-1.188-.048a14.851,14.851,0,0,0,0,29.7c.4,0,.794-.014,1.188-.048A14.84,14.84,0,0,1,26.04,54.207Z" fill="#c4d3e1" fill-rule="evenodd"/>
          <path id="Trazado_994935" data-name="Trazado 994935" d="M61.134,55.092A11.916,11.916,0,0,1,71.462,43.274a11.926,11.926,0,1,0-1.944,23.74c.113.005.232.005.345.005a11.964,11.964,0,0,0,1.6-.108,11.3,11.3,0,0,1-1.793-.383,11.921,11.921,0,0,1-8.535-11.435Z" fill="#65c43a" fill-rule="evenodd"/>
        </g>
        <path id="Trazado_994936" data-name="Trazado 994936" d="M38.521,37.978A16.23,16.23,0,1,0,54.748,54.205,16.248,16.248,0,0,0,38.521,37.978Zm0,29.706A13.476,13.476,0,1,1,51.995,54.205,13.494,13.494,0,0,1,38.521,67.684Zm-8.915-12.52a1.384,1.384,0,0,1-.856-.615l-2-3.24a1.376,1.376,0,0,1,2.341-1.447l.253.407a9.992,9.992,0,0,1,18.312-.107,1.377,1.377,0,1,1-2.516,1.117A7.245,7.245,0,0,0,32.1,50.859l.335-.208a1.376,1.376,0,1,1,1.449,2.339l-3.235,2a1.379,1.379,0,0,1-.724.206,1.325,1.325,0,0,1-.318-.034Zm18.685-1.3,2,3.24a1.376,1.376,0,1,1-2.341,1.447l-.251-.406a9.992,9.992,0,0,1-18.312.1,1.376,1.376,0,1,1,2.516-1.114,7.242,7.242,0,0,0,13.034.421l-.335.208a1.376,1.376,0,1,1-1.447-2.341l3.24-2a1.373,1.373,0,0,1,1.894.445Zm34.876,1.225a13.316,13.316,0,0,0-13.3-13.3c-.333,0-.663.017-.992.041C64.071,29.269,54.2,15.34,39.5.413a1.378,1.378,0,0,0-1.963,0C22.9,15.28,13.034,29.173,8.218,41.706A46.905,46.905,0,0,0,4.838,57.645,29.456,29.456,0,0,0,7.351,70.407,28.506,28.506,0,0,0,21.263,84.2,40.2,40.2,0,0,0,38.557,88q1.24,0,2.482-.072a37.854,37.854,0,0,0,18.2-5.658A27.519,27.519,0,0,0,70.511,68.38,13.321,13.321,0,0,0,83.167,55.092ZM40.878,85.181C26.8,86.015,14.625,79.767,9.859,69.269,5.624,59.943,3.786,39.035,38.521,3.343c13.7,14.084,22.972,27.188,27.593,38.991a13.335,13.335,0,0,0-6.329,4.091,22.486,22.486,0,0,0-1.679-3.587L59.654,39.8a2.683,2.683,0,0,0-.49-3.118l-3.123-3.123a2.682,2.682,0,0,0-3.114-.492l-3.039,1.55a22.579,22.579,0,0,0-5.559-2.3l-1.054-3.24a2.667,2.667,0,0,0-2.547-1.856H36.314a2.683,2.683,0,0,0-2.551,1.853l-1.055,3.247a22.555,22.555,0,0,0-5.553,2.3l-3.049-1.554a2.677,2.677,0,0,0-3.1.5l-3.123,3.123a2.682,2.682,0,0,0-.5,3.113l1.55,3.044a22.619,22.619,0,0,0-2.3,5.553l-3.24,1.054A2.666,2.666,0,0,0,11.538,52v4.419a2.667,2.667,0,0,0,1.848,2.547l3.247,1.055a22.555,22.555,0,0,0,2.3,5.553l-1.554,3.049a2.681,2.681,0,0,0,.5,3.109L21,74.853a2.677,2.677,0,0,0,3.109.492l3.044-1.55a22.539,22.539,0,0,0,5.553,2.3l1.057,3.252A2.682,2.682,0,0,0,36.316,81.2H40.73a2.667,2.667,0,0,0,2.547-1.853L44.331,76.1a22.463,22.463,0,0,0,5.559-2.3l3.044,1.554a2.68,2.68,0,0,0,3.109-.5l3.128-3.128a2.677,2.677,0,0,0,.486-3.108l-1.549-3.041a22.624,22.624,0,0,0,1.2-2.4A13.321,13.321,0,0,0,67.639,68.2C63.06,79.788,50.977,84.583,40.878,85.181Zm14.756-18.4,1.545,3.034-3.047,3.047L51.1,71.321a2.637,2.637,0,0,0-2.568.07,19.754,19.754,0,0,1-4.943,2.051,2.636,2.636,0,0,0-1.868,1.763l-1.05,3.235H36.366l-1.052-3.235a2.632,2.632,0,0,0-1.865-1.762A19.759,19.759,0,0,1,28.5,71.391a2.623,2.623,0,0,0-2.563-.07l-3.03,1.543-3.049-3.049,1.54-3.022a2.628,2.628,0,0,0-.067-2.575,19.777,19.777,0,0,1-2.052-4.948,2.637,2.637,0,0,0-1.762-1.86l-3.23-1.048V52.052L17.521,51a2.643,2.643,0,0,0,1.762-1.861,19.834,19.834,0,0,1,2.052-4.948,2.624,2.624,0,0,0,.07-2.563L19.862,38.6l3.049-3.049,3.022,1.54a2.625,2.625,0,0,0,2.573-.067,19.753,19.753,0,0,1,4.943-2.051,2.637,2.637,0,0,0,1.865-1.763l1.05-3.235h4.309l1.052,3.235A2.639,2.639,0,0,0,43.6,34.97a19.784,19.784,0,0,1,4.938,2.047,2.622,2.622,0,0,0,2.57.074l3.028-1.545,3.047,3.047-1.547,3.037a2.625,2.625,0,0,0,.079,2.564,19.617,19.617,0,0,1,2.044,4.938c.024.091.053.18.086.27a13.268,13.268,0,0,0-.311,10.665,19.9,19.9,0,0,1-1.815,4.144,2.633,2.633,0,0,0-.081,2.573Zm14.23-1.143a10.548,10.548,0,1,1,10.55-10.55A10.562,10.562,0,0,1,69.863,65.642Zm7.03-15.333a1.376,1.376,0,0,1,0,1.946l-7.63,7.625a1.378,1.378,0,0,1-1.946,0L62.835,55.4a1.376,1.376,0,0,1,1.944-1.949l3.51,3.506,6.657-6.653a1.38,1.38,0,0,1,1.947,0Z"/>
      </g>
    </g>
  </g>
</svg>
