<svg xmlns="http://www.w3.org/2000/svg" xmlns:xlink="http://www.w3.org/1999/xlink" width="96" height="96" viewBox="0 0 96 96">
  <defs>
    <clipPath id="clip-path">
      <rect id="Rectángulo_454588" data-name="Rectángulo 454588" width="88" height="88" transform="translate(745.746 9172)" fill="#fff" stroke="#707070" stroke-width="1"/>
    </clipPath>
  </defs>
  <g id="Grupo_1177389" data-name="Grupo 1177389" transform="translate(-741.746 -9168)">
    <path id="Elipse_5729" data-name="Elipse 5729" d="M48,0A48,48,0,1,1,0,48,48,48,0,0,1,48,0Z" transform="translate(741.746 9168)" fill="#02614b"/>
    <g id="Enmascarar_grupo_1119160" data-name="Enmascarar grupo 1119160" clip-path="url(#clip-path)">
      <g id="tierras-de-cultivo" transform="translate(745.746 9172)">
        <g id="Grupo_1177390" data-name="Grupo 1177390">
          <path id="Trazado_994869" data-name="Trazado 994869" d="M29.554,79.15C31.5,66.716,45.671,57.069,62.865,57.069a42.794,42.794,0,0,1,22.762,6.646,2.177,2.177,0,0,1,1.087,2.115V77.815a1.2,1.2,0,0,1-1.335,1.335Z" fill="#78c2a4" fill-rule="evenodd"/>
          <path id="Trazado_994870" data-name="Trazado 994870" d="M57.3,79.15H85.379a1.2,1.2,0,0,0,1.335-1.335v-2.84H57.3Z" fill="#66b394" fill-rule="evenodd"/>
          <path id="Trazado_994871" data-name="Trazado 994871" d="M58.446,79.15C56.5,66.716,42.329,57.069,25.14,57.069c-8.789,0-16.814,2.485-22.762,6.646-1.009.7-1.067.882-1.086,2.115V77.815c0,1,.507,1.335,1.335,1.335Z" fill="#b3e59f" fill-rule="evenodd"/>
          <path id="Trazado_994872" data-name="Trazado 994872" d="M58.446,79.15c-1.018-6.519-5.4-12.268-11.81-16.263a22.814,22.814,0,0,1,6.085,10.148c.434,1.579-.244,1.939-1.735,1.939H1.291v2.84c0,1,.507,1.335,1.335,1.335Z" fill="#95d6a4" fill-rule="evenodd"/>
          <path id="Trazado_994873" data-name="Trazado 994873" d="M10.982,8.855H35.405a3.346,3.346,0,0,1,3.337,3.337V33.834a3.346,3.346,0,0,1-3.337,3.337h-5.1a2.327,2.327,0,0,0-2.085,1.106l-4.278,6.29a.823.823,0,0,1-1.5,0L18.183,38.3a2.432,2.432,0,0,0-2.1-1.13h-5.1a3.345,3.345,0,0,1-3.337-3.337V12.192a3.346,3.346,0,0,1,3.337-3.337Z" fill="#faf8f9" fill-rule="evenodd"/>
          <path id="Trazado_994874" data-name="Trazado 994874" d="M34.572,8.855h.833a3.346,3.346,0,0,1,3.337,3.337V33.834a3.346,3.346,0,0,1-3.337,3.337h-5.1a2.327,2.327,0,0,0-2.085,1.106l-4.278,6.29a.823.823,0,0,1-1.5,0L18.183,38.3a2.432,2.432,0,0,0-2.1-1.13h-5.1a3.345,3.345,0,0,1-3.337-3.337V33H30.4a4.182,4.182,0,0,0,4.171-4.171Z" fill="#ede9fb" fill-rule="evenodd"/>
          <path id="Trazado_994875" data-name="Trazado 994875" d="M52.594,8.855H77.018a3.345,3.345,0,0,1,3.337,3.337V33.834a3.346,3.346,0,0,1-3.337,3.337H70.587l-5.778,8.5-5.778-8.5H52.595a3.346,3.346,0,0,1-3.338-3.337V12.192a3.345,3.345,0,0,1,3.337-3.337Z" fill="#faf8f9" fill-rule="evenodd"/>
          <path id="Trazado_994876" data-name="Trazado 994876" d="M76.185,8.855h.833a3.345,3.345,0,0,1,3.337,3.337V33.834a3.346,3.346,0,0,1-3.337,3.337h-5.1a2.327,2.327,0,0,0-2.085,1.106l-4.277,6.29a.823.823,0,0,1-1.5,0L59.8,38.3a2.44,2.44,0,0,0-2.1-1.13h-5.1a3.346,3.346,0,0,1-3.338-3.337V33H72.014a4.181,4.181,0,0,0,4.171-4.171V8.855Z" fill="#ede9fb" fill-rule="evenodd"/>
          <path id="Trazado_994877" data-name="Trazado 994877" d="M68.628,19.754c-1.53-1.53-3.191-2.353-4.823-.721-4.351,4.351-8.59,11.074-7.06,12.6S65,28.928,69.354,24.577c1.632-1.632.809-3.294-.726-4.823Z" fill="#f5bc98" fill-rule="evenodd"/>
          <path id="Trazado_994878" data-name="Trazado 994878" d="M68.628,19.754c-1.53-1.53-3.191-2.353-4.823-.721l-.068.068a8.124,8.124,0,0,1,.721.653c1.534,1.53,2.353,3.191.726,4.823a36.417,36.417,0,0,1-8.726,6.47,1.087,1.087,0,0,0,.287.59c1.535,1.535,8.258-2.709,12.609-7.06,1.632-1.632.809-3.294-.726-4.823Z" fill="#e59b6c" fill-rule="evenodd"/>
          <path id="Trazado_994879" data-name="Trazado 994879" d="M23.011,19.286c4,0,7.245,1.1,7.245,5.1a7.242,7.242,0,0,1-14.485,0c0-4,3.24-5.1,7.24-5.1Z" fill="#ff6e6e" fill-rule="evenodd"/>
          <path id="Trazado_994880" data-name="Trazado 994880" d="M26.056,19.569c2.48.531,4.2,1.905,4.2,4.818a7.244,7.244,0,0,1-14.007,2.592,7.25,7.25,0,0,0,9.837-6.763c0-.229-.01-.443-.029-.648Z" fill="#ff555e" fill-rule="evenodd"/>
          <path id="Trazado_994881" data-name="Trazado 994881" d="M22.436,20.665a5.486,5.486,0,0,1-7.932.02c-.877-.975-.887-1.272-.015-2.251a5.5,5.5,0,0,1,7.937,0c.867.97.872,1.267.01,2.236Z" fill="#b3e59f" fill-rule="evenodd"/>
        </g>
        <path id="Trazado_994882" data-name="Trazado 994882" d="M24.3,18.044a10.084,10.084,0,0,1,4.492,1.189,5.531,5.531,0,0,1,2.753,5.155,8.533,8.533,0,0,1-17.067,0,7.335,7.335,0,0,1,.229-1.842,5.807,5.807,0,0,1-2.119-2.475,1.274,1.274,0,0,1,0-1.043,5.854,5.854,0,0,1,2.368-2.621,6.909,6.909,0,0,1,6.767-.136V14.01a1.289,1.289,0,1,1,2.577,0v4.034ZM62.056,24.67A1.29,1.29,0,1,1,60.234,26.5l-.443-.448c-.3.468-.575.926-.823,1.364-.975,1.744-1.554,3.069-1.311,3.313.278.278,1.768-.4,3.688-1.525a35.439,35.439,0,0,0,4.707-3.357L65.51,25.3a1.29,1.29,0,1,1,1.822-1.827l.643.648c.161-.151.312-.307.468-.458a1.313,1.313,0,0,0,.482-1.242,4.268,4.268,0,0,0-1.208-1.759,4.178,4.178,0,0,0-1.759-1.2,1.294,1.294,0,0,0-1.242.482A37.931,37.931,0,0,0,61.291,23.9Zm.838-6.548a3.69,3.69,0,0,1,3.659-1.169,5.245,5.245,0,0,1,1.905.945,6.83,6.83,0,0,0,1.35-4.5,1.284,1.284,0,0,1,2.548-.322,8.038,8.038,0,0,1-.546,3.908,7.191,7.191,0,0,1,2.047-.126,1.288,1.288,0,0,1-.141,2.572,4.775,4.775,0,0,0-1.52.1,7.583,7.583,0,0,0-1.569.585,5.048,5.048,0,0,1,.8,1.715,3.689,3.689,0,0,1-1.164,3.654,37.612,37.612,0,0,1-7.625,5.939c-2.914,1.705-5.549,2.377-6.806,1.121-1.2-1.2-.648-3.644.887-6.392a37.92,37.92,0,0,1,6.173-8.034Zm16.175,7.81a1.289,1.289,0,0,1,2.577,0v7.9a4.641,4.641,0,0,1-4.628,4.628H71.259L65.871,46.39a1.284,1.284,0,0,1-2.139-.024l-5.379-7.9H52.594a4.633,4.633,0,0,1-4.624-4.628V12.192a4.633,4.633,0,0,1,4.624-4.629H77.018a4.641,4.641,0,0,1,4.628,4.629v7.9a1.289,1.289,0,0,1-2.577,0v-7.9a2.062,2.062,0,0,0-2.051-2.051H52.594a2.062,2.062,0,0,0-1.447.6,2.04,2.04,0,0,0-.6,1.447V33.834a2.04,2.04,0,0,0,.6,1.447,2.063,2.063,0,0,0,1.447.6H59.03a1.286,1.286,0,0,1,1.062.565l4.716,6.938,4.648-6.835a1.286,1.286,0,0,1,1.131-.668h6.431a2.062,2.062,0,0,0,2.051-2.051Zm-41.612,0a1.289,1.289,0,0,1,2.577,0v7.9a4.641,4.641,0,0,1-4.629,4.628H29.647L24.258,46.39a1.288,1.288,0,0,1-2.144-.024l-5.374-7.9H10.982a4.641,4.641,0,0,1-4.629-4.628V12.192a4.641,4.641,0,0,1,4.629-4.629H35.405a4.641,4.641,0,0,1,4.629,4.629v7.9a1.289,1.289,0,0,1-2.577,0v-7.9a2.063,2.063,0,0,0-2.051-2.051H10.982a2.061,2.061,0,0,0-1.447.6,2.04,2.04,0,0,0-.6,1.447V33.834a2.04,2.04,0,0,0,.6,1.447,2.062,2.062,0,0,0,1.447.6h6.436a1.286,1.286,0,0,1,1.062.565L23.2,43.388l4.648-6.835a1.286,1.286,0,0,1,1.13-.668h6.431a2.063,2.063,0,0,0,2.051-2.051ZM34.1,56.66a1.289,1.289,0,1,1-.5,2.528,42.261,42.261,0,0,0-4.18-.624q-2.061-.2-4.278-.2a42.214,42.214,0,0,0-12.531,1.861A34.768,34.768,0,0,0,2.577,65.147V77.858h54.3a20.923,20.923,0,0,0-5.418-9.466A32,32,0,0,0,39.05,60.679a1.287,1.287,0,1,1,.857-2.426A38.788,38.788,0,0,1,44,59.963a41.042,41.042,0,0,1,8.77-3.06,45.462,45.462,0,0,1,10.1-1.121,46.094,46.094,0,0,1,8.487.784,42.2,42.2,0,0,1,7.966,2.324,1.287,1.287,0,0,1-.964,2.387A39.647,39.647,0,0,0,70.879,59.1a43.2,43.2,0,0,0-8.014-.735,42.753,42.753,0,0,0-9.53,1.052,38.8,38.8,0,0,0-6.5,2.086,31.732,31.732,0,0,1,6.48,5.111,23.257,23.257,0,0,1,6.2,11.25h25.91V65.142c-.254-.18-.492-.351-.726-.512-.4-.268-.838-.551-1.311-.838a1.287,1.287,0,0,1,1.34-2.2c.453.278.921.58,1.413.911s.95.663,1.35.965A1.281,1.281,0,0,1,88,64.494V79.15a1.285,1.285,0,0,1-1.286,1.286H1.291A1.289,1.289,0,0,1,0,79.15V64.494a1.286,1.286,0,0,1,.516-1.023,37.065,37.065,0,0,1,11.328-5.71,44.771,44.771,0,0,1,13.3-1.978c1.5,0,3.011.073,4.521.224q2.309.227,4.438.653ZM17.125,23.53a5.058,5.058,0,0,0-.068.857,5.956,5.956,0,0,0,11.912,0,3.137,3.137,0,0,0-1.486-2.943,7.7,7.7,0,0,0-3.42-.843,5.913,5.913,0,0,1-2.1,2.1,6.774,6.774,0,0,1-3.5.955,7.046,7.046,0,0,1-1.335-.127Zm3.518-3.035a3.442,3.442,0,0,0,1.038-.94,3.527,3.527,0,0,0-1.038-.945,4.4,4.4,0,0,0-4.365,0,3.527,3.527,0,0,0-1.038.945,3.447,3.447,0,0,0,1.038.94,4.367,4.367,0,0,0,4.365,0Z"/>
      </g>
    </g>
  </g>
</svg>
