<svg xmlns="http://www.w3.org/2000/svg" xmlns:xlink="http://www.w3.org/1999/xlink" width="96" height="96" viewBox="0 0 96 96">
  <defs>
    <clipPath id="clip-path">
      <rect id="Rectángulo_454588" data-name="Rectángulo 454588" width="88" height="88" transform="translate(745.746 9172)" fill="#fff" stroke="#707070" stroke-width="1"/>
    </clipPath>
  </defs>
  <g id="Grupo_1177366" data-name="Grupo 1177366" transform="translate(-741.746 -9168)">
    <path id="Elipse_5729" data-name="Elipse 5729" d="M48,0A48,48,0,1,1,0,48,48,48,0,0,1,48,0Z" transform="translate(741.746 9168)" fill="#02614b"/>
    <g id="Enmascarar_grupo_1119159" data-name="Enmascarar grupo 1119159" clip-path="url(#clip-path)">
      <g id="planta" transform="translate(745.746 9172)">
        <path id="Trazado_994862" data-name="Trazado 994862" d="M15.035,16.769A22.369,22.369,0,0,0,21.221,38.82a22.414,22.414,0,0,0,22.051,6.185,22.414,22.414,0,0,0-6.185-22.051A22.416,22.416,0,0,0,15.035,16.769Z" fill="#a5dc69"/>
        <path id="Trazado_994863" data-name="Trazado 994863" d="M81.591,19.8a23.561,23.561,0,0,0-23.227,6.515A23.608,23.608,0,0,0,51.85,49.543a23.608,23.608,0,0,0,23.226-6.515A23.61,23.61,0,0,0,81.591,19.8Z" fill="#46c373"/>
        <path id="Trazado_994864" data-name="Trazado 994864" d="M44.066,20.225l0,0c-.007-.04-.931-9.271,4.2-14.3S62.47,1.777,62.51,1.78h0l0,0h0l0,0c.007.077,1.141,9.5-3.979,14.524C53.389,21.352,44.066,20.225,44.066,20.225Z" fill="#d7fa91"/>
        <path id="Trazado_994865" data-name="Trazado 994865" d="M44,59.352a13.46,13.46,0,0,0-11.987,7.336A27.307,27.307,0,0,0,1.718,86.28H86.281A27.307,27.307,0,0,0,55.987,66.688,13.46,13.46,0,0,0,44,59.352Z" fill="#c88c64"/>
        <path id="Trazado_994866" data-name="Trazado 994866" d="M87.936,85.815A29.2,29.2,0,0,0,77.677,70.67,28.772,28.772,0,0,0,67.733,65.7a3.469,3.469,0,0,1,3.451-3.171,1.719,1.719,0,1,0,0-3.438A6.887,6.887,0,0,0,66,61.448a6.887,6.887,0,0,0-5.185-2.353,1.719,1.719,0,1,0,0,3.438,3.472,3.472,0,0,1,3.306,2.426,29.426,29.426,0,0,0-7.205-.121,15.108,15.108,0,0,0-10.867-7.066l.035-.031,6.279-6.279a24.467,24.467,0,0,0,5.531.615c.53,0,1.084-.016,1.658-.053a25.745,25.745,0,0,0,16.74-7.78,25.746,25.746,0,0,0,7.78-16.74,23.316,23.316,0,0,0-.851-8.25,1.719,1.719,0,0,0-1.2-1.117L82,18.13a23.78,23.78,0,0,0-6.2-.865h-.02a1.719,1.719,0,0,0-.019,3.438,20.964,20.964,0,0,1,4.427.508,21.7,21.7,0,0,1,.443,6.214,22.153,22.153,0,0,1-6.771,14.388A22.074,22.074,0,0,1,55.334,48.49l12.6-12.6a1.719,1.719,0,0,0-2.431-2.431l-12.6,12.6A22.165,22.165,0,0,1,59.58,27.532a24.988,24.988,0,0,1,4.284-3.453,1.719,1.719,0,0,0-1.839-2.9A28.449,28.449,0,0,0,57.149,25.1a25.744,25.744,0,0,0-7.78,16.74,24.923,24.923,0,0,0,.562,7.189l-4.213,4.212v-31.2c.2,0,.408.007.631.007,3.369,0,9.4-.609,13.384-4.522,5.358-5.258,4.639-14.438,4.493-15.849a1.719,1.719,0,0,0-1.6-1.618c-.819-.072-10.09-.744-15.564,4.626-4.93,4.838-4.877,12.817-4.74,15.162a1.719,1.719,0,0,0-.041.372v6.568A26.516,26.516,0,0,0,38.3,21.739a24.529,24.529,0,0,0-15.949-7.412,22.231,22.231,0,0,0-7.866.813,1.718,1.718,0,0,0-1.117,1.2l0,.015a24.156,24.156,0,0,0,6.64,23.677,24.527,24.527,0,0,0,15.949,7.411c.546.035,1.074.051,1.578.051a23.735,23.735,0,0,0,4.748-.471v10.7a15.107,15.107,0,0,0-11.2,7.106,29.426,29.426,0,0,0-7.205.121,3.472,3.472,0,0,1,3.306-2.426,1.719,1.719,0,0,0,0-3.438A6.887,6.887,0,0,0,22,61.448,6.887,6.887,0,0,0,16.815,59.1a1.719,1.719,0,0,0,0,3.438A3.469,3.469,0,0,1,20.266,65.7a28.773,28.773,0,0,0-9.943,4.966A29.2,29.2,0,0,0,.064,85.815,1.719,1.719,0,0,0,1.719,88H86.281a1.718,1.718,0,0,0,1.654-2.184ZM49.47,7.145c3.342-3.278,8.817-3.7,11.421-3.7.071,2.672-.214,8.35-3.565,11.638-2.515,2.469-6.3,3.252-9.145,3.462l5.177-5.177a1.719,1.719,0,0,0-2.431-2.431l-5.09,5.09C46.116,13.231,46.984,9.584,49.47,7.145ZM22.436,37.6a20.762,20.762,0,0,1-5.988-19.431,20.53,20.53,0,0,1,5.826-.406,20.949,20.949,0,0,1,13.6,6.4,20.948,20.948,0,0,1,6.4,13.6c0,.047.005.092.008.138v2.714c-.02.312-.046.609-.076.889L32.174,31.477a1.719,1.719,0,0,0-2.431,2.431L39.775,43.94A20.96,20.96,0,0,1,22.436,37.6ZM13.617,84.561a15.694,15.694,0,0,1,8.04-7.971,1.719,1.719,0,1,0-1.383-3.147A19.115,19.115,0,0,0,9.917,84.561H4.095A25.591,25.591,0,0,1,31.761,68.388a1.719,1.719,0,0,0,1.781-.917,11.743,11.743,0,0,1,20.915,0,1.72,1.72,0,0,0,1.781.917A25.591,25.591,0,0,1,83.9,84.561Z"/>
        <path id="Trazado_994867" data-name="Trazado 994867" d="M69.053,21.6a1.712,1.712,0,0,0,.474-.067l.111-.031a1.719,1.719,0,0,0-.922-3.312l-.136.038a1.719,1.719,0,0,0,.473,3.372Z"/>
        <path id="Trazado_994868" data-name="Trazado 994868" d="M27.984,71.83h-.107a1.719,1.719,0,0,0,.009,3.438h.1a1.719,1.719,0,1,0,0-3.438Z"/>
      </g>
    </g>
  </g>
</svg>
