<svg xmlns="http://www.w3.org/2000/svg" xmlns:xlink="http://www.w3.org/1999/xlink" width="96" height="96" viewBox="0 0 96 96">
  <defs>
    <clipPath id="clip-path">
      <rect id="Rectángulo_454588" data-name="Rectángulo 454588" width="88" height="88" transform="translate(745.746 9172)" fill="#fff" stroke="#707070" stroke-width="1"/>
    </clipPath>
  </defs>
  <g id="Grupo_1177375" data-name="Grupo 1177375" transform="translate(-741.746 -9168)">
    <path id="Elipse_5729" data-name="Elipse 5729" d="M48,0A48,48,0,1,1,0,48,48,48,0,0,1,48,0Z" transform="translate(741.746 9168)" fill="#02614b"/>
    <g id="Enmascarar_grupo_1119167" data-name="Enmascarar grupo 1119167" clip-path="url(#clip-path)">
      <g id="energia-renovable" transform="translate(745.746 9172)">
        <g id="Grupo_1177402" data-name="Grupo 1177402">
          <g id="Grupo_1177401" data-name="Grupo 1177401">
            <path id="Trazado_994937" data-name="Trazado 994937" d="M43.958,5.283A38.714,38.714,0,0,0,16.68,71.473a5.169,5.169,0,1,0,7.252-7.367,28.377,28.377,0,0,1,20.026-48.5Z" fill="#92dd7a"/>
          </g>
        </g>
        <g id="Grupo_1177404" data-name="Grupo 1177404">
          <g id="Grupo_1177403" data-name="Grupo 1177403">
            <path id="Trazado_994938" data-name="Trazado 994938" d="M17.315,15.91a5.249,5.249,0,0,1,7.15,7.467,28.29,28.29,0,0,1,19.493-7.769V5.283A38.584,38.584,0,0,0,17.315,15.91Z" fill="#7ec66a"/>
          </g>
        </g>
        <g id="Grupo_1177406" data-name="Grupo 1177406">
          <g id="Grupo_1177405" data-name="Grupo 1177405">
            <path id="Trazado_994939" data-name="Trazado 994939" d="M43.958,82.717A38.714,38.714,0,0,0,71.235,16.528a5.169,5.169,0,1,0-7.252,7.367,28.377,28.377,0,0,1-20.026,48.5Z" fill="#92dd7a"/>
          </g>
        </g>
        <g id="Grupo_1177409" data-name="Grupo 1177409">
          <g id="Grupo_1177408" data-name="Grupo 1177408">
            <g id="Grupo_1177407" data-name="Grupo 1177407">
              <path id="Trazado_994940" data-name="Trazado 994940" d="M63.973,71.438a5.25,5.25,0,0,1-.522-6.814,28.29,28.29,0,0,1-19.493,7.769V82.717A38.583,38.583,0,0,0,70.6,72.09a5.249,5.249,0,0,1-6.627-.653Z" fill="#7ec66a"/>
            </g>
          </g>
        </g>
        <g id="Grupo_1177414" data-name="Grupo 1177414">
          <g id="Grupo_1177411" data-name="Grupo 1177411">
            <g id="Grupo_1177410" data-name="Grupo 1177410">
              <path id="Trazado_994941" data-name="Trazado 994941" d="M42.9,1.821,53.2,9.435a2.7,2.7,0,0,1,0,4.335L42.9,21.384a2.7,2.7,0,0,1-4.3-2.168V3.989a2.7,2.7,0,0,1,4.3-2.168Z" fill="#b1ef97"/>
            </g>
          </g>
          <g id="Grupo_1177413" data-name="Grupo 1177413">
            <g id="Grupo_1177412" data-name="Grupo 1177412">
              <path id="Trazado_994942" data-name="Trazado 994942" d="M53.2,9.413,42.9,1.8a2.7,2.7,0,0,0-4.3,2.168V17.4C38.6,9.558,48.091,5.637,53.2,9.413Z" fill="#92dd7a"/>
            </g>
          </g>
        </g>
        <g id="Grupo_1177419" data-name="Grupo 1177419">
          <g id="Grupo_1177416" data-name="Grupo 1177416">
            <g id="Grupo_1177415" data-name="Grupo 1177415">
              <path id="Trazado_994943" data-name="Trazado 994943" d="M45.019,86.179,34.714,78.565a2.7,2.7,0,0,1,0-4.335l10.306-7.614a2.7,2.7,0,0,1,4.3,2.168V84.011a2.7,2.7,0,0,1-4.3,2.168Z" fill="#b1ef97"/>
            </g>
          </g>
          <g id="Grupo_1177418" data-name="Grupo 1177418">
            <g id="Grupo_1177417" data-name="Grupo 1177417">
              <path id="Trazado_994944" data-name="Trazado 994944" d="M34.714,78.587,45.019,86.2a2.7,2.7,0,0,0,4.3-2.168V70.6c0,7.84-9.491,11.76-14.6,7.984Z" fill="#92dd7a"/>
            </g>
          </g>
        </g>
        <g id="Grupo_1177421" data-name="Grupo 1177421">
          <g id="Grupo_1177420" data-name="Grupo 1177420">
            <path id="Trazado_994945" data-name="Trazado 994945" d="M55.119,32.966,51.6,40.382a.9.9,0,0,0,.813,1.285h2.812a1.8,1.8,0,0,1,1.19,3.148L39.043,60.132a3.656,3.656,0,0,1-5.714-4.326l4.227-8.8a.9.9,0,0,0-.811-1.289H32.692a1.8,1.8,0,0,1-1.621-2.578l5.145-10.708A3.6,3.6,0,0,1,39.458,30.4H53.494a1.8,1.8,0,0,1,1.625,2.57Z" fill="#ffeb99"/>
          </g>
        </g>
        <g id="Grupo_1177423" data-name="Grupo 1177423">
          <g id="Grupo_1177422" data-name="Grupo 1177422">
            <path id="Trazado_994946" data-name="Trazado 994946" d="M46.9,47.01a.9.9,0,0,0-.811-1.289H42.031a1.8,1.8,0,0,1-1.621-2.578l5.145-10.708A3.6,3.6,0,0,1,48.8,30.4H39.458a3.6,3.6,0,0,0-3.243,2.039L31.071,43.143a1.8,1.8,0,0,0,1.621,2.578h4.054a.9.9,0,0,1,.811,1.289l-4.227,8.8a3.656,3.656,0,0,0,5.714,4.326l2.684-2.367Z" fill="#ffde55"/>
          </g>
        </g>
        <g id="Grupo_1177427" data-name="Grupo 1177427">
          <g id="Grupo_1177424" data-name="Grupo 1177424">
            <path id="Trazado_994947" data-name="Trazado 994947" d="M16.856,44A27.165,27.165,0,0,1,37.309,17.725v1.492a3.982,3.982,0,0,0,6.354,3.206l10.306-7.614a3.986,3.986,0,0,0,0-6.411L43.663.783a3.986,3.986,0,0,0-6.354,3.206v.555A40.021,40.021,0,0,0,4.038,41.334a1.291,1.291,0,0,0,1.2,1.373l.086,0A1.291,1.291,0,0,0,6.613,41.5a37.549,37.549,0,0,1,30.7-34.339v7.9A29.667,29.667,0,0,0,23.022,65.02a3.9,3.9,0,0,1,.757,4.533,3.878,3.878,0,0,1-6.189,1A37.349,37.349,0,0,1,6.615,46.519a1.29,1.29,0,1,0-2.575.171,39.928,39.928,0,0,0,11.731,25.7,6.376,6.376,0,0,0,4.52,1.875,6.628,6.628,0,0,0,1.055-.085,6.4,6.4,0,0,0,4.735-3.459,6.476,6.476,0,0,0-1.238-7.528A26.909,26.909,0,0,1,16.856,44ZM39.89,3.989a1.38,1.38,0,0,1,.772-1.254A1.411,1.411,0,0,1,41.3,2.58a1.39,1.39,0,0,1,.83.279l10.306,7.614a1.4,1.4,0,0,1,0,2.259L42.129,20.346a1.4,1.4,0,0,1-2.239-1.13Z"/>
          </g>
          <g id="Grupo_1177425" data-name="Grupo 1177425">
            <path id="Trazado_994948" data-name="Trazado 994948" d="M72.145,15.612a6.459,6.459,0,0,0-10.31,1.668,6.476,6.476,0,0,0,1.238,7.528A26.91,26.91,0,0,1,71.059,44,27.184,27.184,0,0,1,50.606,70.276V68.784a3.986,3.986,0,0,0-6.354-3.206L33.947,73.192a3.986,3.986,0,0,0,0,6.411l10.306,7.614a3.986,3.986,0,0,0,6.354-3.206v-.555A40.009,40.009,0,0,0,72.145,15.612Zm-24.12,68.4a1.4,1.4,0,0,1-2.239,1.13L35.481,77.527a1.4,1.4,0,0,1,0-2.259l10.306-7.614a1.4,1.4,0,0,1,2.239,1.13Zm2.581-3.176v-7.9A29.667,29.667,0,0,0,64.894,22.98a3.9,3.9,0,0,1-.757-4.533,3.878,3.878,0,0,1,6.189-1A37.165,37.165,0,0,1,81.384,44,37.619,37.619,0,0,1,50.606,80.835Z"/>
          </g>
          <g id="Grupo_1177426" data-name="Grupo 1177426">
            <path id="Trazado_994949" data-name="Trazado 994949" d="M32.437,60.023A4.947,4.947,0,0,0,39.9,61.1l9.754-8.6a1.291,1.291,0,0,0-1.707-1.936l-9.754,8.6a2.364,2.364,0,0,1-1.565.591,2.366,2.366,0,0,1-2.132-3.39l4.227-8.8a2.19,2.19,0,0,0-1.974-3.138H32.692a.508.508,0,0,1-.458-.728l5.145-10.708a2.319,2.319,0,0,1,2.079-1.308H53.494a.508.508,0,0,1,.459.726l-3.521,7.416a2.19,2.19,0,0,0,1.978,3.129h2.812a.508.508,0,0,1,.336.889l-3.873,3.415A1.291,1.291,0,0,0,53.393,49.2l3.872-3.415a3.089,3.089,0,0,0-2.043-5.406H53.029l3.255-6.857a3.089,3.089,0,0,0-2.791-4.414H39.458a4.913,4.913,0,0,0-4.406,2.771L29.907,42.584a3.09,3.09,0,0,0,2.785,4.427h3.432l-3.957,8.236a4.921,4.921,0,0,0,.272,4.776Z"/>
          </g>
        </g>
      </g>
    </g>
  </g>
</svg>
