<svg xmlns="http://www.w3.org/2000/svg" xmlns:xlink="http://www.w3.org/1999/xlink" width="96" height="96" viewBox="0 0 96 96">
  <defs>
    <clipPath id="clip-path">
      <rect id="Rectángulo_454588" data-name="Rectángulo 454588" width="88" height="88" transform="translate(745.746 9172)" fill="#fff" stroke="#707070" stroke-width="1"/>
    </clipPath>
  </defs>
  <g id="Grupo_1177377" data-name="Grupo 1177377" transform="translate(-741.746 -9168)">
    <path id="Elipse_5729" data-name="Elipse 5729" d="M48,0A48,48,0,1,1,0,48,48,48,0,0,1,48,0Z" transform="translate(741.746 9168)" fill="#02614b"/>
    <g id="Enmascarar_grupo_1119170" data-name="Enmascarar grupo 1119170" clip-path="url(#clip-path)">
      <g id="bomba-manual" transform="translate(744.327 9170.581)">
        <path id="Trazado_995027" data-name="Trazado 995027" d="M25.548,85.161A2.847,2.847,0,0,0,28.387,88C14.279,88,2.839,83.557,2.839,78.065V61.032c0,5.493,11.44,9.935,25.548,9.935s25.548-4.443,25.548-9.935V78.065a5.685,5.685,0,0,1-2.455,4.258H28.387a2.859,2.859,0,0,0-2.839,2.839Z" fill="#ccd1d9"/>
        <path id="Trazado_995028" data-name="Trazado 995028" d="M53.935,38.323V55.355c0,5.493-11.44,9.935-25.548,9.935S2.839,60.848,2.839,55.355V38.323c0,5.493,11.44,9.935,25.548,9.935S53.935,43.815,53.935,38.323Z" fill="#ccd1d9"/>
        <path id="Trazado_995029" data-name="Trazado 995029" d="M28.387,65.29c14.108,0,25.548-4.443,25.548-9.935v5.677c0,5.493-11.44,9.935-25.548,9.935S2.839,66.525,2.839,61.032V55.355C2.839,60.848,14.279,65.29,28.387,65.29Z" fill="#b4dd7f"/>
        <path id="Trazado_995030" data-name="Trazado 995030" d="M28.387,42.581c14.108,0,25.548-4.443,25.548-9.935v5.677c0,5.493-11.44,9.935-25.548,9.935S2.839,43.815,2.839,38.323V32.645C2.839,38.138,14.279,42.581,28.387,42.581Z" fill="#b4dd7f"/>
        <ellipse id="Elipse_13717" data-name="Elipse 13717" cx="25.548" cy="9.935" rx="25.548" ry="9.935" transform="translate(2.839 22.71)" fill="#ccd1d9"/>
        <path id="Trazado_995031" data-name="Trazado 995031" d="M31.226,28.387a8.516,8.516,0,0,1,13.115-7.168,8.5,8.5,0,0,1,3.648,5.053,8,8,0,0,1,.27,2.115,8.516,8.516,0,0,1-17.032,0Z" fill="#cf9e76"/>
        <path id="Trazado_995032" data-name="Trazado 995032" d="M78.065,24.129v4.258H69.548V24.129a12.771,12.771,0,0,0-25.208-2.91,8.513,8.513,0,0,0-8.615-.341,21.295,21.295,0,0,1,42.339,3.25Z" fill="#e6e9ed"/>
        <path id="Trazado_995033" data-name="Trazado 995033" d="M85.161,82.323A2.847,2.847,0,0,1,88,85.161,2.859,2.859,0,0,1,85.161,88H28.387a2.847,2.847,0,0,1-2.839-2.839,2.859,2.859,0,0,1,2.839-2.839H56.774a2.847,2.847,0,0,0,2.839-2.839,2.859,2.859,0,0,1,2.839-2.839h5.677a2.847,2.847,0,0,0,2.839-2.839v-7.1h5.677V79.484a2.847,2.847,0,0,0,2.839,2.839Z" fill="#fcd770"/>
        <path id="Trazado_995034" data-name="Trazado 995034" d="M82.195,47.25a9.89,9.89,0,0,1-8.346,15.2h-.085a9.89,9.89,0,0,1-8.346-15.2l8.388-13.186Z" fill="#fcd770"/>
        <path id="Trazado_995035" data-name="Trazado 995035" d="M21.29,17.032a2.838,2.838,0,0,0-2.839,2.839v5.677a2.838,2.838,0,0,0,2.839,2.839h2.839V19.871A2.838,2.838,0,0,0,21.29,17.032Z" fill="#ccd1d9"/>
        <path id="Trazado_995036" data-name="Trazado 995036" d="M31.161,58.13q-1.337.062-2.773.064v2.839c1,0,1.971-.024,2.9-.067Z"/>
        <path id="Trazado_995037" data-name="Trazado 995037" d="M48.407,56.628l-1.649-2.309a11.708,11.708,0,0,1-2.23,1.178l1.106,2.614a14.7,14.7,0,0,0,2.773-1.483Z"/>
        <path id="Trazado_995038" data-name="Trazado 995038" d="M37.089,60.395l-.433-2.806c-.864.133-1.778.25-2.738.343l.274,2.825Q35.717,60.61,37.089,60.395Z"/>
        <path id="Trazado_995039" data-name="Trazado 995039" d="M42.821,59.118,42,56.4c-.833.253-1.722.484-2.64.686l.61,2.772C40.957,59.641,41.918,59.391,42.821,59.118Z"/>
        <path id="Trazado_995040" data-name="Trazado 995040" d="M18.189,82.851c.918.172,1.893.325,2.925.454l.352-2.816c-.971-.122-1.889-.267-2.752-.429Z"/>
        <path id="Trazado_995041" data-name="Trazado 995041" d="M9.935,72.387H7.1V78.13l.346.4c1.116,1.289,4.109,2.693,7.809,3.665l.721-2.746a19.324,19.324,0,0,1-6.038-2.473Z"/>
        <path id="Trazado_995042" data-name="Trazado 995042" d="M76.645,52.559a2.819,2.819,0,0,1-2.88,2.8l.085,2.839a5.637,5.637,0,0,0,4.755-8.661l-2.2-3.456-2.4,1.524,2.2,3.456a2.793,2.793,0,0,1,.436,1.5Z"/>
        <path id="Trazado_995043" data-name="Trazado 995043" d="M64.22,46.484a11.355,11.355,0,1,0,19.173,0L73.806,31.42Zm18.1,6.075a8.516,8.516,0,1,1-15.707-4.55l7.19-11.3L81,48.01A8.451,8.451,0,0,1,82.323,52.559Z"/>
        <path id="Trazado_995044" data-name="Trazado 995044" d="M85.161,80.9H79.484a1.421,1.421,0,0,1-1.419-1.419v-7.1H75.226v7.1a4.263,4.263,0,0,0,4.258,4.258h5.677a1.419,1.419,0,1,1,0,2.839H28.387a1.419,1.419,0,1,1,0-2.839H56.774a4.263,4.263,0,0,0,4.258-4.258,1.421,1.421,0,0,1,1.419-1.419h5.677a4.263,4.263,0,0,0,4.258-4.258v-7.1H69.548v7.1a1.421,1.421,0,0,1-1.419,1.419H62.452a4.263,4.263,0,0,0-4.258,4.258A1.421,1.421,0,0,1,56.774,80.9H54.559a5.8,5.8,0,0,0,.8-2.839V32.645c0-1.984-1.1-4.841-6.184-7.372a9.953,9.953,0,0,0-3.208-4.62,11.356,11.356,0,0,1,22.166,3.476v5.677H79.484V24.129a22.7,22.7,0,0,0-45.021-4.145,9.974,9.974,0,0,0-1.817,1.461,67.62,67.62,0,0,0-7.1-.061V19.871a4.258,4.258,0,1,0-8.516,0v2.434c-9.659,1.811-15.613,5.72-15.613,10.34V78.065c0,6.474,11.593,11.355,26.968,11.355H85.161a4.258,4.258,0,0,0,0-8.516ZM46.839,28.387a7.1,7.1,0,0,1-14.05,1.419h8.373V26.968H32.789a7.1,7.1,0,0,1,14.05,1.419ZM56.774,4.258A19.893,19.893,0,0,1,76.645,24.129v2.839H70.968V24.129a14.189,14.189,0,0,0-27.491-4.942,9.85,9.85,0,0,0-5.791-.518A20.009,20.009,0,0,1,56.774,4.258ZM30.739,24.211a9.83,9.83,0,0,0-.819,2.756H25.548V24.224c1.727-.075,3.459-.075,5.191-.013Zm-10.868-4.34a1.419,1.419,0,0,1,2.839,0v7.1H21.29a1.421,1.421,0,0,1-1.419-1.419Zm-2.839,5.32v.358a4.263,4.263,0,0,0,4.258,4.258h8.63a9.923,9.923,0,0,0,19.736-.991c1.838,1.223,2.86,2.563,2.86,3.829,0,4.028-9.909,8.516-24.129,8.516S4.258,36.673,4.258,32.645C4.258,29.684,9.432,26.708,17.032,25.191ZM4.258,37.86C8.6,41.564,17.54,44,28.387,44s19.79-2.436,24.129-6.14v.463c0,4.028-9.909,8.516-24.129,8.516S4.258,42.351,4.258,38.323Zm0,5.677c4.339,3.7,13.282,6.14,24.129,6.14s19.79-2.436,24.129-6.14V55.355c0,4.028-9.909,8.516-24.129,8.516S4.258,59.383,4.258,55.355Zm0,17.032c4.339,3.7,13.282,6.14,24.129,6.14s19.79-2.436,24.129-6.14v.463c0,4.028-9.909,8.516-24.129,8.516S4.258,65.06,4.258,61.032Zm0,17.495V66.247c4.339,3.7,13.282,6.14,24.129,6.14s19.79-2.436,24.129-6.14V78.065a4.041,4.041,0,0,1-1.6,2.839H28.387a4.2,4.2,0,0,0-4.039,5.541c-12.015-.751-20.09-4.746-20.09-8.38Z"/>
        <path id="Trazado_995045" data-name="Trazado 995045" d="M75.226,66.71h2.839v2.839H75.226Z"/>
      </g>
    </g>
  </g>
</svg>
