<svg xmlns="http://www.w3.org/2000/svg" width="84" height="84" viewBox="0 0 84 84">
  <g id="Grupo_1177339" data-name="Grupo 1177339" transform="translate(-705.711 -2675.92)">
    <rect id="Rectángulo_402006" data-name="Rectángulo 402006" width="84" height="84" rx="5" transform="translate(705.711 2675.92)" fill="#4d240b"/>
    <g id="Grupo_1177586" data-name="Grupo 1177586" transform="translate(709.711 2654.92)">
      <path id="Trazado_996305" data-name="Trazado 996305" d="M22.242,75.954a2.178,2.178,0,0,0,.325,3.057h0A51.519,51.519,0,0,0,46.5,89.175a1.117,1.117,0,1,1-.324,2.211,54.146,54.146,0,0,1-23.935-9.794,3.628,3.628,0,0,0,1,3.4c2.041,1.984,9.506,6.133,15.087,8.038a58.551,58.551,0,0,1,9.257,1.059,55.686,55.686,0,0,0,9.071,1.028,55.686,55.686,0,0,0,9.071-1.028,65.205,65.205,0,0,1,8.325-1.038V85.835a1.118,1.118,0,0,1,2.235,0v8.309a1.117,1.117,0,0,1-1.118,1.118A55.687,55.687,0,0,0,66.1,96.29a57.367,57.367,0,0,1-9.443,1.059,57.352,57.352,0,0,1-9.443-1.059,55.868,55.868,0,0,0-9.045-1.028h-.051a55.87,55.87,0,0,0-9.046,1.028,57.352,57.352,0,0,1-9.443,1.059,57.352,57.352,0,0,1-9.443-1.059,55.687,55.687,0,0,0-9.071-1.028A1.117,1.117,0,0,1,0,94.144V64.717A1.117,1.117,0,0,1,1.117,63.6H5.565V59.851A8.558,8.558,0,0,1,.327,57.378,1.117,1.117,0,0,1,0,56.588V46.009a1.118,1.118,0,0,1,.327-.79A8.6,8.6,0,0,1,15,51.3a8.532,8.532,0,0,1-1.727,5.172,6.373,6.373,0,0,0,8.207-.672,1.262,1.262,0,0,1,1.9.294,6.371,6.371,0,0,0,8.684-.294,1.118,1.118,0,0,1,1.58,0,6.323,6.323,0,0,0,2.244,1.45V53.475l-3.463-3.463a1.118,1.118,0,0,1,1.58-1.58l1.883,1.883V47.54a1.118,1.118,0,1,1,2.235,0V57.658a6.4,6.4,0,0,0,3.729-1.188A8.6,8.6,0,0,1,53.281,44.006a11.337,11.337,0,0,1,8.556-7.894,15.614,15.614,0,0,0-20.486,5.8,1.117,1.117,0,0,1-1.786.169,9.6,9.6,0,0,0-15.57,1.829,1.118,1.118,0,0,1-2.057-.233,4.148,4.148,0,0,0-7.057-1.671,1.118,1.118,0,0,1-1.911-.487A12.166,12.166,0,0,0,2.235,32.285v8.747a1.118,1.118,0,0,1-2.235,0V31.118A1.117,1.117,0,0,1,1.117,30a14.4,14.4,0,0,1,13.517,9.348,6.376,6.376,0,0,1,8.532,1.787,11.835,11.835,0,0,1,17.046-1.545A17.808,17.808,0,0,1,54.7,32.154a17.617,17.617,0,0,1,10.284,3.264A12.267,12.267,0,0,1,75.171,30a1.117,1.117,0,0,1,1.118,1.118v25.47a1.118,1.118,0,0,1-.327.79,8.548,8.548,0,0,1-3.568,2.142V60.1a1.118,1.118,0,1,1-2.235,0v-.211a8.58,8.58,0,0,1-5.567-1.81,8.535,8.535,0,0,1-2.628,1.4V63.6H75.171a1.117,1.117,0,0,1,1.118,1.118V81.365a1.118,1.118,0,0,1-1.463,1.063L50.315,74.465a1.12,1.12,0,0,1-.453-.281C47.569,71.841,45.8,70.3,42.294,70.3a7.081,7.081,0,0,0-6.667,9.454,1.118,1.118,0,0,1-1.489,1.4A38.227,38.227,0,0,1,25.3,75.627a2.179,2.179,0,0,0-3.058.326ZM21.564,86.47A82.135,82.135,0,0,0,11.65,87.5a93.667,93.667,0,0,1-9.415,1.034v4.512a65.231,65.231,0,0,1,8.325,1.038,55.687,55.687,0,0,0,9.071,1.028A55.687,55.687,0,0,0,28.7,94.085c1.487-.251,3-.506,4.52-.7-4.689-2.108-9.8-5.1-11.657-6.912ZM2.235,79.933V86.3c2.761-.105,5.977-.564,9.1-1.01,3.02-.431,6.125-.875,8.895-1.012a5.56,5.56,0,0,1,.224-4.25A4.41,4.41,0,0,1,26.7,73.889a40.279,40.279,0,0,0,6.311,4.26q-.031-.382-.031-.768a9.257,9.257,0,0,1,1.582-5.187c-1.972-.2-3.942-.536-5.864-.86a55.687,55.687,0,0,0-9.071-1.028,55.687,55.687,0,0,0-9.071,1.028,65.2,65.2,0,0,1-8.325,1.038V77.7a85.746,85.746,0,0,1,9.134,1.035c1.717.255,3.492.519,5.173.713a1.118,1.118,0,1,1-.256,2.22c-1.718-.2-3.512-.465-5.246-.723a85.117,85.117,0,0,0-8.805-1.009Zm49.032-7.509,22.787,7.4V72.371a65.233,65.233,0,0,1-8.325-1.038A55.686,55.686,0,0,0,56.658,70.3a44.439,44.439,0,0,0-6.9.668C50.306,71.454,50.8,71.95,51.267,72.424Zm5.391-4.354A57.352,57.352,0,0,1,66.1,69.129a64.268,64.268,0,0,0,7.953,1v-4.3H24.1a1.118,1.118,0,1,1,0-2.235H35.888V59.593a8.534,8.534,0,0,1-3.034-1.516,8.622,8.622,0,0,1-9.333.81v1.36a1.118,1.118,0,0,1-2.235,0v-1.5a8.622,8.622,0,0,1-9.59-.667,8.55,8.55,0,0,1-3.9,1.7V63.6h11.83a1.118,1.118,0,1,1,0,2.235H2.235v4.3a64.268,64.268,0,0,0,7.953-1,57.352,57.352,0,0,1,9.443-1.059,57.34,57.34,0,0,1,9.443,1.059,69.329,69.329,0,0,0,7.413.979,9.265,9.265,0,0,1,5.808-2.038,10.588,10.588,0,0,1,4.812,1.078l.109-.018A57.334,57.334,0,0,1,56.658,68.07ZM51.534,63.6h8.2V59.882a8.584,8.584,0,0,1-5.716-1.8,8.533,8.533,0,0,1-2.479,1.346Zm-13.41,0H49.3V59.873a8.592,8.592,0,0,1-5.865-1.8,8.579,8.579,0,0,1-5.29,1.815h-.021Zm26.469-8.13a1.114,1.114,0,0,1,.79.327,6.372,6.372,0,0,0,8.671.305V32.3a10.043,10.043,0,0,0-7.771,5.29,1.115,1.115,0,0,1-1.115.586,9.074,9.074,0,0,0-10.044,7.963,1.118,1.118,0,0,1-1.9.662,6.363,6.363,0,1,0,0,9,1.118,1.118,0,0,1,1.58,0,6.35,6.35,0,0,0,4.926,1.847V47.54a1.118,1.118,0,0,1,2.235,0v2.988l2.248-2.248a1.118,1.118,0,0,1,1.58,1.58l-3.828,3.828v3.389A6.331,6.331,0,0,0,63.8,55.8,1.114,1.114,0,0,1,64.592,55.47ZM2.235,56.1a6.363,6.363,0,1,0,0-9.609ZM48.571,86.65a1.117,1.117,0,0,1-1.118-1.118V82.718a1.118,1.118,0,0,1,2.235,0v2.815A1.117,1.117,0,0,1,48.571,86.65Z" fill="#fbaf00"/>
    </g>
  </g>
</svg>
