<svg xmlns="http://www.w3.org/2000/svg" width="104" height="70.576" viewBox="0 0 104 70.576">
  <g id="Grupo_1176888" data-name="Grupo 1176888" transform="translate(-32.027 -104)">
    <path id="Trazado_992744" data-name="Trazado 992744" d="M95.224,117.451a1.859,1.859,0,0,0,1.8,1.407,1.917,1.917,0,0,0,.453-.056,1.857,1.857,0,0,0,1.351-2.252c-2.08-8.323-13.72-12.29-14.215-12.455a1.856,1.856,0,0,0-1.175,3.522c.028.009.808.276,1.959.789l-5.154,11.536-11.081,3.067a1.857,1.857,0,0,0,.991,3.58l8.125-2.25-1.019,2.28-7.668,3.067a41.2,41.2,0,0,0-5.816-4.548,7.433,7.433,0,1,0-10.113-2.27,8.005,8.005,0,0,0-5.514,4.775c-1.4,3.011-2.017,7.392-2.876,13.456l-.228,1.6c-.4,2.772-3,12.218-3.559,14.238l-9.031,10.837a1.86,1.86,0,0,0-.234,2.02l1.857,3.715a1.855,1.855,0,0,0,1.662,1.026h7.429a1.856,1.856,0,0,0,1.662-2.686l-1.258-2.517,6.482-6.482a1.883,1.883,0,0,0,.348-.483l1.857-3.715a1.857,1.857,0,0,0-3.322-1.66l-1.723,3.445L40,167.651a1.858,1.858,0,0,0-.348,2.145l.513,1.026H36.892l-.8-1.6L44.6,159.01a1.9,1.9,0,0,0,.362-.687c.135-.478,3.29-11.763,3.766-15.1l.228-1.6c1.727-12.188,2.4-15.378,7.684-15.378,3.15,0,8.553,4.246,11.22,6.923a1.855,1.855,0,0,0,2.006.416l4.19-1.676c-1.625,1.9-3.9,3.666-6.737,3.666-.82-.019-3.793-1.616-6.363-3.417a1.857,1.857,0,0,0-2.888,1.156L56.21,142.6a1.85,1.85,0,0,0,.16,1.2l5.43,10.858L63.618,169.2a1.855,1.855,0,0,0,.529,1.084l.543.543H61.528l-1.653-13.231a1.855,1.855,0,0,0-.529-1.084l-7.429-7.429a1.857,1.857,0,1,0-2.626,2.626l6.979,6.979,1.778,14.227a1.858,1.858,0,0,0,1.843,1.627h9.286a1.858,1.858,0,0,0,1.314-3.171L67.228,168.1l-1.778-14.227a1.9,1.9,0,0,0-.181-.6L59.982,142.7l1.191-5.957c2,1.23,4.515,2.544,6.148,2.544a10.857,10.857,0,0,0,5.237-1.36,1.858,1.858,0,0,0,3.529.453l12.622-28.256c2.758,1.662,5.727,4.128,6.526,7.327Zm-35.344,5.08a3.715,3.715,0,1,1,3.715-3.715A3.719,3.719,0,0,1,59.88,122.531Z" transform="translate(0)" fill="#02614b"/>
    <path id="Trazado_992745" data-name="Trazado 992745" d="M281.575,379.715h-4.548a7.713,7.713,0,0,0-13.191,0h-3.524a7.713,7.713,0,0,0-13.191,0H243.6a7.713,7.713,0,0,0-13.191,0h-4.548a1.857,1.857,0,0,0,0,3.715h5.572a1.838,1.838,0,0,0,1.655-1.017c.014-.028,1.423-2.7,3.917-2.7s3.9,2.672,3.91,2.688a1.855,1.855,0,0,0,1.662,1.026h5.572a1.838,1.838,0,0,0,1.655-1.017c.014-.028,1.423-2.7,3.917-2.7s3.9,2.672,3.91,2.688a1.855,1.855,0,0,0,1.662,1.026h5.572a1.838,1.838,0,0,0,1.655-1.017c.014-.028,1.423-2.7,3.916-2.7s3.9,2.672,3.91,2.688A1.855,1.855,0,0,0,276,383.429h5.572a1.857,1.857,0,1,0,0-3.715Z" transform="translate(-147.405 -208.853)" fill="#02614b"/>
  </g>
</svg>
