<svg xmlns="http://www.w3.org/2000/svg" xmlns:xlink="http://www.w3.org/1999/xlink" width="396.37" height="262.001" viewBox="0 0 396.37 262.001">
  <defs>
    <clipPath id="clip-path">
      <rect id="Rectángulo_454840" data-name="Rectángulo 454840" width="396" height="213.96" fill="none"/>
    </clipPath>
    <clipPath id="clip-path-2">
      <path id="Trazado_994719" data-name="Trazado 994719" d="M134.365,531.925l-.157.087-.051,16.843,0,2.7.009,4.326,0,14.232-.014.2.011,4.851c.549-.027.676.022,1.117-.333l.126-3.351.029-.86.007-1.328,0-13.046-.015-4.683.016-3.673-.021-16.04Z" transform="translate(-134.152 -531.847)" fill="none"/>
    </clipPath>
    <linearGradient id="linear-gradient" x1="-12.828" y1="2.011" x2="-12.73" y2="2.011" gradientUnits="objectBoundingBox">
      <stop offset="0" stop-color="#004457"/>
      <stop offset="1" stop-color="#00395a"/>
    </linearGradient>
    <clipPath id="clip-path-4">
      <path id="Trazado_994779" data-name="Trazado 994779" d="M647.66,508.76c-.325.014-.637.027-.921.027l-8.033-.009-24.821.006H606.5c-.245,0-.5,0-.76-.009a8.189,8.189,0,0,0-3.188.35l-.137.058-.291.122a5.256,5.256,0,0,0-2.347,2.012c-1.129,1.826-1.739,4.387-2.473,6.428l-4.272,11.623-1.005,2.768a23.88,23.88,0,0,0-9.2,10.569c-.56,1.349-.864,2.808-1.294,4.2l-.437.031-1.192,1.679c-.147.259-.283.352-.2.654.282,1.065.657,1.719.032,2.793a3.977,3.977,0,0,1-1.3,1.208l-3.708-.15-3.8-.053-7.755-1.244-.15,1.373-5.872-.133a18.585,18.585,0,0,0-3.031.035,2.019,2.019,0,0,0-1.185.632,2.519,2.519,0,0,0-.911,1.884,3.106,3.106,0,0,0,.855,2.377,2.743,2.743,0,0,0,1.824.866,97.249,97.249,0,0,0,10.6.112l11.918.021,24.715-.005,18.816.018c3.156,0,6.413.164,9.557-.014a8.525,8.525,0,0,0,3.1-.757,8.439,8.439,0,0,0,3.5-3.16c1.17-1.943,1.79-4.681,2.565-6.843l4.729-12.923,6.22-17.108a38.954,38.954,0,0,0,1.912-5.84,3.331,3.331,0,0,0-.176-1.672,3,3,0,0,0-1.65-1.665,4.755,4.755,0,0,0-1.874-.292c-.329,0-.66.014-.979.027" transform="translate(-552.019 -508.733)" fill="none"/>
    </clipPath>
    <linearGradient id="linear-gradient-2" x1="-1.181" y1="1.141" x2="-1.179" y2="1.141" gradientUnits="objectBoundingBox">
      <stop offset="0" stop-color="#1d4c78"/>
      <stop offset="1" stop-color="#366792"/>
    </linearGradient>
  </defs>
  <g id="Grupo_1177355" data-name="Grupo 1177355" transform="translate(-600.63 -640)">
    <rect id="Rectángulo_454588" data-name="Rectángulo 454588" width="396" height="197" rx="20" transform="translate(600.63 640)" fill="#fee7b2"/>
    <g id="Grupo_1177354" data-name="Grupo 1177354" transform="translate(601 688.041)">
      <g id="Grupo_1177345" data-name="Grupo 1177345">
        <g id="Grupo_1177344" data-name="Grupo 1177344" clip-path="url(#clip-path)">
          <path id="Trazado_994659" data-name="Trazado 994659" d="M989.833,115.128l1-.163c.467.327.436.351.553.915l-.608.537-.37.109c-.563-.51-.5-.673-.575-1.4" transform="translate(-753.855 -87.557)" fill="#f9a82a"/>
          <path id="Trazado_994660" data-name="Trazado 994660" d="M927.475,7.151a3.047,3.047,0,0,1,1.056.4,2.234,2.234,0,0,1-.126,1.671,4.661,4.661,0,0,1-1.082-.65,1.7,1.7,0,0,1,.153-1.424" transform="translate(-706.172 -5.446)" fill="#f9a82a"/>
          <path id="Trazado_994661" data-name="Trazado 994661" d="M1019.893,61.777l1.037-.176c.51.358.5.424.684,1.029l-.741.408-.579.038a1.454,1.454,0,0,1-.4-1.3" transform="translate(-776.748 -46.915)" fill="#f9a82a"/>
          <path id="Trazado_994662" data-name="Trazado 994662" d="M905.435,91.645a2.974,2.974,0,0,1,1.229.3c.273.662.145.837-.054,1.5a3.232,3.232,0,0,1-1.108-.34,1.558,1.558,0,0,1-.066-1.461" transform="translate(-689.464 -69.797)" fill="#f9a82a"/>
          <path id="Trazado_994663" data-name="Trazado 994663" d="M990.775,8.02l.88-.024a1.159,1.159,0,0,1,.4,1.093l-.71.532-.536-.141c-.331-.683-.241-.77-.029-1.461" transform="translate(-754.427 -6.09)" fill="#f9a82a"/>
          <path id="Trazado_994664" data-name="Trazado 994664" d="M1011.763,92.381l.839-.056c.567.432.57.42.689,1.121l-.6.444c-.636-.026-.646-.179-1.087-.656Z" transform="translate(-770.435 -70.315)" fill="#f9a82a"/>
          <path id="Trazado_994665" data-name="Trazado 994665" d="M897.258,60.4l.529.105c.637.2.673.326.981.892l-.326.873c-.747-.164-.924-.154-1.433-.767Z" transform="translate(-683.16 -45.999)" fill="#f9a82a"/>
          <path id="Trazado_994666" data-name="Trazado 994666" d="M1013.027,29.453a5.267,5.267,0,0,1,.837.132,1.175,1.175,0,0,1,.224,1.144l-.811.336c-.61-.318-.6-.324-.844-.972Z" transform="translate(-771.067 -22.431)" fill="#f9a82a"/>
          <path id="Trazado_994667" data-name="Trazado 994667" d="M959.294.006l.8-.006c.513.557.52.548.52,1.3l-.646.446a2.041,2.041,0,0,1-.71-.307,1.982,1.982,0,0,1,.04-1.437" transform="translate(-730.475)" fill="#f9a82a"/>
          <path id="Trazado_994668" data-name="Trazado 994668" d="M906.022,28.977a3.175,3.175,0,0,1,1.238.5c.274.685.138.833-.1,1.5a1.914,1.914,0,0,1-1.387-.573c-.158-.727-.1-.758.245-1.426" transform="translate(-689.774 -22.069)" fill="#f9a82a"/>
          <path id="Trazado_994669" data-name="Trazado 994669" d="M3.717,791.6l16.11,2.213-.006,8.946c0,2.19-.187,4.572.468,6.69a9.838,9.838,0,0,0,2.706,4.2l1.237,1.179-2.108-.941A36.674,36.674,0,0,1,3.717,791.6" transform="translate(-2.831 -602.882)" fill="#87bd61"/>
          <path id="Trazado_994670" data-name="Trazado 994670" d="M95.04,210.469l.246-.018c2.093-.136,4.635.517,5.866,2.376a7.917,7.917,0,0,0,1.165,1.812,3.7,3.7,0,0,1,.783-.334,4.66,4.66,0,0,1,3.448.477,3.842,3.842,0,0,1,1.8,2.509c.064.3-.085.748.182.888a6.1,6.1,0,0,0,.944.048,3.469,3.469,0,0,1,2.293.939,2.355,2.355,0,0,1,.5,1.846c-.8.6-10.209.24-11.963.242l-15.993-.068a7.151,7.151,0,0,1-1.26-2.059,3.8,3.8,0,0,1,.265-2.965,4.693,4.693,0,0,1,4.276-2.3,11.578,11.578,0,0,0,1.645.4c.3-.055,1.061-1.039,1.3-1.294a9.09,9.09,0,0,1,4.5-2.5" transform="translate(-63.112 -160.266)" fill="#9cdaf2"/>
          <path id="Trazado_994671" data-name="Trazado 994671" d="M1570.028,649.478a5.869,5.869,0,0,1,.36,1.453,52.922,52.922,0,0,1,5.2,3.9,29.7,29.7,0,0,1,9.677,17.512,4.33,4.33,0,0,1,.074,1.487h-.141a10.5,10.5,0,0,0-2.973-.364l-6.871-.425-1.345-.015a37.237,37.237,0,0,0-9.438.2l-1.454.159-1.116.08c.646-2.207,4.921-6.854,4.556-8.919l.57-.549-.067-.754a1.616,1.616,0,0,0,.448-.394,9.042,9.042,0,0,0,.808-2.281c1.068-3.438,2.2-7.478,1.709-11.086" transform="translate(-1189.618 -494.641)" fill="#a1ca7b"/>
          <path id="Trazado_994672" data-name="Trazado 994672" d="M921.95,15.643a13.055,13.055,0,0,1,9.114,1.886,12.608,12.608,0,0,1,4.89,8.171,11.313,11.313,0,0,1-2.205,8.125,11.381,11.381,0,0,1-7.541,4.722,11.873,11.873,0,0,1-7.238-1.014,12.192,12.192,0,0,1-5.712-6.7,12.268,12.268,0,0,1,.733-8.995c1.734-3.4,4.462-5.052,7.959-6.195" transform="translate(-695.128 -11.808)" fill="#f9a82a"/>
          <path id="Trazado_994673" data-name="Trazado 994673" d="M185.663,821.722c8.888,1.049,17.945,2.274,26.919,1.9l.457,15.99-25.518-.016h-6.687a19,19,0,0,1-3.8-.136,11.892,11.892,0,0,0,5.464-2.922c4.025-4.091,3.2-9.585,3.161-14.82" transform="translate(-134.832 -625.822)" fill="#87bd61"/>
          <path id="Trazado_994674" data-name="Trazado 994674" d="M180.779,32.026a10.34,10.34,0,0,1,5.455,1.285,10.657,10.657,0,0,1,5.116,6.775,15.222,15.222,0,0,1,3-.954,7.937,7.937,0,0,1,5.9,1.249c2.245,1.673,3.064,3.653,3.438,6.361,1.857.03,3.048-.077,4.63,1.061a2.516,2.516,0,0,1,1.034,1.724,2.691,2.691,0,0,1-.887,2.067c-1.264.606-4,.264-5.478.262l-12.48-.042-15.232.01c-2.842,0-6.556.421-9.292-.363a6.814,6.814,0,0,1-4.01-3.373,6.663,6.663,0,0,1-.56-5.267,6.842,6.842,0,0,1,3.494-4.116c2.226-1.1,4.015-.817,6.273-.088a17.5,17.5,0,0,1,1.735-2.735c2.194-2.623,4.5-3.575,7.867-3.856" transform="translate(-122.695 -24.385)" fill="#9cdaf2"/>
          <path id="Trazado_994675" data-name="Trazado 994675" d="M329.637,155.589l10.54-3.083,5.085-1.61a6.464,6.464,0,0,1,2.494-.5l5.653,1.223-.287.743c-2.357,3.423-6.114,7.992-10.465,8.861l-.291.03c-.867-.992-1.525-1.731-2.9-1.824a3.631,3.631,0,0,0-2.751,1.02,4.251,4.251,0,0,0-.045,6.043,5.279,5.279,0,0,0,3.5,1.288l-1.728,9.273a22.862,22.862,0,0,1-7.6-4.175c-1.507,4.217-3.8,7.482-7.955,9.423-1.275.6-2.606.694-3.851,1.192a15.864,15.864,0,0,1-5.21-.595,12.522,12.522,0,0,1-8.4-15.56,12.467,12.467,0,0,1,16.129-8.1c1.1.411,2.061,1.083,3.187,1.457l.18.059.567-.274c.329-.738-.074-2.374-.178-3.2.757-.841,3.212-1.362,4.326-1.691" transform="translate(-232.193 -114.528)" fill="#0b2d52"/>
          <path id="Trazado_994676" data-name="Trazado 994676" d="M8.951,639.184C5.38,636.843,2.859,632.99,1.3,629.1a39.648,39.648,0,0,1,9.153-.32,32.524,32.524,0,0,1,9.3,2.587,16.012,16.012,0,0,1,3.869-.986A55.3,55.3,0,0,1,32,629.606l0,14.232-.014.2.011,4.851-8.975-.054a21.3,21.3,0,0,0-4,.075,2.639,2.639,0,0,0-1.173.642c-1.124,1.048-.673,5.029-.664,6.572-1.173.009-2.286-.029-3.17.871a2.948,2.948,0,0,0-.744,2.229,2.818,2.818,0,0,0,.83,1.868c.86.831,1.861.637,2.9.883l0,7.738L.886,667.5a24.791,24.791,0,0,1-.873-6.051c-.241-8.907,2.913-15.875,8.938-22.264" transform="translate(0 -478.779)" fill="#a1ca7b"/>
          <path id="Trazado_994677" data-name="Trazado 994677" d="M13.094,639.184C9.523,636.843,7,632.99,5.44,629.1a39.648,39.648,0,0,1,9.153-.32,32.524,32.524,0,0,1,9.3,2.587,16.012,16.012,0,0,1,3.869-.986,55.3,55.3,0,0,1,8.375-.779l0,14.232-.014.2-2.284.439c-7.6,1.357-14.556-.983-20.747-5.291" transform="translate(-4.143 -478.779)" fill="#0f875a"/>
          <path id="Trazado_994678" data-name="Trazado 994678" d="M82.863,634.422a16.009,16.009,0,0,1,3.869-.986,55.3,55.3,0,0,1,8.375-.779l0,14.232a30.985,30.985,0,0,1-2.068-3.654,24.149,24.149,0,0,0-10.173-8.813" transform="translate(-63.108 -481.83)" fill="#a1ca7b"/>
          <path id="Trazado_994679" data-name="Trazado 994679" d="M386,70.612a1.206,1.206,0,0,1-.875-.08,32.038,32.038,0,0,1-.018-11.833,27.178,27.178,0,0,1,11.952-17.15c7.6-4.851,16.036-6.013,24.77-4.08a32.746,32.746,0,0,1,20.5,14.548l.77,1.3.366,1.061-35.019,9.343a6.464,6.464,0,0,0-2.494.5l-5.085,1.61-10.54,3.083c-1.114.329-3.568.85-4.326,1.691" transform="translate(-292.88 -27.859)" fill="#32a45f"/>
          <path id="Trazado_994680" data-name="Trazado 994680" d="M408.741,122.4c1.539-1.082,4.233-1.595,6.055-2.257,15.138-5.5,30.844-10.468,46.717-13.343l.366,1.061L426.861,117.2a6.464,6.464,0,0,0-2.494.5l-5.085,1.61Z" transform="translate(-311.296 -81.339)" fill="#0f875a"/>
          <path id="Trazado_994681" data-name="Trazado 994681" d="M74.367,701.766c.549-.027.676.022,1.117-.333l.126-3.351.04,3.645,10.854-.012a29.5,29.5,0,0,1,4.554.041,2.613,2.613,0,0,1,1.265.691c1.394,1.315.961,4.165.964,5.952v.71c1.175.01,2.276-.078,3.166.82a2.733,2.733,0,0,1,.821,2.026,2.775,2.775,0,0,1-.829,2.056c-.9.876-2.052.852-3.237.879l-.007,5.322,0,7.344c.041,5.234.864,10.728-3.161,14.82A11.892,11.892,0,0,1,84.58,745.3a22.683,22.683,0,0,0-4.188-.147H72.236a24.333,24.333,0,0,1-4.957-.232,16.718,16.718,0,0,1-3.5-1.321l-1.237-1.179a9.837,9.837,0,0,1-2.706-4.2c-.655-2.118-.463-4.5-.468-6.69l.006-8.946,0-7.738c-1.038-.247-2.039-.052-2.9-.883a2.818,2.818,0,0,1-.83-1.868,2.948,2.948,0,0,1,.744-2.229c.884-.9,2-.862,3.17-.871-.009-1.543-.46-5.524.664-6.572a2.639,2.639,0,0,1,1.173-.642,21.3,21.3,0,0,1,4-.075Z" transform="translate(-42.374 -531.658)" fill="#f9a82a"/>
          <path id="Trazado_994682" data-name="Trazado 994682" d="M71.761,768.005a28.979,28.979,0,0,1,4.786-.067l8.006.059,20.892.045-.007,5.322a2.535,2.535,0,0,1-.449.309,9.073,9.073,0,0,1-1.907-.039l-5.588-.054-25.79.019Z" transform="translate(-54.61 -584.808)" fill="#ea965b"/>
          <path id="Trazado_994683" data-name="Trazado 994683" d="M59.557,743.884l33.73.108c1.175.01,2.276-.078,3.166.82a2.733,2.733,0,0,1,.821,2.026,2.776,2.776,0,0,1-.829,2.056c-.9.876-2.052.852-3.237.88l-20.892-.045-8.006-.059a28.986,28.986,0,0,0-4.786.067l-.153,0c-1.038-.247-2.039-.052-2.9-.883a2.818,2.818,0,0,1-.83-1.868,2.948,2.948,0,0,1,.744-2.229c.884-.9,2-.862,3.17-.871" transform="translate(-42.374 -566.54)" fill="#d66b27"/>
          <path id="Trazado_994684" data-name="Trazado 994684" d="M86.578,701.766c.549-.027.676.022,1.117-.333l.126-3.351.04,3.645,10.854-.012a29.5,29.5,0,0,1,4.554.041,2.613,2.613,0,0,1,1.265.691c1.394,1.315.961,4.165.964,5.952v.71L71.768,709c-.009-1.543-.46-5.524.664-6.572a2.639,2.639,0,0,1,1.173-.642,21.3,21.3,0,0,1,4-.075Z" transform="translate(-54.584 -531.658)" fill="#164773"/>
          <path id="Trazado_994685" data-name="Trazado 994685" d="M1284.3,11.513a16.486,16.486,0,0,1,8.63,1.506c4.592,2.242,6.668,5.935,8.225,10.578a13.621,13.621,0,0,1,4.668-1.585,11.622,11.622,0,0,1,8.964,2.726c3.009,2.557,4,5.651,4.3,9.461l1.9-.4a8.237,8.237,0,0,1,6.148,1.164c2.322,1.643,3.071,3.693,3.507,6.377l-29.421.1-24.937,0-8.077.034a30.087,30.087,0,0,1-5.777-.251,9.266,9.266,0,0,1-4.625-2.506,10.064,10.064,0,0,1-2.923-7.278,9.915,9.915,0,0,1,3.29-7.162,10.782,10.782,0,0,1,10.726-2.4,9.665,9.665,0,0,0,2.16.82c.172-.013.224-.385.277-.538a16.631,16.631,0,0,1,1.909-3.938c2.668-3.925,6.539-5.848,11.062-6.7" transform="translate(-955.708 -8.726)" fill="#9cdaf2"/>
          <path id="Trazado_994686" data-name="Trazado 994686" d="M139.446,624.21a33.526,33.526,0,0,0,4.4.51c1.749-.036,3.83-.826,5.584-1.2l7.192-1.2c5.4-.728,10.876-1.036,16.322-1.231.192,4.545.819,8.133,4.308,11.342a13.01,13.01,0,0,0,7.112,3.455c1.439.172,2.854.043,4.277.149.015,3.766-1.131,7.678-1.716,11.4-.139.888-.609,2.469-.288,3.278l.149.108-1.423,6.341a72.364,72.364,0,0,0-1.44,13.658c-8.974.37-18.031-.854-26.919-1.9l0-7.344.007-5.322c1.185-.027,2.333,0,3.237-.879a2.775,2.775,0,0,0,.829-2.056,2.733,2.733,0,0,0-.821-2.026c-.89-.9-1.991-.81-3.166-.82v-.71c0-1.787.43-4.637-.964-5.952a2.612,2.612,0,0,0-1.265-.691,29.508,29.508,0,0,0-4.554-.041l-10.854.012-.04-3.645.029-.86.007-1.329Z" transform="translate(-106.176 -473.02)" fill="#a1ca7b"/>
          <path id="Trazado_994687" data-name="Trazado 994687" d="M139.541,646.845c.948-1.476,1.721-3.03,2.812-4.414a24.127,24.127,0,0,1,13.223-7.9c2.252-.491,7.231-1.486,9.247-.263a2.673,2.673,0,0,1,1.185,1.7c-.463,3.05-4.442,6.62-6.847,8.367a24.908,24.908,0,0,1-17.814,4.162l-1.813-.316Z" transform="translate(-106.269 -482.609)" fill="#59bf7e"/>
          <path id="Trazado_994688" data-name="Trazado 994688" d="M1230.757,747.8a37.234,37.234,0,0,1,9.438-.2l1.345.015,6.871.425a10.5,10.5,0,0,1,2.973.364h.141a7.487,7.487,0,0,1,.267,2.843,28.689,28.689,0,0,1-2.117,11.114,32.708,32.708,0,0,1-17.561,17.986,34.288,34.288,0,0,1-9.405,2.546,102.516,102.516,0,0,1-10.707.275l-17.9-.017-26.711.025-13.35-.043-19.06,0-4.286,0h-1.657l-1.254,0-2.532,0-1.557,0,.1-.222a7.942,7.942,0,0,0,.186-2.4l.265-4.744a46.107,46.107,0,0,1,.963-6.534c.246-1.059,1.271-3.584.87-4.518a4.868,4.868,0,0,0,1.13-2.1,27.172,27.172,0,0,1,1.588-3.151c1.089-1.829,3.7-5.4,5.836-5.939l.732.066-.207.527.544.571.725-.317.212.739.463.021.491-.534.083.077a2.063,2.063,0,0,0,.763.479,1.549,1.549,0,0,0,.25-1.121l.2.3.591-.023c.172-.081.517-.312.689-.245,1.445.569,3.345,2.867,4.525,3.993l.1.559,1.171.045,0-.209a2.036,2.036,0,0,1,.138-.649,3.8,3.8,0,0,1,.966.29l.162-.924.424-.285a1.858,1.858,0,0,1,.894.769c.391-.455.494-.924,1.085-1.113a2.728,2.728,0,0,1,.524,1.555l.78-.569.367.106a4.5,4.5,0,0,1,.083.945l.164,0a4.033,4.033,0,0,1,.787.117,2.536,2.536,0,0,1-.763,1.271l.15.016a1.7,1.7,0,0,1,.913.264l-.067.406a26.614,26.614,0,0,0,6.628-1.424l14.731-5.107.234.232a3.373,3.373,0,0,1,.463,1.3c1.006.893,1.574,2.354,2.324,3.471,2.143,3.186,6.017,7.684,9.746,9.039a7.125,7.125,0,0,1,1.5.882c3.435,1.291,8.606,2.583,12.14.948a2.935,2.935,0,0,0,.393-.2l.412-.4a1.948,1.948,0,0,0,1.249-.606c-.253-1.445-2.987-3.911-4.046-5.054a20.96,20.96,0,0,0,2.505-3.282c.634-1.033,1.616-3.813,2.506-4.419a26.606,26.606,0,0,0,4.539-4.08c2.084.828,4.162,1.712,6.315,2.338,1.655.48,3.783.639,5.3,1.358l.241-.024a2.412,2.412,0,0,0,1.7-.92,5.258,5.258,0,0,0,1.912-1.471l4.83-5.2,1.116-.08Z" transform="translate(-855.802 -569.215)" fill="#87bd61"/>
          <path id="Trazado_994689" data-name="Trazado 994689" d="M1448.495,837.121c1.087,1.195,3.214,4.324,3.373,5.883.918,1.825.217,3.963.062,5.856a10.841,10.841,0,0,1-.1,2.033l-.172.388a14.763,14.763,0,0,0-.305-4.356,29.244,29.244,0,0,0-2.906-6.961,7.322,7.322,0,0,0-.825-1.37,5.512,5.512,0,0,0-.791-.466l.412-.4a1.947,1.947,0,0,0,1.249-.606" transform="translate(-1101.905 -637.549)" fill="#0f875a"/>
          <path id="Trazado_994690" data-name="Trazado 994690" d="M1210.36,787.854l1.171.045,0-.209a2.037,2.037,0,0,1,.138-.649,3.806,3.806,0,0,1,.966.29l.162-.924.424-.285a1.858,1.858,0,0,1,.894.769c.391-.455.493-.925,1.085-1.113a2.729,2.729,0,0,1,.525,1.555l.78-.569.367.106a4.486,4.486,0,0,1,.083.946l.165,0a4.026,4.026,0,0,1,.787.117,2.535,2.535,0,0,1-.763,1.271l.15.016a1.7,1.7,0,0,1,.913.264l-.067.406-.682.7c.4.3.725.466.93.941-.575.5-.722.417-1.449.4a2.815,2.815,0,0,0,.527,1,1.043,1.043,0,0,1-.644.591l-.951-.817-.224.106-.052,1.154a1.088,1.088,0,0,1-1.1.373,2.137,2.137,0,0,0-.637-1.071l-.512.942-.344.094-.2-.643-.644.325-.312-.325a4.361,4.361,0,0,0,.174-1.094,2.042,2.042,0,0,1-1.018.181c-.317-.055-.334-.213-.505-.464l.6-.949a10.063,10.063,0,0,1-1.314-.6c.3-.469.386-.448.889-.628l.033-.26-.725-.328.143-.52.856-.212Z" transform="translate(-921.376 -598.447)" fill="#fefefe"/>
          <path id="Trazado_994691" data-name="Trazado 994691" d="M1224.849,799.01l.942-.074a1.683,1.683,0,0,1,.834,1.028c-.179.765-.174.742-.837,1.167l-.36.09c-.539-.173-.584-.272-.937-.727a2.182,2.182,0,0,1,.358-1.484" transform="translate(-932.565 -608.468)" fill="#4f7a79"/>
          <path id="Trazado_994692" data-name="Trazado 994692" d="M1152.539,775.595c.172-.081.517-.312.689-.245,1.445.569,3.345,2.867,4.525,3.993l.1.559.629.924-.856.212-.143.52c-.236.417-.327.412-.751.6l-.081.081a25.981,25.981,0,0,1-2.405,1.706,29.165,29.165,0,0,0-6.327,6.533,31.633,31.633,0,0,0-3.65,7.008,33.94,33.94,0,0,0-1.209,4.086c-.222.961-.267,2.137-.958,2.843l-1.254,0a36.561,36.561,0,0,1,3.542-11.306,33,33,0,0,1,3.853-5.6c.854-1,3.45-2.921,3.655-3.995,1.285-.284,2.935-1.8,4.017-2.582l.851-.465-.029-.276a40.333,40.333,0,0,0-4.534-3.834l-.172-.1-.079-.636Z" transform="translate(-868.863 -590.495)" fill="#0f875a"/>
          <path id="Trazado_994693" data-name="Trazado 994693" d="M1126.077,784.309a4.867,4.867,0,0,0,1.13-2.1,27.176,27.176,0,0,1,1.588-3.151c1.089-1.829,3.7-5.4,5.836-5.939l.732.066-.207.527.544.571.725-.317.212.739.463.021.491-.534.083.078a2.062,2.062,0,0,0,.763.479,1.549,1.549,0,0,0,.25-1.121l.2.3.079.636.172.1a40.33,40.33,0,0,1,4.534,3.834l.029.276-.851.465c-1.082.782-2.732,2.3-4.017,2.582-.205,1.074-2.8,2.99-3.655,3.995a32.989,32.989,0,0,0-3.853,5.6,36.555,36.555,0,0,0-3.543,11.306l-2.532,0-1.557,0,.1-.222a7.942,7.942,0,0,0,.186-2.4l.265-4.744a46.106,46.106,0,0,1,.963-6.534c.246-1.059,1.271-3.584.87-4.518" transform="translate(-855.802 -588.806)" fill="#87bd61"/>
          <path id="Trazado_994694" data-name="Trazado 994694" d="M1126.077,784.309a4.867,4.867,0,0,0,1.13-2.1,27.176,27.176,0,0,1,1.588-3.151c1.089-1.829,3.7-5.4,5.836-5.939l.732.066-.207.527.048.587a17.757,17.757,0,0,0-5.867,7.047,15.432,15.432,0,0,1-1.278,2.568,31.959,31.959,0,0,1-1.075,4.441,49.734,49.734,0,0,0-1.252,9.89l-.017,3.017a4.276,4.276,0,0,1,0,.973,3.018,3.018,0,0,1-.465.5l-1.557,0,.1-.222a7.942,7.942,0,0,0,.186-2.4l.265-4.744a46.106,46.106,0,0,1,.963-6.534c.246-1.059,1.271-3.584.87-4.518" transform="translate(-855.802 -588.806)" fill="#0f875a"/>
          <path id="Trazado_994695" data-name="Trazado 994695" d="M1149.1,775.334l.544.571.725-.317.212.739.463.021.491-.534.083.078a2.062,2.062,0,0,0,.763.479,1.549,1.549,0,0,0,.25-1.121l.2.3.079.636.172.1a40.33,40.33,0,0,1,4.534,3.834l.029.276-.851.465c-1.082.782-2.732,2.3-4.017,2.582l-8.022,1.8a7.1,7.1,0,0,1-2.751.292,15.432,15.432,0,0,0,1.278-2.568,17.757,17.757,0,0,1,5.867-7.047Z" transform="translate(-869.747 -590.428)" fill="#a1ca7b"/>
          <path id="Trazado_994696" data-name="Trazado 994696" d="M1441.844,770.584a26.6,26.6,0,0,0,4.539-4.08c2.084.828,4.162,1.712,6.315,2.338,1.655.48,3.783.639,5.3,1.358.024.937.205,1.366-.4,2.107.11-.483.265-.733.012-1.19l-.875.4a54.42,54.42,0,0,1-6.339,2.878,13.172,13.172,0,0,1,2.117,4.491,5.49,5.49,0,0,1,1.48,1.673l1.716.908.043.163a40.98,40.98,0,0,0-6.017,11.226c-.51,1.529-.77,3.116-1.223,4.659l-2.7,0a5.73,5.73,0,0,1-1.769-.01l.172-.388a10.84,10.84,0,0,0,.1-2.033c.155-1.892.856-4.031-.062-5.856-.16-1.559-2.286-4.688-3.373-5.883-.253-1.445-2.987-3.911-4.046-5.054a20.957,20.957,0,0,0,2.505-3.282c.634-1.033,1.616-3.813,2.506-4.419" transform="translate(-1094.289 -583.768)" fill="#0f875a"/>
          <path id="Trazado_994697" data-name="Trazado 994697" d="M1456.342,803.66l.722-.137a1.78,1.78,0,0,1,.355.782,80.887,80.887,0,0,1,.043,8.192,24.173,24.173,0,0,1-.055,4.362,2.166,2.166,0,0,1-.231.557c-.16-1.559-2.286-4.688-3.373-5.883a2.043,2.043,0,0,0,.386-.174c1.254-.749,2.012-2.587,2.36-3.948a5.083,5.083,0,0,0-.207-3.751" transform="translate(-1107.213 -611.961)" fill="#87bd61"/>
          <path id="Trazado_994698" data-name="Trazado 994698" d="M1475.051,800.454l4.031-.86a13.171,13.171,0,0,1,2.117,4.491,5.492,5.492,0,0,1,1.48,1.673l1.716.908.043.163a40.976,40.976,0,0,0-6.017,11.226c-.51,1.529-.77,3.116-1.223,4.659l-2.7,0c.8-1,.417-4.51.42-5.821l-.071-16.431Z" transform="translate(-1122.978 -608.969)" fill="#87bd61"/>
          <path id="Trazado_994699" data-name="Trazado 994699" d="M1474.851,803.207l.2,0,.122,21.54c1.788-5.6,3.5-10.828,7.3-15.446a.878.878,0,0,0,.219-.662l-.017-.129,1.716.908.043.163a40.977,40.977,0,0,0-6.017,11.226c-.51,1.529-.77,3.116-1.223,4.659l-2.7,0c.8-1,.417-4.511.42-5.821Z" transform="translate(-1122.978 -611.718)" fill="#32a45f"/>
          <path id="Trazado_994700" data-name="Trazado 994700" d="M1153.778,844.538c1.576-1.757,2.985-3.606,4.67-5.278a32.979,32.979,0,0,1,21.995-9.5A46.616,46.616,0,0,1,1194.056,831a48.3,48.3,0,0,1-13.565,12.872,11.371,11.371,0,0,1-3.965,1.92l-.126.016-19.06,0-4.286,0a4.872,4.872,0,0,0,.725-1.271" transform="translate(-878.163 -631.89)" fill="#32a45f"/>
          <path id="Trazado_994701" data-name="Trazado 994701" d="M1153.778,853.849h.183c1.338-.028,2.732-.929,3.95-1.437l7.319-2.969,14.4-5a64,64,0,0,1,9.121-2.532l-.019.242c-2.9,1.528-6.456,2.436-9.543,3.592l-18.657,7.432c-.846.367-2.992,1.037-3.528,1.708l.338.229-4.286,0a4.871,4.871,0,0,0,.725-1.271" transform="translate(-878.163 -641.201)" fill="#59bf7e"/>
          <path id="Trazado_994702" data-name="Trazado 994702" d="M1512.563,747.8a37.233,37.233,0,0,1,9.438-.2l1.345.015,6.871.425a10.5,10.5,0,0,1,2.973.364h.141c-.129.559-.15.562-.61.906-.062,1.437-4.742,7.633-5.9,8.755a1.791,1.791,0,0,1-.677.372l-.076.567-.741.432c-.174.706-.849,1.177-1.364,1.659a33.135,33.135,0,0,1-4.885,4.01,7.477,7.477,0,0,1-1.583.773,1.88,1.88,0,0,1-1.373.722,5.255,5.255,0,0,1-1.95,1.06,18.217,18.217,0,0,1-6.322,1.511,16.1,16.1,0,0,1-8.778-2.093l-.043-.163L1497.31,766a5.491,5.491,0,0,0-1.48-1.673,13.174,13.174,0,0,0-2.117-4.491,54.429,54.429,0,0,0,6.339-2.878l.875-.4c.253.457.1.706-.012,1.19.606-.741.424-1.169.4-2.107l.241-.024a2.413,2.413,0,0,0,1.7-.92,5.258,5.258,0,0,0,1.912-1.471l4.83-5.2,1.116-.08Z" transform="translate(-1137.608 -569.215)" fill="#32a45f"/>
          <path id="Trazado_994703" data-name="Trazado 994703" d="M1493.713,790.4a54.419,54.419,0,0,0,6.339-2.878c.606,1.139-.067,4.371-.164,5.711-1.173.551-2.782,1.67-4.057,1.658a13.174,13.174,0,0,0-2.117-4.491" transform="translate(-1137.608 -599.774)" fill="#096a56"/>
          <path id="Trazado_994704" data-name="Trazado 994704" d="M1614.357,748.306l6.871.425a10.5,10.5,0,0,1,2.973.364c-1.078,1.181-9.045,4-10.988,4.832.391-1.562,1.328-3.937,1.161-5.5Z" transform="translate(-1228.619 -569.908)" fill="#096a56"/>
          <path id="Trazado_994705" data-name="Trazado 994705" d="M1617.664,764.541c-.775-1.6-2.642-3.221-3.781-4.651l10.359-4.476c-.062,1.437-4.742,7.633-5.9,8.755a1.792,1.792,0,0,1-.677.372" transform="translate(-1229.13 -575.322)" fill="#096a56"/>
          <path id="Trazado_994706" data-name="Trazado 994706" d="M1570.232,747.8a37.233,37.233,0,0,1,9.438-.2,3.642,3.642,0,0,1,.341.717,6.832,6.832,0,0,1-.362,1.349c-.315,1.22-.4,2.628-.806,3.789-.079.228-.534.34-.76.436l-6.125,2.481a7.89,7.89,0,0,1-2.525.932l.656-5.7a10.687,10.687,0,0,0,.143-3.809" transform="translate(-1195.277 -569.215)" fill="#096a56"/>
          <path id="Trazado_994707" data-name="Trazado 994707" d="M1533,749.819l1.116-.08a4.155,4.155,0,0,1,.46.678,10.509,10.509,0,0,1-.272,2.088c-.258,2.05-.176,4.4-.625,6.388a2.4,2.4,0,0,1-.241.633,15.516,15.516,0,0,1-4.666,2.143l-4.811,2.165c.1-1.238.462-2.991.019-4.158l-.06-.138c.606-.741.424-1.169.4-2.107l.241-.024a2.412,2.412,0,0,0,1.7-.92,5.26,5.26,0,0,0,1.912-1.471Z" transform="translate(-1160.616 -571)" fill="#096a56"/>
          <path id="Trazado_994708" data-name="Trazado 994708" d="M1576.555,788.182c-1.967-2.268-3.516-5.23-5.292-7.682a18.652,18.652,0,0,1,2.99-1.34l6.043-2.474c1.018.981,3.879,3.691,4.091,5.055-.174.706-.849,1.177-1.364,1.659a33.135,33.135,0,0,1-4.885,4.01,7.475,7.475,0,0,1-1.583.773" transform="translate(-1196.67 -591.522)" fill="#096a56"/>
          <path id="Trazado_994709" data-name="Trazado 994709" d="M1522.6,796.849a35.8,35.8,0,0,0,5.4-2.294l.26.381a37.718,37.718,0,0,1,3.814,5.521,4.416,4.416,0,0,1,1.02,2.056,5.253,5.253,0,0,1-1.95,1.06,18.221,18.221,0,0,1-6.322,1.511,16.1,16.1,0,0,1-8.778-2.093l-.043-.163,2.57-3.315a6.353,6.353,0,0,1,1.1-1.248c.87-.573,1.986-.694,2.835-1.343Z" transform="translate(-1154.584 -605.131)" fill="#096a56"/>
          <path id="Trazado_994710" data-name="Trazado 994710" d="M379.463,675.191a13.985,13.985,0,0,0,3.712-1.2,23.531,23.531,0,0,0,4.321,2.486c1.183.48,2.471.725,3.637,1.208l-.15,1.373-5.872-.133a18.6,18.6,0,0,0-3.031.035,2.018,2.018,0,0,0-1.185.632,2.518,2.518,0,0,0-.911,1.884,3.106,3.106,0,0,0,.855,2.377,2.744,2.744,0,0,0,1.824.866,97.249,97.249,0,0,0,10.6.112l1.224,7.676,2.412,23.815,1.053,10.768-23.073-.027-1.468.012-34.5.01-12.322.016-.457-15.99a72.361,72.361,0,0,1,1.44-13.658l1.423-6.341-.15-.108c-.321-.808.149-2.39.288-3.278.585-3.726,1.731-7.638,1.716-11.4l.066.042.019.785c.657.554,9.383.1,10.933.109,4.6.014,36.5.132,37.561-.452Z" transform="translate(-248.38 -513.314)" fill="#0cb8a1"/>
          <path id="Trazado_994711" data-name="Trazado 994711" d="M379.891,772.666l.148.035c1.033.23,2.133-.422,3.089-.787a7.662,7.662,0,0,0,1.59-.847,17.879,17.879,0,0,0,3.253-2.566c.325-.351,1.343-1.832,1.663-1.93a14.331,14.331,0,0,1,2.533.373c-1.029,1.184-1.855,2.482-2.938,3.637a17.7,17.7,0,0,1-5.809,3.835,10.808,10.808,0,0,1-3.661.963,21.517,21.517,0,0,0,.132-2.713" transform="translate(-289.224 -583.803)" fill="#164773"/>
          <path id="Trazado_994712" data-name="Trazado 994712" d="M380.243,757.662l8.508,1.862a.934.934,0,0,1-.266.937,11.829,11.829,0,0,1-2.824,2.7,19.285,19.285,0,0,1-2.741,1.433l-.577.255a3.4,3.4,0,0,1-.873.292l-1.3.323a75.279,75.279,0,0,0,.072-7.8" transform="translate(-289.537 -577.034)" fill="#164773"/>
          <path id="Trazado_994713" data-name="Trazado 994713" d="M540.282,768.594a1.791,1.791,0,0,1,1.259.025l-.018,9.353a19.973,19.973,0,0,1-3.536,2.219,2.143,2.143,0,0,1-.914.3l-.054-11.386c.518-.4,2.528-.417,3.263-.508" transform="translate(-408.992 -585.28)" fill="#164773"/>
          <path id="Trazado_994714" data-name="Trazado 994714" d="M339.166,683.782l.067.042.019.785c.657.554,9.383.1,10.933.109L347.3,701.292a35.283,35.283,0,0,1-6.788-1.732,16.866,16.866,0,0,0-3.2-.989l-.15-.108c-.321-.808.149-2.39.288-3.278.585-3.726,1.731-7.638,1.716-11.4" transform="translate(-256.698 -520.767)" fill="#029b86"/>
          <path id="Trazado_994715" data-name="Trazado 994715" d="M328.993,745.817a16.871,16.871,0,0,1,3.2.989,35.283,35.283,0,0,0,6.788,1.732l.1.1a75.279,75.279,0,0,1-.072,7.8l.034.434a21.524,21.524,0,0,1-.132,2.713l-1.013.087a1.809,1.809,0,0,0-.354.57,2.759,2.759,0,0,1,1.422.43l-.06,21.115-12.322.016-.457-15.99a72.359,72.359,0,0,1,1.44-13.658Z" transform="translate(-248.38 -568.013)" fill="#0b2d52"/>
          <path id="Trazado_994716" data-name="Trazado 994716" d="M430.963,751.666l2.412,23.815,1.053,10.768-23.073-.027-1.468.012-34.5.01.06-21.116a2.759,2.759,0,0,0-1.422-.43,8.378,8.378,0,0,0,2.48-.148,18.143,18.143,0,0,0,2.064-.588,28.841,28.841,0,0,0,2.8-1.2c.755-.409,1.395-1.007,2.117-1.45,1.954-1.2,3.24-3.321,4.626-5.081a5.3,5.3,0,0,1,.353-.446c.413-.189,2.869.345,3.458.418a83.839,83.839,0,0,0,20.194.064l.012,11.615a1.6,1.6,0,0,0-.322.952l.387.285,6.02-3.595-.062-10.139c4.437-.909,8.707-1.724,12.811-3.722" transform="translate(-284.854 -572.467)" fill="#164773"/>
          <path id="Trazado_994717" data-name="Trazado 994717" d="M523.988,844.983c-.063-2.227-.388-15.289.188-16.149l1.165-.03c.457.456.27,1.862.271,2.547l-.156,13.619Z" transform="translate(-398.955 -631.216)" fill="#0b2d52"/>
          <path id="Trazado_994718" data-name="Trazado 994718" d="M95.207,255.357c1.245-.5,2.576-.6,3.851-1.192,4.157-1.94,6.448-5.206,7.955-9.423a22.861,22.861,0,0,0,7.6,4.175c-1.078,4.263-1.674,8.629-2.866,12.867a7.88,7.88,0,0,1-1.177,3.127,5.211,5.211,0,0,0-2.14.581,25.563,25.563,0,0,0-4.469,1.806l1.3,2.9-12.692,4.135c-3.016,1.028-6.4,1.855-9.125,3.533a17.769,17.769,0,0,0-6.022,6.223,17.344,17.344,0,0,0-2.088,6.1,49.779,49.779,0,0,0-.237,6.672l0,9.407.044,28.191c-5.446.2-10.918.5-16.322,1.231l-7.192,1.2c-1.753.371-3.835,1.161-5.584,1.2a33.509,33.509,0,0,1-4.4-.509l0,13.046-.007,1.329-.029.86-.126,3.351c-.441.355-.568.306-1.117.333l-.011-4.851.014-.2,0-14.232a55.291,55.291,0,0,0-8.375.779,16.012,16.012,0,0,0-3.869.986,32.523,32.523,0,0,0-9.3-2.587,29.27,29.27,0,0,1-1.881-3.654,36.192,36.192,0,0,1-3.666-11.636l-2.285-4.492.155-.335,1.844-.3a54.614,54.614,0,0,1,34.138-51.509A50.674,50.674,0,0,1,63,260.374c3.935-.305,7.667.154,11.576.328a40.007,40.007,0,0,0,17.308-3.267c1.022-.413,2.888-1.048,3.325-2.078" transform="translate(-8.364 -186.395)" fill="#cfe9f5"/>
        </g>
      </g>
      <g id="Grupo_1177347" data-name="Grupo 1177347" transform="translate(31.982 126.794)">
        <g id="Grupo_1177346" data-name="Grupo 1177346" clip-path="url(#clip-path-2)">
          <rect id="Rectángulo_454841" data-name="Rectángulo 454841" width="2.448" height="43.356" transform="translate(-1.158 0.031) rotate(-1.532)" fill="url(#linear-gradient)"/>
        </g>
      </g>
      <g id="Grupo_1177349" data-name="Grupo 1177349">
        <g id="Grupo_1177348" data-name="Grupo 1177348" clip-path="url(#clip-path)">
          <path id="Trazado_994720" data-name="Trazado 994720" d="M111.182,391.938a84.491,84.491,0,0,0-.039,9.5l0,16.191a46.4,46.4,0,0,1-.212,7.746l-.157.087a21.863,21.863,0,0,1-7.282-13.738c-.814-7.643,3.064-14.059,7.687-19.782" transform="translate(-78.739 -298.499)" fill="#59bf7e"/>
          <path id="Trazado_994721" data-name="Trazado 994721" d="M135.293,391.938a6.166,6.166,0,0,1,1.816,1.909,31.728,31.728,0,0,1,4.95,8.84,20.016,20.016,0,0,1-.512,15.579,24.2,24.2,0,0,1-5.446,7.027l-1.056.078a46.4,46.4,0,0,0,.212-7.746l0-16.191a84.491,84.491,0,0,1,.039-9.5" transform="translate(-102.85 -298.499)" fill="#32a45f"/>
          <path id="Trazado_994722" data-name="Trazado 994722" d="M139.509,559.356c5.459-6.808,12.74-11.253,21.5-12.234a32.771,32.771,0,0,1,8.555.135,21.587,21.587,0,0,1-10.859,12.872c-6.016,3.223-12.529,3.871-19.217,2.9Z" transform="translate(-106.238 -416.522)" fill="#0f875a"/>
          <path id="Trazado_994723" data-name="Trazado 994723" d="M12.981,543.406a41.2,41.2,0,0,1,5.628.106,29.619,29.619,0,0,1,16.705,7.768,32.493,32.493,0,0,1,5.036,6.346l0,2.7.009,4.326a55.287,55.287,0,0,0-8.375.779,16.012,16.012,0,0,0-3.869.986,32.522,32.522,0,0,0-9.3-2.587,29.272,29.272,0,0,1-1.881-3.654,36.2,36.2,0,0,1-3.666-11.636l-2.285-4.492.155-.335Z" transform="translate(-8.364 -413.823)" fill="#59bf7e"/>
          <path id="Trazado_994724" data-name="Trazado 994724" d="M20.568,565.068c4.657,6.627,10.063,10.762,18.17,12.132a29.944,29.944,0,0,0,8.916-.344l.009,4.326a55.3,55.3,0,0,0-8.375.779,16.012,16.012,0,0,0-3.869.986,32.524,32.524,0,0,0-9.3-2.587,29.272,29.272,0,0,1-1.881-3.654,36.193,36.193,0,0,1-3.666-11.636" transform="translate(-15.665 -430.354)" fill="#cfe9f5"/>
          <path id="Trazado_994725" data-name="Trazado 994725" d="M310.062,334.6l-1.3-2.9a25.562,25.562,0,0,1,4.469-1.806,5.211,5.211,0,0,1,2.14-.581c1.518,3.2,5.99,5.682,8.842,7.62l9.156,6.111c.224-1.382,1.524-3.271,2.071-4.666a33.644,33.644,0,0,0,1.793-8.256l6.566,1.339,1.2,4.352c4.578,1.464,7.121,3.711,10.392,7.152a24.424,24.424,0,0,1,4.968,7.893c1.483,3.7,2.171,7.868,3.079,11.744l4.441,19.183c.128.57.569,3.579.89,3.929a20.412,20.412,0,0,0,3.579,1.434l13.432,5.566-1.005,2.768a23.88,23.88,0,0,0-9.2,10.569c-.56,1.349-.863,2.808-1.294,4.2l-.436.032-1.192,1.678c-.147.259-.283.353-.2.654.282,1.065.657,1.719.032,2.793a3.977,3.977,0,0,1-1.3,1.207l-3.708-.15-3.8-.053-7.755-1.243c-1.166-.483-2.454-.728-3.637-1.208a23.529,23.529,0,0,1-4.321-2.486,13.984,13.984,0,0,1-3.712,1.2l-.037,1.621c-1.059.585-32.957.466-37.561.452-1.55-.011-10.276.445-10.933-.109l-.019-.785-.067-.042c-1.423-.106-2.838.023-4.277-.149a13.01,13.01,0,0,1-7.112-3.455c-3.489-3.209-4.116-6.8-4.308-11.342l-.044-28.191,0-9.407a49.783,49.783,0,0,1,.237-6.672,17.343,17.343,0,0,1,2.088-6.1,17.769,17.769,0,0,1,6.022-6.223c2.722-1.677,6.11-2.5,9.125-3.533Z" transform="translate(-213.166 -250.796)" fill="#0cb8a1"/>
          <path id="Trazado_994726" data-name="Trazado 994726" d="M343.94,459.334c1.283-.5,3.31-.239,4.711-.244l9.7-.048,32.963-.237-.026-12.9-31.665-5.955-8.735-1.594a12.749,12.749,0,0,1-3.652-.828c-.1-.539-.078-.529.221-1a12.517,12.517,0,0,1,3.72.523l-.1-21.237L351.06,405.8c0-2.691.244-5.441-.585-8.033a11.706,11.706,0,0,0-6.115-7.27c-.484-.255-.955-.411-1.127-.941l.491-.531c1.645.22,3.547,1.656,4.7,2.8a14.43,14.43,0,0,1,3.722,7.22,25.491,25.491,0,0,1,.172,4.539l.016,7.893.088,25.818c4.682,1.075,39.249,6.915,40.083,7.673v1.6l-.019,11.586-.037,1.621c-1.059.585-32.957.466-37.561.452-1.55-.011-10.276.445-10.933-.109Z" transform="translate(-261.406 -296.277)" fill="#164773"/>
          <path id="Trazado_994727" data-name="Trazado 994727" d="M402.286,334.6l-1.3-2.9a25.563,25.563,0,0,1,4.469-1.806,5.211,5.211,0,0,1,2.14-.581c1.518,3.2,5.99,5.682,8.842,7.62l9.156,6.111c.224-1.382,1.524-3.271,2.072-4.666a33.642,33.642,0,0,0,1.793-8.256l6.566,1.339,1.2,4.352,4.117,14.175-15.8-6.717a59.491,59.491,0,0,1-6.531,3.9l-8.34,4.728Z" transform="translate(-305.39 -250.796)" fill="#0e95a3"/>
          <path id="Trazado_994728" data-name="Trazado 994728" d="M562.144,617.219a17.747,17.747,0,0,1,5.3.14,26.1,26.1,0,0,1,9.521,4.974,2.678,2.678,0,0,1,1.175,1.735,3.235,3.235,0,0,1-.746,1.483c.759.823,2.175,2.13,2.144,3.285l-.106.627-1.192,1.678c-.147.259-.283.353-.2.654.282,1.065.657,1.719.032,2.793a3.978,3.978,0,0,1-1.3,1.208l-3.708-.15-3.8-.053-7.755-1.244c-1.166-.483-2.454-.728-3.637-1.208a23.53,23.53,0,0,1-4.321-2.486,13.99,13.99,0,0,1-3.712,1.2l.019-11.586,3.339.615a21.5,21.5,0,0,1,8.945-3.661" transform="translate(-418.758 -469.974)" fill="#ea965b"/>
          <path id="Trazado_994729" data-name="Trazado 994729" d="M623.453,676.156l.1-.2a2.256,2.256,0,0,0,.366-1.435c-1.588-2.282-5.243-3.4-7.839-4.064L616,670.28c4.528.058,8.061,3.083,11.16,6.026Z" transform="translate(-469.145 -510.484)" fill="#164773"/>
          <path id="Trazado_994730" data-name="Trazado 994730" d="M597.219,441.685a28.863,28.863,0,0,1,.509-7.583,36.555,36.555,0,0,1,3.283-7.256,26.078,26.078,0,0,0,2.765-13.941,27.491,27.491,0,0,0-.993-5.44L597,390.447a22.621,22.621,0,0,1-1.106-3.313,2.552,2.552,0,0,1,.162-.526,24.423,24.423,0,0,1,4.968,7.893c1.483,3.7,2.171,7.868,3.08,11.744l4.441,19.183c.128.57.569,3.579.89,3.929a20.415,20.415,0,0,0,3.579,1.434l13.432,5.566-1.005,2.768a23.88,23.88,0,0,0-9.2,10.569c-.56,1.349-.863,2.808-1.294,4.2l-.437.032.106-.627c.031-1.155-1.385-2.462-2.144-3.285a3.234,3.234,0,0,0,.746-1.483,2.679,2.679,0,0,0-1.175-1.735,26.1,26.1,0,0,0-9.521-4.974,17.746,17.746,0,0,0-5.3-.14" transform="translate(-453.833 -294.44)" fill="#0a7e6f"/>
          <path id="Trazado_994731" data-name="Trazado 994731" d="M812.784,526.008a3.076,3.076,0,0,1,1.514-.169l.169.22a2.817,2.817,0,0,1,.284.926c.124,1.418.021,2.953.024,4.382l0,8.763c0,1.547.339,4.381-.143,5.77l-.112.28c7.276,1.521,13.832,3.132,20.631,6.234l.15.319c2.344-.058,4.728-.961,7.131-1.08l.935-.12.243.352-.336.815a2.357,2.357,0,0,1,.048,1.128,1.337,1.337,0,0,1-.06,1.449c.486,3.608-.641,7.648-1.709,11.086a9.046,9.046,0,0,1-.808,2.281,1.616,1.616,0,0,1-.448.394l.067.754-.57.549c.365,2.064-3.91,6.712-4.556,8.919l-4.83,5.2a5.26,5.26,0,0,1-1.912,1.471,2.413,2.413,0,0,1-1.7.92l-.241.024c-1.514-.718-3.643-.878-5.3-1.358-2.153-.625-4.232-1.51-6.315-2.338a26.615,26.615,0,0,1-4.539,4.08c-.889.606-1.872,3.385-2.506,4.419a20.958,20.958,0,0,1-2.506,3.282c1.058,1.144,3.793,3.609,4.046,5.054a1.948,1.948,0,0,1-1.249.606l-.412.4a2.929,2.929,0,0,1-.393.205c-3.533,1.635-8.7.343-12.139-.948a7.13,7.13,0,0,0-1.5-.882c-3.729-1.354-7.6-5.852-9.746-9.039-.751-1.117-1.318-2.578-2.324-3.471a3.377,3.377,0,0,0-.462-1.3l-.234-.232-14.731,5.107a26.615,26.615,0,0,1-6.628,1.424l.067-.406a1.7,1.7,0,0,0-.913-.264l-.15-.016a2.534,2.534,0,0,0,.763-1.271,4.027,4.027,0,0,0-.787-.117l-.164,0a4.485,4.485,0,0,0-.083-.945l-.367-.106-.78.569a2.73,2.73,0,0,0-.524-1.555c-.591.189-.694.658-1.085,1.113a1.859,1.859,0,0,0-.894-.769l-.424.285-.162.924a3.8,3.8,0,0,0-.966-.29,2.038,2.038,0,0,0-.138.649l0,.209-1.171-.045-.1-.559c-1.18-1.126-3.08-3.424-4.525-3.993-.172-.068-.517.164-.689.245l-.591.023-.2-.3a1.548,1.548,0,0,1-.25,1.121,2.064,2.064,0,0,1-.763-.479l-.083-.077-.491.534-.462-.021-.212-.739-.725.317-.544-.571.207-.527-.732-.066c-2.131.544-4.747,4.111-5.836,5.939a27.167,27.167,0,0,0-1.588,3.151,4.869,4.869,0,0,1-1.13,2.1c.4.934-.625,3.459-.87,4.518a46.089,46.089,0,0,0-.963,6.534l-.265,4.744a7.949,7.949,0,0,1-.186,2.4l-.1.222-9.386,0-7.345-.006H702.818l-90.4-.133-1.054-10.768-2.412-23.815-1.224-7.676,11.918.021,24.715-.005,18.816.018c3.156,0,6.413.165,9.557-.014a8.088,8.088,0,0,0,6.605-3.917c1.17-1.943,1.79-4.682,2.565-6.843l4.729-12.923a1.333,1.333,0,0,0,.474.092,18.513,18.513,0,0,0,2.768-.489l5.011-.9,12.464-1.623,9.26-1.011a13.628,13.628,0,0,0,2.6-.244,1.66,1.66,0,0,0,.291-.324l.064.143a7.468,7.468,0,0,1,.248,2.764l.01,5.135c0,2.481-.441,5.15,2.243,6.4a6.254,6.254,0,0,0,2.439.342l45.583-.092,16.55.005a68.352,68.352,0,0,0,8.308-.1c.806-.805.641-1.42.646-2.515a4.423,4.423,0,0,0-.351-2.259l.324-.577c.01-1.873.441-7.611-.317-9a16.407,16.407,0,0,0,3.969.381l6.589.478c1.13.122,6.48,1.088,6.973.863a3.229,3.229,0,0,0,.231-.482c.37-.985.088-3.412.091-4.554l0-9.164c0-1.5.1-3.1-.033-4.586a3.185,3.185,0,0,0-.284-.976" transform="translate(-462.847 -400.44)" fill="#a1ca7b"/>
          <path id="Trazado_994732" data-name="Trazado 994732" d="M1168.537,759.848l.584-.552-.908-.636c.3-.436.958-.319.825-.809l-.289-.569a1.077,1.077,0,0,1,.732-.182,3.831,3.831,0,0,0-.212-1.1l.849.533.682-.845.162.142.639.492.636-.569a1.3,1.3,0,0,1,.21.9l.925-.328.186.318-.174.636.229.3.849-.049.15.319-.892.607a3.588,3.588,0,0,0,.9.836l-.262.308-.741.047a2.133,2.133,0,0,0-.229.983l-.591.023-.2-.3a1.549,1.549,0,0,1-.25,1.121,2.064,2.064,0,0,1-.763-.479l-.083-.078-.491.534-.463-.021-.212-.739-.725.317-.544-.571.207-.527Z" transform="translate(-889.708 -575.535)" fill="#fefefe"/>
          <path id="Trazado_994733" data-name="Trazado 994733" d="M1247.277,739.573l.689-.037a1.733,1.733,0,0,0,1.023.5l.52-.477.434.156a1.811,1.811,0,0,0,.424,1.016l1.059-.15.288.366-.381.954c.26.665.553.725,1.154,1.069.45.955-.884.93-.849,1.461.033.489.555.643.5,1.378l-.98.447-.134,1.155-.448.167-.849-.51-.842.941-.148.022-.7-.832-.956.511-.374-.218-.055-.928c-.477-.49-.772.04-1.5-.212-.336-.748.265-.765.239-1.483l-.956-.55-.062-.4a2.183,2.183,0,0,0,.815-.956l-.572-.954.174-.318a2.363,2.363,0,0,0,1.128-.156,3.6,3.6,0,0,0-.1-1.115l.308-.179.741.265.367-.2Z" transform="translate(-947.712 -563.229)" fill="#d66b27"/>
          <path id="Trazado_994734" data-name="Trazado 994734" d="M1257.485,751.248a2.3,2.3,0,0,1,1.218.479.567.567,0,0,0,.253.379l.153.122.021.5c-.565.412-.687.818-1.271,1.272l-.079.091a7.978,7.978,0,0,1-1.214-.9,2.884,2.884,0,0,1-.031-1.783Z" transform="translate(-956.878 -572.149)" fill="#fefefe"/>
          <path id="Trazado_994735" data-name="Trazado 994735" d="M1050.44,782.447c.176-2.092-2.746-6.132-4.117-7.753a16.036,16.036,0,0,0-2.825-2.584c-.932-.678-3.984-2.021-4.375-2.9l.4-.728a2.591,2.591,0,0,1,1.9.525,22.3,22.3,0,0,1,10.788,12.88,1.392,1.392,0,0,1,.045.533,2.126,2.126,0,0,1,.276.4,19.155,19.155,0,0,1,1.078,3.448,73.394,73.394,0,0,1,1.752,9.164,10.3,10.3,0,0,1,.219,3.5,4.224,4.224,0,0,1-.937.107,2.092,2.092,0,0,1-.625-.168c-.417-.618-.365-3.511-.474-4.375a62.279,62.279,0,0,0-1.91-9.19,6.352,6.352,0,0,0-1.1-2.781Z" transform="translate(-791.394 -585.237)" fill="#0f875a"/>
          <path id="Trazado_994736" data-name="Trazado 994736" d="M1044.438,718.243c1.342.031.546.87,1.564,1.4.675-.419.474-.992,1.094-1.43a6.02,6.02,0,0,0,.6.974l.339-.388c.37-.023.627.682,1.137.956l.157.083a11.809,11.809,0,0,1-.818,1.483c.694.606,1.378.109,2,.636a7.125,7.125,0,0,0-.7.727l.849.171.153.48c-.017.1-.124.776-.153.8-.267.221-.889.06-1.361.47l.658.848-.038.288-1.061.032c-.522.454-.029.629-.1,1.284a4.388,4.388,0,0,1-.8-.076l-.2-.045-.276.7-.637,0-.851-.918-.088-.262-.374.008-.594,1.427-.315-.018-.694-.941a1.976,1.976,0,0,0-.7.436l-.093.08-.339-.41.327-.954c-.4-.548-1.187-.039-1.836-.424l.894-1.013-.064-.258-.889-.155c-.439-.153-.515-.412-.66-.8.312-.462.82-.453,1.078-.848-.422-.25-.617-.262-.765-.742l.455-.28a4.416,4.416,0,0,0,1.271.165,2.389,2.389,0,0,0-.563-1.58l.138-.495a1.091,1.091,0,0,1,.815-.141l.243-.754c.751-.1.646.457,1.3.615Z" transform="translate(-792.498 -546.988)" fill="#ea965b"/>
          <path id="Trazado_994737" data-name="Trazado 994737" d="M1056.659,734.286a2.364,2.364,0,0,1,1.459.282,2.135,2.135,0,0,1,.584,1.521,1.979,1.979,0,0,1-1.175,1,1.85,1.85,0,0,1-.968-.083,2.369,2.369,0,0,1-.806-1.337,2.6,2.6,0,0,1,.906-1.379" transform="translate(-804.059 -559.214)" fill="#fefefe"/>
          <path id="Trazado_994738" data-name="Trazado 994738" d="M996.577,788.86a2.837,2.837,0,0,0-1.428-.084c.31.374.532.493.524.99-.665.242-.83-.042-1.476-.223a1.166,1.166,0,0,1-.212.89l-.482.093-.768-.743c-.033.581.052.8-.4,1.233l-.579-.12-.417-.742c-.253,0-.5.259-.7.409l-.5-.091.079-.817-.715.372a1.416,1.416,0,0,1-1.039-.509l.393-.742a2.07,2.07,0,0,1-1.1-.212l-.114-.424.939-.848a2.915,2.915,0,0,1-1.783-.6l.024-.456a3.844,3.844,0,0,0,1.295-.561l-.586-.816c.408-.521.756-.262,1.311-.53l-.586-1.06.477-.505a3.828,3.828,0,0,1,1.013.309l.1.047.133-.725.553-.088.667.607c.555-.54.06-1.286.815-1.865.567.315.555.769.741,1.368.527-.233.713-.415,1.3-.245l-.036.779.222.212.846-.582c.439.18.417.159.613.592l-.57,1.033.062.166a4.389,4.389,0,0,1,1.23-.3l.529.677c-.253.538-.7.6-1.228.834l.794.426.2.086.071.349-.856.552v.247l1.016.586.222.418Z" transform="translate(-751.547 -594.843)" fill="#fefefe"/>
          <path id="Trazado_994739" data-name="Trazado 994739" d="M1004.937,797.461a4.36,4.36,0,0,1,1.013.214,1.681,1.681,0,0,1,.5,1.589,2.147,2.147,0,0,1-1.683.942l-.539-.375c-.241-.491-.5-.848-.305-1.415.205-.595.489-.72,1.013-.956" transform="translate(-764.534 -607.344)" fill="#164773"/>
          <path id="Trazado_994740" data-name="Trazado 994740" d="M1028.18,809.12c1.109-.348,1.7.126,2.689.644a28.242,28.242,0,0,1,4.839,3.224,4.506,4.506,0,0,1,1.278,1.26,15.121,15.121,0,0,0,4.833-.9l.1.085a6.352,6.352,0,0,1,1.1,2.781,62.275,62.275,0,0,1,1.91,9.19c.109.864.057,3.757.474,4.375a2.092,2.092,0,0,0,.625.168,4.228,4.228,0,0,0,.937-.108,10.3,10.3,0,0,0-.219-3.5,73.392,73.392,0,0,0-1.752-9.164,19.164,19.164,0,0,0-1.078-3.448,2.128,2.128,0,0,0-.276-.4l9.414-1.681c.4.934-.625,3.46-.87,4.518a46.089,46.089,0,0,0-.963,6.534l-.265,4.744a7.95,7.95,0,0,1-.186,2.4l-.1.222-9.386,0a.8.8,0,0,0-.052-.583v-.542a33.246,33.246,0,0,0-8.089-9.616,37.028,37.028,0,0,0-5.3-3.2c1.557-.37,3.156-.571,4.735-.837a4.887,4.887,0,0,0,2.3-.669l-.064-.341a22.659,22.659,0,0,0-7-4.113l.6-.612Z" transform="translate(-782.772 -616.133)" fill="#87bd61"/>
          <path id="Trazado_994741" data-name="Trazado 994741" d="M1028.18,809.12c1.109-.348,1.7.126,2.689.644a28.242,28.242,0,0,1,4.839,3.224,4.506,4.506,0,0,1,1.278,1.26l.405.261a12.645,12.645,0,0,1,2.434,2.684,26.8,26.8,0,0,1,4.818,11.628l.05.954a3.534,3.534,0,0,1-1.428.087c-.975-4.852-2.46-9.159-5.779-12.948a11.908,11.908,0,0,0-2.022-2.072,2.1,2.1,0,0,0-.6-.237l-.064-.341a22.659,22.659,0,0,0-7-4.113l.6-.612Z" transform="translate(-782.772 -616.133)" fill="#0f875a"/>
          <path id="Trazado_994742" data-name="Trazado 994742" d="M936.158,829.33l-2.315-5.186a51.805,51.805,0,0,1,22.431,3.419,37.024,37.024,0,0,1,5.3,3.2,33.25,33.25,0,0,1,8.089,9.616v.542a.8.8,0,0,1,.052.583l-7.345-.006H951.184c-1.235-.568-2.546-.937-3.776-1.534-4.966-2.407-8.363-5.994-11.25-10.637" transform="translate(-711.213 -627.586)" fill="#32a45f"/>
          <path id="Trazado_994743" data-name="Trazado 994743" d="M981.588,856.775a18.168,18.168,0,0,1,4.668-.156L959.073,844.1a59.85,59.85,0,0,1,7.517,2.378l15.9,6.519c2.136.955,4.615,1.649,6.389,3.2a.8.8,0,0,1,.052.583Z" transform="translate(-730.428 -642.862)" fill="#59bf7e"/>
          <path id="Trazado_994744" data-name="Trazado 994744" d="M699.408,846.234c2.887,4.642,6.284,8.23,11.25,10.637,1.23.6,2.541.966,3.776,1.534l-90.4-.133L622.984,847.5Z" transform="translate(-474.463 -644.49)" fill="#87bd61"/>
          <path id="Trazado_994745" data-name="Trazado 994745" d="M1350.922,526.008a3.076,3.076,0,0,1,1.514-.169l.169.22a2.819,2.819,0,0,1,.284.926c.124,1.418.021,2.953.024,4.382l0,8.763c0,1.547.339,4.381-.143,5.77l-.112.28c7.276,1.521,13.832,3.132,20.631,6.234l.15.319c2.344-.058,4.728-.961,7.131-1.08l.935-.12.243.352-.336.815a2.355,2.355,0,0,1,.048,1.128,1.337,1.337,0,0,1-.06,1.449c.486,3.608-.641,7.648-1.709,11.086a9.048,9.048,0,0,1-.808,2.281,1.616,1.616,0,0,1-.448.394l.067.754-.57.549c.365,2.064-3.91,6.712-4.556,8.919l-4.83,5.2a5.26,5.26,0,0,1-1.912,1.471,2.413,2.413,0,0,1-1.7.92l-.241.024c-1.514-.718-3.643-.878-5.3-1.358-2.153-.625-4.232-1.51-6.315-2.338a26.613,26.613,0,0,1-4.539,4.08c-.889.606-1.871,3.385-2.506,4.419a20.962,20.962,0,0,1-2.506,3.282c1.058,1.144,3.793,3.609,4.046,5.054a1.947,1.947,0,0,1-1.249.606l-.412.4a2.93,2.93,0,0,1-.393.205c-3.533,1.635-8.7.343-12.139-.948a7.131,7.131,0,0,0-1.5-.882c-3.729-1.354-7.6-5.852-9.746-9.039-.751-1.117-1.318-2.578-2.324-3.471a3.376,3.376,0,0,0-.462-1.3l-.234-.232a17.4,17.4,0,0,0-1.263-3.29,51.575,51.575,0,0,1-1.609-5.065,58.437,58.437,0,0,1-1.316-6.294c-.2-1.338-.253-2.717-.56-4.033l-.041-.175.2-.634.284.007c5.2.12,11.333,2.488,15.935,4.851a12.719,12.719,0,0,1,2.7,1.559.85.85,0,0,1,.167.2,3.515,3.515,0,0,1,1.24.845c1.688.4,3.495,2.09,4.8,3.183a10.1,10.1,0,0,1,1.612,1.443.717.717,0,0,1,.131.263c.811-.847.844-1.848,1.237-2.946a23.8,23.8,0,0,1,1.662-3.621c1.13-2.02,3-3.613,4.041-5.572a3.329,3.329,0,0,0,1.063-1.061,13.731,13.731,0,0,0,1.74-1.359,31.908,31.908,0,0,0,.093-5.278l0-8.464c0-1.29.231-2.968-.3-4.139a3.223,3.223,0,0,0,.231-.482c.37-.985.088-3.412.091-4.554l0-9.164c0-1.5.1-3.1-.033-4.586a3.181,3.181,0,0,0-.284-.976" transform="translate(-1000.985 -400.44)" fill="#59bf7e"/>
          <path id="Trazado_994746" data-name="Trazado 994746" d="M1394.263,823.969l5.722-2.633c.741-.386,2.911-1.886,3.583-1.829.925,1.045,3.531,3.451,3.64,4.8l-.413.4a2.934,2.934,0,0,1-.393.205c-3.533,1.635-8.7.343-12.14-.948" transform="translate(-1061.867 -624.133)" fill="#0a7e6f"/>
          <path id="Trazado_994747" data-name="Trazado 994747" d="M1427.863,706.9c.811-.847.844-1.848,1.237-2.946a23.8,23.8,0,0,1,1.662-3.621c1.13-2.02,3-3.613,4.041-5.572a9.138,9.138,0,0,1,.656,3.067c.188,1.484.384,3.017.682,4.482a48.765,48.765,0,0,0,2.534,8.28c-1.037,1.237-2.52,3.2-3.967,3.9a9.75,9.75,0,0,1-.741-1.232,1.5,1.5,0,0,0-.772.552l.265-.812a18.708,18.708,0,0,0-5.6-6.1" transform="translate(-1087.457 -529.131)" fill="#0f875a"/>
          <path id="Trazado_994748" data-name="Trazado 994748" d="M1529.616,635.356c2.344-.058,4.727-.961,7.131-1.08a2.165,2.165,0,0,1-.126.445,13.469,13.469,0,0,1-1.8,1.684l-7.207,7.212-5.653,6.008a48.67,48.67,0,0,1-1.574-5.858c-.3-1.46-.3-3.5-1-4.787l6.032-2.217a21.9,21.9,0,0,0,4.191-1.407" transform="translate(-1157.166 -483.063)" fill="#0a7e6f"/>
          <path id="Trazado_994749" data-name="Trazado 994749" d="M1316.353,693.89c5.2.12,11.333,2.488,15.935,4.851a12.721,12.721,0,0,1,2.7,1.559.85.85,0,0,1,.167.2,1.954,1.954,0,0,1,.143.414c.341,1.673-2.1,6.9-3.118,8.373l-10.564-10.59c-1.552-1.527-3.268-3.566-5.114-4.718Z" transform="translate(-1002.531 -528.465)" fill="#0a7e6f"/>
          <path id="Trazado_994750" data-name="Trazado 994750" d="M1545.73,655.006l-11.737-1.141,0-.175,14.712-15.022a2.357,2.357,0,0,1,.048,1.128,1.338,1.338,0,0,1-.06,1.449c.486,3.608-.641,7.648-1.709,11.086a9.044,9.044,0,0,1-.808,2.281,1.615,1.615,0,0,1-.448.394" transform="translate(-1168.286 -486.408)" fill="#0a7e6f"/>
          <path id="Trazado_994751" data-name="Trazado 994751" d="M1314.323,696.519c.329.066.536.03.751.3l14.824,15.347a31.4,31.4,0,0,1-10.552,3.438l-.234-.232a17.4,17.4,0,0,0-1.263-3.29,51.578,51.578,0,0,1-1.609-5.065,58.447,58.447,0,0,1-1.316-6.294c-.2-1.338-.253-2.717-.56-4.033Z" transform="translate(-1000.985 -530.467)" fill="#0a7e6f"/>
          <path id="Trazado_994752" data-name="Trazado 994752" d="M1390.724,725.174c1.688.4,3.495,2.09,4.8,3.183a10.105,10.105,0,0,1,1.612,1.443.713.713,0,0,1,.131.263,18.708,18.708,0,0,1,5.6,6.1l-.265.812a2.687,2.687,0,0,1,.231.727c.343,2.509-2.734,6.134-4.232,8.032l-7.741-8.043c-.832-.864-2.663-2.366-3.154-3.422a.271.271,0,0,1-.012-.124,9.027,9.027,0,0,1,1.132-2.362c.825-1.615,2.115-4.63,1.924-6.466Z" transform="translate(-1056.86 -552.291)" fill="#0a7e6f"/>
          <path id="Trazado_994753" data-name="Trazado 994753" d="M1337.333,770.5a40.563,40.563,0,0,0,8.466-2.378c.885-.363,1.683-.911,2.575-1.239l10.864,11.432a47.427,47.427,0,0,1-9.834,4.695c-3.729-1.354-7.6-5.852-9.746-9.039-.751-1.117-1.318-2.578-2.324-3.471" transform="translate(-1018.51 -584.058)" fill="#0a7e6f"/>
          <path id="Trazado_994754" data-name="Trazado 994754" d="M1493.808,722.949c-.42-.527-2.823-.682-3.562-.845a48.5,48.5,0,0,1-7.04-2.142c-.51-.2-1.593-.533-1.893-1l11.713-13.256,11.839,1.253.241.407c.365,2.064-3.91,6.711-4.556,8.919l-4.83,5.2a5.258,5.258,0,0,1-1.912,1.471" transform="translate(-1128.165 -537.461)" fill="#0a7e6f"/>
          <path id="Trazado_994755" data-name="Trazado 994755" d="M1462.961,526.008a3.076,3.076,0,0,1,1.514-.169l.169.22a2.816,2.816,0,0,1,.284.926c.124,1.418.022,2.953.024,4.382l0,8.763c0,1.547.339,4.381-.143,5.77l-.112.28c7.276,1.521,13.832,3.132,20.631,6.234l.15.319a21.9,21.9,0,0,1-4.191,1.407l-6.031,2.217-1.307.612c.725,1.359.663,3.367,1,4.876.486,2.168,1.373,4.2,1.931,6.321l-11.579,12.9a46.268,46.268,0,0,1-2.982-10.567c-.3-1.712-.181-3.92-.882-5.485a13.724,13.724,0,0,0,1.74-1.359,31.908,31.908,0,0,0,.093-5.278l0-8.464c0-1.29.231-2.968-.3-4.139a3.248,3.248,0,0,0,.231-.482c.37-.985.088-3.412.091-4.554l0-9.164c0-1.5.1-3.1-.033-4.586a3.185,3.185,0,0,0-.284-.976" transform="translate(-1113.024 -400.44)" fill="#096a56"/>
          <path id="Trazado_994756" data-name="Trazado 994756" d="M1475.1,611.321c7.276,1.521,13.832,3.132,20.631,6.234l.15.319a21.908,21.908,0,0,1-4.191,1.407l-6.032,2.217-1.306.612a35.5,35.5,0,0,1-3.993,2.062c-1.662.905-3.257,1.979-4.854,2.995a7.34,7.34,0,0,1-.1-2.383l-.019-9.229a12.833,12.833,0,0,0-.231-4.1Z" transform="translate(-1123.435 -465.581)" fill="#a1ca7b"/>
          <path id="Trazado_994757" data-name="Trazado 994757" d="M475.95,96.836c10.8-2.691,22.281-1.638,31.921,4.179a41.379,41.379,0,0,1,9.709,7.533c2.2,2.494,3.963,5.142,6.427,7.417,7.774,7.178,20.351,11,30.681,8.46a34.938,34.938,0,0,0,15.093-8.068,94.652,94.652,0,0,1,7.705-6.761,30.205,30.205,0,0,1,19.008-5.289,29.3,29.3,0,0,1,13.844,3.99c4.01,2.424,6.871,5.966,10.4,8.931a26.25,26.25,0,0,0,9.586,5.164,23.747,23.747,0,0,0,9.677.914c2.136-.256,4.227-.833,6.353-1.147a55.788,55.788,0,0,1,9.817-.609c24.677.68,46.047,16.922,56.337,38.845a63.524,63.524,0,0,1,4.418,11.946,64.242,64.242,0,0,1-7.669,49.681c-.494.812-1.278,1.634-1.681,2.449-.322.653.012.942-.6,1.6a2.357,2.357,0,0,0-.048-1.128l.336-.815-.243-.352-.935.12c-2.4.12-4.787,1.022-7.131,1.08l-.15-.319c-6.8-3.1-13.355-4.713-20.631-6.234l.112-.28c.482-1.389.141-4.222.143-5.77l0-8.763c0-1.429.1-2.964-.024-4.382a2.818,2.818,0,0,0-.284-.926l-.169-.22a3.075,3.075,0,0,0-1.514.169,3.185,3.185,0,0,1,.284.976c.129,1.485.029,3.089.033,4.586l0,9.164c0,1.142.279,3.569-.091,4.554a3.234,3.234,0,0,1-.231.482c-.494.224-5.843-.741-6.973-.864l-6.589-.478a16.4,16.4,0,0,1-3.969-.381c.758,1.391.327,7.129.317,9l-.324.577a4.423,4.423,0,0,1,.35,2.259c0,1.094.16,1.71-.646,2.515a68.348,68.348,0,0,1-8.308.1l-16.55-.005-45.582.092a6.255,6.255,0,0,1-2.439-.342c-2.684-1.251-2.241-3.92-2.243-6.4l-.01-5.135a7.468,7.468,0,0,0-.248-2.764l-.064-.143a1.664,1.664,0,0,1-.291.324,13.624,13.624,0,0,1-2.6.244l-9.26,1.011-12.464,1.623-5.011.9a18.52,18.52,0,0,1-2.768.489,1.333,1.333,0,0,1-.474-.092l-4.729,12.923c-.775,2.161-1.4,4.9-2.565,6.843a8.439,8.439,0,0,1-3.5,3.16,8.525,8.525,0,0,1-3.1.756c-3.145.179-6.4.016-9.557.014l-18.816-.018-24.715.005-11.918-.021a97.241,97.241,0,0,1-10.6-.112,2.744,2.744,0,0,1-1.824-.866,3.106,3.106,0,0,1-.855-2.377,2.518,2.518,0,0,1,.911-1.884,2.018,2.018,0,0,1,1.185-.632,18.6,18.6,0,0,1,3.031-.035l5.872.133.15-1.373,7.755,1.243,3.8.053,3.708.15a3.977,3.977,0,0,0,1.3-1.208c.625-1.074.25-1.728-.032-2.793-.08-.3.056-.4.2-.654l1.192-1.678.437-.032c.431-1.395.734-2.854,1.294-4.2a23.88,23.88,0,0,1,9.2-10.569l1.005-2.768-13.432-5.566a20.413,20.413,0,0,1-3.579-1.434c-.321-.35-.762-3.359-.89-3.929l-4.441-19.183c-.908-3.876-1.6-8.046-3.079-11.744a24.425,24.425,0,0,0-4.968-7.893c-3.271-3.441-5.814-5.688-10.392-7.152l-1.2-4.352L450.571,152a33.64,33.64,0,0,1-1.793,8.256c-.547,1.395-1.848,3.284-2.071,4.666l-9.156-6.111c-2.852-1.938-7.324-4.424-8.842-7.62a7.879,7.879,0,0,0,1.177-3.127c1.192-4.238,1.788-8.6,2.866-12.867l1.728-9.273a5.278,5.278,0,0,1-3.5-1.288,4.251,4.251,0,0,1,.045-6.043,3.631,3.631,0,0,1,2.751-1.02c1.373.093,2.031.832,2.9,1.824l.291-.03c4.351-.869,8.108-5.438,10.465-8.861l.287-.743-5.652-1.223L477.086,99.2l-.366-1.061Z" transform="translate(-326.503 -72.679)" fill="#cfe9f5"/>
          <path id="Trazado_994758" data-name="Trazado 994758" d="M602.19,143.431c4.583-.845,9.166-1.6,13.687-2.746l7.046-1.9a19.777,19.777,0,0,1,4.132-1.169c-2.45,2.723-5.912,4.426-9.253,5.777a63.582,63.582,0,0,1-15.165,4.046l-.226-2.578Z" transform="translate(-458.627 -104.804)" fill="#0b2d52"/>
          <path id="Trazado_994759" data-name="Trazado 994759" d="M1040.712,206.654a34,34,0,0,1,6-.1l10.659-.025,5.96-.015a16.152,16.152,0,0,1,2.739.028,3.3,3.3,0,0,1,1.972,1.2l.117.18a3.193,3.193,0,0,1-.984,4.352,3.9,3.9,0,0,1-1.13.365,19.755,19.755,0,0,1-3.528.078l-6.78.013c-4.491.007-9.248.378-13.706.034a3.281,3.281,0,0,1-2.332-1.084,3.369,3.369,0,0,1-.775-2.678,3.522,3.522,0,0,1,1.793-2.352" transform="translate(-791.209 -157.246)" fill="#9cdaf2"/>
          <path id="Trazado_994760" data-name="Trazado 994760" d="M519.765,111.25l10.112,2.657c2.411.661,6.07,1.318,7.9,3.064l-.053.483-.116.08a19.777,19.777,0,0,0-4.132,1.169l-7.046,1.9c-4.521,1.148-9.1,1.9-13.687,2.746a64.867,64.867,0,0,1-22.346-1.539l-5.653-1.223Z" transform="translate(-369.181 -84.728)" fill="#32a45f"/>
          <path id="Trazado_994761" data-name="Trazado 994761" d="M689.031,314.678a8.643,8.643,0,0,1,3.4.663c2.922,1.311,4.344,3.593,5.433,6.465a1.3,1.3,0,0,0,.428-.19,6.948,6.948,0,0,1,2.274-1.184,5.783,5.783,0,0,1,4.4.694c1.867,1.139,2.527,2.684,3,4.729a9.255,9.255,0,0,1,2.771.488c2.2.995,3.081,2.779,3.871,4.916a39.652,39.652,0,0,1-5.2.061l-10.564,0-14.078-.012c-2.447,0-6.407.476-8.647-.407a5.7,5.7,0,0,1-3.194-3.093,5.556,5.556,0,0,1,3.388-7.518,5.408,5.408,0,0,1,4.748.488,15.485,15.485,0,0,1,1.671-3,8.948,8.948,0,0,1,6.308-3.1" transform="translate(-512.155 -239.658)" fill="#51b0e1"/>
          <path id="Trazado_994762" data-name="Trazado 994762" d="M447.72,155.57a64.867,64.867,0,0,0,22.346,1.539l.221,1.426.226,2.578.053.457a4.868,4.868,0,0,1,1.286,1.765,2.433,2.433,0,0,1-.645,1.707l-.035.107a24.085,24.085,0,0,0-.407,5.382,38.04,38.04,0,0,1-.558,6.765,17.433,17.433,0,0,1-8.314,11.079c-3.537,1.986-6.359,2.278-10.291,1.835l-.873,6.374-.158,1.225a33.64,33.64,0,0,1-1.793,8.256c-.547,1.395-1.848,3.284-2.071,4.666l-9.156-6.111c-2.852-1.938-7.324-4.425-8.842-7.62a7.879,7.879,0,0,0,1.177-3.127c1.192-4.238,1.788-8.6,2.866-12.867l1.728-9.273a5.278,5.278,0,0,1-3.5-1.288,4.251,4.251,0,0,1,.045-6.043,3.631,3.631,0,0,1,2.751-1.02c1.373.093,2.031.832,2.9,1.824l.291-.03c4.351-.869,8.108-5.438,10.465-8.861Z" transform="translate(-326.503 -118.482)" fill="#ea965b"/>
          <path id="Trazado_994763" data-name="Trazado 994763" d="M592.134,181.121l-.491-1.285c-.809-1.943-2.436-1.387-4.024-2.045l-.131-.5c.1-.153.232-.442.4-.5,1.131-.393,2.616.356,3.6.856a4.867,4.867,0,0,1,1.286,1.765,2.433,2.433,0,0,1-.645,1.707" transform="translate(-447.43 -134.562)" fill="#0b2d52"/>
          <path id="Trazado_994764" data-name="Trazado 994764" d="M520.6,176.7l1.636-.026a2.664,2.664,0,0,1,1.949.622l-.052.509a2.493,2.493,0,0,1-.415.32,6.9,6.9,0,0,1-1.321-.188,13.379,13.379,0,0,0-2.143.007,27.932,27.932,0,0,1-2.573,1.27l-.367-.273-.056-.7c.7-1.047,2.195-1.3,3.342-1.543" transform="translate(-393.939 -134.551)" fill="#0b2d52"/>
          <path id="Trazado_994765" data-name="Trazado 994765" d="M538.041,257.065c1.118-.052,2.171,1.381,3.286,1.758l.126.042c1.157.39,2.383-.053,3.28.734l-.116.642a5.658,5.658,0,0,1-1.419.247,6.976,6.976,0,0,1-4.511-1.773,1.754,1.754,0,0,1-.646-1.65" transform="translate(-409.77 -195.779)" fill="#b65632"/>
          <path id="Trazado_994766" data-name="Trazado 994766" d="M563.468,215.911l.928.191c.679,1.046.9,3.358,1.222,4.645a1.894,1.894,0,0,1,0,1.4c-.6.906-1.941,1.015-2.927,1.191l-.836-.353-.087-.449c.557-.633,2.044-.6,2.879-.7-.581-1.9-1.417-3.913-1.178-5.922" transform="translate(-427.84 -164.437)" fill="#b65632"/>
          <path id="Trazado_994767" data-name="Trazado 994767" d="M528.5,199.577a4.343,4.343,0,0,1,.779,0,2.646,2.646,0,0,1,1.784,1.054,2.23,2.23,0,0,1,.479,1.561c-.16,1.059-.715,1.452-1.519,2.056a4.934,4.934,0,0,1-1.031.056,2.608,2.608,0,0,1-1.535-.943,2.306,2.306,0,0,1-.469-1.83c.11-.907.84-1.432,1.512-1.957" transform="translate(-401.331 -151.985)" fill="#0b2d52"/>
          <path id="Trazado_994768" data-name="Trazado 994768" d="M586.529,199.654l.36,0a2.552,2.552,0,0,1,2,.817,2.629,2.629,0,0,1,.547,1.934c-.141,1.019-.89,1.461-1.666,2l-.932-.016a2.149,2.149,0,0,1-1.578-.836,2.352,2.352,0,0,1-.384-1.871,3.152,3.152,0,0,1,1.655-2.019" transform="translate(-445.396 -152.052)" fill="#0b2d52"/>
          <path id="Trazado_994769" data-name="Trazado 994769" d="M507.54,155.57a64.867,64.867,0,0,0,22.346,1.539l.221,1.426a61.8,61.8,0,0,1-14.981-.241,27.929,27.929,0,0,1-7.873-1.981Z" transform="translate(-386.323 -118.482)" fill="#d66b27"/>
          <path id="Trazado_994770" data-name="Trazado 994770" d="M481.281,284.748a18.052,18.052,0,0,1-6.1-2.837c-3.846-2.744-5.609-5.973-6.361-10.576a40.065,40.065,0,0,0,13.33,7.04Z" transform="translate(-357.055 -206.648)" fill="#d66b27"/>
          <path id="Trazado_994771" data-name="Trazado 994771" d="M1376.428,334.73l.141-.089c1.6-1.041,2.925-2.476,4.534-3.544a23.9,23.9,0,0,1,17.611-3.218,23.5,23.5,0,0,1,14.712,9.659,23.906,23.906,0,0,1,3.45,18.08,24.123,24.123,0,0,1-16.624,18.059c-1.383.435-3.969.508-5.035,1.294l-.169-.22a3.075,3.075,0,0,0-1.514.169,3.377,3.377,0,0,0-1.557-.3,29.5,29.5,0,0,1-3.366-.511,23.023,23.023,0,0,1-4.079-1.364,21.181,21.181,0,0,1-5.378-3.286,18.37,18.37,0,0,0-2.808-2.38l-.131-.07-.026-.439a7.971,7.971,0,0,0-1.566-1.695.947.947,0,0,1-.391-.342l-.558-.838c.138-.826-1.216-2.812-1.593-3.659a21.858,21.858,0,0,1-1.8-7.89,25.576,25.576,0,0,1,1.233-8.635,16.968,16.968,0,0,1,.947-2.476c.422-.851,1.323-1.992,1.2-2.957a1.756,1.756,0,0,0,.541-1.063,11.834,11.834,0,0,0,2.227-2.288" transform="translate(-1043.596 -249.352)" fill="#0a7e6f"/>
          <path id="Trazado_994772" data-name="Trazado 994772" d="M1426.1,365.039a4.912,4.912,0,0,1,1.64-.1,1.941,1.941,0,0,1,1.4,2.535c-.26.686-.672.809-1.268,1.1l-.179.138a2.522,2.522,0,0,1-1.659-.215,2.251,2.251,0,0,1-.794-1.553,2.491,2.491,0,0,1,.856-1.907" transform="translate(-1085.464 -277.911)" fill="#ea965b"/>
          <path id="Trazado_994773" data-name="Trazado 994773" d="M1405.925,405.185a6.776,6.776,0,0,1,1.659-.072,2.412,2.412,0,0,1,1.23,1.132,2.176,2.176,0,0,1,.024,1.669,1.939,1.939,0,0,1-1.273,1.1,1.016,1.016,0,0,1-.291.071,2.132,2.132,0,0,1-1.688-.5,2.006,2.006,0,0,1-.679-1.469,2.624,2.624,0,0,1,1.018-1.922" transform="translate(-1069.973 -308.52)" fill="#ea965b"/>
          <path id="Trazado_994774" data-name="Trazado 994774" d="M1467.577,424.849a10.237,10.237,0,0,1,1.44-.055,2.345,2.345,0,0,1,1.268,1.115,2.237,2.237,0,0,1-.031,1.854c-.372.741-.934.856-1.662,1.091a2.216,2.216,0,0,1-1.526-.55,2.008,2.008,0,0,1-.694-1.454,2.69,2.69,0,0,1,1.2-2" transform="translate(-1116.786 -323.522)" fill="#ea965b"/>
          <path id="Trazado_994775" data-name="Trazado 994775" d="M1511.022,444.042a4.151,4.151,0,0,1,1.714-.114,1.958,1.958,0,0,1,1.225.83,2.072,2.072,0,0,1,.305,1.773c-.243.737-.687.932-1.335,1.242l-.181.131a2.014,2.014,0,0,1-2.5-1.617,2.763,2.763,0,0,1,.77-2.245" transform="translate(-1150.174 -338.053)" fill="#ea965b"/>
          <path id="Trazado_994776" data-name="Trazado 994776" d="M1481.1,366.089a6.407,6.407,0,0,1,1.6-.063,2.331,2.331,0,0,1,1.266,1.117,1.912,1.912,0,0,1,.076,1.591c-.315.837-.939,1.087-1.7,1.381l-.2.049a2.042,2.042,0,0,1-1.392-.519,2.339,2.339,0,0,1-.72-1.691,2.642,2.642,0,0,1,1.066-1.866" transform="translate(-1127.19 -278.748)" fill="#ea965b"/>
          <path id="Trazado_994777" data-name="Trazado 994777" d="M1524.765,393.523a3.445,3.445,0,0,1,1.657-.027,2.261,2.261,0,0,1,1.268,1.181,2.219,2.219,0,0,1-.05,1.745c-.377.746-1,.9-1.733,1.128l-.038,0a2.3,2.3,0,0,1-1.6-.634,2.129,2.129,0,0,1-.651-1.562,3.751,3.751,0,0,1,1.151-1.834" transform="translate(-1160.38 -299.613)" fill="#ea965b"/>
          <path id="Trazado_994778" data-name="Trazado 994778" d="M1425.469,466.427a10.412,10.412,0,0,1,1.447-.118,2.494,2.494,0,0,1,1.39,1.07,2.309,2.309,0,0,1,.093,1.978,2.917,2.917,0,0,1-1.533,1.1.778.778,0,0,1-.372.1,2.176,2.176,0,0,1-1.426-.585,1.949,1.949,0,0,1-.617-1.445,2.6,2.6,0,0,1,1.018-2.1" transform="translate(-1084.855 -355.14)" fill="#ea965b"/>
        </g>
      </g>
      <g id="Grupo_1177351" data-name="Grupo 1177351" transform="translate(131.603 121.283)">
        <g id="Grupo_1177350" data-name="Grupo 1177350" clip-path="url(#clip-path-4)">
          <rect id="Rectángulo_454843" data-name="Rectángulo 454843" width="108.136" height="105.136" transform="matrix(0.737, -0.676, 0.676, 0.737, -25.183, 23.108)" fill="url(#linear-gradient-2)"/>
        </g>
      </g>
      <g id="Grupo_1177353" data-name="Grupo 1177353">
        <g id="Grupo_1177352" data-name="Grupo 1177352" clip-path="url(#clip-path)">
          <path id="Trazado_994780" data-name="Trazado 994780" d="M681.1,606.9,675.6,621.977a2.174,2.174,0,0,1-.642,1.288l-2.429.1-3.561.009,1.192-1.678.437-.032c.431-1.395.734-2.854,1.294-4.2a23.88,23.88,0,0,1,9.2-10.569" transform="translate(-509.485 -462.21)" fill="#ea965b"/>
          <path id="Trazado_994781" data-name="Trazado 994781" d="M670.6,668.859a32.95,32.95,0,0,1,5,.309,2.174,2.174,0,0,1-.642,1.288l-2.429.1-3.561.009,1.192-1.678Z" transform="translate(-509.485 -509.401)" fill="#fefefe"/>
          <path id="Trazado_994782" data-name="Trazado 994782" d="M579.9,676l3.561-.009,2.88.139a24.066,24.066,0,0,0-1.384,4.18,11.255,11.255,0,0,0,.09,2.107c.054.911,1.269,2.111,1.933,2.653a10.782,10.782,0,0,0,2.069,1.145l-34.349.028a2.744,2.744,0,0,1-1.824-.866,3.106,3.106,0,0,1-.855-2.377,2.519,2.519,0,0,1,.911-1.884,2.019,2.019,0,0,1,1.185-.632,18.6,18.6,0,0,1,3.031-.035l5.872.133.15-1.373,7.755,1.243,3.8.053,3.708.15a3.977,3.977,0,0,0,1.3-1.208c.625-1.073.25-1.728-.032-2.793-.08-.3.056-.4.2-.654" transform="translate(-420.416 -514.836)" fill="#0b2d52"/>
          <path id="Trazado_994783" data-name="Trazado 994783" d="M598.313,689.491l7.755,1.244-7.906.13Z" transform="translate(-455.56 -525.115)" fill="#59565e"/>
          <path id="Trazado_994784" data-name="Trazado 994784" d="M724.564,519.993l14.57.074,20.554,0,5.042,0a5.2,5.2,0,0,1,2.31.234,2.233,2.233,0,0,1,.67,1.634,11.73,11.73,0,0,1-.982,3.036l-2.105,5.492-4.8,13.038-5.8,16.007a2.767,2.767,0,0,1-3.053,1.7l-42.531.044a1.968,1.968,0,0,1-.937-.964,33.783,33.783,0,0,1,2.026-6.128l4.064-11.084,5.016-13.6c.852-2.323,1.6-5.245,2.876-7.331a4.709,4.709,0,0,1,3.085-2.154" transform="translate(-538.828 -396.025)" fill="#42769e"/>
          <path id="Trazado_994785" data-name="Trazado 994785" d="M814.9,582.973c2.4-.1,3.889.8,5.691,2.216.607-.62,1.7-2.062,2.528-2.234l.188.282c-.693.707-1.959,2.25-2.944,2.334-.258.022-1.2,1.112-1.48,1.375l-4.081,3.712c-.511-.856-1.9-3.217-2.752-3.588l-1.564,1.124,4.046,5.948,3.026-3.26,4.227-4.157.2.761a7.282,7.282,0,0,1-.876,6.012,7.841,7.841,0,0,1-4.879,3.352A6.859,6.859,0,0,1,811.2,595.8a6.465,6.465,0,0,1-2.93-4.2,7.308,7.308,0,0,1,1.217-5.559,7.914,7.914,0,0,1,5.407-3.069" transform="translate(-615.481 -443.978)" fill="#fefefe"/>
          <path id="Trazado_994786" data-name="Trazado 994786" d="M1076.573,356.763a1.75,1.75,0,0,0,.288-.832c.117-2.249-.024-4.567-.036-6.824l-.06-13.688.036-39.7.012-8.418c0-1.361-.119-2.806.014-4.155a3.03,3.03,0,0,1,.777-1.54,3.381,3.381,0,0,1,2.274-1.279c3.931-.293,8.079-.018,12.03-.008l24.66.058,21.959-.008c3.45-.006,7.126-.272,10.554-.011a4.113,4.113,0,0,1,2.3,1.04,5.363,5.363,0,0,1,1.118,1.448,13.713,13.713,0,0,1,.117,3.7c.017,3.955-.226,8.083.114,12.017l.019.211a11.834,11.834,0,0,1-2.227,2.288,1.755,1.755,0,0,1-.541,1.063c.124.965-.777,2.106-1.2,2.957a16.984,16.984,0,0,0-.946,2.476,25.579,25.579,0,0,0-1.233,8.635,21.858,21.858,0,0,0,1.8,7.89c.377.847,1.731,2.834,1.593,3.659l.558.838a.945.945,0,0,0,.391.342,7.972,7.972,0,0,1,1.566,1.695l.026.439.131.07a18.372,18.372,0,0,1,2.808,2.38,21.182,21.182,0,0,0,5.378,3.286,23.022,23.022,0,0,0,4.079,1.364,29.5,29.5,0,0,0,3.366.511,3.378,3.378,0,0,1,1.557.3,3.188,3.188,0,0,1,.284.976c.129,1.485.029,3.089.033,4.586l0,9.164c0,1.142.279,3.569-.091,4.554a3.222,3.222,0,0,1-.231.482c-.494.224-5.843-.741-6.973-.863l-6.589-.478a16.4,16.4,0,0,1-3.969-.381c.758,1.391.327,7.129.317,9l-.324.577a4.422,4.422,0,0,1,.35,2.259c0,1.094.16,1.71-.646,2.515a68.358,68.358,0,0,1-8.308.1l-16.55-.005-45.583.092a6.254,6.254,0,0,1-2.439-.342c-2.684-1.251-2.241-3.92-2.243-6.4l-.01-5.135a7.466,7.466,0,0,0-.248-2.764Z" transform="translate(-819.916 -213.397)" fill="#cfe9f5"/>
          <path id="Trazado_994787" data-name="Trazado 994787" d="M1134.8,310a5.378,5.378,0,0,1,3.233.275,2.521,2.521,0,0,1,.1,1.705l-.708.385-1.242.041a1.7,1.7,0,0,1-1.623-.6,2.722,2.722,0,0,1,.238-1.8" transform="translate(-864.044 -236.006)" fill="#164773"/>
          <path id="Trazado_994788" data-name="Trazado 994788" d="M1107.7,310.174l1.7-.058a1.645,1.645,0,0,1,1.523.606,2.382,2.382,0,0,1-.083,1.312c-.174.38-.472.389-.849.532-.8.024-1.955.209-2.618-.272a1.189,1.189,0,0,1-.245-.659,1.559,1.559,0,0,1,.567-1.46" transform="translate(-843.187 -236.184)" fill="#164773"/>
          <path id="Trazado_994789" data-name="Trazado 994789" d="M1161.419,310.172a11.063,11.063,0,0,1,2.11-.013c.765.086.794.039,1.273.646a1.9,1.9,0,0,1,.041.932c-.167.538-.439.56-.918.8a13.092,13.092,0,0,1-1.864.027c-.656-.065-.672-.176-1.085-.677a2,2,0,0,1,.443-1.715" transform="translate(-884.18 -236.182)" fill="#164773"/>
          <path id="Trazado_994790" data-name="Trazado 994790" d="M1246.893,336.006c-.176-.183-.281-.372-.536-.414a2.414,2.414,0,0,1-1.645-.932,2.8,2.8,0,0,1,.744-3.974,2.593,2.593,0,0,1,2.119-.347,3.035,3.035,0,0,1,1.733,1.343,2.458,2.458,0,0,1,.2,1.822,3.488,3.488,0,0,1-1.791,2.143l-.293.108a.7.7,0,0,0-.329.241Z" transform="translate(-947.569 -251.518)" fill="#9cdaf2"/>
          <path id="Trazado_994791" data-name="Trazado 994791" d="M1321.551,316.179l-.081-.077a4,4,0,0,0-.818-.572,2.719,2.719,0,0,1-1.295-1.473,3.138,3.138,0,0,1,.258-2.341,2.675,2.675,0,0,1,1.609-1.291,2.608,2.608,0,0,1,2.064.259,3.084,3.084,0,0,1,1.321,1.87,2.485,2.485,0,0,1-.372,2.041c-.675.928-1.59,1.074-2.391,1.77Z" transform="translate(-1004.728 -236.342)" fill="#9cdaf2"/>
          <path id="Trazado_994792" data-name="Trazado 994792" d="M1139.945,407.246l-.1-.153c-.172-.226-.389-.247-.646-.32a2.957,2.957,0,0,1-1.7-1.486,3.136,3.136,0,0,1-.1-2.252,3.025,3.025,0,0,1,1.452-1.517,3.084,3.084,0,0,1,2.332-.058,2.776,2.776,0,0,1,1.478,1.628,3.3,3.3,0,0,1-.191,2.4,5.018,5.018,0,0,1-2.043,1.735Z" transform="translate(-866.118 -305.597)" fill="#9cdaf2"/>
          <path id="Trazado_994793" data-name="Trazado 994793" d="M1187.384,365.036a4.193,4.193,0,0,1,2.148.015,3.265,3.265,0,0,1,1.731,1.751,2.909,2.909,0,0,1-.074,2.1,3.792,3.792,0,0,1-2.355,1.86l-.076.013a3.446,3.446,0,0,1-2.432-1.181,2.657,2.657,0,0,1-.7-1.816,3.668,3.668,0,0,1,1.757-2.739" transform="translate(-902.967 -277.907)" fill="#9cdaf2"/>
          <path id="Trazado_994794" data-name="Trazado 994794" d="M1124.219,537.189a28.344,28.344,0,0,1,5.846-.148,27.216,27.216,0,0,1,3.953.036c.582.095.734.415,1.058.854a24.676,24.676,0,0,1-.031,5.055c-.093.433-.474.548-.834.774a7.266,7.266,0,0,1-2.5.137l-6.909-.037a1.8,1.8,0,0,1-.937-.949c-.026-1.455-.441-4.557.355-5.722" transform="translate(-855.832 -408.95)" fill="#029b86"/>
          <path id="Trazado_994795" data-name="Trazado 994795" d="M1290.141,499.54h6.776a16.958,16.958,0,0,1,3.192.058c.546.116.629.354.918.789l.022,3.926a4.424,4.424,0,0,1-.079,1.4c-.21.5-.472.507-.949.714-1.621.069-9.379.357-10.282-.364a3.851,3.851,0,0,1-.339-2.213c-.021-1.487-.353-3.182.741-4.312" transform="translate(-981.956 -380.412)" fill="#ea965b"/>
          <path id="Trazado_994796" data-name="Trazado 994796" d="M1209.9,499.075a42.477,42.477,0,0,1,6.687-.117,10.942,10.942,0,0,1,3.507.205,4.958,4.958,0,0,1,.52.548,2.81,2.81,0,0,1,.136,1.27l-.024,4.24c-.343.581-.6.581-1.218.8a9.752,9.752,0,0,1-2.527.074,52.8,52.8,0,0,1-6.451-.046c-.725-.092-.823-.249-1.23-.827-.016-1.937-.4-4.449.6-6.146" transform="translate(-920.931 -379.947)" fill="#9cdaf2"/>
          <path id="Trazado_994797" data-name="Trazado 994797" d="M1209.6,536.46a20.829,20.829,0,0,1,4.232-.139c1.826,0,3.733-.1,5.55.035.694.052.846.335,1.249.846.024,1.479.405,4.043,0,5.4-.131.445-.6.558-.987.748a6.715,6.715,0,0,1-2.527.133l-4.8-.005a9.332,9.332,0,0,1-2.153-.083c-.553-.149-.67-.542-.927-1-.029-1.674-.42-4.471.362-5.934" transform="translate(-920.861 -408.432)" fill="#f9a82a"/>
          <path id="Trazado_994798" data-name="Trazado 994798" d="M1123.617,499.235l.324-.037a69.885,69.885,0,0,1,7.331.008c.842.009,2.217-.153,2.892.406.589.736.475,4.955.289,5.875-.126.626-.512.742-1.016,1.047a56.629,56.629,0,0,1-7.262.022,7.285,7.285,0,0,1-2.3-.122,1.371,1.371,0,0,1-.779-.884,12.113,12.113,0,0,1,.524-6.314" transform="translate(-855.192 -380.107)" fill="#f9a82a"/>
          <path id="Trazado_994799" data-name="Trazado 994799" d="M1129.385,426.309l.484-.021a9.318,9.318,0,0,1,2.589,3.2c.591.679.389,1.961.4,2.816l.014,7.724-9.457.034-.041-6.481c1.476-1.459,2.782-3.133,4.122-4.722a11.271,11.271,0,0,0,1.84-2.428Z" transform="translate(-855.558 -324.66)" fill="#87bd61"/>
          <path id="Trazado_994800" data-name="Trazado 994800" d="M1161.483,403.106c1.12-.658,2.255-2.875,3.075-3.937l5.969-7.522c.844,1.277,1.8,2.457,2.742,3.665a4.24,4.24,0,0,1,1.118,1.862c.5,1.492.21,3.725.2,5.329l-.052,10.665-.372.5-12.266-.018-.014-7.724c-.009-.855.193-2.137-.4-2.816" transform="translate(-884.583 -298.277)" fill="#0a7e6f"/>
          <path id="Trazado_994801" data-name="Trazado 994801" d="M1224.607,354.348a45.66,45.66,0,0,1,4.623,6.347,11.342,11.342,0,0,0,1.526,2.131l-.04.1c-.849,1.989-3.5,3.336-4.568,5.2a11.8,11.8,0,0,0,.007,2.228l.014,10.822c0,1.143.293,3.175-.348,4.077h-11.157l.372-.5.052-10.665c.012-1.6.3-3.836-.2-5.329.322-.153.591-.19.722-.549.481-1.318.031-3.038.448-4.305a20.568,20.568,0,0,1,2.522-2.724l5.826-6.83Z" transform="translate(-925.085 -269.871)" fill="#32a45f"/>
          <path id="Trazado_994802" data-name="Trazado 994802" d="M1277.55,334.882l.3.186c1.509,1.111,4.618,6.122,5.572,7.968l.012,27.49-12.335-.089-9.631-.005c.641-.9.346-2.934.348-4.077l-.014-10.822a11.8,11.8,0,0,1-.007-2.228c1.066-1.863,3.719-3.211,4.568-5.2l.041-.1a16.07,16.07,0,0,0,2.644-2.849,12.9,12.9,0,0,0,2.06-2.656,22.133,22.133,0,0,0,3.1-3.447,26.215,26.215,0,0,0,3.349-4.167" transform="translate(-960.727 -255.045)" fill="#32a45f"/>
          <path id="Trazado_994803" data-name="Trazado 994803" d="M1271.1,366.821a3.575,3.575,0,0,1,.446.632,8.608,8.608,0,0,1-.012,1.732l-.017,4.522.007,20.553-.432.5-9.631-.005c.641-.9.346-2.934.348-4.077l-.014-10.822a11.8,11.8,0,0,1-.007-2.228c1.066-1.863,3.719-3.211,4.568-5.2l.041-.1a16.072,16.072,0,0,0,2.644-2.849,12.9,12.9,0,0,0,2.06-2.656" transform="translate(-960.727 -279.37)" fill="#0a7e6f"/>
          <path id="Trazado_994804" data-name="Trazado 994804" d="M1076.573,356.763a1.75,1.75,0,0,0,.288-.832c.117-2.249-.024-4.567-.036-6.824l-.06-13.688.036-39.7.012-8.418c0-1.361-.119-2.806.014-4.155a3.03,3.03,0,0,1,.777-1.54,3.381,3.381,0,0,1,2.274-1.279c3.931-.293,8.079-.018,12.03-.008l24.66.058,21.959-.008c3.45-.006,7.126-.272,10.554-.011a4.113,4.113,0,0,1,2.3,1.04,5.363,5.363,0,0,1,1.118,1.448,13.713,13.713,0,0,1,.117,3.7c.017,3.955-.226,8.083.114,12.017l.019.211a11.834,11.834,0,0,1-2.227,2.288,1.755,1.755,0,0,1-.541,1.063l.06-.14c.5-1.324.525-16.384,0-17.506a3.059,3.059,0,0,0-1.743-1.575,17.157,17.157,0,0,0-4.673-.22l-9.3-.015-35.722.013-15.87-.019a3.345,3.345,0,0,0-1.535.437,3.748,3.748,0,0,0-1.433,1.4c-.741,1.181-.329,30.83-.327,34.476l-.014,37.307-.019,8.369a13.73,13.73,0,0,0,.06,3.2,1.87,1.87,0,0,0,1.044,1.038c1.016.423,3.431.089,4.575.075l10.232-.014,54.93.11.014-7.773c0-1.052.193-2.556-.291-3.494a1.937,1.937,0,0,0,.188-.368,10.143,10.143,0,0,0,.1-2.654l0-6.063,0-13.234c0-2.228.126-4.549-.024-6.768a3.328,3.328,0,0,0-.253-.968l.558.838a.945.945,0,0,0,.391.342,7.972,7.972,0,0,1,1.566,1.695l.026.439.131.07a18.372,18.372,0,0,1,2.808,2.38,21.182,21.182,0,0,0,5.378,3.286,23.022,23.022,0,0,0,4.079,1.364,29.5,29.5,0,0,0,3.366.511,3.378,3.378,0,0,1,1.557.3,3.188,3.188,0,0,1,.284.976c.129,1.485.029,3.089.033,4.586l0,9.164c0,1.142.279,3.569-.091,4.554a3.222,3.222,0,0,1-.231.482c-.494.224-5.843-.741-6.973-.863l-6.589-.478a16.4,16.4,0,0,1-3.969-.381c.758,1.391.327,7.129.317,9l-.324.577a4.422,4.422,0,0,1,.35,2.259c0,1.094.16,1.71-.646,2.515a68.358,68.358,0,0,1-8.308.1l-16.55-.005-45.583.092a6.254,6.254,0,0,1-2.439-.342c-2.684-1.251-2.241-3.92-2.243-6.4l-.01-5.135a7.466,7.466,0,0,0-.248-2.764Z" transform="translate(-819.916 -213.397)" fill="#42769e"/>
          <path id="Trazado_994805" data-name="Trazado 994805" d="M1394.3,519.485a5.773,5.773,0,0,0,.265-2.568l.012-5.018-.064-18.362.131.07a18.371,18.371,0,0,1,2.808,2.38,21.179,21.179,0,0,0,5.378,3.286,23.025,23.025,0,0,0,4.079,1.364,29.5,29.5,0,0,0,3.366.511,3.377,3.377,0,0,1,1.557.3,3.185,3.185,0,0,1,.284.976c.129,1.485.029,3.089.033,4.586l0,9.164c0,1.142.279,3.569-.091,4.554a3.235,3.235,0,0,1-.231.482c-.494.224-5.843-.741-6.973-.863l-6.589-.478a16.394,16.394,0,0,1-3.969-.381" transform="translate(-1061.898 -375.876)" fill="#cfe9f5"/>
        </g>
      </g>
    </g>
  </g>
</svg>
