<svg xmlns="http://www.w3.org/2000/svg" width="59.451" height="59.254" viewBox="0 0 59.451 59.254">
  <g id="Grupo_1176892" data-name="Grupo 1176892" transform="translate(0 -0.849)">
    <g id="Grupo_1176890" data-name="Grupo 1176890" transform="translate(12.89 53.186)">
      <path id="Trazado_992746" data-name="Trazado 992746" d="M111.01,451.581h1.742v1.742H111.01Z" transform="translate(-111.01 -451.581)" fill="#9bbe50"/>
      <path id="Trazado_992747" data-name="Trazado 992747" d="M141.01,451.581h1.742v1.742H141.01Z" transform="translate(-137.527 -451.581)" fill="#9bbe50"/>
    </g>
    <g id="Grupo_1176891" data-name="Grupo 1176891" transform="translate(0 0.849)">
      <path id="Trazado_992748" data-name="Trazado 992748" d="M45.607,16.034a3.168,3.168,0,0,0-2.258-.936h-.511a3.2,3.2,0,0,0-2.844-4.645H27.157l1.458-1.2A6.233,6.233,0,0,0,30.19,1.637l-.4-.788L17.116,7.629,12.53,12.414H8.321v1.742h4.952l4.909-5.122L28.965,3.263a4.488,4.488,0,0,1-1.457,4.646l-3.4,2.8a6.391,6.391,0,0,1-6.354,6.765v1.742a8.109,8.109,0,0,0,8.024-7.019H39.994a1.451,1.451,0,0,1,0,2.9H27.558V16.84H43.349a1.439,1.439,0,0,1,1.026.425,1.456,1.456,0,0,1-1.026,2.478H32.019c-1.165-2.471-4.777-1.8-7.13.5a7.039,7.039,0,0,0-1.928,3.446c-.885,4.629,3.82,4.786,6.642,2.445h8.327a1.451,1.451,0,0,1,0,2.9H35.107c-1.229-2.168-3.412-2.166-4.641,0H21.884a14.731,14.731,0,0,1-8.82-2.992H0v1.742H12.533a16.12,16.12,0,0,0,9.352,2.992h7.967c-.5,2.352,1,5.378,2.936,5.332,1.932.046,3.432-2.981,2.936-5.332h2.208a3.208,3.208,0,0,0,2.846-4.645,3.219,3.219,0,0,0,3.17-4.7,3.2,3.2,0,0,0,1.661-5.394ZM32.787,34.363c-.38,0-1.279-1.014-1.279-2.613s.9-2.613,1.279-2.613,1.279,1.014,1.279,2.613S33.167,34.363,32.787,34.363Zm-3.793-10.02C27.34,26,25.342,26.109,24.848,25.616a1.806,1.806,0,0,1-.183-1.57,5.356,5.356,0,0,1,1.455-2.576c1.165-1.2,3.214-1.97,4.146-1.273.493.493.382,2.492-1.273,4.146Zm12.135.044H31.192a6.409,6.409,0,0,0,1.064-2.9H41.13a1.451,1.451,0,0,1,0,2.9Z" transform="translate(0 -0.849)" fill="#9bbe50"/>
      <path id="Trazado_992749" data-name="Trazado 992749" d="M0,100.451H6.579v1.742H0Z" transform="translate(0 -88.886)" fill="#9bbe50"/>
      <path id="Trazado_992750" data-name="Trazado 992750" d="M33.73,323.99c-7.674,0-8.316-2.846-8.316-5.514,0-3.652-3.288-5.887-5.079-5.887-3.974-.047-5.449-6.444-5.477-6.577l-9.321-4.638H0v1.742H5.128L10.4,305.74H2.458v1.742h11a13.086,13.086,0,0,0,2.9,5.107H9.929v1.742H20.335a4.339,4.339,0,0,1,3.337,4.145,6.537,6.537,0,0,0,1.93,5.132c1.607,1.43,4.265,2.124,8.128,2.124,6.2,0,8.906-1.236,9.667-4.409l-1.694-.406C41.33,322.471,40.407,323.99,33.73,323.99Z" transform="translate(0 -266.478)" fill="#9bbe50"/>
      <path id="Trazado_992751" data-name="Trazado 992751" d="M189.167,304.057c0,2.969,1.763,5.574,3.774,5.574s3.774-2.6,3.774-5.574-1.763-5.573-3.774-5.573S189.167,301.088,189.167,304.057Zm5.806,0c0,2.339-1.334,3.832-2.032,3.832s-2.032-1.492-2.032-3.832,1.334-3.832,2.032-3.832S194.973,301.718,194.973,304.057Z" transform="translate(-167.202 -263.924)" fill="#9bbe50"/>
      <path id="Trazado_992752" data-name="Trazado 992752" d="M375.546,242.068h3.082v-1.742H376.6a10.424,10.424,0,0,0-.55-7.419,11.3,11.3,0,0,0-5.455,2.237,13.959,13.959,0,0,0-7.563-6.772c-2.008,5.171-1.7,11.91,5.184,15.9-.109,1.713-1.129,5.125-3.789,5.033h0c-2.534-.006-3.1,2.807-3.318,5.484l1.738.121c.294-3.746,1.179-3.906,1.58-3.863.018-.007,11.978,0,12,0v-1.742h-8.312a8.373,8.373,0,0,0,1.679-3.683H375.8v-1.742h-2.592A8.145,8.145,0,0,0,375.546,242.068Zm-11.1-4.205a11.741,11.741,0,0,1-.359-7.061c1.421.75,4.363,2.992,5.182,5.756a7.822,7.822,0,0,0-.948,5.714A10.962,10.962,0,0,1,364.449,237.863Zm5.863,5.3c-1.241-4.329.289-7.046,4.614-8.252,1.241,4.329-.288,7.046-4.614,8.252Z" transform="translate(-319.177 -201.953)" fill="#9bbe50"/>
      <path id="Trazado_992753" data-name="Trazado 992753" d="M289.871,383.04c0,2.32,1.412,4.354,3.021,4.354s3.021-2.035,3.021-4.354-1.412-4.354-3.021-4.354S289.871,380.721,289.871,383.04Zm4.3,0c0,1.6-.9,2.613-1.279,2.613s-1.279-1.014-1.279-2.613.9-2.613,1.279-2.613S294.171,381.442,294.171,383.04Z" transform="translate(-256.213 -334.814)" fill="#9bbe50"/>
    </g>
  </g>
</svg>
