<svg xmlns="http://www.w3.org/2000/svg" width="84" height="84" viewBox="0 0 84 84">
  <g id="Grupo_1177582" data-name="Grupo 1177582" transform="translate(-705.711 -791)">
    <g id="Grupo_1176893" data-name="Grupo 1176893" transform="translate(-0.289 -1870.42)">
      <rect id="Rectángulo_402006" data-name="Rectángulo 402006" width="84" height="84" rx="5" transform="translate(706 2661.42)" fill="#4d240b"/>
    </g>
    <g id="Grupo_1177581" data-name="Grupo 1177581" transform="translate(645.873 795)">
      <g id="Grupo_1177580" data-name="Grupo 1177580" transform="translate(72.838 0)">
        <path id="Trazado_996141" data-name="Trazado 996141" d="M350.964,359.628a1.805,1.805,0,1,0-1.8-1.805A1.807,1.807,0,0,0,350.964,359.628Zm0-2.4a.594.594,0,1,1-.593.594A.595.595,0,0,1,350.964,357.228Z" transform="translate(-314.695 -311.613)" fill="#fbaf00"/>
        <path id="Trazado_996142" data-name="Trazado 996142" d="M314.283,538.827h-3a.606.606,0,1,0,0,1.211h3a.606.606,0,1,0,0-1.211Z" transform="translate(-281.014 -471.622)" fill="#fbaf00"/>
        <path id="Trazado_996143" data-name="Trazado 996143" d="M130.6,63.743l-1.576-.629a11.4,11.4,0,0,0-.644-2.925l1.53-.314a.606.606,0,0,0-.244-1.186l-1.846.379a5.9,5.9,0,0,0-.911-1.152,7.657,7.657,0,0,0-1.137-.884,3.633,3.633,0,0,1-1.308-1.267,4.188,4.188,0,0,1-.514-1.486,1.8,1.8,0,0,0,.764-1.469,1.78,1.78,0,0,0-.239-.88,1.792,1.792,0,0,0-.088-3.088,1.805,1.805,0,0,0-1.957-2.954l-.024.01V42.966a3.67,3.67,0,0,0,1.622-.776,3.94,3.94,0,0,0,1.312-3.17.606.606,0,0,0-.5-.558,4.748,4.748,0,0,0-3.285.668,18.7,18.7,0,0,0-1.725-5.242,9.209,9.209,0,0,0-6.11-4.727q-.729-.175-1.472-.345c-.245-.056-.486-.108-.729-.162v-.448a.605.605,0,0,0-.606-.606h-3a.6.6,0,0,0-.56.38l-.635-.211V24.643a7.709,7.709,0,0,0,2.563-4.827l.01-.073a3.55,3.55,0,0,0,2.709-2.427c6.232-1.407,9.053-2.858,9.114-4.689a2.422,2.422,0,0,0-.8-1.747c-1.326-1.371-4.23-2.631-7.75-3.527a11.384,11.384,0,0,0-21.292,0c-3.522.9-6.426,2.157-7.752,3.528a2.422,2.422,0,0,0-.8,1.747c.062,1.831,2.883,3.282,9.115,4.689a3.55,3.55,0,0,0,2.7,2.425l.01.075A7.709,7.709,0,0,0,97.1,24.652V27.77l-.635.211a.6.6,0,0,0-.56-.38h-3a.605.605,0,0,0-.606.606v.448c-.243.053-.484.106-.729.162q-.743.169-1.472.345a9.235,9.235,0,0,0-6.134,4.773,18.569,18.569,0,0,0-1.69,5.2,4.747,4.747,0,0,0-3.3-.675.606.606,0,0,0-.5.558,3.939,3.939,0,0,0,1.312,3.17,3.67,3.67,0,0,0,1.622.776V45.9l-.024-.01a1.806,1.806,0,0,0-1.957,2.955,1.792,1.792,0,0,0-.088,3.088,1.782,1.782,0,0,0-.239.88,1.8,1.8,0,0,0,.764,1.469,4.191,4.191,0,0,1-.514,1.486,3.627,3.627,0,0,1-1.307,1.267,7.666,7.666,0,0,0-1.137.884A5.9,5.9,0,0,0,76,59.066l-1.846-.378a.606.606,0,0,0-.244,1.186l1.53.314a11.42,11.42,0,0,0-.644,2.925l-1.577.629a.606.606,0,0,0,.224,1.168.6.6,0,0,0,.224-.044l1.067-.426a10.594,10.594,0,0,0,.689,3.583.6.6,0,0,0,.537.389c.074,0,.179.007.312.007a9.434,9.434,0,0,0,1.2-.081,12.749,12.749,0,0,0-.549,1.787l-1.355.439a.605.605,0,1,0,.372,1.152l.748-.242a15.543,15.543,0,0,0-.124,2.112.606.606,0,0,0,.4.563,9.13,9.13,0,0,0,3.084.548c.183,0,.363-.015.544-.027l-.076.98a.606.606,0,0,0,.557.651l.047,0a.605.605,0,0,0,.6-.558l.1-1.244A6.909,6.909,0,0,0,85.1,72.8l.481,1.063a.606.606,0,1,0,1.1-.5L85.97,71.78a7.152,7.152,0,0,0,1.05-4.861,6.718,6.718,0,0,0-2.491-4.056,8.866,8.866,0,0,0,.366-1.285c.133.148.265.292.4.432a11.672,11.672,0,0,1,1.4,1.738,11.973,11.973,0,0,1,1.739,4.5c0,.97-.084,2.158-.164,3.31-.082,1.195-.167,2.43-.167,3.451V75.7a.605.605,0,0,0,.606.606h26.4a.605.605,0,0,0,.606-.606V75.01c0-1.021-.085-2.256-.167-3.451-.079-1.152-.161-2.34-.164-3.31a11.979,11.979,0,0,1,1.739-4.5,11.711,11.711,0,0,1,1.4-1.738q.2-.21.4-.432a8.915,8.915,0,0,0,.366,1.285,6.715,6.715,0,0,0-2.491,4.055,7.146,7.146,0,0,0,1.05,4.86l-.718,1.585a.606.606,0,1,0,1.1.5l.481-1.063a6.9,6.9,0,0,0,3.282,1.7l.1,1.244a.606.606,0,0,0,.6.558l.047,0a.606.606,0,0,0,.557-.651l-.076-.98c.18.011.36.027.544.027a9.13,9.13,0,0,0,3.084-.548.605.605,0,0,0,.4-.563,15.528,15.528,0,0,0-.124-2.112l.748.242a.605.605,0,1,0,.373-1.152l-1.355-.439a12.693,12.693,0,0,0-.549-1.787,9.321,9.321,0,0,0,1.2.081c.133,0,.239,0,.312-.007a.606.606,0,0,0,.537-.389,10.6,10.6,0,0,0,.689-3.583l1.067.426a.6.6,0,0,0,.224.044.607.607,0,0,0,.563-.382.6.6,0,0,0-.335-.786Zm-8.218-13.929H123.5a.594.594,0,0,1,0,1.189h-2.4a.594.594,0,0,1-.593-.595.58.58,0,0,1,.035-.165,1.766,1.766,0,0,0,.351.035,1.8,1.8,0,0,0,.69-.138Zm-3.733.526a1.013,1.013,0,1,1,.453-1.914,1.711,1.711,0,0,0,.4,1.175,1.7,1.7,0,0,0-.094.235c-.143.145-.288.3-.431.443a1.017,1.017,0,0,1-.33.06Zm1.022-8.855a2.537,2.537,0,0,1-2.333-2.134,2.49,2.49,0,0,1,2.687,1.372A4.81,4.81,0,0,0,119.666,41.485Zm-1.809.647a3.9,3.9,0,0,0,1.647.556V47.28a2.215,2.215,0,0,0-3.083,2.047c0,.023.006.044.007.067a4.705,4.705,0,0,0-1.917,1.16V46.2h0v-.971a8.448,8.448,0,0,1,3.346-3.1Zm-3.166,12.613a3.17,3.17,0,0,1,2.1-4.2,2.229,2.229,0,0,0,1.088.858Q116.281,53.053,114.691,54.745Zm6.416-1.341a.594.594,0,0,1,0-1.189h1.8a.594.594,0,0,1,0,1.189Zm1.78-6.4a.593.593,0,0,1,.227-.045.595.595,0,0,1,.227,1.144l-1.319.546h0l-.9.37a.594.594,0,0,1-.776-.322.6.6,0,0,1,.322-.777l1.358-.561h0Zm-2.173-.412v-3.64a3.888,3.888,0,0,0,.475.079V46.4ZM124.1,39.61a2.488,2.488,0,0,1-3.239,2.131,3.46,3.46,0,0,1,1.268-1.553A3.423,3.423,0,0,1,124.1,39.61ZM111.972,30q.737.167,1.456.341a8.027,8.027,0,0,1,5.337,4.141,17.347,17.347,0,0,1,1.54,4.626,3.6,3.6,0,0,0-.868-.614,3.838,3.838,0,0,0-2.955-.169.606.606,0,0,0-.4.564,3.947,3.947,0,0,0,.822,2.39,9.181,9.181,0,0,0-2.393,1.946V38.408a.606.606,0,0,0-1.211,0v6.8a5.085,5.085,0,0,1-.784-.641,3.643,3.643,0,0,1-1-2.557V29.9l.46.1Zm-15.458-.755.958-.319a5.634,5.634,0,0,0,4.436,2.289,5.839,5.839,0,0,0,4.447-2.285l.947.316V42.6H96.514Zm12.945-10.8.53-3.975a2.309,2.309,0,0,1,.92,2.23h0a.013.013,0,0,1,0,0A2.307,2.307,0,0,1,109.459,18.442Zm-7.552-17.23a10.188,10.188,0,0,1,9.183,5.8,42.342,42.342,0,0,0-18.366,0,10.188,10.188,0,0,1,9.183-5.8ZM83.915,12.586a1.386,1.386,0,0,1,.465-.865c2.062-2.133,9.768-4.51,17.527-4.51a42.679,42.679,0,0,1,10,1.225.669.669,0,0,0,.068.018c3.553.882,6.343,2.11,7.463,3.268a1.39,1.39,0,0,1,.465.865c-.014.4-.629,1.8-7.77,3.459a3.553,3.553,0,0,0-1.965-2.88l.047-.349a43.14,43.14,0,0,1,4.336,1.062.606.606,0,0,0,.35-1.16,44.565,44.565,0,0,0-5.079-1.206c-.015,0-.027-.013-.043-.015a.3.3,0,0,0-.033,0,45.332,45.332,0,0,0-15.67,0c-.015,0-.028,0-.042,0s-.036.015-.055.019a44.641,44.641,0,0,0-5.055,1.2.606.606,0,1,0,.35,1.16,43.347,43.347,0,0,1,4.325-1.059l.047.352a3.554,3.554,0,0,0-1.954,2.876C84.544,14.385,83.929,12.985,83.915,12.586ZM92.906,16.7a2.309,2.309,0,0,1,.909-2.229l.529,3.964A2.311,2.311,0,0,1,92.906,16.7Zm2.822,2.954-.056-.417s0,0,0,0a.568.568,0,0,0-.013-.085l-.76-5.7a.545.545,0,0,0-.012-.1l0,0-.1-.739a44.089,44.089,0,0,1,14.228,0l-.941,7.052A6.169,6.169,0,0,1,101.9,25.2H101.9a6.169,6.169,0,0,1-6.167-5.545Zm2.615,5.861a7.556,7.556,0,0,0,3.553.9h.008a7.562,7.562,0,0,0,3.551-.891c.016-.008.03-.02.047-.029v2.544A4.618,4.618,0,0,1,101.908,30a4.538,4.538,0,0,1-3.594-1.976V25.5c.01.005.019.013.029.018Zm-4.828,3.3H95.3v14.4a.605.605,0,0,0,.606.606h12a.605.605,0,0,0,.606-.606v-14.4H110.3V42a4.88,4.88,0,0,0,1.377,3.432,6.1,6.1,0,0,0,1.622,1.155V53.23c0,.012.006.022.007.035a4.766,4.766,0,0,0,.477,2.445c-.251.272-.489.537-.712.8l-2.42.54a.606.606,0,0,0,.131,1.2.619.619,0,0,0,.133-.015l1.137-.254a6.264,6.264,0,0,0-.534,1.353,7,7,0,0,0-.22,2.04l-1.312.81a.606.606,0,0,0,.636,1.031l.826-.51c.067.355.143.674.208.937a11.46,11.46,0,0,0,2.514,4.779c.011.976.087,2.114.164,3.224.056.806.113,1.631.142,2.385a7.046,7.046,0,0,1-3.542-5.613h1.17a.606.606,0,0,0,0-1.211h-3a.606.606,0,0,0,0,1.211h.615a8.246,8.246,0,0,0,4.188,6.679H89.906a8.245,8.245,0,0,0,4.188-6.679h.615a.606.606,0,0,0,0-1.211h-3a.606.606,0,0,0,0,1.211h1.17a7.046,7.046,0,0,1-3.542,5.613c.03-.755.087-1.579.142-2.385.076-1.11.153-2.248.164-3.224a11.458,11.458,0,0,0,2.514-4.782c.065-.263.14-.581.208-.936l.825.51a.606.606,0,0,0,.636-1.031l-1.312-.81a7,7,0,0,0-.22-2.04,6.242,6.242,0,0,0-.534-1.353l1.137.254a.615.615,0,0,0,.133.015.606.606,0,0,0,.131-1.2l-2.42-.54c-.223-.263-.46-.528-.712-.8a4.762,4.762,0,0,0,.477-2.445c0-.012.007-.022.007-.035V46.592a6.167,6.167,0,0,0,1.645-1.178A4.863,4.863,0,0,0,93.516,42V28.813ZM80.912,53.4a.594.594,0,0,1,0-1.189h1.8a.594.594,0,0,1,0,1.189Zm-.6-2.4a.594.594,0,0,1,0-1.189h1.126l.79.327a1.785,1.785,0,0,0,1.041.1.585.585,0,0,1,.035.165A.594.594,0,0,1,82.71,51h-2.4ZM89.3,46.2h0v4.351a4.693,4.693,0,0,0-1.917-1.161c0-.023.007-.044.007-.067a2.215,2.215,0,0,0-3.083-2.047V42.688a3.9,3.9,0,0,0,1.647-.556,8.454,8.454,0,0,1,3.345,3.1V46.2ZM85.172,50.34a1,1,0,0,1-.329-.06c-.144-.146-.288-.3-.431-.443a1.893,1.893,0,0,0-.094-.235,1.711,1.711,0,0,0,.4-1.175,1.011,1.011,0,1,1,.452,1.914Zm.575-9.569a2.607,2.607,0,0,1-1.6.714,4.812,4.812,0,0,0-.355-.762,2.49,2.49,0,0,1,2.687-1.372,2.591,2.591,0,0,1-.735,1.421Zm1.279,9.777a3.17,3.17,0,0,1,2.1,4.2q-1.589-1.693-3.186-3.338a2.227,2.227,0,0,0,1.088-.858ZM85.074,34.436a8,8,0,0,1,5.313-4.1q.72-.173,1.456-.341l.46-.1V42a3.655,3.655,0,0,1-1.022,2.575,4.895,4.895,0,0,1-.766.624v-6.8a.606.606,0,1,0-1.211,0v4.816a9.181,9.181,0,0,0-2.393-1.946,3.95,3.95,0,0,0,.822-2.39.607.607,0,0,0-.4-.564,3.838,3.838,0,0,0-2.955.169,3.6,3.6,0,0,0-.867.614A17.424,17.424,0,0,1,85.074,34.436Zm-5.36,5.174a3.422,3.422,0,0,1,1.971.578,3.468,3.468,0,0,1,1.268,1.553,2.488,2.488,0,0,1-3.239-2.131Zm2.912,3.423a3.892,3.892,0,0,0,.475-.079v3.641l-.475-.2Zm-2.474,4.295a.591.591,0,0,1,.322-.322.589.589,0,0,1,.455,0l.855.354,0,0,1.358.562a.594.594,0,0,1-.454,1.1l-.895-.37,0,0-1.318-.545a.6.6,0,0,1-.323-.777Zm-4.2,16.629.8-.319a.605.605,0,1,0-.448-1.125l-.222.088a8.369,8.369,0,0,1,.56-2.166l1.251.257a.606.606,0,1,0,.244-1.186l-.862-.177a4.655,4.655,0,0,1,.479-.544,6.52,6.52,0,0,1,.971-.749A4.787,4.787,0,0,0,80.4,56.379a5.35,5.35,0,0,0,.646-1.763h1.531a10.356,10.356,0,0,0,1.283,5.548,7.423,7.423,0,0,1-1.794,4.548,7.033,7.033,0,0,1-.724.713l-.6-1.363a.605.605,0,1,0-1.107.49l.7,1.585a8.248,8.248,0,0,1-3.911,1.074,9.333,9.333,0,0,1-.471-3.253Zm9.878,3.175a6.168,6.168,0,0,1-.475,3.28l-.329-.727a.606.606,0,1,0-1.1.5l.647,1.427a5.514,5.514,0,0,1-2.646,1.619l.053-.684a.606.606,0,0,0-1.208-.095l-.078,1a7.7,7.7,0,0,1-2.911-.314,13.729,13.729,0,0,1,.193-2.083l1.7-.549A.605.605,0,1,0,79.3,69.36l-1.008.326a11.107,11.107,0,0,1,.632-1.647,8.907,8.907,0,0,0,1.9-.792l.358.808a.605.605,0,1,0,1.107-.49l-.442-1a8.083,8.083,0,0,0,1.128-1.058,8.3,8.3,0,0,0,1.045-1.5,5.457,5.457,0,0,1,1.809,3.124Zm.348-5.949a8.9,8.9,0,0,1-1.191-1.48A9.324,9.324,0,0,1,83.8,54.236a1.782,1.782,0,0,0,.246-2.627,1.782,1.782,0,0,0,.177-.227c1.517,1.55,3.043,3.141,4.55,4.757a.6.6,0,0,0,.007,1.174l1.285.287a5.388,5.388,0,0,1,1.057,2.04,5.612,5.612,0,0,1,.163.973l-.81-.5a.606.606,0,0,0-.636,1.031l1.409.869a12.01,12.01,0,0,1-.267,1.336,10.089,10.089,0,0,1-1.618,3.48,12.521,12.521,0,0,0-3.187-5.646Zm31.46,0a12.522,12.522,0,0,0-3.186,5.646,10.084,10.084,0,0,1-1.618-3.482,11.962,11.962,0,0,1-.267-1.335l1.408-.869a.606.606,0,0,0-.636-1.031l-.81.5a5.655,5.655,0,0,1,.163-.973,5.379,5.379,0,0,1,1.057-2.04l1.285-.287a.6.6,0,0,0,.007-1.174c1.508-1.616,3.033-3.206,4.55-4.756a1.889,1.889,0,0,0,.177.227,1.782,1.782,0,0,0,.246,2.627,9.324,9.324,0,0,1-1.185,5.467,8.859,8.859,0,0,1-1.19,1.479Zm7.89,8.5-1.008-.326a.605.605,0,1,0-.372,1.152l1.7.549a13.8,13.8,0,0,1,.193,2.083,7.718,7.718,0,0,1-2.911.315l-.078-1a.606.606,0,0,0-1.208.095l.053.684a5.512,5.512,0,0,1-2.646-1.62l.646-1.427a.606.606,0,1,0-1.1-.5l-.329.727a6.177,6.177,0,0,1-.476-3.28,5.448,5.448,0,0,1,1.81-3.124,8.246,8.246,0,0,0,1.045,1.5,8.082,8.082,0,0,0,1.128,1.058l-.442,1a.605.605,0,1,0,1.107.49l.358-.808a8.906,8.906,0,0,0,1.9.792A11.073,11.073,0,0,1,125.528,69.686Zm1.866-2.476a8.245,8.245,0,0,1-3.911-1.074l.7-1.585a.605.605,0,1,0-1.107-.49l-.6,1.363a6.881,6.881,0,0,1-.724-.713,7.419,7.419,0,0,1-1.794-4.548,10.355,10.355,0,0,0,1.283-5.548h1.531a5.339,5.339,0,0,0,.646,1.763,4.789,4.789,0,0,0,1.677,1.658,6.519,6.519,0,0,1,.971.749,4.653,4.653,0,0,1,.479.544l-.862.177a.606.606,0,0,0,.122,1.2.567.567,0,0,0,.122-.013l1.251-.257a8.363,8.363,0,0,1,.56,2.166l-.222-.088a.605.605,0,1,0-.448,1.125l.8.319a9.422,9.422,0,0,1-.471,3.253Z" transform="translate(-72.838 0)" fill="#fbaf00"/>
        <path id="Trazado_996144" data-name="Trazado 996144" d="M269.172,394.5h-10.8a.605.605,0,0,0-.606.606v6a.605.605,0,0,0,.312.529l5.4,3a.6.6,0,0,0,.587,0l5.4-3a.606.606,0,0,0,.312-.529v-6A.606.606,0,0,0,269.172,394.5Zm-.606,6.25-4.793,2.663-4.793-2.663v-5.039h9.587v5.039Z" transform="translate(-234.704 -345.294)" fill="#fbaf00"/>
        <path id="Trazado_996145" data-name="Trazado 996145" d="M235.529,359.628a1.805,1.805,0,1,0-1.805-1.805A1.807,1.807,0,0,0,235.529,359.628Zm0-2.4a.594.594,0,1,1-.594.594A.594.594,0,0,1,235.529,357.228Z" transform="translate(-213.658 -311.613)" fill="#fbaf00"/>
        <path id="Trazado_996146" data-name="Trazado 996146" d="M271,538.827h-3a.606.606,0,0,0,0,1.211h3a.606.606,0,1,0,0-1.211Z" transform="translate(-243.126 -471.622)" fill="#fbaf00"/>
      </g>
    </g>
  </g>
</svg>
