<svg xmlns="http://www.w3.org/2000/svg" width="84" height="84" viewBox="0 0 84 84">
  <g id="Grupo_1177337" data-name="Grupo 1177337" transform="translate(-706 -2661.42)">
    <rect id="Rectángulo_402006" data-name="Rectángulo 402006" width="84" height="84" rx="5" transform="translate(706 2661.42)" fill="#4d240b"/>
    <g id="Grupo_1176892" data-name="Grupo 1176892" transform="translate(709.932 2664.65)">
      <g id="Grupo_1176890" data-name="Grupo 1176890" transform="translate(16.508 67.875)">
        <path id="Trazado_992746" data-name="Trazado 992746" d="M111.01,451.581h2.231v2.231H111.01Z" transform="translate(-111.01 -451.581)" fill="#fbaf00"/>
        <path id="Trazado_992747" data-name="Trazado 992747" d="M141.01,451.581h2.231v2.231H141.01Z" transform="translate(-136.549 -451.581)" fill="#fbaf00"/>
      </g>
      <g id="Grupo_1176891" data-name="Grupo 1176891" transform="translate(0 0.849)">
        <path id="Trazado_992748" data-name="Trazado 992748" d="M58.408,20.3a4.057,4.057,0,0,0-2.892-1.2h-.654a4.1,4.1,0,0,0-3.642-5.948H34.779l1.867-1.536a7.982,7.982,0,0,0,2.017-9.755L38.145.849,21.921,9.532,16.047,15.66H10.656v2.231H17l6.287-6.559L37.1,3.941A5.747,5.747,0,0,1,35.229,9.89l-4.356,3.584a8.185,8.185,0,0,1-8.137,8.664v2.231a10.385,10.385,0,0,0,10.276-8.989H51.22a1.859,1.859,0,0,1,0,3.718H35.292v2.231H55.516a1.842,1.842,0,0,1,1.314.545,1.864,1.864,0,0,1-1.314,3.173H41.006c-1.493-3.165-6.118-2.311-9.131.634a9.014,9.014,0,0,0-2.469,4.414c-1.134,5.929,4.892,6.13,8.507,3.131H48.577a1.859,1.859,0,0,1,0,3.718H44.961c-1.574-2.776-4.37-2.775-5.943,0H28.026a18.866,18.866,0,0,1-11.3-3.832H0V35.34H16.05a20.644,20.644,0,0,0,11.976,3.832h10.2c-.635,3.012,1.285,6.887,3.76,6.828,2.475.059,4.4-3.817,3.76-6.828h2.827a4.108,4.108,0,0,0,3.644-5.948,4.122,4.122,0,0,0,4.059-6.02A4.1,4.1,0,0,0,58.408,20.3ZM41.99,43.77c-.486,0-1.639-1.3-1.639-3.346s1.152-3.346,1.639-3.346,1.638,1.3,1.638,3.346S42.476,43.77,41.99,43.77ZM37.133,30.937c-2.119,2.119-4.678,2.262-5.31,1.63a2.313,2.313,0,0,1-.234-2.011,6.859,6.859,0,0,1,1.864-3.3c1.492-1.539,4.116-2.523,5.31-1.63.632.632.489,3.192-1.63,5.31Zm15.541.056H39.947a8.208,8.208,0,0,0,1.363-3.718H52.674a1.859,1.859,0,0,1,0,3.718Z" transform="translate(0 -0.849)" fill="#fbaf00"/>
        <path id="Trazado_992749" data-name="Trazado 992749" d="M0,100.451H8.426v2.231H0Z" transform="translate(0 -85.64)" fill="#fbaf00"/>
        <path id="Trazado_992750" data-name="Trazado 992750" d="M43.2,330.337c-9.827,0-10.65-3.645-10.65-7.062,0-4.677-4.211-7.539-6.5-7.539-5.089-.061-6.979-8.252-7.014-8.423l-11.937-5.94H0V303.6H6.568l6.757,3.362H3.148V309.2H17.231a16.759,16.759,0,0,0,3.72,6.54H12.716v2.231H26.042a5.557,5.557,0,0,1,4.274,5.309,8.372,8.372,0,0,0,2.472,6.572c2.058,1.831,5.463,2.721,10.409,2.721,7.934,0,11.405-1.583,12.38-5.646l-2.169-.52C52.931,328.393,51.748,330.337,43.2,330.337Z" transform="translate(0 -256.684)" fill="#fbaf00"/>
        <path id="Trazado_992751" data-name="Trazado 992751" d="M189.167,305.622c0,3.8,2.258,7.138,4.833,7.138s4.833-3.335,4.833-7.138-2.258-7.138-4.833-7.138S189.167,301.819,189.167,305.622Zm7.435,0c0,3-1.709,4.907-2.6,4.907s-2.6-1.911-2.6-4.907,1.709-4.907,2.6-4.907S196.6,302.626,196.6,305.622Z" transform="translate(-161.037 -254.224)" fill="#fbaf00"/>
        <path id="Trazado_992752" data-name="Trazado 992752" d="M379.6,245.912h3.947v-2.231h-2.6c1.566-4.466-.328-8.477-.7-9.5a14.466,14.466,0,0,0-6.987,2.865,17.877,17.877,0,0,0-9.686-8.673c-2.571,6.623-2.172,15.253,6.64,20.369-.139,2.194-1.445,6.564-4.853,6.445h0c-3.246-.008-3.967,3.595-4.249,7.023l2.225.154c.376-4.8,1.51-5,2.024-4.947.023-.009,15.34,0,15.364,0v-2.231H370.075a10.723,10.723,0,0,0,2.15-4.717h7.7v-2.231H376.6A10.432,10.432,0,0,0,379.6,245.912Zm-14.212-5.386a15.036,15.036,0,0,1-.46-9.043c1.82.96,5.588,3.831,6.637,7.371-1.559,2.181-1.592,5.234-1.214,7.318A14.039,14.039,0,0,1,365.387,240.526Zm7.509,6.793c-1.589-5.544.37-9.023,5.909-10.569,1.589,5.544-.369,9.023-5.909,10.569Z" transform="translate(-307.409 -194.538)" fill="#fbaf00"/>
        <path id="Trazado_992753" data-name="Trazado 992753" d="M289.871,384.262c0,2.971,1.808,5.576,3.869,5.576s3.869-2.606,3.869-5.576-1.808-5.576-3.869-5.576S289.871,381.292,289.871,384.262Zm5.507,0c0,2.047-1.152,3.346-1.639,3.346s-1.638-1.3-1.638-3.346,1.152-3.346,1.638-3.346S295.378,382.215,295.378,384.262Z" transform="translate(-246.766 -322.5)" fill="#fbaf00"/>
      </g>
    </g>
  </g>
</svg>
