<svg xmlns="http://www.w3.org/2000/svg" width="84" height="84" viewBox="0 0 84 84">
  <g id="Grupo_1177360" data-name="Grupo 1177360" transform="translate(-185.711 -2562)">
    <rect id="Rectángulo_454737" data-name="Rectángulo 454737" width="84" height="84" transform="translate(185.711 2562)" fill="#4d240b"/>
    <g id="Grupo_1177359" data-name="Grupo 1177359" transform="translate(165.711 2509.409)">
      <path id="Trazado_994806" data-name="Trazado 994806" d="M96,63.992a4.57,4.57,0,0,0-6.063,2.366L79.508,90.616a1.064,1.064,0,0,0-.9.657l-1.573,3.879-.04.089c-2.918-1.164-5.924-2.223-8.945-3.143a1.067,1.067,0,0,0-1.285.585L61.69,104.047a18.887,18.887,0,0,0-1.312,4.24,7.5,7.5,0,0,0-10.643.576,18.02,18.02,0,0,1,5.638-20.989,1.06,1.06,0,0,0,.256-.3,13.414,13.414,0,0,0,8.323-20.139,1.07,1.07,0,0,0-1.068-.469,13.421,13.421,0,0,0-9.279,19.605,20.038,20.038,0,0,0-3.786,4.112,13.458,13.458,0,0,0-2.8-7.163,13.062,13.062,0,0,0-11.357-5.187,1.065,1.065,0,0,0-.923.712A13.417,13.417,0,0,0,47.06,96.587a20.057,20.057,0,0,0-.017,10.982,7.485,7.485,0,0,0-11.374,4.5c-.051,0-.1,0-.152,0s-.123-.009-.185-.009c-.019,0-.036.01-.055.011a7.475,7.475,0,0,0-6.821,10.454H26.067a1.067,1.067,0,1,0,0,2.134H96.8a1.067,1.067,0,1,0,0-2.134H84.308a18.521,18.521,0,0,0,4.615-6.317L94,104.848a1.067,1.067,0,0,0-.422-1.348c-3.135-1.9-5.622-3.288-8.117-4.532l1.8-3.573a1.07,1.07,0,0,0-.057-1.058c-.03-.047-.066-.086-.1-.133L98.284,70.087A4.57,4.57,0,0,0,96,63.992ZM55.054,75.621a11.005,11.005,0,0,1,7.48-6.406,11.318,11.318,0,0,1-7.119,16.228A11.028,11.028,0,0,1,55.054,75.621ZM38.572,90.069a11.063,11.063,0,0,1-2.2-8.839,23.47,23.47,0,0,1,7.35,9.968,1.067,1.067,0,0,0,2.028-.665,25.169,25.169,0,0,0-6.639-9.8,11.253,11.253,0,0,1,6.218,4.1,11.007,11.007,0,0,1,2.03,9.636h-.1a11.034,11.034,0,0,1-8.693-4.4Zm28.843,32.457H30.838a.981.981,0,0,0-.041-.107,5.359,5.359,0,0,1,4.792-8.212c.06,0,.12,0,.18.009a5.5,5.5,0,0,1,.581.079c.006,0,.011,0,.017,0a5.32,5.32,0,0,1,2.289,1.056,7.453,7.453,0,0,0-1.3,4.206,1.067,1.067,0,1,0,2.134,0,5.368,5.368,0,0,1,5.362-5.362,1.067,1.067,0,1,0,0-2.134,7.461,7.461,0,0,0-4.762,1.711,7.44,7.44,0,0,0-2.322-1.3,5.359,5.359,0,0,1,10.542,1.367,1.067,1.067,0,1,0,2.134,0,7.462,7.462,0,0,0-.265-1.944,1.05,1.05,0,0,0,.314-.372,5.393,5.393,0,0,1,4.837-3.045,5.325,5.325,0,0,1,5.179,3.991,7.392,7.392,0,0,0-2.321,1.3,7.461,7.461,0,0,0-4.763-1.712,1.067,1.067,0,1,0,0,2.134,5.368,5.368,0,0,1,5.362,5.362,1.067,1.067,0,0,0,2.134,0,7.452,7.452,0,0,0-1.293-4.2,5.281,5.281,0,0,1,2.295-1.059h.008a5.463,5.463,0,0,1,.57-.078c.071-.006.142-.008.213-.011a5.355,5.355,0,0,1,4.7,8.32Zm24.25-17.686-4.69,10.5a16.178,16.178,0,0,1-6.206,7.187H69.82a7.459,7.459,0,0,0-6.813-10.454c-.019,0-.035-.011-.055-.011-.06,0-.119.008-.179.009s-.1,0-.157,0a7.487,7.487,0,0,0-.418-1.246c0-.005,0-.009,0-.015a16.51,16.51,0,0,1,1.437-5.891l4.691-10.5c2.632.827,5.243,1.763,7.79,2.777l-2.3,5.13A20.7,20.7,0,0,0,72.2,113.688l.084.6a1.068,1.068,0,0,0,1.621.758l.379-.237a20.643,20.643,0,0,0,7.94-9.059,1.067,1.067,0,0,0-1.944-.878,18.511,18.511,0,0,1-6.087,7.433,18.552,18.552,0,0,1,1.573-9.108L79,95.989l1.321-3.257a5.814,5.814,0,0,1,4.742,2.274l-3.391,6.746a1.067,1.067,0,0,0,1.907.958l.923-1.837c2.226,1.111,4.45,2.342,7.162,3.966Zm4.684-35.65L85.558,92.461a7.675,7.675,0,0,0-3.78-1.723L91.9,67.2a2.437,2.437,0,1,1,4.449,1.988Z" fill="#9bbe50"/>
    </g>
  </g>
</svg>
