<svg xmlns="http://www.w3.org/2000/svg" width="84" height="84" viewBox="0 0 84 84">
  <g id="Grupo_1177321" data-name="Grupo 1177321" transform="translate(-706 -2661.42)">
    <rect id="Rectángulo_402006" data-name="Rectángulo 402006" width="84" height="84" rx="5" transform="translate(706 2661.42)" fill="#4d240b"/>
    <g id="Layer_2" data-name="Layer 2" transform="translate(711.437 2671.711)">
      <g id="Layer_1" data-name="Layer 1" transform="translate(-0.031 -0.001)">
        <g id="tractor">
          <path id="Trazado_996001" data-name="Trazado 996001" d="M1.227,43.871H71.908a1.219,1.219,0,0,0,0-2.437H67.819a10.969,10.969,0,1,0-13.758,0H40.784a7.274,7.274,0,0,0,1.878-4.874H45.1v1.218A1.219,1.219,0,0,0,46.316,39h.841a1.219,1.219,0,0,0,.376-2.378V23.254l.541-3.2a.848.848,0,0,0,.01-.088L49.792,9.75H61.044l.322,3.83a1.218,1.218,0,1,0,2.428-.2l-.409-4.9V2.437h3.655a1.219,1.219,0,1,0,0-2.437h-4.88A1.219,1.219,0,0,0,60.94,1.219V7.313H43.879a1.219,1.219,0,0,0,0,2.437h3.436l-1.652,9.877c0,.026-.008.056-.01.088l-.4,2.4L30.009,24.978a4.863,4.863,0,0,0-3.935,5.43l.537,4.042a2.425,2.425,0,0,0,1.436,1.9c0,.071-.011.14-.011.213a7.274,7.274,0,0,0,1.878,4.874h-16.5V34.122h1.219a6.1,6.1,0,0,0,6.093-6.092,1.219,1.219,0,0,0-1.219-1.219H17.069a6.068,6.068,0,0,0-4.874,2.48A6.071,6.071,0,0,0,7.32,26.815H4.882a1.219,1.219,0,0,0-1.218,1.219,6.1,6.1,0,0,0,6.093,6.087h1.218v7.31H1.227a1.219,1.219,0,1,0,0,2.437ZM52.409,32.9a8.53,8.53,0,1,1,8.53,8.528,8.53,8.53,0,0,1-8.53-8.528Zm-23.92-2.818a2.427,2.427,0,0,1,1.965-2.711L45.1,24.621v9.5H42.234a7.3,7.3,0,0,0-13.341-.989Zm1.985,6.474a4.874,4.874,0,1,1,4.873,4.872,4.874,4.874,0,0,1-4.873-4.872ZM17.069,29.248h1.01a3.664,3.664,0,0,1-3.447,2.437h-1.01a3.664,3.664,0,0,1,3.447-2.437ZM9.757,31.685A3.662,3.662,0,0,1,6.31,29.248H7.32a3.66,3.66,0,0,1,3.452,2.437Z" transform="translate(0.031 0.001)" fill="#fbaf00"/>
          <path id="Trazado_996002" data-name="Trazado 996002" d="M1.074,37.065a1.218,1.218,0,1,0,.289,2.418,76.258,76.258,0,0,1,16.76.375,1.126,1.126,0,0,0,.158.01,1.218,1.218,0,0,0,.154-2.427,76.855,76.855,0,0,0-17.361-.377Z" transform="translate(0.039 9.249)" fill="#fbaf00"/>
          <path id="Trazado_996003" data-name="Trazado 996003" d="M1.029,41A1.218,1.218,0,1,0,1.4,43.406c.23-.029,22.926-3.408,41.78,9.553a1.218,1.218,0,1,0,1.377-2C24.889,37.427,1.993,40.85,1.029,41Z" transform="translate(0.039 10.196)" fill="#fbaf00"/>
          <path id="Trazado_996004" data-name="Trazado 996004" d="M34.627,49.853c-15.982-7.378-32.88-5.076-33.586-4.968A1.219,1.219,0,0,0,1.385,47.3c.166-.025,16.907-2.294,32.221,4.774a1.218,1.218,0,1,0,1.02-2.213Z" transform="translate(0.044 11.192)" fill="#fbaf00"/>
          <path id="Trazado_996005" data-name="Trazado 996005" d="M20.89,48.8a93.108,93.108,0,0,0-19.806,0,1.218,1.218,0,1,0,.269,2.421c.109-.01,10.921-1.184,19.191,0a1.378,1.378,0,0,0,.174.013A1.219,1.219,0,0,0,20.89,48.8Z" transform="translate(0.039 12.15)" fill="#fbaf00"/>
          <path id="Trazado_996006" data-name="Trazado 996006" d="M67.5,51.651H47.231c-.526-.483-1.075-.945-1.627-1.406a89.013,89.013,0,0,1,21.8-1.034,1.219,1.219,0,1,0,.173-2.432,89.653,89.653,0,0,0-24.523,1.478q-1.356-.99-2.793-1.9a103.987,103.987,0,0,1,27.148-2.023,1.219,1.219,0,1,0,.161-2.432,107.356,107.356,0,0,0-30.413,2.637q-2.416-1.3-5.027-2.4c6.708-1.611,18.275-3.38,35.311-2.68a1.219,1.219,0,0,0,.1-2.432C47,36.18,34.207,38.894,28.217,40.67a69.817,69.817,0,0,0-9.236-2.446,1.219,1.219,0,1,0-.462,2.393c11.2,2.159,20.427,6.583,27.426,13.143a1.146,1.146,0,0,0,.192.125,1.3,1.3,0,0,0,.184.116,1.237,1.237,0,0,0,.458.093H67.5a1.219,1.219,0,0,0,0-2.438Z" transform="translate(4.444 9.281)" fill="#fbaf00"/>
          <path id="Trazado_996007" data-name="Trazado 996007" d="M49.659,22.393a4.874,4.874,0,1,0,4.875,4.875,4.874,4.874,0,0,0-4.875-4.875Zm0,7.311A2.437,2.437,0,1,1,52.1,27.267,2.437,2.437,0,0,1,49.659,29.7Z" transform="translate(11.312 5.637)" fill="#fbaf00"/>
          <circle id="Elipse_13725" data-name="Elipse 13725" cx="1.219" cy="1.219" r="1.219" transform="translate(34.161 35.341)" fill="#fbaf00"/>
          <path id="Trazado_996008" data-name="Trazado 996008" d="M40.391,17.59a1.221,1.221,0,1,0,1.617,1.829,13.4,13.4,0,0,1,18.92,1.188,1.219,1.219,0,1,0,1.829-1.613A15.843,15.843,0,0,0,40.4,17.59Z" transform="translate(10.102 3.431)" fill="#fbaf00"/>
        </g>
      </g>
    </g>
  </g>
</svg>
