<svg xmlns="http://www.w3.org/2000/svg" width="84" height="84" viewBox="0 0 84 84">
  <g id="Grupo_1177336" data-name="Grupo 1177336" transform="translate(-706 -2661.42)">
    <rect id="Rectángulo_402006" data-name="Rectángulo 402006" width="84" height="84" rx="5" transform="translate(706 2661.42)" fill="#02614b"/>
    <g id="Out_line" data-name="Out line" transform="translate(697.044 2611.139)">
      <path id="Trazado_996147" data-name="Trazado 996147" d="M76,89.383l8.7-16.6A5.587,5.587,0,1,0,74.8,67.6L66.1,84.2a5.553,5.553,0,0,0-.025,5.13l-2.693,5.143-3.769-1.884a1.167,1.167,0,0,0-1.533.464l-7.154,12.519a12.817,12.817,0,0,0-1.683,6.187,6.992,6.992,0,0,0-2.963-.658c-.05,0-.1,0-.147,0a4.667,4.667,0,0,0-4.512-3.5V98.289h1.165A12.826,12.826,0,0,0,55.6,85.478V80.819A3.5,3.5,0,0,0,52.1,77.325H43.078a13.037,13.037,0,0,0-10.521,5.3,13.042,13.042,0,0,0-4.037-.638H19.494A3.5,3.5,0,0,0,16,85.478v4.659a12.826,12.826,0,0,0,12.811,12.811h5.823v4.806a4.667,4.667,0,0,0-2.13,1.221,4.659,4.659,0,0,0-5.916,3.468,4.656,4.656,0,0,0-5.783,3.316H18.329v2.329h3.494a1.164,1.164,0,0,0,1.165-1.165,2.329,2.329,0,1,1,4.659,0h2.329a4.637,4.637,0,0,0-1.115-3.019,2.327,2.327,0,0,1,2.28-2.8c.05,0,.1,0,.146.007a2.335,2.335,0,0,1,2.184,2.322H35.8a4.646,4.646,0,0,0-1.223-3.143,2.317,2.317,0,0,1,2.737.21,4.645,4.645,0,0,0-.349,1.769h2.329a2.328,2.328,0,0,1,4.542-.722,7,7,0,0,0-4.542,6.545h2.329a4.657,4.657,0,0,1,8.273-2.936,4.663,4.663,0,0,0-2.45,4.1h2.329a2.329,2.329,0,1,1,4.659,0h2.329a4.631,4.631,0,0,0-.428-1.946,3.5,3.5,0,0,1,3.184,0,4.646,4.646,0,0,0-.427,1.945h2.329a2.329,2.329,0,1,1,4.659,0H68.41a4.645,4.645,0,0,0-.349-1.769,2.328,2.328,0,0,1,3.843,1.769,1.164,1.164,0,0,0,1.165,1.165h9.317v-2.329h-8.3a4.657,4.657,0,0,0-6.6-3,12.872,12.872,0,0,0,.764-1.4l5.87-12.578a1.166,1.166,0,0,0-.534-1.534L69.2,97.382l2.658-5.075A5.6,5.6,0,0,0,76,89.383ZM39.293,108.234a4.68,4.68,0,0,0-.579.4,4.662,4.662,0,0,0-1.75-.875v-5.972a1.164,1.164,0,0,0-1.165-1.165H33.47A10.494,10.494,0,0,1,22.988,90.137V88.972H20.659v1.165a12.792,12.792,0,0,0,4.672,9.887,10.5,10.5,0,0,1-7-9.887V85.478a1.166,1.166,0,0,1,1.165-1.165H28.52A10.786,10.786,0,0,1,39.293,95.087ZM34.769,83.572a10.72,10.72,0,0,1,8.31-3.918H52.1a1.166,1.166,0,0,1,1.165,1.165v4.659a10.5,10.5,0,0,1-7.005,9.887,12.841,12.841,0,0,0,4.676-9.887V84.313H48.611v1.165a10.519,10.519,0,0,1-6.988,9.885v-.277A13.114,13.114,0,0,0,34.769,83.572Zm36.765,17.581L66.143,112.7a10.47,10.47,0,0,1-1.249,2.032,4.645,4.645,0,0,0-3.874.745,5.8,5.8,0,0,0-3.092-.888c-.052,0-.1,0-.157,0l3.509-6.435-2.044-1.115-4.545,8.332a4.632,4.632,0,0,0-2.353-.78,6.981,6.981,0,0,0-.614-.9,10.475,10.475,0,0,1,1.227-6.975l6.607-11.562L62.3,96.536l-2.2,4.206a3.253,3.253,0,1,0,5.762,3.019l2.259-4.315ZM63.8,102.68a.928.928,0,0,1-.823.5.908.908,0,0,1-.508-.156.919.919,0,0,1-.306-1.2L67.7,91.255a5.542,5.542,0,0,0,1.153.67,5.177,5.177,0,0,0,.486.182Zm5.969-12.9a3.259,3.259,0,0,1-1.6-4.506l8.7-16.6A3.257,3.257,0,0,1,82.63,71.7l-8.7,16.6a3.273,3.273,0,0,1-4.168,1.482Z" fill="#9bbe50"/>
    </g>
  </g>
</svg>
