<svg xmlns="http://www.w3.org/2000/svg" xmlns:xlink="http://www.w3.org/1999/xlink" width="396" height="301" viewBox="0 0 396 301">
  <defs>
    <clipPath id="clip-path">
      <rect id="Rectángulo_454922" data-name="Rectángulo 454922" width="381.044" height="258.124" fill="none"/>
    </clipPath>
    <clipPath id="clip-path-2">
      <path id="Trazado_995988" data-name="Trazado 995988" d="M539.5,575.52l.033.357.651.533c17.154,3.514,35.045,7.943,50.716,15.908a35.029,35.029,0,0,1,7.372,4.4l1.959,1.332.14-1.839a37.033,37.033,0,0,1-3.942-2.549,91.838,91.838,0,0,0-8.655-4.616,159.747,159.747,0,0,0-23.184-8.247,194.008,194.008,0,0,0-23.992-5.623Z" transform="translate(-539.498 -575.175)" fill="none"/>
    </clipPath>
    <linearGradient id="linear-gradient" x1="-4.572" y1="1.602" x2="-4.564" y2="1.602" gradientUnits="objectBoundingBox">
      <stop offset="0" stop-color="#003d36"/>
      <stop offset="1" stop-color="#002a45"/>
    </linearGradient>
  </defs>
  <g id="Grupo_1177527" data-name="Grupo 1177527" transform="translate(-602 -5373.209)">
    <g id="Grupo_1177320" data-name="Grupo 1177320" transform="translate(104 3162.209)">
      <rect id="Rectángulo_402012" data-name="Rectángulo 402012" width="396" height="301" transform="translate(498 2211)" fill="#fee7b2"/>
      <rect id="Rectángulo_454557" data-name="Rectángulo 454557" width="396" height="39.233" transform="translate(498 2472.767)" fill="#fee7b2"/>
    </g>
    <g id="Grupo_1177526" data-name="Grupo 1177526" transform="translate(609.478 5416.085)">
      <g id="Grupo_1177521" data-name="Grupo 1177521">
        <g id="Grupo_1177520" data-name="Grupo 1177520" clip-path="url(#clip-path)">
          <path id="Trazado_995885" data-name="Trazado 995885" d="M995.793,129.965l.158.082c2.323,1.268,4.008,3.05,6.538,4.177a40.066,40.066,0,0,0,3.938,1.5,6.109,6.109,0,0,1,2.033.765,4.7,4.7,0,0,1-.872,2.716l-1,.254a9,9,0,0,0-2.183-1.218,34.015,34.015,0,0,1-3.892-2.325c-2.185-1.543-4.243-3.171-4.721-5.954" transform="translate(-692.27 -90.351)" fill="#d13e0f"/>
          <path id="Trazado_995886" data-name="Trazado 995886" d="M118.247,174.233c-.67-.216-2.213.33-2.952.468-4.249.794-8.915,1.1-12.948-.738-1.816-.83-4.016-2.209-4.691-4.21a3.566,3.566,0,0,1,.26-3.034,10.852,10.852,0,0,1,3.611-3.693c4.3-2.974,9.305-4.745,14.209-6.423l.162,1.962A57.223,57.223,0,0,0,132.61,159l2.99,4.639.957-.009-.854.416c.4,2.43,1.056,4.551.992,7.066l-.322.162a24.229,24.229,0,0,0-5.761.472,81.031,81.031,0,0,0-9.1,1.569,15.083,15.083,0,0,0-3.26.915" transform="translate(-67.734 -108.869)" fill="#ef9034"/>
          <path id="Trazado_995887" data-name="Trazado 995887" d="M158.019,163.04a57.224,57.224,0,0,0,16.711.439l2.99,4.639-5.126.6c-3.052.266-11.463,1.1-13.769-.919-.845-.74-.731-3.654-.806-4.754" transform="translate(-109.854 -113.344)" fill="#b75821"/>
          <path id="Trazado_995888" data-name="Trazado 995888" d="M995.793,111.826c2.228-1.113,5.063-.453,7.44-.154l8.419,1.125a23.141,23.141,0,0,0,2.539.493c.027-.013.991-2.11,1.14-2.363,3.292-5.549,9.711-7.656,15.85-6.911a36.029,36.029,0,0,1,4.551,1.121c1.137.288,2.079-.5,3.136-.137a2.847,2.847,0,0,1,1.426,1.275c.954,1.95,2.472,2.929,4.054,4.355,3.106,2.8,5.429,6.456,5.237,10.8-.122,2.812-1.521,6.446-2.6,9.076a3.708,3.708,0,0,1-.774,1.112l-.137-.539c-3.24-1.822-6.91-3.377-10.269-5.018a17.955,17.955,0,0,0-3.3-1.6,5.487,5.487,0,0,0-1.042.077c-.61-1.016-4.661-2.063-5.968-2.7-2.3-1.127-4.91-1.206-7.4-1.673-3.185-.6-6.428-1.409-9.635-1.8a6.109,6.109,0,0,0-2.033-.765,40.067,40.067,0,0,1-3.938-1.5c-2.53-1.127-4.215-2.909-6.538-4.177Z" transform="translate(-692.27 -72.212)" fill="#23b07a"/>
          <path id="Trazado_995889" data-name="Trazado 995889" d="M1115.692,124.012c.573-.045.823-.148,1.323.154v.507l-3.85,5.318c-.817,1.142-1.555,2.7-2.81,3.39l-.454.216c-.674-1.847,5.227-7.467,5.791-9.584" transform="translate(-771.56 -86.175)" fill="#0e2237"/>
          <path id="Trazado_995890" data-name="Trazado 995890" d="M184.169,189.572l14.762-3.7a1.682,1.682,0,0,1,.539.585c.172.3.054.234.359.329a3.474,3.474,0,0,0,2.094-.47c.565-.325.853.037,1.6-.555-.508-.469-.787-.425-1.458-.526l-.024-.287,5.811-1.792c1.576,6.523,2.783,13.586-.9,19.659a13.852,13.852,0,0,1-8.722,6.284,16.033,16.033,0,0,1-3.517.425,23.588,23.588,0,0,1-6.132-.975c-3.015-.942-7.566-3.056-9.1-5.948a6.848,6.848,0,0,1-1.482,2.968,16.8,16.8,0,0,1-2.716-.878c-4.766-2.2-7.862-7.28-9.571-12a15.084,15.084,0,0,1,3.26-.915,81.043,81.043,0,0,1,9.1-1.569,24.231,24.231,0,0,1,5.761-.472Z" transform="translate(-115.208 -127.327)" fill="#f6b173"/>
          <path id="Trazado_995891" data-name="Trazado 995891" d="M284.113,202.138a3.286,3.286,0,0,1,1.3.678,3.838,3.838,0,0,1,.237,2.713,2.27,2.27,0,0,1-1.582-.883,4.157,4.157,0,0,1,.043-2.508" transform="translate(-197.358 -140.525)" fill="#0e2237"/>
          <path id="Trazado_995892" data-name="Trazado 995892" d="M255.482,210.573c.71.364,1.244.622,1.519,1.431a3.39,3.39,0,0,1-.253,2.466c-.74-.31-1.252-.411-1.562-1.251a3.267,3.267,0,0,1,.3-2.646" transform="translate(-177.284 -146.389)" fill="#0e2237"/>
          <path id="Trazado_995893" data-name="Trazado 995893" d="M269.971,240.568l.439.2a4.089,4.089,0,0,1-1.714,2.208c-1.211.675-2.28.312-3.542.011l-1.345-1.247.061-.468Z" transform="translate(-183.398 -167.241)" fill="#fefefe"/>
          <path id="Trazado_995894" data-name="Trazado 995894" d="M165.721,207.567a15.086,15.086,0,0,1,3.26-.915,81.043,81.043,0,0,1,9.1-1.569,24.228,24.228,0,0,1,5.761-.472l-3.174,6.043c-.71-1.129-1.437-2.568-2.886-2.829a2.7,2.7,0,0,0-2.288.684,4.447,4.447,0,0,0-1.35,2.991,7.223,7.223,0,0,0,2,4.428,4.809,4.809,0,0,0,3.012,1,2.614,2.614,0,0,1,.332.551,6.848,6.848,0,0,1-1.482,2.968,16.8,16.8,0,0,1-2.716-.878c-4.766-2.2-7.862-7.28-9.571-12" transform="translate(-115.208 -142.203)" fill="#0e2237"/>
          <path id="Trazado_995895" data-name="Trazado 995895" d="M390.4,78.1l11.858.2,17.794-.189c2.047-.01,5.282-.445,7.179.264a4.379,4.379,0,0,1,1.1,1.171c.809,1.572.213,6.117.183,7.974a8.029,8.029,0,0,0-.027,1.646c.206.483,2.384,1.807,2.938,2.247,1.532,1.216,11.132,8.948,11.353,9.9l-1.892.078-9.118-.128a12.753,12.753,0,0,0-2.71-.065c-1.192.49-1.138,1.3-2.726,1.371-3.558.167-34.659.28-35.532-.1a3.681,3.681,0,0,1-.843-.667,3.321,3.321,0,0,1-.84-2.588l-.1-12.84c-.01-2.066-.3-4.632.163-6.628A4.259,4.259,0,0,1,390.4,78.1" transform="translate(-270.378 -54.202)" fill="#a1d9ea"/>
          <path id="Trazado_995896" data-name="Trazado 995896" d="M411.961,134.179l14.279-.046c1.21,0,3.631-.33,4.653.3l.143,1c-4.506.248-9.133.048-13.657.056a26.762,26.762,0,0,1-4.737.009,3.082,3.082,0,0,1-.542-.383Z" transform="translate(-286.393 -93.188)" fill="#0d6d6d"/>
          <path id="Trazado_995897" data-name="Trazado 995897" d="M412.388,116.163c2.554-.267,22.132-.386,23.3.269l.2,1.012c-5.637.318-11.459.04-17.114.022-1.546,0-4.731.377-5.99-.275-.225-.117-.322-.769-.4-1.027" transform="translate(-286.69 -80.607)" fill="#0d6d6d"/>
          <path id="Trazado_995898" data-name="Trazado 995898" d="M412.5,98.548c5.911-.323,11.995-.056,17.923-.048,1.2,0,4.3-.325,5.224.158.4.21.416.767.534,1.189l-23.029.025c-.618-.428-.521-.607-.651-1.324" transform="translate(-286.77 -68.399)" fill="#0d6d6d"/>
          <path id="Trazado_995899" data-name="Trazado 995899" d="M1028.753,151.377c3.207.4,6.45,1.208,9.635,1.8,2.49.467,5.1.546,7.4,1.673,1.308.64,5.359,1.687,5.968,2.7a5.49,5.49,0,0,1,1.042-.077,17.958,17.958,0,0,1,3.3,1.6c3.359,1.641,7.029,3.2,10.269,5.018l.137.54c.274,1.293-2.024,5.808-2.826,6.982a3.6,3.6,0,0,1-.53.6c-.183,1.815-2.7,5.007-4.124,6.151a3.5,3.5,0,0,1-1.018.587c.884,2.97,1.43,6.018,2.064,9.048.235,1.127.783,2.55.53,3.677-.235.009-1.2-1.014-1.469-1.232a11.8,11.8,0,0,0-4.843-2.2,18.743,18.743,0,0,0-14.216,2.431l-.558-.891.07-.114a7.988,7.988,0,0,0,.539-4.436c-.588-.505-3.136-.506-4.072-.781a15.239,15.239,0,0,1-6.7-4.272,14.914,14.914,0,0,1-3.1-5.428c-.36-1.072-.387-2.42-1.158-3.278l-.11-.112a4.511,4.511,0,0,0,.113-2.481,40.119,40.119,0,0,1-.027-4.491,31.151,31.151,0,0,1,2.271-9.333l-.457-.723,1-.254a4.7,4.7,0,0,0,.872-2.716" transform="translate(-712.562 -105.236)" fill="#f6b173"/>
          <path id="Trazado_995900" data-name="Trazado 995900" d="M1079.486,194.327a6.3,6.3,0,0,1,1.3.065l.643.886a4.65,4.65,0,0,1-.064,1.939c-.329.756-.789.8-1.494,1.108a.777.777,0,0,1-.378-.1c-.707-.393-.8-.882-1.008-1.593a5.45,5.45,0,0,1,1-2.306" transform="translate(-749.755 -135.086)" fill="#0e2237"/>
          <path id="Trazado_995901" data-name="Trazado 995901" d="M1038.114,190.512a2.274,2.274,0,0,1,1.762.1,2.516,2.516,0,0,1,.668,1.933c-.1,1-.561,1.24-1.289,1.759a1.727,1.727,0,0,1-.838.067l-.8-.877a4.872,4.872,0,0,1,.5-2.984" transform="translate(-721.307 -132.355)" fill="#0e2237"/>
          <path id="Trazado_995902" data-name="Trazado 995902" d="M1046.153,223.317l12.561.859.146.341a3.613,3.613,0,0,1-1.756,1.626l-.165.24c-.881,1.016-3.331,1.49-4.59,1.477-3.353-.034-3.969-2.424-5.971-4.331Z" transform="translate(-727.279 -155.249)" fill="#fefefe"/>
          <path id="Trazado_995903" data-name="Trazado 995903" d="M1112.823,171.453a5.491,5.491,0,0,1,1.042-.077,17.961,17.961,0,0,1,3.3,1.6c3.359,1.641,7.029,3.2,10.269,5.018l.137.54c.274,1.293-2.024,5.808-2.826,6.982a3.6,3.6,0,0,1-.53.6c-.183,1.815-2.7,5.007-4.124,6.151a3.5,3.5,0,0,1-1.018.587,11.019,11.019,0,0,0-.838-4.317,8.284,8.284,0,0,0,3.2-1.89,6.413,6.413,0,0,0,1.844-4.7,4.7,4.7,0,0,0-1.734-3.389,4.925,4.925,0,0,0-5.374-.906c-.744.4-1.131,1-2.033,1.028a4.116,4.116,0,0,1-.57-.586c-.11-.351.491-2.84.479-3.617a3.569,3.569,0,0,0-1.222-3.034" transform="translate(-773.628 -119.131)" fill="#0e2237"/>
          <path id="Trazado_995904" data-name="Trazado 995904" d="M1090.307,227.725a11.02,11.02,0,0,1,.838,4.317c.884,2.97,1.429,6.018,2.063,9.048.235,1.127.783,2.55.53,3.677-.235.009-1.2-1.014-1.469-1.232a11.8,11.8,0,0,0-4.843-2.2,18.743,18.743,0,0,0-14.216,2.431l-.558-.891.07-.114a7.989,7.989,0,0,0,.539-4.436,16.83,16.83,0,0,1,3.81-.474,17.885,17.885,0,0,0,10.653-5.637c.972-1.035,2.63-3.079,2.582-4.488" transform="translate(-745.702 -158.313)" fill="#ef9034"/>
          <path id="Trazado_995905" data-name="Trazado 995905" d="M79.851,566.088l6.813,2.04,7.574,2.54a4.115,4.115,0,0,0,1.173-2.089l1.354.439-.056,22.218-4.315-1,.059,8.02.175,48.27c-.243-1.693-1.293-2.68-2.224-4.054a83.247,83.247,0,0,1-10.27-20.224c-5.12-15.208-6.87-31.7-3.079-47.421a42.3,42.3,0,0,1,2.8-8.741" transform="translate(-52.148 -393.541)" fill="#d8e7d6"/>
          <path id="Trazado_995906" data-name="Trazado 995906" d="M113.227,572.78l7.574,2.54a4.115,4.115,0,0,0,1.173-2.089l1.354.439-.056,22.218-4.315-1-5.736-1.7Z" transform="translate(-78.711 -398.193)" fill="#0d7b3c"/>
          <path id="Trazado_995907" data-name="Trazado 995907" d="M361.662,231.6a3.907,3.907,0,0,1-1.1-.709c-.985-1.027-.684-4.059-.707-5.448l-13.574.048.549-.511c3.519-3.36,6.609-7.216,9.95-10.754.516-.546,2.918-2.667,3.076-3.211.259-.9-.123-2.5-.06-3.5a2.289,2.289,0,0,1,1.006-1.761c2.145-.873,6.078-.249,8.439-.234l16.648.03,7.445-.016a19.729,19.729,0,0,1,3.579.072c.852.168,1.386,1.134,1.843,1.809l.149,14.43c0,2.786.381,6.267-.426,8.942a20.03,20.03,0,0,0,2.343,2.98l2.48,3.353-.64,2.057-10.078-6.726a9.237,9.237,0,0,0-1.633-1.069,10.067,10.067,0,0,0-2.017,0l-5.033,0-14.537,0c-2.475,0-5.3-.26-7.7.222" transform="translate(-240.735 -142.715)" fill="#a1d9ea"/>
          <path id="Trazado_995908" data-name="Trazado 995908" d="M413.466,263.716c1.863-.34,12.092-.552,13.41.17l.109.906-7.72.08a38.62,38.62,0,0,1-5.305-.1Z" transform="translate(-287.439 -183.116)" fill="#0d6d6d"/>
          <path id="Trazado_995909" data-name="Trazado 995909" d="M413.751,245.73a30.018,30.018,0,0,1,4.618-.147l8.069-.033c3.232-.01,7.332-.509,10.473.11l.37,1.077-16.09.074c-1.993,0-5.4.434-7.182-.2Z" transform="translate(-287.637 -170.566)" fill="#0d6d6d"/>
          <path id="Trazado_995910" data-name="Trazado 995910" d="M413.481,226.4c2.02-.2,4.148-.074,6.184-.076l11.083-.007c1.441,0,4.157-.357,5.433,0a3.636,3.636,0,0,1,.616.347l.156,1.01-16.068.012c-1.835,0-5.638.472-7.167-.381Z" transform="translate(-287.45 -157.226)" fill="#0d6d6d"/>
          <path id="Trazado_995911" data-name="Trazado 995911" d="M155.834,103.474l.063-.142c1.467-3.1,6.989-5.291,10.052-6.326a47.009,47.009,0,0,1,20.691-2.54,11.629,11.629,0,0,1,4.218.956c1.884,1.046,2.5,4.395,3.036,6.345a52.248,52.248,0,0,1,17.1,1.317,14.319,14.319,0,0,1,5.782,2.669,4.913,4.913,0,0,1,1.625,2.989c.025,2.089-1.6,4.119-3.057,5.426-3.767,3.38-9.543,5.755-14.359,7.134l-5.811,1.792.024.287c.671.1.95.057,1.458.526-.748.592-1.037.23-1.6.555a3.474,3.474,0,0,1-2.094.47c-.305-.095-.187-.028-.359-.329a1.682,1.682,0,0,0-.539-.585l-14.762,3.7c.064-2.515-.593-4.635-.992-7.066l.854-.416-.957.009-2.99-4.639a57.224,57.224,0,0,1-16.711-.439l-.162-1.962a14.948,14.948,0,0,0-.2-3.4Z" transform="translate(-108.335 -65.474)" fill="#f6ba4d"/>
          <path id="Trazado_995912" data-name="Trazado 995912" d="M235.217,139.825l1.03,3.763c-2.529,3.432-6.787,4.8-10.633,6.207a35.857,35.857,0,0,1-7.468,2.157,7.1,7.1,0,0,1-1.356.017l-.957.009-2.99-4.639.506-.044c7.541-1.752,15.16-3.4,21.868-7.471" transform="translate(-147.967 -97.206)" fill="#e6773d"/>
          <path id="Trazado_995913" data-name="Trazado 995913" d="M155.834,124.67c1.911,2.116,3.981,2.147,6.548,3.036a19.69,19.69,0,0,1,5.033,2.665,23.006,23.006,0,0,1,3.687,3.454c.736.84,1.611,2.505,2.615,2.935l-.506.044a57.223,57.223,0,0,1-16.711-.439l-.162-1.962a14.948,14.948,0,0,0-.2-3.4Z" transform="translate(-108.335 -86.67)" fill="#ef9034"/>
          <path id="Trazado_995914" data-name="Trazado 995914" d="M570.985,11.327V4.8a5.245,5.245,0,0,1,2.12-3.378A6.481,6.481,0,0,1,576.556.061L601.666.043H652.4L681.839.037,690,.045a32.126,32.126,0,0,1,4.313.06,5.992,5.992,0,0,1,4.066,2.434,2.989,2.989,0,0,1,.707,2.637c.75,1.666.445,4.354.448,6.195Z" transform="translate(-396.945 0)" fill="#4589ad"/>
          <path id="Trazado_995915" data-name="Trazado 995915" d="M864.107,785.372a9.446,9.446,0,0,0,5.866,2.471l.031,7.909a4.771,4.771,0,0,1-.254,2.508l-10.667-11.769a23.433,23.433,0,0,0,5.025-1.119" transform="translate(-597.229 -545.986)" fill="#d8e7d6"/>
          <path id="Trazado_995916" data-name="Trazado 995916" d="M795.781,811.67l14.017,10.4-31.57.1c1.641-.818,3.605-1.284,5.323-2,4.767-1.982,8.512-4.981,12.23-8.5" transform="translate(-541.02 -564.268)" fill="#d8e7d6"/>
          <path id="Trazado_995917" data-name="Trazado 995917" d="M596.745,794.815a29.66,29.66,0,0,0,10.038,11.442c2.512,1.7,5.211,2.563,7.826,4-6.977.491-14.25.013-21.254.022l-13.05.107c-1.8.016-4.455.381-6.141-.231.121-.906-.118-2.014.39-2.817l6.494-10.68,3.569.592c4.533.715,8.361.3,12.128-2.435" transform="translate(-399.155 -552.551)" fill="#d8e7d6"/>
          <path id="Trazado_995918" data-name="Trazado 995918" d="M442.214,804.138l0-11.122c6.045-.742,10.674-3.746,15.5-7.156,4.066,3.718,10.7,3.6,15.889,3.534l7.949,12.064.038,2.492c-1.275.685-35.836.315-39.373.189" transform="translate(-307.423 -546.325)" fill="#d8e7d6"/>
          <path id="Trazado_995919" data-name="Trazado 995919" d="M180.057,647.053a80.947,80.947,0,0,0,13.216-2.911l.3,46.171.012,15.393-25.5.044-6.034-.048-29.776-.009-.009-4.9-.175-48.27-.059-8.02,4.315,1,8.755,1.484a170.714,170.714,0,0,0,34.948.072" transform="translate(-91.793 -447.804)" fill="#153c4f"/>
          <path id="Trazado_995920" data-name="Trazado 995920" d="M132.039,645.322l4.315,1,8.755,1.484a12.436,12.436,0,0,1-7.054,6.559,23.648,23.648,0,0,1-5.369,1.168c-.5-.67-.38-1.4-.588-2.187Z" transform="translate(-91.793 -448.624)" fill="#09222d"/>
          <path id="Trazado_995921" data-name="Trazado 995921" d="M230.522,740.723l2.47-45.981.445-.225,3.118,46.253Z" transform="translate(-160.257 -482.824)" fill="#d8e7d6"/>
          <path id="Trazado_995922" data-name="Trazado 995922" d="M255.172,647.053a80.947,80.947,0,0,0,13.216-2.911l.3,46.171.012,15.393-25.5.044L240.088,659.5c.976-1.017,3.312-1.246,4.644-1.794a17.965,17.965,0,0,0,10.44-10.65" transform="translate(-166.908 -447.804)" fill="#09222d"/>
          <path id="Trazado_995923" data-name="Trazado 995923" d="M1013.111,495.069a3.324,3.324,0,0,1,1.725.648c2.243.388,4.557,1.684,6.66,2.575l12.485,5.285,4.005,1.614a7.663,7.663,0,0,1,1.488.592,2.347,2.347,0,0,1,.311.435c.277,1.763.518,19.576-.092,20.472l-.7.813,0,.3a3.927,3.927,0,0,1-.375,2.082,2.64,2.64,0,0,1,.4,1.008,75.818,75.818,0,0,1,.1,8.081l.107,17.851.012,9.967a21.5,21.5,0,0,1-.079,4.5l-.189.51c-1,8.094.125,14.333-.1,14.73l-.089.156c.619,1.558.338,3.79.329,5.466l-.125,9.736-.2.008c-1.384.666-5.127.224-6.812.227l-20.291.028c.012-1.056.226-2.614-.427-3.481l-.1-.123a10.1,10.1,0,0,1,.341,3.588l-14.006-.02-.564-.761.021.66a43.514,43.514,0,0,1-6.392.081l-17.715-.029-.536-.964c.844-1.59.64-4.567.823-6.414L974.69,580.5l4.179-30.895,2.381-15.847c.283-1.926,1.088-4.541.649-6.429a1.6,1.6,0,0,0-.357-.908c-.753-1.081-.448-2.885-.448-4.178.006-2.756.576-14.213-.43-15.641,6.974-.507,14.2-.139,21.2-.142h7.8a30.184,30.184,0,0,1,4.429.093l1.07-.312c.36-.837-.1-1.8-.317-2.641l-1.481-6.207a4.353,4.353,0,0,1-.259-2.321" transform="translate(-675.939 -344.169)" fill="#153c4f"/>
          <path id="Trazado_995924" data-name="Trazado 995924" d="M1155.163,675.061l-2-.157c-.89-1.861-.53-5.749-.631-7.926l-1.061-24.587-1.832-32.69a20.069,20.069,0,0,1-3.447-1.09c-3.234-1.54-5.365-4.889-6.493-8.178,4.926.085,10.19-.4,15.064.123a2.665,2.665,0,0,1,.3,2.33l-.064.159a2.634,2.634,0,0,1,.4,1.008,75.787,75.787,0,0,1,.1,8.081l.107,17.851.012,9.967c0,1.378-.116,23.688-.125,25.364l-.125,9.735Z" transform="translate(-792.315 -417.333)" fill="#0e2237"/>
          <path id="Trazado_995925" data-name="Trazado 995925" d="M1031.918,702.189c-.219-.473-.082-.693.037-1.178l9.278-39.675,3.834-16.9c-2.137-1.809-4.581-3.417-6.559-5.383l12.948,4.58c.2,2.348.911,14.207-.177,15.683l-.122.153a4.976,4.976,0,0,1,.619.78c.323.763.137,3.3.177,4.261l.616,22.778c.091,3.374.54,7.149.262,10.486a2.241,2.241,0,0,1-.314.872,10.093,10.093,0,0,1,.341,3.588l-14.006-.02-.564-.761.021.66a43.515,43.515,0,0,1-6.392.081" transform="translate(-717.302 -444.263)" fill="#09222d"/>
          <path id="Trazado_995926" data-name="Trazado 995926" d="M1065.952,706.028a4.973,4.973,0,0,1,.619.78c.323.763.137,3.3.177,4.261l.615,22.778c.092,3.374.54,7.149.262,10.486a2.241,2.241,0,0,1-.314.872,10.093,10.093,0,0,1,.342,3.588l-14.006-.02-.564-.761.079-.112.411-.617c.728-1.263.991-3.306,1.408-4.723l4.526-15.237L1066,707.012a1.619,1.619,0,0,0-.046-.984" transform="translate(-732.097 -490.827)" fill="#d8e7d6"/>
          <path id="Trazado_995927" data-name="Trazado 995927" d="M1032.18,495.069a3.324,3.324,0,0,1,1.725.648c2.243.388,4.557,1.684,6.66,2.575l12.485,5.285,4.005,1.614a7.661,7.661,0,0,1,1.488.592,2.353,2.353,0,0,1,.311.435c.277,1.763.518,19.576-.091,20.472l-.7.813,0,.3a3.927,3.927,0,0,1-.375,2.082l.064-.159a2.666,2.666,0,0,0-.3-2.33c-.165-.157-.189-.258-.427-.257l-28.8-.087-19.636,0c-2.152-.006-5.755-.534-7.626.281a1.6,1.6,0,0,0-.357-.908c-.753-1.081-.448-2.885-.448-4.178.006-2.756.576-14.213-.43-15.641,6.974-.507,14.2-.139,21.2-.142h7.8a30.182,30.182,0,0,1,4.429.093l1.07-.312c.36-.837-.1-1.8-.317-2.641l-1.481-6.207a4.355,4.355,0,0,1-.259-2.321" transform="translate(-695.009 -344.169)" fill="#23b07a"/>
          <path id="Trazado_995928" data-name="Trazado 995928" d="M1097.173,495.069a3.324,3.324,0,0,1,1.725.648c2.243.388,4.557,1.684,6.66,2.575l12.485,5.285,4.005,1.614a7.662,7.662,0,0,1,1.487.592,2.348,2.348,0,0,1,.311.435c.277,1.763.518,19.576-.092,20.472l-.7.813,0,.3a3.928,3.928,0,0,1-.375,2.082l.064-.159a2.666,2.666,0,0,0-.3-2.33c-.165-.157-.189-.258-.427-.257l-28.8-.087c4.886-1.436,11.558-2.875,14.877-7.016a3.671,3.671,0,0,0,.866-2.58c-.366-2.176-8.745-9.337-10.805-10.9l1.07-.312c.36-.837-.1-1.8-.317-2.641l-1.481-6.207a4.355,4.355,0,0,1-.259-2.321" transform="translate(-760.002 -344.169)" fill="#0fa262"/>
          <path id="Trazado_995929" data-name="Trazado 995929" d="M1105.973,495.069a3.325,3.325,0,0,1,1.725.648,46.03,46.03,0,0,1,1.765,6.96c.234.967.753,2.323.39,3.248a2.973,2.973,0,0,1-1.823.313c.36-.837-.1-1.8-.317-2.641l-1.481-6.207a4.353,4.353,0,0,1-.259-2.321" transform="translate(-768.802 -344.169)" fill="#0e2237"/>
          <path id="Trazado_995930" data-name="Trazado 995930" d="M954.289,216.231c3.042.6,6.535.292,9.65.513l.354-.281.11.112c.771.858.8,2.207,1.158,3.279a14.913,14.913,0,0,0,3.1,5.428,15.242,15.242,0,0,0,6.7,4.272c.936.275,3.484.275,4.072.781a7.991,7.991,0,0,1-.539,4.436l-.07.114.558.891a18.744,18.744,0,0,1,14.216-2.431,11.8,11.8,0,0,1,4.843,2.2c.265.218,1.234,1.241,1.469,1.232.415.7.594.844.466,1.677,9.55-.544,18.3.675,25.64,7.264,3.505,3.15,6.364,6.964,6.608,11.859l.152,15.776c0,1.186.311,3.4,0,4.491a3.753,3.753,0,0,1-.521.654,4.9,4.9,0,0,1-1.353.321,18.621,18.621,0,0,1,.238,4.479l-.012,7.578c-.018,5.536.366,11.434-.134,16.916a7.912,7.912,0,0,1-.994,3.431,6.508,6.508,0,0,1-4.362,3.119c-2.28.538-5.234-.717-7.413-1.426a5.016,5.016,0,0,0-2.511-.544,2.335,2.335,0,0,0-.311-.435,7.652,7.652,0,0,0-1.487-.592l-4.005-1.614-12.485-5.285c-2.1-.891-4.417-2.187-6.66-2.575a3.325,3.325,0,0,0-1.726-.648,4.357,4.357,0,0,0,.259,2.321l1.481,6.207c.216.845.677,1.8.317,2.641l-1.07.312a30.185,30.185,0,0,0-4.428-.093h-7.8c-7,0-14.228-.365-21.2.142-2.484-.508-5.935-.059-8.525-.056-.89-1.038-.223-3.127-1.338-4.236l-.116-.1a1.383,1.383,0,0,0,.165-.611,33.621,33.621,0,0,0-1.21-5.585c-.485-2.238-.728-5.009-1.533-7.115a2.1,2.1,0,0,0-.643-.818l.146-.734-.427-.583a2.343,2.343,0,0,0,.174-.955c-.223-3.437-1.463-7.292-2.231-10.663a34.617,34.617,0,0,0-1.164-5.077,3.015,3.015,0,0,0-.85-1.106c.469-1.153-.064-2.326-.35-3.511l-1.009-4.734c1.451-1.019,2.673-.8,4.4-.86a2.37,2.37,0,0,0,.387-.448,18.365,18.365,0,0,0,.859-3.614c.338-1.317.683-2.652,1.122-3.938.384-1.117,1.125-2.455.89-3.645.893-.714,1.247-2,1.71-3.023a28.66,28.66,0,0,1,2.472-4.475,21.231,21.231,0,0,1,2.694-3.226,14.254,14.254,0,0,0,2.323-2.211c-.582-6-.058-12.516,0-18.554.015-1.974.4-4.783-.253-6.641" transform="translate(-651.872 -150.323)" fill="#23b07a"/>
          <path id="Trazado_995931" data-name="Trazado 995931" d="M985.383,363.7l.1-.144c.869-1.377.866-3.634,1.2-5.234a3.973,3.973,0,0,1,.433-1.541c.369,1.48,1.527,5.667.777,6.916a19.533,19.533,0,0,1-2.506,0" transform="translate(-685.032 -248.033)" fill="#03624a"/>
          <path id="Trazado_995932" data-name="Trazado 995932" d="M1179.733,390.381l.2.043c2.143.431,4.758.159,6.953.151l13.957-.044.006,5.994a6.86,6.86,0,0,1-.323,3.04,4.9,4.9,0,0,1-1.354.321l-11.6-.109c-1.448,0-3.819-.3-5.109.318l-.128-.343-1.237-.118c-.6-.681-.463-1.374-.521-2.266-.137-2.046.088-5.154-.85-6.989" transform="translate(-820.143 -271.391)" fill="#0d7b3c"/>
          <path id="Trazado_995933" data-name="Trazado 995933" d="M1147.523,384.767a16.072,16.072,0,0,0,3.3-4.8c3.5-6.914,3.84-14.322,4.642-21.887a43.791,43.791,0,0,1,1.149-7.684l.61,7c.177,1.6.664,3.646.113,5.187.939,1.835.713,4.942.85,6.989.058.892-.082,1.584.521,2.266l1.237.118.128.343c.5,1.286.649,15.769.219,17.045l-.061.13Z" transform="translate(-797.751 -243.591)" fill="#03624a"/>
          <path id="Trazado_995934" data-name="Trazado 995934" d="M1062.293,272.835l.558.891a18.743,18.743,0,0,1,14.216-2.431,11.8,11.8,0,0,1,4.843,2.2c.265.218,1.234,1.241,1.469,1.232.414.7.594.844.466,1.677l.064.147.088.246a2.225,2.225,0,0,1,.04,1.526c-.7,2.517-3.164,4.485-5.383,5.678a18.6,18.6,0,0,1-13.588,1.287c-2.64-.792-5.529-2.436-6.837-4.975a4.162,4.162,0,0,1-.272-3.215l.36-.94,3.911-.152a8.677,8.677,0,0,0,.064-3.171" transform="translate(-735.342 -188.274)" fill="#f6b173"/>
          <path id="Trazado_995935" data-name="Trazado 995935" d="M992.126,216.231c3.042.6,6.535.292,9.65.513l.354-.281.11.112c.771.858.8,2.207,1.158,3.279a14.913,14.913,0,0,0,3.1,5.428,15.242,15.242,0,0,0,6.7,4.272c.936.275,3.484.275,4.073.781a7.992,7.992,0,0,1-.539,4.436l-.07.114a8.667,8.667,0,0,1-.064,3.171l-3.911.151c-4.8-.432-10.778-.528-15.365,1.081-1.679.589-3.252,1.647-4.938,2.139-.582-6-.058-12.516,0-18.554.015-1.974.4-4.783-.253-6.641" transform="translate(-689.709 -150.323)" fill="#d8e7d6"/>
          <path id="Trazado_995936" data-name="Trazado 995936" d="M1058.944,418.542c.539-.287,1.558-1.05,2.139-.9a8,8,0,0,1,2.716,2.085c1.929,1.85,4.359,3.833,5.816,6.076l-.052,3.5a28.453,28.453,0,0,1,5.593,2.2l12.713,4.705.061-.13c.43-1.277.283-15.759-.219-17.045,1.29-.621,3.661-.319,5.108-.318l11.6.109a18.615,18.615,0,0,1,.238,4.479l-.012,7.578c-.018,5.536.366,11.434-.134,16.916a7.917,7.917,0,0,1-.994,3.431,6.509,6.509,0,0,1-4.362,3.119c-2.28.538-5.233-.717-7.413-1.426a5.017,5.017,0,0,0-2.511-.544,2.371,2.371,0,0,0-.311-.435,7.662,7.662,0,0,0-1.488-.592l-4.005-1.614-12.485-5.285c-2.1-.891-4.417-2.187-6.66-2.575a3.325,3.325,0,0,0-1.725-.648,11.255,11.255,0,0,0-3.164-1.034l-8.62-2.323c-1.122-.275-3.594-.564-4.48-1.259a6.524,6.524,0,0,1-.713-.851,2.838,2.838,0,0,1,.21-2.013l.1-.246a4.313,4.313,0,0,1-1.121-.45,2.5,2.5,0,0,1-1.189-1.793c.467-1.158,1.113-1.249,1.756-2.166l-1.71-1.421a2.08,2.08,0,0,1,0-1.766,3,3,0,0,1,1.746-.956l.207-.039.186-.427a2.047,2.047,0,0,1-.186-3.78,13.3,13.3,0,0,1,4.673.716l7.6,1.93,2.463.516c.3-1.24-1.006-3.79-1.326-5.13Z" transform="translate(-725.385 -290.331)" fill="#f6b173"/>
          <path id="Trazado_995937" data-name="Trazado 995937" d="M954.728,379.473l27.938.01,2.021,8.458c.284,1.154.957,2.923.744,4.077l.049.2c.32,1.339,1.625,3.889,1.326,5.13l-2.463-.516-7.6-1.93a13.3,13.3,0,0,0-4.673-.716,2.047,2.047,0,0,0,.186,3.78l-.186.427-.208.039a3,3,0,0,0-1.746.956,2.08,2.08,0,0,0,0,1.766l1.71,1.421c-.643.917-1.289,1.008-1.756,2.166a2.5,2.5,0,0,0,1.189,1.793,4.317,4.317,0,0,0,1.122.45l-.1.246a2.839,2.839,0,0,0-.21,2.013,6.525,6.525,0,0,0,.713.851c.887.694,3.359.984,4.481,1.259l8.62,2.323a11.257,11.257,0,0,1,3.164,1.034,4.357,4.357,0,0,0,.259,2.321l1.481,6.207c.216.845.677,1.8.317,2.641l-1.07.312a30.164,30.164,0,0,0-4.428-.093h-7.8c-7,0-14.228-.366-21.2.142-2.484-.508-5.935-.059-8.525-.056-.89-1.038-.223-3.127-1.338-4.236l-.116-.1a1.383,1.383,0,0,0,.165-.611,33.623,33.623,0,0,0-1.21-5.585c-.485-2.238-.728-5.009-1.533-7.115a2.1,2.1,0,0,0-.643-.818l.146-.734-.427-.583a2.343,2.343,0,0,0,.174-.955c-.223-3.437-1.463-7.292-2.231-10.663a34.617,34.617,0,0,0-1.164-5.077,3.015,3.015,0,0,0-.85-1.106c.469-1.153-.064-2.326-.35-3.511l-1.009-4.734c1.451-1.019,2.673-.8,4.4-.86l6.922.052a140.973,140.973,0,0,1,5.718-.071" transform="translate(-651.872 -263.807)" fill="#68727a"/>
          <path id="Trazado_995938" data-name="Trazado 995938" d="M947.193,391.16l26.878.013c.7.407.695,1.021.924,1.777l-.53.968c-2.606.39-5.794.038-8.455.038l-17.459.181a7.366,7.366,0,0,0-1.183-2.733Z" transform="translate(-658.483 -271.932)" fill="#cbcdc7"/>
          <path id="Trazado_995939" data-name="Trazado 995939" d="M954.728,379.473l27.938.01,2.021,8.458c.284,1.154.957,2.923.744,4.077l.049.2c.32,1.339,1.625,3.889,1.326,5.13l-2.463-.516c.588-1.431-.625-4.773-.984-6.308l-2.106-9.618-43.045.13-.524-.685c1.451-1.019,2.673-.8,4.4-.86l6.922.052a140.973,140.973,0,0,1,5.718-.071" transform="translate(-651.872 -263.807)" fill="#153c4f"/>
          <path id="Trazado_995940" data-name="Trazado 995940" d="M62.8,249.916a6.848,6.848,0,0,0,1.482-2.968c1.532,2.892,6.083,5.006,9.1,5.948a23.587,23.587,0,0,0,6.132.975l-.3,5.931c1.641.584,6.034,1.833,6.842,3.225l.141.234.087.163c5.392.7,9.16,2.35,12.549,6.729l.883,1.192L101,273.282c-.226,1.942.768,4.493,1.139,6.476a63.33,63.33,0,0,1,.884,7.044c.688,9.469.478,19.14.516,28.635.879,1.039,1.874,2.027,1.809,3.492a7.975,7.975,0,0,1-1.192,2.834l-.506,1.1-.063,35.611v6.654a8.4,8.4,0,0,1,0,1.938,3.219,3.219,0,0,1-.5.5l-1.609.45a80.934,80.934,0,0,1-13.216,2.911,170.708,170.708,0,0,1-34.948-.072l-8.755-1.483.056-22.218-1.354-.439a4.115,4.115,0,0,1-1.173,2.089l-7.574-2.54-6.813-2.04-11.9-3.811a50.3,50.3,0,0,1-6.743-2.4,16.328,16.328,0,0,1-8.294-9.592c-2.229-6.632.836-12.886,3.747-18.751a218.085,218.085,0,0,1,16.068-27.029c3.929-5.659,8.1-12.1,14.43-15.3a25.2,25.2,0,0,1,6-1.772,97.107,97.107,0,0,0,10.02-2.5c2.423-1.966,6.3-3.412,9.16-4.683l2.878-8.283Z" transform="translate(0 -171.677)" fill="#0fa262"/>
          <path id="Trazado_995941" data-name="Trazado 995941" d="M244.686,441.284a2.924,2.924,0,0,1,1.956,1.278,3.048,3.048,0,0,1-.853,2.262,2.939,2.939,0,0,1-1.869-1.313c-.064-1.128.172-1.3.766-2.226" transform="translate(-169.564 -306.778)" fill="#fefefe"/>
          <path id="Trazado_995942" data-name="Trazado 995942" d="M243.164,379.126l.56.174c.855.323,1.042.714,1.4,1.491a2.855,2.855,0,0,1-1.1,2.2,4.841,4.841,0,0,1-.981-.3,1.685,1.685,0,0,1-.988-1.219c-.168-1.111.432-1.591,1.107-2.342" transform="translate(-168.257 -263.566)" fill="#fefefe"/>
          <path id="Trazado_995943" data-name="Trazado 995943" d="M93.528,459.953c-.012.739.167,2.953-.225,3.449l-8.179-3.331,8.35-13.047Z" transform="translate(-59.177 -310.768)" fill="#fefefe"/>
          <path id="Trazado_995944" data-name="Trazado 995944" d="M245.636,289.137l.135-.019c1.641.584,6.034,1.833,6.842,3.225l.141.234.087.163-.242.184c-.714.589-1.209,2.607-1.57,3.555l-3.877,10.272L242.41,301.1a15.723,15.723,0,0,0-2.787-2.941l-.038-.235a37.179,37.179,0,0,0,6.052-8.791" transform="translate(-166.557 -200.993)" fill="#a1cfc0"/>
          <path id="Trazado_995945" data-name="Trazado 995945" d="M167.422,289.144c2.423-1.966,6.3-3.412,9.16-4.683l12.835,10.23.038.235a50.374,50.374,0,0,1-3.737,3.457l-7.271,6.639Z" transform="translate(-116.391 -197.756)" fill="#d8e7d6"/>
          <path id="Trazado_995946" data-name="Trazado 995946" d="M200.082,249.916a6.848,6.848,0,0,0,1.482-2.968c1.532,2.892,6.083,5.006,9.1,5.948a23.588,23.588,0,0,0,6.132.975l-.3,5.931-.135.02a37.182,37.182,0,0,1-6.052,8.791l-12.835-10.23,2.878-8.283Z" transform="translate(-137.283 -171.677)" fill="#f6b173"/>
          <path id="Trazado_995947" data-name="Trazado 995947" d="M206.03,249.916a6.847,6.847,0,0,0,1.482-2.968c1.532,2.892,6.083,5.006,9.1,5.948a23.587,23.587,0,0,0,6.132.975l-.3,5.931-.135.02-1.69-.063c-6.833-.585-10.294-4.842-14.32-9.659Z" transform="translate(-143.231 -171.677)" fill="#ea593c"/>
          <path id="Trazado_995948" data-name="Trazado 995948" d="M112.517,363.452c2.015-3.613,4.654-6.973,7.022-10.366a24.115,24.115,0,0,0,2.832-4.356c2.092-5.305,1.385-12.769-.985-17.817-.322-.686-1.933-2.994-1.969-3.595a1.515,1.515,0,0,1,.158-.508H120c3.59,4.514,4.856,10.928,4.236,16.57-.207,1.883-.378,4.627-1.481,6.189l.052,33.8c1.2.466,4.581,1.4,5.217,2.365l-.477.284a71.376,71.376,0,0,1-7.013-2.726c-2.58-1.048-5.233-1.983-7.738-3.2a18.986,18.986,0,0,0-.22-3.714Z" transform="translate(-78.221 -227.196)" fill="#0d7b3c"/>
          <path id="Trazado_995949" data-name="Trazado 995949" d="M162.008,480.34A61.08,61.08,0,0,1,167.7,469.8a4.585,4.585,0,0,1,3.089-2,30.546,30.546,0,0,1,4.472-.079l8.018.034,10.965.056c1.889.013,3.923-.124,5.8.081a4.72,4.72,0,0,1,2.168.992c.879,1.039,1.874,2.027,1.809,3.492a7.975,7.975,0,0,1-1.192,2.834l-.506,1.1-.063,35.611v6.654a8.4,8.4,0,0,1,0,1.938,3.218,3.218,0,0,1-.495.5l-1.609.45a80.934,80.934,0,0,1-13.216,2.911,170.71,170.71,0,0,1-34.948-.072l-8.755-1.484.056-22.218-1.354-.439a16.291,16.291,0,0,1,1.262-3.662l4.251-10.631a28.288,28.288,0,0,1,5.4,2.377Z" transform="translate(-98.673 -325.133)" fill="#153c4f"/>
          <path id="Trazado_995950" data-name="Trazado 995950" d="M259.866,482.351l1.848.108.372.574-.193.582c-1.465.781-20.294.286-23.541.278a11.742,11.742,0,0,1-3.216-.152l-.144-.708.448-.564Z" transform="translate(-163.364 -335.328)" fill="#fefefe"/>
          <path id="Trazado_995951" data-name="Trazado 995951" d="M162.008,509.2a5.39,5.39,0,0,1,2.82.762,2.732,2.732,0,0,1,.756,2.167c-.125,1.51-2.943,4.186-3.912,5.388-.267.332-.835.925-.809,1.385a4.345,4.345,0,0,0,.432.813c1.073.681,2.751.4,4.033.4l8.653-.024a18.413,18.413,0,0,1,4.126.094,2.1,2.1,0,0,1,1.182,1.156,2.62,2.62,0,0,1-.376,1.935,4.616,4.616,0,0,1-1.451.827l.265.844a3.812,3.812,0,0,1-1.637,2.992,3.533,3.533,0,0,1-1.239.615l.047.506a2.359,2.359,0,0,1-.9,2.128,9.276,9.276,0,0,1-2.956,1.578,25.78,25.78,0,0,1-10.493,2.171l-4.083-.612a37.736,37.736,0,0,1-7.389-4.637l-1.083,1c-1.437.156-3.337-.762-4.7-1.216l-1.354-.439a16.292,16.292,0,0,1,1.262-3.662l4.251-10.631a28.292,28.292,0,0,1,5.4,2.377Z" transform="translate(-98.673 -353.993)" fill="#f6b173"/>
          <path id="Trazado_995952" data-name="Trazado 995952" d="M224.233,573.2a48.577,48.577,0,0,1-7.418.643,12.423,12.423,0,0,1-3.774-.064l-.138-.577.409-.484,10.875-.025Z" transform="translate(-148.008 -398.136)" fill="#e6773d"/>
          <path id="Trazado_995953" data-name="Trazado 995953" d="M227.672,558.381l-9.52.322a17.952,17.952,0,0,1-4.129-.2l-.243-.477.217-.468a9.641,9.641,0,0,1,3.483-.217,93.013,93.013,0,0,1,9.927.2Z" transform="translate(-148.619 -387.426)" fill="#e6773d"/>
          <path id="Trazado_995954" data-name="Trazado 995954" d="M177.813,527.137c2.436-.374,5.221,0,7.71-.093a5.982,5.982,0,0,0,3.08-.616,6.36,6.36,0,0,0,1.881-1.613c1.392-1.928,2.361-4.618,3.453-6.753l7.36-14.337c1.305-2.557,2.482-5.269,3.983-7.715l-.063,35.611v6.654a8.4,8.4,0,0,1,0,1.938,3.219,3.219,0,0,1-.5.5l-1.609.45a80.928,80.928,0,0,1-13.216,2.911A170.71,170.71,0,0,1,154.949,544l-8.755-1.484.056-22.218c1.368.454,3.268,1.372,4.7,1.216l1.083-1a37.736,37.736,0,0,0,7.389,4.637,4.186,4.186,0,0,0,3.032,1.975c4.568.728,9.664-.445,14.3.056Z" transform="translate(-101.633 -344.824)" fill="#0fa262"/>
          <path id="Trazado_995955" data-name="Trazado 995955" d="M244.338,598.181l1.058-.052.261.291a2.3,2.3,0,0,1,.613,2.22c-.594.741-.643.693-1.592.848a2.323,2.323,0,0,1-1.269-1.136c.014-1.121.279-1.293.93-2.172" transform="translate(-169.216 -415.816)" fill="#fefefe"/>
          <path id="Trazado_995956" data-name="Trazado 995956" d="M661.924,16.981a4.815,4.815,0,0,1,.607.828,12.4,12.4,0,0,1,0,2.54l-.085,9.819.055,33.921.021,8.688a25.725,25.725,0,0,1-.052,4.174,3.258,3.258,0,0,1-.268.763c.652,1.857.268,4.667.253,6.641-.055,6.038-.579,12.553,0,18.554a14.253,14.253,0,0,1-2.323,2.211,21.236,21.236,0,0,0-2.694,3.226,28.661,28.661,0,0,0-2.472,4.475c-.463,1.021-.817,2.309-1.71,3.023l-.1-.514-106.143.052a5.132,5.132,0,0,0,.286-2.991,2.832,2.832,0,0,0-1.209-1.047c-1.715-.771-4.036.342-5.672.928-3.816,1.45-8.222,3.022-12.324,3.278-1.466.091-3.613.42-4.789-.61.23-1.527,1.289-2.787,1.724-4.255a4.719,4.719,0,0,0-.106-3.281c-.612-.975-1.552-1.033-2.574-1.2l-2.48-3.353a20.031,20.031,0,0,1-2.343-2.98c.807-2.675.426-6.157.426-8.942l-.149-14.43,8.067-2.306c1.564-.389,3.176-.8,4.767-1.065a9.272,9.272,0,0,0,2.926-.593l.242-1.5.015-47.905,128.547.043c0-1.841.3-4.528-.448-6.195" transform="translate(-359.785 -11.805)" fill="#a1d9ea"/>
          <path id="Trazado_995957" data-name="Trazado 995957" d="M895.02,99.651l.511,1.068-3.715,1.3-.627-.526.346-.717Z" transform="translate(-619.55 -69.277)" fill="#0d6d6d"/>
          <path id="Trazado_995958" data-name="Trazado 995958" d="M627.723,258.3l1.035-.148.01,9.372a13.916,13.916,0,0,0,0,2.887,1.391,1.391,0,0,0,.305.355,2.688,2.688,0,0,0,.677.275v.624c-.75.424-2.118.218-2.98.194l-.308-.5c.484-.787.649-.3,1.121-.717.3-.265.138-11.009.137-12.342" transform="translate(-435.516 -179.463)" fill="#0d6d6d"/>
          <path id="Trazado_995959" data-name="Trazado 995959" d="M700.847,85.628a12.323,12.323,0,0,1,.959.96,25.819,25.819,0,0,1-3.409,1.924,26.194,26.194,0,0,1-3.906,2.4l-6.912,4.019-7.393,4.359-.842-1.028,7.807-4.51,9.564-5.586Z" transform="translate(-472.275 -59.528)" fill="#0d6d6d"/>
          <path id="Trazado_995960" data-name="Trazado 995960" d="M774.117,82.3l10.87,5.311a48.333,48.333,0,0,1,6.028,3.121c1.16.125,3.093,1.389,4.194,1.925a6.1,6.1,0,0,0,1.061.517c.75.021,2.657-.98,3.5-1.267l10.019-3.191-.346.717.627.526L798.877,93.48a11.2,11.2,0,0,1-3.028.848,15.474,15.474,0,0,1-3-1.408L773.6,83.5Z" transform="translate(-537.804 -57.212)" fill="#0d6d6d"/>
          <path id="Trazado_995961" data-name="Trazado 995961" d="M663.663,124.672l.182.737a4,4,0,0,1-.7,2.76,4.165,4.165,0,0,1-2.99,1.726,4.109,4.109,0,0,1-3.11-.873,4.151,4.151,0,0,1-1.467-2.86,4.332,4.332,0,0,1,1.34-2.984,4.18,4.18,0,0,1,2.913-1.034,4.106,4.106,0,0,1,2.992,1.5Z" transform="translate(-455.753 -84.91)" fill="#23b07a"/>
          <path id="Trazado_995962" data-name="Trazado 995962" d="M748.613,71.125a4.194,4.194,0,0,1-.558-1.924,4.955,4.955,0,0,1,1.567-3.47,3.988,3.988,0,0,1,3.164-.944,4.147,4.147,0,0,1,2.78,1.526,4.777,4.777,0,0,1,.79,3.8l-.515,1.2a4.3,4.3,0,0,1-2.951,1.916,4.141,4.141,0,0,1-2.9-.744l-.413-.4a12.327,12.327,0,0,0-.959-.96" transform="translate(-520.042 -45.025)" fill="#23b07a"/>
          <path id="Trazado_995963" data-name="Trazado 995963" d="M903.5,85.946c-.173-1.629-.287-2.9.778-4.261a4.331,4.331,0,0,1,2.973-1.715,4.7,4.7,0,0,1,3.9,1.211,4.356,4.356,0,0,1,1.439,3.178,4.167,4.167,0,0,1-1.289,3.364,4.609,4.609,0,0,1-3.487,1.357,4.407,4.407,0,0,1-3.221-1.337l-.583-.729Z" transform="translate(-628.031 -55.572)" fill="#23b07a"/>
          <path id="Trazado_995964" data-name="Trazado 995964" d="M617.64,122.681l-5.283,0-.261-.625.261-.45,5.286-.022,0-15.252c-1.624.009-3.837.262-5.374-.158l-.121-.645.346-.383,5.127-.032.006-14.387-5.268-.044-.216-.6.351-.427,5.152-.031-.006-14.8a27.673,27.673,0,0,1-5.553-.1l-.124-.624.4-.419h5.27l.066-10.418.489-.191.425.375.069,59.085Z" transform="translate(-425.432 -43.849)" fill="#0d6d6d"/>
          <path id="Trazado_995965" data-name="Trazado 995965" d="M882.19,223.319l17.036.019c.012,3.414.6,22.841-.43,24.393l-16.583,0Z" transform="translate(-613.293 -155.25)" fill="#23b07a"/>
          <path id="Trazado_995966" data-name="Trazado 995966" d="M655.388,213.317l16.489-.027.015,27.435-16.523.037Z" transform="translate(-455.609 -148.278)" fill="#ea593c"/>
          <path id="Trazado_995967" data-name="Trazado 995967" d="M517.808,199.794l8.067-2.306c1.564-.389,3.176-.8,4.767-1.065a9.272,9.272,0,0,0,2.926-.593l.242-1.5-.026,24.427c.009,3.458-.4,7.415.066,10.807a6.333,6.333,0,0,0,1.623,3.254,11.2,11.2,0,0,0,4.95,2.747c-3.816,1.45-8.222,3.022-12.324,3.279-1.466.091-3.613.42-4.789-.61.23-1.527,1.289-2.787,1.724-4.255a4.719,4.719,0,0,0-.106-3.281c-.612-.975-1.552-1.033-2.574-1.2l-2.48-3.353a20.032,20.032,0,0,1-2.343-2.98c.807-2.675.426-6.157.426-8.942Z" transform="translate(-359.785 -135.096)" fill="#d8e7d6"/>
          <path id="Trazado_995968" data-name="Trazado 995968" d="M730.223,181.217l17-.044.058,37.237-17.041.022Z" transform="translate(-507.646 -125.95)" fill="#ef9034"/>
          <path id="Trazado_995969" data-name="Trazado 995969" d="M806.438,151.235l16.617.01c.573,1.02.139,8.467.136,10.017l-.006,36.339-16.718.008Z" transform="translate(-560.631 -105.138)" fill="#23b07a"/>
          <path id="Trazado_995970" data-name="Trazado 995970" d="M348.357,290.956c2.408-.481,5.229-.218,7.7-.222l14.537,0,5.033,0a10.066,10.066,0,0,1,2.017,0,9.237,9.237,0,0,1,1.633,1.069l10.078,6.726.64-2.057c1.023.163,1.963.221,2.574,1.2a4.718,4.718,0,0,1,.106,3.281c-.435,1.468-1.494,2.728-1.724,4.255,1.176,1.03,3.323.7,4.789.61,4.1-.256,8.508-1.828,12.324-3.279,1.636-.586,3.957-1.7,5.672-.927a2.833,2.833,0,0,1,1.209,1.047,5.132,5.132,0,0,1-.286,2.991l106.143-.052.1.514c.235,1.189-.506,2.527-.89,3.645-.439,1.287-.783,2.621-1.122,3.938a18.366,18.366,0,0,1-.86,3.614,2.373,2.373,0,0,1-.387.448c-1.731.058-2.954-.159-4.4.86l1.009,4.734c.286,1.185.82,2.358.351,3.511a3.015,3.015,0,0,1,.85,1.106,34.6,34.6,0,0,1,1.164,5.077c.768,3.371,2.009,7.226,2.231,10.663a2.345,2.345,0,0,1-.174.955l.427.583-.146.734a2.1,2.1,0,0,1,.643.818c.8,2.107,1.049,4.877,1.533,7.115a33.634,33.634,0,0,1,1.21,5.585,1.383,1.383,0,0,1-.165.611l.116.1c1.116,1.109.448,3.2,1.338,4.236,2.591,0,6.041-.452,8.525.056,1.006,1.428.436,12.885.43,15.641,0,1.293-.3,3.1.448,4.178a1.6,1.6,0,0,1,.357.908c.439,1.889-.366,4.5-.649,6.429L530.359,407.5,526.18,438.4l-1.564,14.189c-.183,1.847.021,4.824-.823,6.414l.177.547-.32.439-19.426-.076,9.721-7.064c1.591-1.159,3.789-2.441,5.039-3.959a10.712,10.712,0,0,0,1.338-3.182,7.52,7.52,0,0,0-1.192-2.8,4.65,4.65,0,0,0-3.185-1.839,4.083,4.083,0,0,0-2.289.445,20.111,20.111,0,0,0-3.889,3.642c-2.926,3.062-5.676,6.5-8.791,9.348l-.178.161a2.173,2.173,0,0,1-.357-1l-.236-1.823-.03-7.909a9.446,9.446,0,0,1-5.866-2.471,23.43,23.43,0,0,1-5.025,1.119c-1.242-1.3-2.534-2.812-4.465-2.887a6.7,6.7,0,0,0-4.563,1.893,4.582,4.582,0,0,0-1.477,3.256,3.946,3.946,0,0,0,.419,1.529l.065.151c.544,1.225,1.908,2.133,2.93,2.956-3.718,3.518-7.463,6.517-12.23,8.5-1.718.714-3.682,1.18-5.323,2-4.031.313-8.127.191-12.169.188-3.154,0-6.483.216-9.587-.38-2.615-1.437-5.314-2.3-7.826-4a29.661,29.661,0,0,1-10.038-11.442c-3.766,2.735-7.6,3.15-12.128,2.435l-3.569-.592-.168-.1-.481-.351-.1.049c-2.307,2.947-4.132,6.757-6.009,10.008l.026-23.8-.873.119-.154,23.691c-2.364-3.7-4.658-8.126-7.562-11.417l-.394.76c-5.192.069-11.823.184-15.889-3.534-4.825,3.41-9.454,6.413-15.5,7.156l0,11.122-.5.129c-3.16-.422-6.836-.061-10.043-.061l-22.248.045-.215-15.417-.3-46.171,1.609-.45a3.223,3.223,0,0,0,.495-.5,8.4,8.4,0,0,0,0-1.938v-6.654l.063-35.611.506-1.1a7.974,7.974,0,0,0,1.192-2.834c.065-1.466-.93-2.453-1.809-3.492-.038-9.5.172-19.166-.516-28.635a63.325,63.325,0,0,0-.884-7.044c-.37-1.984-1.364-4.535-1.139-6.477l-1.281-1.937A105.61,105.61,0,0,1,341.785,294c2.186-.967,4.7-1.655,6.748-2.843Z" transform="translate(-227.43 -202.069)" fill="#d8e7d6"/>
          <path id="Trazado_995971" data-name="Trazado 995971" d="M768.5,521.53c6.428-1.236,12.5-5.482,16.5-10.592,1.233-1.575,2.1-3.529,3.47-4.955l.169-.172a33.073,33.073,0,0,1-14.9,21.812,66.831,66.831,0,0,1-8.3,4.164A71.632,71.632,0,0,1,768.5,521.53" transform="translate(-532.123 -351.637)" fill="#0d7b3c"/>
          <path id="Trazado_995972" data-name="Trazado 995972" d="M594.292,757.307l.245-5.886c.2-3.719.6-7.648,3.6-10.258,2.742-2.388,6.214-2.506,9.642-2.313l.042,6.683.06.334a31.4,31.4,0,0,0,2.856,10c-3.766,2.735-7.6,3.15-12.128,2.435l-3.569-.592-.168-.1-.481-.351Z" transform="translate(-413.148 -513.6)" fill="#0d7b3c"/>
          <path id="Trazado_995973" data-name="Trazado 995973" d="M608.05,760.919l.06.334-.007.92-9.354,7.852c-.9.768-2.567,2.623-3.647,2.969l-.481-.351a4.074,4.074,0,0,1,.264-.825,17.54,17.54,0,0,1,2.551-2.242c3.287-2.891,6.818-6.518,10.615-8.658" transform="translate(-413.376 -528.987)" fill="#153c4f"/>
          <path id="Trazado_995974" data-name="Trazado 995974" d="M609.207,762.014a31.4,31.4,0,0,0,2.856,10c-3.766,2.735-7.6,3.149-12.128,2.435l-3.569-.592-.168-.1c1.079-.346,2.747-2.2,3.647-2.969l9.355-7.852Z" transform="translate(-414.474 -529.748)" fill="#0d7b3c"/>
          <path id="Trazado_995975" data-name="Trazado 995975" d="M929.128,409.405a3.015,3.015,0,0,1,.85,1.106,34.608,34.608,0,0,1,1.164,5.077c.768,3.371,2.009,7.226,2.231,10.663a2.344,2.344,0,0,1-.174.955l.427.583-.146.734a2.1,2.1,0,0,1,.643.818c.8,2.107,1.049,4.877,1.533,7.115a33.635,33.635,0,0,1,1.21,5.585,1.382,1.382,0,0,1-.165.611,7.5,7.5,0,0,1-2.722.781,9.255,9.255,0,0,1-7.093-1.886,9.364,9.364,0,0,1-3.4-6.008c-.36-2.814.744-6.113,1.4-8.855l3.015-12.01c.424-1.5,1.442-3.566,1.247-5.1Z" transform="translate(-641.958 -284.616)" fill="#f6b173"/>
          <path id="Trazado_995976" data-name="Trazado 995976" d="M943.462,467.806l.427.583-.146.734a26.468,26.468,0,0,1-5.325-.013l-.235-.524.372-.516,4.682-.231Z" transform="translate(-652.219 -325.216)" fill="#d13e0f"/>
          <path id="Trazado_995977" data-name="Trazado 995977" d="M408.651,699.918c-3.283-1.216-8.3-3.429-9.844-6.767a2.344,2.344,0,0,1,.138-2.13,2.88,2.88,0,0,1,2.54-.688c2.295.363,4.466,3.187,5.63,5l1.466,2.541.053-9.8a18.529,18.529,0,0,0,0-3.47,13.763,13.763,0,0,0-1.177-1.744c-1.262-2.281-2.741-7.128-.543-9.231a1.952,1.952,0,0,1,1.345-.687,2.321,2.321,0,0,1,1.9.841c1.194,1.317,1.235,3.746,1.041,5.419a12.971,12.971,0,0,1-1.369,4.21c-.9,1.716-.477,5.412-.364,7.357,1.446-2.769,3.533-7.717,6.839-8.738a3.021,3.021,0,0,1,2.535.249,2.6,2.6,0,0,1,.822.987,3.556,3.556,0,0,1-.977,2.867c-1.734,2.132-4.535,3.454-6.962,4.639a17.987,17.987,0,0,0-2.372,1.082c-.264.361.02,5.2.023,6.021.892-1.989,1.865-3.738,4.01-4.55a4.585,4.585,0,0,1,3.153-.064c.525.237.627.505.9.979a4.192,4.192,0,0,1-1.721,3.14,12.943,12.943,0,0,1-6.071,2.493l-.428.411.033.309.095,12.356c3.5-4.108,6.6-7,11.717-8.943,1.391-.143,3.767-.656,4.931.276.373.3.344.619.435,1.067a4.557,4.557,0,0,1-1.587,2.014c-4.825,3.41-9.454,6.413-15.5,7.156l0,11.122-.5.129c-.706-3.473-.246-7.747-.159-11.31a25.884,25.884,0,0,1-10.19-4.606c-1.133-.91-3.461-2.864-3.555-4.37a2.351,2.351,0,0,1,.986-2.156,4.693,4.693,0,0,1,1.858-.22c4.684.69,8.091,5.985,10.7,9.454Z" transform="translate(-274.558 -467.822)" fill="#f6ba4d"/>
          <path id="Trazado_995978" data-name="Trazado 995978" d="M477.769,739.171a10.046,10.046,0,0,1-.685-8.249,10.264,10.264,0,0,1,4.94-6.245,12.761,12.761,0,0,1,9.624-.4,10.448,10.448,0,0,1,6.034,5.4c2.223,4.829-.071,10.571.15,15.627l-.394.76c-5.192.069-11.823.184-15.889-3.534a4.556,4.556,0,0,0,1.587-2.013c-.091-.448-.062-.768-.435-1.067-1.164-.932-3.54-.419-4.931-.276" transform="translate(-331.261 -502.993)" fill="#0d7b3c"/>
          <path id="Trazado_995979" data-name="Trazado 995979" d="M541.743,579.224c17.154,3.514,35.045,7.943,50.716,15.907a35.028,35.028,0,0,1,7.372,4.4L588.7,601.219c-18.244,1.349-33.843-10.789-46.954-21.995" transform="translate(-376.617 -402.673)" fill="#0d7b3c"/>
          <path id="Trazado_995980" data-name="Trazado 995980" d="M508.974,309.717c1.023.163,1.963.221,2.574,1.2a4.718,4.718,0,0,1,.106,3.281c-.435,1.468-1.494,2.728-1.724,4.255,1.176,1.03,3.323.7,4.789.61,4.1-.256,8.508-1.828,12.324-3.279,1.637-.586,3.957-1.7,5.672-.928a2.834,2.834,0,0,1,1.209,1.047,5.132,5.132,0,0,1-.286,2.991,26.508,26.508,0,0,1-3.425,5.719c-3.2,3.788-8.258,6.085-12.858,7.657l-11.429,3.184-4.274-4.669a12.868,12.868,0,0,0-3.369-3.22c1.613-2.367,2.594-5.284,4.143-7.746,1.775-2.822,4.122-5.226,5.906-8.042Z" transform="translate(-346.404 -215.313)" fill="#f6b173"/>
          <path id="Trazado_995981" data-name="Trazado 995981" d="M566.181,341.344l.681.014.162.568-.14.239c-1.388,2.1-10.27,4.329-12.73,4.852a1.953,1.953,0,0,1-.622-.349l.193-.639c1.6-.895,3.865-1.25,5.638-1.815a43.3,43.3,0,0,0,6.817-2.87" transform="translate(-384.813 -237.3)" fill="#e6773d"/>
          <path id="Trazado_995982" data-name="Trazado 995982" d="M566.615,350.175c.416.134.549.408.823.736l-.092.542a19.454,19.454,0,0,1-3.643,1.811,59.685,59.685,0,0,1-10.564,3.4l-.557-.226-.108-.653c1.331-1.145,4.58-1.64,6.316-2.265a61.665,61.665,0,0,0,7.826-3.347" transform="translate(-384.076 -243.44)" fill="#e6773d"/>
          <path id="Trazado_995983" data-name="Trazado 995983" d="M761.484,597.31a31.012,31.012,0,0,1,14.441-17.925c6.6-3.6,14.083-4.049,21.38-2.858-3.539,8.956-8.553,15.884-17.631,19.8-5.359,2.313-11.033,2.278-16.748,1.884l-.186.177a2.26,2.26,0,0,1-1.441-.9Z" transform="translate(-529.251 -400.388)" fill="#ef9034"/>
          <path id="Trazado_995984" data-name="Trazado 995984" d="M764.964,599.2a68.159,68.159,0,0,1,28.14-15.965l.542.161.181.523c-.7.917-8.666,3.644-10.3,4.4a73.791,73.791,0,0,0-17.435,11.519,33.284,33.284,0,0,0-3.16,3.446l-.186.177a2.26,2.26,0,0,1-1.441-.9l.184-.184a27.908,27.908,0,0,0,3.48-3.185" transform="translate(-529.251 -405.46)" fill="#d13e0f"/>
          <path id="Trazado_995985" data-name="Trazado 995985" d="M547.7,689.156l-3.011-2.659c-3.849-4.02-7.709-7.735-7.55-13.712a13.81,13.81,0,0,1,4.146-9.2,12.124,12.124,0,0,1,9.258-3.148,11.866,11.866,0,0,1,8.251,3.68,9.731,9.731,0,0,1,2.481,7.833c-.332,4.623-4.413,8.911-7.445,12.09-1.608,1.686-3.21,3.38-4.974,4.905l-.283.091Z" transform="translate(-373.412 -459.122)" fill="#0fa262"/>
          <path id="Trazado_995986" data-name="Trazado 995986" d="M571.8,703.592l.243-14.191c.02-2.443-.272-5.421.205-7.787l.677-.426.553.359-.522,21.834-.283.091Z" transform="translate(-397.51 -473.559)" fill="#153c4f"/>
          <path id="Trazado_995987" data-name="Trazado 995987" d="M540.6,568.767c14.283-3.709,30.839-4.708,44.041,3.058a35.968,35.968,0,0,1,13.034,12.528c.956,1.611,1.6,3.432,2.626,4.98l.072.47-.14,1.839-1.96-1.332a35.019,35.019,0,0,0-7.372-4.4c-15.671-7.964-33.562-12.394-50.716-15.908l-.65-.532-.034-.357Z" transform="translate(-375.056 -393.451)" fill="#0d7b3c"/>
        </g>
      </g>
      <g id="Grupo_1177523" data-name="Grupo 1177523" transform="translate(164.442 175.317)">
        <g id="Grupo_1177522" data-name="Grupo 1177522" clip-path="url(#clip-path-2)">
          <rect id="Rectángulo_454923" data-name="Rectángulo 454923" width="38.422" height="64.783" transform="translate(-5.932 21.216) rotate(-74.378)" fill="url(#linear-gradient)"/>
        </g>
      </g>
      <g id="Grupo_1177525" data-name="Grupo 1177525">
        <g id="Grupo_1177524" data-name="Grupo 1177524" clip-path="url(#clip-path)">
          <path id="Trazado_995989" data-name="Trazado 995989" d="M691.65,514.017c-5.886-1.283-10.949-3.934-14.58-8.889-5.274-7.2-5.189-18.395-3.85-26.859,9.031,3.762,17.28,9.629,21.136,18.9l.476,7.307c-.341,2.688-.486,6.166-1.806,8.566l-.057.176-1.1.333Z" transform="translate(-467.484 -332.49)" fill="#ef9034"/>
          <path id="Trazado_995990" data-name="Trazado 995990" d="M701.31,523.313a36.351,36.351,0,0,0-2.6-6.69,140.666,140.666,0,0,0-7.078-14.217c-1.8-3.079-3.971-6.07-5.612-9.212.192-.569.236-.564.709-.878,1.06.616,1.778,2.34,2.445,3.383,2.26,3.531,4.208,7.191,6.172,10.89a90.769,90.769,0,0,1,7.113,16.216l-.057.176Z" transform="translate(-476.92 -342.255)" fill="#d13e0f"/>
          <path id="Trazado_995991" data-name="Trazado 995991" d="M841.278,625.191a10.317,10.317,0,0,1-2.738-3.587,4.053,4.053,0,0,1,1.57-3.007,4.683,4.683,0,0,1,3.381-.984c2.953.37,7.616,6.22,9.662,8.411l-.013-7.734c-3.071-.9-5.108-2.5-7.49-4.542a10.343,10.343,0,0,1-2.518-2.664,3.2,3.2,0,0,1-.178-1.634,3.023,3.023,0,0,1,1.661-1.872,2.872,2.872,0,0,1,2.438.171c2.193,1.188,4.4,4.448,5.975,6.353l-.011-7.615c-2.588-.864-5.912-2.681-7.421-5.067a2.8,2.8,0,0,1,.333-2.42,2,2,0,0,1,1.394-.971,3.167,3.167,0,0,1,2.582.786,36.488,36.488,0,0,1,3.2,3.664c.01-1.169.361-3.725.039-4.75a23.649,23.649,0,0,0-1.345-2.27c-.86-1.8-1.37-5.03.2-6.586a2.659,2.659,0,0,1,1.564-.73,2.85,2.85,0,0,1,1.992,1.355c.762,1.241.35,3.578-.035,4.916a6.166,6.166,0,0,1-1.716,2.866l-.035,5.093c1.262-1.454,3.232-4.219,5.275-4.479a2.563,2.563,0,0,1,1.929.689,2.418,2.418,0,0,1,.811,1.481,2.921,2.921,0,0,1-1.024,2.058,19.335,19.335,0,0,1-4.912,3.545,12.921,12.921,0,0,0-1.931.824c-.183.147-.188.48-.193.681l.012,6.792c1.262-1.669,4.255-6.119,6.482-6.48a3.436,3.436,0,0,1,2.554.708,2.525,2.525,0,0,1,.859,2.032c-.579,2.352-4.4,5.042-6.439,6.277l-3.388,1.807-.011,7.965c1.9-2.361,5.744-8.238,8.835-8.516a4.544,4.544,0,0,1,3.389.877,4.015,4.015,0,0,1,1.448,2.659,3.55,3.55,0,0,1-1.055,2.845,52.717,52.717,0,0,1-4.307,3.791,54.993,54.993,0,0,1-4.99,4.1c-.734.491-2.747.927-3.193,1.361,0,0,0,.514,0,.543l-.051,8.138.034.74,6.963-7.072a20.471,20.471,0,0,1,3.536-3.4,5.087,5.087,0,0,1,2.649-.639,4.682,4.682,0,0,1,3.179,1.5,4.213,4.213,0,0,1,1.134,3.273c-.146,2.949-3.594,5.257-5.636,7.041-2.524,2.207-5.73,5.765-8.854,6.828a15.525,15.525,0,0,1-2.893.417c0,3.458.3,7.292-.114,10.7a2.173,2.173,0,0,1-.357-1l-.236-1.823-.031-7.909a9.446,9.446,0,0,1-5.866-2.471,40.9,40.9,0,0,0-3.313-2.715L839.046,641a20.028,20.028,0,0,1-3.149-3.035,4.375,4.375,0,0,1-.807-3.5,4.5,4.5,0,0,1,2.1-3.086c1.562-1.008,2.8-.832,4.55-.47,4.47,2.831,7.507,7.639,11.534,10.973l-.114-8.3a24.292,24.292,0,0,1-3.234-1.2c-3.128-1.73-6.007-4.783-8.645-7.19" transform="translate(-580.493 -408.874)" fill="#5bba57"/>
          <path id="Trazado_995992" data-name="Trazado 995992" d="M738.579,450.708c-.62-1.624.7-5.171,1.207-6.855,4.051-13.525,16.582-24.315,28.622-30.789a65.741,65.741,0,0,1-.617,28.27l-.169.172c-1.374,1.426-2.237,3.38-3.47,4.955-4,5.11-10.072,9.357-16.5,10.592a71.652,71.652,0,0,0-3.069,10.256l-1.259,16.956a2.259,2.259,0,0,0,1.441.9,8.949,8.949,0,0,0-1.837,4.758l-2.578-.068-1.581,0-2.223.005a21.831,21.831,0,0,0-.1-4.511l.14-1.839-.072-.47c.2-4.873-.7-9.541-1.075-14.355l.224-.469,1.1-.333.057-.176c1.319-2.4,1.465-5.878,1.806-8.566l-.477-7.307Z" transform="translate(-511.274 -287.159)" fill="#0fa262"/>
          <path id="Trazado_995993" data-name="Trazado 995993" d="M746.1,469.922c3.711-11.789,8.663-23.5,15.47-33.852.969-1.474,2.2-3.7,3.674-4.652l.406.23a3.414,3.414,0,0,1,.182.668,7.256,7.256,0,0,1-.964,1.507l-2.558,3.749c-6.45,9.986-10.948,20.994-14.656,32.24a71.651,71.651,0,0,0-3.069,10.256l-1.259,16.956a2.259,2.259,0,0,0,1.441.9,8.948,8.948,0,0,0-1.837,4.758l-2.578-.068-1.581,0-2.223.005a21.831,21.831,0,0,0-.1-4.511l.14-1.839-.072-.47c.2-4.873-.7-9.541-1.075-14.355l.224-.469,1.1-.333.057-.176c1.319-2.4,1.465-5.878,1.806-8.566l-.477-7.307.432-1.128.07.147c1.11,2.4,1.055,4.482,3.915,5.543a17.456,17.456,0,0,0,3.532.764" transform="translate(-511.274 -299.919)" fill="#153c4f"/>
          <path id="Trazado_995994" data-name="Trazado 995994" d="M744.751,536.567l.07.147c1.11,2.4,1.055,4.482,3.916,5.543a17.453,17.453,0,0,0,3.532.764l-3.025,10.538c-1.988-2.452-3.23-5.682-4.447-8.557l-.476-7.307Z" transform="translate(-517.446 -373.018)" fill="#0d7b3c"/>
          <path id="Trazado_995995" data-name="Trazado 995995" d="M738.624,564.24c1.217,2.876,2.459,6.106,4.447,8.557l-1.094,12.781c-.247,3.044-.357,6.563-1.628,9.372l-1.581,0-2.223.005a21.831,21.831,0,0,0-.1-4.511l.14-1.839-.072-.47c.2-4.873-.7-9.541-1.075-14.355l.224-.469,1.1-.333.057-.176c1.319-2.4,1.465-5.878,1.806-8.566" transform="translate(-511.274 -392.256)" fill="#d8e7d6"/>
          <path id="Trazado_995996" data-name="Trazado 995996" d="M736.761,592.92c1.941,6.768,1.926,14.94,2.008,21.972l-2.223.005a21.831,21.831,0,0,0-.1-4.511l.14-1.839-.072-.47c.2-4.873-.7-9.541-1.075-14.355l.224-.469Z" transform="translate(-511.274 -412.195)" fill="#153c4f"/>
          <path id="Trazado_995997" data-name="Trazado 995997" d="M671.406,664.945l1.581,0,2.578.068,7.146.009c3.1-.009,6.112-.36,8.766,1.592,5.379,2.823,8.965,7.411,11.685,12.718l1.993,4.96c-1.753-.362-2.987-.538-4.55.47a4.5,4.5,0,0,0-2.1,3.086,4.374,4.374,0,0,0,.807,3.5,20.02,20.02,0,0,0,3.149,3.035l5.012,4.542a40.9,40.9,0,0,1,3.313,2.715,23.436,23.436,0,0,1-5.025,1.119c-1.242-1.3-2.534-2.812-4.465-2.888a6.7,6.7,0,0,0-4.563,1.893,4.583,4.583,0,0,0-1.477,3.256,3.946,3.946,0,0,0,.419,1.529l.065.151c.544,1.225,1.907,2.133,2.93,2.956-3.718,3.518-7.463,6.517-12.23,8.5-1.718.714-3.682,1.18-5.323,2-4.031.313-8.127.191-12.169.188-3.154,0-6.483.216-9.587-.38-2.615-1.437-5.314-2.3-7.826-4A29.662,29.662,0,0,1,641.5,704.511a31.4,31.4,0,0,1-2.856-10l-.06-.334-.042-6.683c.664-6.188,2.31-12.252,6.849-16.79,6.758-6.758,15.1-5.706,23.791-5.756Z" transform="translate(-443.911 -462.247)" fill="#f6ba4d"/>
          <path id="Trazado_995998" data-name="Trazado 995998" d="M721.115,670.466c5.379,2.823,8.965,7.411,11.685,12.718l1.993,4.96c-1.753-.362-2.987-.538-4.55.47a4.5,4.5,0,0,0-2.1,3.086,4.374,4.374,0,0,0,.807,3.5,20.021,20.021,0,0,0,3.149,3.035l5.012,4.543a40.889,40.889,0,0,1,3.313,2.715,23.428,23.428,0,0,1-5.025,1.119c-1.242-1.3-2.534-2.812-4.465-2.887a6.7,6.7,0,0,0-4.563,1.892,4.582,4.582,0,0,0-1.477,3.256,3.945,3.945,0,0,0,.419,1.529l.065.151c.544,1.225,1.907,2.133,2.93,2.956-3.718,3.518-7.463,6.517-12.23,8.5-1.718.714-3.682,1.18-5.323,2-4.031.313-8.127.191-12.169.188-3.154,0-6.483.216-9.587-.38-2.615-1.437-5.314-2.3-7.826-4,1.65-.314,3.8.094,5.5.155,6.327.227,12.346.162,18.387-2.021,8.314-3,15.737-9.054,19.49-17.161,3.484-7.525,4.218-17.329.36-24.848a15.348,15.348,0,0,0-2.054-3.037,7.785,7.785,0,0,1-1.7-2.3Z" transform="translate(-473.55 -466.104)" fill="#ef9034"/>
          <path id="Trazado_995999" data-name="Trazado 995999" d="M348.357,290.956c2.408-.481,5.229-.218,7.7-.222l14.537,0,5.033,0a10.066,10.066,0,0,1,2.017,0,9.237,9.237,0,0,1,1.633,1.069l10.078,6.726c-1.784,2.816-4.132,5.22-5.907,8.042-1.549,2.463-2.53,5.379-4.143,7.746l.156.235c2.5,3.7,6.176,7.1,9.191,10.433L366.9,346.176l-6.947,6.778a33.542,33.542,0,0,1-5.505,4.748,17.435,17.435,0,0,1-9.281,2.61,15.477,15.477,0,0,1-11.053-4.889,22.386,22.386,0,0,1-2.529-3.266,7.974,7.974,0,0,0,1.192-2.834c.065-1.466-.93-2.453-1.809-3.492-.038-9.5.172-19.166-.516-28.635a63.325,63.325,0,0,0-.884-7.044c-.37-1.984-1.364-4.535-1.139-6.477l-1.281-1.937A105.61,105.61,0,0,1,341.785,294c2.186-.967,4.7-1.655,6.748-2.843Z" transform="translate(-227.43 -202.069)" fill="#0d7b3c"/>
          <path id="Trazado_996000" data-name="Trazado 996000" d="M348.357,290.956c2.408-.481,5.229-.218,7.7-.222l14.537,0,5.033,0a10.066,10.066,0,0,1,2.017,0,9.237,9.237,0,0,1,1.633,1.069l10.078,6.726c-1.784,2.816-4.132,5.22-5.907,8.042-1.549,2.463-2.53,5.379-4.143,7.746a11.69,11.69,0,0,1-2.063-2.36L347.5,334.017l-19.068-30.343-1.281-1.937A105.61,105.61,0,0,1,341.785,294c2.186-.967,4.7-1.655,6.748-2.843Z" transform="translate(-227.43 -202.069)" fill="#d8e7d6"/>
        </g>
      </g>
    </g>
  </g>
</svg>
