<svg xmlns="http://www.w3.org/2000/svg" width="84" height="84" viewBox="0 0 84 84">
  <g id="Grupo_1177327" data-name="Grupo 1177327" transform="translate(-706 -2661.42)">
    <rect id="Rectángulo_402006" data-name="Rectángulo 402006" width="84" height="84" rx="5" transform="translate(706 2661.42)" fill="#4d240b"/>
    <g id="Grupo_1177528" data-name="Grupo 1177528" transform="translate(715.711 2671.92)">
      <path id="Trazado_996009" data-name="Trazado 996009" d="M21,26H3a3.009,3.009,0,0,0-3,3V61a3.009,3.009,0,0,0,3,3H21a3.009,3.009,0,0,0,3-3V29A3.009,3.009,0,0,0,21,26ZM3,28H21a1,1,0,0,1,1,1V58H2V29A1,1,0,0,1,3,28ZM21,62H3a1,1,0,0,1-1-1V60H22v1A1,1,0,0,1,21,62Z" fill="#fbaf00"/>
      <path id="Trazado_996010" data-name="Trazado 996010" d="M53,42a11,11,0,0,0-3.39,21.46h.01a10.848,10.848,0,0,0,6.76,0h.01A11,11,0,0,0,53,42ZM51.02,61.77a1.986,1.986,0,0,1,3.95.01,9.244,9.244,0,0,1-1.98.23,8.65,8.65,0,0,1-1.98-.23Zm5.87-.67a4.01,4.01,0,0,0-1.06-1.93A3.867,3.867,0,0,0,54,58.14V56h2a4,4,0,0,0,4-4V51a1,1,0,0,0-1-1H56a3.954,3.954,0,0,0-3.42,1.97A3.992,3.992,0,0,0,50,51H47a1,1,0,0,0-1,1v1a4,4,0,0,0,4,4h2v1.14a3.99,3.99,0,0,0-2.89,2.96,9,9,0,1,1,7.78,0ZM54,54a2.006,2.006,0,0,1,2-2h2a2.006,2.006,0,0,1-2,2Zm-2,1H50a2.006,2.006,0,0,1-2-2h2A2.006,2.006,0,0,1,52,55Z" fill="#fbaf00"/>
      <path id="Trazado_996011" data-name="Trazado 996011" d="M42,29A11,11,0,1,0,53,18,11.007,11.007,0,0,0,42,29Zm11-9a9,9,0,1,1-9,9A9.014,9.014,0,0,1,53,20Z" fill="#fbaf00"/>
      <path id="Trazado_996012" data-name="Trazado 996012" d="M11,22A10.988,10.988,0,0,0,21.04,6.52a.049.049,0,0,0-.01-.03A11.015,11.015,0,0,0,11.9.05h-.13C11.51.03,11.26.01,11,.01A11,11,0,1,0,11,22ZM18.9,6.69,15.59,10h-4L7.93,6.34l4.25-4.25a9.014,9.014,0,0,1,6.72,4.6ZM9.26,2.17,5.8,5.63a.99.99,0,0,0-.29.71,1.033,1.033,0,0,0,.29.71l4.66,4.66a.99.99,0,0,0,.71.29H16a1.033,1.033,0,0,0,.71-.29L19.7,8.72A9,9,0,1,1,9.26,2.17Z" fill="#fbaf00"/>
      <path id="Trazado_996013" data-name="Trazado 996013" d="M9,38h2v1.14A4,4,0,0,0,8,43H7a1,1,0,0,0,0,2H17a1,1,0,0,0,0-2H16a4,4,0,0,0-3-3.86V37h2a4,4,0,0,0,4-4V32a1,1,0,0,0-1-1H15a3.954,3.954,0,0,0-3.42,1.97A3.992,3.992,0,0,0,9,32H6a1,1,0,0,0-1,1v1A4,4,0,0,0,9,38Zm5,5H10a2,2,0,0,1,4,0Zm1-10h2a2.006,2.006,0,0,1-2,2H13A2.006,2.006,0,0,1,15,33ZM9,34a2.006,2.006,0,0,1,2,2H9a2.006,2.006,0,0,1-2-2Z" fill="#fbaf00"/>
      <path id="Trazado_996014" data-name="Trazado 996014" d="M7,56a3.009,3.009,0,0,0,3-3c0-1.28-1.52-3.62-2.18-4.57a1.043,1.043,0,0,0-1.65,0c-.65.95-2.18,3.29-2.18,4.57a3.009,3.009,0,0,0,3,3Zm0-5.15A7.357,7.357,0,0,1,8,53a1,1,0,0,1-2,0A7.086,7.086,0,0,1,7,50.85Z" fill="#fbaf00"/>
      <path id="Trazado_996015" data-name="Trazado 996015" d="M13,49a1,1,0,0,0,0,2h6a1,1,0,0,0,0-2Z" fill="#fbaf00"/>
      <path id="Trazado_996016" data-name="Trazado 996016" d="M19,53H13a1,1,0,0,0,0,2h6a1,1,0,0,0,0-2Z" fill="#fbaf00"/>
      <path id="Trazado_996017" data-name="Trazado 996017" d="M34,47a3,3,0,1,0,3,3A3.009,3.009,0,0,0,34,47Zm0,4a1,1,0,1,1,1-1A1,1,0,0,1,34,51Z" fill="#fbaf00"/>
      <path id="Trazado_996018" data-name="Trazado 996018" d="M37.36,43.85a7.177,7.177,0,0,0-6.71,0,1,1,0,0,0,.96,1.76,5.12,5.12,0,0,1,4.81,0,1,1,0,0,0,.96-1.76Z" fill="#fbaf00"/>
      <path id="Trazado_996019" data-name="Trazado 996019" d="M39.28,40.35a11,11,0,0,0-10.56,0,1,1,0,0,0,.97,1.75,9,9,0,0,1,8.63,0,1.034,1.034,0,0,0,.48.12,1.021,1.021,0,0,0,.88-.52,1,1,0,0,0-.39-1.36Z" fill="#fbaf00"/>
      <path id="Trazado_996020" data-name="Trazado 996020" d="M41.2,36.84a15.244,15.244,0,0,0-14.4,0,1,1,0,0,0,.97,1.75,13.2,13.2,0,0,1,12.48,0,1.034,1.034,0,0,0,.48.12,1,1,0,0,0,.49-1.88Z" fill="#fbaf00"/>
      <path id="Trazado_996021" data-name="Trazado 996021" d="M9.29,17.71a1.024,1.024,0,0,0,.71-.29l1.41-1.41A1,1,0,0,0,10,14.6L8.59,16.01a1,1,0,0,0,0,1.41.982.982,0,0,0,.71.29Z" fill="#fbaf00"/>
      <path id="Trazado_996022" data-name="Trazado 996022" d="M15,16.41a.982.982,0,0,0,.71.29,1.024,1.024,0,0,0,.71-.29,1,1,0,0,0,0-1.41l-1.41-1.41A1,1,0,0,0,13.6,15l1.41,1.41Z" fill="#fbaf00"/>
      <path id="Trazado_996023" data-name="Trazado 996023" d="M24.54,14.39a10.994,10.994,0,0,0,20.92,0v-.01A10.826,10.826,0,0,0,46,11a11,11,0,0,0-22,0,10.826,10.826,0,0,0,.54,3.38ZM35,20a9.008,9.008,0,0,1-8.05-5h16.1A9.008,9.008,0,0,1,35,20Zm-5.66-7A16.592,16.592,0,0,1,31,10.55,15.717,15.717,0,0,1,32.65,13Zm8,0A16.592,16.592,0,0,1,39,10.55,15.718,15.718,0,0,1,40.65,13ZM35,2a9.014,9.014,0,0,1,9,9,8.759,8.759,0,0,1-.23,2h-.96a16.637,16.637,0,0,0-3.07-4.67,1.038,1.038,0,0,0-1.49,0A16.637,16.637,0,0,0,35.18,13H34.8a16.637,16.637,0,0,0-3.07-4.67,1.038,1.038,0,0,0-1.49,0A16.637,16.637,0,0,0,27.17,13h-.96a8.759,8.759,0,0,1-.23-2,9.014,9.014,0,0,1,9-9Z" fill="#fbaf00"/>
      <path id="Trazado_996024" data-name="Trazado 996024" d="M53,35a5,5,0,0,0,5-5c0-2.51-3.59-6.04-4.31-6.73a1,1,0,0,0-1.38,0C51.59,23.95,48,27.48,48,30a5,5,0,0,0,5,5Zm0-9.59c1.42,1.48,3,3.54,3,4.59a3,3,0,0,1-6,0C50,28.95,51.58,26.89,53,25.41Z" fill="#fbaf00"/>
    </g>
  </g>
</svg>
