<svg xmlns="http://www.w3.org/2000/svg" xmlns:xlink="http://www.w3.org/1999/xlink" width="292" height="222" viewBox="0 0 292 222">
  <defs>
    <clipPath id="clip-path">
      <rect id="Rectángulo_454950" data-name="Rectángulo 454950" width="292" height="222" transform="translate(705.711 3996)" fill="#3e4c20"/>
    </clipPath>
    <clipPath id="clip-path-2">
      <rect id="Rectángulo_454949" data-name="Rectángulo 454949" width="292" height="245.008" fill="none"/>
    </clipPath>
  </defs>
  <g id="Grupo_1177585" data-name="Grupo 1177585" transform="translate(-705.711 -3996)">
    <rect id="Rectángulo_454821" data-name="Rectángulo 454821" width="292" height="188" transform="translate(705.711 4030)" fill="#fee7b2"/>
    <g id="Enmascarar_grupo_1119175" data-name="Enmascarar grupo 1119175" clip-path="url(#clip-path)">
      <g id="Grupo_1177584" data-name="Grupo 1177584" transform="translate(706 4001.496)">
        <g id="Grupo_1177583" data-name="Grupo 1177583" clip-path="url(#clip-path-2)">
          <path id="Trazado_996148" data-name="Trazado 996148" d="M328.19,222.084c-.446,1.006-1.969,1.441-3.9,1.553-.423.026-.867.035-1.325.03-.722-.006-1.476-.044-2.234-.1-.584-.047-1.169-.107-1.743-.174-3.378-.4-6.381-1.086-6.381-1.086s-32.371-29.9-20-36.325c12.046-6.255,24.105,20.609,24.73,22.023-.7-1.712-16.388-40.1-3.273-40.387,13.414-.292,14.125,54.469,14.125,54.469" transform="translate(-120.553 -69.727)" fill="#005454"/>
          <path id="Trazado_996149" data-name="Trazado 996149" d="M307.595,215.459l20.048,27.895c-.584-.047-1.169-.106-1.743-.174l-19.372-26.954a.657.657,0,0,1,1.068-.766" transform="translate(-127.464 -89.517)" fill="#003d3c"/>
          <path id="Trazado_996150" data-name="Trazado 996150" d="M342.85,232.032c-.423.026-.867.035-1.326.031l-7.113-43.507a.657.657,0,0,1,1.3-.211Z" transform="translate(-139.111 -78.122)" fill="#003d3c"/>
          <path id="Trazado_996151" data-name="Trazado 996151" d="M174.757,222.629l-3.815.133-2.616.091-4.07.141S124.82,175.666,137.1,165.6c12.173-9.975,28.515,42.533,28.8,43.434-.176-.9-10.092-51.654,5.255-48.106,15.482,3.58,3.609,61.7,3.609,61.7" transform="translate(-56.047 -66.874)" fill="#005454"/>
          <path id="Trazado_996152" data-name="Trazado 996152" d="M179.682,188l-1.343,45.812-2.617.091-23.133-42.689a.657.657,0,1,1,1.154-.627l23.287,42.971,1.338-45.6a.657.657,0,0,1,1.314.039" transform="translate(-63.444 -77.929)" fill="#003d3c"/>
          <path id="Trazado_996153" data-name="Trazado 996153" d="M94.875,221.884l-1.752.082-1.325.063-4.118.192s-21.668-38.628-15.711-54.166c4.645-12.115,19.132-14.733,22.623,2.421s.283,51.408.283,51.408" transform="translate(-29.508 -65.849)" fill="#005454"/>
          <path id="Trazado_996154" data-name="Trazado 996154" d="M101.662,231.982l-1.325.063-8.868-48.9a.657.657,0,1,1,1.292-.234Z" transform="translate(-38.047 -75.865)" fill="#003d3c"/>
          <path id="Trazado_996155" data-name="Trazado 996155" d="M120.978,226.732s-3,.686-6.381,1.086c-.575.067-1.161.127-1.743.174-.758.06-1.511.1-2.234.1-.457,0-.9,0-1.325-.03-1.93-.113-3.453-.548-3.9-1.554,0,0,.709-54.76,14.123-54.468,13.115.286-2.568,38.675-3.273,40.388.624-1.413,12.686-28.277,24.731-22.022,12.371,6.422-20,36.323-20,36.323" transform="translate(-43.845 -71.569)" fill="#00666c"/>
          <path id="Trazado_996156" data-name="Trazado 996156" d="M120.51,192.985,113.4,236.49c-.457,0-.9,0-1.326-.03l7.142-43.688a.658.658,0,0,1,1.3.213" transform="translate(-46.621 -79.964)" fill="#005454"/>
          <path id="Trazado_996157" data-name="Trazado 996157" d="M139.282,220.653l-19.374,26.955c-.575.067-1.161.127-1.743.173l20.05-27.894a.657.657,0,1,1,1.067.766" transform="translate(-49.157 -91.359)" fill="#005454"/>
          <path id="Trazado_996158" data-name="Trazado 996158" d="M.428,218.5v27.138c6.171,6.074,11.455,10.389,11.455,10.389l4.775-2.5S9.347,231.653.428,218.5" transform="translate(-0.178 -90.895)" fill="#003d3c"/>
          <path id="Trazado_996159" data-name="Trazado 996159" d="M20.952,238.077l-1.793.339-1.3.244-2.2.416S5.636,224.125.427,210.188v-21.5a7.487,7.487,0,0,1,.992-.679c17.9-10.3,19.533,50.067,19.533,50.067" transform="translate(-0.178 -77.72)" fill="#005454"/>
          <path id="Trazado_996160" data-name="Trazado 996160" d="M23.207,248.162l-1.3.244-11.719-37.3a.657.657,0,0,1,1.254-.394Z" transform="translate(-4.226 -87.466)" fill="#003d3c"/>
          <path id="Trazado_996161" data-name="Trazado 996161" d="M50.384,224.316l-3.815.134-2.615.091-4.072.141S.448,177.354,12.727,167.292c12.172-9.975,28.514,42.533,28.794,43.434-.177-.9-10.092-51.654,5.254-48.106,15.482,3.582,3.609,61.7,3.609,61.7" transform="translate(-4.309 -67.576)" fill="#00666c"/>
          <path id="Trazado_996162" data-name="Trazado 996162" d="M55.309,189.692,53.966,235.5l-2.615.091L28.216,192.907a.657.657,0,0,1,1.155-.627l23.287,42.97L54,189.654a.657.657,0,1,1,1.314.038" transform="translate(-11.705 -78.631)" fill="#005454"/>
          <path id="Trazado_996163" data-name="Trazado 996163" d="M488.439,218.5v27.138c-6.171,6.074-11.455,10.389-11.455,10.389l-4.775-2.5s7.31-21.873,16.23-35.029" transform="translate(-196.439 -90.895)" fill="#003d3c"/>
          <path id="Trazado_996164" data-name="Trazado 996164" d="M485.38,188.688v21.5c-5.209,13.937-15.228,28.888-15.228,28.888l-2.2-.416-1.3-.245-1.792-.338s1.631-60.369,19.532-50.067a7.423,7.423,0,0,1,.992.679" transform="translate(-193.381 -77.72)" fill="#005454"/>
          <path id="Trazado_996165" data-name="Trazado 996165" d="M480.943,211.108l-11.718,37.3-1.3-.245,11.765-37.445a.657.657,0,0,1,1.254.394" transform="translate(-194.656 -87.466)" fill="#003d3c"/>
          <path id="Trazado_996166" data-name="Trazado 996166" d="M428.934,224.682l-4.07-.141-2.616-.091-3.815-.134s-11.872-58.114,3.61-61.7c15.345-3.548,5.432,47.2,5.255,48.106.28-.9,16.621-53.409,28.794-43.434,12.278,10.061-27.158,57.389-27.158,57.389" transform="translate(-172.258 -67.576)" fill="#00666c"/>
          <path id="Trazado_996167" data-name="Trazado 996167" d="M452.855,192.907l-23.134,42.687-2.616-.091-1.344-45.812a.657.657,0,1,1,1.314-.038l1.337,45.6L451.7,192.28a.657.657,0,0,1,1.155.627" transform="translate(-177.117 -78.631)" fill="#005454"/>
          <path id="Trazado_996168" data-name="Trazado 996168" d="M255.575,222.782l-4.072.11-2.616.072-3.816.1s-15.435-57.272-.2-61.8c15.119-4.494,8.313,46.921,8.211,47.692.189-.771,13.277-54.345,26.061-45.13,12.876,9.284-23.564,58.955-23.564,58.955" transform="translate(-99.07 -66.97)" fill="#00666c"/>
          <path id="Trazado_996169" data-name="Trazado 996169" d="M276.638,189.983l-20.456,44.034-2.617.072L249.4,188.446a.657.657,0,1,1,1.308-.119l4.147,45.426,20.592-44.324a.657.657,0,1,1,1.191.553" transform="translate(-103.749 -78.095)" fill="#005454"/>
          <path id="Trazado_996170" data-name="Trazado 996170" d="M377.235,234.535l-3.8-.329-2.608-.227-4.058-.353s-33.411-51.757-20-60.258c13.308-8.438,23.178,45.818,23.321,46.6-.055-.774-3.78-52.505,11.043-47.117,14.934,5.429-3.891,61.679-3.891,61.679" transform="translate(-142.933 -71.745)" fill="#00666c"/>
          <path id="Trazado_996171" data-name="Trazado 996171" d="M387.008,199.892,380.125,245.2l-2.608-.226L359.724,199.8a.657.657,0,0,1,1.223-.481l17.91,45.473,6.85-45.1a.657.657,0,0,1,1.3.2" transform="translate(-149.626 -82.744)" fill="#005454"/>
          <path id="Trazado_996172" data-name="Trazado 996172" d="M292,268.093v81.99H0V266.726c97.432-19.27,192.211-18.883,292,1.367" transform="translate(0 -105.074)" fill="#008985"/>
          <path id="Trazado_996173" data-name="Trazado 996173" d="M374.649,370.412s-11.384-13.228-7.544-15.148,8.964,12.293,8.964,12.293.37-10.945,5.378-11.577-3.2,14.694-3.2,14.694Z" transform="translate(-152.386 -147.715)" fill="#00666c"/>
          <path id="Trazado_996174" data-name="Trazado 996174" d="M67.532,340.281s-11.384-13.228-7.543-15.148,8.963,12.293,8.963,12.293.37-10.945,5.378-11.577-3.2,14.067-3.2,14.067Z" transform="translate(-24.626 -135.181)" fill="#00666c"/>
          <path id="Trazado_996175" data-name="Trazado 996175" d="M413.7,341.563s-11.384-13.227-7.544-15.148,8.964,12.292,8.964,12.292.37-10.944,5.378-11.576-3.2,14.693-3.2,14.693Z" transform="translate(-168.631 -135.714)" fill="#00666c"/>
          <path id="Trazado_996176" data-name="Trazado 996176" d="M161.459,398.259s-11.385-13.228-7.544-15.148,8.964,12.293,8.964,12.293.37-10.945,5.378-11.577-2.079,13.9-2.079,13.9Z" transform="translate(-63.699 -159.3)" fill="#00666c"/>
          <path id="Trazado_996177" data-name="Trazado 996177" d="M81.728,278.5s-11.384-13.228-7.544-15.148,8.964,12.293,8.964,12.293.37-10.945,5.378-11.577-2.079,13.9-2.079,13.9Z" transform="translate(-30.531 -109.48)" fill="#00666c"/>
          <path id="Trazado_996178" data-name="Trazado 996178" d="M357.39,305s-10.839-12.578-7-14.5,8.964,12.292,8.964,12.292.37-10.944,5.378-11.577-2.3,14.433-2.3,14.433Z" transform="translate(-145.42 -120.774)" fill="#00666c"/>
          <path id="Trazado_996179" data-name="Trazado 996179" d="M415.647,280.3s11.72-13.784,7.879-15.7-8.963,12.293-8.963,12.293-.37-10.945-5.378-11.577,2.3,14.432,2.3,14.432Z" transform="translate(-169.491 -109.999)" fill="#00666c"/>
          <path id="Trazado_996180" data-name="Trazado 996180" d="M272.032,299.084s11.72-13.784,7.879-15.7-8.964,12.293-8.964,12.293-.37-10.945-5.378-11.577,2.465,14.988,2.465,14.988Z" transform="translate(-109.758 -117.811)" fill="#00666c"/>
          <path id="Trazado_996181" data-name="Trazado 996181" d="M284.1,396.8s-10.452-13.228-6.611-15.148,8.964,12.293,8.964,12.293.37-10.945,5.378-11.577-2.3,14.432-2.3,14.432Z" transform="translate(-115.084 -158.694)" fill="#00666c"/>
          <path id="Trazado_996182" data-name="Trazado 996182" d="M292,293.715v1.191a781.589,781.589,0,0,0-149.144-14.64A758.13,758.13,0,0,0,0,293.965v-1.188c24.113-4.6,48.367-8.08,72.126-10.35,24.58-2.349,49.494-3.482,74.042-3.377,24.568.109,49.631,1.469,74.494,4.041,23.386,2.419,47.364,5.989,71.339,10.624" transform="translate(0 -116.082)" fill="#00666c"/>
          <path id="Trazado_996183" data-name="Trazado 996183" d="M292,387.857v1.19a781.635,781.635,0,0,0-149.144-14.64A758.049,758.049,0,0,0,0,388.107v-1.19c24.113-4.6,48.367-8.08,72.126-10.35,24.58-2.349,49.494-3.485,74.042-3.376,24.568.11,49.631,1.469,74.494,4.04,23.386,2.419,47.364,5.992,71.339,10.626" transform="translate(0 -155.244)" fill="#00666c"/>
          <path id="Trazado_996184" data-name="Trazado 996184" d="M276.826,413.8h-8.539a764.462,764.462,0,0,0-101.435-6.827A749.291,749.291,0,0,0,66.087,413.8H57.68c12.891-1.892,25.737-3.453,38.441-4.667,24.581-2.348,49.493-3.484,74.042-3.376,24.568.11,49.631,1.469,74.494,4.042q15.93,1.649,32.17,4" transform="translate(-23.995 -168.792)" fill="#00666c"/>
          <path id="Trazado_996185" data-name="Trazado 996185" d="M292,353.8V355a781.542,781.542,0,0,0-149.144-14.64A758.237,758.237,0,0,0,0,354.054v-1.188c24.113-4.6,48.367-8.08,72.126-10.35,24.58-2.349,49.494-3.488,74.042-3.376,24.568.108,49.631,1.468,74.494,4.04C244.048,345.6,268.025,349.171,292,353.8" transform="translate(0 -141.079)" fill="#00666c"/>
          <path id="Trazado_996186" data-name="Trazado 996186" d="M292,323.759v1.191A781.541,781.541,0,0,0,142.856,310.31,758.143,758.143,0,0,0,0,324.009v-1.188c24.113-4.6,48.367-8.079,72.126-10.351,24.58-2.348,49.494-3.485,74.042-3.376,24.568.109,49.631,1.469,74.494,4.042,23.386,2.418,47.364,5.99,71.339,10.624" transform="translate(0 -128.58)" fill="#00666c"/>
          <path id="Trazado_996187" data-name="Trazado 996187" d="M129.628,304.525s-11.385-13.228-7.543-15.148,8.963,12.293,8.963,12.293.37-10.945,5.378-11.577-2.079,13.9-2.079,13.9Z" transform="translate(-50.458 -120.306)" fill="#00666c"/>
          <path id="Trazado_996188" data-name="Trazado 996188" d="M179.539,271.85s-10.688-12.418-7.082-14.222,8.415,11.541,8.415,11.541.347-10.276,5.049-10.869-1.952,13.054-1.952,13.054Z" transform="translate(-71.433 -107.104)" fill="#00666c"/>
          <path id="Trazado_996189" data-name="Trazado 996189" d="M198.405,338.277c-7.964-.816-18.072.329-26.752,1.724-2.813.452-8.188,2.135-16.3,2.531-20.76,1.016-43.419-.968-43.151,6.239s15.432,6.295,42.554,4.588c24.892-1.566,29.695-4.009,55.573-1.408s47.9-1.207,37.429-7.275S215,340.342,201.3,338.608q-1.484-.187-2.892-.331" transform="translate(-46.676 -140.61)" fill="#00666c"/>
          <path id="Trazado_996190" data-name="Trazado 996190" d="M229.339,20.161c-.35,5.07,11.647,10.026,26.794,11.069s27.71-2.223,28.058-7.293S272.543,13.91,257.4,12.868s-27.709,2.223-28.058,7.293" transform="translate(-95.402 -5.272)" fill="#f2b34d"/>
          <path id="Trazado_996191" data-name="Trazado 996191" d="M235.4,228.3s54.956,13.145,65.582-.046c6.317-7.841-40.166-25.949-50.22-26.877C219.881,198.526,235.4,228.3,235.4,228.3" transform="translate(-96.305 -83.693)" fill="#1e1c18"/>
          <path id="Trazado_996192" data-name="Trazado 996192" d="M299.761,253.006c1.3-.834,4.089-2.067,4.91-2.692a27.108,27.108,0,0,1,5.384-2.534,43.451,43.451,0,0,1,14.586-.521c-2.275,6.393-11.038,19.948-19.447,31.147-5.611.2-11.22.436-16.826.76,0,0,.939-5.571,3.156-7.472s-.158-3.009.95-6.176,3.96-4.276,4.118-6.968a6.075,6.075,0,0,1,3.168-5.543" transform="translate(-119.961 -102.697)" fill="#1e1c18"/>
          <path id="Trazado_996193" data-name="Trazado 996193" d="M269.628,280.7a.452.452,0,0,1-.127-.018.459.459,0,0,1-.315-.568c.13-.455.239-1.089.365-1.823.376-2.188.89-5.185,2.605-6.729.971-.874,1.114-2.129,1.295-3.717a12.065,12.065,0,0,1,1.479-5.189c.585-.977,1.072-1.692,1.463-2.268a9.421,9.421,0,0,0,1.951-5.116c.438-2.921,4.18-5.461,6.629-6.831-16.606.944-46.4-5.658-46.714-5.728a.46.46,0,0,1,.2-.9c.328.074,32.964,7.306,48.764,5.516a.46.46,0,0,1,.237.878c-.076.033-7.639,3.409-8.207,7.2a10.325,10.325,0,0,1-2.1,5.5c-.4.595-.863,1.268-1.433,2.223a11.3,11.3,0,0,0-1.354,4.821c-.187,1.64-.364,3.189-1.594,4.3-1.478,1.33-1.961,4.146-2.314,6.2-.131.76-.244,1.417-.388,1.92a.46.46,0,0,1-.442.333" transform="translate(-98.966 -100.589)" fill="#403f39"/>
          <path id="Trazado_996194" data-name="Trazado 996194" d="M304.885,330.21l-28.351-.344a1.129,1.129,0,0,1-1.064-1.462l2.5-8.092,4.479-22.015,19.822-.36-11.175,20.508-.228.418s.823.252,2.069.641c1.866.584,3.809,1.4,6.321,2.451a28.941,28.941,0,0,1,5.519,2.756c2.168,1.38.109,5.5.109,5.5" transform="translate(-114.574 -123.942)" fill="#f2b34d"/>
          <path id="Trazado_996195" data-name="Trazado 996195" d="M286.217,297.722s-.589,1.6-.947,3.082c0,0,11.077,0,20.383-.258a9.963,9.963,0,0,0,1.329-3.116s-13.518-.1-20.765.293" transform="translate(-118.672 -123.726)" fill="#cc8b28"/>
          <path id="Trazado_996196" data-name="Trazado 996196" d="M300.326,334.114a64.123,64.123,0,0,0-7.141,1.7c1.069-1.077,3.426-2.083,5.3-2.76l-.228.418s.823.251,2.07.641" transform="translate(-121.965 -138.551)" fill="#cc8b28"/>
          <path id="Trazado_996197" data-name="Trazado 996197" d="M188.273,205.5S203.3,270.362,219.2,273.932c18.706,4.2,3.082-63.053-5.4-68.487-2.667-1.709-25.53.055-25.53.055" transform="translate(-78.322 -85.155)" fill="#1e1c18"/>
          <path id="Trazado_996198" data-name="Trazado 996198" d="M223.467,288.918s-17.71,6.519-21.861,7.208-5.528,6.113-7.424,4.156-4.885-2.342-6.6-.885-7.24,1.734-7.24,1.734l1.938,15.811s18.541-1.277,25.861-1.879c22.5-1.851,15.326-26.145,15.326-26.145" transform="translate(-75.022 -120.19)" fill="#1e1c18"/>
          <path id="Trazado_996199" data-name="Trazado 996199" d="M187.945,267.9a.46.46,0,0,1-.366-.738c1.111-1.462,3.929-3.774,6.635-2.056a8.329,8.329,0,0,0,6.072,1.326,3.472,3.472,0,0,0,2.282-1.705c1.522-2.741,2.867-2.969,5.309-3.382.349-.06.724-.123,1.128-.2.679-.127.828-.419.877-.515.488-.954-.624-3.321-2.033-6.318-.566-1.2-1.207-2.568-1.838-4.037-2.925-6.813-13.428-39.24-15.661-50.8a.46.46,0,1,1,.9-.174c2.224,11.521,12.69,43.826,15.6,50.615.624,1.455,1.262,2.811,1.825,4.009,1.633,3.476,2.713,5.772,2.019,7.128a2,2,0,0,1-1.525,1c-.412.078-.784.141-1.145.2-2.37.4-3.35.567-4.658,2.922a4.417,4.417,0,0,1-2.859,2.15,9.145,9.145,0,0,1-6.792-1.44c-2.669-1.695-5.3,1.691-5.411,1.836a.46.46,0,0,1-.366.181" transform="translate(-77.994 -82.753)" fill="#403f39"/>
          <path id="Trazado_996200" data-name="Trazado 996200" d="M151.66,335.783c-2.587-.083-13.5.037-13.5.037a42.083,42.083,0,0,1-1.993-10.8c-.138-6.4.376-12.157.376-12.157l30.561-6.628c2.589,6.279,4.135,18.956,4.135,18.956a125.07,125.07,0,0,1-22.964-2.626c-.386-.083-.771-.165-1.154-.25a3.986,3.986,0,0,1,.613.971,4.763,4.763,0,0,1,.2,3.019,4.11,4.11,0,0,1-.159.52,6.649,6.649,0,0,1,.906.223c4.921,1.549,12.9,9.049,2.976,8.733" transform="translate(-56.636 -127.395)" fill="#f2b34d"/>
          <path id="Trazado_996201" data-name="Trazado 996201" d="M184.409,306.841a155.873,155.873,0,0,1,4.216,18.485,4.189,4.189,0,0,0,2.692-.131,92.208,92.208,0,0,0-3.814-18.955,8.821,8.821,0,0,0-3.095.6" transform="translate(-76.714 -127.395)" fill="#cc8b28"/>
          <path id="Trazado_996202" data-name="Trazado 996202" d="M151.661,332.674a3.992,3.992,0,0,1,.613.97c-.966-1.258-5.217-2.472-5.217-2.472,4.239-.357,5.758,1.752,5.758,1.752q-.579-.124-1.154-.25" transform="translate(-61.176 -137.751)" fill="#cc8b28"/>
          <path id="Trazado_996203" data-name="Trazado 996203" d="M152.689,341.347a56.67,56.67,0,0,0-6.918.957c1.674-1.3,4.706-1.622,6.172-1.7a4.149,4.149,0,0,1-.159.52,6.638,6.638,0,0,1,.906.222" transform="translate(-60.641 -141.692)" fill="#cc8b28"/>
          <path id="Trazado_996204" data-name="Trazado 996204" d="M267.362,101.711c.465,2.144,1.007,4.257,1.572,6.258.019.071.04.143.064.213.493,1.728,1,3.366,1.491,4.857q.157.477.31.934.265.784.529,1.553c1.075,3.151,2.107,6.028,3.187,8.581a30.951,30.951,0,0,0,5.143,8.8,12.364,12.364,0,0,0,3.773,2.9c3.993,1.924,5.2-3.814,4.085-11.049q-.134-.883-.318-1.792c-.021-.109-.043-.215-.064-.324a43.915,43.915,0,0,0-2.033-6.873c-.392-1.013-.766-2.033-1.09-3.068l-6.1-19.538-.009-.03-2.009-6.431-.875-2.793-7.044,10.218-.064.19c.813,1.838.286,4.62-.546,7.389" transform="translate(-111.223 -34.909)" fill="#ff8b84"/>
          <path id="Trazado_996205" data-name="Trazado 996205" d="M267.362,106.832l3.839,12.784s9.575-3.61,13.476-11.293l-8.911-22.879s-7.16,12.686-8.4,21.388" transform="translate(-111.223 -35.545)" fill="#3877d1"/>
          <path id="Trazado_996206" data-name="Trazado 996206" d="M286.52,121.582s-6.349,8.09-13.786,10.73a6.25,6.25,0,0,0,.8,2.8s10.433-3.854,14.075-11.192a7.172,7.172,0,0,0-1.089-2.335" transform="translate(-113.457 -50.578)" fill="#6499ff"/>
          <path id="Trazado_996207" data-name="Trazado 996207" d="M287.738,160.6c3.978,6.218,29.084,27.533,35.186,24.119,4.159-2.326-3.465-7.3-11.824-17.064-7.931-9.269-12.294-13.767-14.154-15.592-.019-.02-.039-.04-.06-.06-.644-.631-.971-.926-1.027-.975,0,0-.005-.005-.008-.005l0,0a1.659,1.659,0,0,0-.571-.359,1.945,1.945,0,0,0-.3-.1c-3.264-.79-10.835,4.412-7.237,10.038" transform="translate(-119.304 -62.603)" fill="#ff8b84"/>
          <path id="Trazado_996208" data-name="Trazado 996208" d="M295.774,153.86a18.649,18.649,0,0,1,3.562-1.506q.229-.074.442-.137l.37-.109c.193-.055.371-.1.537-.144h0c-.019-.02-.041-.04-.062-.059-.645-.632-.971-.926-1.027-.975l-.008-.005a0,0,0,0,1,0,0,1.667,1.667,0,0,0-.571-.359c-.02-.109-.042-.215-.065-.324-.081.073-.159.148-.238.225-.017.015-.033.033-.047.047a31.363,31.363,0,0,0-2.891,3.35" transform="translate(-123.042 -62.499)" fill="#ff5f6f"/>
          <path id="Trazado_996209" data-name="Trazado 996209" d="M365.5,211.638l.3.22a3.433,3.433,0,0,0-.3-.22" transform="translate(-152.05 -88.041)" fill="#fbb990"/>
          <path id="Trazado_996210" data-name="Trazado 996210" d="M339.4,197.431c-1.987,1.6-3.2,5.55-2.133,6.645a6.9,6.9,0,0,1,1.376,2,4.018,4.018,0,0,1,.266.775,5.668,5.668,0,0,0,.876,1.4,11.033,11.033,0,0,0,5.762,3.683c2.565.676,6.064-1.326,8.3-3.093,1.635,1.4,4.972,4.04,6.289,3.4,1.568-.758-4.758-5.5-6.234-6.586-.193-.141-.3-.22-.3-.22s.54.112,1.257.21c1.49.2,3.731.336,3.384-.754-.513-1.615-7.253-3.454-8.9-5.085a7.294,7.294,0,0,0-1.66-1.265l-.093-.05a.412.412,0,0,1-.043-.021c-.876-.46-5.823-2.909-8.139-1.044" transform="translate(-140.137 -81.844)" fill="#ff560d"/>
          <path id="Trazado_996211" data-name="Trazado 996211" d="M357.137,207.9a7.2,7.2,0,0,0-1.463-2.685.33.33,0,1,1,.491-.44,7.644,7.644,0,0,1,1.685,3.21Z" transform="translate(-147.922 -85.139)" fill="#da3313"/>
          <path id="Trazado_996212" data-name="Trazado 996212" d="M398.2,191.859h0a1.6,1.6,0,0,0-1.566-1.091l-19.3.554a3.284,3.284,0,0,0-3.018,4.331l2.579,7.649a3.283,3.283,0,0,0,5.023,1.621l15.7-11.246a1.6,1.6,0,0,0,.586-1.817" transform="translate(-155.639 -79.359)" fill="#93b4c0"/>
          <path id="Trazado_996213" data-name="Trazado 996213" d="M377.351,201.479a.946.946,0,0,1-.645.895l-7.089,2.39-4.451,1.5-4.938,1.664c-.431-.374-.909-.768-1.4-1.136l-.053-.154a.206.206,0,0,1,.13-.261l5.654-1.907,4.451-1.5,7.089-2.39a.947.947,0,0,1,1.2.594.924.924,0,0,1,.051.3" transform="translate(-149.247 -83.421)" fill="#1e1c18"/>
          <path id="Trazado_996214" data-name="Trazado 996214" d="M344.233,213.781a1.815,1.815,0,0,0-.614-.142.984.984,0,0,0-.882.469,1.12,1.12,0,0,0-.119.263,1.166,1.166,0,0,0,.06.864,4.362,4.362,0,0,0,1.112,1.118l.31.255-2.779.937a1.927,1.927,0,0,1-2.434-1.189l-.015-.037a1.931,1.931,0,0,1,1.205-2.464l3.92-1.32,0,.014a1.459,1.459,0,0,0,.241,1.232" transform="translate(-140.926 -88.415)" fill="#f2b34d"/>
          <path id="Trazado_996215" data-name="Trazado 996215" d="M364.191,208.707a1.946,1.946,0,0,1-1.292,1.49l-2.79.941c-.25-.231-.54-.493-.856-.767-.43-.374-.909-.768-1.4-1.135a13.669,13.669,0,0,0-1.435-.963l5.236-1.764a1.938,1.938,0,0,1,1.931.405,1.915,1.915,0,0,1,.536.817,1.948,1.948,0,0,1,.069.976" transform="translate(-148.271 -85.865)" fill="#f2b34d"/>
          <path id="Trazado_996216" data-name="Trazado 996216" d="M334.569,201.789a31.91,31.91,0,0,0-5.179-3.829l6.811-7.837a12.629,12.629,0,0,0,5.142,4.333s-5.078,2.791-6.773,7.333" transform="translate(-137.026 -79.092)" fill="#ff560d"/>
          <path id="Trazado_996217" data-name="Trazado 996217" d="M325.854,196.005s1.449,1.713,2.557,1.673,7.889-7.368,7.889-7.368-1.014-2.368-1.835-2.774c0,0-5.791,5.337-8.611,8.469" transform="translate(-135.555 -78.015)" fill="#da3313"/>
          <path id="Trazado_996218" data-name="Trazado 996218" d="M339.9,212.72a5.022,5.022,0,0,0,.266.775,4.019,4.019,0,0,0-.266-.775" transform="translate(-141.398 -88.492)" fill="#fbb990"/>
          <path id="Trazado_996219" data-name="Trazado 996219" d="M351.873,209.284a.978.978,0,0,1,1.209-.658c2.03.291,5.88,4.159,6.043,4.323a.344.344,0,1,1-.489.485c-1.065-1.075-4.156-3.913-5.652-4.127-.344-.049-.411.082-.433.126a1.343,1.343,0,0,0,.434,1.267c.079.081.255.234.459.412a11.494,11.494,0,0,1,2.938,3.346.344.344,0,1,1-.635.266,11.045,11.045,0,0,0-2.755-3.093c-.233-.2-.4-.349-.5-.45a2.068,2.068,0,0,1-.62-1.9" transform="translate(-146.357 -86.781)" fill="#da3313"/>
          <path id="Trazado_996220" data-name="Trazado 996220" d="M347.681,212.014c.011-.033.022-.067.036-.1a1.108,1.108,0,0,1,.95-.657c1.851-.22,5.4,3.541,5.8,3.971a.344.344,0,0,1-.5.468c-1.414-1.524-4.08-3.891-5.214-3.756-.314.037-.376.188-.4.237a.761.761,0,0,0,.146.693,8.217,8.217,0,0,0,.882.851,8.547,8.547,0,0,1,2.32,2.731.344.344,0,1,1-.634.266,8.079,8.079,0,0,0-2.143-2.483,8.575,8.575,0,0,1-.967-.94,1.473,1.473,0,0,1-.276-1.282" transform="translate(-144.614 -87.879)" fill="#da3313"/>
          <path id="Trazado_996221" data-name="Trazado 996221" d="M345.323,215.158a1.137,1.137,0,0,1,.119-.263.984.984,0,0,1,.882-.468c1.407.034,3.928,2.7,4.211,3a.344.344,0,1,1-.5.469c-.993-1.064-2.881-2.759-3.725-2.78a.291.291,0,0,0-.28.143.5.5,0,0,0-.034.445,4.268,4.268,0,0,0,.937.905,5.168,5.168,0,0,1,1.587,1.737.344.344,0,0,1-.635.266,4.746,4.746,0,0,0-1.387-1.47,4.354,4.354,0,0,1-1.112-1.119,1.169,1.169,0,0,1-.061-.864" transform="translate(-143.632 -89.201)" fill="#da3313"/>
          <path id="Trazado_996222" data-name="Trazado 996222" d="M344.86,203.669a.307.307,0,0,1,.5,0,7.09,7.09,0,0,0,3.357,2.593l.019.006a.344.344,0,0,1,.229.429h0a.344.344,0,0,1-.428.228,7.864,7.864,0,0,1-3.678-2.891.306.306,0,0,1,0-.362l0-.005" transform="translate(-143.435 -84.674)" fill="#da3313"/>
          <path id="Trazado_996223" data-name="Trazado 996223" d="M207.213,55.3l-1.167.471-.75.3-1.093.44S193.564,41.6,197.486,38.65c3.886-2.925,7.452,12.642,7.515,12.919-.033-.289-2.005-17.159,2.681-15.87,4.727,1.3-.469,19.6-.469,19.6" transform="translate(-81.793 -14.822)" fill="#00666c"/>
          <path id="Trazado_996224" data-name="Trazado 996224" d="M209.029,44.368l-1.177,14.95-.75.3-6.124-12.763a.2.2,0,0,1,.366-.175l6.095,12.7,1.185-15.049a.2.2,0,0,1,.4.032" transform="translate(-83.599 -18.366)" fill="#005454"/>
          <path id="Trazado_996225" data-name="Trazado 996225" d="M215.425,59.077l.872.906.561.583.818.85s15.809-9.258,13.438-13.556c-2.349-4.259-11.971,8.487-12.143,8.714.149-.25,8.85-14.837,4.046-15.578-4.846-.748-7.592,18.081-7.592,18.081" transform="translate(-89.617 -17.046)" fill="#00666c"/>
          <path id="Trazado_996226" data-name="Trazado 996226" d="M221.961,49.245l-5.042,14.123.56.583,10.809-9.14a.2.2,0,0,0-.262-.31l-10.758,9.1,5.075-14.217a.2.2,0,0,0-.382-.136" transform="translate(-90.238 -20.43)" fill="#005454"/>
          <path id="Trazado_996227" data-name="Trazado 996227" d="M218.209,64.692s-6.074,40.784-36.283,46.155a11.766,11.766,0,0,1-2.6-.828c-3.555-1.556-9.247-5.828-6.971-16.911,3.227-15.72,15.552-33.915,15.552-33.915s6.767,1.218,14.578,2.632c5.369.972,11.229,2.038,15.726,2.866" transform="translate(-71.482 -24.625)" fill="#f2b34d"/>
          <path id="Trazado_996228" data-name="Trazado 996228" d="M223.546,66.567s-6.074,40.784-36.283,46.155a11.766,11.766,0,0,1-2.6-.828c1.168-8.556,4.767-28.8,10.565-38.445A20.906,20.906,0,0,1,207.821,63.7c5.369.972,11.229,2.038,15.726,2.866" transform="translate(-76.819 -26.5)" fill="#cc8b28"/>
          <path id="Trazado_996229" data-name="Trazado 996229" d="M186.942,147.667a102.41,102.41,0,0,0,30.914,1.822c2.208-.222,4.454-.54,6.708-.971a62.473,62.473,0,0,0,11.29-3.225s-3.9-24.332-.728-38.26,7.639-22.327,7.263-27.446-8.549-11.443-8.549-11.443L223.59,65.967s-15.225-1.822-22.218,3.667c-1.19.934-2.592,3.119-4.07,6.22-.708,1.48-1.433,3.169-2.163,5.032-.584,1.5-1.173,3.1-1.755,4.8-.084.244-.166.489-.25.734q-.694,2.051-1.374,4.261-.352,1.155-.7,2.347c-.032.111-.066.224-.1.337-1.717,5.94-3.293,12.51-4.507,19.142a97.03,97.03,0,0,0,.488,35.159" transform="translate(-76.991 -27.322)" fill="#6499ff"/>
          <path id="Trazado_996230" data-name="Trazado 996230" d="M241.674,106.989a.383.383,0,0,1-.08-.758c.12-.026,12.079-2.679,15.171-10.743a.383.383,0,0,1,.715.274c-1.345,3.509-4.5,6.563-9.114,8.831a31.536,31.536,0,0,1-6.611,2.387.378.378,0,0,1-.081.009" transform="translate(-100.377 -39.621)" fill="#3877d1"/>
          <path id="Trazado_996231" data-name="Trazado 996231" d="M254.717,80.964a10.193,10.193,0,0,1-3.636-.7,13.844,13.844,0,0,1-4.24-2.59.383.383,0,1,1,.528-.555,13.307,13.307,0,0,0,4.007,2.438,8.33,8.33,0,0,0,8.572-1.244.383.383,0,0,1,.473.6,9.124,9.124,0,0,1-5.7,2.053" transform="translate(-102.636 -32.036)" fill="#3877d1"/>
          <path id="Trazado_996232" data-name="Trazado 996232" d="M212.895,126.16s-3.26,4.593-12.446,3.168-11.747-4.639-11.747-4.639-8.851,24.532-2.195,47.528c0,0,24.224,9.053,50.125-1.477a21.057,21.057,0,0,1-.944-6.886c.317-2.851,1.346-4.864.079-7.421s-2.613-5.725-1.663-9.367.5-16.1.5-16.1-15.757-2.587-21.71-4.8" transform="translate(-76.555 -51.871)" fill="#1e1c18"/>
          <path id="Trazado_996233" data-name="Trazado 996233" d="M234.549,65.456s5.178,22.632-1.091,35.83a4.68,4.68,0,0,0,3.889,1.182s5.733-14.486.422-37.116c0,0-2.194-1.094-3.22.1" transform="translate(-97.119 -26.997)" fill="#1e1c18"/>
          <path id="Trazado_996234" data-name="Trazado 996234" d="M268.738,72.09s2.051,22.871-3.439,36.729l3.115.264a63.672,63.672,0,0,0,3.037-34.361s-.667-2.646-2.713-2.632" transform="translate(-110.364 -29.989)" fill="#1e1c18"/>
          <path id="Trazado_996235" data-name="Trazado 996235" d="M186.269,116.327s32.035-10.044,51.212-41.472c0,0,2.722,1.258,2.722,3.833,0,0-17.4,29.477-55.172,42.912,0,0-1.476-3.279,1.238-5.274" transform="translate(-76.806 -31.14)" fill="#f2b34d"/>
          <path id="Trazado_996236" data-name="Trazado 996236" d="M212.822,182.488c-.259,0-.513,0-.764,0a73.083,73.083,0,0,1-12.26-1.172.554.554,0,1,1,.222-1.086,71.911,71.911,0,0,0,12.071,1.15c6.169.067,14.831-.7,21.091-4.768a.554.554,0,1,1,.6.93c-6.239,4.053-14.7,4.951-20.964,4.951" transform="translate(-82.931 -73.432)" fill="#403f39"/>
          <path id="Trazado_996237" data-name="Trazado 996237" d="M223.207,193.8q-.717,0-1.453-.041a.554.554,0,0,1,.062-1.107,26.9,26.9,0,0,0,15.38-4.034,28.168,28.168,0,0,0,5.82-4.6.554.554,0,0,1,.826.739,28.728,28.728,0,0,1-6.038,4.791,28.3,28.3,0,0,1-14.6,4.253" transform="translate(-92.032 -76.475)" fill="#403f39"/>
          <path id="Trazado_996238" data-name="Trazado 996238" d="M239.5,140.381s7.7,1.735,14.073,2.453c0,0,.606,15.138-8.686,14.483s-5.387-16.936-5.387-16.936" transform="translate(-99.294 -58.398)" fill="#403f39"/>
          <path id="Trazado_996239" data-name="Trazado 996239" d="M199.3,92.922c.527,5.736,1.687,13.907,4.125,16.627,3.9,4.347,5.6-14.21,5.6-14.21l-4.266-11.964a2.424,2.424,0,0,0-1.544-.286c-.708,1.48-1.434,3.17-2.163,5.032-.585,1.5-1.173,3.1-1.756,4.8" transform="translate(-82.91 -34.557)" fill="#3877d1"/>
          <path id="Trazado_996240" data-name="Trazado 996240" d="M261.7,75.237s0,0,0,0,0,.006,0,.009l0-.008" transform="translate(-108.868 -31.298)" fill="#000c1c"/>
          <path id="Trazado_996241" data-name="Trazado 996241" d="M253.777,20.557s-4.557.254-5.125,2.3c-.659,2.375.792,2.336.792,2.336s-2.1.976-1.98,2.685a1.614,1.614,0,0,0,1.5,1.716s-2.149,1.751-1.093,3.993c1.53,3.246,4.82,1.5,4.82,1.5s1.97-12.55,1.082-14.527" transform="translate(-102.943 -8.552)" fill="#000c1c"/>
          <path id="Trazado_996242" data-name="Trazado 996242" d="M248.171,57.847c2.4,6,10.993,6,10.993,6l3.319-12.657-8.949-5.814-1.437-.934Z" transform="translate(-103.239 -18.486)" fill="#ff8b84"/>
          <path id="Trazado_996243" data-name="Trazado 996243" d="M257.349,46.036s-.531,11.2,6.663,14.529L266.3,51.85Z" transform="translate(-107.053 -19.151)" fill="#000c1c"/>
          <path id="Trazado_996244" data-name="Trazado 996244" d="M286.974,35.944s3.453-.967,3.83,3.015-4.181,7.61-7.3,5.908c0,0,1.624-7.464,3.474-8.923" transform="translate(-117.936 -14.91)" fill="#ff5f6f"/>
          <path id="Trazado_996245" data-name="Trazado 996245" d="M278.49,25.05c-1.191,5.991-3.936,15.567-9.707,19.195-6.84,4.3-13.334-6.14-14.674-14.686l0,0c-.076-.489-.138-.971-.18-1.446a13.471,13.471,0,0,1,.3-4.68c.131-.475.261-.929.394-1.364q.223-.736.448-1.4c.1-.29.2-.568.3-.838a20.658,20.658,0,0,1,1.183-2.67,8.389,8.389,0,0,1,3.008-3.359,10.279,10.279,0,0,1,3.942-1.267c2.372-.349,6,.35,9.182,1.663a9.7,9.7,0,0,1,5.8,10.854" transform="translate(-105.605 -5.177)" fill="#ff8b84"/>
          <path id="Trazado_996246" data-name="Trazado 996246" d="M294.323,23.621a3.949,3.949,0,0,1,.915,3.4c-.391,2.112-.232,3.227,1.141,2.828s.732-5.22-1.983-6.795Z" transform="translate(-122.438 -9.591)" fill="#000c1c"/>
          <path id="Trazado_996247" data-name="Trazado 996247" d="M297.337,31.285s.2,3.082-.749,4.029-1.569.259-1.569.259l.646-3.04Z" transform="translate(-122.728 -13.015)" fill="#000c1c"/>
          <path id="Trazado_996248" data-name="Trazado 996248" d="M278.443,19.344c-1.208-.678-2.826,1.132-3.71,1.132-1.109,0-1.848-1.958-3.432-2.591a3.24,3.24,0,0,0-1.532-.148,3.6,3.6,0,0,0-2.874,2.215,2.3,2.3,0,0,1-1.582,1.361,5.173,5.173,0,0,0-2.921,2.463,3.062,3.062,0,0,1-4.955.334,8.048,8.048,0,0,0-2.264-2.042q.223-.736.448-1.4c.1-.29.2-.568.3-.838a20.647,20.647,0,0,1,1.183-2.67,8.389,8.389,0,0,1,3.008-3.359,10.279,10.279,0,0,1,3.942-1.267c2.372-.349,6,.35,9.182,1.663a9.669,9.669,0,0,1,5.208,5.147" transform="translate(-106.152 -5.177)" fill="#000c1c"/>
          <path id="Trazado_996249" data-name="Trazado 996249" d="M253.983,39.272q.065.711.18,1.445v0a7,7,0,0,0,3.134,2c.089.026.145.039.162.041a.363.363,0,1,0,.156-.71c-.012,0-.057-.014-.124-.033a6.322,6.322,0,0,1-3.508-2.747" transform="translate(-105.657 -16.337)" fill="#ff5f6f"/>
          <path id="Trazado_996250" data-name="Trazado 996250" d="M257.526,27.052s-2.772-2.495-4.645,1.038.948,8.631,4.485,8.255c0,0,1.31-7.237.16-9.293" transform="translate(-104.95 -10.898)" fill="#ff8b84"/>
          <path id="Trazado_996251" data-name="Trazado 996251" d="M257.775,34.987a.362.362,0,0,1-.251-.383,6.026,6.026,0,0,0-1.172-4.161.361.361,0,0,1,.552-.466,6.653,6.653,0,0,1,1.339,4.7.361.361,0,0,1-.4.322.353.353,0,0,1-.071-.015" transform="translate(-106.607 -12.417)" fill="#ff5f6f"/>
          <path id="Trazado_996252" data-name="Trazado 996252" d="M254.928,33.879a.361.361,0,0,1,.034-.7,4.027,4.027,0,0,1,2.212.162.361.361,0,1,1-.322.646,3.263,3.263,0,0,0-1.744-.1.366.366,0,0,1-.18-.009" transform="translate(-105.945 -13.767)" fill="#ff5f6f"/>
          <path id="Trazado_996253" data-name="Trazado 996253" d="M281.408,47.171a5.587,5.587,0,0,1-1.134-.5.391.391,0,0,1,.388-.679,4.024,4.024,0,0,0,1.211.487c.151-.625.544-3.565.858-6.188a.391.391,0,1,1,.777.093c-.168,1.4-.731,6-.943,6.495a.614.614,0,0,1-.376.341,1.386,1.386,0,0,1-.782-.046" transform="translate(-116.512 -16.616)" fill="#ff5f6f"/>
          <path id="Trazado_996254" data-name="Trazado 996254" d="M275.984,38.552c-.176.656-.613,1.108-.975,1.011s-.513-.708-.337-1.364.613-1.108.975-1.011.513.708.337,1.364" transform="translate(-114.233 -15.465)" fill="#000c1c"/>
          <path id="Trazado_996255" data-name="Trazado 996255" d="M271.351,33.6a.588.588,0,0,1-.058-1,4.093,4.093,0,0,1,5.045.188.588.588,0,0,1-.78.881,2.932,2.932,0,0,0-3.585-.11.588.588,0,0,1-.623.036" transform="translate(-112.755 -13.237)" fill="#000c1c"/>
          <path id="Trazado_996256" data-name="Trazado 996256" d="M289.785,42.52c-.176.656-.612,1.108-.975,1.011s-.513-.708-.337-1.364.613-1.108.975-1.011.513.707.337,1.363" transform="translate(-119.974 -17.116)" fill="#000c1c"/>
          <path id="Trazado_996257" data-name="Trazado 996257" d="M287.252,36.7a.511.511,0,0,1-.1-.213.52.52,0,0,1,.408-.61,3.614,3.614,0,0,1,4,1.972.519.519,0,0,1-.946.429,2.586,2.586,0,0,0-2.847-1.381.518.518,0,0,1-.514-.2" transform="translate(-119.453 -14.899)" fill="#000c1c"/>
          <path id="Trazado_996258" data-name="Trazado 996258" d="M278.819,54.766a22.13,22.13,0,0,1-6.722-3.071,4.585,4.585,0,0,0,2.989,4.206,3.473,3.473,0,0,0,3.733-1.135" transform="translate(-113.192 -21.505)" fill="#fff"/>
          <path id="Trazado_996259" data-name="Trazado 996259" d="M274.005,60.615a4.656,4.656,0,0,1-2.532-1.695.351.351,0,0,1,.572-.407,4.367,4.367,0,0,0,2.878,1.575.351.351,0,0,1-.061.7,4.84,4.84,0,0,1-.857-.172" transform="translate(-112.906 -24.28)" fill="#ff5f6f"/>
          <path id="Trazado_996260" data-name="Trazado 996260" d="M278.7,13.465c-10.589-5.275-21.123-1.46-21.123-1.46-1.175-1.964-1.392-2.731-.169-4.32l0-.019a9.69,9.69,0,0,1,.827-1.948A10.8,10.8,0,0,1,267.1.064c7.125-.638,10.327,3.658,11.664,6.55a11.945,11.945,0,0,1,.86,2.5l.024.046c1.558,2.995-.957,4.309-.957,4.309" transform="translate(-106.739 0)" fill="#f2b34d"/>
          <path id="Trazado_996261" data-name="Trazado 996261" d="M280.24,13.065c-7.415-1.319-18.649-1.548-22.244-1.49a9.679,9.679,0,0,1,.827-1.948,94.111,94.111,0,0,1,20.533.9,11.943,11.943,0,0,1,.86,2.5l.024.046" transform="translate(-107.326 -3.909)" fill="#008985"/>
          <path id="Trazado_996262" data-name="Trazado 996262" d="M226.011,184.684c.032.171.063.345.092.521a128.726,128.726,0,0,1,1.489,14.4s-2.85-3.739-5.633-7.984c-.1-.148-.194-.3-.291-.445a49.29,49.29,0,0,1-4.4-7.949c-.069-.179-.133-.353-.189-.522a4.07,4.07,0,0,1-.286-2.4c.826-2.389,3.585-3.725,6.617-2.511,1.034.414,1.908,3.127,2.6,6.894" transform="translate(-90.152 -73.771)" fill="#ff560d"/>
          <path id="Trazado_996263" data-name="Trazado 996263" d="M214.595,171.843s-8.3-5.149-6.483-6.9,7.2,5.319,7.2,5.319-1.722-6.207.978-7.445,1.253,8.505,1.253,8.505a2.368,2.368,0,0,1-2.946.524" transform="translate(-86.466 -67.685)" fill="#00666c"/>
          <path id="Trazado_996264" data-name="Trazado 996264" d="M221.917,183.685a.264.264,0,0,1-.228.293,8.667,8.667,0,0,0-4.151,1.795c-.069-.179-.133-.353-.189-.522a9.07,9.07,0,0,1,4.275-1.793.263.263,0,0,1,.293.228" transform="translate(-90.417 -76.318)" fill="#da3313"/>
          <path id="Trazado_996265" data-name="Trazado 996265" d="M229.494,189.919c.032.171.063.345.092.521a9.489,9.489,0,0,0-4.1,1.347.262.262,0,0,1-.291-.435,9.794,9.794,0,0,1,4.3-1.433" transform="translate(-93.635 -79.006)" fill="#da3313"/>
          <path id="Trazado_996266" data-name="Trazado 996266" d="M228.654,198.737a.261.261,0,0,1-.2.313,8.1,8.1,0,0,0-2.965,1.388c-.1-.148-.194-.3-.291-.445a8.631,8.631,0,0,1,3.141-1.454.262.262,0,0,1,.313.2" transform="translate(-93.683 -82.59)" fill="#da3313"/>
          <path id="Trazado_996267" data-name="Trazado 996267" d="M243.516,185.358q.008.261.012.529a128.465,128.465,0,0,1-.734,14.458s-2.244-4.131-4.344-8.753c-.074-.161-.147-.322-.219-.484a49.292,49.292,0,0,1-3.127-8.529c-.04-.187-.077-.369-.106-.545a4.069,4.069,0,0,1,.086-2.418c1.183-2.234,4.113-3.132,6.923-1.469.958.568,1.407,3.383,1.51,7.21" transform="translate(-97.705 -73.753)" fill="#ff560d"/>
          <path id="Trazado_996268" data-name="Trazado 996268" d="M234.3,171.442s-7.414-6.359-5.349-7.815,6.3,6.359,6.3,6.359-.751-6.4,2.106-7.208-.064,8.6-.064,8.6a2.368,2.368,0,0,1-2.991.068" transform="translate(-95.091 -67.695)" fill="#00666c"/>
          <path id="Trazado_996269" data-name="Trazado 996269" d="M239.843,183.769a.263.263,0,0,1-.27.254,8.673,8.673,0,0,0-4.377,1.138c-.04-.187-.078-.369-.107-.545a9.075,9.075,0,0,1,4.5-1.117.263.263,0,0,1,.254.27" transform="translate(-97.797 -76.334)" fill="#da3313"/>
          <path id="Trazado_996270" data-name="Trazado 996270" d="M246.39,191.088q.008.261.012.529a9.47,9.47,0,0,0-4.254.7.262.262,0,0,1-.222-.475,9.791,9.791,0,0,1,4.464-.758" transform="translate(-100.579 -79.483)" fill="#da3313"/>
          <path id="Trazado_996271" data-name="Trazado 996271" d="M244.232,199.557a.261.261,0,0,1-.244.279,8.1,8.1,0,0,0-3.143.917c-.073-.161-.147-.322-.219-.484a8.631,8.631,0,0,1,3.326-.956.261.261,0,0,1,.279.244" transform="translate(-100.1 -82.914)" fill="#da3313"/>
          <path id="Trazado_996272" data-name="Trazado 996272" d="M252.979,186.188c.079.155.161.312.245.469a128.591,128.591,0,0,0,7.609,12.317s-.024-4.7-.411-9.763c-.013-.176-.026-.353-.041-.53a49.22,49.22,0,0,0-1.369-8.98c-.054-.183-.11-.361-.169-.529a4.075,4.075,0,0,0-1.24-2.077c-2.113-1.388-5.113-.763-6.774,2.049-.566.96.4,3.642,2.151,7.045" transform="translate(-104.277 -73.375)" fill="#ff560d"/>
          <path id="Trazado_996273" data-name="Trazado 996273" d="M252.68,169.212s3.433-9.144.922-9.426-2.455,8.606-2.455,8.606-2.425-5.968-5.319-5.3,4.2,7.5,4.2,7.5a2.368,2.368,0,0,0,2.654-1.382" transform="translate(-101.976 -66.468)" fill="#00666c"/>
          <path id="Trazado_996274" data-name="Trazado 996274" d="M256.81,182.705a.263.263,0,0,0,.359.093,8.675,8.675,0,0,1,4.384-1.112c-.055-.183-.11-.361-.169-.529a9.071,9.071,0,0,0-4.48,1.19.262.262,0,0,0-.093.359" transform="translate(-106.818 -75.361)" fill="#da3313"/>
          <path id="Trazado_996275" data-name="Trazado 996275" d="M254.627,192.113c.079.155.161.312.245.469a9.474,9.474,0,0,1,4.067-1.433.262.262,0,0,0-.035-.523,9.789,9.789,0,0,0-4.277,1.486" transform="translate(-105.925 -79.3)" fill="#da3313"/>
          <path id="Trazado_996276" data-name="Trazado 996276" d="M261.286,198.553a.262.262,0,0,0,.348.127,8.1,8.1,0,0,1,3.2-.71c-.013-.176-.027-.353-.041-.53a8.626,8.626,0,0,0-3.376.764.262.262,0,0,0-.127.348" transform="translate(-108.685 -82.135)" fill="#da3313"/>
          <path id="Trazado_996277" data-name="Trazado 996277" d="M271.39,187.578c.081.154.164.31.25.466a128.654,128.654,0,0,0,7.746,12.231s-.077-4.7-.519-9.758c-.015-.176-.03-.352-.047-.53a49.256,49.256,0,0,0-1.469-8.964c-.057-.183-.115-.36-.175-.527a4.076,4.076,0,0,0-1.263-2.063c-2.129-1.365-5.122-.706-6.752,2.124-.555.966.437,3.637,2.229,7.021" transform="translate(-111.907 -73.943)" fill="#ff560d"/>
          <path id="Trazado_996278" data-name="Trazado 996278" d="M270.908,170.578s3.331-9.182.817-9.435-2.359,8.633-2.359,8.633-2.491-5.94-5.377-5.241,4.281,7.455,4.281,7.455a2.368,2.368,0,0,0,2.638-1.412" transform="translate(-109.534 -67.033)" fill="#00666c"/>
          <path id="Trazado_996279" data-name="Trazado 996279" d="M275.166,184.053a.263.263,0,0,0,.36.089,8.668,8.668,0,0,1,4.371-1.16c-.057-.183-.114-.36-.175-.527a9.076,9.076,0,0,0-4.467,1.239.262.262,0,0,0-.089.36" transform="translate(-114.453 -75.901)" fill="#da3313"/>
          <path id="Trazado_996280" data-name="Trazado 996280" d="M273.088,193.487c.081.154.164.31.25.466a9.475,9.475,0,0,1,4.051-1.478.262.262,0,0,0-.04-.523,9.806,9.806,0,0,0-4.26,1.534" transform="translate(-113.605 -79.852)" fill="#da3313"/>
          <path id="Trazado_996281" data-name="Trazado 996281" d="M279.815,199.859a.261.261,0,0,0,.349.123,8.1,8.1,0,0,1,3.188-.746c-.015-.176-.03-.352-.047-.529a8.63,8.63,0,0,0-3.367.8.262.262,0,0,0-.123.349" transform="translate(-116.392 -82.662)" fill="#da3313"/>
          <path id="Trazado_996282" data-name="Trazado 996282" d="M257.5,190.056V210.39a10.341,10.341,0,0,1-10.345,10.345H224.346a10.337,10.337,0,0,1-8.5-4.45,10.135,10.135,0,0,1-.711-1.188A10.287,10.287,0,0,1,214,210.39V190.056Z" transform="translate(-89.024 -79.063)" fill="#f2b34d"/>
          <rect id="Rectángulo_454946" data-name="Rectángulo 454946" width="43.501" height="1.188" transform="translate(124.977 115.444)" fill="#cc8b28"/>
          <rect id="Rectángulo_454947" data-name="Rectángulo 454947" width="43.501" height="1.188" transform="translate(124.977 122.306)" fill="#cc8b28"/>
          <rect id="Rectángulo_454948" data-name="Rectángulo 454948" width="43.501" height="1.188" transform="translate(124.977 129.169)" fill="#cc8b28"/>
          <path id="Trazado_996283" data-name="Trazado 996283" d="M257.177,232.934a10.14,10.14,0,0,1-.711,1.188H216.649a10.218,10.218,0,0,1-.711-1.188Z" transform="translate(-89.83 -96.901)" fill="#cc8b28"/>
          <path id="Trazado_996284" data-name="Trazado 996284" d="M217.112,137.647c-1.961-1.221-3.363-1.96-4.647-4.35-2.3-4.282-3.913-11.419-5.511-18.731-.427-1.961-.874-4.207-1.267-6.6-.138-.844-.27-1.706-.392-2.578-1.549-11.025-4.039-31.454,5.283-32.3,8.007-.727,9.3,18.745,9.3,18.745s.117,4.327.527,10.353c.14,2.038.309,4.271.521,6.6.311,3.435.71,7.068,1.215,10.579.273,1.89.467,3.744.578,5.51.032.516.057,1.026.075,1.525.008.2.014.392.017.587.193,7.854-1.5,13.273-5.7,10.657" transform="translate(-84.776 -30.399)" fill="#ff8b84"/>
          <path id="Trazado_996285" data-name="Trazado 996285" d="M206.021,74.605s-6.284,6.129-1.427,31.267c0,0,12.082,1.729,17.181-3.023,0,0-1-19.11-3.969-25.234s-8.69-6.339-11.785-3.009" transform="translate(-84.345 -30.143)" fill="#6499ff"/>
          <path id="Trazado_996286" data-name="Trazado 996286" d="M204.452,123.231a6.054,6.054,0,0,0,.728,3.46s12.223,1.927,18.32-3.571l-.6-2.947a32.986,32.986,0,0,1-18.448,3.058" transform="translate(-85.037 -49.992)" fill="#73b7ff"/>
          <path id="Trazado_996287" data-name="Trazado 996287" d="M242.123,206.07c-6.988-.006-22.238-28.1-23.6-35.351a6.6,6.6,0,0,1-.113-.982c-.173-4.784,5.413-6.823,8.81-6.339a4.238,4.238,0,0,1,1.655.551,2.092,2.092,0,0,1,.6.565,1.792,1.792,0,0,1,.141.253s3.427,5.321,8.9,21.55c4.1,12.16,10.6,19.761,3.609,19.753" transform="translate(-90.856 -67.945)" fill="#ff8b84"/>
          <path id="Trazado_996288" data-name="Trazado 996288" d="M234.076,163.87c-.184,0-.38.013-.585.022a19.28,19.28,0,0,0-4.027.6s1.055-.863,2.355-1.736c.412-.277.849-.554,1.285-.806.1-.057.2-.114.3-.168.032.516.057,1.027.074,1.525a2.084,2.084,0,0,1,.6.565" transform="translate(-95.457 -67.3)" fill="#ff5f6f"/>
          <path id="Trazado_996289" data-name="Trazado 996289" d="M235.034,211.669c1.784,2.668,4.687,4.877,5.154,6.457,2.481,8.393,5.7,11.591,6.913,12.512a2.406,2.406,0,0,0,2.929-.2,2.153,2.153,0,0,0,2.563-.524c2.421,1.091,3.226-.495,3.226-.495s1.845,2.089,3.057.767-1.887-3.641-2.711-5.646c-.039-.1-.079-.2-.118-.307,1.156.866,2.68,1.741,3.732,1.343,1.91-.726-5.646-7.273-5.646-7.273a14.993,14.993,0,0,0-3.581-3.423c-.806-.559-1.255-2.111-1.771-2.819l-1.228-6.036Z" transform="translate(-97.774 -85.708)" fill="#ff560d"/>
          <path id="Trazado_996290" data-name="Trazado 996290" d="M233.393,210.12s.958,2.532,2.235,2.933,11.94-5.2,11.94-5.2-.2-3.1-.97-3.894c0,0-8.735,3.737-13.2,6.165" transform="translate(-97.091 -84.845)" fill="#da3313"/>
          <path id="Trazado_996291" data-name="Trazado 996291" d="M59.587,404.691,65.6,393.163c2.943-5.085,5.655-8.207,7.487-8.395,4.39-.45-3.048,13.55-3.048,13.55s8.922-13.163,14.239-14.374S76.857,401.8,76.857,401.8s9.78-5.6,14.484-4.179c2.424.732-1.718,4.037-6.3,7.071Z" transform="translate(-24.788 -159.697)" fill="#003d3c"/>
          <path id="Trazado_996292" data-name="Trazado 996292" d="M0,336.751a3.306,3.306,0,0,0,.264.3c2.592,2.569,7.086-7.267,2.933-17.109s-.731-22.845,4.838-23.352.728,8.144,7.906,6.816,8.285-20.452,17.549-19.4c8.108.922,2.912,15.086-1.116,21.054-3.8,5.633-2.672,11.362,1.594,10.11s8.529,4.671,2.179,13.867-14.952,18.349-10.813,19.4,12.751-7.982,16.419,2.717c1.64,4.781-1.9,8.889-6.321,11.97H0Z" transform="translate(0 -118.13)" fill="#005454"/>
          <path id="Trazado_996293" data-name="Trazado 996293" d="M3.732,371.857c9.762-25.909,26.17-65.605,26.37-66.088a.6.6,0,1,0-1.1-.456c-.2.486-16.789,40.615-26.543,66.544Z" transform="translate(-1.021 -126.856)" fill="#003d3c"/>
          <path id="Trazado_996294" data-name="Trazado 996294" d="M24.276,344.279a.591.591,0,0,0,.281-.1.6.6,0,0,0,.158-.831c-.051-.075-5.158-7.608-6.673-13.04a.6.6,0,1,0-1.152.321c1.569,5.622,6.623,13.077,6.837,13.392a.6.6,0,0,0,.548.259" transform="translate(-7.017 -137.226)" fill="#003d3c"/>
          <path id="Trazado_996295" data-name="Trazado 996295" d="M25.327,361.374l.036,0c.366-.055,9.026-1.392,14.9-4.606a.6.6,0,1,0-.574-1.048c-5.681,3.11-14.413,4.459-14.5,4.472a.6.6,0,0,0,.143,1.186" transform="translate(-10.265 -147.947)" fill="#003d3c"/>
          <path id="Trazado_996296" data-name="Trazado 996296" d="M0,396.923a51.5,51.5,0,0,0,5.259,5.394.6.6,0,0,1-.778.908A51.141,51.141,0,0,1,0,398.769Z" transform="translate(0 -165.12)" fill="#003d3c"/>
          <path id="Trazado_996297" data-name="Trazado 996297" d="M13.976,414.33a35.158,35.158,0,0,0,10.235-2.275.6.6,0,1,0-.468-1.1c-7.357,3.131-19.134,2.339-19.252,2.331a.6.6,0,1,0-.084,1.192,65.33,65.33,0,0,0,9.57-.148" transform="translate(-1.602 -170.938)" fill="#003d3c"/>
          <path id="Trazado_996298" data-name="Trazado 996298" d="M417.284,404.691l-6.013-11.528c-2.943-5.085-5.655-8.207-7.487-8.395-4.39-.45,3.048,13.55,3.048,13.55s-8.922-13.163-14.239-14.374,7.421,17.855,7.421,17.855-9.78-5.6-14.484-4.179c-2.424.732,1.718,4.037,6.3,7.071Z" transform="translate(-160.082 -159.697)" fill="#003d3c"/>
          <path id="Trazado_996299" data-name="Trazado 996299" d="M469.966,336.751a3.4,3.4,0,0,1-.264.3c-2.592,2.569-7.086-7.267-2.933-17.109s.731-22.845-4.838-23.352-.728,8.144-7.906,6.816-8.285-20.452-17.549-19.4c-8.108.922-2.912,15.086,1.116,21.054,3.8,5.633,2.672,11.362-1.594,10.11s-8.529,4.671-2.179,13.867,14.952,18.349,10.813,19.4-12.751-7.982-16.419,2.717c-1.64,4.781,1.9,8.889,6.321,11.97h35.433Z" transform="translate(-177.966 -118.13)" fill="#005454"/>
          <path id="Trazado_996300" data-name="Trazado 996300" d="M476.542,371.857c-9.762-25.909-26.17-65.605-26.37-66.088a.6.6,0,1,1,1.1-.456c.2.486,16.789,40.615,26.543,66.544Z" transform="translate(-187.253 -126.856)" fill="#003d3c"/>
          <path id="Trazado_996301" data-name="Trazado 996301" d="M470.06,344.279a.6.6,0,0,1-.439-.932c.051-.075,5.158-7.608,6.673-13.04a.6.6,0,1,1,1.152.321c-1.569,5.622-6.623,13.077-6.837,13.392a.6.6,0,0,1-.548.259" transform="translate(-195.319 -137.226)" fill="#003d3c"/>
          <path id="Trazado_996302" data-name="Trazado 996302" d="M463.352,361.374l-.036,0c-.366-.055-9.026-1.392-14.9-4.606a.6.6,0,1,1,.574-1.048c5.681,3.11,14.413,4.459,14.5,4.472a.6.6,0,0,1-.143,1.186" transform="translate(-186.414 -147.947)" fill="#003d3c"/>
          <path id="Trazado_996303" data-name="Trazado 996303" d="M496.105,396.923a51.491,51.491,0,0,1-5.259,5.394.6.6,0,0,0,.335,1.049.592.592,0,0,0,.443-.141,51.14,51.14,0,0,0,4.481-4.456Z" transform="translate(-204.105 -165.12)" fill="#003d3c"/>
          <path id="Trazado_996304" data-name="Trazado 996304" d="M471.261,414.33a35.157,35.157,0,0,1-10.235-2.275.6.6,0,1,1,.468-1.1c7.357,3.131,19.134,2.339,19.252,2.331a.6.6,0,1,1,.084,1.192,65.329,65.329,0,0,1-9.57-.148" transform="translate(-191.636 -170.938)" fill="#003d3c"/>
        </g>
      </g>
    </g>
  </g>
</svg>
