<svg xmlns="http://www.w3.org/2000/svg" width="47" height="47" viewBox="0 0 47 47">
  <g id="Grupo_1177592" data-name="Grupo 1177592" transform="translate(-186 -4211)">
    <circle id="Elipse_6022" data-name="Elipse 6022" cx="23.5" cy="23.5" r="23.5" transform="translate(186 4211)" fill="#9bbe50"/>
    <g id="agricultor" transform="translate(162.381 4217)">
      <g id="Grupo_1176819" data-name="Grupo 1176819" transform="translate(31.619 0)">
        <path id="Trazado_991686" data-name="Trazado 991686" d="M163.841,6.5a.5.5,0,0,1-.494-.413,6.2,6.2,0,0,0-12.2,0,.5.5,0,1,1-.99-.18,7.209,7.209,0,0,1,14.182,0,.5.5,0,0,1-.5.593Z" transform="translate(-142.198 0)" fill="#12263f"/>
        <path id="Trazado_991687" data-name="Trazado 991687" d="M237.4,78.156a.5.5,0,0,1-.168-.977c1.706-.6,2.724-1.394,2.724-2.112,0-1.529-4.31-3.233-10.5-3.233q-.7,0-1.383.03a.5.5,0,1,1-.044-1.005q.7-.03,1.427-.031c5.576,0,11.5,1.486,11.5,4.239,0,1.215-1.174,2.273-3.394,3.06A.5.5,0,0,1,237.4,78.156Z" transform="translate(-214.411 -66.078)" fill="#12263f"/>
        <path id="Trazado_991688" data-name="Trazado 991688" d="M88.063,81.264a.5.5,0,0,1-.168-.029c-2.221-.787-3.394-1.845-3.394-3.06,0-2.259,3.971-3.554,7.686-4.012a.5.5,0,0,1,.123,1c-4.467.551-6.8,1.933-6.8,3.014,0,.718,1.018,1.507,2.724,2.112a.5.5,0,0,1-.168.977Z" transform="translate(-80.954 -69.186)" fill="#12263f"/>
        <path id="Línea_3223" data-name="Línea 3223" d="M-5.087-6.494H-7A.5.5,0,0,1-7.5-7,.5.5,0,0,1-7-7.5h1.91a.5.5,0,0,1,.5.5A.5.5,0,0,1-5.087-6.494Z" transform="translate(18.005 26.055)" fill="#12263f"/>
        <path id="Trazado_991689" data-name="Trazado 991689" d="M289.62,280.891a.5.5,0,0,1-.492-.4,3.532,3.532,0,0,0-3.449-2.808h-4.912a.5.5,0,0,1,0-1.006h4.912a4.541,4.541,0,0,1,4.434,3.611.5.5,0,0,1-.493.6Z" transform="translate(-263.588 -258.12)" fill="#12263f"/>
        <path id="Trazado_991690" data-name="Trazado 991690" d="M84,283.345a.5.5,0,0,1-.5-.5V281.2a4.532,4.532,0,0,1,4.527-4.527h.654a.5.5,0,0,1,0,1.006h-.654a3.525,3.525,0,0,0-3.521,3.521v1.641A.5.5,0,0,1,84,283.345Z" transform="translate(-80.021 -258.12)" fill="#12263f"/>
        <path id="Trazado_991691" data-name="Trazado 991691" d="M116.776,182.507a3.2,3.2,0,0,1-1.808-5.832.5.5,0,1,1,.57.829,2.19,2.19,0,1,0,3.2,2.785.5.5,0,0,1,.9.451A3.181,3.181,0,0,1,116.776,182.507Z" transform="translate(-108.082 -164.743)" fill="#12263f"/>
        <path id="Trazado_991692" data-name="Trazado 991692" d="M310.249,182.506a3.181,3.181,0,0,1-2.858-1.767.5.5,0,0,1,.9-.451,2.19,2.19,0,1,0,3.2-2.785.5.5,0,0,1,.57-.829,3.2,3.2,0,0,1-1.808,5.832Z" transform="translate(-288.846 -164.742)" fill="#12263f"/>
        <path id="Trazado_991693" data-name="Trazado 991693" d="M219.369,252.922a.836.836,0,0,1-.589-.241l-1.895-1.872a.5.5,0,0,1-.149-.358V248.53a.5.5,0,1,1,1.006,0v1.711l1.627,1.608L221,250.241V248.53a.5.5,0,1,1,1.006,0v1.921a.5.5,0,0,1-.149.358l-1.895,1.872A.836.836,0,0,1,219.369,252.922Z" transform="translate(-204.321 -231.393)" fill="#12263f"/>
        <path id="Trazado_991694" data-name="Trazado 991694" d="M94.116,368.027H88.024a.5.5,0,0,1,0-1.006h5.534a3.426,3.426,0,0,0-1.086-1.938.5.5,0,0,1,.674-.747,4.428,4.428,0,0,1,1.473,3.172.5.5,0,0,1-.5.519Z" transform="translate(-83.772 -339.78)" fill="#12263f"/>
        <path id="Trazado_991695" data-name="Trazado 991695" d="M61.518,353.353a.5.5,0,0,1-.5-.583,4.444,4.444,0,0,1,4.407-3.751l.048.5-.006.5h-.033a3.446,3.446,0,0,0-3.424,2.9A.5.5,0,0,1,61.518,353.353Z" transform="translate(-59.042 -325.612)" fill="#12263f"/>
        <path id="Trazado_991696" data-name="Trazado 991696" d="M121.6,328.395H120.03a.7.7,0,0,1-.7-.7v-.564a2.6,2.6,0,0,1,2.594-2.594h1.567a.705.705,0,0,1,.7.7v.564A2.6,2.6,0,0,1,121.6,328.395Zm-1.265-1.006H121.6a1.59,1.59,0,0,0,1.588-1.588v-.263H121.92a1.59,1.59,0,0,0-1.588,1.588Z" transform="translate(-113.444 -302.767)" fill="#12263f"/>
        <path id="Trazado_991697" data-name="Trazado 991697" d="M197.894,353.858h-7.917a.5.5,0,0,1-.5-.519,4.445,4.445,0,0,1,4.461-4.32l.048.5-.006.5h-.033a3.444,3.444,0,0,0-3.41,2.827h6.8a3.427,3.427,0,0,0-1.086-1.938.5.5,0,1,1,.674-.747,4.427,4.427,0,0,1,1.473,3.172.5.5,0,0,1-.5.519Z" transform="translate(-178.887 -325.612)" fill="#12263f"/>
        <path id="Trazado_991698" data-name="Trazado 991698" d="M250.771,328.395H249.2a.7.7,0,0,1-.7-.7v-.564a2.6,2.6,0,0,1,2.594-2.594h1.567a.7.7,0,0,1,.7.7v.564a2.594,2.594,0,0,1-2.594,2.594Zm-1.265-1.006h1.265a1.588,1.588,0,0,0,1.588-1.588v-.263h-1.265a1.59,1.59,0,0,0-1.588,1.588Z" transform="translate(-233.955 -302.767)" fill="#12263f"/>
        <path id="Trazado_991699" data-name="Trazado 991699" d="M319.151,353.858h-.016a.5.5,0,0,1-.487-.519,4.445,4.445,0,0,1,4.461-4.32l.049.5-.006.5h-.031a3.445,3.445,0,0,0-3.467,3.346A.5.5,0,0,1,319.151,353.858Z" transform="translate(-299.398 -325.612)" fill="#12263f"/>
        <path id="Trazado_991700" data-name="Trazado 991700" d="M418.958,367.529a.5.5,0,0,1-.5-.423,3.469,3.469,0,0,0-1.1-2.015.5.5,0,1,1,.674-.747,4.478,4.478,0,0,1,1.42,2.6.5.5,0,0,1-.5.583Z" transform="translate(-391.337 -339.788)" fill="#12263f"/>
        <path id="Trazado_991701" data-name="Trazado 991701" d="M379.946,328.395h-1.567a.705.705,0,0,1-.7-.7v-.564a2.6,2.6,0,0,1,2.594-2.594h1.567a.705.705,0,0,1,.7.7v.564a2.594,2.594,0,0,1-2.594,2.594Zm-1.265-1.006h1.265a1.588,1.588,0,0,0,1.588-1.588v-.263h-1.265a1.59,1.59,0,0,0-1.588,1.588Z" transform="translate(-354.466 -302.767)" fill="#12263f"/>
        <path id="Trazado_991702" data-name="Trazado 991702" d="M324.468,143.846H323.5a.5.5,0,0,1,0-1.006h.968a1.485,1.485,0,1,0,0-2.97h-.829a.5.5,0,0,1,0-1.006h.829a2.491,2.491,0,1,1,0,4.982Z" transform="translate(-303.456 -129.551)" fill="#12263f"/>
        <path id="Trazado_991703" data-name="Trazado 991703" d="M133.376,143.846h-.968a2.491,2.491,0,1,1,0-4.982h.83a.5.5,0,0,1,0,1.006h-.83a1.485,1.485,0,1,0,0,2.97h.968a.5.5,0,0,1,0,1.006Z" transform="translate(-123.324 -129.551)" fill="#12263f"/>
        <g id="Grupo_1176813" data-name="Grupo 1176813" transform="translate(9.362 7.221)">
          <path id="Trazado_991704" data-name="Trazado 991704" d="M174.3,107.67h5.186a3.1,3.1,0,0,1,3.094,3.094v2.1a5.687,5.687,0,0,1-11.373,0v-2.1A3.1,3.1,0,0,1,174.3,107.67Zm2.593,9.871a4.686,4.686,0,0,0,4.681-4.681v-2.1a2.09,2.09,0,0,0-2.088-2.088H174.3a2.09,2.09,0,0,0-2.088,2.088v2.1A4.686,4.686,0,0,0,176.9,117.541Z" transform="translate(-171.209 -107.67)" fill="#12263f"/>
        </g>
        <g id="Grupo_1176815" data-name="Grupo 1176815" transform="translate(12.131 9.453)">
          <g id="Grupo_1176814" data-name="Grupo 1176814">
            <path id="Línea_3224" data-name="Línea 3224" d="M-7-5.7a.5.5,0,0,1-.5-.5V-7A.5.5,0,0,1-7-7.5a.5.5,0,0,1,.5.5v.792A.5.5,0,0,1-7-5.7Z" transform="translate(7.5 7.5)" fill="#12263f"/>
            <path id="Línea_3225" data-name="Línea 3225" d="M-7-5.7a.5.5,0,0,1-.5-.5V-7A.5.5,0,0,1-7-7.5a.5.5,0,0,1,.5.5v.792A.5.5,0,0,1-7-5.7Z" transform="translate(12.329 7.5)" fill="#12263f"/>
          </g>
          <path id="Trazado_991705" data-name="Trazado 991705" d="M238.669,156.34a.5.5,0,0,1-.327-.121l-.557-.477a1.037,1.037,0,0,1-.058-1.52l.259-.259a.61.61,0,0,0,.18-.434.5.5,0,0,1,1.006,0,1.61,1.61,0,0,1-.475,1.146l-.259.259.558.522a.5.5,0,0,1-.328.885Z" transform="translate(-235.752 -152.216)" fill="#12263f"/>
          <path id="Trazado_991706" data-name="Trazado 991706" d="M226.865,210.387a2.736,2.736,0,0,1-1.947-.807.5.5,0,1,1,.711-.711,1.746,1.746,0,0,0,2.471,0,.5.5,0,1,1,.711.711A2.736,2.736,0,0,1,226.865,210.387Z" transform="translate(-223.948 -204.176)" fill="#12263f"/>
        </g>
        <path id="Línea_3226" data-name="Línea 3226" d="M16.256-6.494H-7A.5.5,0,0,1-7.5-7,.5.5,0,0,1-7-7.5H16.256a.5.5,0,0,1,.5.5A.5.5,0,0,1,16.256-6.494Z" transform="translate(10.419 40.832)" fill="#12263f"/>
        <g id="Grupo_1176817" data-name="Grupo 1176817" transform="translate(5.99 29.221)">
          <path id="Línea_3227" data-name="Línea 3227" d="M-4.543-6.494H-7A.5.5,0,0,1-7.5-7,.5.5,0,0,1-7-7.5h2.454a.5.5,0,0,1,.5.5A.5.5,0,0,1-4.543-6.494Z" transform="translate(7.5 9.631)" fill="#12263f"/>
          <path id="Línea_3228" data-name="Línea 3228" d="M-3.237-6.494H-7A.5.5,0,0,1-7.5-7,.5.5,0,0,1-7-7.5h3.76a.5.5,0,0,1,.5.5A.5.5,0,0,1-3.237-6.494Z" transform="translate(20.851 9.631)" fill="#12263f"/>
          <g id="Grupo_1176816" data-name="Grupo 1176816" transform="translate(1.458)">
            <path id="Línea_3229" data-name="Línea 3229" d="M-2.566-6.494H-7A.5.5,0,0,1-7.5-7,.5.5,0,0,1-7-7.5h4.431a.5.5,0,0,1,.5.5A.5.5,0,0,1-2.566-6.494Z" transform="translate(7.5 7.5)" fill="#12263f"/>
            <path id="Línea_3230" data-name="Línea 3230" d="M-.987-6.494H-7A.5.5,0,0,1-7.5-7,.5.5,0,0,1-7-7.5h6.01a.5.5,0,0,1,.5.5A.5.5,0,0,1-.987-6.494Z" transform="translate(16.146 7.5)" fill="#12263f"/>
          </g>
        </g>
        <g id="Grupo_1176818" data-name="Grupo 1176818" transform="translate(0 26.735)">
          <path id="Trazado_991707" data-name="Trazado 991707" d="M33.732,398.641h1.309A1.423,1.423,0,0,1,36.467,400a1.463,1.463,0,0,0,0,1.641,1.4,1.4,0,0,0,0,1.6,1.463,1.463,0,0,0,0,1.641,1.423,1.423,0,0,1-1.426,1.359H33.732a2.116,2.116,0,0,1-2.113-2.113v-3.376A2.116,2.116,0,0,1,33.732,398.641Zm1.309,6.6a.411.411,0,0,0,.42-.382.391.391,0,0,0-.218-.363.5.5,0,0,1,0-.9.392.392,0,0,0,0-.7.5.5,0,0,1,0-.9.392.392,0,0,0,0-.7.5.5,0,0,1,0-.9.391.391,0,0,0,.217-.363.411.411,0,0,0-.42-.382H33.732a1.109,1.109,0,0,0-1.107,1.107v3.376a1.109,1.109,0,0,0,1.107,1.107Z" transform="translate(-31.619 -398.641)" fill="#12263f"/>
          <path id="Trazado_991708" data-name="Trazado 991708" d="M409.512,398.641h1.309a2.116,2.116,0,0,1,2.113,2.113v3.376a2.116,2.116,0,0,1-2.113,2.113h-1.309a1.423,1.423,0,0,1-1.426-1.359,1.463,1.463,0,0,0,0-1.641,1.4,1.4,0,0,0,0-1.6,1.463,1.463,0,0,0,0-1.641A1.423,1.423,0,0,1,409.512,398.641Zm1.309,6.6a1.109,1.109,0,0,0,1.107-1.107v-3.376a1.109,1.109,0,0,0-1.107-1.107h-1.309a.411.411,0,0,0-.42.382.391.391,0,0,0,.217.363.5.5,0,0,1,0,.9.392.392,0,0,0,0,.7.5.5,0,0,1,0,.9.392.392,0,0,0,0,.7.5.5,0,0,1,0,.9.391.391,0,0,0-.217.363.411.411,0,0,0,.42.382Z" transform="translate(-382.837 -398.641)" fill="#12263f"/>
        </g>
        <path id="Línea_3231" data-name="Línea 3231" d="M-5.212-6.494H-7A.5.5,0,0,1-7.5-7,.5.5,0,0,1-7-7.5h1.785a.5.5,0,0,1,.5.5A.5.5,0,0,1-5.212-6.494Z" transform="translate(31.056 34.741)" fill="#12263f"/>
        <path id="Línea_3232" data-name="Línea 3232" d="M10.463-6.494H-7A.5.5,0,0,1-7.5-7,.5.5,0,0,1-7-7.5h17.46a.5.5,0,0,1,.5.5A.5.5,0,0,1,10.463-6.494Z" transform="translate(11.249 34.741)" fill="#12263f"/>
      </g>
    </g>
  </g>
</svg>
