<svg xmlns="http://www.w3.org/2000/svg" width="36.483" height="37.014" viewBox="0 0 36.483 37.014">
  <g id="Grupo_1176979" data-name="Grupo 1176979" transform="translate(-290.766 -1770.25)">
    <path id="Trazado_994464" data-name="Trazado 994464" d="M51.285,34.3A4.039,4.039,0,0,0,48.43,41.2a1.2,1.2,0,0,1,0,1.695l-2.58,2.58a1.2,1.2,0,0,1-1.695,0,4.039,4.039,0,0,0-6.892,2.855,1.2,1.2,0,0,1-1.2,1.2H32.417a1.2,1.2,0,0,1-1.2-1.2,4.037,4.037,0,0,0-6.892-2.855,1.2,1.2,0,0,1-1.695,0l-2.579-2.58a1.2,1.2,0,0,1,0-1.695A4.039,4.039,0,0,0,17.2,34.3a1.2,1.2,0,0,1-1.2-1.2V31.662a.381.381,0,0,1,.38-.38h9.1a8.765,8.765,0,0,0,17.529,0h9.1a.381.381,0,0,1,.38.38v1.444a1.2,1.2,0,0,1-1.2,1.2ZM20.017,30.218a7.378,7.378,0,0,1,2.61-1.033v-2.2a5.023,5.023,0,0,1-2.208-.914A3.943,3.943,0,0,1,19.2,23.117a.53.53,0,0,1,.524-.524,4.1,4.1,0,0,1,2.9,1.155V22.286a5.024,5.024,0,0,1-2.208-.914A3.943,3.943,0,0,1,19.2,18.416a.53.53,0,0,1,.524-.524,4.1,4.1,0,0,1,2.9,1.155v-1.03a4.351,4.351,0,0,1-.9-2.066,3.508,3.508,0,0,1,1.056-2.53.531.531,0,0,1,.741,0,3.41,3.41,0,0,1,1.057,2.539,4.632,4.632,0,0,1-.894,2.062v1.028a4.1,4.1,0,0,1,2.9-1.156.53.53,0,0,1,.524.524A3.943,3.943,0,0,1,25.9,21.372a5.022,5.022,0,0,1-2.21.914V23.75a4.1,4.1,0,0,1,2.9-1.156.53.53,0,0,1,.524.524A3.943,3.943,0,0,1,25.9,26.073a5.022,5.022,0,0,1-2.21.914v2.091a14.018,14.018,0,0,1,3.99.665A13.048,13.048,0,0,1,33.709,28.2V26.227a5.022,5.022,0,0,1-2.208-.914,3.943,3.943,0,0,1-1.216-2.956.53.53,0,0,1,.524-.524,4.1,4.1,0,0,1,2.9,1.155V21.526a5.022,5.022,0,0,1-2.208-.914,3.943,3.943,0,0,1-1.216-2.956.53.53,0,0,1,.524-.524,4.1,4.1,0,0,1,2.9,1.155v-1.03a4.35,4.35,0,0,1-.9-2.066,3.5,3.5,0,0,1,1.056-2.53.531.531,0,0,1,.741,0A3.41,3.41,0,0,1,35.667,15.2a4.631,4.631,0,0,1-.894,2.062v1.028a4.1,4.1,0,0,1,2.9-1.156.53.53,0,0,1,.524.524,3.943,3.943,0,0,1-1.216,2.956,5.021,5.021,0,0,1-2.21.914V22.99a4.1,4.1,0,0,1,2.9-1.156.53.53,0,0,1,.524.524,3.943,3.943,0,0,1-1.216,2.956,5.021,5.021,0,0,1-2.21.914V28.2a11.762,11.762,0,0,1,5.678,1.545,13.844,13.844,0,0,1,4.339-.656v-2.1a5.021,5.021,0,0,1-2.208-.914,3.943,3.943,0,0,1-1.216-2.956.53.53,0,0,1,.524-.524,4.1,4.1,0,0,1,2.9,1.155V22.286a5.022,5.022,0,0,1-2.208-.914,3.943,3.943,0,0,1-1.216-2.956.53.53,0,0,1,.524-.524,4.1,4.1,0,0,1,2.9,1.155v-1.03a4.351,4.351,0,0,1-.9-2.066,3.5,3.5,0,0,1,1.056-2.53.531.531,0,0,1,.741,0,3.41,3.41,0,0,1,1.057,2.539,4.632,4.632,0,0,1-.894,2.062v1.028a4.1,4.1,0,0,1,2.9-1.156.53.53,0,0,1,.524.524,3.943,3.943,0,0,1-1.216,2.956,5.022,5.022,0,0,1-2.21.914V23.75a4.1,4.1,0,0,1,2.9-1.156.53.53,0,0,1,.524.524,3.943,3.943,0,0,1-1.216,2.956,5.022,5.022,0,0,1-2.21.914v2.231a7.869,7.869,0,0,1,2.545,1Zm7.958,3.787H40.508a.532.532,0,1,0,0-1.064H27.975a.532.532,0,0,0,0,1.064Zm5.348,4.382H35.16a.532.532,0,0,0,0-1.064H33.323a.532.532,0,0,0,0,1.064ZM29.257,36.2h9.969a.532.532,0,1,0,0-1.064H29.257a.532.532,0,0,0,0,1.064Z" transform="translate(274.766 1757.74)" fill="#12263f" fill-rule="evenodd"/>
  </g>
</svg>
