<svg xmlns="http://www.w3.org/2000/svg" width="46.904" height="40.956" viewBox="0 0 46.904 40.956">
  <g id="Grupo_1176978" data-name="Grupo 1176978" transform="translate(-286.059 -1769)">
    <g id="Grupo_1176976" data-name="Grupo 1176976" transform="translate(286.059 1764.9)">
      <path id="Trazado_993478" data-name="Trazado 993478" d="M21.362,8.944a11.535,11.535,0,0,0,2.716,3.523A6.509,6.509,0,0,0,28.7,14.155a12.873,12.873,0,0,0,2.789-.367v8.294a3.991,3.991,0,0,0-1.321,0,4.057,4.057,0,0,0-3.3,3.523c0,.22-.22.44-.44.587a.667.667,0,0,1-.734,0,3.477,3.477,0,0,0-2.789-.367c-1.395.367-1.908.881-2.129,1.468h.44a6.344,6.344,0,0,1,4.4,1.688l.073.073a5.325,5.325,0,0,0,3.6,1.541H38.1a3.5,3.5,0,0,1,2.5,1.028,3.368,3.368,0,0,1,.954,1.982l3.376-1.982-1.1-2.2a3.1,3.1,0,0,0-4.037-2.055.84.84,0,0,1-.954-.44c-.661-1.688-1.615-2.716-3.963-2.275a.7.7,0,0,1-.807-.367,4.714,4.714,0,0,0-1.174-1.468V15.55a9.882,9.882,0,0,0,2.789.367A6.765,6.765,0,0,0,40.3,14.229a10,10,0,0,0,2.642-3.523A8.776,8.776,0,0,1,45.363,7.7a.942.942,0,0,0,.294-.734.711.711,0,0,0-.514-.587,15.271,15.271,0,0,0-3.963-.587,9.025,9.025,0,0,0-4.771,1.174,9.966,9.966,0,0,0-3.817,4.257,11.153,11.153,0,0,0-4.551-5.945A9.765,9.765,0,0,0,23.27,4.1a11.875,11.875,0,0,0-3.963.587.623.623,0,0,0-.514.587.7.7,0,0,0,.294.734,8.367,8.367,0,0,1,2.275,2.936Z" transform="translate(-4.994)" fill="#12263f"/>
      <path id="Trazado_993479" data-name="Trazado 993479" d="M8.221,37.4H0V53.914H8.221a.815.815,0,0,0,.807-.807v-14.9a.815.815,0,0,0-.807-.807Z" transform="translate(0 -8.859)" fill="#12263f"/>
      <path id="Trazado_993480" data-name="Trazado 993480" d="M50.485,40.409a2.539,2.539,0,0,0-3.083-.44L40.136,44.3a3.394,3.394,0,0,1-3.156,1.982H26.631a.807.807,0,1,1,0-1.615H36.98a1.962,1.962,0,0,0,1.835-1.321,2.032,2.032,0,0,0,.073-.661A2.005,2.005,0,0,0,36.906,40.7H28.1a6.862,6.862,0,0,1-4.7-1.908l-.147-.147a4.861,4.861,0,0,0-3.3-1.248H18.117a4.791,4.791,0,0,0-2.129.44,11.908,11.908,0,0,0-1.395.954c-.073.073-.22.147-.294.294V50.171a14.852,14.852,0,0,1,1.908.294l11.083,3.083a5.627,5.627,0,0,0,4.184-.734L50.118,41.73A1.061,1.061,0,0,0,50.632,41c.147,0,.073-.294-.147-.587Z" transform="translate(-3.804 -8.859)" fill="#12263f"/>
    </g>
  </g>
</svg>
