<svg xmlns="http://www.w3.org/2000/svg" xmlns:xlink="http://www.w3.org/1999/xlink" width="96" height="96" viewBox="0 0 96 96">
  <defs>
    <clipPath id="clip-path">
      <rect id="Rectángulo_454588" data-name="Rectángulo 454588" width="88" height="88" transform="translate(745.746 9172)" fill="#fff" stroke="#707070" stroke-width="1"/>
    </clipPath>
  </defs>
  <g id="Grupo_1177376" data-name="Grupo 1177376" transform="translate(-741.746 -9168)">
    <path id="Elipse_5729" data-name="Elipse 5729" d="M48,0A48,48,0,1,1,0,48,48,48,0,0,1,48,0Z" transform="translate(741.746 9168)" fill="#02614b"/>
    <g id="Enmascarar_grupo_1119168" data-name="Enmascarar grupo 1119168" clip-path="url(#clip-path)">
      <g id="panel-solar" transform="translate(745.746 9172)">
        <g id="Grupo_1177429" data-name="Grupo 1177429">
          <path id="Trazado_994950" data-name="Trazado 994950" d="M35.884,76.548V86.711h7.823l1.72-11.842Z" fill="#87a0af"/>
          <path id="Trazado_994951" data-name="Trazado 994951" d="M41.514,71.391l-5.63,1.719v3.438h7.823V86.711h3.438V73.11Z" fill="#738c96"/>
          <path id="Trazado_994952" data-name="Trazado 994952" d="M52.094,1.289H27.085a14.312,14.312,0,0,0,2.653,8.339c3.228,3.287,6.131,4.466,9.239,4.466C45.762,14.094,53.535,9.655,52.094,1.289Z" fill="#f8e837"/>
          <path id="Trazado_994953" data-name="Trazado 994953" d="M55.947,1.289H52.094a14.436,14.436,0,0,1-14.017,11,14.363,14.363,0,0,1-8.339-2.655,14.412,14.412,0,0,0,11.777,6.093A14.432,14.432,0,0,0,55.947,1.289Z" fill="#ecc52e"/>
          <path id="Trazado_994954" data-name="Trazado 994954" d="M77.533,70.1l-1.719-4.82H3.777V70.36l72.466,1.031A1.289,1.289,0,0,0,77.533,70.1Z" fill="#738c96"/>
          <path id="Trazado_994955" data-name="Trazado 994955" d="M75.814,65.282v3.789a1.289,1.289,0,0,1-1.289,1.289H3.777v.172A2.578,2.578,0,0,0,6.355,73.11H76.673a2.578,2.578,0,0,0,2.578-2.578v-5.25Z" fill="#607882"/>
          <path id="Trazado_994956" data-name="Trazado 994956" d="M77.962,65.879c-8.816-33.323-12.4-35.669-12.4-35.669H17.024a2.578,2.578,0,0,0-2.45,1.774L3.926,64.43S7.918,67.254,77.962,65.879Z" fill="#9bb9c3"/>
          <path id="Trazado_994957" data-name="Trazado 994957" d="M79.121,64.485l-10.667-32.5A2.578,2.578,0,0,0,66,30.209H64.7L75.379,62.739a1.289,1.289,0,0,1-1.225,1.691H3.926l-.018.056a2.578,2.578,0,0,0,2.45,3.382H76.671A2.578,2.578,0,0,0,79.121,64.485Z" fill="#87a0af"/>
          <path id="Trazado_994958" data-name="Trazado 994958" d="M53.535,75.632l19.933,1.224,8.4-14.873L70.98,45.461l-13.972,0a2.578,2.578,0,0,0-2.233,1.289L46.563,60.977a2.578,2.578,0,0,0,0,2.578Z" fill="#c9eb74"/>
          <path id="Trazado_994959" data-name="Trazado 994959" d="M83.88,60.977,75.667,46.752A2.577,2.577,0,0,0,73.5,45.465c-.023-.011-2.543-.036-2.543-.036l.019.031,9.207,16.207a1.289,1.289,0,0,1,0,1.281l-6.95,12.038a1.289,1.289,0,0,1-1.116.645H53.535l1.241,2.15a2.578,2.578,0,0,0,2.233,1.289H73.434a2.578,2.578,0,0,0,2.233-1.289L83.88,63.555a2.577,2.577,0,0,0,0-2.578Z" fill="#acd980"/>
          <path id="Trazado_994960" data-name="Trazado 994960" d="M74.175,61.406H68.122L69.9,53.954a.6.6,0,0,0-1.057-.513L59.234,65.588a.6.6,0,0,0,.472.975h6.053l-1.781,7.452a.6.6,0,0,0,1.057.513l9.612-12.147A.6.6,0,0,0,74.175,61.406Z" fill="#9cd169"/>
          <path id="Trazado_994961" data-name="Trazado 994961" d="M70,59.688H66.4l-1.25-5.47-6.777,8.564,5.664,2.062-.815,3.412,4.8-3.412Z" fill="#f8e837"/>
          <g id="Grupo_1177428" data-name="Grupo 1177428">
            <path id="Trazado_994962" data-name="Trazado 994962" d="M65.475,59.686l.928,0,1.781-7.453a.6.6,0,0,0-1.057-.513l-1.975,2.5L64.223,58.1A1.289,1.289,0,0,0,65.475,59.686Z" fill="#ecc52e"/>
            <path id="Trazado_994963" data-name="Trazado 994963" d="M62.9,62.781H58.376l-.861,1.088a.6.6,0,0,0,.472.975H64.04l.113-.474A1.289,1.289,0,0,0,62.9,62.781Z" fill="#ecc52e"/>
            <path id="Trazado_994964" data-name="Trazado 994964" d="M72.456,59.688H70l-6.78,8.568L62.259,72.3a.6.6,0,0,0,1.057.513l9.612-12.147A.6.6,0,0,0,72.456,59.688Z" fill="#ecc52e"/>
          </g>
        </g>
        <g id="Grupo_1177430" data-name="Grupo 1177430">
          <path id="Trazado_994965" data-name="Trazado 994965" d="M85,60.332,76.783,46.107a3.878,3.878,0,0,0-2.965-1.912L69.679,31.582A3.86,3.86,0,0,0,66,28.921H42.8v-7.7a1.289,1.289,0,0,0-2.578,0v7.7h-23.2a3.86,3.86,0,0,0-3.674,2.661L2.683,64.084A3.865,3.865,0,0,0,2.52,65.8c-.02.091-.032,4.734-.032,4.734A3.871,3.871,0,0,0,6.355,74.4H34.6V85.422H29.344a1.289,1.289,0,1,0,0,2.578h33.3a3.871,3.871,0,0,0,3.867-3.867V80.358h6.924a3.878,3.878,0,0,0,3.349-1.934l2.736-4.739A1.289,1.289,0,0,0,77.287,72.4l-2.736,4.739a1.293,1.293,0,0,1-1.116.645H57.009a1.293,1.293,0,0,1-1.117-.645L47.679,62.911a1.293,1.293,0,0,1,0-1.289L55.892,47.4a1.293,1.293,0,0,1,1.117-.645H73.434a1.293,1.293,0,0,1,1.116.645l8.213,14.225a1.293,1.293,0,0,1,0,1.289l-2.677,4.636a1.289,1.289,0,1,0,2.233,1.289L85,64.2A3.878,3.878,0,0,0,85,60.332ZM67.229,32.386,71.1,44.173H58.291l-.937-5.71H65a1.289,1.289,0,0,0,0-2.578H56.931l-.72-4.387H66a1.287,1.287,0,0,1,1.225.887ZM48.986,54.2H42.8V46.752H53.287Zm-3.54,10,1.374,2.379H42.8v-9.8H47.5l-2.052,3.554A3.878,3.878,0,0,0,45.446,64.2ZM23.674,66.579l3.254-19.827h13.3V54.2H29.344a1.289,1.289,0,1,0,0,2.578H40.225v9.8ZM11.085,46.752h13.23L23.092,54.2H8.64Zm2.72-8.288h11.87l-.937,5.71H11.931ZM40.225,31.5v4.387H28.711l.72-4.387Zm13.373,0,.72,4.387H42.8V31.5Zm2.08,12.675H42.8v-5.71H54.741Zm-15.453-5.71v5.71H27.35l.937-5.71ZM17.024,31.5h9.794l-.72,4.387H14.651l1.149-3.5a1.286,1.286,0,0,1,1.225-.887ZM5.066,70.532V68.938a3.9,3.9,0,0,0,1.291.219h5.5a1.289,1.289,0,1,0,0-2.578h-5.5a1.289,1.289,0,0,1-1.225-1.691l2.661-8.109H22.669l-1.608,9.8H17.01a1.289,1.289,0,1,0,0,2.578h31.3l1.538,2.664H6.355A1.29,1.29,0,0,1,5.066,70.532ZM37.173,74.4h8.683V85.422H37.173Zm19.835,5.959h6.924v3.775a1.29,1.29,0,0,1-1.289,1.289H48.434V74.4h2.9l2.324,4.025A3.878,3.878,0,0,0,57.008,80.358Z"/>
          <path id="Trazado_994966" data-name="Trazado 994966" d="M62.018,74.137a1.9,1.9,0,0,0,.831.193,1.88,1.88,0,0,0,1.477-.72l9.612-12.147A1.891,1.891,0,0,0,72.456,58.4H68.036l1.4-5.864a1.891,1.891,0,0,0-3.321-1.613L56.5,63.069a1.891,1.891,0,0,0,1.483,3.064h4.419L61,72A1.879,1.879,0,0,0,62.018,74.137Zm-2.61-10.582,6.8-8.592-1.058,4.426A1.289,1.289,0,0,0,66.4,60.977h4.632l-6.8,8.593,1.058-4.426a1.289,1.289,0,0,0-1.254-1.589H59.408Z"/>
          <path id="Trazado_994967" data-name="Trazado 994967" d="M41.514,17.011A15.739,15.739,0,0,0,57.236,1.289a1.289,1.289,0,0,0-2.578,0,13.143,13.143,0,0,1-26.287,0,1.289,1.289,0,0,0-2.578,0A15.739,15.739,0,0,0,41.514,17.011Z"/>
          <path id="Trazado_994968" data-name="Trazado 994968" d="M26.508,14.472,16.7,24.278A1.289,1.289,0,1,0,18.525,26.1l9.806-9.806a1.289,1.289,0,1,0-1.823-1.823Z"/>
          <path id="Trazado_994969" data-name="Trazado 994969" d="M3.778,18a1.285,1.285,0,0,0,.488-.1l18.778-7.69a1.289,1.289,0,1,0-.977-2.386L3.289,15.519A1.289,1.289,0,0,0,3.778,18Z"/>
          <path id="Trazado_994970" data-name="Trazado 994970" d="M32.853,18.935l-2.228,5.42a1.289,1.289,0,1,0,2.384.98l2.228-5.42a1.289,1.289,0,1,0-2.384-.98Z"/>
          <path id="Trazado_994971" data-name="Trazado 994971" d="M54.7,14.472a1.289,1.289,0,0,0,0,1.823L64.5,26.1a1.289,1.289,0,0,0,1.823-1.823L56.52,14.472a1.289,1.289,0,0,0-1.823,0Z"/>
          <path id="Trazado_994972" data-name="Trazado 994972" d="M59.985,10.214,78.763,17.9a1.289,1.289,0,0,0,.977-2.386L60.962,7.828a1.289,1.289,0,1,0-.977,2.386Z"/>
          <path id="Trazado_994973" data-name="Trazado 994973" d="M48.494,18.233a1.289,1.289,0,0,0-.7,1.682l2.228,5.42a1.289,1.289,0,1,0,2.384-.98l-2.228-5.42a1.289,1.289,0,0,0-1.682-.7Z"/>
        </g>
      </g>
    </g>
  </g>
</svg>
