<svg xmlns="http://www.w3.org/2000/svg" xmlns:xlink="http://www.w3.org/1999/xlink" width="96" height="96" viewBox="0 0 96 96">
  <defs>
    <clipPath id="clip-path">
      <rect id="Rectángulo_454588" data-name="Rectángulo 454588" width="88" height="88" transform="translate(745.746 9172)" fill="#fff" stroke="#707070" stroke-width="1"/>
    </clipPath>
  </defs>
  <g id="Grupo_1177378" data-name="Grupo 1177378" transform="translate(-741.746 -9168)">
    <path id="Elipse_5729" data-name="Elipse 5729" d="M48,0A48,48,0,1,1,0,48,48,48,0,0,1,48,0Z" transform="translate(741.746 9168)" fill="#02614b"/>
    <g id="Enmascarar_grupo_1119169" data-name="Enmascarar grupo 1119169" clip-path="url(#clip-path)">
      <g id="agricultura" transform="translate(745.747 9180.716)">
        <g id="Grupo_1177432" data-name="Grupo 1177432">
          <path id="Trazado_994974" data-name="Trazado 994974" d="M87.3.87A82.59,82.59,0,0,0,61.078,3.187,56.466,56.466,0,0,0,44,10.88l0,0c-.089,3.023,1.949,4.531,5.936,4.655L55.7,15.7c1.806,1.989,3.151,2.322,3.756,0h9.036c2.344,2.626,4.67,2.665,6.979,0L87.3,15.549l.127,0C87.362,6.973,87.3.87,87.3.87Z" fill="#89a25b"/>
          <path id="Trazado_994975" data-name="Trazado 994975" d="M49.935,15.537A53.1,53.1,0,0,0,44,10.882,56.4,56.4,0,0,0,26.922,3.187,82.59,82.59,0,0,0,.7.87V15.549l11.829.148c1.631,2.023,4.239,1.2,6.979,0h9.036c1.205,1.664,2.46,1.549,3.756,0h5.764l.5,2.387c3.768,9.875,7.6,9.761,11.375-.1V15.7C50.067,15.639,50.014,15.588,49.935,15.537Z" fill="#a8b875"/>
          <path id="Trazado_994976" data-name="Trazado 994976" d="M87.493,24.435C87.447,14.4,82.979,12.316,75.472,15.7H68.493c3.2,24.157,8.585,36.056,19.061,19.246-.017-3.56-.038-7.113-.061-10.509Z" fill="#7f5d46"/>
          <path id="Trazado_994977" data-name="Trazado 994977" d="M59.457,15.7H55.7c-12.843,17.556-1.19,39.165,14.16,54.172H87.3C80.484,45.641,72.748,23.713,59.457,15.7Z" fill="#7f5d46"/>
          <path id="Trazado_994978" data-name="Trazado 994978" d="M49.655,15.7A5.655,5.655,0,0,0,44,21.353,5.655,5.655,0,0,0,38.345,15.7h-.283C27.8,33.393,32.278,51.569,40.6,69.87H47.4C58.163,55.2,61.336,37.942,49.938,15.7Z" fill="#7f5d46"/>
          <path id="Trazado_994979" data-name="Trazado 994979" d="M28.542,15.7C15.9,28.431,7.556,47.978.7,69.87H18.138c15.929-17.875,25-35.862,14.16-54.172Z" fill="#7f5d46"/>
          <path id="Trazado_994980" data-name="Trazado 994980" d="M12.528,15.7C7.434,15.65,3.645,18.958.7,24.436V34.946C10.783,34.941,16.3,27.267,19.507,15.7Z" fill="#7f5d46"/>
          <path id="Trazado_994981" data-name="Trazado 994981" d="M27.668,12.193a3.072,3.072,0,0,1,.875,3.5,5,5,0,0,1-.683,1.388,5.07,5.07,0,0,1-.534.641,7.356,7.356,0,0,1-1.18,6.478,8.371,8.371,0,0,1-2.212,2.174,11.117,11.117,0,0,1-2,8.807A12.774,12.774,0,0,1,19.5,37.8a10.467,10.467,0,0,1-3.324,8.086,10.785,10.785,0,0,1-3.056,2.038,6.165,6.165,0,0,1-4.3,6.771,6.166,6.166,0,0,1-3.74,7.8,6.135,6.135,0,0,1-.59,4.341A5.947,5.947,0,0,1,.7,69.87V34.946a10.844,10.844,0,0,1,7.164-5.69,12.883,12.883,0,0,1,1.516-2.867,11.589,11.589,0,0,1,6.364-4.658,8.144,8.144,0,0,1,1.458-3.8A8.33,8.33,0,0,1,19.507,15.7a6.63,6.63,0,0,1,2.975-1.063A5,5,0,0,1,23,13.683c1.234-1.762,3.323-2.429,4.664-1.489Z" fill="#53b79a"/>
          <path id="Trazado_994982" data-name="Trazado 994982" d="M55.7,15.7a4.267,4.267,0,0,1-.6,2.074,4.619,4.619,0,0,1,2.216,4,4.777,4.777,0,0,1-.534,2.209,6.664,6.664,0,0,1,1.875,4.733,6.984,6.984,0,0,1-.719,3.12,8.52,8.52,0,0,1,3.771,7.312,9.356,9.356,0,0,1-.859,3.956,10.737,10.737,0,0,1,3.592,8.229,11.716,11.716,0,0,1-.494,3.387c2.937,1.428,4.88,3.9,4.88,6.708a6.331,6.331,0,0,1-1.016,3.4c1.531.98,2.444,2.207,2.444,3.543a3.128,3.128,0,0,1-.393,1.495H47.4A3.148,3.148,0,0,1,47,68.375a3.994,3.994,0,0,1,1.737-3.036,6.472,6.472,0,0,1-1.365-3.908,6.56,6.56,0,0,1,1.6-4.208,11.336,11.336,0,0,1-1.6-5.888A11.179,11.179,0,0,1,49.481,44.7a9.314,9.314,0,0,1,.274-11.431,6.964,6.964,0,0,1-.192-8.88,4.768,4.768,0,0,1-.768-2.612,4.648,4.648,0,0,1,1.887-3.789,4.2,4.2,0,0,1-.744-2.289c0-.054,0-.107,0-.161,0-2.02,1.292-3.656,2.884-3.656s2.886,1.636,2.886,3.656c0,.054,0,.108,0,.161Z" fill="#53b79a"/>
          <path id="Trazado_994983" data-name="Trazado 994983" d="M87.493,24.435l-.192,0c-2.219,1.336-5.673.175-7.934-2.748a8.925,8.925,0,0,1-1.837-4.227A4.7,4.7,0,0,1,75.472,15.7c-.031-.047-.063-.094-.093-.143-1.142-1.846-.976-4.018.372-4.852,1.323-.819,3.29-.042,4.442,1.734,2.186-.672,5.111.533,7.108,3.113l.127,0C87.45,18.3,87.472,21.3,87.493,24.435Z" fill="#53b79a"/>
          <path id="Trazado_994984" data-name="Trazado 994984" d="M87.554,34.944c.089,17.39.093,34.926-.253,34.926-1.657,0-2.932-1.46-3.785-3.029a6.135,6.135,0,0,1-.59-4.341,6.166,6.166,0,0,1-3.74-7.8,6.165,6.165,0,0,1-4.3-6.771,10.785,10.785,0,0,1-3.056-2.038A10.467,10.467,0,0,1,68.5,37.8a12.774,12.774,0,0,1-2.434-2.617,11.117,11.117,0,0,1-2-8.807A8.371,8.371,0,0,1,61.855,24.2a7.356,7.356,0,0,1-1.18-6.478,5.07,5.07,0,0,1-.534-.641,5,5,0,0,1-.683-1.388,3.072,3.072,0,0,1,.875-3.5c1.341-.939,3.429-.272,4.664,1.489a5,5,0,0,1,.522.952A6.63,6.63,0,0,1,68.493,15.7,8.33,8.33,0,0,1,70.8,17.934a8.144,8.144,0,0,1,1.458,3.8,11.589,11.589,0,0,1,6.364,4.658,12.883,12.883,0,0,1,1.516,2.867,10.844,10.844,0,0,1,7.164,5.69Z" fill="#6fceae"/>
          <path id="Trazado_994985" data-name="Trazado 994985" d="M32.3,15.7c0-.052,0-.107,0-.161,0-2.02,1.292-3.656,2.886-3.656s2.884,1.636,2.884,3.656c0,.054,0,.107,0,.161a4.2,4.2,0,0,1-.744,2.289,4.648,4.648,0,0,1,1.887,3.789,4.768,4.768,0,0,1-.768,2.612,6.964,6.964,0,0,1-.192,8.88A9.314,9.314,0,0,1,38.519,44.7a11.179,11.179,0,0,1,2.106,6.637,11.336,11.336,0,0,1-1.6,5.888,6.56,6.56,0,0,1,1.6,4.208,6.472,6.472,0,0,1-1.365,3.908A3.994,3.994,0,0,1,41,68.375,3.148,3.148,0,0,1,40.6,69.87H18.138a3.128,3.128,0,0,1-.393-1.495c0-1.336.913-2.563,2.444-3.543a6.331,6.331,0,0,1-1.016-3.4c0-2.809,1.943-5.28,4.88-6.708a11.716,11.716,0,0,1-.494-3.387,10.737,10.737,0,0,1,3.592-8.229,9.356,9.356,0,0,1-.859-3.956,8.52,8.52,0,0,1,3.771-7.312,6.984,6.984,0,0,1-.719-3.12,6.664,6.664,0,0,1,1.875-4.733,4.777,4.777,0,0,1-.534-2.209,4.619,4.619,0,0,1,2.216-4,4.267,4.267,0,0,1-.6-2.074Z" fill="#6fceae"/>
          <path id="Trazado_994986" data-name="Trazado 994986" d="M12.249,10.7c1.348.835,1.514,3.007.372,4.852-.03.049-.061.1-.093.143a4.7,4.7,0,0,1-2.059,1.763,8.925,8.925,0,0,1-1.837,4.227C6.371,24.611,2.918,25.772.7,24.436V15.549c2-2.581,4.922-3.785,7.108-3.113C8.959,10.66,10.925,9.883,12.249,10.7Z" fill="#6fceae"/>
          <g id="Grupo_1177431" data-name="Grupo 1177431">
            <path id="Trazado_994987" data-name="Trazado 994987" d="M4.184,16.9a1.778,1.778,0,1,1-1.777,1.779A1.778,1.778,0,0,1,4.184,16.9Z" fill="#ffc05a"/>
            <path id="Trazado_994988" data-name="Trazado 994988" d="M84.653,54.5a2.3,2.3,0,1,1-2.3,2.3A2.3,2.3,0,0,1,84.653,54.5Z" fill="#ffc05a"/>
            <circle id="Elipse_13707" data-name="Elipse 13707" cx="1.777" cy="1.777" r="1.777" transform="translate(78.417 47.494)" fill="#ffc05a"/>
            <circle id="Elipse_13708" data-name="Elipse 13708" cx="1.777" cy="1.777" r="1.777" transform="translate(63.599 18.682)" fill="#ffc05a"/>
            <path id="Trazado_994989" data-name="Trazado 994989" d="M72.842,25.678a1.777,1.777,0,1,1-1.777,1.777A1.777,1.777,0,0,1,72.842,25.678Z" fill="#ffc05a"/>
            <path id="Trazado_994990" data-name="Trazado 994990" d="M81.253,33.94a2.3,2.3,0,1,1-2.3,2.3,2.3,2.3,0,0,1,2.3-2.3Z" fill="#ffc05a"/>
            <circle id="Elipse_13709" data-name="Elipse 13709" cx="1.777" cy="1.777" r="1.777" transform="translate(72.022 37.263)" fill="#ffc05a"/>
            <circle id="Elipse_13710" data-name="Elipse 13710" cx="1.777" cy="1.777" r="1.777" transform="translate(33.065 26.701)" fill="#ffc05a"/>
            <path id="Trazado_994991" data-name="Trazado 994991" d="M26.259,62.114a2.74,2.74,0,1,1-2.74,2.741A2.741,2.741,0,0,1,26.259,62.114Z" fill="#ffc05a"/>
            <circle id="Elipse_13711" data-name="Elipse 13711" cx="2.741" cy="2.741" r="2.741" transform="translate(31.273 51.049)" fill="#ffc05a"/>
            <path id="Trazado_994992" data-name="Trazado 994992" d="M34.774,37.767a2.1,2.1,0,1,1-2.1,2.1A2.1,2.1,0,0,1,34.774,37.767Z" fill="#ffc05a"/>
          </g>
          <path id="Trazado_994993" data-name="Trazado 994993" d="M83.816,16.9a1.778,1.778,0,1,1-1.777,1.779A1.778,1.778,0,0,1,83.816,16.9Z" fill="#e15c63"/>
          <path id="Trazado_994994" data-name="Trazado 994994" d="M61.741,62.114A2.74,2.74,0,1,1,59,64.855,2.74,2.74,0,0,1,61.741,62.114Z" fill="#e15c63"/>
          <circle id="Elipse_13712" data-name="Elipse 13712" cx="2.741" cy="2.741" r="2.741" transform="translate(51.244 51.049)" fill="#e15c63"/>
          <path id="Trazado_994995" data-name="Trazado 994995" d="M53.226,37.767a2.1,2.1,0,1,1-2.1,2.1A2.1,2.1,0,0,1,53.226,37.767Z" fill="#e15c63"/>
          <circle id="Elipse_13713" data-name="Elipse 13713" cx="1.777" cy="1.777" r="1.777" transform="translate(51.38 26.701)" fill="#e15c63"/>
          <circle id="Elipse_13714" data-name="Elipse 13714" cx="1.777" cy="1.777" r="1.777" transform="translate(20.846 18.682)" fill="#e15c63"/>
          <path id="Trazado_994996" data-name="Trazado 994996" d="M15.157,25.678a1.777,1.777,0,1,1-1.779,1.777A1.777,1.777,0,0,1,15.157,25.678Z" fill="#e15c63"/>
          <circle id="Elipse_13715" data-name="Elipse 13715" cx="1.777" cy="1.777" r="1.777" transform="translate(12.423 37.263)" fill="#e15c63"/>
          <circle id="Elipse_13716" data-name="Elipse 13716" cx="1.777" cy="1.777" r="1.777" transform="translate(6.027 47.494)" fill="#e15c63"/>
          <path id="Trazado_994997" data-name="Trazado 994997" d="M6.747,33.94a2.3,2.3,0,1,1-2.3,2.3,2.3,2.3,0,0,1,2.3-2.3Z" fill="#e15c63"/>
          <path id="Trazado_994998" data-name="Trazado 994998" d="M3.347,54.5a2.3,2.3,0,1,1-2.3,2.3,2.3,2.3,0,0,1,2.3-2.3Z" fill="#e15c63"/>
          <path id="Trazado_994999" data-name="Trazado 994999" d="M87.554,34.944l-.253,0a10.844,10.844,0,0,0-7.164-5.69,12.883,12.883,0,0,0-1.516-2.867,11.589,11.589,0,0,0-6.364-4.658,8.144,8.144,0,0,0-1.458-3.8A8.33,8.33,0,0,0,68.493,15.7h4.082a8.658,8.658,0,0,1,.669.84,8.144,8.144,0,0,1,1.458,3.8,11.589,11.589,0,0,1,6.364,4.658,12.883,12.883,0,0,1,1.516,2.867A10.668,10.668,0,0,1,87.5,30.52l.037.035c.007,1.454.016,2.923.023,4.389Z" fill="#684d3c"/>
          <path id="Trazado_995000" data-name="Trazado 995000" d="M73.4,68.375A3.128,3.128,0,0,1,73,69.87H69.862a3.128,3.128,0,0,0,.393-1.495c0-1.336-.913-2.563-2.444-3.543a6.331,6.331,0,0,0,1.016-3.4c0-2.809-1.943-5.28-4.88-6.708a11.716,11.716,0,0,0,.494-3.387,10.737,10.737,0,0,0-3.592-8.229,9.356,9.356,0,0,0,.859-3.956,8.52,8.52,0,0,0-3.771-7.312,6.984,6.984,0,0,0,.719-3.12,6.664,6.664,0,0,0-1.875-4.733,4.777,4.777,0,0,0,.534-2.209,4.619,4.619,0,0,0-2.216-4,4.267,4.267,0,0,0,.6-2.074h3.143a4.267,4.267,0,0,1-.6,2.074,4.559,4.559,0,0,1,2.125,3.059,4.924,4.924,0,0,1,.091.945,4.777,4.777,0,0,1-.534,2.209A6.664,6.664,0,0,1,61.8,28.718a6.984,6.984,0,0,1-.719,3.12,8.52,8.52,0,0,1,3.771,7.312,9.356,9.356,0,0,1-.859,3.956,10.737,10.737,0,0,1,3.592,8.229,11.716,11.716,0,0,1-.494,3.387c2.937,1.428,4.88,3.9,4.88,6.708a6.331,6.331,0,0,1-1.016,3.4c1.531.98,2.444,2.207,2.444,3.543Z" fill="#684d3c"/>
          <path id="Trazado_995001" data-name="Trazado 995001" d="M43.965,68.375a3.148,3.148,0,0,1-.393,1.495H40.6A3.148,3.148,0,0,0,41,68.375a3.994,3.994,0,0,0-1.737-3.036,6.472,6.472,0,0,0,1.365-3.908,6.56,6.56,0,0,0-1.6-4.208,11.336,11.336,0,0,0,1.6-5.888A11.179,11.179,0,0,0,38.519,44.7a9.314,9.314,0,0,0-.274-11.431,6.964,6.964,0,0,0,.192-8.88,4.768,4.768,0,0,0,.768-2.612,4.648,4.648,0,0,0-1.887-3.789,4.2,4.2,0,0,0,.744-2.289h.283a5.617,5.617,0,0,1,2.617.641,4.04,4.04,0,0,1-.676,1.648,4.648,4.648,0,0,1,1.887,3.789,4.768,4.768,0,0,1-.768,2.612,6.964,6.964,0,0,1-.192,8.88A9.314,9.314,0,0,1,41.487,44.7a11.179,11.179,0,0,1,2.106,6.637,11.336,11.336,0,0,1-1.6,5.888,6.56,6.56,0,0,1,1.6,4.208,6.472,6.472,0,0,1-1.365,3.908,3.994,3.994,0,0,1,1.737,3.036Z" fill="#684d3c"/>
          <path id="Trazado_995002" data-name="Trazado 995002" d="M28.542,15.7H32.26c-.016.058-.033.117-.051.175a5,5,0,0,1-.683,1.388,5.07,5.07,0,0,1-.534.641,5.815,5.815,0,0,1,.3,1.524,4.783,4.783,0,0,0-.608,2.35,4.854,4.854,0,0,0,.075.849,8.59,8.59,0,0,1-.948,1.755A8.371,8.371,0,0,1,27.6,26.553a11.117,11.117,0,0,1-2,8.807,12.774,12.774,0,0,1-2.434,2.617,10.467,10.467,0,0,1-3.324,8.086A10.785,10.785,0,0,1,16.785,48.1a6.165,6.165,0,0,1-4.3,6.771,6.166,6.166,0,0,1-3.74,7.8,6.135,6.135,0,0,1-.59,4.341A6,6,0,0,1,4.929,69.87H4.365V67.046c.042-.068.08-.136.119-.206a6.135,6.135,0,0,0,.59-4.341,6.166,6.166,0,0,0,3.74-7.8,6.165,6.165,0,0,0,4.3-6.771,10.785,10.785,0,0,0,3.056-2.038A10.467,10.467,0,0,0,19.5,37.8a12.774,12.774,0,0,0,2.434-2.617,11.117,11.117,0,0,0,2-8.807A8.371,8.371,0,0,0,26.145,24.2a7.356,7.356,0,0,0,1.18-6.478,5.07,5.07,0,0,0,.534-.641,5,5,0,0,0,.683-1.388Z" fill="#684d3c"/>
          <path id="Trazado_995003" data-name="Trazado 995003" d="M15.348,15.7h-2.82a4.7,4.7,0,0,1-2.059,1.763,8.925,8.925,0,0,1-1.837,4.227,8.629,8.629,0,0,1-4.267,3.061A4.547,4.547,0,0,1,.7,24.436v3.019a5.729,5.729,0,0,0,3.667.409,10.512,10.512,0,0,0,5.91-2.942c.117-.127.227-.258.332-.393A8.925,8.925,0,0,0,12.444,20.3,4.7,4.7,0,0,0,14.5,18.538c.031-.047.063-.094.093-.143a4.766,4.766,0,0,0,.753-2.7Z" fill="#684d3c"/>
        </g>
        <g id="Grupo_1177433" data-name="Grupo 1177433">
          <path id="Trazado_995004" data-name="Trazado 995004" d="M61.741,61.415a3.439,3.439,0,1,0,3.439,3.439A3.443,3.443,0,0,0,61.741,61.415Zm0,5.482a2.042,2.042,0,1,1,2.042-2.042A2.045,2.045,0,0,1,61.741,66.9Z" fill="#3a322b"/>
          <path id="Trazado_995005" data-name="Trazado 995005" d="M53.986,50.351a3.439,3.439,0,1,0,3.439,3.439A3.443,3.443,0,0,0,53.986,50.351Zm0,5.482a2.042,2.042,0,1,1,2.042-2.042A2.045,2.045,0,0,1,53.986,55.833Z" fill="#3a322b"/>
          <path id="Trazado_995006" data-name="Trazado 995006" d="M53.225,42.665a2.8,2.8,0,1,0-2.8-2.8A2.8,2.8,0,0,0,53.225,42.665Zm0-4.2a1.4,1.4,0,1,1-1.4,1.4A1.4,1.4,0,0,1,53.225,38.466Z" fill="#3a322b"/>
          <path id="Trazado_995007" data-name="Trazado 995007" d="M53.158,30.955a2.476,2.476,0,1,0-2.476-2.476A2.479,2.479,0,0,0,53.158,30.955Zm0-3.556a1.079,1.079,0,1,1-1.08,1.08A1.081,1.081,0,0,1,53.158,27.4Z" fill="#3a322b"/>
          <path id="Trazado_995008" data-name="Trazado 995008" d="M62.9,20.458a2.476,2.476,0,1,0,2.476-2.476A2.479,2.479,0,0,0,62.9,20.458Zm3.556,0a1.079,1.079,0,1,1-1.079-1.079A1.081,1.081,0,0,1,66.455,20.458Z" fill="#3a322b"/>
          <path id="Trazado_995009" data-name="Trazado 995009" d="M75.32,27.455a2.476,2.476,0,1,0-2.476,2.476A2.479,2.479,0,0,0,75.32,27.455Zm-3.556,0a1.079,1.079,0,1,1,1.08,1.079A1.081,1.081,0,0,1,71.764,27.455Z" fill="#3a322b"/>
          <path id="Trazado_995010" data-name="Trazado 995010" d="M83.816,16.2a2.476,2.476,0,1,0,2.476,2.476A2.479,2.479,0,0,0,83.816,16.2Zm0,3.556A1.079,1.079,0,1,1,84.9,18.681,1.081,1.081,0,0,1,83.816,19.76Z" fill="#3a322b"/>
          <path id="Trazado_995011" data-name="Trazado 995011" d="M73.8,41.517a2.476,2.476,0,1,0-2.476-2.476A2.479,2.479,0,0,0,73.8,41.517Zm0-3.556a1.079,1.079,0,1,1-1.08,1.079A1.081,1.081,0,0,1,73.8,37.961Z" fill="#3a322b"/>
          <path id="Trazado_995012" data-name="Trazado 995012" d="M80.2,51.748a2.476,2.476,0,1,0-2.476-2.476A2.479,2.479,0,0,0,80.2,51.748Zm0-3.556a1.079,1.079,0,1,1-1.08,1.08A1.081,1.081,0,0,1,80.2,48.192Z" fill="#3a322b"/>
          <path id="Trazado_995013" data-name="Trazado 995013" d="M81.252,39.239a3,3,0,1,0-3-3A3,3,0,0,0,81.252,39.239Zm0-4.6a1.6,1.6,0,1,1-1.6,1.6A1.6,1.6,0,0,1,81.252,34.639Z" fill="#3a322b"/>
          <path id="Trazado_995014" data-name="Trazado 995014" d="M84.652,59.8a3,3,0,1,0-3-3A3,3,0,0,0,84.652,59.8Zm0-4.6a1.6,1.6,0,1,1-1.6,1.6A1.6,1.6,0,0,1,84.652,55.2Z" fill="#3a322b"/>
          <path id="Trazado_995015" data-name="Trazado 995015" d="M87.473,69.193a5.24,5.24,0,0,1-3.345-2.686,5.459,5.459,0,0,1-.522-3.849.7.7,0,0,0-.444-.815,5.465,5.465,0,0,1-3.317-6.919.7.7,0,0,0-.457-.895,5.467,5.467,0,0,1-3.816-6,.7.7,0,0,0-.409-.738,10.082,10.082,0,0,1-2.859-1.907A9.761,9.761,0,0,1,69.2,37.836a.7.7,0,0,0-.259-.577,12.116,12.116,0,0,1-2.3-2.475,10.438,10.438,0,0,1-1.895-8.24.7.7,0,0,0-.292-.749A7.631,7.631,0,0,1,62.426,23.8a6.691,6.691,0,0,1-1.092-5.849.7.7,0,0,0-.161-.717,4.433,4.433,0,0,1-.46-.553c-.995-1.42-.986-3.215.02-3.92a1.965,1.965,0,0,1,1.758-.175,3.86,3.86,0,0,1,1.933,1.494,4.344,4.344,0,0,1,.45.819.7.7,0,0,0,.582.426,6.8,6.8,0,0,1,4.772,3.006A7.447,7.447,0,0,1,71.563,21.8a.7.7,0,0,0,.517.6,10.958,10.958,0,0,1,5.969,4.384A12.2,12.2,0,0,1,79.483,29.5a.7.7,0,0,0,.5.435,10.138,10.138,0,0,1,6.7,5.321.7.7,0,0,0,1.251-.622,11.543,11.543,0,0,0-7.27-5.969,13.629,13.629,0,0,0-1.463-2.679,12.531,12.531,0,0,0-6.305-4.8,8.937,8.937,0,0,0-1.517-3.651,9.327,9.327,0,0,0-.943-1.138h4.686a5.436,5.436,0,0,0,1.782,1.54,9.691,9.691,0,0,0,1.917,4.18A8.5,8.5,0,0,0,85.2,25.691a4.729,4.729,0,0,0,2.464-.657.7.7,0,0,0-.721-1.2c-1.923,1.158-5.008.026-7.022-2.577a8.283,8.283,0,0,1-1.7-3.89.7.7,0,0,0-.424-.554,4.043,4.043,0,0,1-1.825-1.631,4.029,4.029,0,0,1-.645-2.384,1.858,1.858,0,0,1,.791-1.506c.984-.609,2.549.072,3.489,1.52a.7.7,0,0,0,.791.287c1.963-.6,4.573.578,6.35,2.874a.7.7,0,1,0,1.1-.855c-1.986-2.567-4.942-3.94-7.365-3.478-1.4-1.81-3.563-2.489-5.1-1.536A3.212,3.212,0,0,0,73.935,12.7a5.155,5.155,0,0,0,.387,2.3H68.687a7.4,7.4,0,0,0-2.7-1.011,5.69,5.69,0,0,0-.422-.706,5.261,5.261,0,0,0-2.652-2.023,3.325,3.325,0,0,0-2.985.361A3.53,3.53,0,0,0,58.606,15H56.374c-.219-2.148-1.729-3.817-3.555-3.817a3.728,3.728,0,0,0-3.4,2.972q-2.009-1.732-4.178-3.257A56.315,56.315,0,0,1,61.259,3.862a82.288,82.288,0,0,1,26-2.3A.7.7,0,0,0,87.34.173,83.677,83.677,0,0,0,60.9,2.513,57.535,57.535,0,0,0,44,10.045,57.519,57.519,0,0,0,27.1,2.513,83.671,83.671,0,0,0,.659.173a.7.7,0,0,0,.08,1.395,82.278,82.278,0,0,1,26,2.3A54.8,54.8,0,0,1,48.409,15.125,6.374,6.374,0,0,0,44,18.459a6.363,6.363,0,0,0-5.264-3.446c-.214-2.155-1.726-3.831-3.556-3.831S31.844,12.851,31.625,15H29.394a3.531,3.531,0,0,0-1.325-3.378,3.326,3.326,0,0,0-2.985-.361,5.261,5.261,0,0,0-2.652,2.023,5.7,5.7,0,0,0-.422.706A7.4,7.4,0,0,0,19.313,15H13.678a5.155,5.155,0,0,0,.387-2.3,3.211,3.211,0,0,0-1.448-2.587c-1.541-.954-3.706-.275-5.1,1.536-2.423-.461-5.379.911-7.365,3.478a.7.7,0,1,0,1.1.855C3.028,13.681,5.639,12.5,7.6,13.1a.7.7,0,0,0,.791-.287c.94-1.447,2.5-2.129,3.489-1.52a1.858,1.858,0,0,1,.791,1.506,4.03,4.03,0,0,1-.645,2.384A4.044,4.044,0,0,1,10.2,16.817a.7.7,0,0,0-.424.554,8.282,8.282,0,0,1-1.7,3.89c-2.014,2.6-5.1,3.735-7.022,2.577a.7.7,0,0,0-.721,1.2,4.73,4.73,0,0,0,2.464.657,8.5,8.5,0,0,0,6.383-3.576,9.692,9.692,0,0,0,1.917-4.18,5.438,5.438,0,0,0,1.782-1.54H17.57a9.311,9.311,0,0,0-.943,1.138,8.939,8.939,0,0,0-1.517,3.651,12.532,12.532,0,0,0-6.305,4.8,13.634,13.634,0,0,0-1.463,2.679,11.543,11.543,0,0,0-7.27,5.969.7.7,0,1,0,1.251.622,10.138,10.138,0,0,1,6.7-5.321.7.7,0,0,0,.5-.435A12.2,12.2,0,0,1,9.95,26.789,10.96,10.96,0,0,1,15.919,22.4a.7.7,0,0,0,.517-.6,7.449,7.449,0,0,1,1.335-3.467,6.8,6.8,0,0,1,4.772-3.006.7.7,0,0,0,.582-.426,4.351,4.351,0,0,1,.45-.82,3.861,3.861,0,0,1,1.933-1.494,1.966,1.966,0,0,1,1.758.175c1.006.7,1.015,2.5.02,3.92a4.406,4.406,0,0,1-.46.553.7.7,0,0,0-.161.717A6.691,6.691,0,0,1,25.573,23.8,7.634,7.634,0,0,1,23.546,25.8a.7.7,0,0,0-.292.749,10.437,10.437,0,0,1-1.895,8.24,12.111,12.111,0,0,1-2.3,2.475.7.7,0,0,0-.259.577,9.762,9.762,0,0,1-3.107,7.544,10.082,10.082,0,0,1-2.859,1.907.7.7,0,0,0-.409.738,5.467,5.467,0,0,1-3.816,6,.7.7,0,0,0-.457.895,5.465,5.465,0,0,1-3.317,6.919.7.7,0,0,0-.444.815,5.459,5.459,0,0,1-.522,3.849A5.241,5.241,0,0,1,.526,69.193.7.7,0,1,0,.87,70.546,6.6,6.6,0,0,0,5.1,67.174a6.854,6.854,0,0,0,.766-4.245,6.855,6.855,0,0,0,3.148-2.949,6.886,6.886,0,0,0,.653-4.85,6.867,6.867,0,0,0,4.2-6.784,11.494,11.494,0,0,0,2.79-1.952,11.178,11.178,0,0,0,3.553-8.273,13.56,13.56,0,0,0,2.3-2.535,12.021,12.021,0,0,0,2.209-8.9,9.1,9.1,0,0,0,2-2.078,8.237,8.237,0,0,0,1.393-6.7c.114-.135.221-.273.321-.415a5.67,5.67,0,0,0,.6-1.09h2.641A4.938,4.938,0,0,0,32,17.544a5.376,5.376,0,0,0-2.012,4.231,5.554,5.554,0,0,0,.4,2.076,7.465,7.465,0,0,0-1.744,4.868,7.807,7.807,0,0,0,.541,2.868,9.341,9.341,0,0,0-3.594,7.564,10.2,10.2,0,0,0,.717,3.771,11.606,11.606,0,0,0-3.449,8.415,12.5,12.5,0,0,0,.369,3.027c-2.989,1.632-4.755,4.24-4.755,7.069a6.879,6.879,0,0,0,.79,3.191,4.749,4.749,0,0,0-2.218,3.752,3.827,3.827,0,0,0,.476,1.825.7.7,0,1,0,1.23-.661,2.448,2.448,0,0,1-.309-1.164c0-1.32,1.154-2.335,2.122-2.953a.7.7,0,0,0,.215-.961,5.619,5.619,0,0,1-.908-3.029c0-2.441,1.677-4.714,4.487-6.08a.7.7,0,0,0,.363-.83,11.039,11.039,0,0,1-.464-3.187A10.083,10.083,0,0,1,27.6,43.641a.7.7,0,0,0,.183-.829,8.716,8.716,0,0,1-.794-3.662,7.813,7.813,0,0,1,3.439-6.717.7.7,0,0,0,.259-.906,6.327,6.327,0,0,1-.646-2.808A5.974,5.974,0,0,1,31.71,24.48a.7.7,0,0,0,.128-.817,4.121,4.121,0,0,1-.455-1.888,3.922,3.922,0,0,1,1.871-3.4.7.7,0,0,0,.242-.967,3.579,3.579,0,0,1-.5-1.872c0-1.631.981-2.958,2.186-2.958s2.186,1.327,2.186,2.958a3.535,3.535,0,0,1-.618,2.044.7.7,0,0,0,.161.973,3.954,3.954,0,0,1,1.6,3.222A4.061,4.061,0,0,1,37.851,24a.7.7,0,0,0,.048.829,6.266,6.266,0,0,1-.168,7.961.7.7,0,0,0-.014.93,8.255,8.255,0,0,1,1.93,5.424,8.381,8.381,0,0,1-1.68,5.121.7.7,0,0,0-.01.842,10.862,10.862,0,0,1,.467,11.747.7.7,0,0,0,.06.809,5.878,5.878,0,0,1,1.442,3.762A5.8,5.8,0,0,1,38.7,64.919a.7.7,0,0,0,.121.964A3.427,3.427,0,0,1,40.3,68.375a2.45,2.45,0,0,1-.309,1.164.7.7,0,1,0,1.23.661,3.827,3.827,0,0,0,.476-1.825,4.38,4.38,0,0,0-1.507-3.151,7.065,7.065,0,0,0,1.136-3.792,7.155,7.155,0,0,0-1.461-4.267,12.309,12.309,0,0,0-.485-12.458,9.87,9.87,0,0,0,1.666-5.556,9.744,9.744,0,0,0-1.894-5.873,7.455,7.455,0,0,0,1.492-4.559,7.53,7.53,0,0,0-1.364-4.385,5.479,5.479,0,0,0,.626-2.559,5.4,5.4,0,0,0-1.678-3.945,4.941,4.941,0,0,0,.464-1.421A4.963,4.963,0,0,1,43.3,21.353V69.87a.7.7,0,1,0,1.4,0V21.353a4.963,4.963,0,0,1,4.612-4.944,4.941,4.941,0,0,0,.464,1.421A5.4,5.4,0,0,0,48.1,21.775a5.478,5.478,0,0,0,.626,2.559,7.53,7.53,0,0,0-1.364,4.385,7.455,7.455,0,0,0,1.492,4.559,9.744,9.744,0,0,0-1.894,5.873,9.87,9.87,0,0,0,1.666,5.556,12.309,12.309,0,0,0-.485,12.458,7.155,7.155,0,0,0-1.461,4.267,7.064,7.064,0,0,0,1.136,3.792A4.38,4.38,0,0,0,46.3,68.375,3.827,3.827,0,0,0,46.78,70.2a.7.7,0,1,0,1.23-.661,2.448,2.448,0,0,1-.309-1.164,3.427,3.427,0,0,1,1.475-2.492.7.7,0,0,0,.121-.964,5.8,5.8,0,0,1-1.225-3.487,5.877,5.877,0,0,1,1.442-3.762.7.7,0,0,0,.06-.809,10.862,10.862,0,0,1,.467-11.747.7.7,0,0,0-.01-.842,8.381,8.381,0,0,1-1.68-5.121,8.255,8.255,0,0,1,1.93-5.424.7.7,0,0,0-.014-.93,6.266,6.266,0,0,1-.168-7.961A.7.7,0,0,0,50.146,24a4.061,4.061,0,0,1-.654-2.23,3.954,3.954,0,0,1,1.6-3.222.7.7,0,0,0,.161-.973,3.536,3.536,0,0,1-.618-2.044c0-1.631.981-2.958,2.186-2.958S55,13.9,55,15.536a3.578,3.578,0,0,1-.5,1.872.7.7,0,0,0,.242.967,3.923,3.923,0,0,1,1.871,3.4,4.121,4.121,0,0,1-.455,1.888.7.7,0,0,0,.128.817,5.975,5.975,0,0,1,1.668,4.238,6.327,6.327,0,0,1-.646,2.808.7.7,0,0,0,.259.906,7.813,7.813,0,0,1,3.439,6.717,8.716,8.716,0,0,1-.794,3.662.7.7,0,0,0,.183.829,10.083,10.083,0,0,1,3.343,7.695,11.045,11.045,0,0,1-.464,3.187.7.7,0,0,0,.363.83c2.81,1.366,4.487,3.639,4.487,6.08a5.619,5.619,0,0,1-.908,3.029.7.7,0,0,0,.215.961c.968.619,2.122,1.633,2.122,2.953a2.45,2.45,0,0,1-.309,1.164.7.7,0,1,0,1.23.661,3.827,3.827,0,0,0,.476-1.825,4.749,4.749,0,0,0-2.218-3.752,6.877,6.877,0,0,0,.79-3.191c0-2.829-1.766-5.437-4.755-7.069a12.5,12.5,0,0,0,.369-3.027,11.606,11.606,0,0,0-3.449-8.415,10.2,10.2,0,0,0,.717-3.771,9.341,9.341,0,0,0-3.594-7.564,7.81,7.81,0,0,0,.541-2.868,7.465,7.465,0,0,0-1.744-4.868,5.553,5.553,0,0,0,.4-2.076A5.375,5.375,0,0,0,56,17.543,4.938,4.938,0,0,0,56.33,16.4h2.641a5.675,5.675,0,0,0,.6,1.09c.1.142.207.281.321.415a8.236,8.236,0,0,0,1.393,6.7,9.1,9.1,0,0,0,2,2.078,12.022,12.022,0,0,0,2.209,8.9,13.549,13.549,0,0,0,2.3,2.535,11.177,11.177,0,0,0,3.553,8.273,11.5,11.5,0,0,0,2.79,1.952,6.867,6.867,0,0,0,4.2,6.784,6.861,6.861,0,0,0,3.8,7.8,6.854,6.854,0,0,0,.766,4.245,6.6,6.6,0,0,0,4.227,3.372.7.7,0,0,0,.346-1.353Z" fill="#3a322b"/>
          <path id="Trazado_995016" data-name="Trazado 995016" d="M26.259,61.415A3.439,3.439,0,1,0,29.7,64.854,3.443,3.443,0,0,0,26.259,61.415Zm0,5.482A2.042,2.042,0,1,1,28.3,64.854,2.045,2.045,0,0,1,26.259,66.9Z" fill="#3a322b"/>
          <path id="Trazado_995017" data-name="Trazado 995017" d="M34.014,50.351a3.439,3.439,0,1,0,3.439,3.439A3.443,3.443,0,0,0,34.014,50.351Zm0,5.482a2.042,2.042,0,1,1,2.042-2.042A2.045,2.045,0,0,1,34.014,55.833Z" fill="#3a322b"/>
          <path id="Trazado_995018" data-name="Trazado 995018" d="M34.775,37.069a2.8,2.8,0,1,0,2.8,2.8A2.8,2.8,0,0,0,34.775,37.069Zm0,4.2a1.4,1.4,0,1,1,1.4-1.4A1.4,1.4,0,0,1,34.775,41.268Z" fill="#3a322b"/>
          <path id="Trazado_995019" data-name="Trazado 995019" d="M34.842,30.955a2.476,2.476,0,1,0-2.476-2.476A2.479,2.479,0,0,0,34.842,30.955Zm0-3.556a1.079,1.079,0,1,1-1.08,1.08A1.081,1.081,0,0,1,34.842,27.4Z" fill="#3a322b"/>
          <path id="Trazado_995020" data-name="Trazado 995020" d="M25.1,20.458a2.476,2.476,0,1,0-2.476,2.476A2.479,2.479,0,0,0,25.1,20.458Zm-3.556,0a1.079,1.079,0,1,1,1.079,1.08,1.081,1.081,0,0,1-1.079-1.08Z" fill="#3a322b"/>
          <path id="Trazado_995021" data-name="Trazado 995021" d="M17.633,27.455a2.476,2.476,0,1,0-2.476,2.476A2.479,2.479,0,0,0,17.633,27.455Zm-3.556,0a1.079,1.079,0,1,1,1.079,1.079A1.081,1.081,0,0,1,14.077,27.455Z" fill="#3a322b"/>
          <path id="Trazado_995022" data-name="Trazado 995022" d="M6.66,18.681a2.476,2.476,0,1,0-2.476,2.476A2.479,2.479,0,0,0,6.66,18.681Zm-3.556,0A1.079,1.079,0,1,1,4.184,19.76,1.081,1.081,0,0,1,3.1,18.681Z" fill="#3a322b"/>
          <path id="Trazado_995023" data-name="Trazado 995023" d="M11.725,39.041A2.476,2.476,0,1,0,14.2,36.564,2.479,2.479,0,0,0,11.725,39.041ZM14.2,37.961a1.079,1.079,0,1,1-1.08,1.079A1.081,1.081,0,0,1,14.2,37.961Z" fill="#3a322b"/>
          <path id="Trazado_995024" data-name="Trazado 995024" d="M5.329,49.271A2.476,2.476,0,1,0,7.8,46.8a2.479,2.479,0,0,0-2.476,2.476Zm3.556,0a1.079,1.079,0,1,1-1.08-1.08A1.081,1.081,0,0,1,8.884,49.271Z" fill="#3a322b"/>
          <path id="Trazado_995025" data-name="Trazado 995025" d="M6.748,33.242a3,3,0,1,0,3,3A3,3,0,0,0,6.748,33.242Zm0,4.6a1.6,1.6,0,1,1,1.6-1.6A1.6,1.6,0,0,1,6.748,37.842Z" fill="#3a322b"/>
          <path id="Trazado_995026" data-name="Trazado 995026" d="M.35,56.8a3,3,0,1,0,3-3,3,3,0,0,0-3,3Zm4.6,0a1.6,1.6,0,1,1-1.6-1.6A1.6,1.6,0,0,1,4.95,56.8Z" fill="#3a322b"/>
        </g>
      </g>
    </g>
  </g>
</svg>
