<svg xmlns="http://www.w3.org/2000/svg" xmlns:xlink="http://www.w3.org/1999/xlink" width="104" height="104" viewBox="0 0 104 104">
  <defs>
    <clipPath id="clip-path">
      <rect id="Rectángulo_454588" data-name="Rectángulo 454588" width="96" height="96" transform="translate(745.745 9172)" fill="#fff" stroke="#707070" stroke-width="1"/>
    </clipPath>
    <clipPath id="clip-path-2">
      <path id="path9099" d="M0-96H96V0H0Z"/>
    </clipPath>
  </defs>
  <g id="Grupo_1177361" data-name="Grupo 1177361" transform="translate(-741.746 -9168)">
    <path id="Elipse_5729" data-name="Elipse 5729" d="M52,0A52,52,0,1,1,0,52,52,52,0,0,1,52,0Z" transform="translate(741.746 9168)" fill="#02614b"/>
    <g id="Enmascarar_grupo_1119154" data-name="Enmascarar grupo 1119154" clip-path="url(#clip-path)">
      <g id="g9093" transform="translate(745.745 9268)">
        <g id="g9095">
          <g id="g9097" clip-path="url(#clip-path-2)">
            <g id="g9103" transform="translate(48.119 -37.534)">
              <path id="path9105" d="M0,0-.119,0A47.939,47.939,0,0,0-34,13.961h0L-10.5,34.4l55.1-.143-2.582-7.225Z" fill="#b2e5fb"/>
            </g>
            <g id="g9107" transform="translate(90.383 -6.351)">
              <path id="path9109" d="M0,0A1.407,1.407,0,0,1-1.39,1.195H-53.6l-1.077,2.018,2.632,1.732H.432A2.817,2.817,0,0,0,3.084,3.084L1.79.119Z" fill="#94d8e6"/>
            </g>
            <g id="g9111" transform="translate(29.752 -15.223)">
              <path id="path9113" d="M0,0-15.632-8.35h0A48.109,48.109,0,0,0-27.219,10.067l17.125,2.018L7.027,10.067,5.256,5.795A11.612,11.612,0,0,0,0,0" fill="#acd980"/>
            </g>
            <g id="g9115" transform="translate(2.533 -5.156)">
              <path id="path9117" d="M0,0-.013.036A2.81,2.81,0,0,0,2.652,3.75H35.8L34.247,0Z" fill="#9cd169"/>
            </g>
            <g id="g9119" transform="translate(46.328 -29.697)">
              <path id="path9121" d="M0,0A21.176,21.176,0,0,0,4.645,9.871a10.8,10.8,0,0,0,6.387,3.677c6.774.774,13.354.774,19.935,1.161a22.854,22.854,0,0,1,3.871.774,18.4,18.4,0,0,1,3.29,1.935l5.928,5.928s1.43.141,1.213-1.017-4.8-11.135-11.51-17.9A47.91,47.91,0,0,0,1.791-7.837l-.243.482A10.888,10.888,0,0,0,0,0" fill="#acd980"/>
            </g>
            <g id="g9123" transform="translate(93.48 -5.12)">
              <path id="path9125" d="M0,0A48.149,48.149,0,0,0-13.394-20.145,48.018,48.018,0,0,1-3.139-1.849a1.4,1.4,0,0,1,.042.618L-.013,1.853A2.758,2.758,0,0,0,0,0" fill="#9cd169"/>
            </g>
            <g id="g9127" transform="translate(6.265 -35.526)">
              <path id="path9129" d="M0,0C10.461-11.482,24.828-18,41.584-18A58.945,58.945,0,0,1,84.617.794C85.108-.79,91.335-12.714,77.072-22c.828-1.713,4.645-14.356-9.385-17.93C65.014-50.334,56-58.982,42.678-58.982A25.48,25.48,0,0,0,21.262-43.891c-.43-.028-.863-.044-1.3-.044A19.719,19.719,0,0,0,.244-24.216a19.636,19.636,0,0,0,2.049,8.759A14.186,14.186,0,0,0-4.859-3.135a14.189,14.189,0,0,0,.4,3.368,2.717,2.717,0,0,0,.837,1.4A6.35,6.35,0,0,0,0,0" fill="#9bb9c3"/>
            </g>
            <g id="g9131" transform="translate(85.301 -56.901)">
              <path id="path9133" d="M0,0A12.988,12.988,0,0,0,1.292-5.665a13.045,13.045,0,0,0-11.1-12.9A25.478,25.478,0,0,0-34.481-37.676q-.948,0-1.878.069A25.484,25.484,0,0,1-13.791-19.392a1.392,1.392,0,0,0,1.036.975A13.046,13.046,0,0,1-2.458-5.665a13.013,13.013,0,0,1-.812,4.54A1.418,1.418,0,0,0-2.679.592,16.923,16.923,0,0,1,5.543,15.114c0,1.858-1.528,2.887-2.924,1.578-10.448-9.79-24.55-15.2-40.071-15.2-17.084,0-32.45,6.583-43.115,18.29a15.168,15.168,0,0,0-2.087,3.232,2.837,2.837,0,0,0,3.926-.167,57.028,57.028,0,0,1,41.277-17.6,57.017,57.017,0,0,1,40.878,17.2,2.81,2.81,0,0,0,4.606-.9,16.882,16.882,0,0,0,1.261-6.423A16.932,16.932,0,0,0,0,0" fill="#87a0af"/>
            </g>
            <g id="g9135" transform="translate(41.586 -37.536)">
              <path id="path9137" d="M0,0C.579-.356.3-1.572.22-1.952L-3.7-5.971a1.406,1.406,0,0,0-2.014,0L-9.9-1.671a1.407,1.407,0,0,0-.32.513l2.6,1.875a5.622,5.622,0,0,1,1.312,4.5c-.375,1.875-1.5,3.188-2.062,5.063a9.328,9.328,0,0,0-.233,2.984l3.4,2.015C-5.068,13.755-1.7,8.5-1.654,4.353-1.629,2.2-4.933-.373,0,0" fill="#df646e"/>
            </g>
            <g id="g9139" transform="translate(32.133 -38.694)">
              <path id="path9141" d="M0,0H-.772A1.408,1.408,0,0,0,.556,1.875H1.824L1.012.564A1.19,1.19,0,0,0,0,0" fill="#ca4646"/>
            </g>
            <g id="g9143" transform="translate(42.08 -39.207)">
              <path id="path9145" d="M0,0-.274-.281A.657.657,0,0,1-.916.513H-5.365A.656.656,0,0,0-5.9,1.547l.592.841a8.574,8.574,0,0,1,.937,6.75c-.514,1.886-1.812,3.458-2.174,5.29a.648.648,0,0,1-.644.516l-1.915-.01a11.135,11.135,0,0,0,.612,2.847,1.392,1.392,0,0,0,1.1.9,1.42,1.42,0,0,0,.216.016h2.389a1.4,1.4,0,0,0,1.326-1.87,5.575,5.575,0,0,1-.351-1.88c.188-2.062,1.688-3.75,2.25-5.813A8.574,8.574,0,0,0-2.5,2.388h1.49A1.406,1.406,0,0,0,0,0" fill="#ca4646"/>
            </g>
            <g id="g9147" transform="translate(63.944 -37.536)">
              <path id="path9149" d="M0,0C.579-.356.3-1.572.22-1.952L-3.7-5.971a1.406,1.406,0,0,0-2.014,0L-9.9-1.671a1.407,1.407,0,0,0-.32.513l2.6,1.875a5.622,5.622,0,0,1,1.312,4.5c-.375,1.875-1.5,3.188-2.062,5.063a9.328,9.328,0,0,0-.233,2.984l3.4,2.015C-5.068,13.755-1.7,8.5-1.654,4.353-1.629,2.2-4.933-.373,0,0" fill="#df646e"/>
            </g>
            <g id="g9151" transform="translate(54.491 -38.694)">
              <path id="path9153" d="M0,0H-.772A1.408,1.408,0,0,0,.556,1.875H1.824L1.012.564A1.19,1.19,0,0,0,0,0" fill="#ca4646"/>
            </g>
            <g id="g9155" transform="translate(64.437 -39.207)">
              <path id="path9157" d="M0,0-.274-.281A.657.657,0,0,1-.916.513H-5.365A.656.656,0,0,0-5.9,1.547l.592.841a8.574,8.574,0,0,1,.937,6.75c-.514,1.886-1.812,3.458-2.174,5.29a.648.648,0,0,1-.644.516l-1.915-.01a11.135,11.135,0,0,0,.612,2.847,1.392,1.392,0,0,0,1.1.9,1.42,1.42,0,0,0,.216.016h2.389a1.4,1.4,0,0,0,1.326-1.87,5.575,5.575,0,0,1-.351-1.88c.188-2.062,1.688-3.75,2.25-5.813A8.574,8.574,0,0,0-2.5,2.388h1.49A1.406,1.406,0,0,0,0,0" fill="#ca4646"/>
            </g>
            <g id="g9159" transform="translate(21.729 -19.508)">
              <path id="path9161" d="M0,0-7.1-3.79" fill="none" stroke="#000" stroke-linecap="round" stroke-linejoin="round" stroke-miterlimit="10" stroke-width="2.813"/>
            </g>
            <g id="g9163" transform="translate(38.132 -1.894)">
              <path id="path9165" d="M0,0-3.124-7.534A11.612,11.612,0,0,0-8.38-13.329l-3.245-1.733" fill="none" stroke="#000" stroke-linecap="round" stroke-linejoin="round" stroke-miterlimit="10" stroke-width="2.813"/>
            </g>
            <g id="g9167" transform="translate(53.806 -37.189)">
              <path id="path9169" d="M0,0A48.555,48.555,0,0,0-5.806-.347a48.615,48.615,0,0,0-5.518.313" fill="none" stroke="#000" stroke-linecap="round" stroke-linejoin="round" stroke-miterlimit="10" stroke-width="2.813"/>
            </g>
            <g id="g9171" transform="translate(80.191 -25.174)">
              <path id="path9173" d="M0,0A48.052,48.052,0,0,0-16.718-9.819" fill="none" stroke="#000" stroke-linecap="round" stroke-linejoin="round" stroke-miterlimit="10" stroke-width="2.813"/>
            </g>
            <g id="g9175" transform="translate(34.17 -35.517)">
              <path id="path9177" d="M0,0A48.212,48.212,0,0,0-31.65,30.4a2.81,2.81,0,0,0,2.665,3.714h85.63A2.81,2.81,0,0,0,59.311,30.4a48.044,48.044,0,0,0-9.135-15.819" fill="none" stroke="#000" stroke-linecap="round" stroke-linejoin="round" stroke-miterlimit="10" stroke-width="2.813"/>
            </g>
            <g id="g9179" transform="translate(47.876 -37.052)">
              <path id="path9181" d="M0,0A10.888,10.888,0,0,0-1.548,7.355,21.173,21.173,0,0,0,3.1,17.225,10.8,10.8,0,0,0,9.484,20.9c6.774.774,13.354.774,19.934,1.161a22.819,22.819,0,0,1,3.871.774,18.37,18.37,0,0,1,3.29,1.935l8.36,8.36" fill="none" stroke="#000" stroke-linecap="round" stroke-linejoin="round" stroke-miterlimit="10" stroke-width="2.813"/>
            </g>
            <g id="g9183" transform="translate(38.816 -72.967)">
              <path id="path9185" d="M0,0A8.614,8.614,0,0,0-4.839-1.478a8.655,8.655,0,0,0-8.655,8.654,8.655,8.655,0,0,0,8.655,8.655,6.956,6.956,0,0,0,4.75-1.718,6.957,6.957,0,0,0,.7-.725" fill="none" stroke="#000" stroke-linecap="round" stroke-linejoin="round" stroke-miterlimit="10" stroke-width="2.813"/>
            </g>
            <g id="g9187" transform="translate(61.319 -65.79)">
              <path id="path9189" d="M0,0A8.655,8.655,0,0,1-8.655,8.655,8.654,8.654,0,0,1-17.309,0,8.654,8.654,0,0,1-8.655-8.654,8.655,8.655,0,0,1,0,0Z" fill="none" stroke="#000" stroke-linecap="round" stroke-linejoin="round" stroke-miterlimit="10" stroke-width="2.813"/>
            </g>
            <g id="g9191" transform="translate(70.677 -57.156)">
              <path id="path9193" d="M0,0S-4.232.053-4.433-.013s.321-.42,3.1-4.385A5.6,5.6,0,0,0-.412-6.286l.043-.337A2.226,2.226,0,0,0-2.594-8.849,2.226,2.226,0,0,0-4.778-7.054" fill="none" stroke="#000" stroke-linecap="round" stroke-linejoin="round" stroke-miterlimit="10" stroke-width="2.813"/>
            </g>
            <g id="g9195" transform="translate(10.825 -72.056)">
              <path id="path9197" d="M0,0A19.731,19.731,0,0,0-2.267,21.073a14.2,14.2,0,0,0-6.748,15.69A2.809,2.809,0,0,0-4.253,38,57.276,57.276,0,0,1,54.509,23.116" fill="none" stroke="#000" stroke-linecap="round" stroke-linejoin="round" stroke-miterlimit="10" stroke-width="2.813"/>
            </g>
            <g id="g9199" transform="translate(70.677 -46.924)">
              <path id="path9201" d="M0,0A57.312,57.312,0,0,1,18.049,12.457a2.81,2.81,0,0,0,4.606-.9A16.95,16.95,0,0,0,14.624-9.978a12.991,12.991,0,0,0,1.292-5.665,13.044,13.044,0,0,0-11.1-12.9A25.478,25.478,0,0,0-19.857-47.653a25.471,25.471,0,0,0-23.294,15.16c-.43-.028-.863-.044-1.3-.044a19.627,19.627,0,0,0-11.032,3.372" fill="none" stroke="#000" stroke-linecap="round" stroke-linejoin="round" stroke-miterlimit="10" stroke-width="2.813"/>
            </g>
            <g id="g9203" transform="translate(42.08 -39.207)">
              <path id="path9205" d="M0,0-4.192-4.3a1.406,1.406,0,0,0-2.014,0L-10.4,0A1.406,1.406,0,0,0-9.391,2.388h1.268a5.622,5.622,0,0,1,1.313,4.5c-.375,1.875-1.5,3.187-2.062,5.062a10.207,10.207,0,0,0,.378,5.83,1.4,1.4,0,0,0,1.32.92h2.389a1.4,1.4,0,0,0,1.326-1.87,5.575,5.575,0,0,1-.351-1.88c.188-2.062,1.688-3.75,2.25-5.812A8.574,8.574,0,0,0-2.5,2.388h1.49A1.406,1.406,0,0,0,0,0Z" fill="none" stroke="#000" stroke-linecap="round" stroke-linejoin="round" stroke-miterlimit="10" stroke-width="2.813"/>
            </g>
            <g id="g9207" transform="translate(64.439 -39.207)">
              <path id="path9209" d="M0,0-4.192-4.3a1.406,1.406,0,0,0-2.014,0L-10.4,0A1.406,1.406,0,0,0-9.391,2.388h1.268a5.622,5.622,0,0,1,1.313,4.5c-.375,1.875-1.5,3.187-2.062,5.062a10.2,10.2,0,0,0,.378,5.83,1.4,1.4,0,0,0,1.32.92h2.389a1.4,1.4,0,0,0,1.327-1.87,5.575,5.575,0,0,1-.351-1.88c.188-2.062,1.688-3.75,2.25-5.812A8.574,8.574,0,0,0-2.5,2.388h1.49A1.406,1.406,0,0,0,0,0Z" fill="none" stroke="#000" stroke-linecap="round" stroke-linejoin="round" stroke-miterlimit="10" stroke-width="2.813"/>
            </g>
          </g>
        </g>
      </g>
    </g>
  </g>
</svg>
