<svg xmlns="http://www.w3.org/2000/svg" xmlns:xlink="http://www.w3.org/1999/xlink" width="96" height="96" viewBox="0 0 96 96">
  <defs>
    <clipPath id="clip-path">
      <rect id="Rectángulo_454588" data-name="Rectángulo 454588" width="88" height="88" transform="translate(745.746 9172)" fill="#fff" stroke="#707070" stroke-width="1"/>
    </clipPath>
  </defs>
  <g id="Grupo_1177365" data-name="Grupo 1177365" transform="translate(-741.746 -9168)">
    <path id="Elipse_5729" data-name="Elipse 5729" d="M48,0A48,48,0,1,1,0,48,48,48,0,0,1,48,0Z" transform="translate(741.746 9168)" fill="#02614b"/>
    <g id="Enmascarar_grupo_1119158" data-name="Enmascarar grupo 1119158" clip-path="url(#clip-path)">
      <g id="cultivar_2_" data-name="cultivar (2)" transform="translate(745.746 9172.002)">
        <g id="Grupo_1177387" data-name="Grupo 1177387">
          <path id="Trazado_994853" data-name="Trazado 994853" d="M37.537,33H29.191L18.934,42.321a6.388,6.388,0,0,1-8.676-9.377l11.921-11.22a24.323,24.323,0,0,1,16.637-6.6H56.375L77,0H88V22L73.824,33.342a23.541,23.541,0,0,1-14.7,5.156H36.066A10.922,10.922,0,0,1,37.537,33Z" fill="#f4baa6"/>
          <circle id="Elipse_13693" data-name="Elipse 13693" cx="3.437" cy="3.437" r="3.437" transform="translate(71.5 74.248)" fill="#896148"/>
          <path id="Trazado_994854" data-name="Trazado 994854" d="M88,68.748V88H0V68.748H1.375A10.214,10.214,0,0,0,6.957,67.14,8.7,8.7,0,0,0,10.45,62.9a7.917,7.917,0,0,1,7.425-5.156A7.917,7.917,0,0,0,25.3,52.592a9.034,9.034,0,0,1,8.442-5.844H54.257A9.034,9.034,0,0,1,62.7,52.592a7.917,7.917,0,0,0,7.425,5.156A7.917,7.917,0,0,1,77.55,62.9a9.525,9.525,0,0,0,9.075,5.844Zm-9.625,8.937a3.437,3.437,0,1,0-3.437,3.437A3.439,3.439,0,0,0,78.375,77.686Zm-22.6.22a8.846,8.846,0,0,0,1.98-5.912,7.706,7.706,0,0,0-2.6-5.871,9.563,9.563,0,0,0-5.321-2.3A2.779,2.779,0,0,1,47.4,61.681a9.556,9.556,0,0,0-2.97-4.977,7.623,7.623,0,0,0-5.087-1.9,8.706,8.706,0,0,0-6.531,3.025A9.03,9.03,0,0,0,30.58,66c.825,4.139,2.764,7.054,6.256,10.216a18.661,18.661,0,0,0,12.182,4.909A8.9,8.9,0,0,0,55.77,77.906ZM23.375,73.561A3.437,3.437,0,1,0,19.937,77,3.439,3.439,0,0,0,23.375,73.561Z" fill="#9b7868"/>
          <circle id="Elipse_13694" data-name="Elipse 13694" cx="3.437" cy="3.437" r="3.437" transform="translate(16.5 70.123)" fill="#896148"/>
          <path id="Trazado_994855" data-name="Trazado 994855" d="M57.75,71.993a8.78,8.78,0,0,1-8.731,9.13,18.661,18.661,0,0,1-12.182-4.909C33.344,73.052,31.4,70.137,30.58,66a9.03,9.03,0,0,1,2.227-8.167,8.706,8.706,0,0,1,6.531-3.025,7.623,7.623,0,0,1,5.087,1.9,9.556,9.556,0,0,1,2.97,4.977,2.779,2.779,0,0,0,2.434,2.145,9.563,9.563,0,0,1,5.321,2.3A7.706,7.706,0,0,1,57.75,71.993Z" fill="#f7a539"/>
        </g>
        <g id="Grupo_1177388" data-name="Grupo 1177388">
          <path id="Trazado_994856" data-name="Trazado 994856" d="M14.135,45.345c2.97.029,4.275-.692,5.723-2l9.866-8.965H35.4a12.406,12.406,0,0,0-.7,4.1,1.386,1.386,0,0,0,1.375,1.4H59.125a25.013,25.013,0,0,0,15.558-5.457l12.8-10.244a1.375,1.375,0,1,0-1.719-2.148l-12.8,10.242a22.252,22.252,0,0,1-13.841,4.855H37.54a9.544,9.544,0,0,1,1.185-3.435s0,0,0-.005a9.587,9.587,0,0,1,8.337-4.81h7.342a1.375,1.375,0,1,0,0-2.75H47.066a12.09,12.09,0,0,0-10.263,5.5H28.659L18.151,41.173A5.292,5.292,0,0,1,14.965,42.6a4.969,4.969,0,0,1-4.13-1.734,5.056,5.056,0,0,1-1.211-3.274A4.946,4.946,0,0,1,11.2,33.946l11.92-11.219a22.861,22.861,0,0,1,15.7-6.227h18.01L75.938,2.483A1.375,1.375,0,0,0,74.312.265L55.925,13.75H38.818a25.6,25.6,0,0,0-17.581,6.974L9.316,31.941a7.672,7.672,0,0,0-2.441,5.65,7.81,7.81,0,0,0,1.869,5.06,7.677,7.677,0,0,0,5.391,2.694Z" fill="#252525"/>
          <path id="Trazado_994857" data-name="Trazado 994857" d="M86.625,67.373a8.171,8.171,0,0,1-7.785-4.947,9.293,9.293,0,0,0-8.715-6.051,6.54,6.54,0,0,1-6.139-4.265,10.446,10.446,0,0,0-9.728-6.733H33.742a10.448,10.448,0,0,0-9.731,6.74,6.54,6.54,0,0,1-6.137,4.26,9.3,9.3,0,0,0-8.712,6.046,7.293,7.293,0,0,1-2.958,3.569,8.8,8.8,0,0,1-4.83,1.385,1.374,1.374,0,1,0,0,2.747A11.532,11.532,0,0,0,7.7,68.3a10.013,10.013,0,0,0,4.041-4.916,6.54,6.54,0,0,1,6.137-4.26,9.3,9.3,0,0,0,8.712-6.047,7.684,7.684,0,0,1,7.155-4.954H54.257a7.68,7.68,0,0,1,7.153,4.947,9.293,9.293,0,0,0,8.715,6.051,6.54,6.54,0,0,1,6.139,4.265,10.927,10.927,0,0,0,10.361,6.733,1.375,1.375,0,1,0,0-2.75Z" fill="#252525"/>
          <path id="Trazado_994858" data-name="Trazado 994858" d="M19.937,68.748a4.818,4.818,0,0,0-4.812,4.812,1.375,1.375,0,1,0,2.75,0,2.062,2.062,0,1,1,2.062,2.063,1.375,1.375,0,1,0,0,2.75,4.812,4.812,0,1,0,0-9.625Z" fill="#252525"/>
          <path id="Trazado_994859" data-name="Trazado 994859" d="M74.937,72.873a4.812,4.812,0,1,0,0,9.625,1.375,1.375,0,0,0,0-2.75A2.062,2.062,0,1,1,77,77.686a1.375,1.375,0,0,0,2.75,0A4.818,4.818,0,0,0,74.937,72.873Z" fill="#252525"/>
          <path id="Trazado_994860" data-name="Trazado 994860" d="M56.053,65.085a10.916,10.916,0,0,0-6.083-2.626,1.408,1.408,0,0,1-1.237-1.1,10.88,10.88,0,0,0-3.4-5.686,9.026,9.026,0,0,0-6-2.244,10.082,10.082,0,0,0-7.562,3.491,10.339,10.339,0,0,0-2.546,9.34v0c.848,4.261,2.783,7.439,6.682,10.97A19.968,19.968,0,0,0,49.082,82.5h.008A10.245,10.245,0,0,0,56.8,78.815a10.132,10.132,0,0,0,2.322-6.82,9.133,9.133,0,0,0-3.07-6.908ZM54.736,77a7.47,7.47,0,0,1-5.717,2.75A17.4,17.4,0,0,1,37.759,75.2c-3.464-3.136-5.1-5.79-5.83-9.465a7.647,7.647,0,0,1,1.914-6.993,7.341,7.341,0,0,1,5.5-2.556,6.273,6.273,0,0,1,4.179,1.556A8.144,8.144,0,0,1,46.058,62a4.179,4.179,0,0,0,3.633,3.2,8.172,8.172,0,0,1,4.557,1.965A6.3,6.3,0,0,1,56.376,72,7.584,7.584,0,0,1,54.739,77Z" fill="#252525"/>
          <path id="Trazado_994861" data-name="Trazado 994861" d="M49.406,67.932a6.882,6.882,0,0,1-6.021-5.3,1.375,1.375,0,1,0-2.677.631,10.522,10.522,0,0,0,3.019,5.052,9.394,9.394,0,0,0,5.538,2.359,1.374,1.374,0,0,0,.139-2.742Z" fill="#252525"/>
          <circle id="Elipse_13695" data-name="Elipse 13695" cx="2.062" cy="2.062" r="2.062" transform="translate(64.625 65.998)" fill="#252525"/>
          <circle id="Elipse_13696" data-name="Elipse 13696" cx="2.062" cy="2.062" r="2.062" transform="translate(6.875 79.748)" fill="#252525"/>
        </g>
      </g>
    </g>
  </g>
</svg>
