<svg xmlns="http://www.w3.org/2000/svg" xmlns:xlink="http://www.w3.org/1999/xlink" width="59.711" height="59.711" viewBox="0 0 59.711 59.711">
  <defs>
    <clipPath id="clip-path">
      <rect id="Rectángulo_454588" data-name="Rectángulo 454588" width="55.118" height="55.118" transform="translate(744.042 9170.297)" fill="#fff" stroke="#707070" stroke-width="1"/>
    </clipPath>
  </defs>
  <g id="Grupo_1177599" data-name="Grupo 1177599" transform="translate(-854.289 -4601.764)">
    <g id="Grupo_1177452" data-name="Grupo 1177452" transform="translate(112.543 -4566.236)">
      <path id="Elipse_5729" data-name="Elipse 5729" d="M29.855,0A29.855,29.855,0,1,1,0,29.855,29.855,29.855,0,0,1,29.855,0Z" transform="translate(741.746 9168)" fill="#02614b"/>
      <g id="Enmascarar_grupo_1119173" data-name="Enmascarar grupo 1119173" clip-path="url(#clip-path)">
        <g id="economico" transform="translate(743.935 9170.188)">
          <g id="Grupo_1177472" data-name="Grupo 1177472">
            <g id="Grupo_1177469" data-name="Grupo 1177469">
              <path id="Trazado_995387" data-name="Trazado 995387" d="M9.191,42.234l2.845,10.619a17.722,17.722,0,0,1,1.875-1.392A5.857,5.857,0,0,1,16,50.554a5.388,5.388,0,0,1,2.414.062h0l5.775,1.324a4.939,4.939,0,0,0,3.72-.49L42.35,43.113a2.706,2.706,0,0,0-2.706-4.687L29.587,44.233c.008-.025.015-.051.022-.076a3.005,3.005,0,0,0-2.1-3.674L17.424,37.738a4.736,4.736,0,0,0-3.625.968Z" fill="#ffd6bd" fill-rule="evenodd"/>
              <path id="Trazado_995388" data-name="Trazado 995388" d="M26.289,44.933a3.006,3.006,0,0,0,3.422-1.471,2.963,2.963,0,0,1-.1.694,3,3,0,0,1-3.674,2.1c-1.963-.536-3.928-1.053-5.894-1.579a.689.689,0,1,1,.356-1.33c1.961.526,3.921,1.049,5.892,1.584Z" fill="#f9c6aa" fill-rule="evenodd"/>
              <path id="Trazado_995389" data-name="Trazado 995389" d="M11.61,51.261l.426,1.591a17.722,17.722,0,0,1,1.875-1.392A5.857,5.857,0,0,1,16,50.554a5.388,5.388,0,0,1,2.414.062h0l5.775,1.324a4.939,4.939,0,0,0,3.72-.49L42.35,43.113a2.714,2.714,0,0,0,.99-3.7q-.033-.058-.069-.113a2.709,2.709,0,0,1-1.347,2.218L27.481,49.86a4.939,4.939,0,0,1-3.72.49l-5.775-1.324h0a5.388,5.388,0,0,0-2.414-.062,5.854,5.854,0,0,0-2.084.907,17.721,17.721,0,0,0-1.875,1.392Z" fill="#f9c6aa" fill-rule="evenodd"/>
              <path id="Trazado_995390" data-name="Trazado 995390" d="M9.918,39.985,13.4,52.965a.6.6,0,0,1-.421.73l-2.4.643a.6.6,0,0,1-.73-.421L6.368,40.936a.6.6,0,0,1,.421-.73l2.4-.643A.6.6,0,0,1,9.918,39.985Z" fill="#64b5f6" fill-rule="evenodd"/>
              <path id="Trazado_995391" data-name="Trazado 995391" d="M9.918,39.985l.04.151-2.247.6a.6.6,0,0,0-.421.73L10.728,54.3l-.152.041a.6.6,0,0,1-.73-.421L6.368,40.936a.6.6,0,0,1,.421-.73l2.4-.643a.6.6,0,0,1,.73.421Z" fill="#42a5f5" fill-rule="evenodd"/>
            </g>
            <g id="Grupo_1177471" data-name="Grupo 1177471">
              <circle id="Elipse_13722" data-name="Elipse 13722" cx="12.343" cy="12.343" r="12.343" transform="translate(15.324 12.095)" fill="#fdb800"/>
              <path id="Trazado_995392" data-name="Trazado 995392" d="M35.667,15.04a12.342,12.342,0,1,1-17.4,17.4,12.342,12.342,0,0,0,17.4-17.4Z" fill="#f4a40e" fill-rule="evenodd"/>
              <ellipse id="Elipse_13723" data-name="Elipse 13723" cx="8.619" cy="8.619" rx="8.619" ry="8.619" transform="translate(18.791 32.767) rotate(-88.224)" fill="#ffda2d"/>
              <g id="Grupo_1177470" data-name="Grupo 1177470">
                <path id="Trazado_995393" data-name="Trazado 995393" d="M27.667,15.823a8.591,8.591,0,0,1,6.308,2.748A8.615,8.615,0,0,0,22.562,31.377a8.615,8.615,0,0,1,5.1-15.554Z" fill="#ffc700" fill-rule="evenodd"/>
                <path id="Trazado_995394" data-name="Trazado 995394" d="M26.092,20.056a.865.865,0,0,1,1.729,0v.717a2.7,2.7,0,0,1,1.653,1.056.863.863,0,0,1-1.4,1.013.95.95,0,0,0-.333-.29.921.921,0,0,0-.422-.1h-.565a.929.929,0,0,0,0,1.859h.4a2.659,2.659,0,0,1,.664,5.233V30.3a.865.865,0,1,1-1.729,0V29.58a2.7,2.7,0,0,1-1.653-1.056.863.863,0,0,1,1.4-1.013.95.95,0,0,0,.333.29.921.921,0,0,0,.423.1h.565a.929.929,0,0,0,0-1.859h-.4a2.659,2.659,0,0,1-.664-5.233Z" fill="#ffc700" fill-rule="evenodd"/>
              </g>
            </g>
          </g>
          <path id="Trazado_995395" data-name="Trazado 995395" d="M24.81,22.647A2.663,2.663,0,0,1,26.8,20.072V19.32a.865.865,0,1,1,1.73,0v.716a2.669,2.669,0,0,1,1.655,1.057.865.865,0,1,1-1.4,1.013.932.932,0,0,0-.753-.388h-.564a.929.929,0,1,0,0,1.858h.4a2.658,2.658,0,0,1,.664,5.233v.752a.865.865,0,0,1-1.73,0v-.716a2.681,2.681,0,0,1-1.655-1.057.865.865,0,0,1,1.4-1.014.933.933,0,0,0,.753.389h.565a.929.929,0,0,0,0-1.859h-.4a2.661,2.661,0,0,1-2.658-2.658Zm2.859-5.957a7.75,7.75,0,1,0,7.75,7.75,7.759,7.759,0,0,0-7.75-7.75Zm0,17.23a9.48,9.48,0,1,0-9.479-9.479A9.489,9.489,0,0,0,27.668,33.92Zm0-20.957A11.478,11.478,0,1,0,39.147,24.441,11.491,11.491,0,0,0,27.668,12.963Zm0,24.685A13.207,13.207,0,1,0,14.46,24.441,13.222,13.222,0,0,0,27.668,37.648ZM52,24.441a.874.874,0,0,1-.291.65L49.756,26.8a.864.864,0,1,1-1.137-1.3l.219-.191H44.516a.864.864,0,0,1,0-1.729h4.323l-.219-.191a.864.864,0,1,1,1.137-1.3l1.952,1.706a.874.874,0,0,1,.291.65ZM38.97,13.139a.863.863,0,0,1,0-1.222l3.054-3.055-.29.019a.865.865,0,0,1-.115-1.726l2.585-.171a.864.864,0,0,1,.92.919l-.172,2.585a.864.864,0,0,1-.861.807l-.059,0a.864.864,0,0,1-.8-.92l.019-.289-3.055,3.054a.864.864,0,0,1-1.222,0ZM5.58,26.8,3.63,25.092a.865.865,0,0,1,0-1.3l1.95-1.706a.864.864,0,0,1,1.138,1.3l-.219.191H10.82a.864.864,0,1,1,0,1.729H6.5l.219.191a.864.864,0,0,1-.571,1.515A.856.856,0,0,1,5.58,26.8ZM10.211,7.9a.865.865,0,0,1,.92-.919l2.585.171A.865.865,0,0,1,13.6,8.881l-.29-.019,3.055,3.055a.865.865,0,0,1-1.223,1.223l-3.054-3.055.018.289a.863.863,0,0,1-.8.92l-.059,0a.865.865,0,0,1-.861-.807Zm15.1-5.551L27.017.4a.865.865,0,0,1,1.3,0l1.707,1.949a.865.865,0,0,1-1.3,1.139l-.191-.218v4.32a.865.865,0,0,1-1.73,0V3.273l-.191.218a.865.865,0,0,1-1.3-1.139ZM41.435,42.517,27.186,50.744a4.023,4.023,0,0,1-3.044.389l-5.7-1.306a6.113,6.113,0,0,0-4.879.805l-2.4-8.968,2.893-2.215a3.236,3.236,0,0,1,2.824-.807l9.947,2.707a2.088,2.088,0,0,1-1.1,4.03l-5.314-1.445a.864.864,0,1,0-.454,1.668l5.314,1.446a3.811,3.811,0,0,0,4.375-1.9l9.978-5.76a1.814,1.814,0,0,1,2.466.66A1.808,1.808,0,0,1,41.435,42.517ZM10.564,53.434l1.831-.491L9.107,40.671l-1.831.491ZM41.446,37.545a3.53,3.53,0,0,1,.854,6.47L28.05,52.242a5.531,5.531,0,0,1-2.808.752,6.65,6.65,0,0,1-1.487-.175l-5.7-1.306a4.529,4.529,0,0,0-4.018.886l.1.364a1.454,1.454,0,0,1-1.027,1.779l-2.368.634a1.451,1.451,0,0,1-1.779-1.027L5.533,41.342a1.455,1.455,0,0,1,1.028-1.779l2.367-.634a1.452,1.452,0,0,1,1.748.931l2.33-1.785a4.923,4.923,0,0,1,4.33-1.1l9.947,2.707a3.824,3.824,0,0,1,2.787,3.235l8.7-5.021A3.507,3.507,0,0,1,41.446,37.545Z" fill-rule="evenodd"/>
        </g>
      </g>
    </g>
  </g>
</svg>
