<svg xmlns="http://www.w3.org/2000/svg" xmlns:xlink="http://www.w3.org/1999/xlink" width="59.711" height="59.711" viewBox="0 0 59.711 59.711">
  <defs>
    <clipPath id="clip-path">
      <rect id="Rectángulo_454588" data-name="Rectángulo 454588" width="55.118" height="55.118" transform="translate(744.042 9170.297)" fill="#fff" stroke="#707070" stroke-width="1"/>
    </clipPath>
  </defs>
  <g id="Grupo_1177598" data-name="Grupo 1177598" transform="translate(-542.289 -4601.764)">
    <g id="Grupo_1177451" data-name="Grupo 1177451" transform="translate(-199.457 -4566.236)">
      <path id="Elipse_5729" data-name="Elipse 5729" d="M29.855,0A29.855,29.855,0,1,1,0,29.855,29.855,29.855,0,0,1,29.855,0Z" transform="translate(741.746 9168)" fill="#02614b"/>
      <g id="Enmascarar_grupo_1119172" data-name="Enmascarar grupo 1119172" clip-path="url(#clip-path)">
        <g id="proteccion-ambiental" transform="translate(743.153 9169.155)">
          <circle id="Elipse_13718" data-name="Elipse 13718" cx="16.007" cy="16.007" r="16.007" transform="translate(12.45 13.339)" fill="#cbe1ff"/>
          <path id="Trazado_995378" data-name="Trazado 995378" d="M31.827,41.12l-.667,4a16.01,16.01,0,0,1-11.988-2.73l.987-3.9a2.668,2.668,0,0,0-.365-2.125l-1.361-2.036a2.708,2.708,0,0,1-.373-2.125l.373-1.485a2.651,2.651,0,0,0-2.072-3.246l-3.708-.756A15.981,15.981,0,0,1,21.93,14.744l4.286,1.716a2.308,2.308,0,0,1,1.254,3.077L23.9,27.586a2.307,2.307,0,0,0,.827,2.855l.925.6a2.283,2.283,0,0,1,.907,2.641L25.9,35.651a2.312,2.312,0,0,0,2.926,2.917,2.306,2.306,0,0,1,3,2.561Z" fill="#6ed974"/>
          <circle id="Elipse_13719" data-name="Elipse 13719" cx="3.335" cy="3.335" r="3.335" transform="translate(46.465 36.461)" fill="#ffd098"/>
          <path id="Trazado_995379" data-name="Trazado 995379" d="M39.128,51.578l5.336-2.668v6.225H55.136v-8a3.116,3.116,0,0,0-3.112-3.112H45.949a4.454,4.454,0,0,0-2.668.889l-4.153,3.112Z" fill="#ff8080"/>
          <circle id="Elipse_13720" data-name="Elipse 13720" cx="3.335" cy="3.335" r="3.335" transform="translate(25.122 36.461)" fill="#ffd098"/>
          <path id="Trazado_995380" data-name="Trazado 995380" d="M17.786,51.578l5.336-2.668v6.225H33.793V48.911l5.336,2.668V48.021l-3.673-2.757a6.223,6.223,0,0,0-3.735-1.245H24.606a4.454,4.454,0,0,0-2.668.889l-4.153,3.112Z" fill="#4d99ff"/>
          <circle id="Elipse_13721" data-name="Elipse 13721" cx="3.335" cy="3.335" r="3.335" transform="translate(3.779 36.461)" fill="#ffd098"/>
          <path id="Trazado_995381" data-name="Trazado 995381" d="M17.786,48.021l-4.153-3.112a4.454,4.454,0,0,0-2.668-.889H4.891a3.116,3.116,0,0,0-3.112,3.112v8H12.45V48.911l5.336,2.668Z" fill="#ffde66"/>
          <path id="Trazado_995382" data-name="Trazado 995382" d="M29.4,3.29c1.565-1.565,4.713-.943,4.713-.943s.622,3.157-.943,4.713S28.457,8,28.457,8s-.622-3.157.943-4.713Z" fill="#9ae674"/>
          <path id="Trazado_995383" data-name="Trazado 995383" d="M24.366,7.061c-1.387-1.387-.943-4.091-.943-4.091s2.695-.445,4.091.943S28.457,8,28.457,8,25.763,8.448,24.366,7.061Z" fill="#9ae674"/>
          <path id="Trazado_995384" data-name="Trazado 995384" d="M43.495,23.859l-5.932,4.8a1.173,1.173,0,0,1-1.912-1.085l.329-2.01a1.187,1.187,0,0,0-1.156-1.387,1.143,1.143,0,0,0-.694.249,1.174,1.174,0,0,1-1.814-1.316L35.162,14.8a16.064,16.064,0,0,1,8.333,9.053Z" fill="#6ed974"/>
          <path id="Trazado_995385" data-name="Trazado 995385" d="M17.19,39.422a15.093,15.093,0,0,1-3.851-10.076,15.288,15.288,0,0,1,.08-1.574l2.775.56a1.8,1.8,0,0,1,1.165.8,1.75,1.75,0,0,1,.222,1.361l-.391,1.512a3.638,3.638,0,0,0,.507,2.828l1.352,2.028a1.772,1.772,0,0,1,.285.765l1.761-.24a3.514,3.514,0,0,0-.569-1.512l-1.352-2.028a1.8,1.8,0,0,1-.258-1.423l.382-1.494a3.558,3.558,0,0,0-2.757-4.34l-2.828-.569a15.134,15.134,0,0,1,8.261-10.307l3.913,1.556a1.471,1.471,0,0,1,.8.8,1.436,1.436,0,0,1-.009,1.1l-3.584,8.039a3.225,3.225,0,0,0,1.156,3.966l.916.6a1.363,1.363,0,0,1,.614,1.325l1.761.222A3.137,3.137,0,0,0,26.136,30.3l-.916-.6a1.432,1.432,0,0,1-.516-1.761l3.584-8.048a3.185,3.185,0,0,0,.036-2.49,3.233,3.233,0,0,0-1.779-1.779l-2.1-.836a15.2,15.2,0,0,1,4-.551,14.98,14.98,0,0,1,5.585,1.085l-2.57,7.532a2.062,2.062,0,0,0,3.193,2.3.272.272,0,0,1,.391.053.265.265,0,0,1,.053.231l-.329,2.01a2.062,2.062,0,0,0,2.036,2.41,2.071,2.071,0,0,0,1.307-.471l4.918-3.966a14.917,14.917,0,0,1,.542,3.957,15.093,15.093,0,0,1-3.851,10.076l1.325,1.183a16.881,16.881,0,0,0-11.7-28.119V9.026c.169.009.347.018.534.018a5.507,5.507,0,0,0,3.913-1.325c1.876-1.876,1.218-5.362,1.183-5.514a.893.893,0,0,0-.7-.7c-.151-.027-3.637-.694-5.514,1.183a3.681,3.681,0,0,0-.551.72c-.027-.027-.053-.062-.08-.089-1.7-1.69-4.731-1.209-4.864-1.192a.888.888,0,0,0-.729.729c-.018.124-.5,3.166,1.192,4.864a5.306,5.306,0,0,0,3.735,1.272h.089V12.53a16.881,16.881,0,0,0-11.7,28.119l1.325-1.183ZM42.428,23.584l-5.442,4.393a.271.271,0,0,1-.329.027.274.274,0,0,1-.133-.293l.329-2.01a2.063,2.063,0,0,0-.445-1.672,2.1,2.1,0,0,0-2.819-.329.245.245,0,0,1-.329,0,.264.264,0,0,1-.107-.32l2.508-7.345a15.232,15.232,0,0,1,6.767,7.532ZM30.022,3.913a4.456,4.456,0,0,1,3.29-.783,4.416,4.416,0,0,1-.783,3.29,4.34,4.34,0,0,1-3.13.791,7.423,7.423,0,0,0-.124-1.583A3.07,3.07,0,0,1,30.013,3.9ZM24.989,6.43a3.737,3.737,0,0,1-.747-2.641,3.825,3.825,0,0,1,2.641.747,3.737,3.737,0,0,1,.747,2.641A3.825,3.825,0,0,1,24.989,6.43Z"/>
          <path id="Trazado_995386" data-name="Trazado 995386" d="M52.325,43.157a4.224,4.224,0,1,0-5.087-.027H45.949a5.388,5.388,0,0,0-3.2,1.067L39.128,46.91l-3.139-2.357a7.177,7.177,0,0,0-4.269-1.423h-.7a4.224,4.224,0,1,0-5.122,0H24.606a5.388,5.388,0,0,0-3.2,1.067L17.786,46.91,14.166,44.2a5.388,5.388,0,0,0-3.2-1.067H9.675a4.224,4.224,0,1,0-5.087.027,4,4,0,0,0-3.7,3.975v8a.892.892,0,0,0,.889.889H12.45a.892.892,0,0,0,.889-.889V50.351l4.046,2.028a.915.915,0,0,0,.791,0l4.046-2.028v4.784a.892.892,0,0,0,.889.889H33.784a.892.892,0,0,0,.889-.889V50.351l4.046,2.028a.915.915,0,0,0,.791,0c.249-.116,4.046-2.019,4.046-2.019v4.784a.892.892,0,0,0,.889.889H55.118a.892.892,0,0,0,.889-.889v-8a4,4,0,0,0-3.7-3.975ZM7.114,37.35A2.446,2.446,0,1,1,4.669,39.8,2.444,2.444,0,0,1,7.114,37.35ZM16.9,50.138,12.85,48.11a.9.9,0,0,0-.863.036.888.888,0,0,0-.418.756v5.336h-8.9V47.123A2.224,2.224,0,0,1,4.891,44.9h6.074a3.559,3.559,0,0,1,2.134.711l3.8,2.846v1.672ZM28.457,37.35A2.446,2.446,0,1,1,26.012,39.8,2.444,2.444,0,0,1,28.457,37.35Zm9.782,12.788L34.193,48.11a.9.9,0,0,0-.863.036.888.888,0,0,0-.418.756v5.336H24.02V48.9a.888.888,0,0,0-.418-.756.877.877,0,0,0-.863-.036l-4.046,2.028V48.466l3.8-2.846a3.559,3.559,0,0,1,2.134-.711h7.114a5.388,5.388,0,0,1,3.2,1.067l3.317,2.49v1.672ZM49.8,37.35A2.446,2.446,0,1,1,47.354,39.8,2.444,2.444,0,0,1,49.8,37.35Zm4.446,16.9H45.353V48.911a.888.888,0,0,0-.418-.756.877.877,0,0,0-.863-.036l-4.046,2.028V48.475l3.8-2.846a3.559,3.559,0,0,1,2.134-.711h6.074a2.224,2.224,0,0,1,2.223,2.223v7.114Z"/>
        </g>
      </g>
    </g>
  </g>
</svg>
