<svg xmlns="http://www.w3.org/2000/svg" xmlns:xlink="http://www.w3.org/1999/xlink" width="96" height="96" viewBox="0 0 96 96">
  <defs>
    <clipPath id="clip-path">
      <rect id="Rectángulo_454588" data-name="Rectángulo 454588" width="88" height="88" transform="translate(745.746 9172)" fill="#fff" stroke="#707070" stroke-width="1"/>
    </clipPath>
  </defs>
  <g id="Grupo_1177372" data-name="Grupo 1177372" transform="translate(-741.746 -9168)">
    <path id="Elipse_5729" data-name="Elipse 5729" d="M48,0A48,48,0,1,1,0,48,48,48,0,0,1,48,0Z" transform="translate(741.746 9168)" fill="#02614b"/>
    <g id="Enmascarar_grupo_1119164" data-name="Enmascarar grupo 1119164" clip-path="url(#clip-path)">
      <g id="ecosistema" transform="translate(741.194 9167.595)">
        <circle id="Elipse_13706" data-name="Elipse 13706" cx="5.032" cy="5.032" r="5.032" transform="translate(14.692 14.692)" fill="#f9c300"/>
        <path id="Trazado_994921" data-name="Trazado 994921" d="M18.063,14.848a5.033,5.033,0,0,0,0,9.752,5.033,5.033,0,0,0,0-9.752Z" fill="#ffc800" fill-rule="evenodd"/>
        <path id="Trazado_994922" data-name="Trazado 994922" d="M60.466,11.338A9.979,9.979,0,0,0,48.73,17.819a6.595,6.595,0,0,0,.007,13.19h32.3a9.969,9.969,0,1,0-2.3-19.671,9.971,9.971,0,0,0-18.271,0Z" fill="#7dc4f0" fill-rule="evenodd"/>
        <path id="Trazado_994923" data-name="Trazado 994923" d="M66.25,6.725a9.435,9.435,0,0,0-5.616,5.144A9.408,9.408,0,0,0,49.57,17.978a6.217,6.217,0,0,0,.007,12.435H74.034a9.4,9.4,0,0,0,9.4-9.4c0-4.335-3.335-7.38-8.522-7.38a9.417,9.417,0,0,0-2.169.252c0-2.354-1.787-6.931-6.491-7.162Z" fill="#97c9e8" fill-rule="evenodd"/>
        <path id="Trazado_994924" data-name="Trazado 994924" d="M27.31,54.1a31.123,31.123,0,0,1,19.213,3.932A30.519,30.519,0,0,1,59.534,72.709a30.517,30.517,0,0,1-19.213-3.931A31.125,31.125,0,0,1,27.31,54.1Z" fill="#b1dc6c" fill-rule="evenodd"/>
        <path id="Trazado_994925" data-name="Trazado 994925" d="M31.362,53.92a30.48,30.48,0,0,1,15.16,4.117A30.051,30.051,0,0,1,58.279,70.15a29.937,29.937,0,0,1-15.191-4.138A30.614,30.614,0,0,1,31.362,53.92Z" fill="#baeb6c" fill-rule="evenodd"/>
        <path id="Trazado_994926" data-name="Trazado 994926" d="M59.534,78.731A30.521,30.521,0,0,1,72.546,64.058a31.122,31.122,0,0,1,19.213-3.931A31.12,31.12,0,0,1,78.747,74.8a30.518,30.518,0,0,1-19.213,3.932Z" fill="#4bbd5c" fill-rule="evenodd"/>
        <path id="Trazado_994927" data-name="Trazado 994927" d="M86.2,59.992a30.486,30.486,0,0,1-11.162,11.1,29.848,29.848,0,0,1-13.7,4.1,29.944,29.944,0,0,1,11.2-11.128A30.376,30.376,0,0,1,86.2,59.992Z" fill="#49cb5c" fill-rule="evenodd"/>
        <path id="Trazado_994928" data-name="Trazado 994928" d="M26.593,55.162a31.921,31.921,0,0,0,13.342,15.02,31.036,31.036,0,0,0,18.047,4.186V89.224H6.069a1.517,1.517,0,1,0,0,3.034H91.034a1.517,1.517,0,1,0,0-3.034H61.016V80.261a31.04,31.04,0,0,0,18.047-4.186A31.922,31.922,0,0,0,92.417,61.027a1.519,1.519,0,0,0-1.262-2.137,31.921,31.921,0,0,0-19.679,4.045,30.663,30.663,0,0,0-10.46,9.741V63.724a1.517,1.517,0,0,0-3.035,0v3.059a30.663,30.663,0,0,0-10.46-9.741A31.923,31.923,0,0,0,27.813,53a1.518,1.518,0,0,0-1.22,2.161ZM13.655,49.18V64.534A18.673,18.673,0,0,0,32.328,83.207H48.552a1.517,1.517,0,0,0,0-3.035H32.328A15.637,15.637,0,0,1,16.69,64.534V49.18l1.133,1.133a1.517,1.517,0,0,0,2.146-2.145l-3.724-3.724a1.516,1.516,0,0,0-2.145,0l-3.724,3.724a1.517,1.517,0,0,0,2.145,2.145ZM88.683,61.761a28.579,28.579,0,0,0-15.7,3.805,28.027,28.027,0,0,0-11.159,11.7,28.02,28.02,0,0,0,15.71-3.814,28.575,28.575,0,0,0,11.143-11.69ZM57.169,71.372a28.025,28.025,0,0,0-11.158-11.7,28.581,28.581,0,0,0-15.7-3.805,28.571,28.571,0,0,0,11.143,11.69,28.017,28.017,0,0,0,15.71,3.814ZM71.789,48.51v3.035a1.517,1.517,0,0,0,3.035,0V48.51a1.517,1.517,0,0,0-3.035,0Zm6.781,0v3.035a1.517,1.517,0,1,0,3.034,0V48.51a1.517,1.517,0,1,0-3.034,0Zm-13.561,0v3.035a1.517,1.517,0,0,0,3.035,0V48.51a1.517,1.517,0,0,0-3.035,0Zm-13.56,0v3.035a1.517,1.517,0,0,0,3.034,0V48.51a1.517,1.517,0,0,0-3.034,0Zm6.78,0v3.035a1.517,1.517,0,0,0,3.035,0V48.51a1.517,1.517,0,0,0-3.035,0Zm0-9.1v3.035a1.517,1.517,0,0,0,3.035,0V39.406a1.517,1.517,0,0,0-3.035,0Zm20.341,0v3.035a1.517,1.517,0,1,0,3.034,0V39.406a1.517,1.517,0,1,0-3.034,0Zm-6.781,0v3.035a1.517,1.517,0,0,0,3.035,0V39.406a1.517,1.517,0,0,0-3.035,0Zm-20.341,0v3.035a1.517,1.517,0,0,0,3.034,0V39.406a1.517,1.517,0,0,0-3.034,0Zm13.56,0v3.035a1.517,1.517,0,0,0,3.035,0V39.406a1.517,1.517,0,0,0-3.035,0ZM21.242,33.379V30.345a1.517,1.517,0,1,0-3.035,0v3.034a1.517,1.517,0,1,0,3.035,0ZM51.448,31.82v1.517a1.517,1.517,0,0,0,3.034,0V31.82h3.747v1.517a1.517,1.517,0,0,0,3.035,0V31.82h3.746v1.517a1.517,1.517,0,0,0,3.035,0V31.82H71.79v1.517a1.517,1.517,0,0,0,3.035,0V31.82H78.57v1.517a1.517,1.517,0,1,0,3.034,0V31.82h.348a10.6,10.6,0,1,0-2.446-20.915,10.6,10.6,0,0,0-19.426,0A10.607,10.607,0,0,0,47.6,17.8a7.012,7.012,0,0,0,.007,14.024ZM27.866,30.791l-1.518-2.628a1.517,1.517,0,0,0-2.628,1.518l1.517,2.628a1.517,1.517,0,0,0,2.628-1.517ZM13.1,28.163l-1.517,2.628a1.517,1.517,0,0,0,2.628,1.517l1.517-2.628A1.518,1.518,0,0,0,13.1,28.163ZM60.454,14.2a1.517,1.517,0,0,0,2.032-1.013,7.568,7.568,0,0,1,14.614,0A1.517,1.517,0,0,0,79.132,14.2a7.566,7.566,0,1,1,2.82,14.587H47.609a3.978,3.978,0,1,1,.812-7.873,1.518,1.518,0,0,0,1.8-1.187A7.571,7.571,0,0,1,60.454,14.2ZM9.768,23.721,7.14,25.238a1.517,1.517,0,0,0,1.517,2.628l2.628-1.518a1.517,1.517,0,1,0-1.517-2.628Zm22.541,1.517-2.628-1.517a1.517,1.517,0,1,0-1.518,2.628l2.628,1.518a1.517,1.517,0,0,0,1.517-2.628Zm-12.585-13.1a7.586,7.586,0,1,0,7.586,7.586,7.589,7.589,0,0,0-7.586-7.586Zm0,3.034a4.552,4.552,0,1,1-4.552,4.552,4.554,4.554,0,0,1,4.552-4.552ZM6.069,21.242H9.1a1.517,1.517,0,0,0,0-3.035H6.069a1.517,1.517,0,0,0,0,3.035Zm24.276,0h3.034a1.517,1.517,0,1,0,0-3.035H30.345a1.517,1.517,0,1,0,0,3.035ZM11.285,13.1,8.657,11.582A1.517,1.517,0,0,0,7.14,14.211l2.628,1.517A1.517,1.517,0,0,0,11.285,13.1Zm19.507-1.517L28.163,13.1a1.518,1.518,0,0,0,1.518,2.628l2.628-1.517a1.517,1.517,0,0,0-1.517-2.628ZM15.728,9.768,14.211,7.14a1.517,1.517,0,1,0-2.628,1.517L13.1,11.285a1.517,1.517,0,0,0,2.628-1.517Zm9.51-2.628L23.721,9.768a1.517,1.517,0,1,0,2.628,1.517l1.518-2.628A1.517,1.517,0,0,0,25.238,7.14Zm-4,1.963V6.069a1.517,1.517,0,0,0-3.035,0V9.1a1.517,1.517,0,0,0,3.035,0Z" fill="#2e2e2e" fill-rule="evenodd"/>
      </g>
    </g>
  </g>
</svg>
