<svg xmlns="http://www.w3.org/2000/svg" xmlns:xlink="http://www.w3.org/1999/xlink" width="96" height="96" viewBox="0 0 96 96">
  <defs>
    <clipPath id="clip-path">
      <rect id="Rectángulo_454588" data-name="Rectángulo 454588" width="88" height="88" transform="translate(745.746 9172)" fill="#fff" stroke="#707070" stroke-width="1"/>
    </clipPath>
  </defs>
  <g id="Grupo_1177369" data-name="Grupo 1177369" transform="translate(-741.746 -9168)">
    <path id="Elipse_5729" data-name="Elipse 5729" d="M48,0A48,48,0,1,1,0,48,48,48,0,0,1,48,0Z" transform="translate(741.746 9168)" fill="#02614b"/>
    <g id="Enmascarar_grupo_1119162" data-name="Enmascarar grupo 1119162" clip-path="url(#clip-path)">
      <g id="calidad-del-agua" transform="translate(744.145 9170.398)">
        <g id="Grupo_1177397" data-name="Grupo 1177397">
          <g id="Grupo_1177394" data-name="Grupo 1177394">
            <path id="Trazado_994895" data-name="Trazado 994895" d="M14.716,2.712C9.476,14.342-3.027,31.79,6.08,42.842c4.75,5.764,12.522,5.764,17.272,0,9.213-11.18-4-29.851-8.636-40.13Z" fill="#4fc0e8" fill-rule="evenodd"/>
          </g>
          <g id="Grupo_1177395" data-name="Grupo 1177395">
            <path id="Trazado_994896" data-name="Trazado 994896" d="M31.646,10.94c-5.759,12.784-19.5,31.962-9.492,44.11,5.221,6.336,13.764,6.336,18.985,0,10.126-12.289-4.4-32.811-9.492-44.11Z" fill="#66d4f1" fill-rule="evenodd"/>
          </g>
          <g id="Grupo_1177396" data-name="Grupo 1177396">
            <path id="Trazado_994897" data-name="Trazado 994897" d="M61.939,39.622h5.107V49.48H61.939Z" transform="translate(-12.615 58.661) rotate(-45)" fill="#cad0d7" fill-rule="evenodd"/>
            <circle id="Elipse_13704" data-name="Elipse 13704" cx="18.276" cy="18.276" r="18.276" transform="translate(31.341 11.396)" fill="#e4e8eb"/>
            <circle id="Elipse_13705" data-name="Elipse 13705" cx="13.928" cy="13.928" r="13.928" transform="translate(33.63 18.159) rotate(-9.208)" fill="#a4d4ff"/>
            <path id="Trazado_994898" data-name="Trazado 994898" d="M65.359,48.174l2.76-2.76a2.351,2.351,0,0,1,3.315,0L84.116,58.1a2.351,2.351,0,0,1,0,3.315l-2.76,2.76a2.351,2.351,0,0,1-3.315,0L65.359,51.489a2.351,2.351,0,0,1,0-3.315Z" fill="#a9b0bb" fill-rule="evenodd"/>
          </g>
        </g>
        <path id="Trazado_994899" data-name="Trazado 994899" d="M40.55,28.1l3.263,6.525a1.248,1.248,0,0,0,1.851.449l11.66-8.523a1.247,1.247,0,0,0-1.472-2.014L45.383,32.194l-2.6-5.206A1.247,1.247,0,0,0,40.55,28.1ZM36.934,29.81A12.683,12.683,0,1,1,49.617,42.492,12.7,12.7,0,0,1,36.934,29.81Zm-2.494,0A15.177,15.177,0,1,1,49.617,44.987,15.194,15.194,0,0,1,34.441,29.81ZM30.988,53.633a1.368,1.368,0,0,0,.165.01,1.247,1.247,0,0,0,.162-2.483,3.917,3.917,0,0,1-2.4-1.541C27.4,47.792,26.995,45.2,27.657,41.7a1.247,1.247,0,1,0-2.451-.463c-.8,4.217-.2,7.572,1.779,9.971A6.332,6.332,0,0,0,30.988,53.633ZM14.1,41.677a1.247,1.247,0,1,0,.328-2.472,3.461,3.461,0,0,1-2.116-1.362C10.967,36.208,10.6,33.88,11.2,30.727a1.247,1.247,0,1,0-2.451-.463c-.732,3.871-.179,6.955,1.642,9.164A5.872,5.872,0,0,0,14.1,41.677Zm-7.06.509c-3.018-3.664-3.7-8.47-2.095-14.7,1.457-5.64,4.58-11.654,7.336-16.96.86-1.656,1.689-3.254,2.44-4.78.65,1.3,1.377,2.683,2.129,4.115a104.366,104.366,0,0,1,6.7,14.538c-3.419,6.972-6.432,14.455-6.174,21.251-3.7,1.143-7.588-.138-10.331-3.467Zm13.747-4.054C22.394,31.92,25.83,25.3,28.862,19.464c.988-1.9,1.938-3.733,2.791-5.477.675,1.355,1.431,2.8,2.217,4.3a19.51,19.51,0,0,0,9.209,29.921,13.613,13.613,0,0,1-2.9,6.188,11.038,11.038,0,0,1-8.53,4.3,11.037,11.037,0,0,1-8.53-4.3c-3.345-4.058-4.106-9.378-2.327-16.261Zm11.8-8.322A17.029,17.029,0,1,1,49.617,46.839,17.049,17.049,0,0,1,32.588,29.81Zm31.72,12.842A19.59,19.59,0,0,1,62.46,44.5l2.473,2.474,1.848-1.848Zm5.468,3.46a1.1,1.1,0,0,0-.776.321l-2.759,2.76a1.1,1.1,0,0,0,0,1.552L78.924,63.428a1.1,1.1,0,0,0,1.551,0l2.76-2.761a1.1,1.1,0,0,0,0-1.552L70.552,46.433A1.1,1.1,0,0,0,69.777,46.112ZM5.118,43.772C-2.8,34.165,4.337,20.423,10.07,9.381c1.3-2.513,2.537-4.887,3.509-7.044a1.247,1.247,0,0,1,2.274,0c.838,1.859,1.988,4.049,3.207,6.369a124.357,124.357,0,0,1,6.027,12.633c.524-1.025,1.048-2.034,1.562-3.023,1.435-2.764,2.79-5.375,3.861-7.75a1.247,1.247,0,0,1,2.274,0c.758,1.683,1.751,3.613,2.824,5.664A19.513,19.513,0,0,1,65.841,40.658l3.071,3.071a3.589,3.589,0,0,1,3.4.941L85,57.352a3.6,3.6,0,0,1,0,5.079L82.239,65.19a3.595,3.595,0,0,1-5.078,0L64.478,52.509a3.589,3.589,0,0,1-.941-3.4l-3.071-3.071A19.5,19.5,0,0,1,45.48,48.89a16.265,16.265,0,0,1-3.379,7.09,13.486,13.486,0,0,1-10.455,5.2,13.486,13.486,0,0,1-10.455-5.2,16.371,16.371,0,0,1-3.56-7.811,11.455,11.455,0,0,1-2.893.375,12.507,12.507,0,0,1-9.621-4.772ZM87.472,76.6l-8.486,8.484a6.913,6.913,0,0,1-9.767,0l-2.72-2.72a9.415,9.415,0,0,0-13.293,0l-2.721,2.72a6.913,6.913,0,0,1-9.766,0L38,82.369a9.415,9.415,0,0,0-13.293,0l-2.721,2.72a6.913,6.913,0,0,1-9.767,0L3.732,76.6a1.246,1.246,0,0,0-1.764,1.762l8.486,8.486a9.41,9.41,0,0,0,13.294,0l2.721-2.72a6.92,6.92,0,0,1,9.767,0l2.721,2.72a9.411,9.411,0,0,0,13.294,0l2.72-2.72a6.92,6.92,0,0,1,9.767,0l2.72,2.72a9.41,9.41,0,0,0,13.294,0l8.486-8.486A1.246,1.246,0,0,0,87.472,76.6ZM1.968,65.614a1.247,1.247,0,0,1,1.764-1.764l8.486,8.486a6.923,6.923,0,0,0,9.767,0L24.7,69.615a9.415,9.415,0,0,1,13.293,0l2.721,2.722a6.922,6.922,0,0,0,9.766,0l2.721-2.722a9.415,9.415,0,0,1,13.293,0l2.72,2.722a6.923,6.923,0,0,0,9.767,0l8.486-8.486a1.247,1.247,0,0,1,1.764,1.764L80.75,74.1a9.416,9.416,0,0,1-13.294,0l-2.72-2.722a6.92,6.92,0,0,0-9.767,0L52.249,74.1a9.415,9.415,0,0,1-13.294,0l-2.721-2.722a6.92,6.92,0,0,0-9.767,0L23.747,74.1a9.415,9.415,0,0,1-13.293,0Z" fill-rule="evenodd"/>
      </g>
    </g>
  </g>
</svg>
