<svg xmlns="http://www.w3.org/2000/svg" xmlns:xlink="http://www.w3.org/1999/xlink" width="96" height="96" viewBox="0 0 96 96">
  <defs>
    <clipPath id="clip-path">
      <rect id="Rectángulo_454588" data-name="Rectángulo 454588" width="88" height="88" transform="translate(745.746 9172)" fill="#fff" stroke="#707070" stroke-width="1"/>
    </clipPath>
  </defs>
  <g id="Grupo_1177373" data-name="Grupo 1177373" transform="translate(-741.746 -9168)">
    <path id="Elipse_5729" data-name="Elipse 5729" d="M48,0A48,48,0,1,1,0,48,48,48,0,0,1,48,0Z" transform="translate(741.746 9168)" fill="#02614b"/>
    <g id="Enmascarar_grupo_1119163" data-name="Enmascarar grupo 1119163" clip-path="url(#clip-path)">
      <g id="riego" transform="translate(746.224 9172.48)">
        <g id="Grupo_1177398" data-name="Grupo 1177398">
          <rect id="Rectángulo_454846" data-name="Rectángulo 454846" width="8.264" height="19.692" transform="translate(39.391 46.932)" fill="#bad6e5"/>
          <rect id="Rectángulo_454847" data-name="Rectángulo 454847" width="4.25" height="19.691" transform="translate(39.39 46.932)" fill="#8abbd5"/>
          <path id="Trazado_994900" data-name="Trazado 994900" d="M53.406,76.007H33.639l1.224-9.856a2.04,2.04,0,0,1,2.025-1.789H50.158a2.04,2.04,0,0,1,2.025,1.789Z" fill="#e5eef9"/>
          <path id="Trazado_994901" data-name="Trazado 994901" d="M41.137,64.362a2.04,2.04,0,0,0-2.025,1.789l-1.224,9.857h-4.25l1.224-9.857a2.04,2.04,0,0,1,2.025-1.789Z" fill="#d5e3f4"/>
          <path id="Trazado_994902" data-name="Trazado 994902" d="M84.41,78.367H2.635a1.36,1.36,0,0,1-1.36-1.36v-3.23a1.36,1.36,0,0,1,1.36-1.36H84.41a1.36,1.36,0,0,1,1.36,1.36v3.23A1.36,1.36,0,0,1,84.41,78.367Z" fill="#bbec6c"/>
          <path id="Trazado_994903" data-name="Trazado 994903" d="M6.885,78.367H2.635a1.36,1.36,0,0,1-1.36-1.36v-3.23a1.36,1.36,0,0,1,1.36-1.36h4.25a1.36,1.36,0,0,0-1.36,1.36v3.23A1.36,1.36,0,0,0,6.885,78.367Z" fill="#a2e62e"/>
          <path id="Trazado_994904" data-name="Trazado 994904" d="M21.888,48.777H19.022a6.3,6.3,0,0,0-6.3,6.3v2.866h2.866a6.3,6.3,0,0,0,6.3-6.3Z" fill="#bbec6c"/>
          <path id="Trazado_994905" data-name="Trazado 994905" d="M3.555,54.785v2.866a6.3,6.3,0,0,0,6.3,6.3h2.866V61.086a6.3,6.3,0,0,0-6.3-6.3Z" fill="#bbec6c"/>
          <path id="Trazado_994906" data-name="Trazado 994906" d="M83.491,48.777H80.625a6.3,6.3,0,0,0-6.3,6.3v2.866H77.19a6.3,6.3,0,0,0,6.3-6.3Z" fill="#bbec6c"/>
          <path id="Trazado_994907" data-name="Trazado 994907" d="M65.158,54.785v2.866a6.3,6.3,0,0,0,6.3,6.3h2.866V61.086a6.3,6.3,0,0,0-6.3-6.3Z" fill="#bbec6c"/>
          <path id="Trazado_994908" data-name="Trazado 994908" d="M48.915,48.777H38.13a1.36,1.36,0,0,1-1.27-.872l-2.623-6.829a1.36,1.36,0,0,1,1.27-1.848H51.538a1.36,1.36,0,0,1,1.27,1.848L50.185,47.9A1.36,1.36,0,0,1,48.915,48.777Z" fill="#e5eef9"/>
          <path id="Trazado_994909" data-name="Trazado 994909" d="M42.38,48.777H38.13a1.361,1.361,0,0,1-1.27-.872l-2.623-6.829a1.361,1.361,0,0,1,1.27-1.848h4.25a1.361,1.361,0,0,0-1.27,1.848L41.11,47.9A1.361,1.361,0,0,0,42.38,48.777Z" fill="#d5e3f4"/>
        </g>
        <g id="Grupo_1177399" data-name="Grupo 1177399">
          <line id="Línea_3269" data-name="Línea 3269" y1="15.585" transform="translate(47.656 48.777)" fill="none" stroke="#000" stroke-linecap="round" stroke-linejoin="round" stroke-miterlimit="10" stroke-width="2.55"/>
          <line id="Línea_3270" data-name="Línea 3270" y1="3.715" transform="translate(39.39 48.777)" fill="none" stroke="#000" stroke-linecap="round" stroke-linejoin="round" stroke-miterlimit="10" stroke-width="2.55"/>
          <line id="Línea_3271" data-name="Línea 3271" y1="5.92" transform="translate(39.39 58.442)" fill="none" stroke="#000" stroke-linecap="round" stroke-linejoin="round" stroke-miterlimit="10" stroke-width="2.55"/>
          <path id="Trazado_994910" data-name="Trazado 994910" d="M34.084,72.417l.779-6.267a2.04,2.04,0,0,1,2.025-1.789H50.158a2.04,2.04,0,0,1,2.025,1.789l.779,6.267" fill="none" stroke="#000" stroke-linecap="round" stroke-linejoin="round" stroke-miterlimit="10" stroke-width="2.55"/>
          <path id="Trazado_994911" data-name="Trazado 994911" d="M79.053,78.367H84.41a1.36,1.36,0,0,0,1.36-1.36v-3.23a1.36,1.36,0,0,0-1.36-1.36H2.635a1.36,1.36,0,0,0-1.36,1.36v3.23a1.36,1.36,0,0,0,1.36,1.36H73.1" fill="none" stroke="#000" stroke-linecap="round" stroke-linejoin="round" stroke-miterlimit="10" stroke-width="2.55"/>
          <line id="Línea_3272" data-name="Línea 3272" y1="14.474" transform="translate(12.721 57.943)" fill="none" stroke="#000" stroke-linecap="round" stroke-linejoin="round" stroke-miterlimit="10" stroke-width="2.55"/>
          <path id="Trazado_994912" data-name="Trazado 994912" d="M21.888,48.777H19.022a6.3,6.3,0,0,0-6.3,6.3v2.866h2.866a6.3,6.3,0,0,0,6.3-6.3Z" fill="none" stroke="#000" stroke-linecap="round" stroke-linejoin="round" stroke-miterlimit="10" stroke-width="2.55"/>
          <path id="Trazado_994913" data-name="Trazado 994913" d="M3.555,54.785v2.866a6.3,6.3,0,0,0,6.3,6.3h2.866V61.086a6.3,6.3,0,0,0-6.3-6.3Z" fill="none" stroke="#000" stroke-linecap="round" stroke-linejoin="round" stroke-miterlimit="10" stroke-width="2.55"/>
          <line id="Línea_3273" data-name="Línea 3273" y1="14.474" transform="translate(74.324 57.943)" fill="none" stroke="#000" stroke-linecap="round" stroke-linejoin="round" stroke-miterlimit="10" stroke-width="2.55"/>
          <path id="Trazado_994914" data-name="Trazado 994914" d="M83.491,48.777H80.625a6.3,6.3,0,0,0-6.3,6.3v2.866H77.19a6.3,6.3,0,0,0,6.3-6.3Z" fill="none" stroke="#000" stroke-linecap="round" stroke-linejoin="round" stroke-miterlimit="10" stroke-width="2.55"/>
          <path id="Trazado_994915" data-name="Trazado 994915" d="M65.158,54.785v2.866a6.3,6.3,0,0,0,6.3,6.3h2.866V61.086a6.3,6.3,0,0,0-6.3-6.3Z" fill="none" stroke="#000" stroke-linecap="round" stroke-linejoin="round" stroke-miterlimit="10" stroke-width="2.55"/>
          <path id="Trazado_994916" data-name="Trazado 994916" d="M48.915,48.777H38.13a1.36,1.36,0,0,1-1.27-.872l-2.623-6.829a1.36,1.36,0,0,1,1.27-1.848H51.538a1.36,1.36,0,0,1,1.27,1.848L50.185,47.9A1.36,1.36,0,0,1,48.915,48.777Z" fill="none" stroke="#000" stroke-linecap="round" stroke-linejoin="round" stroke-miterlimit="10" stroke-width="2.55"/>
          <path id="Trazado_994917" data-name="Trazado 994917" d="M48.51,23.288Q62.095,5.3,82.72,9.458" fill="none" stroke="#000" stroke-linecap="round" stroke-linejoin="round" stroke-miterlimit="10" stroke-width="2.55" stroke-dasharray="12 30"/>
          <path id="Trazado_994918" data-name="Trazado 994918" d="M48.894,31.393Q67.8,19.127,85.77,30.076" fill="none" stroke="#000" stroke-linecap="round" stroke-linejoin="round" stroke-miterlimit="10" stroke-width="2.55" stroke-dasharray="12 30"/>
          <path id="Trazado_994919" data-name="Trazado 994919" d="M38.535,23.288Q24.951,5.3,4.325,9.458" fill="none" stroke="#000" stroke-linecap="round" stroke-linejoin="round" stroke-miterlimit="10" stroke-width="2.55" stroke-dasharray="12 30"/>
          <path id="Trazado_994920" data-name="Trazado 994920" d="M38.151,31.393Q19.242,19.127,1.275,30.076" fill="none" stroke="#000" stroke-linecap="round" stroke-linejoin="round" stroke-miterlimit="10" stroke-width="2.55" stroke-dasharray="12 30"/>
        </g>
      </g>
    </g>
  </g>
</svg>
