<svg xmlns="http://www.w3.org/2000/svg" xmlns:xlink="http://www.w3.org/1999/xlink" width="104" height="104" viewBox="0 0 104 104">
  <defs>
    <clipPath id="clip-path">
      <rect id="Rectángulo_454588" data-name="Rectángulo 454588" width="96" height="96" transform="translate(745.745 9172)" fill="#fff" stroke="#707070" stroke-width="1"/>
    </clipPath>
    <clipPath id="clip-path-2">
      <path id="path11465" d="M0-96H96V0H0Z"/>
    </clipPath>
  </defs>
  <g id="Grupo_1177363" data-name="Grupo 1177363" transform="translate(-741.746 -9168)">
    <path id="Elipse_5729" data-name="Elipse 5729" d="M52,0A52,52,0,1,1,0,52,52,52,0,0,1,52,0Z" transform="translate(741.746 9168)" fill="#02614b"/>
    <g id="Enmascarar_grupo_1119156" data-name="Enmascarar grupo 1119156" clip-path="url(#clip-path)">
      <g id="g11427" transform="translate(745.745 9268)">
        <g id="g11429" transform="translate(48.287 -86.831)">
          <path id="path11431" d="M0,0V2.446" fill="none" stroke="#000" stroke-linecap="round" stroke-linejoin="round" stroke-miterlimit="10" stroke-width="2.813"/>
        </g>
        <g id="g11433" transform="translate(48.287 -27.146)">
          <path id="path11435" d="M0,0V2.446" fill="none" stroke="#000" stroke-linecap="round" stroke-linejoin="round" stroke-miterlimit="10" stroke-width="2.813"/>
        </g>
        <g id="g11437" transform="translate(70.253 -77.732)">
          <path id="path11439" d="M0,0-1.73,1.73" fill="none" stroke="#000" stroke-linecap="round" stroke-linejoin="round" stroke-miterlimit="10" stroke-width="2.813"/>
        </g>
        <g id="g11441" transform="translate(28.05 -35.529)">
          <path id="path11443" d="M0,0-1.73,1.73" fill="none" stroke="#000" stroke-linecap="round" stroke-linejoin="round" stroke-miterlimit="10" stroke-width="2.813"/>
        </g>
        <g id="g11445" transform="translate(79.352 -55.765)">
          <path id="path11447" d="M0,0H-2.446" fill="none" stroke="#000" stroke-linecap="round" stroke-linejoin="round" stroke-miterlimit="10" stroke-width="2.813"/>
        </g>
        <g id="g11449" transform="translate(19.667 -55.765)">
          <path id="path11451" d="M0,0H-2.446" fill="none" stroke="#000" stroke-linecap="round" stroke-linejoin="round" stroke-miterlimit="10" stroke-width="2.813"/>
        </g>
        <g id="g11453" transform="translate(70.253 -33.799)">
          <path id="path11455" d="M0,0-1.73-1.73" fill="none" stroke="#000" stroke-linecap="round" stroke-linejoin="round" stroke-miterlimit="10" stroke-width="2.813"/>
        </g>
        <g id="g11457" transform="translate(28.05 -76.002)">
          <path id="path11459" d="M0,0-1.73-1.73" fill="none" stroke="#000" stroke-linecap="round" stroke-linejoin="round" stroke-miterlimit="10" stroke-width="2.813"/>
        </g>
        <g id="g11461">
          <g id="g11463" clip-path="url(#clip-path-2)">
            <g id="g11469" transform="translate(69.254 -55.765)">
              <path id="path11471" d="M0,0A20.968,20.968,0,0,1-20.968,20.968,20.968,20.968,0,0,1-41.936,0,20.968,20.968,0,0,1-20.968-20.968,20.968,20.968,0,0,1,0,0" fill="#fcb44d"/>
            </g>
            <g id="g11473" transform="translate(69.254 -55.765)">
              <path id="path11475" d="M0,0A20.968,20.968,0,0,1-20.968,20.968a20.99,20.99,0,0,1-5.158-.639A20.344,20.344,0,0,0-6.632,0,20.346,20.346,0,0,0-26.126-20.329a20.981,20.981,0,0,1,5.158-.639A20.968,20.968,0,0,1,0,0" fill="#fb9927"/>
            </g>
            <g id="g11477" transform="translate(45.143 -76.499)">
              <path id="path11479" d="M0,0A20.972,20.972,0,1,0,6.124-.023" fill="none" stroke="#000" stroke-linecap="round" stroke-linejoin="round" stroke-miterlimit="10" stroke-width="2.813"/>
            </g>
            <g id="g11481" transform="translate(36.398 -84.466)">
              <path id="path11483" d="M0,0,.936,2.26" fill="none" stroke="#000" stroke-linecap="round" stroke-linejoin="round" stroke-miterlimit="10" stroke-width="2.813"/>
            </g>
            <g id="g11485" transform="translate(59.239 -29.325)">
              <path id="path11487" d="M0,0,.936,2.26" fill="none" stroke="#000" stroke-linecap="round" stroke-linejoin="round" stroke-miterlimit="10" stroke-width="2.813"/>
            </g>
            <g id="g11489" transform="translate(60.175 -84.466)">
              <path id="path11491" d="M0,0-.936,2.26" fill="none" stroke="#000" stroke-linecap="round" stroke-linejoin="round" stroke-miterlimit="10" stroke-width="2.813"/>
            </g>
            <g id="g11493" transform="translate(37.334 -29.325)">
              <path id="path11495" d="M0,0-.936,2.26" fill="none" stroke="#000" stroke-linecap="round" stroke-linejoin="round" stroke-miterlimit="10" stroke-width="2.813"/>
            </g>
            <g id="g11497" transform="translate(76.987 -67.654)">
              <path id="path11499" d="M0,0-2.26.936" fill="none" stroke="#000" stroke-linecap="round" stroke-linejoin="round" stroke-miterlimit="10" stroke-width="2.813"/>
            </g>
            <g id="g11501" transform="translate(21.846 -44.813)">
              <path id="path11503" d="M0,0-2.26.936" fill="none" stroke="#000" stroke-linecap="round" stroke-linejoin="round" stroke-miterlimit="10" stroke-width="2.813"/>
            </g>
            <g id="g11505" transform="translate(76.987 -43.877)">
              <path id="path11507" d="M0,0-2.26-.936" fill="none" stroke="#000" stroke-linecap="round" stroke-linejoin="round" stroke-miterlimit="10" stroke-width="2.813"/>
            </g>
            <g id="g11509" transform="translate(21.846 -66.718)">
              <path id="path11511" d="M0,0-2.26-.936" fill="none" stroke="#000" stroke-linecap="round" stroke-linejoin="round" stroke-miterlimit="10" stroke-width="2.813"/>
            </g>
            <g id="g11513" transform="translate(94.594 -61.331)">
              <path id="path11515" d="M0,0A84.953,84.953,0,0,0-77.633,52.162H0Z" fill="#1ca56f"/>
            </g>
            <g id="g11517" transform="translate(29.12 -9.169)">
              <path id="path11519" d="M0,0A71.647,71.647,0,0,1,65.474-43.992V0Z" fill="#0f7a4f"/>
            </g>
            <g id="g11521" transform="translate(41.279 -9.169)">
              <path id="path11523" d="M0,0A58.341,58.341,0,0,1,53.314-35.822V0Z" fill="#1ca56f"/>
            </g>
            <g id="g11525" transform="translate(53.439 -9.169)">
              <path id="path11527" d="M0,0A45.034,45.034,0,0,1,41.155-27.652V0Z" fill="#0f7a4f"/>
            </g>
            <g id="g11529" transform="translate(65.599 -9.169)">
              <path id="path11531" d="M0,0A31.728,31.728,0,0,1,28.995-19.482V0Z" fill="#1ca56f"/>
            </g>
            <g id="g11533" transform="translate(77.758 -9.169)">
              <path id="path11535" d="M0,0A18.423,18.423,0,0,1,16.835-11.312V0Z" fill="#0f7a4f"/>
            </g>
            <g id="g11537" transform="translate(56.19 -41.605)">
              <path id="path11539" d="M0,0A71.282,71.282,0,0,1,38.4-11.556" fill="none" stroke="#000" stroke-linecap="round" stroke-linejoin="round" stroke-miterlimit="10" stroke-width="2.813"/>
            </g>
            <g id="g11541" transform="translate(62.821 -35.251)">
              <path id="path11543" d="M0,0A58.044,58.044,0,0,1,31.773-9.74" fill="none" stroke="#000" stroke-linecap="round" stroke-linejoin="round" stroke-miterlimit="10" stroke-width="2.813"/>
            </g>
            <g id="g11545" transform="translate(68.508 -28.216)">
              <path id="path11547" d="M0,0A44.812,44.812,0,0,1,26.086-8.605" fill="none" stroke="#000" stroke-linecap="round" stroke-linejoin="round" stroke-miterlimit="10" stroke-width="2.813"/>
            </g>
            <g id="g11549" transform="translate(73.419 -20.297)">
              <path id="path11551" d="M0,0A31.6,31.6,0,0,1,21.175-8.354" fill="none" stroke="#000" stroke-linecap="round" stroke-linejoin="round" stroke-miterlimit="10" stroke-width="2.813"/>
            </g>
            <g id="g11553" transform="translate(78.707 -11.106)">
              <path id="path11555" d="M0,0A18.411,18.411,0,0,1,15.887-9.374" fill="none" stroke="#000" stroke-linecap="round" stroke-linejoin="round" stroke-miterlimit="10" stroke-width="2.813"/>
            </g>
            <g id="g11557" transform="translate(56.169 -51.781)">
              <path id="path11559" d="M0,0A84.939,84.939,0,0,0-7.883,4.661" fill="none" stroke="#000" stroke-linecap="round" stroke-linejoin="round" stroke-miterlimit="10" stroke-width="2.813"/>
            </g>
            <g id="g11561" transform="translate(94.594 -61.331)">
              <path id="path11563" d="M0,0A84.618,84.618,0,0,0-32.9,6.923" fill="none" stroke="#000" stroke-linecap="round" stroke-linejoin="round" stroke-miterlimit="10" stroke-width="2.813"/>
            </g>
            <g id="g11565" transform="translate(1.406 -61.331)">
              <path id="path11567" d="M0,0A84.953,84.953,0,0,1,77.633,52.162H0Z" fill="#bcea73"/>
            </g>
            <g id="g11569" transform="translate(66.88 -9.169)">
              <path id="path11571" d="M0,0A71.647,71.647,0,0,0-65.474-43.992V0Z" fill="#8dc637"/>
            </g>
            <g id="g11573" transform="translate(54.72 -9.169)">
              <path id="path11575" d="M0,0A58.341,58.341,0,0,0-53.314-35.822V0Z" fill="#bcea73"/>
            </g>
            <g id="g11577" transform="translate(42.561 -9.169)">
              <path id="path11579" d="M0,0A45.034,45.034,0,0,0-41.155-27.652V0Z" fill="#8dc637"/>
            </g>
            <g id="g11581" transform="translate(30.401 -9.169)">
              <path id="path11583" d="M0,0A31.728,31.728,0,0,0-28.995-19.482V0Z" fill="#bcea73"/>
            </g>
            <g id="g11585" transform="translate(18.242 -9.169)">
              <path id="path11587" d="M0,0A18.423,18.423,0,0,0-16.835-11.312V0Z" fill="#8dc637"/>
            </g>
            <g id="g11589" transform="translate(66.88 -9.169)">
              <path id="path11591" d="M0,0A71.647,71.647,0,0,0-65.474-43.992" fill="none" stroke="#000" stroke-linecap="round" stroke-linejoin="round" stroke-miterlimit="10" stroke-width="2.813"/>
            </g>
            <g id="g11593" transform="translate(54.721 -9.169)">
              <path id="path11595" d="M0,0A58.545,58.545,0,0,0-27.237-29.425" fill="none" stroke="#000" stroke-linecap="round" stroke-linejoin="round" stroke-miterlimit="10" stroke-width="2.813"/>
            </g>
            <g id="g11597" transform="translate(21.88 -41.102)">
              <path id="path11599" d="M0,0A58.164,58.164,0,0,0-20.474-3.889" fill="none" stroke="#000" stroke-linecap="round" stroke-linejoin="round" stroke-miterlimit="10" stroke-width="2.813"/>
            </g>
            <g id="g11601" transform="translate(42.561 -9.169)">
              <path id="path11603" d="M0,0A45.034,45.034,0,0,0-41.155-27.652" fill="none" stroke="#000" stroke-linecap="round" stroke-linejoin="round" stroke-miterlimit="10" stroke-width="2.813"/>
            </g>
            <g id="g11605" transform="translate(30.401 -9.169)">
              <path id="path11607" d="M0,0A31.728,31.728,0,0,0-28.995-19.482" fill="none" stroke="#000" stroke-linecap="round" stroke-linejoin="round" stroke-miterlimit="10" stroke-width="2.813"/>
            </g>
            <g id="g11609" transform="translate(18.242 -9.169)">
              <path id="path11611" d="M0,0A18.423,18.423,0,0,0-16.835-11.312" fill="none" stroke="#000" stroke-linecap="round" stroke-linejoin="round" stroke-miterlimit="10" stroke-width="2.813"/>
            </g>
            <g id="g11613" transform="translate(1.406 -61.331)">
              <path id="path11615" d="M0,0A84.953,84.953,0,0,1,77.633,52.162" fill="none" stroke="#000" stroke-linecap="round" stroke-linejoin="round" stroke-miterlimit="10" stroke-width="2.813"/>
            </g>
          </g>
        </g>
      </g>
    </g>
  </g>
</svg>
