<svg xmlns="http://www.w3.org/2000/svg" xmlns:xlink="http://www.w3.org/1999/xlink" width="96" height="96" viewBox="0 0 96 96">
  <defs>
    <clipPath id="clip-path">
      <rect id="Rectángulo_454588" data-name="Rectángulo 454588" width="88" height="88" transform="translate(745.746 9172)" fill="#fff" stroke="#707070" stroke-width="1"/>
    </clipPath>
  </defs>
  <g id="Grupo_1177368" data-name="Grupo 1177368" transform="translate(-741.746 -9168)">
    <path id="Elipse_5729" data-name="Elipse 5729" d="M48,0A48,48,0,1,1,0,48,48,48,0,0,1,48,0Z" transform="translate(741.746 9168)" fill="#02614b"/>
    <g id="Enmascarar_grupo_1119161" data-name="Enmascarar grupo 1119161" clip-path="url(#clip-path)">
      <g id="la-contaminacion-del-suelo" transform="translate(745.746 9172)">
        <g id="Grupo_1177392" data-name="Grupo 1177392">
          <path id="Trazado_994883" data-name="Trazado 994883" d="M74.25,53.625H86.625V46.75H43.313a3.438,3.438,0,1,0,0,6.875H52.25a4.119,4.119,0,0,1,4.125,4.125A4.131,4.131,0,0,0,60.5,61.875h2.75a4.125,4.125,0,0,1,0,8.25h-22A4.119,4.119,0,0,1,37.125,66,4.131,4.131,0,0,0,33,61.875H17.188a4.818,4.818,0,0,1-4.812-4.812,4.836,4.836,0,0,1,4.813-4.812h5.5a3.438,3.438,0,1,0,0-6.875H1.375v19.25H8.938A2.06,2.06,0,0,1,11,66.688a2.06,2.06,0,0,0,2.063,2.063h7.563a4.125,4.125,0,0,1,0,8.25H1.375v2.75A6.878,6.878,0,0,0,8.25,86.625h71.5a6.878,6.878,0,0,0,6.875-6.875V66H81.813a2.06,2.06,0,0,1-2.062-2.062,2.06,2.06,0,0,0-2.062-2.062H74.25a4.125,4.125,0,0,1,0-8.25Zm-20.625,27.5a2.75,2.75,0,1,1,2.75-2.75A2.749,2.749,0,0,1,53.625,81.125Z" fill="#896148"/>
          <circle id="Elipse_13697" data-name="Elipse 13697" cx="2.75" cy="2.75" r="2.75" transform="translate(50.875 75.625)" fill="#896148"/>
          <path id="Trazado_994884" data-name="Trazado 994884" d="M86.625,53.625V66H81.813a2.06,2.06,0,0,1-2.062-2.062,2.06,2.06,0,0,0-2.062-2.062H74.25a4.125,4.125,0,0,1,0-8.25Z" fill="#5eb132"/>
          <path id="Trazado_994885" data-name="Trazado 994885" d="M23.54,69.96A4.122,4.122,0,0,1,20.625,77H1.375V64.625H8.938A2.06,2.06,0,0,1,11,66.688a2.06,2.06,0,0,0,2.063,2.063h7.563a4.115,4.115,0,0,1,2.915,1.21Z" fill="#5eb132"/>
          <path id="Trazado_994886" data-name="Trazado 994886" d="M86.625,31.625V46.75H43.313a3.438,3.438,0,1,0,0,6.875H52.25a4.119,4.119,0,0,1,4.125,4.125A4.131,4.131,0,0,0,60.5,61.875h2.75a4.125,4.125,0,0,1,0,8.25h-22A4.119,4.119,0,0,1,37.125,66,4.131,4.131,0,0,0,33,61.875H17.188a4.818,4.818,0,0,1-4.812-4.812,4.836,4.836,0,0,1,4.813-4.812h5.5a3.438,3.438,0,1,0,0-6.875H1.375V31.625h8.25a4.125,4.125,0,0,1,8.25,0h9.061a19.938,19.938,0,0,0,34.128,0h9.061a4.125,4.125,0,0,1,8.25,0Z" fill="#7fc94f"/>
          <path id="Trazado_994887" data-name="Trazado 994887" d="M63.938,21.313A19.938,19.938,0,1,1,44,1.375,19.808,19.808,0,0,1,63.938,21.313ZM50.875,28.476a9.626,9.626,0,0,0-2.75-18.851h-8.25a9.626,9.626,0,0,0-2.75,18.851v5.9h13.75Z" fill="#e6e6e6"/>
          <path id="Trazado_994888" data-name="Trazado 994888" d="M44,34.375H37.125v-5.9a9.626,9.626,0,0,1,2.75-18.851h8.25a9.626,9.626,0,0,1,2.75,18.851v5.9ZM52.25,19.25A2.75,2.75,0,1,0,49.5,22,2.758,2.758,0,0,0,52.25,19.25Zm-11,0A2.75,2.75,0,1,0,38.5,22,2.758,2.758,0,0,0,41.25,19.25Z" fill="#5eb132"/>
          <g id="Grupo_1177391" data-name="Grupo 1177391">
            <circle id="Elipse_13698" data-name="Elipse 13698" cx="2.75" cy="2.75" r="2.75" transform="translate(46.75 16.5)" fill="#7fc94f"/>
            <circle id="Elipse_13699" data-name="Elipse 13699" cx="2.75" cy="2.75" r="2.75" transform="translate(35.75 16.5)" fill="#7fc94f"/>
          </g>
        </g>
        <g id="Grupo_1177393" data-name="Grupo 1177393">
          <path id="Trazado_994889" data-name="Trazado 994889" d="M86.625,30.25H79.577a5.5,5.5,0,0,0-10.654,0H63.338a21.313,21.313,0,1,0-38.679,0H19.074a5.5,5.5,0,0,0-10.654,0H1.375A1.376,1.376,0,0,0,0,31.625V79.75A8.258,8.258,0,0,0,8.25,88h71.5A8.258,8.258,0,0,0,88,79.75V31.625A1.376,1.376,0,0,0,86.625,30.25ZM85.25,64.625H81.813a.688.688,0,0,1-.687-.687A3.442,3.442,0,0,0,77.688,60.5H74.25a2.75,2.75,0,0,1,0-5.5h11ZM44,2.75A18.563,18.563,0,1,1,28.112,30.913h0A18.564,18.564,0,0,1,44,2.75ZM2.75,66H8.938a.688.688,0,0,1,.688.688,3.442,3.442,0,0,0,3.438,3.438h7.563a2.75,2.75,0,0,1,0,5.5H2.75Zm77,19.25H8.25a5.506,5.506,0,0,1-5.5-5.5V78.375H20.625a5.5,5.5,0,0,0,0-11H13.063a.688.688,0,0,1-.687-.687A3.442,3.442,0,0,0,8.938,63.25H2.75V46.75H22.688a2.063,2.063,0,0,1,0,4.125h-5.5A6.209,6.209,0,0,0,11,57.063a6.2,6.2,0,0,0,6.188,6.188H33A2.756,2.756,0,0,1,35.75,66a5.506,5.506,0,0,0,5.5,5.5h22a5.5,5.5,0,0,0,0-11H60.5a2.756,2.756,0,0,1-2.75-2.75,5.506,5.506,0,0,0-5.5-5.5H43.313a2.063,2.063,0,0,1,0-4.125H59.125a1.375,1.375,0,0,0,0-2.75H43.313a4.813,4.813,0,1,0,0,9.625H52.25A2.753,2.753,0,0,1,55,57.75a5.507,5.507,0,0,0,5.5,5.5h2.75a2.75,2.75,0,0,1,0,5.5h-22A2.753,2.753,0,0,1,38.5,66,5.507,5.507,0,0,0,33,60.5H17.188a3.442,3.442,0,0,1-3.437-3.437,3.46,3.46,0,0,1,3.438-3.437h5.5a4.813,4.813,0,1,0,0-9.625H2.75V33H9.625A1.375,1.375,0,0,0,11,31.625a2.75,2.75,0,1,1,5.5,0A1.375,1.375,0,0,0,17.875,33h8.316a21.288,21.288,0,0,0,35.618,0h8.316A1.376,1.376,0,0,0,71.5,31.625a2.75,2.75,0,1,1,5.5,0A1.376,1.376,0,0,0,78.375,33H85.25V45.375H66a1.375,1.375,0,0,0,0,2.75H85.25V52.25h-11a5.5,5.5,0,0,0,0,11h3.438a.688.688,0,0,1,.688.688,3.442,3.442,0,0,0,3.438,3.438H85.25V79.75A5.506,5.506,0,0,1,79.75,85.25Z" fill="#252525"/>
          <path id="Trazado_994890" data-name="Trazado 994890" d="M35.75,29.448v4.927a1.376,1.376,0,0,0,1.375,1.375h13.75a1.376,1.376,0,0,0,1.375-1.375V29.448a11,11,0,0,0-4.125-21.2h-8.25a11,11,0,0,0-4.125,21.2ZM39.875,11h8.25a8.251,8.251,0,0,1,2.358,16.158,1.375,1.375,0,0,0-.983,1.317V33H45.375V31.624a1.375,1.375,0,1,0-2.75,0V33H38.5V28.475a1.374,1.374,0,0,0-.983-1.317A8.251,8.251,0,0,1,39.875,11Z" fill="#252525"/>
          <path id="Trazado_994891" data-name="Trazado 994891" d="M38.5,23.375a4.125,4.125,0,1,0-4.125-4.125A4.13,4.13,0,0,0,38.5,23.375Zm0-5.5a1.375,1.375,0,1,1-1.375,1.375A1.377,1.377,0,0,1,38.5,17.875Z" fill="#252525"/>
          <path id="Trazado_994892" data-name="Trazado 994892" d="M49.5,23.375a4.125,4.125,0,1,0-4.125-4.125A4.13,4.13,0,0,0,49.5,23.375Zm0-5.5a1.375,1.375,0,1,1-1.375,1.375A1.377,1.377,0,0,1,49.5,17.875Z" fill="#252525"/>
          <path id="Trazado_994893" data-name="Trazado 994893" d="M41.25,26.125A1.376,1.376,0,0,0,42.625,27.5h2.75a1.375,1.375,0,0,0,0-2.75h-2.75A1.376,1.376,0,0,0,41.25,26.125Z" fill="#252525"/>
          <circle id="Elipse_13700" data-name="Elipse 13700" cx="2.063" cy="2.063" r="2.063" transform="translate(74.25 74.25)" fill="#252525"/>
          <circle id="Elipse_13701" data-name="Elipse 13701" cx="2.063" cy="2.063" r="2.063" transform="translate(33 74.25)" fill="#252525"/>
          <circle id="Elipse_13702" data-name="Elipse 13702" cx="2.063" cy="2.063" r="2.063" transform="translate(60.5 52.25)" fill="#252525"/>
          <circle id="Elipse_13703" data-name="Elipse 13703" cx="2.063" cy="2.063" r="2.063" transform="translate(5.5 49.5)" fill="#252525"/>
          <path id="Trazado_994894" data-name="Trazado 994894" d="M56.375,77A1.376,1.376,0,0,0,55,78.375a1.375,1.375,0,0,1-2.75,0,1.375,1.375,0,0,0-2.75,0,4.125,4.125,0,0,0,8.25,0A1.376,1.376,0,0,0,56.375,77Z" fill="#252525"/>
        </g>
      </g>
    </g>
  </g>
</svg>
