<svg xmlns="http://www.w3.org/2000/svg" xmlns:xlink="http://www.w3.org/1999/xlink" width="104" height="104" viewBox="0 0 104 104">
  <defs>
    <clipPath id="clip-path">
      <rect id="Rectángulo_454588" data-name="Rectángulo 454588" width="96" height="96" transform="translate(745.745 9172)" fill="#fff" stroke="#707070" stroke-width="1"/>
    </clipPath>
  </defs>
  <g id="Grupo_1176993" data-name="Grupo 1176993" transform="translate(-741.746 -9168)">
    <path id="Elipse_5729" data-name="Elipse 5729" d="M52,0A52,52,0,1,1,0,52,52,52,0,0,1,52,0Z" transform="translate(741.746 9168)" fill="#02614b"/>
    <g id="Enmascarar_grupo_1119153" data-name="Enmascarar grupo 1119153" clip-path="url(#clip-path)">
      <g id="Layer_32" data-name="Layer 32" transform="translate(744.196 9170.451)">
        <circle id="Elipse_13687" data-name="Elipse 13687" cx="18.581" cy="18.581" r="18.581" transform="translate(30.968 27.871)" fill="#e2e7f6"/>
        <path id="Trazado_994807" data-name="Trazado 994807" d="M65.032,44.9a18.547,18.547,0,0,0-8.782-15.766,18.562,18.562,0,0,0-16.5,33.081A18.548,18.548,0,0,0,65.032,44.9Z" fill="#f2f2f2"/>
        <path id="Trazado_994808" data-name="Trazado 994808" d="M17.322,45.193A32.516,32.516,0,0,1,49.548,17.032v4.645l9.29-9.29L49.548,3.1V7.742A41.807,41.807,0,0,0,8.029,44.619v0l4.357-4.357Z" fill="#4d8c28"/>
        <path id="Trazado_994809" data-name="Trazado 994809" d="M45.193,81.775,40.258,86.71l4.357,4.357h0A41.806,41.806,0,0,1,7.742,49.548H3.1l9.29-9.29,9.29,9.29H17.032A32.517,32.517,0,0,0,45.2,81.775Z" fill="#559b2d"/>
        <path id="Trazado_994810" data-name="Trazado 994810" d="M91.067,54.482,86.71,58.839,81.775,53.9h0A32.516,32.516,0,0,1,49.548,82.065V77.419l-9.29,9.29L49.548,96V91.355A41.807,41.807,0,0,0,91.067,54.478Z" fill="#6bc13b"/>
        <path id="Trazado_994811" data-name="Trazado 994811" d="M54.482,8.03l4.357,4.357L53.9,17.322h0A32.516,32.516,0,0,1,82.065,49.548H77.419l9.29,9.29L96,49.548H91.355A41.807,41.807,0,0,0,54.478,8.029Z" fill="#7bdf45"/>
        <path id="Trazado_994812" data-name="Trazado 994812" d="M45.193,81.775l4.356-4.356v4.645A32.446,32.446,0,0,0,74.3,70.636h0a7.7,7.7,0,0,0-9.182-7,7.784,7.784,0,0,0-3.773-2.824l.022-.017a18.581,18.581,0,0,1-23.618.017h0a7.784,7.784,0,0,0-3.772,2.832,7.7,7.7,0,0,0-9.182,7h0a32.46,32.46,0,0,0,20.4,11.139Z" fill="#976947"/>
        <path id="Trazado_994813" data-name="Trazado 994813" d="M37.161,40.258h0A12.387,12.387,0,0,1,49.548,52.645v6.194h0A12.387,12.387,0,0,1,37.161,46.452Z" fill="#559b2d"/>
        <path id="Trazado_994814" data-name="Trazado 994814" d="M61.936,40.258h0v6.194A12.387,12.387,0,0,1,49.548,58.839h0V52.645A12.387,12.387,0,0,1,61.936,40.258Z" transform="translate(111.484 99.097) rotate(180)" fill="#6bc13b"/>
        <path id="Trazado_994815" data-name="Trazado 994815" d="M97.431,48.955A1.548,1.548,0,0,0,96,48H92.875A43.33,43.33,0,0,0,55.209,6.568L50.643,2A1.548,1.548,0,0,0,48,3.1V6.221A43.33,43.33,0,0,0,6.568,43.888L2,48.454A1.548,1.548,0,0,0,3.1,51.1H6.221A43.33,43.33,0,0,0,43.888,92.529l4.566,4.566a1.548,1.548,0,0,0,1.095.454,1.529,1.529,0,0,0,.593-.118A1.548,1.548,0,0,0,51.1,96V92.875A43.332,43.332,0,0,0,92.529,55.209l4.566-4.566a1.548,1.548,0,0,0,.336-1.688Zm-7.624.593A1.548,1.548,0,0,0,91.355,51.1h.907L86.71,56.649,81.157,51.1h.907a1.548,1.548,0,0,0,1.548-1.548A34.174,34.174,0,0,0,57.088,16.328l2.846-2.846a1.548,1.548,0,0,0,0-2.189l-.861-.861A40.246,40.246,0,0,1,89.807,49.548ZM50.141,75.989a1.548,1.548,0,0,0-1.688.336l-3.786,3.784a30.813,30.813,0,0,1-18.217-9.99,6.122,6.122,0,0,1,7.237-4.967,1.567,1.567,0,0,0,1.548-.619,6.225,6.225,0,0,1,2.315-1.957,19.974,19.974,0,0,0,24,0,6.224,6.224,0,0,1,2.323,1.957,1.564,1.564,0,0,0,1.548.619,6.124,6.124,0,0,1,7.239,4.972A31.016,31.016,0,0,1,51.1,80.477V77.419a1.548,1.548,0,0,0-.955-1.431Zm-.593-12.5A17.032,17.032,0,1,1,66.581,46.452,17.032,17.032,0,0,1,49.548,63.484ZM74.942,67.2a9.228,9.228,0,0,0-9.173-5.229A9.338,9.338,0,0,0,64,60.423a20.129,20.129,0,1,0-28.921,0,9.338,9.338,0,0,0-1.765,1.548,9.221,9.221,0,0,0-9.166,5.215A30.855,30.855,0,0,1,18.619,51.1h3.058a1.548,1.548,0,0,0,1.095-2.643l-3.784-3.786A31.041,31.041,0,0,1,48,18.619v3.058a1.548,1.548,0,0,0,2.643,1.095l3.786-3.784A31.041,31.041,0,0,1,80.477,48H77.419a1.548,1.548,0,0,0-1.095,2.643l3.784,3.786A30.6,30.6,0,0,1,74.942,67.2ZM49.548,9.29A1.548,1.548,0,0,0,51.1,7.742V6.835l5.553,5.553L51.1,17.94v-.907a1.548,1.548,0,0,0-1.548-1.548A34.174,34.174,0,0,0,16.328,42.009l-2.846-2.846a1.548,1.548,0,0,0-2.189,0l-.861.861A40.246,40.246,0,0,1,49.548,9.29ZM9.29,49.548A1.548,1.548,0,0,0,7.742,48H6.835l5.553-5.553L17.94,48h-.907a1.548,1.548,0,0,0-1.548,1.548A34.174,34.174,0,0,0,42.009,82.769l-2.846,2.846a1.548,1.548,0,0,0,0,2.189l.861.861A40.246,40.246,0,0,1,9.29,49.548ZM49.548,89.807A1.548,1.548,0,0,0,48,91.355v.907L42.448,86.71,48,81.157v.907a1.548,1.548,0,0,0,1.548,1.548A34.174,34.174,0,0,0,82.769,57.088l2.846,2.846a1.548,1.548,0,0,0,2.189,0l.861-.861A40.258,40.258,0,0,1,49.548,89.807Z"/>
        <path id="Trazado_994816" data-name="Trazado 994816" d="M61.936,38.71A13.936,13.936,0,0,0,49.548,46.3,13.935,13.935,0,0,0,37.161,38.71a1.548,1.548,0,0,0-1.548,1.548v6.194a13.935,13.935,0,0,0,27.871,0V40.258A1.548,1.548,0,0,0,61.936,38.71ZM38.71,46.452V41.916A10.856,10.856,0,0,1,48,52.645V57.18a10.856,10.856,0,0,1-9.29-10.729Zm21.677,0A10.856,10.856,0,0,1,51.1,57.18V52.645a10.856,10.856,0,0,1,9.29-10.729Z"/>
      </g>
    </g>
  </g>
</svg>
