<svg xmlns="http://www.w3.org/2000/svg" xmlns:xlink="http://www.w3.org/1999/xlink" width="104" height="104" viewBox="0 0 104 104">
  <defs>
    <clipPath id="clip-path">
      <rect id="Rectángulo_454588" data-name="Rectángulo 454588" width="96" height="96" transform="translate(745.745 9172)" fill="#fff" stroke="#707070" stroke-width="1"/>
    </clipPath>
  </defs>
  <g id="Grupo_1177362" data-name="Grupo 1177362" transform="translate(-741.746 -9168)">
    <path id="Elipse_5729" data-name="Elipse 5729" d="M52,0A52,52,0,1,1,0,52,52,52,0,0,1,52,0Z" transform="translate(741.746 9168)" fill="#02614b"/>
    <g id="Enmascarar_grupo_1119155" data-name="Enmascarar grupo 1119155" clip-path="url(#clip-path)">
      <g id="estiercol" transform="translate(745.745 9172)">
        <path id="Trazado_994817" data-name="Trazado 994817" d="M91.2,82.4H88.656a21.5,21.5,0,0,0-14.7-36.147.794.794,0,0,1-.725-.607,13.908,13.908,0,0,0-5.46-8.161C62.325,33.718,56.143,35.649,54.4,36.32a.8.8,0,0,1-.84-.174,25.629,25.629,0,0,0-27.785-5.218C15.372,35.479,9.206,46.957,11.1,58.7a.8.8,0,0,1-.494.863C.895,63.417-1,74.928,5.141,82.4H4.807a3.2,3.2,0,0,0-3.2,3.2v4a3.2,3.2,0,0,0,3.2,3.2H91.2a3.2,3.2,0,0,0,3.2-3.2v-4a3.2,3.2,0,0,0-3.2-3.2Z" fill="#c79a83"/>
        <path id="Trazado_994818" data-name="Trazado 994818" d="M94.4,85.6v4a3.2,3.2,0,0,1-3.2,3.2H4.807a3.2,3.2,0,0,1-3.2-3.2v-4a3.2,3.2,0,0,1,3.2-3.2H91.2A3.2,3.2,0,0,1,94.4,85.6Z" fill="#ffd9ad"/>
        <ellipse id="Elipse_13688" data-name="Elipse 13688" cx="8.623" cy="5.411" rx="8.623" ry="5.411" transform="translate(60.663 65.071) rotate(-45)" fill="#befa91"/>
        <path id="Trazado_994819" data-name="Trazado 994819" d="M77.334,57.806a1.282,1.282,0,0,1-1.852,1.632,4.037,4.037,0,0,0-2.267-.691,10.3,10.3,0,0,0-3.909.766,1.283,1.283,0,0,1-1.167-2.27A10.283,10.283,0,0,1,73.732,55.6,3.834,3.834,0,0,1,77.334,57.806Z" fill="#daffbf"/>
        <path id="Trazado_994820" data-name="Trazado 994820" d="M62.188,44.655c-3.907-3.133-13.969-9.473-26.413-4.029-9.93,4.344-15.96,14.992-14.88,26.165a3.172,3.172,0,0,1-1.71,3.111,13.729,13.729,0,0,0-7.345,9.853A3.207,3.207,0,0,1,8.691,82.4H5.141C-1,74.929.9,63.43,10.606,59.56A.8.8,0,0,0,11.1,58.7C9.206,46.958,15.373,35.485,25.777,30.93a25.6,25.6,0,0,1,27.786,5.218.8.8,0,0,0,.837.174c1.739-.669,7.923-2.6,13.377,1.161C73.1,41.16,66.7,48.271,62.188,44.655Z" fill="#e0b7a3"/>
        <path id="Trazado_994821" data-name="Trazado 994821" d="M91.241,85.8H10.406a3.2,3.2,0,0,0-3.2,3.2v1.441a2.413,2.413,0,0,1-2.363,2.424,3.2,3.2,0,0,1-3.237-3.2V85.6a3.2,3.2,0,0,1,3.2-3.2H91.2a1.7,1.7,0,1,1,.042,3.4Z" fill="#ffebd2"/>
        <g id="Grupo_1177364" data-name="Grupo 1177364">
          <path id="Trazado_994822" data-name="Trazado 994822" d="M18.679,37.97c9.243-10.164,24.727-9.631,34.134-.321a1.6,1.6,0,0,0,1.795.316c.066-.03,6.695-3.009,12.26.834a12.333,12.333,0,0,1,4.922,7.726,1.6,1.6,0,0,0,1.521,1.3,20.743,20.743,0,0,1,5.5.918,1.588,1.588,0,0,0,.743.248A19.75,19.75,0,0,1,91.466,74.815a1.6,1.6,0,1,0,2.991,1.137,22.948,22.948,0,0,0-12.9-29.629,13.45,13.45,0,0,1,6.206-7.988,1.6,1.6,0,0,0-1.609-2.766A16.808,16.808,0,0,0,83.2,37.754a16.421,16.421,0,0,0-3.943-3.16,1.6,1.6,0,1,0-1.6,2.773,13.369,13.369,0,0,1,3.4,2.784,16.526,16.526,0,0,0-2.545,5.182,23.939,23.939,0,0,0-3.873-.641c-2.37-8.426-10.715-13.37-20.333-10.041-10.894-10.02-27.856-9.985-38,1.164a1.6,1.6,0,0,0,2.367,2.153Z"/>
          <path id="Trazado_994823" data-name="Trazado 994823" d="M91.2,80.8H13.638a1.6,1.6,0,0,0,0,3.2H91.2a1.6,1.6,0,0,1,1.6,1.6v4a1.6,1.6,0,0,1-1.6,1.6H4.807a1.6,1.6,0,0,1-1.6-1.6v-4a1.6,1.6,0,0,1,1.6-1.6h.334A1.6,1.6,0,0,0,6.375,81.38c-5.427-6.886-3.817-17.3,5.367-20.539a1.6,1.6,0,0,0,1.04-1.8,24.755,24.755,0,0,1,1.041-12.968,11.969,11.969,0,0,1,4.085,3.69,1.6,1.6,0,1,0,2.626-1.827c-3.368-4.841-8.922-7.023-14.74-6.754a1.6,1.6,0,1,0,.147,3.2,16.4,16.4,0,0,1,4.907.511A27.9,27.9,0,0,0,9.425,58.32C.168,62.409-2.521,73.182,2.478,81.4A4.8,4.8,0,0,0,.008,85.6v4a4.805,4.805,0,0,0,4.8,4.8H91.2A4.805,4.805,0,0,0,96,89.6v-4A4.805,4.805,0,0,0,91.2,80.8Z"/>
          <path id="Trazado_994824" data-name="Trazado 994824" d="M32.857,54.729a1.6,1.6,0,0,0,1.069-1.385A9.446,9.446,0,0,1,42.9,44.617a1.6,1.6,0,1,0-.248-3.19,13.37,13.37,0,0,0-9.4,5,12.557,12.557,0,0,0-2.391,5.692,8.5,8.5,0,0,0-3.827,11.545A1.6,1.6,0,1,0,29.87,62.2a5.317,5.317,0,0,1,2.987-7.469Z"/>
          <path id="Trazado_994825" data-name="Trazado 994825" d="M51.814,63.91a5.037,5.037,0,0,1,2.579-1.094,1.6,1.6,0,1,0-.422-3.171,8.185,8.185,0,0,0-4.219,1.819c-3.8,3.207-2.768,8.6-2.722,8.823a1.6,1.6,0,0,0,3.137-.631c-.007-.037-.706-3.761,1.648-5.746Z"/>
          <path id="Trazado_994826" data-name="Trazado 994826" d="M71.788,67.257a1.6,1.6,0,0,0,1.586,2.779A11.966,11.966,0,0,0,79.4,59.666,5.673,5.673,0,0,0,73.733,54,11.945,11.945,0,0,0,61.8,65.931a5.686,5.686,0,0,0,.628,2.583,19.726,19.726,0,0,0-1.584,4.31,1.6,1.6,0,1,0,3.111.748,16.522,16.522,0,0,1,6.565-9.665A1.6,1.6,0,0,0,68.68,61.29a19.713,19.713,0,0,0-3.562,3.226A8.745,8.745,0,0,1,73.733,57.2,2.47,2.47,0,0,1,76.2,59.666a8.761,8.761,0,0,1-4.412,7.591Z"/>
          <path id="Trazado_994827" data-name="Trazado 994827" d="M43.224,9.6A1.6,1.6,0,0,0,44.8,7.73a2.968,2.968,0,0,1,1.157-3.242,1.6,1.6,0,0,0-1.912-2.566,6.129,6.129,0,0,0-2.4,6.357A1.6,1.6,0,0,0,43.224,9.6Z"/>
          <path id="Trazado_994828" data-name="Trazado 994828" d="M44.994,12.744a1.6,1.6,0,0,0-.814,2.111c.952,2.147,1.455,3.816.819,4.98a2.539,2.539,0,0,1-.616.735,1.6,1.6,0,0,0,2.04,2.465,5.723,5.723,0,0,0,1.383-1.665c1.341-2.452.456-5.2-.7-7.812a1.6,1.6,0,0,0-2.111-.815Z"/>
          <path id="Trazado_994829" data-name="Trazado 994829" d="M61.217,9.916a2.579,2.579,0,0,0,1.267-.465,1.6,1.6,0,1,0-1.365-2.894c-.254.12-.5.251-.728.388a1.6,1.6,0,0,0,.827,2.971Z"/>
          <path id="Trazado_994830" data-name="Trazado 994830" d="M59.762,23.19a1.6,1.6,0,0,0,2.478,2.025,7.262,7.262,0,0,0,1.279-2.307c.973-2.927-.244-5.569-1.513-8.245a1.6,1.6,0,1,0-2.891,1.371c1.216,2.561,2.446,4.956.648,7.157Z"/>
          <path id="Trazado_994831" data-name="Trazado 994831" d="M28,17.018a1.6,1.6,0,0,0,1.444-2.287c-.848-1.786-1.415-3.122-.984-4.058a2.8,2.8,0,0,1,1.43-1.223,1.6,1.6,0,1,0-1.366-2.893,5.849,5.849,0,0,0-2.97,2.777c-1.09,2.367.068,4.808,1,6.77A1.6,1.6,0,0,0,28,17.018Z"/>
          <path id="Trazado_994832" data-name="Trazado 994832" d="M29.532,18.659a1.6,1.6,0,0,0-1.472,1.719c0,.038.005.076.007.113a1.6,1.6,0,1,0,3.2-.162c0-.066-.008-.132-.013-.2a1.6,1.6,0,0,0-1.718-1.472Z"/>
        </g>
      </g>
    </g>
  </g>
</svg>
